<?xml version="1.0" standalone="no"?>
<!DOCTYPE svg PUBLIC "-//W3C//DTD SVG 1.1//EN" "http://www.w3.org/Graphics/SVG/1.1/DTD/svg11.dtd" >
<svg xmlns="http://www.w3.org/2000/svg" xmlns:xlink="http://www.w3.org/1999/xlink" version="1.1">
<metadata>
Created by Christoph Koeberlin (http://christoph.koe.berlin)
PORSCHE NEXT: Copyright (c) 2017-2023 Dr. Ing. h.c. F. Porsche AG. All rights reserved. PORSCHE NEXT is a design by TYPE TAILORS BVBA for Dr. Ing. h.c. F. Porsche AG. Type Directors: Hendrik Weber, Fred Smeijers, Corina Cotorobai. Lead font development: Thomas Thiemich. Produced by TYPE TAILORS BVBA.
</metadata>
<defs>
<font id="Font" horiz-adv-x="325" >
  <font-face 
    font-family="Font"
    font-weight="700"
    font-style="italic"
    font-stretch="normal"
    units-per-em="1000"
    panose-1="2 11 8 4 2 1 1 1 1 2"
    ascent="800"
    descent="-200"
    x-height="504"
    cap-height="712"
    bbox="-347 -312 1070 1060"
    underline-thickness="50"
    underline-position="-125"
    slope="-8"
    unicode-range="U+000D-FEFF"
  />
<missing-glyph horiz-adv-x="728" 
d="M12 712h704v-712h-704v712zM242 182l124 128l124 -128l52 52l-124 128l124 129l-52 51l-124 -127l-124 127l-52 -51l124 -129l-124 -128z" />
    <glyph glyph-name="f_b.liga" unicode="fb" horiz-adv-x="799" 
d="M377 599h-58q-34 0 -52.5 -14t-23.5 -56l-3 -25h72l-13 -109h-73l-48 -395h-132l48 395h-58l14 109h57l4 33q11 91 57 133t137 42h218l-32 -255q21 31 50 43t66 12q40 0 71 -9.5t51.5 -31t31 -57t10.5 -86.5q0 -18 -1 -37.5t-3 -42.5q-8 -74 -24 -123.5t-41.5 -79
t-61.5 -41.5t-84 -12q-21 0 -40 3.5t-34.5 12.5t-27.5 24.5t-18 39.5l-8 -72h-124zM529 93q24 0 41 6t29 23t19.5 48t13.5 82q2 23 4 41t2 32q0 46 -17 60t-54 14q-24 0 -40.5 -5t-27.5 -21t-18.5 -44.5t-13.5 -76.5q-3 -26 -5 -46.5t-2 -36.5q0 -23 4 -38t12.5 -23.5
t21.5 -11.5t31 -3z" />
    <glyph glyph-name="f_f.liga" unicode="ff" horiz-adv-x="604" 
d="M50 504h58l5 43q10 85 53.5 125t128.5 40h70l-13 -113h-43q-28 0 -44 -12.5t-21 -47.5l-5 -35h136l5 43q10 85 53 125t128 40h92l-14 -113h-63q-28 0 -44 -12.5t-21 -47.5l-5 -35h116l-14 -109h-115l-48 -395h-132l48 395h-135l-48 -395h-132l48 395h-58z" />
    <glyph glyph-name="f_f_b.liga" unicode="ffb" horiz-adv-x="1065" 
d="M758 457q21 31 50 43t66 12q40 0 71 -9.5t51.5 -31t31 -57t10.5 -86.5q0 -18 -1 -37.5t-4 -42.5q-9 -74 -25 -123.5t-41 -79t-60.5 -41.5t-83.5 -12q-21 0 -40 3.5t-35 12.5t-28 24.5t-18 39.5l-8 -72h-124l74 599h-58q-34 0 -53 -13.5t-24 -55.5l-3 -26h73l-14 -109h-72
l-48 -395h-132l48 395h-134l-49 -395h-132l48 395h-58l14 109h57l6 43q12 85 56 125t129 40h67l-13 -113h-43q-28 0 -44 -12.5t-21 -47.5l-5 -35h135l4 33q11 91 58.5 133t138.5 42h215zM796 93q24 0 41 6t29 23t19.5 48t13.5 82q2 23 4 41t2 32q0 46 -17 60t-54 14
q-24 0 -40.5 -5t-27.5 -21t-18.5 -44.5t-13.5 -76.5q-3 -26 -5 -46.5t-2 -36.5q0 -23 4 -38t12.5 -23.5t21.5 -11.5t31 -3z" />
    <glyph glyph-name="f_f_h.liga" unicode="ffh" horiz-adv-x="1053" 
d="M759 462q17 24 44 37t69 13q76 0 111 -35.5t35 -107.5q0 -21 -3 -45l-39 -324h-133l36 298q3 22 3 38q0 35 -14 48t-46 13q-21 0 -35 -4.5t-23.5 -16t-15 -30.5t-9.5 -48l-36 -298h-133l74 599h-58q-34 0 -53 -13.5t-24 -55.5l-3 -26h73l-14 -109h-72l-48 -395h-132
l48 395h-134l-49 -395h-132l48 395h-58l14 109h57l6 43q12 85 56 125t129 40h67l-13 -113h-43q-28 0 -44 -12.5t-21 -47.5l-5 -35h135l4 33q11 91 58.5 133t138.5 42h215z" />
    <glyph glyph-name="f_f_i.liga" unicode="ffi" horiz-adv-x="785" 
d="M94 395h-58l14 109h57l6 43q12 85 54.5 125t127.5 40h70l-13 -113h-43q-28 0 -44 -12.5t-21 -47.5l-5 -35h135l6 43q12 85 54.5 125t126.5 40h50l-14 -113h-21q-28 0 -44 -12.5t-21 -47.5l-5 -35h259l-62 -504h-133l49 395h-126l-48 -395h-132l48 395h-134l-49 -395h-132
zM660 712h130l-15 -120h-130z" />
    <glyph glyph-name="f_f_j.liga" unicode="ffj" horiz-adv-x="785" 
d="M94 395h-58l14 109h57l6 43q12 85 54.5 125t127.5 40h70l-13 -113h-43q-28 0 -44 -12.5t-21 -47.5l-5 -35h135l6 43q12 85 54.5 125t126.5 40h50l-14 -113h-21q-28 0 -44 -12.5t-21 -47.5l-5 -35h259l-65 -529q-11 -93 -56 -138t-140 -45h-58l12 101h34q34 0 51 15.5
t22 49.5l54 437h-126l-48 -395h-132l48 395h-134l-49 -395h-132zM660 712h130l-15 -120h-130z" />
    <glyph glyph-name="f_f_k.liga" unicode="ffk" horiz-adv-x="1035" 
d="M739 299l187 205h144l-193 -208l131 -296h-144l-85 199l-60 -66l-16 -133h-133l74 599h-58q-34 0 -53 -13.5t-24 -55.5l-3 -26h73l-14 -109h-72l-48 -395h-132l48 395h-134l-49 -395h-132l48 395h-58l14 109h57l6 43q12 85 56 125t129 40h67l-13 -113h-43
q-28 0 -44 -12.5t-21 -47.5l-5 -35h135l4 33q11 91 58.5 133t138.5 42h215z" />
    <glyph glyph-name="f_f_l.liga" unicode="ffl" horiz-adv-x="784" 
d="M94 395h-58l14 109h57l6 43q12 85 54.5 125t127.5 40h70l-13 -113h-43q-28 0 -44 -12.5t-21 -47.5l-5 -35h135l4 33q11 91 57 133t137 42h218l-87 -712h-133l74 599h-58q-34 0 -53 -13.5t-24 -55.5l-3 -26h73l-14 -109h-72l-48 -395h-132l48 395h-134l-49 -395h-132z" />
    <glyph glyph-name="f_f_t.liga" unicode="fft" horiz-adv-x="870" 
d="M94 395h-58l14 109h57l6 43q12 85 54.5 125t127.5 40h70l-13 -113h-43q-28 0 -44 -12.5t-21 -47.5l-5 -35h135l6 43q12 85 54.5 125t126.5 40h50l-14 -113h-21q-28 0 -44 -12.5t-21 -47.5l-5 -35h129l15 120h129l-15 -120h122l-14 -109h-121l-28 -227q-1 -6 -1.5 -11.5
t-0.5 -10.5q0 -28 14 -36.5t46 -8.5h53l-12 -101h-70q-82 0 -122.5 30t-40.5 103q0 19 3 42l27 220h-126l-48 -395h-132l48 395h-134l-49 -395h-132z" />
    <glyph glyph-name="f_h.liga" unicode="fh" horiz-adv-x="787" 
d="M377 599h-58q-34 0 -52.5 -14t-23.5 -56l-3 -25h72l-13 -109h-73l-48 -395h-132l48 395h-58l14 109h57l4 33q11 91 57 133t137 42h219l-31 -250q17 24 44 37t69 13q75 0 110.5 -35.5t35.5 -107.5q0 -21 -3 -45l-40 -324h-132l36 298q3 22 3 38q0 35 -14 48t-46 13
q-21 0 -35 -4.5t-23.5 -16t-15.5 -30.5t-9 -48l-36 -298h-133z" />
    <glyph glyph-name="f_i.liga" unicode="fi" horiz-adv-x="518" 
d="M352 395h-126l-48 -395h-132l48 395h-58l14 109h58l5 43q10 85 53.5 125t128.5 40h49l-14 -113h-21q-28 0 -44 -12.5t-21 -47.5l-5 -35h259l-62 -504h-132zM393 712h130l-15 -120h-130z" />
    <glyph glyph-name="f_j.liga" unicode="fj" horiz-adv-x="518" 
d="M352 395h-126l-48 -395h-132l48 395h-58l14 109h58l5 43q10 85 53.5 125t128.5 40h49l-14 -113h-21q-28 0 -44 -12.5t-21 -47.5l-5 -35h259l-65 -529q-11 -93 -56 -138t-140 -45h-58l13 101h33q34 0 51 15.5t22 49.5zM393 712h130l-15 -120h-130z" />
    <glyph glyph-name="f_k.liga" unicode="fk" horiz-adv-x="768" 
d="M377 599h-58q-34 0 -52.5 -14t-23.5 -56l-3 -25h72l-13 -109h-73l-48 -395h-132l48 395h-58l14 109h57l4 33q11 91 57 133t137 42h218l-51 -413l187 205h144l-193 -208l131 -296h-144l-84 199l-61 -68l-16 -131h-132z" />
    <glyph glyph-name="f_l.liga" unicode="fl" horiz-adv-x="517" 
d="M50 504h57l4 33q11 91 57 133t137 42h218l-87 -712h-132l73 599h-58q-34 0 -52.5 -14t-23.5 -56l-3 -25h72l-13 -109h-73l-48 -395h-132l48 395h-58z" />
    <glyph glyph-name="f_t.liga" unicode="ft" horiz-adv-x="603" 
d="M352 395h-126l-48 -395h-132l48 395h-58l14 109h58l5 43q10 85 53.5 125t128.5 40h49l-14 -113h-21q-28 0 -44 -12.5t-21 -47.5l-5 -35h130l15 120h128l-15 -120h122l-14 -109h-121l-28 -227q-1 -6 -1.5 -11.5t-0.5 -10.5q0 -28 14 -36.5t46 -8.5h53l-12 -101h-70
q-82 0 -122.5 30t-40.5 103q0 19 3 42z" />
    <glyph glyph-name=".notdef" horiz-adv-x="728" 
d="M12 712h704v-712h-704v712zM242 182l124 128l124 -128l52 52l-124 128l124 129l-52 51l-124 -127l-124 127l-52 -51l124 -129l-124 -128z" />
    <glyph glyph-name="glyph1" horiz-adv-x="0" 
 />
    <glyph glyph-name="glyph1" horiz-adv-x="0" 
 />
    <glyph glyph-name="uni000D" unicode="&#xd;" horiz-adv-x="183" 
 />
    <glyph glyph-name="space" unicode=" " horiz-adv-x="183" 
 />
    <glyph glyph-name="exclam" unicode="!" horiz-adv-x="239" 
d="M109 712h134l-86 -479h-80zM44 135h121l-15 -135h-122z" />
    <glyph glyph-name="quotedbl" unicode="&#x22;" horiz-adv-x="350" 
d="M251 624l11 88h110l-11 -88l-46 -149h-54zM78 624l11 88h109l-11 -88l-45 -149h-54z" />
    <glyph glyph-name="numbersign" unicode="#" horiz-adv-x="670" 
d="M139 559h109l60 153h102l-60 -153h155l60 153h102l-60 -153h76l-12 -100h-103l-81 -206h81l-12 -100h-108l-60 -153h-102l60 153h-155l-60 -153h-102l60 153h-77l12 100h104l81 206h-82zM230 253h155l81 206h-155z" />
    <glyph glyph-name="dollar" unicode="$" horiz-adv-x="560" 
d="M165 219q-2 -35 1.5 -58t14.5 -37t31 -20t52 -6q54 0 84 24t30 84q0 32 -20.5 49t-68.5 29l-54 14q-79 20 -120.5 59t-41.5 119q0 109 49.5 171.5t157.5 73.5l1 3l11 92h117l-12 -97q85 -13 118.5 -57.5t33.5 -126.5q0 -11 -0.5 -22.5t-1.5 -24.5h-133q2 35 -2 57t-15 34
t-30 16.5t-48 4.5q-51 0 -78.5 -23.5t-27.5 -80.5q0 -35 22.5 -50.5t70.5 -27.5l54 -14q79 -20 119 -62.5t40 -115.5q0 -111 -54 -168t-160 -67l-11 -95h-117l11 92v4q-94 12 -130 65.5t-28 161.5h135z" />
    <glyph glyph-name="percent" unicode="%" horiz-adv-x="731" 
d="M186 348q-72 0 -102 30.5t-30 99.5q0 13 1 27.5t3 31.5q6 48 15.5 82.5t27.5 57t47 33t73 10.5q73 0 103 -30.5t30 -96.5q0 -13 -1 -27.5t-3 -30.5q-6 -50 -17 -85.5t-29.5 -58t-47 -33t-70.5 -10.5zM190 423q15 0 24.5 4t16 16.5t10.5 34.5t9 58q2 20 3.5 34t1.5 25
q0 26 -9.5 34t-29.5 8q-15 0 -24 -3.5t-15.5 -14t-10.5 -30.5t-8 -53q-6 -47 -6 -70q0 -26 9 -34.5t29 -8.5zM604 712h93l-542 -712h-93zM535 -8q-72 0 -102 30.5t-30 99.5q0 13 1 27.5t3 31.5q6 48 15.5 82.5t27.5 57t47 33t73 10.5q73 0 103 -30.5t30 -96.5
q0 -13 -1 -27.5t-3 -30.5q-6 -50 -17 -85.5t-29.5 -58t-47 -33t-70.5 -10.5zM539 67q15 0 24.5 4t16 16.5t10.5 34.5t9 58q2 20 3.5 34t1.5 25q0 26 -9.5 34t-29.5 8q-15 0 -24 -3.5t-15.5 -14t-10.5 -30.5t-8 -53q-6 -47 -6 -70q0 -26 9 -34.5t29 -8.5z" />
    <glyph glyph-name="ampersand" unicode="&#x26;" horiz-adv-x="636" 
d="M24 188q4 33 14 59t27 49t42 44t60 44q-27 38 -42 69t-15 69q0 103 58 152.5t167 49.5q107 0 150.5 -42.5t43.5 -129.5q0 -15 -1 -31t-3 -33h-123q1 11 1.5 21.5t0.5 19.5q0 44 -16 60t-58 16q-38 0 -60.5 -16.5t-22.5 -56.5q0 -26 15.5 -51t39.5 -58l128 -174l15 122
h116l-13 -102q-9 -77 -36 -132l101 -137h-156l-29 39q-32 -23 -75 -37t-103 -14q-63 0 -106.5 12.5t-70.5 34.5t-39 52.5t-12 66.5q0 8 0.5 17t1.5 17zM260 95q69 0 106 25l-137 182q-18 -14 -30.5 -26t-20.5 -24t-12.5 -25.5t-6.5 -31.5q-1 -6 -1.5 -11.5t-0.5 -10.5
q0 -40 24.5 -59t78.5 -19z" />
    <glyph glyph-name="quotesingle" unicode="'" horiz-adv-x="176" 
d="M78 624l11 88h109l-11 -88l-45 -149h-54z" />
    <glyph glyph-name="parenleft" unicode="(" horiz-adv-x="324" 
d="M362 772l-12 -98h-15q-33 0 -55.5 -10t-39 -46.5t-30.5 -109t-29 -196.5q-10 -84 -15 -142t-5 -99q0 -40 5 -64t15.5 -36.5t26.5 -16.5t38 -4h16l-13 -98h-26q-45 0 -77.5 8t-54.5 32t-32.5 67.5t-10.5 114.5q0 48 4.5 107.5t13.5 136.5q12 101 26 174.5t31 124t38 81
t46.5 47t57.5 22t71 5.5h26z" />
    <glyph glyph-name="parenright" unicode=")" horiz-adv-x="324" 
d="M-24 -148l12 98h15q22 0 39 4t31 16.5t25 36t20.5 64t19 99.5t19.5 142q10 84 15 142t5 99q0 40 -5 64t-15.5 36.5t-26.5 16.5t-38 4h-16l13 98h27q44 0 77 -8t54.5 -32t32.5 -67.5t11 -114.5q0 -48 -4.5 -107.5t-14.5 -136.5q-12 -102 -26 -175t-31 -123.5t-37.5 -81
t-46.5 -47t-57.5 -22t-70.5 -5.5h-27z" />
    <glyph glyph-name="asterisk" unicode="*" horiz-adv-x="397" 
d="M96 636l55 -18l56 -32l-3 67l6 59h88l-7 -59l-20 -67l63 31l60 18l17 -83l-60 -18l-68 -10l43 -48l29 -48l-77 -51l-29 48l-23 62l-38 -61l-40 -49l-64 52l41 48l54 47l-67 10l-54 19z" />
    <glyph glyph-name="plus" unicode="+" horiz-adv-x="560" 
d="M67 340h174l22 180h100l-22 -180h174l-12 -100h-174l-22 -180h-100l22 180h-174z" />
    <glyph glyph-name="comma" unicode="," horiz-adv-x="216" 
d="M155 135l-11 -96l-76 -167h-65l31 263h121z" />
    <glyph glyph-name="hyphen" unicode="-" horiz-adv-x="386" 
d="M58 341h292l-12 -100h-292z" />
    <glyph glyph-name="period" unicode="." horiz-adv-x="216" 
d="M33 135h121l-16 -135h-120z" />
    <glyph glyph-name="slash" unicode="/" horiz-adv-x="490" 
d="M402 712h106l-392 -712h-105z" />
    <glyph glyph-name="zero" unicode="0" horiz-adv-x="560" 
d="M257 -12q-57 0 -98.5 12t-68.5 39.5t-40 73t-13 113.5q0 29 2.5 63.5t7.5 73.5q13 100 31.5 169t50 111.5t80 61.5t121.5 19q59 0 101 -13t68.5 -41t38.5 -72t12 -107q0 -29 -2.5 -63.5t-7.5 -72.5q-14 -107 -33.5 -177.5t-51.5 -112.5t-80 -59.5t-118 -17.5zM261 98
q34 0 55.5 9.5t36.5 37.5t25 79.5t20 134.5q5 45 8 78t3 59q0 63 -20.5 83.5t-65.5 20.5q-31 0 -52.5 -9t-36.5 -35t-25.5 -73.5t-19.5 -123.5q-6 -54 -9.5 -92.5t-3.5 -67.5q0 -31 4.5 -50.5t15 -31t26.5 -15.5t39 -4z" />
    <glyph glyph-name="one" unicode="1" horiz-adv-x="560" 
d="M318 573l-193 -67l15 124l226 82h105l-87 -712h-136z" />
    <glyph glyph-name="two" unicode="2" horiz-adv-x="560" 
d="M32 79q8 75 49 130t119 100l88 52q24 14 46 29t39 34.5t27.5 44t10.5 57.5q0 42 -22.5 58t-67.5 16q-28 0 -47 -5t-32.5 -17.5t-22 -34.5t-14.5 -55h-133q9 56 25 100t45.5 74t75 46t113.5 16q58 0 99.5 -13t67.5 -37t38.5 -57.5t12.5 -75.5q0 -88 -43 -151.5
t-124 -111.5l-88 -51q-54 -32 -83 -56t-38 -58l-1 -3h316l-13 -110h-451z" />
    <glyph glyph-name="three" unicode="3" horiz-adv-x="560" 
d="M161 219q-2 -35 1.5 -58t14.5 -37t31 -20t52 -6q65 0 92.5 28.5t27.5 91.5q0 42 -23.5 59.5t-77.5 17.5h-61l15 118h59q60 0 88 27t28 86q0 42 -23 58t-69 16q-28 0 -47.5 -5t-33 -17.5t-22.5 -34.5t-15 -55h-132q9 56 26 100t47 74t75.5 46t111.5 16q117 0 168.5 -48.5
t51.5 -129.5q0 -60 -25.5 -108t-86.5 -74q42 -17 62.5 -50t20.5 -88q0 -119 -63 -178.5t-202 -59.5q-64 0 -109 12.5t-72 40t-37.5 71.5t-5.5 107h133z" />
    <glyph glyph-name="four" unicode="4" horiz-adv-x="560" 
d="M24 246l295 466h188l-56 -458h80l-13 -112h-81l-17 -142h-130l17 142h-295zM321 254l41 341l-210 -341h169z" />
    <glyph glyph-name="five" unicode="5" horiz-adv-x="560" 
d="M61 318l77 394h405l-15 -124h-300l-33 -168q44 43 120 43q99 0 152 -45t53 -144q0 -23 -3 -50q-8 -62 -26 -107t-49 -73.5t-76.5 -42t-107.5 -13.5q-125 0 -178 54.5t-47 149.5h133q-3 -54 18.5 -74t73.5 -20q31 0 52.5 6t35.5 20.5t22 39t13 61.5q3 21 3 38q0 48 -22 66
t-73 18q-50 0 -73.5 -16.5t-35.5 -53.5h-124z" />
    <glyph glyph-name="six" unicode="6" horiz-adv-x="560" 
d="M36 225q4 40 12.5 71t21 59t30.5 55.5t42 59.5l180 242h152l-195 -254q22 5 37 5q96 0 152.5 -45t56.5 -147q0 -22 -3 -49q-8 -66 -27 -111t-51 -72.5t-77 -39t-105 -11.5q-54 0 -96 10.5t-71.5 33t-45 59t-15.5 89.5v21t2 24zM173 225q-2 -14 -3 -25.5t-1 -21.5
q0 -46 21.5 -63t72.5 -17q31 0 52.5 6t36 20t22 38.5t12.5 62.5q2 12 2 21v17q0 48 -21.5 66t-72.5 18q-30 0 -51 -6t-35 -20.5t-22 -38t-13 -57.5z" />
    <glyph glyph-name="seven" unicode="7" horiz-adv-x="560" 
d="M100 712h470l-14 -110l-337 -602h-150l338 588h-322z" />
    <glyph glyph-name="eight" unicode="8" horiz-adv-x="560" 
d="M27 162q0 31 5 62t17.5 58.5t34 49t53.5 33.5q-28 18 -43.5 49t-15.5 76q0 112 61.5 173t189.5 61q59 0 100.5 -13t67 -36t37 -54.5t11.5 -68.5q0 -55 -21 -106.5t-79 -83.5q36 -17 54.5 -47.5t18.5 -79.5q0 -123 -62 -185t-202 -62q-118 0 -172.5 42t-54.5 132zM284 296
q-66 0 -93.5 -29.5t-27.5 -94.5q0 -38 21 -56t75 -18q66 0 93.5 31.5t27.5 96.5q0 37 -21 53.5t-75 16.5zM298 410q62 0 86.5 30.5t24.5 90.5q0 36 -19.5 52.5t-68.5 16.5q-63 0 -86.5 -31t-23.5 -91q0 -35 18.5 -51.5t68.5 -16.5z" />
    <glyph glyph-name="nine" unicode="9" horiz-adv-x="560" 
d="M267 242q-97 0 -151 47.5t-54 149.5q0 25 3 52q8 67 28 111.5t52.5 71.5t78 38.5t104.5 11.5q52 0 93.5 -9.5t70.5 -31t44 -56.5t15 -87q0 -12 -1 -25.5t-3 -27.5q-6 -40 -14 -71t-20.5 -58t-29.5 -54t-41 -60l-177 -244h-146l182 246q-13 -4 -34 -4zM289 354
q30 0 50.5 6.5t34 21t22 38t13.5 58.5q2 12 3 23t1 20q0 45 -21 62t-72 17q-31 0 -52 -6t-34.5 -20.5t-21.5 -38t-12 -57.5q-3 -23 -3 -40q0 -46 21.5 -65t70.5 -19z" />
    <glyph glyph-name="colon" unicode=":" horiz-adv-x="216" 
d="M75 472h121l-17 -135h-121zM33 135h121l-16 -135h-121z" />
    <glyph glyph-name="semicolon" unicode=";" horiz-adv-x="216" 
d="M75 472h121l-17 -135h-121zM154 135l-11 -96l-76 -167h-65l31 263h121z" />
    <glyph glyph-name="less" unicode="&#x3c;" horiz-adv-x="560" 
d="M56 340l470 175l-13 -109l-339 -119l310 -119l-13 -103l-427 175z" />
    <glyph glyph-name="equal" unicode="=" horiz-adv-x="560" 
d="M81 452h448l-13 -101h-448zM54 229h448l-13 -101h-448z" />
    <glyph glyph-name="greater" unicode="&#x3e;" horiz-adv-x="560" 
d="M98 515l426 -175l-12 -100l-469 -175l13 109l338 119l-309 119z" />
    <glyph glyph-name="question" unicode="?" horiz-adv-x="408" 
d="M114 270q6 46 33.5 77t58.5 57.5t55.5 54.5t24.5 68q0 36 -23 49.5t-71 13.5h-127l15 122h123q114 0 166 -45t52 -117q0 -46 -13 -78.5t-33.5 -57t-44 -43.5t-45 -36t-37 -35t-19.5 -42l-4 -25h-116zM95 135h121l-16 -135h-121z" />
    <glyph glyph-name="at" unicode="@" horiz-adv-x="870" 
d="M238 287q9 68 23 113t36 71.5t53.5 37.5t75.5 11q85 0 109 -64l7 56h116l-38 -309q-1 -6 -1.5 -12.5t-0.5 -11.5q0 -18 6.5 -29.5t24.5 -11.5q13 0 24.5 5t20.5 23t17 53.5t15 96.5q4 29 5.5 53.5t1.5 46.5q0 61 -14.5 99t-45.5 59.5t-79 29t-114 7.5q-79 0 -134.5 -11.5
t-93 -46t-60.5 -97.5t-36 -166q-9 -65 -9 -115q0 -66 15.5 -108.5t48.5 -67.5t85.5 -35t126.5 -10h53l-12 -100h-41q-107 0 -181.5 18t-121 56.5t-68 99.5t-21.5 147q0 28 1.5 57t6.5 64q16 127 47 210t83 131.5t128.5 67.5t184.5 19q94 0 163 -15.5t114.5 -50.5t67.5 -93.5
t22 -143.5q0 -26 -2 -53.5t-6 -57.5q-10 -84 -28.5 -135.5t-43 -79.5t-55.5 -37.5t-65 -9.5q-54 0 -91 18t-50 61q-18 -46 -48.5 -62.5t-72.5 -16.5q-74 0 -114 36.5t-40 128.5q0 16 1 34.5t4 39.5zM362 284q-3 -23 -5 -41.5t-2 -32.5q0 -44 15 -58t46 -14q20 0 34.5 5.5
t25 21.5t18 44.5t13.5 74.5q2 19 3 34.5t1 28.5q0 43 -14.5 56.5t-46.5 13.5q-20 0 -34.5 -5t-25 -19t-17 -40.5t-11.5 -68.5z" />
    <glyph glyph-name="A" unicode="A" horiz-adv-x="587" 
d="M265 712h169l119 -712h-135l-21 135h-238l-54 -135h-132zM204 249h176l-49 318z" />
    <glyph glyph-name="B" unicode="B" horiz-adv-x="581" 
d="M118 712h250q100 0 148.5 -43t48.5 -123q0 -8 -0.5 -15t-1.5 -15q-8 -70 -33 -103.5t-63 -46.5q43 -20 62.5 -57.5t19.5 -84.5q0 -5 -0.5 -10.5t-1.5 -11.5q-9 -107 -60 -154.5t-156 -47.5h-300zM205 301l-24 -191h134q38 0 61 20.5t30 75.5q1 8 1.5 15.5t0.5 12.5
q0 40 -18 53.5t-52 13.5h-133zM240 588l-21 -173h115q46 0 64.5 19.5t24.5 67.5q1 7 1 13.5v11.5q0 32 -15.5 46.5t-54.5 14.5h-114z" />
    <glyph glyph-name="C" unicode="C" horiz-adv-x="586" 
d="M290 -12q-69 0 -117 12.5t-78 41t-43 74.5t-13 113q0 29 2.5 62t7.5 71q14 109 34 179.5t54 111t86.5 56t131.5 15.5q67 0 112 -12.5t71 -38t37 -65t11 -93.5q0 -32 -3 -71h-133q1 14 1.5 26.5t0.5 23.5q0 31 -4.5 51.5t-16 32.5t-30.5 17t-48 5q-43 0 -70 -8.5
t-43.5 -34t-27 -73t-20.5 -124.5q-7 -51 -10.5 -89t-3.5 -65q0 -35 6.5 -56.5t20 -33t35 -15t51.5 -3.5q34 0 57 7.5t38 26t24.5 49.5t17.5 78h132q-12 -72 -29.5 -123.5t-47.5 -84t-76.5 -48t-116.5 -15.5z" />
    <glyph glyph-name="D" unicode="D" horiz-adv-x="620" 
d="M118 712h234q67 0 114.5 -11.5t78.5 -39t45.5 -73.5t14.5 -115q0 -26 -1.5 -55t-5.5 -62q-12 -101 -30.5 -169t-52 -109.5t-87.5 -59.5t-137 -18h-260zM240 588l-59 -478h111q42 0 68.5 7.5t44 33.5t28.5 75.5t22 133.5q5 38 7.5 67t2.5 52q0 33 -6 54.5t-19.5 33.5
t-35.5 16.5t-53 4.5h-111z" />
    <glyph glyph-name="E" unicode="E" horiz-adv-x="519" 
d="M118 712h422l-15 -124h-285l-22 -173h262l-15 -116h-261l-23 -189h285l-13 -110h-422z" />
    <glyph glyph-name="F" unicode="F" horiz-adv-x="503" 
d="M118 712h415l-15 -124h-278l-22 -173h254l-14 -116h-254l-36 -299h-137z" />
    <glyph glyph-name="G" unicode="G" horiz-adv-x="602" 
d="M328 392h259l-14 -119q-9 -74 -26 -128t-49 -89t-82.5 -51.5t-125.5 -16.5q-68 0 -115.5 12.5t-77.5 40.5t-44 74t-14 112q0 29 2.5 62t7.5 71q14 109 34 179.5t54.5 111.5t87.5 57t132 16q74 0 121.5 -15t74 -44.5t35 -74t5.5 -102.5h-132q2 34 -3.5 55.5t-18.5 34
t-34.5 17.5t-51.5 5q-43 0 -70 -8.5t-43.5 -34t-27 -73t-20.5 -124.5q-7 -51 -10.5 -89t-3.5 -65q0 -35 6.5 -56.5t20 -33t35 -15t51.5 -3.5q37 0 62 6.5t41.5 24t26 49t15.5 81.5l2 17h-125z" />
    <glyph glyph-name="H" unicode="H" horiz-adv-x="631" 
d="M118 712h137l-37 -297h233l37 297h137l-87 -712h-137l36 299h-233l-36 -299h-137z" />
    <glyph glyph-name="I" unicode="I" horiz-adv-x="261" 
d="M118 712h137l-87 -712h-137z" />
    <glyph glyph-name="J" unicode="J" horiz-adv-x="402" 
d="M89 110q51 0 79 21t34 72l62 509h137l-61 -495q-6 -52 -21.5 -92.5t-43.5 -68t-71.5 -42t-106.5 -14.5h-112l13 110h91z" />
    <glyph glyph-name="K" unicode="K" horiz-adv-x="590" 
d="M118 712h137l-40 -326l275 326h156l-264 -305l180 -407h-147l-133 306l-90 -106l-24 -200h-137z" />
    <glyph glyph-name="L" unicode="L" horiz-adv-x="483" 
d="M118 712h137l-74 -602h274l-13 -110h-411z" />
    <glyph glyph-name="M" unicode="M" horiz-adv-x="778" 
d="M16 0l119 712h160l92 -472l202 472h164l-51 -712h-130l35 468l-203 -468h-94l-92 468l-77 -468h-125z" />
    <glyph glyph-name="N" unicode="N" horiz-adv-x="631" 
d="M118 712h141l180 -473l58 473h128l-87 -712h-141l-181 473l-57 -473h-128z" />
    <glyph glyph-name="O" unicode="O" horiz-adv-x="620" 
d="M290 -12q-68 0 -115.5 12.5t-77.5 41t-44 74.5t-14 113q0 29 2.5 62t7.5 71q14 109 34 179.5t54.5 111t87.5 56t132 15.5q66 0 113 -11.5t77.5 -39t45 -74t14.5 -115.5q0 -57 -9 -130q-13 -105 -32 -175.5t-52.5 -113t-87 -60t-136.5 -17.5zM291 98q43 0 70 8t44.5 35
t28.5 79t22 140q5 42 8 74t3 56q0 34 -6 55.5t-19.5 33.5t-35.5 16.5t-53 4.5q-43 0 -70 -8.5t-44.5 -34t-27.5 -73t-20 -124.5q-6 -51 -9.5 -89t-3.5 -65q0 -35 6.5 -56.5t20 -33t35 -15t51.5 -3.5z" />
    <glyph glyph-name="P" unicode="P" horiz-adv-x="560" 
d="M118 712h250q101 0 149.5 -42t48.5 -141v-23.5t-2 -26.5q-7 -69 -23 -113.5t-43.5 -71t-68 -37t-96.5 -10.5h-135l-30 -247h-137zM239 588l-27 -225h105q28 0 46 4t29.5 16.5t18 35t11.5 59.5q3 24 3 41q0 41 -18.5 55t-62.5 14h-105z" />
    <glyph glyph-name="Q" unicode="Q" horiz-adv-x="620" 
d="M290 -12q-68 0 -115.5 12.5t-77.5 41t-44 74.5t-14 113q0 29 2.5 62t7.5 71q14 109 34 179.5t54.5 111t87.5 56t132 15.5q66 0 113 -11.5t77.5 -39t45 -74t14.5 -115.5q0 -57 -9 -130q-11 -84 -26.5 -141t-41.5 -100l89 -113h-137l-28 35q-31 -23 -68 -35t-96 -12z
M332 366l104 -134q5 26 10 57.5t10 70.5q5 42 8 74t3 57q0 34 -6 55t-19.5 33t-35.5 16.5t-53 4.5q-43 0 -70 -8.5t-43.5 -34t-27 -73t-20.5 -124.5q-7 -51 -10.5 -89t-3.5 -65q0 -35 6.5 -56.5t20 -33t35 -15t51.5 -3.5q33 0 56 4t40 18l-74 93z" />
    <glyph glyph-name="R" unicode="R" horiz-adv-x="574" 
d="M118 712h245q50 0 88.5 -9.5t64 -30.5t38.5 -56t13 -86q0 -24 -3 -51q-10 -104 -45 -151.5t-100 -59.5l107 -268h-145l-93 247h-90l-30 -247h-137zM239 588l-27 -225h102q26 0 44.5 3t31 15t20 35t12.5 62q3 24 3 41q0 44 -20.5 56.5t-66.5 12.5h-99z" />
    <glyph glyph-name="S" unicode="S" horiz-adv-x="546" 
d="M159 219q-2 -35 1.5 -58t14.5 -37t31.5 -20t52.5 -6q51 0 81.5 23.5t30.5 82.5q0 35 -21.5 51.5t-69.5 28.5l-54 14q-79 20 -120.5 59t-41.5 119q0 118 60 183t192 65q69 0 114.5 -14t71 -43t33.5 -73.5t3 -105.5h-133q2 35 -2 57t-15 34t-30 16.5t-48 4.5q-52 0 -79 -24
t-27 -79q0 -37 22.5 -52t70.5 -27l54 -14q81 -20 121 -61t40 -116q0 -123 -64.5 -181t-196.5 -58q-66 0 -111.5 12.5t-72.5 40t-37 71.5t-5 107h134z" />
    <glyph glyph-name="T" unicode="T" horiz-adv-x="527" 
d="M70 712h499l-15 -124h-180l-72 -588h-139l72 588h-180z" />
    <glyph glyph-name="U" unicode="U" horiz-adv-x="626" 
d="M114 712h137l-60 -486q-2 -10 -2 -19v-17q0 -52 25.5 -72t79.5 -20q63 0 94.5 27.5t40.5 100.5l60 486h136l-59 -483q-7 -60 -24.5 -105t-49.5 -75t-81.5 -45.5t-119.5 -15.5q-125 0 -182 48t-57 143q0 23 3 50z" />
    <glyph glyph-name="V" unicode="V" horiz-adv-x="589" 
d="M60 712h135l87 -567l227 567h132l-293 -712h-169z" />
    <glyph glyph-name="W" unicode="W" horiz-adv-x="897" 
d="M62 712h136l56 -551l203 551h106l65 -549l190 549h130l-258 -712h-156l-57 447l-169 -447h-162z" />
    <glyph glyph-name="X" unicode="X" horiz-adv-x="547" 
d="M207 362l-147 350h145l96 -241l155 241h144l-234 -353l152 -359h-144l-101 250l-161 -250h-143z" />
    <glyph glyph-name="Y" unicode="Y" horiz-adv-x="559" 
d="M213 272l-152 440h141l100 -298l175 298h134l-262 -445l-31 -267h-137z" />
    <glyph glyph-name="Z" unicode="Z" horiz-adv-x="498" 
d="M77 712h458l-10 -83l-349 -519h279l-13 -110h-445l10 83l340 505h-285z" />
    <glyph glyph-name="bracketleft" unicode="[" horiz-adv-x="319" 
d="M127 772h229l-12 -98h-118l-88 -724h117l-12 -98h-229z" />
    <glyph glyph-name="backslash" unicode="\" horiz-adv-x="488" 
d="M419 0h-101l-221 712h100z" />
    <glyph glyph-name="bracketright" unicode="]" horiz-adv-x="319" 
d="M206 -148h-228l12 98h117l88 724h-118l13 98h229z" />
    <glyph glyph-name="asciicircum" unicode="^" horiz-adv-x="560" 
d="M288 712h98l103 -263h-101l-61 161l-100 -161h-105z" />
    <glyph glyph-name="underscore" unicode="_" horiz-adv-x="622" 
d="M553 -12l-12 -100h-549l12 100h549z" />
    <glyph glyph-name="grave" unicode="`" horiz-adv-x="489" 
d="M155 724h121l53 -156h-81z" />
    <glyph glyph-name="a" unicode="a" horiz-adv-x="465" 
d="M147 -8q-66 0 -102 31.5t-36 92.5q0 48 16.5 78.5t46 49.5t69.5 30t87 20l64 12l3 20q3 18 3 32q0 26 -12.5 36.5t-43.5 10.5q-37 0 -54.5 -12.5t-23.5 -55.5h-117q6 42 19.5 74.5t37.5 55t61 34t90 11.5q52 0 86 -11.5t53.5 -31t27.5 -45.5t8 -55q0 -9 -0.5 -18
t-1.5 -18l-40 -333h-127l6 51q-15 -26 -43.5 -42.5t-76.5 -16.5zM192 87q37 0 57.5 18.5t25.5 63.5l6 48l-41 -6q-18 -3 -35.5 -7t-32 -11.5t-23 -20.5t-8.5 -34q0 -25 12 -38t39 -13z" />
    <glyph glyph-name="b" unicode="b" horiz-adv-x="515" 
d="M107 712h132l-31 -253q21 29 50 41t65 12q41 0 72 -9.5t51.5 -31t31 -57t10.5 -86.5q0 -18 -1.5 -37.5t-3.5 -42.5q-8 -74 -24 -123.5t-41.5 -79t-61 -41.5t-83.5 -12q-42 0 -75.5 16t-45.5 64l-8 -72h-124zM246 93q24 0 40.5 6t28.5 23t19.5 48t13.5 82q6 46 6 73
q0 46 -17 60t-54 14q-24 0 -40.5 -5t-27.5 -21t-18.5 -44.5t-13.5 -76.5q-6 -53 -6 -83q0 -23 4 -38t12 -23.5t21.5 -11.5t31.5 -3z" />
    <glyph glyph-name="c" unicode="c" horiz-adv-x="464" 
d="M219 -8q-103 0 -148.5 42.5t-45.5 140.5q0 18 1.5 38t3.5 41q9 73 25 122.5t43.5 79.5t68 43t99.5 13q99 0 139.5 -42t40.5 -127q0 -10 -0.5 -20.5t-1.5 -21.5h-123v22q0 45 -12.5 60.5t-49.5 15.5q-23 0 -38.5 -5t-26 -21.5t-17.5 -46.5t-13 -79q-3 -28 -5 -48.5
t-2 -36.5q0 -43 15 -56t49 -13q21 0 35.5 5t24.5 17t16.5 32.5t11.5 50.5h122q-9 -54 -24.5 -93t-40.5 -64t-61 -37t-86 -12z" />
    <glyph glyph-name="d" unicode="d" horiz-adv-x="513" 
d="M190 -8q-41 0 -72 9t-51.5 29.5t-31 54.5t-10.5 84q0 37 6 85q9 74 25.5 123.5t42.5 79.5t61.5 42.5t83.5 12.5q36 0 65.5 -12t44.5 -48l32 260h133l-87 -712h-127l7 59q-20 -38 -52 -52.5t-70 -14.5zM228 93q24 0 40.5 6t28.5 23t19.5 48t13.5 82q6 46 6 73q0 46 -17 60
t-54 14q-24 0 -40.5 -5t-27.5 -21t-18.5 -44.5t-13.5 -76.5q-6 -53 -6 -83q0 -23 4 -38t12 -23.5t21.5 -11.5t31.5 -3z" />
    <glyph glyph-name="e" unicode="e" horiz-adv-x="473" 
d="M224 -8q-52 0 -89.5 10t-62 32t-36 57.5t-11.5 85.5q0 17 1.5 35t3.5 38q9 70 25 120t44 81.5t68.5 46t98.5 14.5q100 0 142 -45t42 -137q0 -18 -1 -37.5t-4 -41.5l-4 -26h-282q-3 -35 -3 -58q0 -24 4 -39.5t12.5 -23.5t22 -11t31.5 -3q38 0 57 13.5t28 51.5h118
q-8 -38 -22.5 -68t-39 -51t-59.5 -32.5t-84 -11.5zM263 403q-18 0 -32 -3.5t-25 -13t-19.5 -27.5t-14.5 -48h155q1 6 1 11.5v10.5q0 42 -15 56t-50 14z" />
    <glyph glyph-name="f" unicode="f" horiz-adv-x="337" 
d="M50 504h58l5 43q10 85 57.5 125t132.5 40h83l-14 -113h-63q-28 0 -44 -12.5t-21 -47.5l-5 -35h116l-14 -109h-115l-48 -395h-132l48 395h-58z" />
    <glyph glyph-name="g" unicode="g" horiz-adv-x="515" 
d="M194 1q-83 0 -125 40t-42 139q0 17 1.5 37t3.5 42q9 72 25.5 120.5t42.5 78t61.5 42t83.5 12.5q42 0 73.5 -17t42.5 -65l10 74h124l-64 -521q-6 -53 -22 -90.5t-43 -61.5t-66.5 -35.5t-93.5 -11.5q-59 0 -97 12t-59.5 34.5t-29 55.5t-5.5 75h126q0 -5 -0.5 -9.5
t-0.5 -8.5q0 -32 13 -45t54 -13q43 0 63 18t27 72l10 81q-21 -30 -49.5 -42.5t-63.5 -12.5zM230 102q24 0 40.5 6t28.5 22.5t19.5 47t13.5 79.5q2 21 3.5 38t1.5 31q0 45 -17 59t-54 14q-24 0 -40.5 -5t-27.5 -20t-18 -43t-13 -74q-6 -51 -6 -79q0 -23 4 -38t12 -23.5
t21.5 -11.5t31.5 -3z" />
    <glyph glyph-name="h" unicode="h" horiz-adv-x="502" 
d="M107 712h132l-30 -250q17 24 43.5 37t68.5 13q76 0 111 -35.5t35 -107.5q0 -21 -3 -45l-39 -324h-133l36 298q3 22 3 39q0 35 -13.5 47.5t-45.5 12.5q-21 0 -35 -4.5t-23.5 -16t-15 -30.5t-9.5 -48l-37 -298h-132z" />
    <glyph glyph-name="i" unicode="i" horiz-adv-x="233" 
d="M106 712h132l-14 -120h-133zM81 504h132l-62 -504h-132z" />
    <glyph glyph-name="j" unicode="j" horiz-adv-x="233" 
d="M106 712h132l-14 -120h-133zM81 504h132l-65 -529q-11 -94 -58 -138.5t-141 -44.5h-53l12 101h33q34 0 51 15.5t22 49.5z" />
    <glyph glyph-name="k" unicode="k" horiz-adv-x="484" 
d="M107 712h132l-51 -413l187 205h144l-192 -207l130 -297h-143l-85 199l-61 -68l-16 -131h-132z" />
    <glyph glyph-name="l" unicode="l" horiz-adv-x="233" 
d="M107 712h132l-87 -712h-132z" />
    <glyph glyph-name="m" unicode="m" horiz-adv-x="774" 
d="M81 504h126l-7 -55q15 30 43.5 46.5t76.5 16.5q108 0 137 -78q16 37 49 57.5t87 20.5q76 0 111 -35.5t35 -107.5q0 -21 -3 -45l-39 -324h-133l36 298q3 22 3 38q0 35 -14 48t-46 13q-21 0 -35.5 -4.5t-24 -16t-15 -30.5t-8.5 -48l-36 -298h-133l36 298q3 22 3 39
q0 35 -13.5 47.5t-45.5 12.5q-21 0 -35.5 -4.5t-24.5 -16t-15.5 -30.5t-8.5 -48l-36 -298h-132z" />
    <glyph glyph-name="n" unicode="n" horiz-adv-x="501" 
d="M81 504h126l-7 -55q15 30 43.5 46.5t76.5 16.5q76 0 111 -35.5t35 -107.5q0 -21 -3 -45l-39 -324h-133l36 298q3 22 3 39q0 35 -13.5 47.5t-45.5 12.5q-21 0 -35 -4.5t-23.5 -16t-15 -30.5t-9.5 -48l-37 -298h-132z" />
    <glyph glyph-name="o" unicode="o" horiz-adv-x="497" 
d="M224 -8q-104 0 -151.5 42t-47.5 144q0 17 2 37.5t4 40.5q8 75 24 124t44 78.5t70.5 41.5t103.5 12q103 0 150.5 -42t47.5 -144q0 -17 -2 -37.5t-4 -40.5q-8 -73 -23.5 -122t-43.5 -79t-70.5 -42.5t-103.5 -12.5zM228 93q24 0 41 5.5t28 21.5t18.5 45.5t13.5 77.5
q3 27 5 47.5t2 35.5q0 46 -17 59.5t-54 13.5q-24 0 -41 -5t-28 -21t-18 -44.5t-13 -76.5q-3 -26 -5 -47.5t-2 -37.5q0 -46 16.5 -60t53.5 -14z" />
    <glyph glyph-name="p" unicode="p" horiz-adv-x="514" 
d="M81 504h126l-7 -58q20 38 51 52t71 14q82 0 123.5 -40t41.5 -141q0 -19 -1.5 -39.5t-3.5 -43.5q-8 -74 -24.5 -123t-42.5 -78.5t-62 -42t-84 -12.5q-36 0 -66 11.5t-46 46.5l-32 -258h-131zM245 93q24 0 40.5 6t28.5 23t19.5 48t13.5 82q6 46 6 73q0 46 -17 60t-54 14
q-24 0 -40.5 -5t-27.5 -21t-18.5 -44.5t-13.5 -76.5q-6 -53 -6 -83q0 -23 4 -38t12 -23.5t21.5 -11.5t31.5 -3z" />
    <glyph glyph-name="q" unicode="q" horiz-adv-x="514" 
d="M190 -8q-41 0 -72 9t-51.5 30t-31 55t-10.5 84q0 37 6 84q9 74 25.5 123.5t42.5 79.5t61.5 42.5t83.5 12.5q39 0 70 -14.5t44 -57.5l9 64h127l-88 -712h-133l31 254q-20 -31 -49.5 -42.5t-64.5 -11.5zM228 93q24 0 40.5 6t28.5 23t19.5 48t13.5 82q6 46 6 73q0 46 -17 60
t-54 14q-24 0 -40.5 -5t-27.5 -21t-18.5 -44.5t-13.5 -76.5q-6 -53 -6 -83q0 -23 4 -38t12 -23.5t21.5 -11.5t31.5 -3z" />
    <glyph glyph-name="r" unicode="r" horiz-adv-x="319" 
d="M57 330q6 46 18.5 79t34.5 54t55 31t80 10h92l-14 -109h-66q-32 0 -47.5 -14t-19.5 -46l-41 -335h-132z" />
    <glyph glyph-name="s" unicode="s" horiz-adv-x="440" 
d="M134 153q-3 -40 12 -53.5t53 -13.5q35 0 54.5 11.5t19.5 48.5q0 21 -13 29t-46 15l-59 12q-51 11 -82.5 41.5t-31.5 90.5q0 93 53.5 135.5t148.5 42.5q92 0 134 -31.5t42 -101.5q0 -19 -3 -38h-116q1 5 1 9.5v9.5q0 29 -13.5 38t-46.5 9q-34 0 -53 -10t-19 -47
q0 -20 13.5 -30t48.5 -17l60 -12q111 -24 111 -127q0 -48 -14.5 -81t-41.5 -53t-66 -29t-88 -9q-59 0 -94.5 12.5t-54 34t-24 51t-3.5 63.5h118z" />
    <glyph glyph-name="t" unicode="t" horiz-adv-x="339" 
d="M44 504h61l15 120h128l-15 -120h122l-13 -109h-122l-28 -227q-1 -6 -1.5 -11.5t-0.5 -10.5q0 -28 14 -36.5t46 -8.5h53l-12 -101h-70q-82 0 -122.5 30t-40.5 103q0 19 3 42l27 220h-58z" />
    <glyph glyph-name="u" unicode="u" horiz-adv-x="504" 
d="M211 504l-38 -310q-3 -24 -3 -41q0 -35 13.5 -47.5t45.5 -12.5q20 0 34 4.5t24 15.5t15.5 31t9.5 50l39 310h133l-62 -504h-126l6 57q-16 -31 -46.5 -48t-78.5 -17q-75 0 -108.5 35t-33.5 104q0 22 3 49l41 324h132z" />
    <glyph glyph-name="v" unicode="v" horiz-adv-x="470" 
d="M34 504h132l62 -338l146 338h124l-232 -504h-124z" />
    <glyph glyph-name="w" unicode="w" horiz-adv-x="722" 
d="M35 504h133l42 -328l136 328h102l54 -328l124 328h123l-208 -504h-125l-50 285l-120 -285h-128z" />
    <glyph glyph-name="x" unicode="x" horiz-adv-x="456" 
d="M154 250l-119 254h137l69 -156l108 156h133l-181 -252l119 -252h-137l-70 155l-106 -155h-133z" />
    <glyph glyph-name="y" unicode="y" horiz-adv-x="470" 
d="M40 -107q34 0 55.5 13t38.5 55l12 29l-112 514h133l63 -335l145 335h123l-253 -552q-18 -39 -35.5 -69t-40 -50.5t-52.5 -30.5t-72 -10h-58l12 101h41z" />
    <glyph glyph-name="z" unicode="z" horiz-adv-x="416" 
d="M58 504h365l-10 -72l-241 -331h197l-12 -101h-358l8 72l234 323h-197z" />
    <glyph glyph-name="braceleft" unicode="{" horiz-adv-x="356" 
d="M150 624q10 81 55.5 114.5t114.5 33.5h74l-12 -98h-47q-39 0 -55.5 -15t-21.5 -57l-20 -162q-4 -32 -10 -54t-17 -37t-27 -24t-40 -13q36 -8 51 -26.5t15 -57.5q0 -19 -3 -44l-19 -162q-1 -7 -1.5 -12.5t-0.5 -10.5q0 -28 14 -38.5t47 -10.5h46l-12 -98h-74q-35 0 -62 8
t-44.5 25.5t-25 45.5t-2.5 69l23 189q1 7 1.5 13t0.5 11q0 32 -14.5 42t-37.5 10h-29l11 94h29q27 0 45.5 14t24.5 62z" />
    <glyph glyph-name="bar" unicode="|" horiz-adv-x="336" 
d="M184 784h96l-121 -992h-95z" />
    <glyph glyph-name="braceright" unicode="}" horiz-adv-x="356" 
d="M275 435q-1 -7 -1.5 -13t-0.5 -11q0 -32 14.5 -42t37.5 -10h29l-12 -94h-28q-27 0 -45.5 -14t-24.5 -62l-23 -189q-10 -81 -55.5 -114.5t-114.5 -33.5h-73l12 98h46q39 0 55.5 15t21.5 57l19 162q8 63 30 91t68 37q-36 8 -53 28t-17 62q0 17 3 38l20 162q1 7 1.5 12.5
t0.5 10.5q0 28 -14 38.5t-47 10.5h-47l13 98h74q34 0 61.5 -8t45 -25.5t25 -46t2.5 -68.5z" />
    <glyph glyph-name="asciitilde" unicode="~" horiz-adv-x="560" 
d="M67 340q7 7 18 16.5t26 18.5t34 15t43 6q37 0 63 -12.5t47.5 -27.5t44 -27.5t53.5 -12.5q24 0 44 6t35 15t26 18.5t18 16.5l-12 -100q-8 -7 -18.5 -16.5t-25.5 -18.5t-34 -15t-43 -6q-35 0 -59 12.5t-46 27.5t-45.5 27.5t-57.5 12.5q-24 0 -44 -6t-35 -15t-26 -18.5
t-18 -16.5z" />
    <glyph glyph-name="uni00A0" unicode="&#xa0;" horiz-adv-x="183" 
 />
    <glyph glyph-name="exclamdown" unicode="&#xa1;" horiz-adv-x="238" 
d="M114 712h122l-17 -135h-121zM107 479h80l-32 -479h-134z" />
    <glyph glyph-name="cent" unicode="&#xa2;" horiz-adv-x="560" 
d="M214 101q-71 12 -103 54.5t-32 126.5q0 33 6 74q9 64 23 110.5t36.5 77.5t55 47.5t79.5 21.5l12 99h117l-13 -102q66 -13 94 -54t28 -113q0 -9 -0.5 -18.5t-1.5 -19.5h-125q3 58 -11.5 78t-57.5 20q-25 0 -41.5 -5t-28 -21.5t-19 -46.5t-13.5 -79q-3 -26 -5 -45.5
t-2 -34.5q0 -46 17 -60t55 -14q22 0 37.5 5t26 17t18 32.5t12.5 50.5h122q-15 -96 -54 -144.5t-115 -58.5l-12 -99h-117z" />
    <glyph glyph-name="sterling" unicode="&#xa3;" horiz-adv-x="560" 
d="M39 392h62l14 113q6 51 22 91.5t45 69t72 43.5t103 15q65 0 106.5 -16t65 -46t30.5 -74t3 -100h-133q0 7 0.5 13t0.5 12q0 52 -17.5 69.5t-60.5 17.5q-46 0 -70 -20.5t-30 -74.5l-14 -113h159l-15 -116h-158l-21 -166h312l-13 -110h-449l34 276h-63z" />
    <glyph glyph-name="currency" unicode="&#xa4;" horiz-adv-x="560" 
d="M80 224l58 52q-14 31 -14 67q0 63 37 112l-44 51l57 51l44 -50q20 12 43.5 19t49.5 7q51 0 88 -25l59 53l51 -57l-59 -53q14 -31 14 -64q0 -31 -10 -60t-27 -54l45 -51l-58 -51l-44 50q-41 -26 -93 -26q-51 0 -88 24l-59 -52zM284 277q20 0 37.5 8t30.5 21.5t20.5 31.5
t7.5 38q0 33 -21 53.5t-54 20.5q-42 0 -69.5 -27.5t-27.5 -69.5q0 -33 20.5 -54.5t55.5 -21.5z" />
    <glyph glyph-name="yen" unicode="&#xa5;" horiz-adv-x="560" 
d="M61 354h121l-121 358h141l99 -303l174 303h135l-210 -358h125l-12 -98h-167l-6 -52h167l-13 -98h-166l-12 -106h-137l13 106h-162l13 98h161l6 52h-161z" />
    <glyph glyph-name="brokenbar" unicode="&#xa6;" horiz-adv-x="336" 
d="M184 784h96l-46 -380h-96zM207 187l-48 -395h-95l47 395h96z" />
    <glyph glyph-name="section" unicode="&#xa7;" horiz-adv-x="540" 
d="M199 351q-51 20 -82 56.5t-31 100.5q0 108 62 162t171 54q67 0 110 -15t67.5 -44.5t32 -72.5t3.5 -99h-125q4 64 -17.5 88t-72.5 24q-18 0 -34.5 -4t-29.5 -13t-20.5 -24.5t-7.5 -37.5q0 -18 8 -31t20 -22t26.5 -15t28.5 -11l98 -37q54 -21 83.5 -50t29.5 -80
q0 -37 -14.5 -69.5t-40.5 -60.5l-100 45q8 10 14 23t6 27q0 20 -15 33.5t-45 24.5zM136 6q-1 -7 -1 -13v-12q0 -51 21 -70.5t67 -19.5q19 0 36 4t30 13.5t20.5 24.5t7.5 38q0 19 -8 31.5t-20 20.5t-26.5 14t-28.5 11l-98 38q-54 20 -83.5 50.5t-29.5 79.5q0 37 14.5 69
t40.5 61l100 -46q-8 -10 -13.5 -23t-5.5 -27q0 -20 14.5 -33t44.5 -24l124 -49q51 -20 82.5 -54.5t31.5 -98.5q0 -52 -17 -91t-47.5 -64.5t-74 -38.5t-95.5 -13q-66 0 -108.5 15t-66.5 43.5t-31.5 69.5t-4.5 94h125z" />
    <glyph glyph-name="dieresis" unicode="&#xa8;" horiz-adv-x="489" 
d="M335 701h105l-14 -114h-106zM151 701h105l-14 -114h-106z" />
    <glyph glyph-name="copyright" unicode="&#xa9;" horiz-adv-x="695" 
d="M352 -12q-89 0 -149 20t-96 63.5t-51.5 113.5t-15.5 171q0 100 15.5 170.5t51.5 114t96 63.5t149 20t149 -20t96 -63.5t51.5 -114t15.5 -170.5q0 -101 -15.5 -171t-51.5 -113.5t-96 -63.5t-149 -20zM352 43q74 0 123 16.5t78.5 53.5t41.5 97t12 146t-12 145t-41.5 95.5
t-78.5 52.5t-123 16t-123.5 -16t-79 -52.5t-41.5 -95.5t-12 -145t12 -146t41.5 -97t79 -53.5t123.5 -16.5zM356 152q-52 0 -84 11.5t-50 37t-24.5 66t-6.5 97.5q0 64 8 104.5t26.5 63.5t50.5 31.5t80 8.5q47 0 75 -10.5t43 -31.5t20 -53t7 -75h-92q-1 24 -3 39.5t-8 24.5
t-16 13t-26 4q-21 0 -33.5 -4t-19 -16.5t-8.5 -36t-2 -62.5q0 -45 2 -71.5t8.5 -39.5t19 -16.5t33.5 -3.5q16 0 26 3.5t16 13t8 25.5t3 41h92q-2 -40 -8 -70.5t-22 -51.5t-43.5 -31.5t-71.5 -10.5z" />
    <glyph glyph-name="ordfeminine" unicode="&#xaa;" horiz-adv-x="379" 
d="M54 296h282l-8 -69h-282zM162 348q-45 0 -70.5 22t-25.5 64q0 36 12.5 59t33.5 37t49 21.5t60 13.5l45 9q1 8 1.5 15t0.5 13q0 38 -35 38q-25 0 -37 -10t-16 -39h-88q5 30 14.5 53.5t27 40.5t44 26t64.5 9t62.5 -8.5t39 -23t20 -33.5t5.5 -40q0 -7 -0.5 -13.5t-1.5 -13.5
l-28 -232h-95l5 39q-11 -21 -31.5 -34t-55.5 -13zM231 504q-12 -2 -24 -4.5t-21.5 -8t-15.5 -14.5t-6 -24q0 -34 34 -34q23 0 37 12.5t18 41.5l5 35z" />
    <glyph glyph-name="guillemotleft" unicode="&#xab;" horiz-adv-x="448" 
d="M214 256l120 192h105l-108 -192l60 -192h-105zM25 256l120 192h105l-108 -192l60 -192h-105z" />
    <glyph glyph-name="logicalnot" unicode="&#xac;" horiz-adv-x="560" 
d="M60 340h448l-34 -280h-101l22 180h-347z" />
    <glyph glyph-name="uni00AD" unicode="&#xad;" horiz-adv-x="386" 
d="M58 341h292l-12 -100h-292z" />
    <glyph glyph-name="registered" unicode="&#xae;" horiz-adv-x="425" 
d="M252 364q-53 0 -89 12t-58 38t-31 68.5t-9 102.5t9 102t31 68t58 38t89 12q54 0 90 -12t57.5 -38t31 -68t9.5 -102t-9.5 -102.5t-31 -68.5t-57.5 -38t-90 -12zM252 399q45 0 74.5 9.5t47 31.5t24.5 57.5t7 87.5q0 51 -7 86t-24.5 56.5t-47 31t-74.5 9.5q-44 0 -73 -9.5
t-46.5 -31t-25 -56.5t-7.5 -86q0 -52 7.5 -87.5t25 -57.5t46.5 -31.5t73 -9.5zM162 712h99q39 0 60.5 -19t21.5 -63q0 -58 -38 -73l50 -92h-72l-39 76h-17v-76h-65v247zM227 657v-60h23q16 0 22 7t6 24t-6.5 23t-23.5 6h-21z" />
    <glyph glyph-name="macron" unicode="&#xaf;" horiz-adv-x="489" 
d="M153 687h279l-10 -82h-279z" />
    <glyph glyph-name="degree" unicode="&#xb0;" 
d="M195 476q-52 0 -83 32t-31 80q0 27 10 50.5t27.5 41t42 28t54.5 10.5q51 0 82 -32t31 -80q0 -27 -10 -50.5t-27.5 -41.5t-42 -28t-53.5 -10zM200 544q23 0 39.5 16.5t16.5 41.5q0 20 -13 34t-33 14q-24 0 -40.5 -17t-16.5 -42q0 -20 13 -33.5t34 -13.5z" />
    <glyph glyph-name="plusminus" unicode="&#xb1;" horiz-adv-x="560" 
d="M81 456h174l20 164h100l-20 -164h174l-13 -100h-174l-20 -164h-100l20 164h-174zM37 101h448l-12 -101h-448z" />
    <glyph glyph-name="uni00B2" unicode="&#xb2;" 
d="M65 563q3 26 13 45.5t24.5 34.5t32.5 26.5t38 21.5l38 19q24 12 39 22.5t15 33.5q0 31 -35 31q-24 0 -34.5 -8.5t-18.5 -40.5h-93q6 33 16 57.5t27.5 41t44 25t64.5 8.5q70 0 100 -29t30 -77q0 -49 -25.5 -77t-70.5 -50l-47 -23q-20 -10 -31.5 -17t-18.5 -16h163l-9 -75
h-268z" />
    <glyph glyph-name="uni00B3" unicode="&#xb3;" 
d="M156 637q-2 -34 8 -44t36 -10q23 0 35.5 8.5t12.5 34.5q0 14 -8.5 20.5t-33.5 6.5h-26l9 76h29q21 0 34.5 9t13.5 32q0 27 -40 27q-22 0 -34.5 -9.5t-17.5 -39.5h-94q10 66 44 99t109 33q70 0 100.5 -27.5t30.5 -70.5q0 -29 -12.5 -48t-36.5 -36q34 -19 34 -68
q0 -66 -43 -94t-112 -28q-38 0 -63.5 6.5t-41 21.5t-21.5 39.5t-4 61.5h92z" />
    <glyph glyph-name="acute" unicode="&#xb4;" horiz-adv-x="489" 
d="M313 724h129l-133 -156h-89z" />
    <glyph glyph-name="mu" unicode="&#xb5;" horiz-adv-x="525" 
d="M116 -208h-122l87 712h133l-38 -311q-3 -23 -3 -40q0 -35 13.5 -47.5t45.5 -12.5q20 0 34 4.5t24 15.5t15.5 31t9.5 50l39 310h133l-44 -352q-1 -5 -1 -9.5v-8.5q0 -19 9 -26t32 -7h12l-13 -101h-48q-48 0 -77 13.5t-40 43.5q-19 -31 -50 -48t-71 -17q-36 0 -55 15z" />
    <glyph glyph-name="paragraph" unicode="&#xb6;" horiz-adv-x="604" 
d="M238 228q-101 0 -146 41t-45 138q0 36 6 81q7 63 25.5 106t48 69.5t71 37.5t95.5 11h165l-87 -712h-137l28 228h-24zM526 712h68l-87 -712h-68z" />
    <glyph glyph-name="periodcentered" unicode="&#xb7;" horiz-adv-x="216" 
d="M60 355h121l-16 -134h-121z" />
    <glyph glyph-name="cedilla" unicode="&#xb8;" horiz-adv-x="489" 
d="M188 0h41l-5 -34q54 -2 74 -25.5t20 -53.5q0 -54 -35 -78.5t-92 -24.5h-78l7 57h58q23 0 38.5 8t15.5 34q0 16 -10.5 23t-34.5 7h-36z" />
    <glyph glyph-name="uni00B9" unicode="&#xb9;" 
d="M203 776l-86 -23l10 84l114 35h73l-43 -356h-100z" />
    <glyph glyph-name="ordmasculine" unicode="&#xba;" horiz-adv-x="398" 
d="M59 296h291l-8 -69h-291zM217 348q-76 0 -109 29.5t-33 101.5q0 24 3 56q6 54 17.5 89.5t31 56.5t49.5 30t74 9q76 0 110 -29t34 -102q0 -12 -1 -25.5t-3 -28.5q-7 -53 -18 -88.5t-31 -57.5t-50 -31.5t-74 -9.5zM220 423q17 0 28 4t18.5 16t12.5 34t10 58q2 16 3 28t1 22
q0 32 -11 41t-36 9q-16 0 -26.5 -3.5t-18 -14t-12.5 -30.5t-9 -52q-6 -39 -6 -60q0 -32 11 -42t35 -10z" />
    <glyph glyph-name="guillemotright" unicode="&#xbb;" horiz-adv-x="449" 
d="M307 256l-60 192h105l72 -192l-120 -192h-105zM118 256l-60 192h105l72 -192l-120 -192h-105z" />
    <glyph glyph-name="onequarter" unicode="&#xbc;" horiz-adv-x="716" 
d="M165 616l-86 -23l10 84l114 35h73l-43 -356h-100zM589 712h93l-542 -712h-93zM371 127l153 229h124l-26 -217h40l-9 -76h-40l-8 -63h-96l8 63h-153zM526 139l15 119l-80 -119h65z" />
    <glyph glyph-name="onehalf" unicode="&#xbd;" horiz-adv-x="716" 
d="M166 616l-86 -23l10 84l114 35h73l-43 -356h-100zM566 712h93l-542 -712h-93zM375 47q3 26 13 45.5t24.5 34.5t32.5 26.5t38 21.5l38 19q24 12 39 22.5t15 33.5q0 31 -35 31q-24 0 -34.5 -8.5t-18.5 -40.5h-93q6 33 16 57.5t27.5 41t44 25t64.5 8.5q70 0 100 -29t30 -77
q0 -49 -25.5 -77t-70.5 -50l-47 -23q-20 -10 -31.5 -17t-18.5 -16h163l-9 -75h-268z" />
    <glyph glyph-name="threequarters" unicode="&#xbe;" horiz-adv-x="716" 
d="M139 477q-2 -34 8 -44t36 -10q23 0 35.5 8.5t12.5 34.5q0 14 -8.5 20.5t-33.5 6.5h-26l9 76h29q21 0 34.5 9t13.5 32q0 27 -40 27q-22 0 -34.5 -9.5t-17.5 -39.5h-94q10 66 44 99t109 33q70 0 100.5 -27.5t30.5 -70.5q0 -29 -12.5 -48t-36.5 -36q34 -19 34 -68
q0 -66 -43 -94t-112 -28q-38 0 -63.5 6.5t-41 21.5t-21.5 39.5t-4 61.5h92zM622 712h93l-542 -712h-93zM392 127l153 229h124l-26 -217h40l-9 -76h-40l-8 -63h-96l8 63h-153zM547 139l15 119l-80 -119h65z" />
    <glyph glyph-name="questiondown" unicode="&#xbf;" horiz-adv-x="407" 
d="M233 712h122l-17 -135h-121zM13 162q0 46 13 79t33 57.5t44 43t45 36t37 35.5t20 41l4 25h116l-5 -37q-4 -31 -18.5 -54.5t-33.5 -43.5t-40 -37.5t-39 -35.5t-29.5 -39t-11.5 -48q0 -74 91 -74h128l-13 -110h-124q-57 0 -98 12t-67.5 33.5t-39 51t-12.5 65.5z" />
    <glyph glyph-name="Agrave" unicode="&#xc0;" horiz-adv-x="587" 
d="M265 712h169l119 -712h-135l-21 135h-238l-54 -135h-132zM204 249h176l-49 318zM230 932h121l53 -156h-81z" />
    <glyph glyph-name="Aacute" unicode="&#xc1;" horiz-adv-x="587" 
d="M265 712h169l119 -712h-135l-21 135h-238l-54 -135h-132zM204 249h176l-49 318zM388 932h129l-133 -156h-89z" />
    <glyph glyph-name="Acircumflex" unicode="&#xc2;" horiz-adv-x="587" 
d="M265 712h169l119 -712h-135l-21 135h-238l-54 -135h-132zM204 249h176l-49 318zM325 932h96l92 -156h-91l-52 96l-77 -96h-100z" />
    <glyph glyph-name="Atilde" unicode="&#xc3;" horiz-adv-x="587" 
d="M265 712h169l119 -712h-135l-21 135h-238l-54 -135h-132zM204 249h176l-49 318zM228 848q5 39 26 56.5t52 17.5q19 0 33.5 -8.5t26.5 -19t23 -19t24 -8.5t16 22l4 31h68l-7 -56q-5 -39 -25.5 -56.5t-51.5 -17.5q-20 0 -34.5 8.5t-26.5 19t-23 19t-23 8.5q-13 0 -16 -22
l-4 -31h-69z" />
    <glyph glyph-name="Adieresis" unicode="&#xc4;" horiz-adv-x="587" 
d="M265 712h169l119 -712h-135l-21 135h-238l-54 -135h-132zM204 249h176l-49 318zM410 909h105l-14 -114h-106zM226 909h105l-14 -114h-106z" />
    <glyph glyph-name="Aring" unicode="&#xc5;" horiz-adv-x="587" 
d="M265 712h169l119 -712h-135l-21 135h-238l-54 -135h-132zM204 249h176l-49 318zM359 819q33 0 43.5 18.5t10.5 49.5q0 17 -8.5 26t-33.5 9q-33 0 -43.5 -18.5t-10.5 -49.5q0 -17 8.5 -26t33.5 -9zM356 768q-96 0 -96 85q0 25 6 47t19.5 38t35 25.5t53.5 9.5q96 0 96 -85
q0 -25 -6 -47t-19.5 -38t-35.5 -25.5t-53 -9.5z" />
    <glyph glyph-name="AE" unicode="&#xc6;" horiz-adv-x="841" 
d="M294 712h570l-15 -123h-285l-21 -174h254l-14 -113h-254l-23 -189h285l-14 -113h-421l17 140h-202l-61 -140h-138zM221 254h166l41 335h-59z" />
    <glyph glyph-name="Ccedilla" unicode="&#xc7;" horiz-adv-x="586" 
d="M253 -11q-59 3 -99.5 17.5t-66 43t-37 72.5t-11.5 107q0 29 2.5 62t7.5 71q14 109 34 179.5t54 111t86.5 56t131.5 15.5q67 0 112 -12.5t71 -38t37 -65t11 -93.5q0 -32 -3 -71h-133q1 14 1.5 26.5t0.5 23.5q0 31 -4.5 51.5t-16 32.5t-30.5 17t-48 5q-43 0 -70 -8.5
t-43.5 -34t-27 -73t-20.5 -124.5q-7 -51 -10.5 -89t-3.5 -65q0 -35 6.5 -56.5t20 -33t35 -15t51.5 -3.5q34 0 57 7.5t38 26t24.5 49.5t17.5 78h132q-12 -71 -29 -122t-46.5 -84t-74.5 -48.5t-113 -16.5l-3 -22q54 -2 74 -25.5t20 -53.5q0 -54 -35 -78.5t-92 -24.5h-78l7 57
h58q23 0 38.5 8t15.5 34q0 16 -10.5 23t-34.5 7h-36z" />
    <glyph glyph-name="Egrave" unicode="&#xc8;" horiz-adv-x="519" 
d="M118 712h422l-15 -124h-285l-22 -173h262l-15 -116h-261l-23 -189h285l-13 -110h-422zM213 932h121l53 -156h-81z" />
    <glyph glyph-name="Eacute" unicode="&#xc9;" horiz-adv-x="519" 
d="M118 712h422l-15 -124h-285l-22 -173h262l-15 -116h-261l-23 -189h285l-13 -110h-422zM371 932h129l-133 -156h-89z" />
    <glyph glyph-name="Ecircumflex" unicode="&#xca;" horiz-adv-x="519" 
d="M118 712h422l-15 -124h-285l-22 -173h262l-15 -116h-261l-23 -189h285l-13 -110h-422zM308 932h96l92 -156h-91l-52 96l-77 -96h-100z" />
    <glyph glyph-name="Edieresis" unicode="&#xcb;" horiz-adv-x="519" 
d="M118 712h422l-15 -124h-285l-22 -173h262l-15 -116h-261l-23 -189h285l-13 -110h-422zM393 909h105l-14 -114h-106zM209 909h105l-14 -114h-106z" />
    <glyph glyph-name="Igrave" unicode="&#xcc;" horiz-adv-x="261" 
d="M118 712h137l-87 -712h-137zM69 932h121l53 -156h-81z" />
    <glyph glyph-name="Iacute" unicode="&#xcd;" horiz-adv-x="261" 
d="M118 712h137l-87 -712h-137zM227 932h129l-133 -156h-89z" />
    <glyph glyph-name="Icircumflex" unicode="&#xce;" horiz-adv-x="261" 
d="M118 712h137l-87 -712h-137zM164 932h96l92 -156h-91l-52 96l-77 -96h-100z" />
    <glyph glyph-name="Idieresis" unicode="&#xcf;" horiz-adv-x="261" 
d="M118 712h137l-87 -712h-137zM249 909h105l-14 -114h-106zM65 909h105l-14 -114h-106z" />
    <glyph glyph-name="Eth" unicode="&#xd0;" horiz-adv-x="635" 
d="M42 409h51l37 303h240q66 0 113.5 -11.5t78 -39.5t45 -73.5t14.5 -114.5q0 -26 -2 -56t-6 -63q-12 -101 -31 -169t-53.5 -109t-89 -58.5t-137.5 -17.5h-259l37 305h-50zM252 588l-22 -179h114l-13 -104h-114l-24 -195h115q42 0 69 7.5t44 33.5t28 75.5t22 133.5
q5 38 7.5 67t2.5 52q0 33 -6 54.5t-19.5 33.5t-35.5 16.5t-53 4.5h-115z" />
    <glyph glyph-name="Ntilde" unicode="&#xd1;" horiz-adv-x="631" 
d="M118 712h141l180 -473l58 473h128l-87 -712h-141l-181 473l-57 -473h-128zM257 848q5 39 26 56.5t52 17.5q19 0 33.5 -8.5t26.5 -19t23 -19t24 -8.5t16 22l4 31h68l-7 -56q-5 -39 -25.5 -56.5t-51.5 -17.5q-20 0 -34.5 8.5t-26.5 19t-23 19t-23 8.5q-13 0 -16 -22l-4 -31
h-69z" />
    <glyph glyph-name="Ograve" unicode="&#xd2;" horiz-adv-x="620" 
d="M290 -12q-68 0 -115.5 12.5t-77.5 41t-44 74.5t-14 113q0 29 2.5 62t7.5 71q14 109 34 179.5t54.5 111t87.5 56t132 15.5q66 0 113 -11.5t77.5 -39t45 -74t14.5 -115.5q0 -57 -9 -130q-13 -105 -32 -175.5t-52.5 -113t-87 -60t-136.5 -17.5zM291 98q43 0 70 8t44.5 35
t28.5 79t22 140q5 42 8 74t3 56q0 34 -6 55.5t-19.5 33.5t-35.5 16.5t-53 4.5q-43 0 -70 -8.5t-44.5 -34t-27.5 -73t-20 -124.5q-6 -51 -9.5 -89t-3.5 -65q0 -35 6.5 -56.5t20 -33t35 -15t51.5 -3.5zM246 932h121l53 -156h-81z" />
    <glyph glyph-name="Oacute" unicode="&#xd3;" horiz-adv-x="620" 
d="M290 -12q-68 0 -115.5 12.5t-77.5 41t-44 74.5t-14 113q0 29 2.5 62t7.5 71q14 109 34 179.5t54.5 111t87.5 56t132 15.5q66 0 113 -11.5t77.5 -39t45 -74t14.5 -115.5q0 -57 -9 -130q-13 -105 -32 -175.5t-52.5 -113t-87 -60t-136.5 -17.5zM291 98q43 0 70 8t44.5 35
t28.5 79t22 140q5 42 8 74t3 56q0 34 -6 55.5t-19.5 33.5t-35.5 16.5t-53 4.5q-43 0 -70 -8.5t-44.5 -34t-27.5 -73t-20 -124.5q-6 -51 -9.5 -89t-3.5 -65q0 -35 6.5 -56.5t20 -33t35 -15t51.5 -3.5zM404 932h129l-133 -156h-89z" />
    <glyph glyph-name="Ocircumflex" unicode="&#xd4;" horiz-adv-x="620" 
d="M290 -12q-68 0 -115.5 12.5t-77.5 41t-44 74.5t-14 113q0 29 2.5 62t7.5 71q14 109 34 179.5t54.5 111t87.5 56t132 15.5q66 0 113 -11.5t77.5 -39t45 -74t14.5 -115.5q0 -57 -9 -130q-13 -105 -32 -175.5t-52.5 -113t-87 -60t-136.5 -17.5zM291 98q43 0 70 8t44.5 35
t28.5 79t22 140q5 42 8 74t3 56q0 34 -6 55.5t-19.5 33.5t-35.5 16.5t-53 4.5q-43 0 -70 -8.5t-44.5 -34t-27.5 -73t-20 -124.5q-6 -51 -9.5 -89t-3.5 -65q0 -35 6.5 -56.5t20 -33t35 -15t51.5 -3.5zM341 932h96l92 -156h-91l-52 96l-77 -96h-100z" />
    <glyph glyph-name="Otilde" unicode="&#xd5;" horiz-adv-x="620" 
d="M290 -12q-68 0 -115.5 12.5t-77.5 41t-44 74.5t-14 113q0 29 2.5 62t7.5 71q14 109 34 179.5t54.5 111t87.5 56t132 15.5q66 0 113 -11.5t77.5 -39t45 -74t14.5 -115.5q0 -57 -9 -130q-13 -105 -32 -175.5t-52.5 -113t-87 -60t-136.5 -17.5zM291 98q43 0 70 8t44.5 35
t28.5 79t22 140q5 42 8 74t3 56q0 34 -6 55.5t-19.5 33.5t-35.5 16.5t-53 4.5q-43 0 -70 -8.5t-44.5 -34t-27.5 -73t-20 -124.5q-6 -51 -9.5 -89t-3.5 -65q0 -35 6.5 -56.5t20 -33t35 -15t51.5 -3.5zM244 848q5 39 26 56.5t52 17.5q19 0 33.5 -8.5t26.5 -19t23 -19t24 -8.5
t16 22l4 31h68l-7 -56q-5 -39 -25.5 -56.5t-51.5 -17.5q-20 0 -34.5 8.5t-26.5 19t-23 19t-23 8.5q-13 0 -16 -22l-4 -31h-69z" />
    <glyph glyph-name="Odieresis" unicode="&#xd6;" horiz-adv-x="620" 
d="M290 -12q-68 0 -115.5 12.5t-77.5 41t-44 74.5t-14 113q0 29 2.5 62t7.5 71q14 109 34 179.5t54.5 111t87.5 56t132 15.5q66 0 113 -11.5t77.5 -39t45 -74t14.5 -115.5q0 -57 -9 -130q-13 -105 -32 -175.5t-52.5 -113t-87 -60t-136.5 -17.5zM291 98q43 0 70 8t44.5 35
t28.5 79t22 140q5 42 8 74t3 56q0 34 -6 55.5t-19.5 33.5t-35.5 16.5t-53 4.5q-43 0 -70 -8.5t-44.5 -34t-27.5 -73t-20 -124.5q-6 -51 -9.5 -89t-3.5 -65q0 -35 6.5 -56.5t20 -33t35 -15t51.5 -3.5zM426 909h105l-14 -114h-106zM242 909h105l-14 -114h-106z" />
    <glyph glyph-name="multiply" unicode="&#xd7;" horiz-adv-x="560" 
d="M71 168l143 127l-107 123l77 68l107 -123l140 125l65 -75l-140 -124l110 -125l-79 -68l-108 124l-142 -126z" />
    <glyph glyph-name="Oslash" unicode="&#xd8;" horiz-adv-x="622" 
d="M11 109l36 34q-4 17 -5.5 38.5t-1.5 47.5q0 58 9 133q13 109 33.5 179.5t55.5 111t88 56t132 15.5q82 0 135 -18.5t82 -64.5l75 71l-13 -109l-36 -34q3 -19 5 -40t2 -45q0 -29 -2.5 -61t-6.5 -69q-12 -105 -30.5 -175.5t-52.5 -113t-88 -60t-137 -17.5q-85 0 -137 19
t-80 64l-75 -71zM292 98q43 0 70.5 7.5t45.5 34.5t29 79t20 141l8 80l-285 -268q3 -24 11 -38.5t21.5 -22.5t33.5 -10.5t46 -2.5zM182 271l281 264q-8 39 -33 52t-76 13q-43 0 -70.5 -8.5t-44.5 -34t-27.5 -73t-19.5 -124.5z" />
    <glyph glyph-name="Ugrave" unicode="&#xd9;" horiz-adv-x="626" 
d="M114 712h137l-60 -486q-2 -10 -2 -19v-17q0 -52 25.5 -72t79.5 -20q63 0 94.5 27.5t40.5 100.5l60 486h136l-59 -483q-7 -60 -24.5 -105t-49.5 -75t-81.5 -45.5t-119.5 -15.5q-125 0 -182 48t-57 143q0 23 3 50zM254 932h121l53 -156h-81z" />
    <glyph glyph-name="Uacute" unicode="&#xda;" horiz-adv-x="626" 
d="M114 712h137l-60 -486q-2 -10 -2 -19v-17q0 -52 25.5 -72t79.5 -20q63 0 94.5 27.5t40.5 100.5l60 486h136l-59 -483q-7 -60 -24.5 -105t-49.5 -75t-81.5 -45.5t-119.5 -15.5q-125 0 -182 48t-57 143q0 23 3 50zM412 932h129l-133 -156h-89z" />
    <glyph glyph-name="Ucircumflex" unicode="&#xdb;" horiz-adv-x="626" 
d="M114 712h137l-60 -486q-2 -10 -2 -19v-17q0 -52 25.5 -72t79.5 -20q63 0 94.5 27.5t40.5 100.5l60 486h136l-59 -483q-7 -60 -24.5 -105t-49.5 -75t-81.5 -45.5t-119.5 -15.5q-125 0 -182 48t-57 143q0 23 3 50zM349 932h96l92 -156h-91l-52 96l-77 -96h-100z" />
    <glyph glyph-name="Udieresis" unicode="&#xdc;" horiz-adv-x="626" 
d="M114 712h137l-60 -486q-2 -10 -2 -19v-17q0 -52 25.5 -72t79.5 -20q63 0 94.5 27.5t40.5 100.5l60 486h136l-59 -483q-7 -60 -24.5 -105t-49.5 -75t-81.5 -45.5t-119.5 -15.5q-125 0 -182 48t-57 143q0 23 3 50zM434 909h105l-14 -114h-106zM250 909h105l-14 -114h-106z
" />
    <glyph glyph-name="Yacute" unicode="&#xdd;" horiz-adv-x="559" 
d="M213 272l-152 440h141l100 -298l175 298h134l-262 -445l-31 -267h-137zM384 932h129l-133 -156h-89z" />
    <glyph glyph-name="Thorn" unicode="&#xde;" horiz-adv-x="559" 
d="M118 712h137l-15 -122h117q97 0 146.5 -41t49.5 -138q0 -11 -1 -23.5t-3 -26.5q-8 -67 -24.5 -110.5t-43.5 -69.5t-66 -36.5t-93 -10.5h-138l-16 -134h-137zM225 466l-27 -216h109q25 0 42.5 4t29 16t18 33.5t10.5 57.5q3 21 3 38q0 41 -18 54t-59 13h-108z" />
    <glyph glyph-name="germandbls" unicode="&#xdf;" horiz-adv-x="557" 
d="M254 101h33q48 0 71.5 22.5t30.5 85.5q3 19 3 36q0 42 -18.5 56.5t-60.5 14.5h-33l14 109h21q46 0 64.5 20t24.5 74q2 13 2 19.5v13.5q0 34 -16.5 46.5t-55.5 12.5q-24 0 -40.5 -4t-27 -13t-15.5 -24t-8 -37l-65 -533h-132l47 395h-57l14 109h57l3 26q6 48 18.5 84.5
t38 60.5t66.5 36.5t105 12.5q109 0 155.5 -38t46.5 -117q0 -21 -3 -45q-7 -54 -26 -90t-65 -55q78 -32 78 -137q0 -9 -0.5 -18.5t-1.5 -20.5q-5 -53 -19.5 -91.5t-42 -63.5t-69 -36.5t-99.5 -11.5h-50z" />
    <glyph glyph-name="agrave" unicode="&#xe0;" horiz-adv-x="465" 
d="M147 -8q-66 0 -102 31.5t-36 92.5q0 48 16.5 78.5t46 49.5t69.5 30t87 20l64 12l3 20q3 18 3 32q0 26 -12.5 36.5t-43.5 10.5q-37 0 -54.5 -12.5t-23.5 -55.5h-117q6 42 19.5 74.5t37.5 55t61 34t90 11.5q52 0 86 -11.5t53.5 -31t27.5 -45.5t8 -55q0 -9 -0.5 -18
t-1.5 -18l-40 -333h-127l6 51q-15 -26 -43.5 -42.5t-76.5 -16.5zM192 87q37 0 57.5 18.5t25.5 63.5l6 48l-41 -6q-18 -3 -35.5 -7t-32 -11.5t-23 -20.5t-8.5 -34q0 -25 12 -38t39 -13zM145 724h121l53 -156h-81z" />
    <glyph glyph-name="aacute" unicode="&#xe1;" horiz-adv-x="465" 
d="M147 -8q-66 0 -102 31.5t-36 92.5q0 48 16.5 78.5t46 49.5t69.5 30t87 20l64 12l3 20q3 18 3 32q0 26 -12.5 36.5t-43.5 10.5q-37 0 -54.5 -12.5t-23.5 -55.5h-117q6 42 19.5 74.5t37.5 55t61 34t90 11.5q52 0 86 -11.5t53.5 -31t27.5 -45.5t8 -55q0 -9 -0.5 -18
t-1.5 -18l-40 -333h-127l6 51q-15 -26 -43.5 -42.5t-76.5 -16.5zM192 87q37 0 57.5 18.5t25.5 63.5l6 48l-41 -6q-18 -3 -35.5 -7t-32 -11.5t-23 -20.5t-8.5 -34q0 -25 12 -38t39 -13zM303 724h129l-133 -156h-89z" />
    <glyph glyph-name="acircumflex" unicode="&#xe2;" horiz-adv-x="465" 
d="M147 -8q-66 0 -102 31.5t-36 92.5q0 48 16.5 78.5t46 49.5t69.5 30t87 20l64 12l3 20q3 18 3 32q0 26 -12.5 36.5t-43.5 10.5q-37 0 -54.5 -12.5t-23.5 -55.5h-117q6 42 19.5 74.5t37.5 55t61 34t90 11.5q52 0 86 -11.5t53.5 -31t27.5 -45.5t8 -55q0 -9 -0.5 -18
t-1.5 -18l-40 -333h-127l6 51q-15 -26 -43.5 -42.5t-76.5 -16.5zM192 87q37 0 57.5 18.5t25.5 63.5l6 48l-41 -6q-18 -3 -35.5 -7t-32 -11.5t-23 -20.5t-8.5 -34q0 -25 12 -38t39 -13zM240 724h96l92 -156h-91l-52 96l-77 -96h-100z" />
    <glyph glyph-name="atilde" unicode="&#xe3;" horiz-adv-x="465" 
d="M147 -8q-66 0 -102 31.5t-36 92.5q0 48 16.5 78.5t46 49.5t69.5 30t87 20l64 12l3 20q3 18 3 32q0 26 -12.5 36.5t-43.5 10.5q-37 0 -54.5 -12.5t-23.5 -55.5h-117q6 42 19.5 74.5t37.5 55t61 34t90 11.5q52 0 86 -11.5t53.5 -31t27.5 -45.5t8 -55q0 -9 -0.5 -18
t-1.5 -18l-40 -333h-127l6 51q-15 -26 -43.5 -42.5t-76.5 -16.5zM192 87q37 0 57.5 18.5t25.5 63.5l6 48l-41 -6q-18 -3 -35.5 -7t-32 -11.5t-23 -20.5t-8.5 -34q0 -25 12 -38t39 -13zM143 640q5 39 26 56.5t52 17.5q19 0 33.5 -8.5t26.5 -19t23 -19t24 -8.5t16 22l4 31h68
l-7 -56q-5 -39 -25.5 -56.5t-51.5 -17.5q-20 0 -34.5 8.5t-26.5 19t-23 19t-23 8.5q-13 0 -16 -22l-4 -31h-69z" />
    <glyph glyph-name="adieresis" unicode="&#xe4;" horiz-adv-x="465" 
d="M147 -8q-66 0 -102 31.5t-36 92.5q0 48 16.5 78.5t46 49.5t69.5 30t87 20l64 12l3 20q3 18 3 32q0 26 -12.5 36.5t-43.5 10.5q-37 0 -54.5 -12.5t-23.5 -55.5h-117q6 42 19.5 74.5t37.5 55t61 34t90 11.5q52 0 86 -11.5t53.5 -31t27.5 -45.5t8 -55q0 -9 -0.5 -18
t-1.5 -18l-40 -333h-127l6 51q-15 -26 -43.5 -42.5t-76.5 -16.5zM192 87q37 0 57.5 18.5t25.5 63.5l6 48l-41 -6q-18 -3 -35.5 -7t-32 -11.5t-23 -20.5t-8.5 -34q0 -25 12 -38t39 -13zM325 701h105l-14 -114h-106zM141 701h105l-14 -114h-106z" />
    <glyph glyph-name="aring" unicode="&#xe5;" horiz-adv-x="465" 
d="M147 -8q-66 0 -102 31.5t-36 92.5q0 48 16.5 78.5t46 49.5t69.5 30t87 20l64 12l3 20q3 18 3 32q0 26 -12.5 36.5t-43.5 10.5q-37 0 -54.5 -12.5t-23.5 -55.5h-117q6 42 19.5 74.5t37.5 55t61 34t90 11.5q52 0 86 -11.5t53.5 -31t27.5 -45.5t8 -55q0 -9 -0.5 -18
t-1.5 -18l-40 -333h-127l6 51q-15 -26 -43.5 -42.5t-76.5 -16.5zM192 87q37 0 57.5 18.5t25.5 63.5l6 48l-41 -6q-18 -3 -35.5 -7t-32 -11.5t-23 -20.5t-8.5 -34q0 -25 12 -38t39 -13zM274 611q33 0 43.5 18.5t10.5 49.5q0 17 -8.5 26t-33.5 9q-33 0 -43.5 -18.5
t-10.5 -49.5q0 -17 8.5 -26t33.5 -9zM271 560q-96 0 -96 85q0 25 6 47t19.5 38t35 25.5t53.5 9.5q96 0 96 -85q0 -25 -6 -47t-19.5 -38t-35.5 -25.5t-53 -9.5z" />
    <glyph glyph-name="ae" unicode="&#xe6;" horiz-adv-x="728" 
d="M150 -8q-66 0 -104 33t-38 94q0 46 17.5 76.5t47.5 49.5t69.5 30t84.5 19l63 12l3 20q3 18 3 31q0 26 -12 37t-43 11q-37 0 -54.5 -12.5t-23.5 -55.5h-117q6 42 19.5 74.5t37.5 55t61 34t90 11.5q47 0 77.5 -11.5t48.5 -31.5q50 43 141 43q100 0 141.5 -44.5t41.5 -137.5
q0 -18 -1 -37.5t-4 -41.5l-3 -26h-283q-3 -35 -3 -58q0 -24 4 -39.5t13 -23.5t22.5 -11t31.5 -3q38 0 56.5 13.5t27.5 51.5h118q-8 -38 -22.5 -68t-39 -51t-59.5 -32.5t-84 -11.5q-69 0 -112.5 17.5t-65.5 58.5q-37 -76 -150 -76zM280 217l-41 -6q-17 -3 -34.5 -6.5t-32 -11
t-23.5 -21t-9 -34.5q0 -23 12 -37t39 -14q37 0 57.5 19t25.5 63zM517 403q-18 0 -32 -3.5t-25 -13t-19.5 -27.5t-14.5 -48h156q1 6 1 11v10q0 43 -15.5 57t-50.5 14z" />
    <glyph glyph-name="ccedilla" unicode="&#xe7;" horiz-adv-x="464" 
d="M188 -7q-87 5 -125 48t-38 134q0 18 1.5 38t3.5 41q9 73 25 122.5t43.5 79.5t68 43t99.5 13q99 0 139.5 -42t40.5 -127q0 -10 -0.5 -20.5t-1.5 -21.5h-123v22q0 45 -12.5 60.5t-49.5 15.5q-23 0 -38.5 -5t-26 -21.5t-17.5 -46.5t-13 -79q-3 -28 -5 -48.5t-2 -36.5
q0 -43 15 -56t49 -13q21 0 35.5 5t24.5 17t16.5 32.5t11.5 50.5h122q-9 -53 -23.5 -91t-38.5 -63t-58 -38t-80 -14l-4 -26q54 -2 74 -25.5t20 -53.5q0 -54 -35 -78.5t-92 -24.5h-78l7 57h58q23 0 38.5 8t15.5 34q0 16 -10.5 23t-34.5 7h-36z" />
    <glyph glyph-name="egrave" unicode="&#xe8;" horiz-adv-x="473" 
d="M224 -8q-52 0 -89.5 10t-62 32t-36 57.5t-11.5 85.5q0 17 1.5 35t3.5 38q9 70 25 120t44 81.5t68.5 46t98.5 14.5q100 0 142 -45t42 -137q0 -18 -1 -37.5t-4 -41.5l-4 -26h-282q-3 -35 -3 -58q0 -24 4 -39.5t12.5 -23.5t22 -11t31.5 -3q38 0 57 13.5t28 51.5h118
q-8 -38 -22.5 -68t-39 -51t-59.5 -32.5t-84 -11.5zM263 403q-18 0 -32 -3.5t-25 -13t-19.5 -27.5t-14.5 -48h155q1 6 1 11.5v10.5q0 42 -15 56t-50 14zM153 724h121l53 -156h-81z" />
    <glyph glyph-name="eacute" unicode="&#xe9;" horiz-adv-x="473" 
d="M224 -8q-52 0 -89.5 10t-62 32t-36 57.5t-11.5 85.5q0 17 1.5 35t3.5 38q9 70 25 120t44 81.5t68.5 46t98.5 14.5q100 0 142 -45t42 -137q0 -18 -1 -37.5t-4 -41.5l-4 -26h-282q-3 -35 -3 -58q0 -24 4 -39.5t12.5 -23.5t22 -11t31.5 -3q38 0 57 13.5t28 51.5h118
q-8 -38 -22.5 -68t-39 -51t-59.5 -32.5t-84 -11.5zM263 403q-18 0 -32 -3.5t-25 -13t-19.5 -27.5t-14.5 -48h155q1 6 1 11.5v10.5q0 42 -15 56t-50 14zM311 724h129l-133 -156h-89z" />
    <glyph glyph-name="ecircumflex" unicode="&#xea;" horiz-adv-x="473" 
d="M224 -8q-52 0 -89.5 10t-62 32t-36 57.5t-11.5 85.5q0 17 1.5 35t3.5 38q9 70 25 120t44 81.5t68.5 46t98.5 14.5q100 0 142 -45t42 -137q0 -18 -1 -37.5t-4 -41.5l-4 -26h-282q-3 -35 -3 -58q0 -24 4 -39.5t12.5 -23.5t22 -11t31.5 -3q38 0 57 13.5t28 51.5h118
q-8 -38 -22.5 -68t-39 -51t-59.5 -32.5t-84 -11.5zM263 403q-18 0 -32 -3.5t-25 -13t-19.5 -27.5t-14.5 -48h155q1 6 1 11.5v10.5q0 42 -15 56t-50 14zM248 724h96l92 -156h-91l-52 96l-77 -96h-100z" />
    <glyph glyph-name="edieresis" unicode="&#xeb;" horiz-adv-x="473" 
d="M224 -8q-52 0 -89.5 10t-62 32t-36 57.5t-11.5 85.5q0 17 1.5 35t3.5 38q9 70 25 120t44 81.5t68.5 46t98.5 14.5q100 0 142 -45t42 -137q0 -18 -1 -37.5t-4 -41.5l-4 -26h-282q-3 -35 -3 -58q0 -24 4 -39.5t12.5 -23.5t22 -11t31.5 -3q38 0 57 13.5t28 51.5h118
q-8 -38 -22.5 -68t-39 -51t-59.5 -32.5t-84 -11.5zM263 403q-18 0 -32 -3.5t-25 -13t-19.5 -27.5t-14.5 -48h155q1 6 1 11.5v10.5q0 42 -15 56t-50 14zM333 701h105l-14 -114h-106zM149 701h105l-14 -114h-106z" />
    <glyph glyph-name="igrave" unicode="&#xec;" horiz-adv-x="233" 
d="M81 504h132l-62 -504h-132zM34 724h121l53 -156h-81z" />
    <glyph glyph-name="iacute" unicode="&#xed;" horiz-adv-x="233" 
d="M81 504h132l-62 -504h-132zM192 724h129l-133 -156h-89z" />
    <glyph glyph-name="icircumflex" unicode="&#xee;" horiz-adv-x="233" 
d="M81 504h132l-62 -504h-132zM129 724h96l92 -156h-91l-52 96l-77 -96h-100z" />
    <glyph glyph-name="idieresis" unicode="&#xef;" horiz-adv-x="233" 
d="M81 504h132l-62 -504h-132zM214 701h105l-14 -114h-106zM30 701h105l-14 -114h-106z" />
    <glyph glyph-name="eth" unicode="&#xf0;" horiz-adv-x="502" 
d="M132 574l127 45l-48 93h139l27 -51l142 51l-9 -74l-101 -36q65 -135 65 -281q0 -41 -6 -83q-9 -67 -26.5 -114t-46.5 -77t-70.5 -43.5t-98.5 -13.5q-48 0 -86 9.5t-64 31.5t-39.5 57.5t-13.5 88.5q0 14 1 29t3 31q8 69 26 116t46 75.5t66.5 41t87.5 12.5q21 0 40 -4
t36 -15q-8 22 -17.5 46t-22.5 50l-166 -59zM161 229q-2 -18 -3.5 -33.5t-1.5 -27.5q0 -45 17 -60t55 -15q26 0 43.5 5.5t29.5 20.5t19 41.5t12 68.5q2 19 3.5 33.5t1.5 27.5q0 47 -17.5 63t-57.5 16q-25 0 -42 -5.5t-28.5 -21t-18.5 -43t-12 -70.5z" />
    <glyph glyph-name="ntilde" unicode="&#xf1;" horiz-adv-x="501" 
d="M81 504h126l-7 -55q15 30 43.5 46.5t76.5 16.5q76 0 111 -35.5t35 -107.5q0 -21 -3 -45l-39 -324h-133l36 298q3 22 3 39q0 35 -13.5 47.5t-45.5 12.5q-21 0 -35 -4.5t-23.5 -16t-15 -30.5t-9.5 -48l-37 -298h-132zM162 640q5 39 26 56.5t52 17.5q19 0 33.5 -8.5
t26.5 -19t23 -19t24 -8.5t16 22l4 31h68l-7 -56q-5 -39 -25.5 -56.5t-51.5 -17.5q-20 0 -34.5 8.5t-26.5 19t-23 19t-23 8.5q-13 0 -16 -22l-4 -31h-69z" />
    <glyph glyph-name="ograve" unicode="&#xf2;" horiz-adv-x="497" 
d="M224 -8q-104 0 -151.5 42t-47.5 144q0 17 2 37.5t4 40.5q8 75 24 124t44 78.5t70.5 41.5t103.5 12q103 0 150.5 -42t47.5 -144q0 -17 -2 -37.5t-4 -40.5q-8 -73 -23.5 -122t-43.5 -79t-70.5 -42.5t-103.5 -12.5zM228 93q24 0 41 5.5t28 21.5t18.5 45.5t13.5 77.5
q3 27 5 47.5t2 35.5q0 46 -17 59.5t-54 13.5q-24 0 -41 -5t-28 -21t-18 -44.5t-13 -76.5q-3 -26 -5 -47.5t-2 -37.5q0 -46 16.5 -60t53.5 -14zM160 724h121l53 -156h-81z" />
    <glyph glyph-name="oacute" unicode="&#xf3;" horiz-adv-x="497" 
d="M224 -8q-104 0 -151.5 42t-47.5 144q0 17 2 37.5t4 40.5q8 75 24 124t44 78.5t70.5 41.5t103.5 12q103 0 150.5 -42t47.5 -144q0 -17 -2 -37.5t-4 -40.5q-8 -73 -23.5 -122t-43.5 -79t-70.5 -42.5t-103.5 -12.5zM228 93q24 0 41 5.5t28 21.5t18.5 45.5t13.5 77.5
q3 27 5 47.5t2 35.5q0 46 -17 59.5t-54 13.5q-24 0 -41 -5t-28 -21t-18 -44.5t-13 -76.5q-3 -26 -5 -47.5t-2 -37.5q0 -46 16.5 -60t53.5 -14zM318 724h129l-133 -156h-89z" />
    <glyph glyph-name="ocircumflex" unicode="&#xf4;" horiz-adv-x="497" 
d="M224 -8q-104 0 -151.5 42t-47.5 144q0 17 2 37.5t4 40.5q8 75 24 124t44 78.5t70.5 41.5t103.5 12q103 0 150.5 -42t47.5 -144q0 -17 -2 -37.5t-4 -40.5q-8 -73 -23.5 -122t-43.5 -79t-70.5 -42.5t-103.5 -12.5zM228 93q24 0 41 5.5t28 21.5t18.5 45.5t13.5 77.5
q3 27 5 47.5t2 35.5q0 46 -17 59.5t-54 13.5q-24 0 -41 -5t-28 -21t-18 -44.5t-13 -76.5q-3 -26 -5 -47.5t-2 -37.5q0 -46 16.5 -60t53.5 -14zM255 724h96l92 -156h-91l-52 96l-77 -96h-100z" />
    <glyph glyph-name="otilde" unicode="&#xf5;" horiz-adv-x="497" 
d="M224 -8q-104 0 -151.5 42t-47.5 144q0 17 2 37.5t4 40.5q8 75 24 124t44 78.5t70.5 41.5t103.5 12q103 0 150.5 -42t47.5 -144q0 -17 -2 -37.5t-4 -40.5q-8 -73 -23.5 -122t-43.5 -79t-70.5 -42.5t-103.5 -12.5zM228 93q24 0 41 5.5t28 21.5t18.5 45.5t13.5 77.5
q3 27 5 47.5t2 35.5q0 46 -17 59.5t-54 13.5q-24 0 -41 -5t-28 -21t-18 -44.5t-13 -76.5q-3 -26 -5 -47.5t-2 -37.5q0 -46 16.5 -60t53.5 -14zM158 640q5 39 26 56.5t52 17.5q19 0 33.5 -8.5t26.5 -19t23 -19t24 -8.5t16 22l4 31h68l-7 -56q-5 -39 -25.5 -56.5t-51.5 -17.5
q-20 0 -34.5 8.5t-26.5 19t-23 19t-23 8.5q-13 0 -16 -22l-4 -31h-69z" />
    <glyph glyph-name="odieresis" unicode="&#xf6;" horiz-adv-x="497" 
d="M224 -8q-104 0 -151.5 42t-47.5 144q0 17 2 37.5t4 40.5q8 75 24 124t44 78.5t70.5 41.5t103.5 12q103 0 150.5 -42t47.5 -144q0 -17 -2 -37.5t-4 -40.5q-8 -73 -23.5 -122t-43.5 -79t-70.5 -42.5t-103.5 -12.5zM228 93q24 0 41 5.5t28 21.5t18.5 45.5t13.5 77.5
q3 27 5 47.5t2 35.5q0 46 -17 59.5t-54 13.5q-24 0 -41 -5t-28 -21t-18 -44.5t-13 -76.5q-3 -26 -5 -47.5t-2 -37.5q0 -46 16.5 -60t53.5 -14zM340 701h105l-14 -114h-106zM156 701h105l-14 -114h-106z" />
    <glyph glyph-name="divide" unicode="&#xf7;" horiz-adv-x="560" 
d="M271 580h100l-15 -130h-101zM67 340h448l-12 -100h-448zM215 130h101l-16 -130h-100z" />
    <glyph glyph-name="oslash" unicode="&#xf8;" horiz-adv-x="501" 
d="M7 87l29 24q-6 28 -6 65q0 18 1.5 38t3.5 42q9 75 25.5 124t44.5 78.5t70 41.5t102 12q63 0 103.5 -14.5t63.5 -46.5l64 53l-11 -87l-29 -24q7 -27 7 -67q0 -36 -6 -78q-9 -73 -25 -122t-44 -79t-70 -42.5t-103 -12.5q-63 0 -103.5 14t-63.5 46l-63 -52zM232 93
q24 0 41.5 5.5t29.5 22.5t19.5 48.5t12.5 82.5l3 32l-173 -144q5 -29 20.5 -38t46.5 -9zM170 252q-2 -9 -2.5 -17t-1.5 -16l171 142q-7 23 -23 30.5t-44 7.5q-25 0 -41 -5.5t-27 -21t-18.5 -44.5t-13.5 -76z" />
    <glyph glyph-name="ugrave" unicode="&#xf9;" horiz-adv-x="504" 
d="M211 504l-38 -310q-3 -24 -3 -41q0 -35 13.5 -47.5t45.5 -12.5q20 0 34 4.5t24 15.5t15.5 31t9.5 50l39 310h133l-62 -504h-126l6 57q-16 -31 -46.5 -48t-78.5 -17q-75 0 -108.5 35t-33.5 104q0 22 3 49l41 324h132zM162 724h121l53 -156h-81z" />
    <glyph glyph-name="uacute" unicode="&#xfa;" horiz-adv-x="504" 
d="M211 504l-38 -310q-3 -24 -3 -41q0 -35 13.5 -47.5t45.5 -12.5q20 0 34 4.5t24 15.5t15.5 31t9.5 50l39 310h133l-62 -504h-126l6 57q-16 -31 -46.5 -48t-78.5 -17q-75 0 -108.5 35t-33.5 104q0 22 3 49l41 324h132zM320 724h129l-133 -156h-89z" />
    <glyph glyph-name="ucircumflex" unicode="&#xfb;" horiz-adv-x="504" 
d="M211 504l-38 -310q-3 -24 -3 -41q0 -35 13.5 -47.5t45.5 -12.5q20 0 34 4.5t24 15.5t15.5 31t9.5 50l39 310h133l-62 -504h-126l6 57q-16 -31 -46.5 -48t-78.5 -17q-75 0 -108.5 35t-33.5 104q0 22 3 49l41 324h132zM257 724h96l92 -156h-91l-52 96l-77 -96h-100z" />
    <glyph glyph-name="udieresis" unicode="&#xfc;" horiz-adv-x="504" 
d="M211 504l-38 -310q-3 -24 -3 -41q0 -35 13.5 -47.5t45.5 -12.5q20 0 34 4.5t24 15.5t15.5 31t9.5 50l39 310h133l-62 -504h-126l6 57q-16 -31 -46.5 -48t-78.5 -17q-75 0 -108.5 35t-33.5 104q0 22 3 49l41 324h132zM342 701h105l-14 -114h-106zM158 701h105l-14 -114
h-106z" />
    <glyph glyph-name="yacute" unicode="&#xfd;" horiz-adv-x="470" 
d="M42 -107q34 0 55.5 13t38.5 55l12 29l-112 514h133l63 -335l145 335h123l-253 -552q-18 -39 -35.5 -69t-40 -50.5t-52.5 -30.5t-72 -10h-58l12 101h41zM313 724h129l-133 -156h-89z" />
    <glyph glyph-name="thorn" unicode="&#xfe;" horiz-adv-x="515" 
d="M107 712h132l-31 -254q20 30 49.5 42t65.5 12q82 0 123.5 -40t41.5 -141q0 -19 -1.5 -39.5t-3.5 -43.5q-8 -74 -24 -123t-41.5 -78.5t-61 -42t-83.5 -12.5q-38 0 -68.5 12t-46.5 48l-32 -260h-131zM246 93q24 0 40.5 6t28.5 23t19.5 48t13.5 82q6 46 6 73q0 46 -17 60
t-54 14q-24 0 -40.5 -5t-27.5 -21t-18.5 -44.5t-13.5 -76.5q-6 -53 -6 -83q0 -23 4 -38t12 -23.5t21.5 -11.5t31.5 -3z" />
    <glyph glyph-name="ydieresis" unicode="&#xff;" horiz-adv-x="470" 
d="M42 -107q34 0 55.5 13t38.5 55l12 29l-112 514h133l63 -335l145 335h123l-253 -552q-18 -39 -35.5 -69t-40 -50.5t-52.5 -30.5t-72 -10h-58l12 101h41zM335 701h105l-14 -114h-106zM151 701h105l-14 -114h-106z" />
    <glyph glyph-name="Amacron" unicode="&#x100;" horiz-adv-x="587" 
d="M265 712h169l119 -712h-135l-21 135h-238l-54 -135h-132zM204 249h176l-49 318zM228 895h279l-10 -82h-279z" />
    <glyph glyph-name="amacron" unicode="&#x101;" horiz-adv-x="465" 
d="M147 -8q-66 0 -102 31.5t-36 92.5q0 48 16.5 78.5t46 49.5t69.5 30t87 20l64 12l3 20q3 18 3 32q0 26 -12.5 36.5t-43.5 10.5q-37 0 -54.5 -12.5t-23.5 -55.5h-117q6 42 19.5 74.5t37.5 55t61 34t90 11.5q52 0 86 -11.5t53.5 -31t27.5 -45.5t8 -55q0 -9 -0.5 -18
t-1.5 -18l-40 -333h-127l6 51q-15 -26 -43.5 -42.5t-76.5 -16.5zM192 87q37 0 57.5 18.5t25.5 63.5l6 48l-41 -6q-18 -3 -35.5 -7t-32 -11.5t-23 -20.5t-8.5 -34q0 -25 12 -38t39 -13zM143 687h279l-10 -82h-279z" />
    <glyph glyph-name="Abreve" unicode="&#x102;" horiz-adv-x="587" 
d="M265 712h169l119 -712h-135l-21 135h-238l-54 -135h-132zM204 249h176l-49 318zM359 768q-32 0 -57.5 7.5t-42.5 25.5t-24.5 47.5t-3.5 73.5h72q-1 -6 -1 -11v-10q0 -35 13.5 -48.5t45.5 -13.5q37 0 54 18t26 65h72q-7 -44 -19.5 -73.5t-31.5 -47.5t-44.5 -25.5
t-58.5 -7.5z" />
    <glyph glyph-name="abreve" unicode="&#x103;" horiz-adv-x="465" 
d="M147 -8q-66 0 -102 31.5t-36 92.5q0 48 16.5 78.5t46 49.5t69.5 30t87 20l64 12l3 20q3 18 3 32q0 26 -12.5 36.5t-43.5 10.5q-37 0 -54.5 -12.5t-23.5 -55.5h-117q6 42 19.5 74.5t37.5 55t61 34t90 11.5q52 0 86 -11.5t53.5 -31t27.5 -45.5t8 -55q0 -9 -0.5 -18
t-1.5 -18l-40 -333h-127l6 51q-15 -26 -43.5 -42.5t-76.5 -16.5zM192 87q37 0 57.5 18.5t25.5 63.5l6 48l-41 -6q-18 -3 -35.5 -7t-32 -11.5t-23 -20.5t-8.5 -34q0 -25 12 -38t39 -13zM274 560q-32 0 -57.5 7.5t-42.5 25.5t-24.5 47.5t-3.5 73.5h72q-1 -6 -1 -11v-10
q0 -35 13.5 -48.5t45.5 -13.5q37 0 54 18t26 65h72q-7 -44 -19.5 -73.5t-31.5 -47.5t-44.5 -25.5t-58.5 -7.5z" />
    <glyph glyph-name="Aogonek" unicode="&#x104;" horiz-adv-x="587" 
d="M265 712h169l119 -712q-38 -33 -60.5 -57t-22.5 -53q0 -35 43 -35h28l-8 -71h-36q-54 0 -79 21t-25 57q0 23 10 42t25 35.5t33.5 31t36.5 29.5h-80l-21 135h-238l-54 -135h-132zM204 249h176l-49 318z" />
    <glyph glyph-name="aogonek" unicode="&#x105;" horiz-adv-x="465" 
d="M146 -8q-66 0 -101.5 31.5t-35.5 92.5q0 48 16.5 78.5t46 49.5t69 30t86.5 20l65 12l2 20q3 18 3 31q0 26 -12 37t-43 11q-37 0 -54.5 -12.5t-23.5 -55.5h-118q7 42 20.5 74.5t37.5 55t61 34t90 11.5q52 0 86 -11.5t53.5 -31t27.5 -45.5t8 -55q0 -9 -0.5 -18t-1.5 -18
l-41 -333q-38 -33 -60.5 -57t-22.5 -53q0 -35 43 -35h29l-9 -71h-36q-52 0 -78 21t-26 57q0 23 10 42t25.5 35.5t34 31t35.5 29.5h-71l6 52q-15 -26 -44 -43t-77 -17zM282 217l-43 -6q-18 -3 -35.5 -6.5t-32 -11.5t-23 -21t-8.5 -34q0 -51 52 -51q36 0 56 18.5t27 63.5z" />
    <glyph glyph-name="Cacute" unicode="&#x106;" horiz-adv-x="586" 
d="M290 -12q-69 0 -117 12.5t-78 41t-43 74.5t-13 113q0 29 2.5 62t7.5 71q14 109 34 179.5t54 111t86.5 56t131.5 15.5q67 0 112 -12.5t71 -38t37 -65t11 -93.5q0 -32 -3 -71h-133q1 14 1.5 26.5t0.5 23.5q0 31 -4.5 51.5t-16 32.5t-30.5 17t-48 5q-43 0 -70 -8.5
t-43.5 -34t-27 -73t-20.5 -124.5q-7 -51 -10.5 -89t-3.5 -65q0 -35 6.5 -56.5t20 -33t35 -15t51.5 -3.5q34 0 57 7.5t38 26t24.5 49.5t17.5 78h132q-12 -72 -29.5 -123.5t-47.5 -84t-76.5 -48t-116.5 -15.5zM392 932h129l-133 -156h-89z" />
    <glyph glyph-name="cacute" unicode="&#x107;" horiz-adv-x="464" 
d="M219 -8q-103 0 -148.5 42.5t-45.5 140.5q0 18 1.5 38t3.5 41q9 73 25 122.5t43.5 79.5t68 43t99.5 13q99 0 139.5 -42t40.5 -127q0 -10 -0.5 -20.5t-1.5 -21.5h-123v22q0 45 -12.5 60.5t-49.5 15.5q-23 0 -38.5 -5t-26 -21.5t-17.5 -46.5t-13 -79q-3 -28 -5 -48.5
t-2 -36.5q0 -43 15 -56t49 -13q21 0 35.5 5t24.5 17t16.5 32.5t11.5 50.5h122q-9 -54 -24.5 -93t-40.5 -64t-61 -37t-86 -12zM313 724h129l-133 -156h-89z" />
    <glyph glyph-name="Ccircumflex" unicode="&#x108;" horiz-adv-x="586" 
d="M290 -12q-69 0 -117 12.5t-78 41t-43 74.5t-13 113q0 29 2.5 62t7.5 71q14 109 34 179.5t54 111t86.5 56t131.5 15.5q67 0 112 -12.5t71 -38t37 -65t11 -93.5q0 -32 -3 -71h-133q1 14 1.5 26.5t0.5 23.5q0 31 -4.5 51.5t-16 32.5t-30.5 17t-48 5q-43 0 -70 -8.5
t-43.5 -34t-27 -73t-20.5 -124.5q-7 -51 -10.5 -89t-3.5 -65q0 -35 6.5 -56.5t20 -33t35 -15t51.5 -3.5q34 0 57 7.5t38 26t24.5 49.5t17.5 78h132q-12 -72 -29.5 -123.5t-47.5 -84t-76.5 -48t-116.5 -15.5zM329 932h96l92 -156h-91l-52 96l-77 -96h-100z" />
    <glyph glyph-name="ccircumflex" unicode="&#x109;" horiz-adv-x="464" 
d="M219 -8q-103 0 -148.5 42.5t-45.5 140.5q0 18 1.5 38t3.5 41q9 73 25 122.5t43.5 79.5t68 43t99.5 13q99 0 139.5 -42t40.5 -127q0 -10 -0.5 -20.5t-1.5 -21.5h-123v22q0 45 -12.5 60.5t-49.5 15.5q-23 0 -38.5 -5t-26 -21.5t-17.5 -46.5t-13 -79q-3 -28 -5 -48.5
t-2 -36.5q0 -43 15 -56t49 -13q21 0 35.5 5t24.5 17t16.5 32.5t11.5 50.5h122q-9 -54 -24.5 -93t-40.5 -64t-61 -37t-86 -12zM250 724h96l92 -156h-91l-52 96l-77 -96h-100z" />
    <glyph glyph-name="Cdotaccent" unicode="&#x10a;" horiz-adv-x="586" 
d="M290 -12q-69 0 -117 12.5t-78 41t-43 74.5t-13 113q0 29 2.5 62t7.5 71q14 109 34 179.5t54 111t86.5 56t131.5 15.5q67 0 112 -12.5t71 -38t37 -65t11 -93.5q0 -32 -3 -71h-133q1 14 1.5 26.5t0.5 23.5q0 31 -4.5 51.5t-16 32.5t-30.5 17t-48 5q-43 0 -70 -8.5
t-43.5 -34t-27 -73t-20.5 -124.5q-7 -51 -10.5 -89t-3.5 -65q0 -35 6.5 -56.5t20 -33t35 -15t51.5 -3.5q34 0 57 7.5t38 26t24.5 49.5t17.5 78h132q-12 -72 -29.5 -123.5t-47.5 -84t-76.5 -48t-116.5 -15.5zM322 909h105l-14 -114h-106z" />
    <glyph glyph-name="cdotaccent" unicode="&#x10b;" horiz-adv-x="464" 
d="M219 -8q-103 0 -148.5 42.5t-45.5 140.5q0 18 1.5 38t3.5 41q9 73 25 122.5t43.5 79.5t68 43t99.5 13q99 0 139.5 -42t40.5 -127q0 -10 -0.5 -20.5t-1.5 -21.5h-123v22q0 45 -12.5 60.5t-49.5 15.5q-23 0 -38.5 -5t-26 -21.5t-17.5 -46.5t-13 -79q-3 -28 -5 -48.5
t-2 -36.5q0 -43 15 -56t49 -13q21 0 35.5 5t24.5 17t16.5 32.5t11.5 50.5h122q-9 -54 -24.5 -93t-40.5 -64t-61 -37t-86 -12zM243 701h105l-14 -114h-106z" />
    <glyph glyph-name="Ccaron" unicode="&#x10c;" horiz-adv-x="586" 
d="M290 -12q-69 0 -117 12.5t-78 41t-43 74.5t-13 113q0 29 2.5 62t7.5 71q14 109 34 179.5t54 111t86.5 56t131.5 15.5q67 0 112 -12.5t71 -38t37 -65t11 -93.5q0 -32 -3 -71h-133q1 14 1.5 26.5t0.5 23.5q0 31 -4.5 51.5t-16 32.5t-30.5 17t-48 5q-43 0 -70 -8.5
t-43.5 -34t-27 -73t-20.5 -124.5q-7 -51 -10.5 -89t-3.5 -65q0 -35 6.5 -56.5t20 -33t35 -15t51.5 -3.5q34 0 57 7.5t38 26t24.5 49.5t17.5 78h132q-12 -72 -29.5 -123.5t-47.5 -84t-76.5 -48t-116.5 -15.5zM218 932h94l52 -97l77 97h97l-132 -156h-96z" />
    <glyph glyph-name="ccaron" unicode="&#x10d;" horiz-adv-x="464" 
d="M219 -8q-103 0 -148.5 42.5t-45.5 140.5q0 18 1.5 38t3.5 41q9 73 25 122.5t43.5 79.5t68 43t99.5 13q99 0 139.5 -42t40.5 -127q0 -10 -0.5 -20.5t-1.5 -21.5h-123v22q0 45 -12.5 60.5t-49.5 15.5q-23 0 -38.5 -5t-26 -21.5t-17.5 -46.5t-13 -79q-3 -28 -5 -48.5
t-2 -36.5q0 -43 15 -56t49 -13q21 0 35.5 5t24.5 17t16.5 32.5t11.5 50.5h122q-9 -54 -24.5 -93t-40.5 -64t-61 -37t-86 -12zM139 724h94l52 -97l77 97h97l-132 -156h-96z" />
    <glyph glyph-name="Dcaron" unicode="&#x10e;" horiz-adv-x="620" 
d="M118 712h234q67 0 114.5 -11.5t78.5 -39t45.5 -73.5t14.5 -115q0 -26 -1.5 -55t-5.5 -62q-12 -101 -30.5 -169t-52 -109.5t-87.5 -59.5t-137 -18h-260zM240 588l-59 -478h111q42 0 68.5 7.5t44 33.5t28.5 75.5t22 133.5q5 38 7.5 67t2.5 52q0 33 -6 54.5t-19.5 33.5
t-35.5 16.5t-53 4.5h-111zM222 932h94l52 -97l77 97h97l-132 -156h-96z" />
    <glyph glyph-name="dcaron" unicode="&#x10f;" horiz-adv-x="523" 
d="M190 -8q-41 0 -72 9t-51.5 29.5t-31 54.5t-10.5 84q0 37 6 85q9 74 25.5 123.5t42.5 79.5t61.5 42.5t83.5 12.5q36 0 65.5 -12t44.5 -48l32 260h133l-87 -712h-127l7 59q-20 -38 -52 -52.5t-70 -14.5zM228 93q24 0 40.5 6t28.5 23t19.5 48t13.5 82q6 46 6 73q0 46 -17 60
t-54 14q-24 0 -40.5 -5t-27.5 -21t-18.5 -44.5t-13.5 -76.5q-6 -53 -6 -83q0 -23 4 -38t12 -23.5t21.5 -11.5t31.5 -3zM663 712l-7 -58l-56 -94h-59l19 152h103z" />
    <glyph glyph-name="Dcroat" unicode="&#x110;" horiz-adv-x="635" 
d="M42 409h51l37 303h240q66 0 113.5 -11.5t78 -39.5t45 -73.5t14.5 -114.5q0 -26 -2 -56t-6 -63q-12 -101 -31 -169t-53.5 -109t-89 -58.5t-137.5 -17.5h-259l37 305h-50zM252 588l-22 -179h114l-13 -104h-114l-24 -195h115q42 0 69 7.5t44 33.5t28 75.5t22 133.5
q5 38 7.5 67t2.5 52q0 33 -6 54.5t-19.5 33.5t-35.5 16.5t-53 4.5h-115z" />
    <glyph glyph-name="dcroat" unicode="&#x111;" horiz-adv-x="513" 
d="M269 644h109l8 68h133l-8 -68h48l-10 -77h-48l-69 -567h-127l7 59q-20 -38 -52 -52.5t-70 -14.5q-41 0 -72 9t-51.5 29.5t-31 54.5t-10.5 84q0 37 6 85q9 74 25.5 123.5t42.5 79.5t61.5 42.5t83.5 12.5q36 0 65.5 -12t44.5 -48l14 115h-109zM228 93q24 0 40.5 6t28.5 23
t19.5 48t13.5 82q6 46 6 73q0 46 -17 60t-54 14q-24 0 -40.5 -5t-27.5 -21t-18.5 -44.5t-13.5 -76.5q-6 -53 -6 -83q0 -23 4 -38t12 -23.5t21.5 -11.5t31.5 -3z" />
    <glyph glyph-name="Emacron" unicode="&#x112;" horiz-adv-x="519" 
d="M118 712h422l-15 -124h-285l-22 -173h262l-15 -116h-261l-23 -189h285l-13 -110h-422zM211 895h279l-10 -82h-279z" />
    <glyph glyph-name="emacron" unicode="&#x113;" horiz-adv-x="473" 
d="M224 -8q-52 0 -89.5 10t-62 32t-36 57.5t-11.5 85.5q0 17 1.5 35t3.5 38q9 70 25 120t44 81.5t68.5 46t98.5 14.5q100 0 142 -45t42 -137q0 -18 -1 -37.5t-4 -41.5l-4 -26h-282q-3 -35 -3 -58q0 -24 4 -39.5t12.5 -23.5t22 -11t31.5 -3q38 0 57 13.5t28 51.5h118
q-8 -38 -22.5 -68t-39 -51t-59.5 -32.5t-84 -11.5zM263 403q-18 0 -32 -3.5t-25 -13t-19.5 -27.5t-14.5 -48h155q1 6 1 11.5v10.5q0 42 -15 56t-50 14zM151 687h279l-10 -82h-279z" />
    <glyph glyph-name="Ebreve" unicode="&#x114;" horiz-adv-x="519" 
d="M118 712h422l-15 -124h-285l-22 -173h262l-15 -116h-261l-23 -189h285l-13 -110h-422zM342 768q-32 0 -57.5 7.5t-42.5 25.5t-24.5 47.5t-3.5 73.5h72q-1 -6 -1 -11v-10q0 -35 13.5 -48.5t45.5 -13.5q37 0 54 18t26 65h72q-7 -44 -19.5 -73.5t-31.5 -47.5t-44.5 -25.5
t-58.5 -7.5z" />
    <glyph glyph-name="ebreve" unicode="&#x115;" horiz-adv-x="473" 
d="M224 -8q-52 0 -89.5 10t-62 32t-36 57.5t-11.5 85.5q0 17 1.5 35t3.5 38q9 70 25 120t44 81.5t68.5 46t98.5 14.5q100 0 142 -45t42 -137q0 -18 -1 -37.5t-4 -41.5l-4 -26h-282q-3 -35 -3 -58q0 -24 4 -39.5t12.5 -23.5t22 -11t31.5 -3q38 0 57 13.5t28 51.5h118
q-8 -38 -22.5 -68t-39 -51t-59.5 -32.5t-84 -11.5zM263 403q-18 0 -32 -3.5t-25 -13t-19.5 -27.5t-14.5 -48h155q1 6 1 11.5v10.5q0 42 -15 56t-50 14zM282 560q-32 0 -57.5 7.5t-42.5 25.5t-24.5 47.5t-3.5 73.5h72q-1 -6 -1 -11v-10q0 -35 13.5 -48.5t45.5 -13.5
q37 0 54 18t26 65h72q-7 -44 -19.5 -73.5t-31.5 -47.5t-44.5 -25.5t-58.5 -7.5z" />
    <glyph glyph-name="Edotaccent" unicode="&#x116;" horiz-adv-x="519" 
d="M118 712h422l-15 -124h-285l-22 -173h262l-15 -116h-261l-23 -189h285l-13 -110h-422zM301 909h105l-14 -114h-106z" />
    <glyph glyph-name="edotaccent" unicode="&#x117;" horiz-adv-x="473" 
d="M224 -8q-52 0 -89.5 10t-62 32t-36 57.5t-11.5 85.5q0 17 1.5 35t3.5 38q9 70 25 120t44 81.5t68.5 46t98.5 14.5q100 0 142 -45t42 -137q0 -18 -1 -37.5t-4 -41.5l-4 -26h-282q-3 -35 -3 -58q0 -24 4 -39.5t12.5 -23.5t22 -11t31.5 -3q38 0 57 13.5t28 51.5h118
q-8 -38 -22.5 -68t-39 -51t-59.5 -32.5t-84 -11.5zM263 403q-18 0 -32 -3.5t-25 -13t-19.5 -27.5t-14.5 -48h155q1 6 1 11.5v10.5q0 42 -15 56t-50 14zM241 701h105l-14 -114h-106z" />
    <glyph glyph-name="Eogonek" unicode="&#x118;" horiz-adv-x="519" 
d="M118 712h422l-15 -124h-285l-22 -173h262l-15 -116h-261l-23 -189h285l-13 -110h-7q-38 -33 -60.5 -57t-22.5 -53q0 -35 43 -35h29l-9 -71h-36q-52 0 -78 21t-26 57q0 23 10 42t25.5 35.5t34 31t35.5 29.5h-360z" />
    <glyph glyph-name="eogonek" unicode="&#x119;" horiz-adv-x="473" 
d="M271 -216q-52 0 -77.5 21t-25.5 57q0 22 9 40t23 34t31 30.5t34 28.5q-20 -3 -41 -3q-52 0 -89.5 10t-62 32t-36 57.5t-11.5 85.5q0 17 1.5 35t3.5 38q9 70 25 120t44 81.5t68.5 46t98.5 14.5q100 0 142 -45t42 -137q0 -18 -1 -37.5t-4 -41.5l-4 -26h-282q-3 -35 -3 -58
q0 -24 4 -39.5t12.5 -23.5t22 -11t31.5 -3q38 0 57 13.5t28 51.5h118q-8 -38 -23.5 -68t-41.5 -54l-37 -33q-38 -33 -60.5 -57t-22.5 -53q0 -35 44 -35h28l-9 -71h-36zM263 403q-18 0 -32 -3.5t-25 -13t-19.5 -27.5t-14.5 -48h155q1 6 1 11.5v10.5q0 42 -15 56t-50 14z" />
    <glyph glyph-name="Ecaron" unicode="&#x11a;" horiz-adv-x="519" 
d="M118 712h422l-15 -124h-285l-22 -173h262l-15 -116h-261l-23 -189h285l-13 -110h-422zM197 932h94l52 -97l77 97h97l-132 -156h-96z" />
    <glyph glyph-name="ecaron" unicode="&#x11b;" horiz-adv-x="473" 
d="M224 -8q-52 0 -89.5 10t-62 32t-36 57.5t-11.5 85.5q0 17 1.5 35t3.5 38q9 70 25 120t44 81.5t68.5 46t98.5 14.5q100 0 142 -45t42 -137q0 -18 -1 -37.5t-4 -41.5l-4 -26h-282q-3 -35 -3 -58q0 -24 4 -39.5t12.5 -23.5t22 -11t31.5 -3q38 0 57 13.5t28 51.5h118
q-8 -38 -22.5 -68t-39 -51t-59.5 -32.5t-84 -11.5zM263 403q-18 0 -32 -3.5t-25 -13t-19.5 -27.5t-14.5 -48h155q1 6 1 11.5v10.5q0 42 -15 56t-50 14zM137 724h94l52 -97l77 97h97l-132 -156h-96z" />
    <glyph glyph-name="Gcircumflex" unicode="&#x11c;" horiz-adv-x="602" 
d="M328 392h259l-14 -119q-9 -74 -26 -128t-49 -89t-82.5 -51.5t-125.5 -16.5q-68 0 -115.5 12.5t-77.5 40.5t-44 74t-14 112q0 29 2.5 62t7.5 71q14 109 34 179.5t54.5 111.5t87.5 57t132 16q74 0 121.5 -15t74 -44.5t35 -74t5.5 -102.5h-132q2 34 -3.5 55.5t-18.5 34
t-34.5 17.5t-51.5 5q-43 0 -70 -8.5t-43.5 -34t-27 -73t-20.5 -124.5q-7 -51 -10.5 -89t-3.5 -65q0 -35 6.5 -56.5t20 -33t35 -15t51.5 -3.5q37 0 62 6.5t41.5 24t26 49t15.5 81.5l2 17h-125zM337 932h96l92 -156h-91l-52 96l-77 -96h-100z" />
    <glyph glyph-name="gcircumflex" unicode="&#x11d;" horiz-adv-x="515" 
d="M194 1q-83 0 -125 40t-42 139q0 17 1.5 37t3.5 42q9 72 25.5 120.5t42.5 78t61.5 42t83.5 12.5q42 0 73.5 -17t42.5 -65l10 74h124l-64 -521q-6 -53 -22 -90.5t-43 -61.5t-66.5 -35.5t-93.5 -11.5q-59 0 -97 12t-59.5 34.5t-29 55.5t-5.5 75h126q0 -5 -0.5 -9.5
t-0.5 -8.5q0 -32 13 -45t54 -13q43 0 63 18t27 72l10 81q-21 -30 -49.5 -42.5t-63.5 -12.5zM230 102q24 0 40.5 6t28.5 22.5t19.5 47t13.5 79.5q2 21 3.5 38t1.5 31q0 45 -17 59t-54 14q-24 0 -40.5 -5t-27.5 -20t-18 -43t-13 -74q-6 -51 -6 -79q0 -23 4 -38t12 -23.5
t21.5 -11.5t31.5 -3zM250 724h96l92 -156h-91l-52 96l-77 -96h-100z" />
    <glyph glyph-name="Gbreve" unicode="&#x11e;" horiz-adv-x="602" 
d="M328 392h259l-14 -119q-9 -74 -26 -128t-49 -89t-82.5 -51.5t-125.5 -16.5q-68 0 -115.5 12.5t-77.5 40.5t-44 74t-14 112q0 29 2.5 62t7.5 71q14 109 34 179.5t54.5 111.5t87.5 57t132 16q74 0 121.5 -15t74 -44.5t35 -74t5.5 -102.5h-132q2 34 -3.5 55.5t-18.5 34
t-34.5 17.5t-51.5 5q-43 0 -70 -8.5t-43.5 -34t-27 -73t-20.5 -124.5q-7 -51 -10.5 -89t-3.5 -65q0 -35 6.5 -56.5t20 -33t35 -15t51.5 -3.5q37 0 62 6.5t41.5 24t26 49t15.5 81.5l2 17h-125zM371 768q-32 0 -57.5 7.5t-42.5 25.5t-24.5 47.5t-3.5 73.5h72q-1 -6 -1 -11v-10
q0 -35 13.5 -48.5t45.5 -13.5q37 0 54 18t26 65h72q-7 -44 -19.5 -73.5t-31.5 -47.5t-44.5 -25.5t-58.5 -7.5z" />
    <glyph glyph-name="gbreve" unicode="&#x11f;" horiz-adv-x="515" 
d="M194 1q-83 0 -125 40t-42 139q0 17 1.5 37t3.5 42q9 72 25.5 120.5t42.5 78t61.5 42t83.5 12.5q42 0 73.5 -17t42.5 -65l10 74h124l-64 -521q-6 -53 -22 -90.5t-43 -61.5t-66.5 -35.5t-93.5 -11.5q-59 0 -97 12t-59.5 34.5t-29 55.5t-5.5 75h126q0 -5 -0.5 -9.5
t-0.5 -8.5q0 -32 13 -45t54 -13q43 0 63 18t27 72l10 81q-21 -30 -49.5 -42.5t-63.5 -12.5zM230 102q24 0 40.5 6t28.5 22.5t19.5 47t13.5 79.5q2 21 3.5 38t1.5 31q0 45 -17 59t-54 14q-24 0 -40.5 -5t-27.5 -20t-18 -43t-13 -74q-6 -51 -6 -79q0 -23 4 -38t12 -23.5
t21.5 -11.5t31.5 -3zM284 560q-32 0 -57.5 7.5t-42.5 25.5t-24.5 47.5t-3.5 73.5h72q-1 -6 -1 -11v-10q0 -35 13.5 -48.5t45.5 -13.5q37 0 54 18t26 65h72q-7 -44 -19.5 -73.5t-31.5 -47.5t-44.5 -25.5t-58.5 -7.5z" />
    <glyph glyph-name="Gdotaccent" unicode="&#x120;" horiz-adv-x="602" 
d="M328 392h259l-14 -119q-9 -74 -26 -128t-49 -89t-82.5 -51.5t-125.5 -16.5q-68 0 -115.5 12.5t-77.5 40.5t-44 74t-14 112q0 29 2.5 62t7.5 71q14 109 34 179.5t54.5 111.5t87.5 57t132 16q74 0 121.5 -15t74 -44.5t35 -74t5.5 -102.5h-132q2 34 -3.5 55.5t-18.5 34
t-34.5 17.5t-51.5 5q-43 0 -70 -8.5t-43.5 -34t-27 -73t-20.5 -124.5q-7 -51 -10.5 -89t-3.5 -65q0 -35 6.5 -56.5t20 -33t35 -15t51.5 -3.5q37 0 62 6.5t41.5 24t26 49t15.5 81.5l2 17h-125zM330 909h105l-14 -114h-106z" />
    <glyph glyph-name="gdotaccent" unicode="&#x121;" horiz-adv-x="515" 
d="M194 1q-83 0 -125 40t-42 139q0 17 1.5 37t3.5 42q9 72 25.5 120.5t42.5 78t61.5 42t83.5 12.5q42 0 73.5 -17t42.5 -65l10 74h124l-64 -521q-6 -53 -22 -90.5t-43 -61.5t-66.5 -35.5t-93.5 -11.5q-59 0 -97 12t-59.5 34.5t-29 55.5t-5.5 75h126q0 -5 -0.5 -9.5
t-0.5 -8.5q0 -32 13 -45t54 -13q43 0 63 18t27 72l10 81q-21 -30 -49.5 -42.5t-63.5 -12.5zM230 102q24 0 40.5 6t28.5 22.5t19.5 47t13.5 79.5q2 21 3.5 38t1.5 31q0 45 -17 59t-54 14q-24 0 -40.5 -5t-27.5 -20t-18 -43t-13 -74q-6 -51 -6 -79q0 -23 4 -38t12 -23.5
t21.5 -11.5t31.5 -3zM243 701h105l-14 -114h-106z" />
    <glyph glyph-name="uni0122" unicode="&#x122;" horiz-adv-x="602" 
d="M328 392h259l-14 -119q-9 -74 -26 -128t-49 -89t-82.5 -51.5t-125.5 -16.5q-68 0 -115.5 12.5t-77.5 40.5t-44 74t-14 112q0 29 2.5 62t7.5 71q14 109 34 179.5t54.5 111.5t87.5 57t132 16q74 0 121.5 -15t74 -44.5t35 -74t5.5 -102.5h-132q2 34 -3.5 55.5t-18.5 34
t-34.5 17.5t-51.5 5q-43 0 -70 -8.5t-43.5 -34t-27 -73t-20.5 -124.5q-7 -51 -10.5 -89t-3.5 -65q0 -35 6.5 -56.5t20 -33t35 -15t51.5 -3.5q37 0 62 6.5t41.5 24t26 49t15.5 81.5l2 17h-125zM323 -56l-7 -58l-56 -94h-59l19 152h103z" />
    <glyph glyph-name="uni0123" unicode="&#x123;" horiz-adv-x="515" 
d="M194 1q-83 0 -125 40t-42 139q0 17 1.5 37t3.5 42q9 72 25.5 120.5t42.5 78t61.5 42t83.5 12.5q42 0 73.5 -17t42.5 -65l10 74h124l-64 -521q-6 -53 -22 -90.5t-43 -61.5t-66.5 -35.5t-93.5 -11.5q-59 0 -97 12t-59.5 34.5t-29 55.5t-5.5 75h126q0 -5 -0.5 -9.5
t-0.5 -8.5q0 -32 13 -45t54 -13q43 0 63 18t27 72l10 81q-21 -30 -49.5 -42.5t-63.5 -12.5zM230 102q24 0 40.5 6t28.5 22.5t19.5 47t13.5 79.5q2 21 3.5 38t1.5 31q0 45 -17 59t-54 14q-24 0 -40.5 -5t-27.5 -20t-18 -43t-13 -74q-6 -51 -6 -79q0 -23 4 -38t12 -23.5
t21.5 -11.5t31.5 -3zM236 618l55 94h60l-19 -152h-104z" />
    <glyph glyph-name="Hcircumflex" unicode="&#x124;" horiz-adv-x="631" 
d="M118 712h137l-37 -297h233l37 297h137l-87 -712h-137l36 299h-233l-36 -299h-137zM350 932h96l92 -156h-91l-52 96l-77 -96h-100z" />
    <glyph glyph-name="hcircumflex" unicode="&#x125;" horiz-adv-x="502" 
d="M107 712h132l-30 -250q17 24 43.5 37t68.5 13q76 0 111 -35.5t35 -107.5q0 -21 -3 -45l-39 -324h-133l36 298q3 22 3 39q0 35 -13.5 47.5t-45.5 12.5q-21 0 -35 -4.5t-23.5 -16t-15 -30.5t-9.5 -48l-37 -298h-132zM154 932h96l92 -156h-91l-52 96l-77 -96h-100z" />
    <glyph glyph-name="Hbar" unicode="&#x126;" horiz-adv-x="634" 
d="M63 614h45l12 98h137l-12 -98h233l12 98h136l-12 -98h46l-13 -103h-46l-62 -511h-136l36 299h-233l-36 -299h-137l62 511h-45zM220 415h233l12 96h-233z" />
    <glyph glyph-name="hbar" unicode="&#x127;" horiz-adv-x="502" 
d="M50 644h49l8 68h132l-8 -68h110l-11 -77h-109l-12 -105q17 24 43.5 37t68.5 13q76 0 111 -35.5t35 -107.5q0 -21 -3 -45l-39 -324h-133l36 298q3 22 3 39q0 35 -13.5 47.5t-45.5 12.5q-21 0 -35 -4.5t-23.5 -16t-15 -30.5t-9.5 -48l-37 -298h-132l69 567h-49z" />
    <glyph glyph-name="Itilde" unicode="&#x128;" horiz-adv-x="261" 
d="M118 712h137l-87 -712h-137zM67 848q5 39 26 56.5t52 17.5q19 0 33.5 -8.5t26.5 -19t23 -19t24 -8.5t16 22l4 31h68l-7 -56q-5 -39 -25.5 -56.5t-51.5 -17.5q-20 0 -34.5 8.5t-26.5 19t-23 19t-23 8.5q-13 0 -16 -22l-4 -31h-69z" />
    <glyph glyph-name="itilde" unicode="&#x129;" horiz-adv-x="233" 
d="M81 504h132l-62 -504h-132zM32 640q5 39 26 56.5t52 17.5q19 0 33.5 -8.5t26.5 -19t23 -19t24 -8.5t16 22l4 31h68l-7 -56q-5 -39 -25.5 -56.5t-51.5 -17.5q-20 0 -34.5 8.5t-26.5 19t-23 19t-23 8.5q-13 0 -16 -22l-4 -31h-69z" />
    <glyph glyph-name="Imacron" unicode="&#x12a;" horiz-adv-x="261" 
d="M118 712h137l-87 -712h-137zM67 895h279l-10 -82h-279z" />
    <glyph glyph-name="imacron" unicode="&#x12b;" horiz-adv-x="233" 
d="M81 504h132l-62 -504h-132zM32 687h279l-10 -82h-279z" />
    <glyph glyph-name="Ibreve" unicode="&#x12c;" horiz-adv-x="261" 
d="M118 712h137l-87 -712h-137zM198 768q-32 0 -57.5 7.5t-42.5 25.5t-24.5 47.5t-3.5 73.5h72q-1 -6 -1 -11v-10q0 -35 13.5 -48.5t45.5 -13.5q37 0 54 18t26 65h72q-7 -44 -19.5 -73.5t-31.5 -47.5t-44.5 -25.5t-58.5 -7.5z" />
    <glyph glyph-name="ibreve" unicode="&#x12d;" horiz-adv-x="233" 
d="M81 504h132l-62 -504h-132zM163 560q-32 0 -57.5 7.5t-42.5 25.5t-24.5 47.5t-3.5 73.5h72q-1 -6 -1 -11v-10q0 -35 13.5 -48.5t45.5 -13.5q37 0 54 18t26 65h72q-7 -44 -19.5 -73.5t-31.5 -47.5t-44.5 -25.5t-58.5 -7.5z" />
    <glyph glyph-name="Iogonek" unicode="&#x12e;" horiz-adv-x="261" 
d="M118 712h137l-87 -712q-38 -33 -60.5 -57t-22.5 -53q0 -35 43 -35h28l-8 -71h-36q-54 0 -79 21t-25 57q0 23 10 42t25 35.5t33.5 31t36.5 29.5h-82z" />
    <glyph glyph-name="iogonek" unicode="&#x12f;" horiz-adv-x="233" 
d="M81 504h132l-62 -504q-38 -33 -60.5 -57t-22.5 -53q0 -35 43 -35h29l-9 -71h-36q-52 0 -77.5 21t-25.5 57q0 23 10 42t25 35.5t33.5 31t36.5 29.5h-78zM106 712h132l-14 -120h-133z" />
    <glyph glyph-name="Idotaccent" unicode="&#x130;" horiz-adv-x="261" 
d="M118 712h137l-87 -712h-137zM157 909h105l-14 -114h-106z" />
    <glyph glyph-name="dotlessi" unicode="&#x131;" horiz-adv-x="233" 
d="M81 504h132l-62 -504h-132z" />
    <glyph glyph-name="IJ" unicode="&#x132;" horiz-adv-x="656" 
d="M118 712h137l-87 -712h-137zM343 110q51 0 79 21t34 72l62 509h137l-61 -495q-6 -52 -21.5 -92.5t-43.5 -68t-71.5 -42t-106.5 -14.5h-112l13 110h91z" />
    <glyph glyph-name="ij" unicode="&#x133;" horiz-adv-x="459" 
d="M106 712h132l-14 -120h-133zM81 504h132l-62 -504h-132zM332 712h132l-14 -120h-133zM307 504h132l-65 -529q-11 -94 -58 -138.5t-141 -44.5h-53l12 101h33q34 0 51 15.5t22 49.5z" />
    <glyph glyph-name="Jcircumflex" unicode="&#x134;" horiz-adv-x="402" 
d="M89 110q51 0 79 21t34 72l62 509h137l-61 -495q-6 -52 -21.5 -92.5t-43.5 -68t-71.5 -42t-106.5 -14.5h-112l13 110h91zM311 932h96l92 -156h-91l-52 96l-77 -96h-100z" />
    <glyph glyph-name="jcircumflex" unicode="&#x135;" horiz-adv-x="233" 
d="M81 504h132l-65 -529q-11 -94 -58 -138.5t-141 -44.5h-53l12 101h33q34 0 51 15.5t22 49.5zM129 724h96l92 -156h-91l-52 96l-77 -96h-100z" />
    <glyph glyph-name="uni0136" unicode="&#x136;" horiz-adv-x="590" 
d="M118 712h137l-40 -326l275 326h156l-264 -305l180 -407h-147l-133 306l-90 -106l-24 -200h-137zM325 -56l-7 -58l-56 -94h-59l19 152h103z" />
    <glyph glyph-name="uni0137" unicode="&#x137;" horiz-adv-x="484" 
d="M107 712h132l-51 -413l187 205h144l-192 -207l130 -297h-143l-85 199l-61 -68l-16 -131h-132zM278 -56l-7 -58l-56 -94h-59l19 152h103z" />
    <glyph glyph-name="Lacute" unicode="&#x139;" horiz-adv-x="483" 
d="M118 712h137l-74 -602h274l-13 -110h-411zM231 932h129l-133 -156h-89z" />
    <glyph glyph-name="lacute" unicode="&#x13a;" horiz-adv-x="233" 
d="M107 712h132l-87 -712h-132zM215 932h129l-133 -156h-89z" />
    <glyph glyph-name="uni013B" unicode="&#x13b;" horiz-adv-x="483" 
d="M118 712h137l-74 -602h274l-13 -110h-411zM284 -56l-7 -58l-56 -94h-59l19 152h103z" />
    <glyph glyph-name="uni013C" unicode="&#x13c;" horiz-adv-x="233" 
d="M107 712h132l-87 -712h-132zM135 -56l-7 -58l-56 -94h-59l19 152h103z" />
    <glyph glyph-name="Lcaron" unicode="&#x13d;" horiz-adv-x="488" 
d="M118 712h137l-74 -602h274l-13 -110h-411zM500 712l-7 -58l-56 -94h-59l19 152h103z" />
    <glyph glyph-name="lcaron" unicode="&#x13e;" horiz-adv-x="243" 
d="M107 712h132l-87 -712h-132zM382 712l-7 -58l-56 -94h-59l19 152h103z" />
    <glyph glyph-name="Ldot" unicode="&#x13f;" horiz-adv-x="488" 
d="M118 712h137l-74 -602h274l-13 -110h-411zM357 418h105l-14 -114h-106z" />
    <glyph glyph-name="ldot" unicode="&#x140;" horiz-adv-x="317" 
d="M107 712h132l-87 -712h-132zM243 418h105l-14 -114h-106z" />
    <glyph glyph-name="Lslash" unicode="&#x141;" horiz-adv-x="500" 
d="M22 302l69 46l45 364h136l-33 -267l174 115l-14 -113l-174 -115l-27 -222h274l-13 -110h-410l28 234l-68 -45z" />
    <glyph glyph-name="lslash" unicode="&#x142;" horiz-adv-x="280" 
d="M26 322l62 41l43 349h132l-31 -255l62 41l-11 -89l-62 -41l-45 -368h-132l33 273l-61 -40z" />
    <glyph glyph-name="Nacute" unicode="&#x143;" horiz-adv-x="631" 
d="M118 712h141l180 -473l58 473h128l-87 -712h-141l-181 473l-57 -473h-128zM417 932h129l-133 -156h-89z" />
    <glyph glyph-name="nacute" unicode="&#x144;" horiz-adv-x="501" 
d="M81 504h126l-7 -55q15 30 43.5 46.5t76.5 16.5q76 0 111 -35.5t35 -107.5q0 -21 -3 -45l-39 -324h-133l36 298q3 22 3 39q0 35 -13.5 47.5t-45.5 12.5q-21 0 -35 -4.5t-23.5 -16t-15 -30.5t-9.5 -48l-37 -298h-132zM322 724h129l-133 -156h-89z" />
    <glyph glyph-name="uni0145" unicode="&#x145;" horiz-adv-x="631" 
d="M118 712h141l180 -473l58 473h128l-87 -712h-141l-181 473l-57 -473h-128zM342 -56l-7 -58l-56 -94h-59l19 152h103z" />
    <glyph glyph-name="uni0146" unicode="&#x146;" horiz-adv-x="501" 
d="M81 504h126l-7 -55q15 30 43.5 46.5t76.5 16.5q76 0 111 -35.5t35 -107.5q0 -21 -3 -45l-39 -324h-133l36 298q3 22 3 39q0 35 -13.5 47.5t-45.5 12.5q-21 0 -35 -4.5t-23.5 -16t-15 -30.5t-9.5 -48l-37 -298h-132zM267 -56l-7 -58l-56 -94h-59l19 152h103z" />
    <glyph glyph-name="Ncaron" unicode="&#x147;" horiz-adv-x="631" 
d="M118 712h141l180 -473l58 473h128l-87 -712h-141l-181 473l-57 -473h-128zM243 932h94l52 -97l77 97h97l-132 -156h-96z" />
    <glyph glyph-name="ncaron" unicode="&#x148;" horiz-adv-x="501" 
d="M81 504h126l-7 -55q15 30 43.5 46.5t76.5 16.5q76 0 111 -35.5t35 -107.5q0 -21 -3 -45l-39 -324h-133l36 298q3 22 3 39q0 35 -13.5 47.5t-45.5 12.5q-21 0 -35 -4.5t-23.5 -16t-15 -30.5t-9.5 -48l-37 -298h-132zM148 724h94l52 -97l77 97h97l-132 -156h-96z" />
    <glyph glyph-name="napostrophe" unicode="&#x149;" horiz-adv-x="501" 
d="M81 504h126l-7 -55q15 30 43.5 46.5t76.5 16.5q76 0 111 -35.5t35 -107.5q0 -21 -3 -45l-39 -324h-133l36 298q3 22 3 39q0 35 -13.5 47.5t-45.5 12.5q-21 0 -35 -4.5t-23.5 -16t-15 -30.5t-9.5 -48l-37 -298h-132zM110 712h103l-7 -58l-56 -94h-59z" />
    <glyph glyph-name="Eng" unicode="&#x14a;" horiz-adv-x="630" 
d="M118 712h145l180 -440l54 440h128l-87 -703q-6 -52 -21.5 -92.5t-43.5 -68t-70 -42t-102 -14.5h-66l13 110h55q51 0 75.5 21t30.5 72l2 21l-193 473l-59 -489h-128z" />
    <glyph glyph-name="eng" unicode="&#x14b;" horiz-adv-x="501" 
d="M213 -107q65 0 73 65l41 340q3 22 3 39q0 35 -13.5 47.5t-45.5 12.5q-20 0 -34 -4t-24 -15.5t-15.5 -30.5t-9.5 -49l-37 -298h-132l62 504h126l-7 -55q15 30 43.5 46.5t76.5 16.5q76 0 111 -35.5t35 -107.5q0 -21 -3 -45l-42 -349q-11 -93 -58 -138t-143 -45h-53l12 101
h34z" />
    <glyph glyph-name="Omacron" unicode="&#x14c;" horiz-adv-x="620" 
d="M290 -12q-68 0 -115.5 12.5t-77.5 41t-44 74.5t-14 113q0 29 2.5 62t7.5 71q14 109 34 179.5t54.5 111t87.5 56t132 15.5q66 0 113 -11.5t77.5 -39t45 -74t14.5 -115.5q0 -57 -9 -130q-13 -105 -32 -175.5t-52.5 -113t-87 -60t-136.5 -17.5zM291 98q43 0 70 8t44.5 35
t28.5 79t22 140q5 42 8 74t3 56q0 34 -6 55.5t-19.5 33.5t-35.5 16.5t-53 4.5q-43 0 -70 -8.5t-44.5 -34t-27.5 -73t-20 -124.5q-6 -51 -9.5 -89t-3.5 -65q0 -35 6.5 -56.5t20 -33t35 -15t51.5 -3.5zM244 895h279l-10 -82h-279z" />
    <glyph glyph-name="omacron" unicode="&#x14d;" horiz-adv-x="497" 
d="M224 -8q-104 0 -151.5 42t-47.5 144q0 17 2 37.5t4 40.5q8 75 24 124t44 78.5t70.5 41.5t103.5 12q103 0 150.5 -42t47.5 -144q0 -17 -2 -37.5t-4 -40.5q-8 -73 -23.5 -122t-43.5 -79t-70.5 -42.5t-103.5 -12.5zM228 93q24 0 41 5.5t28 21.5t18.5 45.5t13.5 77.5
q3 27 5 47.5t2 35.5q0 46 -17 59.5t-54 13.5q-24 0 -41 -5t-28 -21t-18 -44.5t-13 -76.5q-3 -26 -5 -47.5t-2 -37.5q0 -46 16.5 -60t53.5 -14zM158 687h279l-10 -82h-279z" />
    <glyph glyph-name="Obreve" unicode="&#x14e;" horiz-adv-x="620" 
d="M290 -12q-68 0 -115.5 12.5t-77.5 41t-44 74.5t-14 113q0 29 2.5 62t7.5 71q14 109 34 179.5t54.5 111t87.5 56t132 15.5q66 0 113 -11.5t77.5 -39t45 -74t14.5 -115.5q0 -57 -9 -130q-13 -105 -32 -175.5t-52.5 -113t-87 -60t-136.5 -17.5zM291 98q43 0 70 8t44.5 35
t28.5 79t22 140q5 42 8 74t3 56q0 34 -6 55.5t-19.5 33.5t-35.5 16.5t-53 4.5q-43 0 -70 -8.5t-44.5 -34t-27.5 -73t-20 -124.5q-6 -51 -9.5 -89t-3.5 -65q0 -35 6.5 -56.5t20 -33t35 -15t51.5 -3.5zM375 768q-32 0 -57.5 7.5t-42.5 25.5t-24.5 47.5t-3.5 73.5h72
q-1 -6 -1 -11v-10q0 -35 13.5 -48.5t45.5 -13.5q37 0 54 18t26 65h72q-7 -44 -19.5 -73.5t-31.5 -47.5t-44.5 -25.5t-58.5 -7.5z" />
    <glyph glyph-name="obreve" unicode="&#x14f;" horiz-adv-x="497" 
d="M224 -8q-104 0 -151.5 42t-47.5 144q0 17 2 37.5t4 40.5q8 75 24 124t44 78.5t70.5 41.5t103.5 12q103 0 150.5 -42t47.5 -144q0 -17 -2 -37.5t-4 -40.5q-8 -73 -23.5 -122t-43.5 -79t-70.5 -42.5t-103.5 -12.5zM228 93q24 0 41 5.5t28 21.5t18.5 45.5t13.5 77.5
q3 27 5 47.5t2 35.5q0 46 -17 59.5t-54 13.5q-24 0 -41 -5t-28 -21t-18 -44.5t-13 -76.5q-3 -26 -5 -47.5t-2 -37.5q0 -46 16.5 -60t53.5 -14zM289 560q-32 0 -57.5 7.5t-42.5 25.5t-24.5 47.5t-3.5 73.5h72q-1 -6 -1 -11v-10q0 -35 13.5 -48.5t45.5 -13.5q37 0 54 18t26 65
h72q-7 -44 -19.5 -73.5t-31.5 -47.5t-44.5 -25.5t-58.5 -7.5z" />
    <glyph glyph-name="Ohungarumlaut" unicode="&#x150;" horiz-adv-x="620" 
d="M290 -12q-68 0 -115.5 12.5t-77.5 41t-44 74.5t-14 113q0 29 2.5 62t7.5 71q14 109 34 179.5t54.5 111t87.5 56t132 15.5q66 0 113 -11.5t77.5 -39t45 -74t14.5 -115.5q0 -57 -9 -130q-13 -105 -32 -175.5t-52.5 -113t-87 -60t-136.5 -17.5zM291 98q43 0 70 8t44.5 35
t28.5 79t22 140q5 42 8 74t3 56q0 34 -6 55.5t-19.5 33.5t-35.5 16.5t-53 4.5q-43 0 -70 -8.5t-44.5 -34t-27.5 -73t-20 -124.5q-6 -51 -9.5 -89t-3.5 -65q0 -35 6.5 -56.5t20 -33t35 -15t51.5 -3.5zM487 932h128l-133 -156h-89zM313 932h129l-134 -156h-89z" />
    <glyph glyph-name="ohungarumlaut" unicode="&#x151;" horiz-adv-x="497" 
d="M224 -8q-104 0 -151.5 42t-47.5 144q0 17 2 37.5t4 40.5q8 75 24 124t44 78.5t70.5 41.5t103.5 12q103 0 150.5 -42t47.5 -144q0 -17 -2 -37.5t-4 -40.5q-8 -73 -23.5 -122t-43.5 -79t-70.5 -42.5t-103.5 -12.5zM228 93q24 0 41 5.5t28 21.5t18.5 45.5t13.5 77.5
q3 27 5 47.5t2 35.5q0 46 -17 59.5t-54 13.5q-24 0 -41 -5t-28 -21t-18 -44.5t-13 -76.5q-3 -26 -5 -47.5t-2 -37.5q0 -46 16.5 -60t53.5 -14zM401 724h128l-133 -156h-89zM227 724h129l-134 -156h-89z" />
    <glyph glyph-name="OE" unicode="&#x152;" horiz-adv-x="880" 
d="M296 0q-69 0 -118 12.5t-79.5 40.5t-45 73.5t-14.5 111.5q0 52 9 120q13 105 33 173t54 108.5t87 56.5t132 16h549l-15 -122h-286l-21 -173h255l-15 -114h-254l-24 -193h286l-13 -110h-520zM179 218q0 -35 6 -56.5t19.5 -33t35 -15t52.5 -3.5h115l59 478h-115
q-42 0 -69 -8.5t-44 -33t-27.5 -69t-19.5 -117.5q-12 -92 -12 -142z" />
    <glyph glyph-name="oe" unicode="&#x153;" horiz-adv-x="772" 
d="M522 -8q-50 0 -86 13t-58 42q-48 -55 -154 -55q-52 0 -89.5 9.5t-62 31.5t-36 57t-11.5 85q0 35 6 79q9 75 25 124.5t43.5 79t69.5 42t102 12.5q105 0 146 -57q51 57 148 57q100 0 141.5 -44.5t41.5 -137.5q0 -18 -1 -37.5t-4 -41.5l-3 -26h-281q-3 -35 -3 -58
q0 -24 4 -39.5t12 -23.5t21.5 -11t31.5 -3q38 0 56.5 13.5t27.5 51.5h118q-8 -38 -22.5 -68t-39 -51t-59.5 -32.5t-84 -11.5zM228 93q24 0 41 5.5t28.5 22.5t19 48.5t13.5 82.5q6 46 6 74q0 45 -16.5 59t-54.5 14q-24 0 -41 -5t-28 -21t-18.5 -44.5t-12.5 -76.5
q-3 -27 -5 -48t-2 -37q0 -23 4 -37.5t12.5 -22.5t22 -11t31.5 -3zM561 403q-18 0 -31.5 -3.5t-24 -13t-19 -27.5t-14.5 -48h154q1 6 1 11v10q0 43 -15.5 57t-50.5 14z" />
    <glyph glyph-name="Racute" unicode="&#x154;" horiz-adv-x="574" 
d="M118 712h245q50 0 88.5 -9.5t64 -30.5t38.5 -56t13 -86q0 -24 -3 -51q-10 -104 -45 -151.5t-100 -59.5l107 -268h-145l-93 247h-90l-30 -247h-137zM239 588l-27 -225h102q26 0 44.5 3t31 15t20 35t12.5 62q3 24 3 41q0 44 -20.5 56.5t-66.5 12.5h-99zM374 932h129
l-133 -156h-89z" />
    <glyph glyph-name="racute" unicode="&#x155;" horiz-adv-x="319" 
d="M57 330q6 46 18.5 79t34.5 54t55 31t80 10h92l-14 -109h-66q-32 0 -47.5 -14t-19.5 -46l-41 -335h-132zM268 726h129l-133 -156h-89z" />
    <glyph glyph-name="uni0156" unicode="&#x156;" horiz-adv-x="574" 
d="M118 712h245q50 0 88.5 -9.5t64 -30.5t38.5 -56t13 -86q0 -24 -3 -51q-10 -104 -45 -151.5t-100 -59.5l107 -268h-145l-93 247h-90l-30 -247h-137zM239 588l-27 -225h102q26 0 44.5 3t31 15t20 35t12.5 62q3 24 3 41q0 44 -20.5 56.5t-66.5 12.5h-99zM313 -56l-7 -58
l-56 -94h-59l19 152h103z" />
    <glyph glyph-name="uni0157" unicode="&#x157;" horiz-adv-x="319" 
d="M57 330q6 46 18.5 79t34.5 54t55 31t80 10h92l-14 -109h-66q-32 0 -47.5 -14t-19.5 -46l-41 -335h-132zM131 -56l-7 -58l-56 -94h-59l19 152h103z" />
    <glyph glyph-name="Rcaron" unicode="&#x158;" horiz-adv-x="574" 
d="M118 712h245q50 0 88.5 -9.5t64 -30.5t38.5 -56t13 -86q0 -24 -3 -51q-10 -104 -45 -151.5t-100 -59.5l107 -268h-145l-93 247h-90l-30 -247h-137zM239 588l-27 -225h102q26 0 44.5 3t31 15t20 35t12.5 62q3 24 3 41q0 44 -20.5 56.5t-66.5 12.5h-99zM200 932h94l52 -97
l77 97h97l-132 -156h-96z" />
    <glyph glyph-name="rcaron" unicode="&#x159;" horiz-adv-x="319" 
d="M57 330q6 46 18.5 79t34.5 54t55 31t80 10h92l-14 -109h-66q-32 0 -47.5 -14t-19.5 -46l-41 -335h-132zM94 726h94l52 -97l77 97h97l-132 -156h-96z" />
    <glyph glyph-name="Sacute" unicode="&#x15a;" horiz-adv-x="546" 
d="M159 219q-2 -35 1.5 -58t14.5 -37t31.5 -20t52.5 -6q51 0 81.5 23.5t30.5 82.5q0 35 -21.5 51.5t-69.5 28.5l-54 14q-79 20 -120.5 59t-41.5 119q0 118 60 183t192 65q69 0 114.5 -14t71 -43t33.5 -73.5t3 -105.5h-133q2 35 -2 57t-15 34t-30 16.5t-48 4.5q-52 0 -79 -24
t-27 -79q0 -37 22.5 -52t70.5 -27l54 -14q81 -20 121 -61t40 -116q0 -123 -64.5 -181t-196.5 -58q-66 0 -111.5 12.5t-72.5 40t-37 71.5t-5 107h134zM369 932h129l-133 -156h-89z" />
    <glyph glyph-name="sacute" unicode="&#x15b;" horiz-adv-x="440" 
d="M134 153q-3 -40 12 -53.5t53 -13.5q35 0 54.5 11.5t19.5 48.5q0 21 -13 29t-46 15l-59 12q-51 11 -82.5 41.5t-31.5 90.5q0 93 53.5 135.5t148.5 42.5q92 0 134 -31.5t42 -101.5q0 -19 -3 -38h-116q1 5 1 9.5v9.5q0 29 -13.5 38t-46.5 9q-34 0 -53 -10t-19 -47
q0 -20 13.5 -30t48.5 -17l60 -12q111 -24 111 -127q0 -48 -14.5 -81t-41.5 -53t-66 -29t-88 -9q-59 0 -94.5 12.5t-54 34t-24 51t-3.5 63.5h118zM289 724h129l-133 -156h-89z" />
    <glyph glyph-name="Scircumflex" unicode="&#x15c;" horiz-adv-x="546" 
d="M159 219q-2 -35 1.5 -58t14.5 -37t31.5 -20t52.5 -6q51 0 81.5 23.5t30.5 82.5q0 35 -21.5 51.5t-69.5 28.5l-54 14q-79 20 -120.5 59t-41.5 119q0 118 60 183t192 65q69 0 114.5 -14t71 -43t33.5 -73.5t3 -105.5h-133q2 35 -2 57t-15 34t-30 16.5t-48 4.5q-52 0 -79 -24
t-27 -79q0 -37 22.5 -52t70.5 -27l54 -14q81 -20 121 -61t40 -116q0 -123 -64.5 -181t-196.5 -58q-66 0 -111.5 12.5t-72.5 40t-37 71.5t-5 107h134zM306 932h96l92 -156h-91l-52 96l-77 -96h-100z" />
    <glyph glyph-name="scircumflex" unicode="&#x15d;" horiz-adv-x="440" 
d="M134 153q-3 -40 12 -53.5t53 -13.5q35 0 54.5 11.5t19.5 48.5q0 21 -13 29t-46 15l-59 12q-51 11 -82.5 41.5t-31.5 90.5q0 93 53.5 135.5t148.5 42.5q92 0 134 -31.5t42 -101.5q0 -19 -3 -38h-116q1 5 1 9.5v9.5q0 29 -13.5 38t-46.5 9q-34 0 -53 -10t-19 -47
q0 -20 13.5 -30t48.5 -17l60 -12q111 -24 111 -127q0 -48 -14.5 -81t-41.5 -53t-66 -29t-88 -9q-59 0 -94.5 12.5t-54 34t-24 51t-3.5 63.5h118zM226 724h96l92 -156h-91l-52 96l-77 -96h-100z" />
    <glyph glyph-name="Scedilla" unicode="&#x15e;" horiz-adv-x="546" 
d="M222 -11q-58 3 -97.5 16.5t-63.5 41.5t-32.5 70t-3.5 102h134q-2 -35 1.5 -58t14.5 -37t31.5 -20t52.5 -6q51 0 81.5 23.5t30.5 82.5q0 35 -21.5 51.5t-69.5 28.5l-54 14q-79 20 -120.5 59t-41.5 119q0 118 60 183t192 65q69 0 114.5 -14t71 -43t33.5 -73.5t3 -105.5
h-133q2 35 -2 57t-15 34t-30 16.5t-48 4.5q-52 0 -79 -24t-27 -79q0 -37 22.5 -52t70.5 -27l54 -14q81 -20 121 -61t40 -116q0 -120 -60.5 -177.5t-185.5 -61.5l-3 -22q54 -2 74 -25.5t20 -53.5q0 -54 -35 -78.5t-92 -24.5h-78l7 57h58q23 0 38.5 8t15.5 34q0 16 -10.5 23
t-34.5 7h-36z" />
    <glyph glyph-name="scedilla" unicode="&#x15f;" horiz-adv-x="440" 
d="M167 -7q-50 3 -80.5 16t-47 34.5t-21 49.5t-2.5 60h118q-3 -40 12 -53.5t53 -13.5q35 0 54.5 11.5t19.5 48.5q0 21 -13 29t-46 15l-59 12q-51 11 -82.5 41.5t-31.5 90.5q0 93 53.5 135.5t148.5 42.5q92 0 134 -31.5t42 -101.5q0 -19 -3 -38h-116q1 5 1 9.5v9.5
q0 29 -13.5 38t-46.5 9q-34 0 -53 -10t-19 -47q0 -20 13.5 -30t48.5 -17l60 -12q111 -24 111 -127q0 -46 -13 -78t-38 -52t-60.5 -30t-80.5 -11l-4 -27q54 -2 74 -25.5t20 -53.5q0 -54 -35 -78.5t-92 -24.5h-78l7 57h58q23 0 38.5 8t15.5 34q0 16 -10.5 23t-34.5 7h-36z" />
    <glyph glyph-name="Scaron" unicode="&#x160;" horiz-adv-x="546" 
d="M159 219q-2 -35 1.5 -58t14.5 -37t31.5 -20t52.5 -6q51 0 81.5 23.5t30.5 82.5q0 35 -21.5 51.5t-69.5 28.5l-54 14q-79 20 -120.5 59t-41.5 119q0 118 60 183t192 65q69 0 114.5 -14t71 -43t33.5 -73.5t3 -105.5h-133q2 35 -2 57t-15 34t-30 16.5t-48 4.5q-52 0 -79 -24
t-27 -79q0 -37 22.5 -52t70.5 -27l54 -14q81 -20 121 -61t40 -116q0 -123 -64.5 -181t-196.5 -58q-66 0 -111.5 12.5t-72.5 40t-37 71.5t-5 107h134zM195 932h94l52 -97l77 97h97l-132 -156h-96z" />
    <glyph glyph-name="scaron" unicode="&#x161;" horiz-adv-x="440" 
d="M134 153q-3 -40 12 -53.5t53 -13.5q35 0 54.5 11.5t19.5 48.5q0 21 -13 29t-46 15l-59 12q-51 11 -82.5 41.5t-31.5 90.5q0 93 53.5 135.5t148.5 42.5q92 0 134 -31.5t42 -101.5q0 -19 -3 -38h-116q1 5 1 9.5v9.5q0 29 -13.5 38t-46.5 9q-34 0 -53 -10t-19 -47
q0 -20 13.5 -30t48.5 -17l60 -12q111 -24 111 -127q0 -48 -14.5 -81t-41.5 -53t-66 -29t-88 -9q-59 0 -94.5 12.5t-54 34t-24 51t-3.5 63.5h118zM115 724h94l52 -97l77 97h97l-132 -156h-96z" />
    <glyph glyph-name="uni0162" unicode="&#x162;" horiz-adv-x="527" 
d="M211 0h-48l72 588h-180l15 124h499l-15 -124h-180l-72 -588h-50l-5 -34q54 -2 74 -25.5t20 -53.5q0 -54 -35 -78.5t-92 -24.5h-78l7 57h58q23 0 38.5 8t15.5 34q0 16 -10.5 23t-34.5 7h-36z" />
    <glyph glyph-name="uni0163" unicode="&#x163;" horiz-adv-x="339" 
d="M151 6q-47 11 -70 41.5t-23 85.5q0 19 3 42l27 220h-58l14 109h61l15 120h128l-15 -120h122l-13 -109h-122l-28 -227q-1 -6 -1.5 -11.5t-0.5 -10.5q0 -28 14 -36.5t46 -8.5h53l-12 -101h-70h-15t-14 1l-4 -35q54 -2 74 -25.5t20 -53.5q0 -54 -35 -78.5t-92 -24.5h-78
l7 57h58q23 0 38.5 8t15.5 34q0 16 -10.5 23t-34.5 7h-36z" />
    <glyph glyph-name="Tcaron" unicode="&#x164;" horiz-adv-x="527" 
d="M70 712h499l-15 -124h-180l-72 -588h-139l72 588h-180zM189 932h94l52 -97l77 97h97l-132 -156h-96z" />
    <glyph glyph-name="tcaron" unicode="&#x165;" horiz-adv-x="339" 
d="M44 504h61l15 120h128l-15 -120h122l-13 -109h-122l-28 -227q-1 -6 -1.5 -11.5t-0.5 -10.5q0 -28 14 -36.5t46 -8.5h53l-12 -101h-70q-82 0 -122.5 30t-40.5 103q0 19 3 42l27 220h-58zM410 712l-7 -58l-56 -94h-59l19 152h103z" />
    <glyph glyph-name="Tbar" unicode="&#x166;" horiz-adv-x="547" 
d="M80 712h499l-15 -124h-180l-22 -179h134l-12 -104h-135l-37 -305h-139l37 305h-134l13 104h134l22 179h-180z" />
    <glyph glyph-name="tbar" unicode="&#x167;" horiz-adv-x="345" 
d="M47 504h62l14 120h129l-15 -120h122l-14 -109h-121l-13 -103h121l-9 -77h-121l-6 -47q-1 -6 -1.5 -11.5t-0.5 -10.5q0 -28 14 -36.5t45 -8.5h53l-11 -101h-70q-83 0 -123.5 30.5t-40.5 104.5q0 19 3 40l5 40h-58l9 77h58l13 103h-57z" />
    <glyph glyph-name="Utilde" unicode="&#x168;" horiz-adv-x="626" 
d="M114 712h137l-60 -486q-2 -10 -2 -19v-17q0 -52 25.5 -72t79.5 -20q63 0 94.5 27.5t40.5 100.5l60 486h136l-59 -483q-7 -60 -24.5 -105t-49.5 -75t-81.5 -45.5t-119.5 -15.5q-125 0 -182 48t-57 143q0 23 3 50zM252 848q5 39 26 56.5t52 17.5q19 0 33.5 -8.5t26.5 -19
t23 -19t24 -8.5t16 22l4 31h68l-7 -56q-5 -39 -25.5 -56.5t-51.5 -17.5q-20 0 -34.5 8.5t-26.5 19t-23 19t-23 8.5q-13 0 -16 -22l-4 -31h-69z" />
    <glyph glyph-name="utilde" unicode="&#x169;" horiz-adv-x="504" 
d="M211 504l-38 -310q-3 -24 -3 -41q0 -35 13.5 -47.5t45.5 -12.5q20 0 34 4.5t24 15.5t15.5 31t9.5 50l39 310h133l-62 -504h-126l6 57q-16 -31 -46.5 -48t-78.5 -17q-75 0 -108.5 35t-33.5 104q0 22 3 49l41 324h132zM160 640q5 39 26 56.5t52 17.5q19 0 33.5 -8.5
t26.5 -19t23 -19t24 -8.5t16 22l4 31h68l-7 -56q-5 -39 -25.5 -56.5t-51.5 -17.5q-20 0 -34.5 8.5t-26.5 19t-23 19t-23 8.5q-13 0 -16 -22l-4 -31h-69z" />
    <glyph glyph-name="Umacron" unicode="&#x16a;" horiz-adv-x="626" 
d="M114 712h137l-60 -486q-2 -10 -2 -19v-17q0 -52 25.5 -72t79.5 -20q63 0 94.5 27.5t40.5 100.5l60 486h136l-59 -483q-7 -60 -24.5 -105t-49.5 -75t-81.5 -45.5t-119.5 -15.5q-125 0 -182 48t-57 143q0 23 3 50zM252 895h279l-10 -82h-279z" />
    <glyph glyph-name="umacron" unicode="&#x16b;" horiz-adv-x="504" 
d="M211 504l-38 -310q-3 -24 -3 -41q0 -35 13.5 -47.5t45.5 -12.5q20 0 34 4.5t24 15.5t15.5 31t9.5 50l39 310h133l-62 -504h-126l6 57q-16 -31 -46.5 -48t-78.5 -17q-75 0 -108.5 35t-33.5 104q0 22 3 49l41 324h132zM160 687h279l-10 -82h-279z" />
    <glyph glyph-name="Ubreve" unicode="&#x16c;" horiz-adv-x="626" 
d="M114 712h137l-60 -486q-2 -10 -2 -19v-17q0 -52 25.5 -72t79.5 -20q63 0 94.5 27.5t40.5 100.5l60 486h136l-59 -483q-7 -60 -24.5 -105t-49.5 -75t-81.5 -45.5t-119.5 -15.5q-125 0 -182 48t-57 143q0 23 3 50zM383 768q-32 0 -57.5 7.5t-42.5 25.5t-24.5 47.5
t-3.5 73.5h72q-1 -6 -1 -11v-10q0 -35 13.5 -48.5t45.5 -13.5q37 0 54 18t26 65h72q-7 -44 -19.5 -73.5t-31.5 -47.5t-44.5 -25.5t-58.5 -7.5z" />
    <glyph glyph-name="ubreve" unicode="&#x16d;" horiz-adv-x="504" 
d="M211 504l-38 -310q-3 -24 -3 -41q0 -35 13.5 -47.5t45.5 -12.5q20 0 34 4.5t24 15.5t15.5 31t9.5 50l39 310h133l-62 -504h-126l6 57q-16 -31 -46.5 -48t-78.5 -17q-75 0 -108.5 35t-33.5 104q0 22 3 49l41 324h132zM291 560q-32 0 -57.5 7.5t-42.5 25.5t-24.5 47.5
t-3.5 73.5h72q-1 -6 -1 -11v-10q0 -35 13.5 -48.5t45.5 -13.5q37 0 54 18t26 65h72q-7 -44 -19.5 -73.5t-31.5 -47.5t-44.5 -25.5t-58.5 -7.5z" />
    <glyph glyph-name="Uring" unicode="&#x16e;" horiz-adv-x="626" 
d="M114 712h137l-60 -486q-2 -10 -2 -19v-17q0 -52 25.5 -72t79.5 -20q63 0 94.5 27.5t40.5 100.5l60 486h136l-59 -483q-7 -60 -24.5 -105t-49.5 -75t-81.5 -45.5t-119.5 -15.5q-125 0 -182 48t-57 143q0 23 3 50zM383 819q33 0 43.5 18.5t10.5 49.5q0 17 -8.5 26t-33.5 9
q-33 0 -43.5 -18.5t-10.5 -49.5q0 -17 8.5 -26t33.5 -9zM380 768q-96 0 -96 85q0 25 6 47t19.5 38t35 25.5t53.5 9.5q96 0 96 -85q0 -25 -6 -47t-19.5 -38t-35.5 -25.5t-53 -9.5z" />
    <glyph glyph-name="uring" unicode="&#x16f;" horiz-adv-x="504" 
d="M211 504l-38 -310q-3 -24 -3 -41q0 -35 13.5 -47.5t45.5 -12.5q20 0 34 4.5t24 15.5t15.5 31t9.5 50l39 310h133l-62 -504h-126l6 57q-16 -31 -46.5 -48t-78.5 -17q-75 0 -108.5 35t-33.5 104q0 22 3 49l41 324h132zM291 611q33 0 43.5 18.5t10.5 49.5q0 17 -8.5 26
t-33.5 9q-33 0 -43.5 -18.5t-10.5 -49.5q0 -17 8.5 -26t33.5 -9zM288 560q-96 0 -96 85q0 25 6 47t19.5 38t35 25.5t53.5 9.5q96 0 96 -85q0 -25 -6 -47t-19.5 -38t-35.5 -25.5t-53 -9.5z" />
    <glyph glyph-name="Uhungarumlaut" unicode="&#x170;" horiz-adv-x="626" 
d="M114 712h137l-60 -486q-2 -10 -2 -19v-17q0 -52 25.5 -72t79.5 -20q63 0 94.5 27.5t40.5 100.5l60 486h136l-59 -483q-7 -60 -24.5 -105t-49.5 -75t-81.5 -45.5t-119.5 -15.5q-125 0 -182 48t-57 143q0 23 3 50zM495 932h128l-133 -156h-89zM321 932h129l-134 -156h-89z
" />
    <glyph glyph-name="uhungarumlaut" unicode="&#x171;" horiz-adv-x="504" 
d="M211 504l-38 -310q-3 -24 -3 -41q0 -35 13.5 -47.5t45.5 -12.5q20 0 34 4.5t24 15.5t15.5 31t9.5 50l39 310h133l-62 -504h-126l6 57q-16 -31 -46.5 -48t-78.5 -17q-75 0 -108.5 35t-33.5 104q0 22 3 49l41 324h132zM403 724h128l-133 -156h-89zM229 724h129l-134 -156
h-89z" />
    <glyph glyph-name="Uogonek" unicode="&#x172;" horiz-adv-x="626" 
d="M325 -216q-54 0 -79 21t-25 57q0 21 8 38.5t20.5 33t29 29t33.5 26.5q-5 0 -10.5 -0.5t-10.5 -0.5q-125 0 -182 48t-57 143q0 23 3 50l59 483h137l-60 -486q-2 -10 -2 -19v-17q0 -52 25.5 -72t79.5 -20q63 0 94.5 27.5t40.5 100.5l60 486h136l-59 -483q-12 -100 -55 -159
t-136 -75q-35 -31 -56 -54t-21 -51q0 -35 43 -35h28l-8 -71h-36z" />
    <glyph glyph-name="uogonek" unicode="&#x173;" horiz-adv-x="504" 
d="M366 -216q-54 0 -79 21t-25 57q0 23 10 42t25.5 35.5t34 31t35.5 29.5h-71l6 57q-16 -31 -46.5 -48t-78.5 -17q-75 0 -108.5 35t-33.5 104q0 22 3 49l41 324h132l-38 -310q-3 -24 -3 -41q0 -35 13.5 -47.5t45.5 -12.5q20 0 34 4.5t24 15.5t15.5 31t9.5 50l39 310h133
l-62 -504q-38 -33 -60.5 -57t-22.5 -53q0 -35 43 -35h29l-9 -71h-36z" />
    <glyph glyph-name="Wcircumflex" unicode="&#x174;" horiz-adv-x="897" 
d="M62 712h136l56 -551l203 551h106l65 -549l190 549h130l-258 -712h-156l-57 447l-169 -447h-162zM483 932h96l92 -156h-91l-52 96l-77 -96h-100z" />
    <glyph glyph-name="wcircumflex" unicode="&#x175;" horiz-adv-x="722" 
d="M35 504h133l42 -328l136 328h102l54 -328l124 328h123l-208 -504h-125l-50 285l-120 -285h-128zM371 724h96l92 -156h-91l-52 96l-77 -96h-100z" />
    <glyph glyph-name="Ycircumflex" unicode="&#x176;" horiz-adv-x="559" 
d="M213 272l-152 440h141l100 -298l175 298h134l-262 -445l-31 -267h-137zM321 932h96l92 -156h-91l-52 96l-77 -96h-100z" />
    <glyph glyph-name="ycircumflex" unicode="&#x177;" horiz-adv-x="470" 
d="M42 -107q34 0 55.5 13t38.5 55l12 29l-112 514h133l63 -335l145 335h123l-253 -552q-18 -39 -35.5 -69t-40 -50.5t-52.5 -30.5t-72 -10h-58l12 101h41zM250 724h96l92 -156h-91l-52 96l-77 -96h-100z" />
    <glyph glyph-name="Ydieresis" unicode="&#x178;" horiz-adv-x="559" 
d="M213 272l-152 440h141l100 -298l175 298h134l-262 -445l-31 -267h-137zM406 909h105l-14 -114h-106zM222 909h105l-14 -114h-106z" />
    <glyph glyph-name="Zacute" unicode="&#x179;" horiz-adv-x="498" 
d="M77 712h458l-10 -83l-349 -519h279l-13 -110h-445l10 83l340 505h-285zM347 932h129l-133 -156h-89z" />
    <glyph glyph-name="zacute" unicode="&#x17a;" horiz-adv-x="416" 
d="M58 504h365l-10 -72l-241 -331h197l-12 -101h-358l8 72l234 323h-197zM279 724h129l-133 -156h-89z" />
    <glyph glyph-name="Zdotaccent" unicode="&#x17b;" horiz-adv-x="498" 
d="M77 712h458l-10 -83l-349 -519h279l-13 -110h-445l10 83l340 505h-285zM277 909h105l-14 -114h-106z" />
    <glyph glyph-name="zdotaccent" unicode="&#x17c;" horiz-adv-x="416" 
d="M58 504h365l-10 -72l-241 -331h197l-12 -101h-358l8 72l234 323h-197zM209 701h105l-14 -114h-106z" />
    <glyph glyph-name="Zcaron" unicode="&#x17d;" horiz-adv-x="498" 
d="M77 712h458l-10 -83l-349 -519h279l-13 -110h-445l10 83l340 505h-285zM173 932h94l52 -97l77 97h97l-132 -156h-96z" />
    <glyph glyph-name="zcaron" unicode="&#x17e;" horiz-adv-x="416" 
d="M58 504h365l-10 -72l-241 -331h197l-12 -101h-358l8 72l234 323h-197zM105 724h94l52 -97l77 97h97l-132 -156h-96z" />
    <glyph glyph-name="longs" unicode="&#x17f;" horiz-adv-x="279" 
d="M50 504h58l5 43q10 85 53.5 125t128.5 40h91l-14 -113h-63q-28 0 -44 -12.5t-21 -47.5l-66 -539h-132l48 395h-58z" />
    <glyph glyph-name="uni018F" unicode="&#x18f;" horiz-adv-x="604" 
d="M33 223q0 28 2 58.5t6 65.5l6 49h397q4 28 5.5 50.5t1.5 42.5q0 34 -6.5 55.5t-20.5 34t-36.5 17t-53.5 4.5q-35 0 -58 -6t-38.5 -19.5t-24.5 -35t-15 -52.5h-136q11 59 27.5 103.5t47 74t79.5 44.5t124 15q66 0 113.5 -11.5t78 -39.5t45 -74t14.5 -116q0 -28 -3 -60
t-7 -69q-12 -105 -30.5 -175.5t-53 -112.5t-88.5 -60t-136 -18q-63 0 -108.5 11.5t-75 39t-43 72.5t-13.5 112zM276 98q37 0 62 6t42 25t28.5 55.5t20.5 97.5h-255q-2 -21 -3 -39t-1 -33q0 -36 6 -58t18.5 -34t32.5 -16t49 -4z" />
    <glyph glyph-name="florin" unicode="&#x192;" horiz-adv-x="560" 
d="M100 410h119l15 125q11 94 58.5 135.5t135.5 41.5h100l-14 -113h-67q-37 0 -55.5 -14.5t-24.5 -60.5l-14 -114h143l-13 -109h-144l-40 -332q-11 -94 -58.5 -135.5t-135.5 -41.5h-99l14 110h66q37 0 55.5 15.5t24.5 62.5l39 321h-119z" />
    <glyph glyph-name="AEacute" unicode="&#x1fc;" horiz-adv-x="841" 
d="M294 712h570l-15 -123h-285l-21 -174h254l-14 -113h-254l-23 -189h285l-14 -113h-421l17 140h-202l-61 -140h-138zM221 254h166l41 335h-59zM558 932h129l-133 -156h-89z" />
    <glyph glyph-name="aeacute" unicode="&#x1fd;" horiz-adv-x="728" 
d="M150 -8q-66 0 -104 33t-38 94q0 46 17.5 76.5t47.5 49.5t69.5 30t84.5 19l63 12l3 20q3 18 3 31q0 26 -12 37t-43 11q-37 0 -54.5 -12.5t-23.5 -55.5h-117q6 42 19.5 74.5t37.5 55t61 34t90 11.5q47 0 77.5 -11.5t48.5 -31.5q50 43 141 43q100 0 141.5 -44.5t41.5 -137.5
q0 -18 -1 -37.5t-4 -41.5l-3 -26h-283q-3 -35 -3 -58q0 -24 4 -39.5t13 -23.5t22.5 -11t31.5 -3q38 0 56.5 13.5t27.5 51.5h118q-8 -38 -22.5 -68t-39 -51t-59.5 -32.5t-84 -11.5q-69 0 -112.5 17.5t-65.5 58.5q-37 -76 -150 -76zM280 217l-41 -6q-17 -3 -34.5 -6.5t-32 -11
t-23.5 -21t-9 -34.5q0 -23 12 -37t39 -14q37 0 57.5 19t25.5 63zM517 403q-18 0 -32 -3.5t-25 -13t-19.5 -27.5t-14.5 -48h156q1 6 1 11v10q0 43 -15.5 57t-50.5 14zM430 724h129l-133 -156h-89z" />
    <glyph glyph-name="Oslashacute" unicode="&#x1fe;" horiz-adv-x="622" 
d="M11 109l36 34q-4 17 -5.5 38.5t-1.5 47.5q0 58 9 133q13 109 33.5 179.5t55.5 111t88 56t132 15.5q82 0 135 -18.5t82 -64.5l75 71l-13 -109l-36 -34q3 -19 5 -40t2 -45q0 -29 -2.5 -61t-6.5 -69q-12 -105 -30.5 -175.5t-52.5 -113t-88 -60t-137 -17.5q-85 0 -137 19
t-80 64l-75 -71zM292 98q43 0 70.5 7.5t45.5 34.5t29 79t20 141l8 80l-285 -268q3 -24 11 -38.5t21.5 -22.5t33.5 -10.5t46 -2.5zM182 271l281 264q-8 39 -33 52t-76 13q-43 0 -70.5 -8.5t-44.5 -34t-27.5 -73t-19.5 -124.5zM405 932h129l-133 -156h-89z" />
    <glyph glyph-name="oslashacute" unicode="&#x1ff;" horiz-adv-x="501" 
d="M7 87l29 24q-6 28 -6 65q0 18 1.5 38t3.5 42q9 75 25.5 124t44.5 78.5t70 41.5t102 12q63 0 103.5 -14.5t63.5 -46.5l64 53l-11 -87l-29 -24q7 -27 7 -67q0 -36 -6 -78q-9 -73 -25 -122t-44 -79t-70 -42.5t-103 -12.5q-63 0 -103.5 14t-63.5 46l-63 -52zM232 93
q24 0 41.5 5.5t29.5 22.5t19.5 48.5t12.5 82.5l3 32l-173 -144q5 -29 20.5 -38t46.5 -9zM170 252q-2 -9 -2.5 -17t-1.5 -16l171 142q-7 23 -23 30.5t-44 7.5q-25 0 -41 -5.5t-27 -21t-18.5 -44.5t-13.5 -76zM325 724h129l-133 -156h-89z" />
    <glyph glyph-name="uni0218" unicode="&#x218;" horiz-adv-x="546" 
d="M159 219q-2 -35 1.5 -58t14.5 -37t31.5 -20t52.5 -6q51 0 81.5 23.5t30.5 82.5q0 35 -21.5 51.5t-69.5 28.5l-54 14q-79 20 -120.5 59t-41.5 119q0 118 60 183t192 65q69 0 114.5 -14t71 -43t33.5 -73.5t3 -105.5h-133q2 35 -2 57t-15 34t-30 16.5t-48 4.5q-52 0 -79 -24
t-27 -79q0 -37 22.5 -52t70.5 -27l54 -14q81 -20 121 -61t40 -116q0 -123 -64.5 -181t-196.5 -58q-66 0 -111.5 12.5t-72.5 40t-37 71.5t-5 107h134zM294 -56l-7 -58l-56 -94h-59l19 152h103z" />
    <glyph glyph-name="uni0219" unicode="&#x219;" horiz-adv-x="440" 
d="M134 153q-3 -40 12 -53.5t53 -13.5q35 0 54.5 11.5t19.5 48.5q0 21 -13 29t-46 15l-59 12q-51 11 -82.5 41.5t-31.5 90.5q0 93 53.5 135.5t148.5 42.5q92 0 134 -31.5t42 -101.5q0 -19 -3 -38h-116q1 5 1 9.5v9.5q0 29 -13.5 38t-46.5 9q-34 0 -53 -10t-19 -47
q0 -20 13.5 -30t48.5 -17l60 -12q111 -24 111 -127q0 -48 -14.5 -81t-41.5 -53t-66 -29t-88 -9q-59 0 -94.5 12.5t-54 34t-24 51t-3.5 63.5h118zM237 -56l-7 -58l-56 -94h-59l19 152h103z" />
    <glyph glyph-name="uni021A" unicode="&#x21a;" horiz-adv-x="527" 
d="M70 712h499l-15 -124h-180l-72 -588h-139l72 588h-180zM278 -56l-7 -58l-56 -94h-59l19 152h103z" />
    <glyph glyph-name="uni021B" unicode="&#x21b;" horiz-adv-x="339" 
d="M44 504h61l15 120h128l-15 -120h122l-13 -109h-122l-28 -227q-1 -6 -1.5 -11.5t-0.5 -10.5q0 -28 14 -36.5t46 -8.5h53l-12 -101h-70q-82 0 -122.5 30t-40.5 103q0 19 3 42l27 220h-58zM219 -56l-7 -58l-56 -94h-59l19 152h103z" />
    <glyph glyph-name="uni0237" unicode="&#x237;" horiz-adv-x="233" 
d="M81 504h132l-65 -529q-11 -94 -58 -138.5t-141 -44.5h-53l12 101h33q34 0 51 15.5t22 49.5z" />
    <glyph glyph-name="uni0259" unicode="&#x259;" horiz-adv-x="472" 
d="M205 -8q-50 0 -85 11.5t-57 34.5t-31.5 57.5t-9.5 80.5q0 18 1.5 36.5t3.5 40.5l3 24h281q2 15 3 27.5t1 23.5q0 47 -17 61t-54 14q-35 0 -53.5 -13t-26.5 -44h-120q8 38 23 68.5t39.5 52.5t59.5 33.5t82 11.5q52 0 89.5 -10.5t61.5 -33t35.5 -58.5t11.5 -87
q0 -16 -1 -33t-3 -36q-8 -71 -24 -120.5t-44 -81t-69.5 -46t-99.5 -14.5zM208 90q18 0 31.5 3.5t24.5 14.5t19.5 30.5t15.5 52.5h-152q-1 -7 -1 -13v-12q0 -43 15 -59.5t47 -16.5z" />
    <glyph glyph-name="circumflex" unicode="&#x2c6;" horiz-adv-x="489" 
d="M250 724h96l92 -156h-91l-52 96l-77 -96h-100z" />
    <glyph glyph-name="caron" unicode="&#x2c7;" horiz-adv-x="489" 
d="M139 724h94l52 -97l77 97h97l-132 -156h-96z" />
    <glyph glyph-name="uni02C9" unicode="&#x2c9;" horiz-adv-x="489" 
d="M153 687h279l-10 -82h-279z" />
    <glyph glyph-name="breve" unicode="&#x2d8;" horiz-adv-x="489" 
d="M284 560q-32 0 -57.5 7.5t-42.5 25.5t-24.5 47.5t-3.5 73.5h72q-1 -6 -1 -11v-10q0 -35 13.5 -48.5t45.5 -13.5q37 0 54 18t26 65h72q-7 -44 -19.5 -73.5t-31.5 -47.5t-44.5 -25.5t-58.5 -7.5z" />
    <glyph glyph-name="dotaccent" unicode="&#x2d9;" horiz-adv-x="489" 
d="M243 701h105l-14 -114h-106z" />
    <glyph glyph-name="ring" unicode="&#x2da;" horiz-adv-x="489" 
d="M284 611q33 0 43.5 18.5t10.5 49.5q0 17 -8.5 26t-33.5 9q-33 0 -43.5 -18.5t-10.5 -49.5q0 -17 8.5 -26t33.5 -9zM281 560q-96 0 -96 85q0 25 6 47t19.5 38t35 25.5t53.5 9.5q96 0 96 -85q0 -25 -6 -47t-19.5 -38t-35.5 -25.5t-53 -9.5z" />
    <glyph glyph-name="ogonek" unicode="&#x2db;" horiz-adv-x="489" 
d="M220 -216q-54 0 -79 21t-25 57q0 23 10 42t25 35.5t33.5 31t36.5 29.5h55q-38 -33 -60.5 -57t-22.5 -53q0 -35 43 -35h28l-8 -71h-36z" />
    <glyph glyph-name="tilde" unicode="&#x2dc;" horiz-adv-x="489" 
d="M153 640q5 39 26 56.5t52 17.5q19 0 33.5 -8.5t26.5 -19t23 -19t24 -8.5t16 22l4 31h68l-7 -56q-5 -39 -25.5 -56.5t-51.5 -17.5q-20 0 -34.5 8.5t-26.5 19t-23 19t-23 8.5q-13 0 -16 -22l-4 -31h-69z" />
    <glyph glyph-name="hungarumlaut" unicode="&#x2dd;" horiz-adv-x="489" 
d="M396 724h128l-133 -156h-89zM222 724h129l-134 -156h-89z" />
    <glyph glyph-name="uni0326" unicode="&#x326;" horiz-adv-x="0" 
d="M-225 -56l-7 -58l-56 -94h-59l19 152h103z" />
    <glyph glyph-name="uni037E" unicode="&#x37e;" horiz-adv-x="216" 
d="M75 472h121l-17 -135h-121zM154 135l-11 -96l-76 -167h-65l31 263h121z" />
    <glyph glyph-name="dieresistonos" unicode="&#x385;" horiz-adv-x="491" 
d="M267 724h107l-82 -156h-80zM379 701h97l-15 -114h-97zM118 701h97l-15 -114h-97z" />
    <glyph glyph-name="anoteleia" unicode="&#x387;" horiz-adv-x="208" 
d="M67 472h121l-17 -135h-121z" />
    <glyph glyph-name="uni0394" unicode="&#x394;" horiz-adv-x="587" 
d="M265 712h169l118 -712h-579zM148 110h253l-71 457z" />
    <glyph glyph-name="uni03A9" unicode="&#x3a9;" horiz-adv-x="635" 
d="M28 110h135l3 23q-29 9 -50.5 24t-36 37.5t-22 54.5t-7.5 75q0 39 6 90q9 82 29.5 140.5t57 96t92 55.5t134.5 18q136 0 195.5 -53.5t59.5 -171.5q0 -20 -1.5 -41t-3.5 -44q-8 -68 -21.5 -116.5t-34.5 -81.5t-51.5 -53t-72.5 -30l-4 -23h135l-13 -110h-239l27 219
q28 3 49.5 11.5t37.5 29.5t26.5 57t16.5 95q2 23 4 42t2 36q0 62 -27.5 86t-94.5 24q-43 0 -71 -9t-46 -31t-28 -58t-16 -90q-6 -50 -6 -81q0 -32 5.5 -52.5t17 -33t28 -18.5t38.5 -8l-27 -219h-239z" />
    <glyph glyph-name="uni03BC" unicode="&#x3bc;" horiz-adv-x="525" 
d="M116 -208h-122l87 712h133l-38 -311q-3 -23 -3 -40q0 -35 13.5 -47.5t45.5 -12.5q20 0 34 4.5t24 15.5t15.5 31t9.5 50l39 310h133l-44 -352q-1 -5 -1 -9.5v-8.5q0 -19 9 -26t32 -7h12l-13 -101h-48q-48 0 -77 13.5t-40 43.5q-19 -31 -50 -48t-71 -17q-36 0 -55 15z" />
    <glyph glyph-name="pi" unicode="&#x3c0;" horiz-adv-x="566" 
d="M46 504h529l-14 -109h-83l-29 -243q-1 -5 -1 -10v-9q0 -18 8.5 -25t31.5 -7h18l-11 -101h-44q-75 0 -108 22.5t-33 80.5v16.5t2 17.5l33 258h-103l-74 -395h-133l79 395h-82z" />
    <glyph glyph-name="glyph350" horiz-adv-x="604" 
d="M33 223q0 28 2 58.5t6 65.5l6 49h397q4 28 5.5 50.5t1.5 42.5q0 34 -6.5 55.5t-20.5 34t-36.5 17t-53.5 4.5q-35 0 -58 -6t-38.5 -19.5t-24.5 -35t-15 -52.5h-136q11 59 27.5 103.5t47 74t79.5 44.5t124 15q66 0 113.5 -11.5t78 -39.5t45 -74t14.5 -116q0 -28 -3 -60
t-7 -69q-12 -105 -30.5 -175.5t-53 -112.5t-88.5 -60t-136 -18q-63 0 -108.5 11.5t-75 39t-43 72.5t-13.5 112zM276 98q37 0 62 6t42 25t28.5 55.5t20.5 97.5h-255q-2 -21 -3 -39t-1 -33q0 -36 6 -58t18.5 -34t32.5 -16t49 -4z" />
    <glyph glyph-name="glyph351" horiz-adv-x="472" 
d="M205 -8q-50 0 -85 11.5t-57 34.5t-31.5 57.5t-9.5 80.5q0 18 1.5 36.5t3.5 40.5l3 24h281q2 15 3 27.5t1 23.5q0 47 -17 61t-54 14q-35 0 -53.5 -13t-26.5 -44h-120q8 38 23 68.5t39.5 52.5t59.5 33.5t82 11.5q52 0 89.5 -10.5t61.5 -33t35.5 -58.5t11.5 -87
q0 -16 -1 -33t-3 -36q-8 -71 -24 -120.5t-44 -81t-69.5 -46t-99.5 -14.5zM208 90q18 0 31.5 3.5t24.5 14.5t19.5 30.5t15.5 52.5h-152q-1 -7 -1 -13v-12q0 -43 15 -59.5t47 -16.5z" />
    <glyph glyph-name="uni0E3F" unicode="&#xe3f;" horiz-adv-x="562" 
d="M105 712h164l13 104h117l-13 -106q85 -7 125.5 -49t40.5 -115q0 -8 -0.5 -15t-1.5 -15q-8 -70 -33.5 -103.5t-62.5 -46.5q42 -20 61.5 -57.5t19.5 -84.5v-11t-1 -14q-5 -53 -20 -91t-41.5 -62t-64.5 -35t-90 -11h-17l-12 -104h-117l12 104h-166zM192 301l-24 -191h133
q39 0 62.5 20.5t29.5 75.5q1 8 1.5 15.5t0.5 12.5q0 40 -18 53.5t-52 13.5h-133zM227 588l-21 -173h115q46 0 64.5 19.5t24.5 67.5q1 7 1 13.5v11.5q0 32 -15.5 46.5t-54.5 14.5h-114z" />
    <glyph glyph-name="Wgrave" unicode="&#x1e80;" horiz-adv-x="897" 
d="M62 712h136l56 -551l203 551h106l65 -549l190 549h130l-258 -712h-156l-57 447l-169 -447h-162zM388 932h121l53 -156h-81z" />
    <glyph glyph-name="wgrave" unicode="&#x1e81;" horiz-adv-x="722" 
d="M35 504h133l42 -328l136 328h102l54 -328l124 328h123l-208 -504h-125l-50 285l-120 -285h-128zM276 724h121l53 -156h-81z" />
    <glyph glyph-name="Wacute" unicode="&#x1e82;" horiz-adv-x="897" 
d="M62 712h136l56 -551l203 551h106l65 -549l190 549h130l-258 -712h-156l-57 447l-169 -447h-162zM546 932h129l-133 -156h-89z" />
    <glyph glyph-name="wacute" unicode="&#x1e83;" horiz-adv-x="722" 
d="M35 504h133l42 -328l136 328h102l54 -328l124 328h123l-208 -504h-125l-50 285l-120 -285h-128zM434 724h129l-133 -156h-89z" />
    <glyph glyph-name="Wdieresis" unicode="&#x1e84;" horiz-adv-x="897" 
d="M62 712h136l56 -551l203 551h106l65 -549l190 549h130l-258 -712h-156l-57 447l-169 -447h-162zM568 909h105l-14 -114h-106zM384 909h105l-14 -114h-106z" />
    <glyph glyph-name="wdieresis" unicode="&#x1e85;" horiz-adv-x="722" 
d="M35 504h133l42 -328l136 328h102l54 -328l124 328h123l-208 -504h-125l-50 285l-120 -285h-128zM456 701h105l-14 -114h-106zM272 701h105l-14 -114h-106z" />
    <glyph glyph-name="uni1E8A" unicode="&#x1e8a;" horiz-adv-x="547" 
d="M207 362l-147 350h145l96 -241l155 241h144l-234 -353l152 -359h-144l-101 250l-161 -250h-143zM297 889h105l-14 -114h-106z" />
    <glyph glyph-name="uni1E8B" unicode="&#x1e8b;" horiz-adv-x="456" 
d="M154 250l-119 254h137l69 -156l108 156h133l-181 -252l119 -252h-137l-70 155l-106 -155h-133zM232 701h105l-14 -114h-106z" />
    <glyph glyph-name="Ygrave" unicode="&#x1ef2;" horiz-adv-x="559" 
d="M213 272l-152 440h141l100 -298l175 298h134l-262 -445l-31 -267h-137zM226 932h121l53 -156h-81z" />
    <glyph glyph-name="ygrave" unicode="&#x1ef3;" horiz-adv-x="470" 
d="M42 -107q34 0 55.5 13t38.5 55l12 29l-112 514h133l63 -335l145 335h123l-253 -552q-18 -39 -35.5 -69t-40 -50.5t-52.5 -30.5t-72 -10h-58l12 101h41zM155 724h121l53 -156h-81z" />
    <glyph glyph-name="uni2007" unicode="&#x2007;" horiz-adv-x="560" 
 />
    <glyph glyph-name="uni2008" unicode="&#x2008;" horiz-adv-x="216" 
 />
    <glyph glyph-name="uni200B" unicode="&#x200b;" horiz-adv-x="0" 
 />
    <glyph glyph-name="endash" unicode="&#x2013;" horiz-adv-x="557" 
d="M58 341h463l-12 -100h-463z" />
    <glyph glyph-name="emdash" unicode="&#x2014;" horiz-adv-x="858" 
d="M58 341h764l-12 -100h-764z" />
    <glyph glyph-name="uni2015" unicode="&#x2015;" horiz-adv-x="557" 
d="M58 341h463l-12 -100h-463z" />
    <glyph glyph-name="quoteleft" unicode="&#x2018;" horiz-adv-x="185" 
d="M72 559l67 153h58l-29 -240h-107z" />
    <glyph glyph-name="quoteright" unicode="&#x2019;" horiz-adv-x="179" 
d="M99 712h106l-10 -87l-67 -153h-58z" />
    <glyph glyph-name="quotesinglbase" unicode="&#x201a;" horiz-adv-x="188" 
d="M131 112l-11 -87l-67 -153h-57l28 240h107z" />
    <glyph glyph-name="quotedblleft" unicode="&#x201c;" horiz-adv-x="354" 
d="M242 559l67 153h58l-30 -240h-106zM72 559l67 153h58l-29 -240h-107z" />
    <glyph glyph-name="quotedblright" unicode="&#x201d;" horiz-adv-x="348" 
d="M269 712h106l-11 -87l-67 -153h-57zM99 712h106l-10 -87l-67 -153h-58z" />
    <glyph glyph-name="quotedblbase" unicode="&#x201e;" horiz-adv-x="358" 
d="M300 112l-10 -87l-67 -153h-58l29 240h106zM131 112l-11 -87l-67 -153h-57l28 240h107z" />
    <glyph glyph-name="dagger" unicode="&#x2020;" horiz-adv-x="466" 
d="M71 551h138l20 161h120l-20 -161h138l-12 -100h-138l-55 -451h-120l55 451h-138z" />
    <glyph glyph-name="daggerdbl" unicode="&#x2021;" horiz-adv-x="466" 
d="M71 551h138l20 161h120l-20 -161h138l-12 -100h-138l-24 -192h139l-13 -100h-138l-19 -159h-120l19 159h-138l13 100h137l24 192h-138z" />
    <glyph glyph-name="bullet" unicode="&#x2022;" horiz-adv-x="414" 
d="M111 404h230l-29 -232h-230z" />
    <glyph glyph-name="ellipsis" unicode="&#x2026;" horiz-adv-x="651" 
d="M485 135h121l-16 -135h-121zM257 135h121l-16 -135h-121zM17 135h121l-16 -135h-120z" />
    <glyph glyph-name="perthousand" unicode="&#x2030;" horiz-adv-x="1055" 
d="M186 348q-72 0 -102 30.5t-30 99.5q0 13 1 27.5t3 31.5q6 48 15.5 82.5t27.5 57t47 33t73 10.5q73 0 103 -30.5t30 -96.5q0 -13 -1 -27.5t-3 -30.5q-6 -50 -17 -85.5t-29.5 -58t-47 -33t-70.5 -10.5zM190 423q15 0 24.5 4t16 16.5t10.5 34.5t9 58q2 20 3.5 34t1.5 25
q0 26 -9.5 34t-29.5 8q-15 0 -24 -3.5t-15.5 -14t-10.5 -30.5t-8 -53q-6 -47 -6 -70q0 -26 9 -34.5t29 -8.5zM604 712h93l-542 -712h-93zM535 -8q-72 0 -102 30.5t-30 99.5q0 13 1 27.5t3 31.5q6 48 15.5 82.5t27.5 57t47 33t73 10.5q73 0 103 -30.5t30 -96.5
q0 -13 -1 -27.5t-3 -30.5q-6 -50 -17 -85.5t-29.5 -58t-47 -33t-70.5 -10.5zM539 67q15 0 24.5 4t16 16.5t10.5 34.5t9 58q2 20 3.5 34t1.5 25q0 26 -9.5 34t-29.5 8q-15 0 -24 -3.5t-15.5 -14t-10.5 -30.5t-8 -53q-6 -47 -6 -70q0 -26 9 -34.5t29 -8.5zM860 -8
q-72 0 -102 30.5t-30 99.5q0 13 1 27.5t3 31.5q6 48 15.5 82.5t27.5 57t47 33t73 10.5q73 0 103 -30.5t30 -96.5q0 -13 -1 -27.5t-3 -30.5q-6 -50 -17 -85.5t-29.5 -58t-47 -33t-70.5 -10.5zM864 67q15 0 24.5 4t16 16.5t10.5 34.5t9 58q2 20 3.5 34t1.5 25q0 26 -9.5 34
t-29.5 8q-15 0 -24 -3.5t-15.5 -14t-10.5 -30.5t-8 -53q-6 -47 -6 -70q0 -26 9 -34.5t29 -8.5z" />
    <glyph glyph-name="guilsinglleft" unicode="&#x2039;" horiz-adv-x="259" 
d="M25 256l120 192h105l-108 -192l60 -192h-105z" />
    <glyph glyph-name="guilsinglright" unicode="&#x203a;" horiz-adv-x="260" 
d="M118 256l-60 192h105l72 -192l-120 -192h-105z" />
    <glyph glyph-name="fraction" unicode="&#x2044;" horiz-adv-x="67" 
d="M271 712h93l-542 -712h-93z" />
    <glyph glyph-name="uni2070" unicode="&#x2070;" 
d="M199 508q-72 0 -102 30.5t-30 99.5q0 13 1 27.5t3 31.5q6 48 15.5 82.5t27.5 57t47 33t73 10.5q73 0 103 -30.5t30 -96.5q0 -13 -1 -27.5t-3 -30.5q-6 -50 -17 -85.5t-29.5 -58t-47 -33t-70.5 -10.5zM203 583q15 0 24.5 4t16 16.5t10.5 34.5t9 58q2 20 3.5 34t1.5 25
q0 26 -9.5 34t-29.5 8q-15 0 -24 -3.5t-15.5 -14t-10.5 -30.5t-8 -53q-6 -47 -6 -70q0 -26 9 -34.5t29 -8.5z" />
    <glyph glyph-name="uni2071" unicode="&#x2071;" horiz-adv-x="175" 
d="M132 1022h100l-11 -88h-101zM113 872h100l-43 -356h-100z" />
    <glyph glyph-name="uni2074" unicode="&#x2074;" 
d="M61 643l153 229h124l-26 -217h40l-9 -76h-40l-8 -63h-96l8 63h-153zM216 655l15 119l-80 -119h65z" />
    <glyph glyph-name="uni2075" unicode="&#x2075;" 
d="M161 623v-9q0 -19 9 -25t32 -6q32 0 41 19t9 49q0 17 -8.5 24.5t-29.5 7.5q-24 0 -34 -9t-16 -27h-88l4 28l39 197h242l-10 -83h-165l-11 -51q14 7 28 11t32 4q54 0 86 -23.5t32 -77.5q0 -69 -38 -106.5t-116 -37.5q-75 0 -104 27.5t-27 87.5h93z" />
    <glyph glyph-name="uni2076" unicode="&#x2076;" 
d="M70 638q5 36 19 63t38 56l96 115h114l-110 -123q5 2 9.5 2h8.5q52 0 81.5 -24t29.5 -75v-12t-1 -12q-9 -69 -47 -94.5t-107 -25.5q-62 0 -97.5 22.5t-35.5 81.5q0 6 0.5 12.5t1.5 13.5zM170 632q-1 -5 -1 -9.5v-8.5q0 -17 7.5 -24t29.5 -7q27 0 36.5 11t12.5 38
q1 5 1 9.5v8.5q0 17 -8 24t-30 7q-27 0 -36 -11t-12 -38z" />
    <glyph glyph-name="uni2077" unicode="&#x2077;" 
d="M261 789h-171l9 83h278l-7 -63l-174 -293h-102z" />
    <glyph glyph-name="uni2078" unicode="&#x2078;" 
d="M64 602q0 31 11 54.5t43 38.5q-31 22 -31 67q0 60 39 89t108 29q70 0 100 -28t30 -68q0 -27 -12 -50t-38 -39q36 -18 36 -66q0 -68 -40 -94.5t-113 -26.5q-133 0 -133 94zM220 729q29 0 37 13t8 35q0 13 -7.5 18.5t-28.5 5.5q-29 0 -37 -13t-8 -35q0 -13 7.5 -18.5
t28.5 -5.5zM202 583q29 0 39 13.5t10 36.5q0 15 -8.5 21.5t-30.5 6.5q-29 0 -39 -13.5t-10 -36.5q0 -15 8.5 -21.5t30.5 -6.5z" />
    <glyph glyph-name="uni2079" unicode="&#x2079;" 
d="M206 639q-5 -1 -9 -1.5t-8 -0.5q-54 0 -83 24t-29 75q0 5 0.5 11.5t1.5 12.5q8 69 47 94.5t106 25.5q62 0 97.5 -22.5t35.5 -81.5q0 -5 -0.5 -11t-1.5 -13q-3 -33 -18.5 -63.5t-38.5 -57.5l-96 -115h-113zM214 702q27 0 36.5 11t13.5 37q1 6 1 11v9q0 16 -7.5 23.5
t-30.5 7.5q-26 0 -36.5 -12t-13.5 -39q-1 -5 -1 -9.5v-8.5q0 -16 8 -23t30 -7z" />
    <glyph glyph-name="uni207A" unicode="&#x207a;" 
d="M181 665h-93l7 58h94l11 86h63l-11 -86h93l-7 -58h-93l-11 -86h-63z" />
    <glyph glyph-name="uni207B" unicode="&#x207b;" 
d="M95 723h250l-7 -58h-250z" />
    <glyph glyph-name="uni207C" unicode="&#x207c;" 
d="M103 789h250l-6 -59h-250zM87 658h250l-7 -59h-250z" />
    <glyph glyph-name="uni207D" unicode="&#x207d;" horiz-adv-x="167" 
d="M70 702q9 74 19.5 119t27 70t40.5 33t60 8h22l-8 -68h-4q-16 0 -26.5 -3t-18 -19t-13.5 -50.5t-14 -97.5q-5 -45 -8 -74.5t-3 -48.5q0 -33 10 -40t31 -7h4l-8 -68h-22q-26 0 -44.5 6t-30.5 20t-17.5 38t-5.5 60q0 48 9 122z" />
    <glyph glyph-name="uni207E" unicode="&#x207e;" horiz-adv-x="167" 
d="M204 686q-9 -74 -20 -119t-27 -70t-40.5 -33t-60.5 -8h-21l8 68h4q16 0 26 3t17.5 19t14 50.5t14.5 97.5q5 45 8 74.5t3 48.5q0 33 -10 40t-31 7h-4l8 68h21q53 0 76 -26t23 -98q0 -49 -9 -122z" />
    <glyph glyph-name="uni207F" unicode="&#x207f;" horiz-adv-x="363" 
d="M113 872h95l-5 -40q11 22 30.5 35t54.5 13q54 0 78.5 -25t24.5 -75v-16.5t-2 -17.5l-28 -230h-100l26 209q1 8 1.5 15.5t0.5 13.5q0 23 -9 30.5t-30 7.5q-29 0 -39.5 -13.5t-15.5 -53.5l-25 -209h-100z" />
    <glyph glyph-name="uni2080" unicode="&#x2080;" 
d="M117 -167q-72 0 -102 30.5t-30 99.5q0 13 1 27.5t3 31.5q6 48 15.5 82.5t27.5 57t47 33t73 10.5q73 0 103 -30.5t30 -96.5q0 -13 -1 -27.5t-3 -30.5q-6 -50 -17 -85.5t-29.5 -58t-47 -33t-70.5 -10.5zM121 -92q15 0 24.5 4t16 16.5t10.5 34.5t9 58q2 20 3.5 34t1.5 25
q0 26 -9.5 34t-29.5 8q-15 0 -24 -3.5t-15.5 -14t-10.5 -30.5t-8 -53q-6 -47 -6 -70q0 -26 9 -34.5t29 -8.5z" />
    <glyph glyph-name="uni2081" unicode="&#x2081;" 
d="M121 101l-86 -23l10 84l114 35h73l-43 -356h-100z" />
    <glyph glyph-name="uni2082" unicode="&#x2082;" 
d="M-17 -112q3 26 13 45.5t24.5 34.5t32.5 26.5t38 21.5l38 19q24 12 39 22.5t15 33.5q0 31 -35 31q-24 0 -34.5 -8.5t-18.5 -40.5h-93q6 33 16 57.5t27.5 41t44 25t64.5 8.5q70 0 100 -29t30 -77q0 -49 -25.5 -77t-70.5 -50l-47 -23q-20 -10 -31.5 -17t-18.5 -16h163
l-9 -75h-268z" />
    <glyph glyph-name="uni2083" unicode="&#x2083;" 
d="M74 -38q-2 -34 8 -44t36 -10q23 0 35.5 8.5t12.5 34.5q0 14 -8.5 20.5t-33.5 6.5h-26l9 76h29q21 0 34.5 9t13.5 32q0 27 -40 27q-22 0 -34.5 -9.5t-17.5 -39.5h-94q10 66 44 99t109 33q70 0 100.5 -27.5t30.5 -70.5q0 -29 -12.5 -48t-36.5 -36q34 -19 34 -68
q0 -66 -43 -94t-112 -28q-38 0 -63.5 6.5t-41 21.5t-21.5 39.5t-4 61.5h92z" />
    <glyph glyph-name="uni2084" unicode="&#x2084;" 
d="M-21 -32l153 229h124l-26 -217h40l-9 -76h-40l-8 -63h-96l8 63h-153zM134 -20l15 119l-80 -119h65z" />
    <glyph glyph-name="uni2085" unicode="&#x2085;" 
d="M79 -52v-9q0 -19 9 -25t32 -6q32 0 41 19t9 49q0 17 -8.5 24.5t-29.5 7.5q-24 0 -34 -9t-16 -27h-88l4 28l39 197h242l-10 -83h-165l-11 -51q14 7 28 11t32 4q54 0 86 -23.5t32 -77.5q0 -69 -38 -106.5t-116 -37.5q-75 0 -104 27.5t-27 87.5h93z" />
    <glyph glyph-name="uni2086" unicode="&#x2086;" 
d="M-12 -37q5 36 19 63t38 56l96 115h114l-110 -123q5 2 9.5 2h8.5q52 0 81.5 -24t29.5 -75v-12t-1 -12q-9 -69 -47 -94.5t-107 -25.5q-62 0 -97.5 22.5t-35.5 81.5q0 6 0.5 12.5t1.5 13.5zM88 -43q-1 -5 -1 -9.5v-8.5q0 -17 7.5 -24t29.5 -7q27 0 36.5 11t12.5 38
q1 5 1 9.5v8.5q0 17 -8 24t-30 7q-27 0 -36 -11t-12 -38z" />
    <glyph glyph-name="uni2087" unicode="&#x2087;" 
d="M179 114h-171l9 83h278l-7 -63l-174 -293h-102z" />
    <glyph glyph-name="uni2088" unicode="&#x2088;" 
d="M-18 -73q0 31 11 54.5t43 38.5q-31 22 -31 67q0 60 39 89t108 29q70 0 100 -28t30 -68q0 -27 -12 -50t-38 -39q36 -18 36 -66q0 -68 -40 -94.5t-113 -26.5q-133 0 -133 94zM138 54q29 0 37 13t8 35q0 13 -7.5 18.5t-28.5 5.5q-29 0 -37 -13t-8 -35q0 -13 7.5 -18.5
t28.5 -5.5zM120 -92q29 0 39 13.5t10 36.5q0 15 -8.5 21.5t-30.5 6.5q-29 0 -39 -13.5t-10 -36.5q0 -15 8.5 -21.5t30.5 -6.5z" />
    <glyph glyph-name="uni2089" unicode="&#x2089;" 
d="M124 -36q-5 -1 -9 -1.5t-8 -0.5q-54 0 -83 24t-29 75q0 5 0.5 11.5t1.5 12.5q8 69 47 94.5t106 25.5q62 0 97.5 -22.5t35.5 -81.5q0 -5 -0.5 -11t-1.5 -13q-3 -33 -18.5 -63.5t-38.5 -57.5l-96 -115h-113zM132 27q27 0 36.5 11t13.5 37q1 6 1 11v9q0 16 -7.5 23.5
t-30.5 7.5q-26 0 -36.5 -12t-13.5 -39q-1 -5 -1 -9.5v-8.5q0 -16 8 -23t30 -7z" />
    <glyph glyph-name="uni208A" unicode="&#x208a;" 
d="M99 -10h-93l7 58h94l11 86h63l-11 -86h93l-7 -58h-93l-11 -86h-63z" />
    <glyph glyph-name="uni208B" unicode="&#x208b;" 
d="M13 48h250l-7 -58h-250z" />
    <glyph glyph-name="uni208C" unicode="&#x208c;" 
d="M21 114h250l-6 -59h-250zM5 -17h250l-7 -59h-250z" />
    <glyph glyph-name="uni208D" unicode="&#x208d;" horiz-adv-x="167" 
d="M-12 27q9 74 19.5 119t27 70t40.5 33t60 8h22l-8 -68h-4q-16 0 -26.5 -3t-18 -19t-13.5 -50.5t-14 -97.5q-5 -45 -8 -74.5t-3 -48.5q0 -33 10 -40t31 -7h4l-8 -68h-22q-26 0 -44.5 6t-30.5 20t-17.5 38t-5.5 60q0 48 9 122z" />
    <glyph glyph-name="uni208E" unicode="&#x208e;" horiz-adv-x="167" 
d="M122 11q-9 -74 -20 -119t-27 -70t-40.5 -33t-60.5 -8h-21l8 68h4q16 0 26 3t17.5 19t14 50.5t14.5 97.5q5 45 8 74.5t3 48.5q0 33 -10 40t-31 7h-4l8 68h21q53 0 76 -26t23 -98q0 -49 -9 -122z" />
    <glyph glyph-name="uni2090" unicode="&#x2090;" horiz-adv-x="337" 
d="M76 -167q-45 0 -70.5 22t-25.5 64q0 36 12.5 59t33.5 37t49 21.5t60 13.5l45 9q1 8 1.5 15t0.5 13q0 38 -35 38q-25 0 -37 -10t-16 -39h-88q5 30 14.5 53.5t27 40.5t44 26t64.5 9t62.5 -8.5t39 -23t20 -33.5t5.5 -40q0 -7 -0.5 -13.5t-1.5 -13.5l-28 -232h-95l5 39
q-11 -21 -31.5 -34t-55.5 -13zM145 -11q-12 -2 -24 -4.5t-21.5 -8t-15.5 -14.5t-6 -24q0 -34 34 -34q23 0 37 12.5t18 41.5l5 35z" />
    <glyph glyph-name="uni2091" unicode="&#x2091;" horiz-adv-x="342" 
d="M137 -167q-75 0 -109.5 30t-34.5 102q0 23 3 52q6 51 17.5 86.5t31.5 58t49 33t71 10.5q73 0 103 -31.5t30 -97.5q0 -14 -1 -28t-3 -31l-2 -19h-199q-2 -13 -2 -23.5v-18.5q0 -32 11 -41t35 -9q26 0 39 9t19 35h88q-5 -27 -15 -48.5t-27.5 -36.5t-42.5 -23.5t-61 -8.5z
M163 124q-23 0 -37.5 -11t-23.5 -51h104q2 38 -7.5 50t-35.5 12z" />
    <glyph glyph-name="uni2092" unicode="&#x2092;" horiz-adv-x="359" 
d="M135 -167q-76 0 -109 29.5t-33 101.5q0 24 3 56q6 54 17.5 89.5t31 56.5t49.5 30t74 9q76 0 110 -29t34 -102q0 -12 -1 -25.5t-3 -28.5q-7 -53 -18 -88.5t-31 -57.5t-50 -31.5t-74 -9.5zM138 -92q17 0 28 4t18.5 16t12.5 34t10 58q2 16 3 28t1 22q0 32 -11 41t-36 9
q-16 0 -26.5 -3.5t-18 -14t-12.5 -30.5t-9 -52q-6 -39 -6 -60q0 -32 11 -42t35 -10z" />
    <glyph glyph-name="uni2093" unicode="&#x2093;" horiz-adv-x="336" 
d="M87 19l-89 178h104l49 -102l74 102h103l-135 -176l92 -180h-107l-49 104l-76 -104h-102z" />
    <glyph glyph-name="uni2095" unicode="&#x2095;" horiz-adv-x="364" 
d="M50 347h100l-23 -180q14 18 31.5 28t47.5 10q56 0 80 -25t24 -71q0 -6 -0.5 -13t-1.5 -14l-29 -241h-99l25 209q1 8 1.5 15.5t0.5 13.5q0 23 -9 30.5t-30 7.5q-14 0 -23.5 -2.5t-15.5 -10t-9.5 -20.5t-6.5 -34l-25 -209h-100z" />
    <glyph glyph-name="uni2096" unicode="&#x2096;" horiz-adv-x="361" 
d="M50 347h100l-36 -288l130 138h112l-141 -145l97 -211h-105l-65 140l-43 -45l-11 -95h-100z" />
    <glyph glyph-name="uni2097" unicode="&#x2097;" horiz-adv-x="175" 
d="M50 347h100l-62 -506h-100z" />
    <glyph glyph-name="uni2098" unicode="&#x2098;" horiz-adv-x="556" 
d="M31 197h95l-5 -40q11 22 30.5 35t54.5 13q82 0 99 -53q13 24 34.5 38.5t58.5 14.5q56 0 80 -25t24 -71q0 -6 -0.5 -13t-1.5 -14l-29 -241h-100l26 209q1 8 1.5 15.5t0.5 13.5q0 23 -9 30.5t-31 7.5q-14 0 -23 -2.5t-15 -10t-9.5 -20.5t-6.5 -34l-26 -209h-99l25 209
q1 8 1.5 15.5t0.5 13.5q0 23 -9 30.5t-30 7.5q-14 0 -23.5 -2.5t-15.5 -10t-9.5 -20.5t-6.5 -34l-25 -209h-100z" />
    <glyph glyph-name="uni2099" unicode="&#x2099;" horiz-adv-x="363" 
d="M31 197h95l-5 -40q11 22 30.5 35t54.5 13q54 0 78.5 -25t24.5 -75v-16.5t-2 -17.5l-28 -230h-100l26 209q1 8 1.5 15.5t0.5 13.5q0 23 -9 30.5t-30 7.5q-29 0 -39.5 -13.5t-15.5 -53.5l-25 -209h-100z" />
    <glyph glyph-name="uni209A" unicode="&#x209a;" horiz-adv-x="371" 
d="M69 -307h-99l61 504h95l-6 -48q16 32 36.5 44t52.5 12q57 0 85.5 -27t28.5 -99q0 -26 -3 -59q-6 -53 -17 -89t-29 -58t-43.5 -31t-59.5 -9q-25 0 -47 8.5t-32 32.5zM150 -92q17 0 27.5 4t18 16t12 34t9.5 58q2 17 3 30t1 23q0 30 -10.5 38.5t-35.5 8.5q-16 0 -26.5 -3.5
t-17.5 -14t-12 -30t-9 -52.5q-2 -20 -3.5 -34.5t-1.5 -25.5q0 -32 10.5 -42t34.5 -10z" />
    <glyph glyph-name="uni209B" unicode="&#x209b;" horiz-adv-x="318" 
d="M73 -48q-1 -4 -1 -7.5v-6.5q0 -21 10 -28t33 -7t36.5 9t13.5 32q0 13 -8.5 18.5t-29.5 9.5l-43 8q-37 7 -59.5 29.5t-22.5 64.5q0 68 40 99.5t105 31.5q67 0 96.5 -24.5t29.5 -72.5q0 -7 -0.5 -13t-1.5 -14h-86q0 3 0.5 6t0.5 6q0 20 -9 27t-32 7q-20 0 -33.5 -7.5
t-13.5 -31.5q0 -14 9 -20t35 -11l42 -9q78 -17 78 -90q0 -69 -39.5 -97t-112.5 -28q-38 0 -62.5 7.5t-38.5 20.5t-19 31.5t-5 39.5v10t1 10h87z" />
    <glyph glyph-name="uni209C" unicode="&#x209c;" horiz-adv-x="247" 
d="M35 115h-41l10 82h44l11 87h96l-11 -87h82l-9 -82h-83l-19 -155q-1 -5 -1 -12q0 -19 9.5 -25.5t30.5 -6.5h37l-9 -75h-50q-60 0 -88.5 21t-28.5 74q0 8 0.5 15.5t1.5 16.5z" />
    <glyph glyph-name="colonmonetary" unicode="&#x20a1;" horiz-adv-x="525" 
d="M137 25q-54 31 -77.5 88t-23.5 144q0 25 1.5 52t5.5 57q11 89 33 154.5t59 109t91 66t131 26.5l30 94h52l-29 -92q12 -1 25 -2t26 -3l31 97h52l-34 -108q11 -3 22 -7t20 -9l-15 -125q-34 14 -64 22l-155 -491h10q35 0 71 7t84 26l-13 -111q-36 -17 -77.5 -24.5
t-78.5 -7.5h-15.5t-14.5 1l-29 -93h-52l30 98q-14 2 -26 4.5t-24 6.5l-34 -109h-52zM221 124q20 -15 47 -21l155 495q-8 1 -16.5 1.5t-16.5 0.5h-9.5t-9.5 -1zM176 259q0 -50 10 -81l130 412q-27 -9 -48.5 -26t-38 -45.5t-28 -69t-18.5 -96.5q-3 -27 -5 -50.5t-2 -43.5z" />
    <glyph glyph-name="uni20A2" unicode="&#x20a2;" horiz-adv-x="543" 
d="M314 -12q-74 0 -127 16t-86.5 49t-49 84t-15.5 120q0 25 1.5 52t5.5 57q12 95 36 162.5t65 111t103 64t149 20.5q18 0 38.5 -2t41.5 -5.5t40.5 -9.5t35.5 -15l-15 -125q-44 19 -78 26t-69 7q-44 0 -78.5 -11t-60 -39t-42.5 -76t-26 -121q-3 -27 -5 -50.5t-2 -43.5
q0 -69 19 -104t57 -48l19 152q6 46 18.5 78.5t34.5 53.5t55.5 30.5t80.5 9.5h54l-13 -106h-36q-32 0 -47.5 -14t-19.5 -46l-20 -164q23 4 48 11t57 19l-13 -111q-36 -17 -77.5 -24.5t-78.5 -7.5z" />
    <glyph glyph-name="uni20A5" unicode="&#x20a5;" horiz-adv-x="768" 
d="M318 295l14 110q3 24 3 41q0 34 -13.5 46t-45.5 12q-21 0 -35.5 -4.5t-24 -15.5t-15 -30t-9.5 -49l-36 -298h-132l62 504h126l-7 -55q15 30 44 46.5t76 16.5q109 0 136 -77l99 170h48l-57 -98q23 5 47 5q75 0 110.5 -35.5t35.5 -107.5q0 -20 -3 -44l-39 -325h-133l36 298
q3 22 3 40q0 35 -14 47t-46 12q-21 0 -35 -4.5t-23.5 -15.5t-15 -30t-9.5 -49l-36 -298h-133l10 83l-110 -190h-48z" />
    <glyph glyph-name="uni20A6" unicode="&#x20a6;" horiz-adv-x="672" 
d="M37 425h59l35 287h154l95 -287h94l36 287h127l-35 -287h58l-6 -48h-58l-5 -42h58l-6 -48h-58l-35 -287h-154l-96 287h-94l-35 -287h-127l35 287h-59l6 48h59l5 42h-59zM212 335h72l-14 42h-53zM410 335h53l5 42h-72zM231 493l-8 -68h31zM448 220l9 67h-31z" />
    <glyph glyph-name="uni20A9" unicode="&#x20a9;" horiz-adv-x="844" 
d="M43 438h58l-19 274h140l14 -274h95l90 274h107l23 -274h98l82 274h135l-87 -274h58l-5 -47h-68l-18 -56h79l-6 -48h-89l-91 -287h-157l-25 287h-67l-94 -287h-163l-21 287h-88l6 48h79l-4 56h-68zM560 335h58l17 56h-80zM241 335h56l19 56h-78zM406 335h47l-10 113z
M564 287l9 -101l30 101h-39zM244 287l5 -99l32 99h-37z" />
    <glyph glyph-name="uni20AA" unicode="&#x20aa;" horiz-adv-x="722" 
d="M249 552h118l-44 -360q-1 -5 -1 -9v-9q0 -35 19.5 -50.5t61.5 -15.5h132l74 604h119l-88 -712h-248q-100 0 -145 40.5t-45 113.5v17t2 19zM99 712h248q99 0 144 -40.5t45 -113.5v-17.5t-2 -18.5l-45 -362h-118l45 360q1 5 1 9v9q0 35 -19.5 50.5t-61.5 15.5h-133
l-74 -604h-118z" />
    <glyph glyph-name="dong" unicode="&#x20ab;" horiz-adv-x="524" 
d="M270 645h109l9 67h133l-9 -67h49l-9 -67h-48l-55 -441h-126l5 40q-22 -28 -54 -38.5t-70 -10.5q-83 0 -123 32.5t-40 113.5q0 14 1 28t3 30q7 57 22 94.5t40.5 60t61 32t82.5 9.5q35 0 64 -9.5t44 -35.5l12 95h-109zM30 69h412l-9 -69h-412zM248 229q24 0 39.5 4t26 14.5
t16.5 29.5t10 49q2 9 2 17.5v15.5q0 35 -16 45.5t-55 10.5q-24 0 -40 -3.5t-26.5 -13.5t-16.5 -27t-9 -45q-3 -23 -3 -36q0 -36 16.5 -48.5t55.5 -12.5z" />
    <glyph glyph-name="Euro" unicode="&#x20ac;" horiz-adv-x="560" 
d="M44 475h62q15 73 36 121t51.5 76.5t72.5 40t98 11.5q58 0 97 -13.5t62 -39.5t32.5 -65.5t9.5 -91.5q0 -13 -0.5 -26t-1.5 -27h-130q1 12 1.5 22.5t0.5 20.5q0 55 -18 75.5t-60 20.5q-24 0 -42 -4t-31.5 -17t-23.5 -38t-18 -66h132l-12 -94h-135l-7 -52h136l-12 -94h-133
v-31q0 -35 5 -55.5t15.5 -31.5t26.5 -14.5t38 -3.5q24 0 41.5 5.5t30.5 21t22 42.5t16 70h129q-10 -60 -25 -107t-42.5 -78.5t-70.5 -48t-108 -16.5q-54 0 -93.5 11t-65.5 37.5t-39 71.5t-13 113v14h-63l11 94h58l6 52h-58z" />
    <glyph glyph-name="uni20AD" unicode="&#x20ad;" horiz-adv-x="621" 
d="M35 407h72l37 305h137l-38 -305h51l229 305h150l-229 -305h158l-13 -102h-151l145 -305h-147l-148 305h-58l-37 -305h-136l37 305h-71z" />
    <glyph glyph-name="uni20AE" unicode="&#x20ae;" horiz-adv-x="560" 
d="M92 712h488l-16 -124h-175l-15 -128l138 41l-12 -96l-138 -41l-6 -52l138 41l-12 -96l-138 -41l-27 -216h-138l21 174l-138 -40l12 96l138 40l7 52l-139 -40l12 96l139 40l21 170h-176z" />
    <glyph glyph-name="uni20B2" unicode="&#x20b2;" horiz-adv-x="594" 
d="M317 392h259l-14 -119q-9 -69 -24 -120.5t-42.5 -86t-70.5 -53.5t-106 -23l-11 -94h-116l11 97q-47 6 -80 22t-54 44.5t-31 70t-10 97.5q0 29 2.5 62t7.5 71q12 100 30 167t47 109t73 61.5t108 24.5l11 94h117l-12 -96q53 -6 87.5 -24t54 -47.5t25.5 -69.5t3 -91h-132
q2 34 -3 55.5t-18 34t-34.5 17.5t-52.5 5q-43 0 -70 -8.5t-44 -34t-27.5 -73t-19.5 -124.5q-6 -51 -10 -89t-4 -65q0 -35 6.5 -56.5t20 -33t35 -15t52.5 -3.5q36 0 61 6.5t41.5 24t26 49t15.5 81.5l2 17h-124z" />
    <glyph glyph-name="uni20B3" unicode="&#x20b3;" horiz-adv-x="633" 
d="M40 387h112l133 325h169l54 -325h116l-11 -90h-90l10 -61h73l-11 -90h-47l25 -146h-135l-23 146h-232l-58 -146h-132l60 146h-42l11 90h68l25 61h-86zM219 236h183l-10 61h-148zM280 387h99l-28 179z" />
    <glyph glyph-name="uni20B4" unicode="&#x20b4;" horiz-adv-x="560" 
d="M51 477h318q17 29 17 69q0 29 -13.5 41.5t-44.5 12.5q-18 0 -31 -3.5t-23 -12t-17.5 -23t-13.5 -37.5h-133q10 51 26.5 89t43.5 62.5t66 36.5t96 12q100 0 143 -40.5t43 -112.5q0 -27 -5 -50t-14 -44h55l-12 -96h-513zM33 329h513l-12 -96h-322q-11 -15 -15.5 -35
t-4.5 -43q0 -31 16 -44t53 -13q21 0 35.5 4.5t24.5 15t17.5 27t13.5 41.5h135q-12 -54 -29.5 -91.5t-45 -61t-66 -34.5t-92.5 -11q-107 0 -153 40t-46 112q0 26 5 48.5t14 44.5h-53z" />
    <glyph glyph-name="uni20B5" unicode="&#x20b5;" horiz-adv-x="578" 
d="M198 -7q-46 7 -78.5 23.5t-52.5 45t-29.5 70t-9.5 97.5q0 29 2.5 62t7.5 71q12 99 29.5 166t46.5 108.5t72 61t106 24.5l11 94h116l-12 -95q48 -6 80.5 -21t52 -40.5t27.5 -62t8 -83.5q0 -33 -3 -70h-133q3 31 3 55q0 29 -5 48.5t-16.5 31t-31 16.5t-47.5 5
q-43 0 -70 -8.5t-44 -34t-27.5 -73t-19.5 -124.5q-6 -51 -10 -89t-4 -65q0 -35 6.5 -56.5t20 -33t35 -15t52.5 -3.5q34 0 56.5 7.5t37.5 26t24.5 49.5t17.5 78h132q-11 -67 -26.5 -116t-42 -82t-66.5 -50.5t-99 -21.5l-11 -93h-117z" />
    <glyph glyph-name="uni20B8" unicode="&#x20b8;" horiz-adv-x="560" 
d="M73 564h488l-15 -124h-175l-54 -440h-138l54 440h-175zM92 712h488l-13 -96h-487z" />
    <glyph glyph-name="uni20B9" unicode="&#x20b9;" horiz-adv-x="569" 
d="M37 309l7 54h152q21 0 37 2t28 8.5t20 19t14 34.5h-245l12 97h245q-2 40 -22.5 52t-65.5 12h-149l16 124h505l-12 -98h-149q9 -15 14 -35t5 -55h119l-12 -97h-118q-10 -47 -27.5 -77.5t-43 -49.5t-59.5 -27.5t-76 -10.5l184 -262h-160z" />
    <glyph glyph-name="uni20BA" unicode="&#x20ba;" horiz-adv-x="601" 
d="M52 515l94 31l21 166h137l-15 -119l158 52l-11 -90l-158 -52l-8 -65l158 52l-11 -89l-158 -52l-30 -239h5q52 0 88 9.5t60 36.5t39 75.5t25 125.5h131q-12 -100 -35.5 -168.5t-65 -110.5t-105 -60t-155.5 -18h-137l37 302l-94 -31l11 90l94 31l8 65l-94 -31z" />
    <glyph glyph-name="uni20BC" unicode="&#x20bc;" horiz-adv-x="736" 
d="M42 266q10 88 33.5 146.5t60 95t87 53.5t116.5 21l16 130h130l-16 -131q53 -5 94.5 -19.5t70.5 -42.5t44 -71.5t15 -105.5q0 -17 -1.5 -36t-3.5 -40l-33 -266h-139l33 268q2 17 3 32t1 29q0 67 -25.5 94t-74.5 33l-44 -360h-130l44 360q-30 -4 -53.5 -14.5t-41 -31.5
t-29.5 -55.5t-18 -86.5l-33 -268h-139z" />
    <glyph glyph-name="uni20BD" unicode="&#x20bd;" horiz-adv-x="560" 
d="M50 363h75l43 349h200q100 0 147 -39t47 -133q0 -25 -3 -53q-7 -67 -24 -111.5t-46 -71t-71 -37.5t-98 -11h-72l-6 -52h159l-12 -98h-159l-13 -106h-136l13 106h-75l12 98h75l6 52h-74zM289 588l-27 -225h49q27 0 45.5 4.5t30.5 17t18.5 35.5t11.5 60q3 24 3 42
q0 41 -18.5 53.5t-62.5 12.5h-50z" />
    <glyph glyph-name="uni20BE" unicode="&#x20be;" horiz-adv-x="721" 
d="M59 363q12 89 31 152t49 104.5t72 65t98 32.5l12 99h84l-11 -92h28.5t15.5 -1l11 93h81l-13 -101q85 -17 126 -73t41 -169q0 -34 -3 -73h-139q3 33 3 60q0 52 -10.5 80t-33.5 42l-22 -182h-80l24 200q-23 0 -31 -0.5t-13 -0.5l-24 -199h-85l22 181q-36 -20 -58 -71.5
t-34 -154.5q-2 -16 -3 -30.5t-1 -28.5q0 -62 18.5 -98.5t49.5 -56t71.5 -25.5t84.5 -6h251l-14 -110h-666l13 110h111q-30 29 -46 71.5t-16 105.5q0 35 6 76z" />
    <glyph glyph-name="uni2113" unicode="&#x2113;" horiz-adv-x="396" 
d="M88 539q5 38 19 71t37.5 57.5t57 38.5t78.5 14q69 0 104.5 -30.5t35.5 -96.5q0 -57 -22 -104.5t-56.5 -86.5t-76.5 -71t-82 -58l-12 -98q-1 -5 -1 -13q0 -56 60 -56q52 0 101 34l-13 -111q-24 -17 -56.5 -27t-67.5 -10q-82 0 -122.5 46t-29.5 130zM199 401q48 41 73 77
t25 84q0 40 -34 40q-39 0 -46 -55z" />
    <glyph glyph-name="uni2116" unicode="&#x2116;" horiz-adv-x="989" 
d="M124 712h141l180 -473l58 473h128l-87 -712h-141l-181 473l-57 -473h-128zM828 348q-76 0 -109 29.5t-33 101.5q0 24 3 56q6 54 17.5 89.5t31 56.5t49.5 30t74 9q76 0 110 -29t34 -102q0 -12 -1 -25.5t-3 -28.5q-7 -53 -18 -88.5t-31 -57.5t-50 -31.5t-74 -9.5zM831 423
q17 0 28 4t18.5 16t12.5 34t10 58q2 16 3 28t1 22q0 32 -11 41t-36 9q-16 0 -26.5 -3.5t-18 -14t-12.5 -30.5t-9 -52q-6 -39 -6 -60q0 -32 11 -42t35 -10z" />
    <glyph glyph-name="trademark" unicode="&#x2122;" horiz-adv-x="569" 
d="M294 712h93l39 -154l36 154h99v-273h-73v154l-39 -154h-52l-39 154v-154h-64v273zM61 712h195v-66h-59v-207h-76v207h-60v66z" />
    <glyph glyph-name="Omega" unicode="&#x2126;" horiz-adv-x="640" 
d="M31 110h135l3 23q-29 9 -50.5 24t-36 37.5t-22 54.5t-7.5 75q0 39 6 90q9 82 29.5 140.5t57 96t92 55.5t134.5 18q136 0 195.5 -53.5t59.5 -171.5q0 -20 -1.5 -41t-3.5 -44q-8 -68 -21.5 -116.5t-34.5 -81.5t-51.5 -53t-72.5 -30l-4 -23h135l-13 -110h-239l27 219
q28 3 49.5 11.5t37.5 29.5t26.5 57t16.5 95q2 23 4 42t2 36q0 62 -27.5 86t-94.5 24q-43 0 -71 -9t-46 -31t-28 -58t-16 -90q-6 -50 -6 -81q0 -32 5.5 -52.5t17 -33t28 -18.5t38.5 -8l-27 -219h-239z" />
    <glyph glyph-name="estimated" unicode="&#x212e;" horiz-adv-x="876" 
d="M188 238q0 -45 25.5 -77t63.5 -52t82.5 -29t82.5 -9q101 0 181.5 36t122.5 110h103q-30 -63 -74 -106.5t-97 -70.5t-113.5 -39.5t-122.5 -12.5q-87 0 -163 29t-132.5 79t-88.5 116.5t-32 141.5t32 141.5t88.5 116.5t132.5 79t163 29q90 0 166.5 -29t132 -78.5t86.5 -116
t31 -142.5v-29h-670v-87zM687 396v83q0 46 -23 77.5t-59 51t-79.5 28.5t-83.5 9q-37 0 -81.5 -7.5t-82.5 -26.5t-64 -51t-26 -81v-83h499z" />
    <glyph glyph-name="onethird" unicode="&#x2153;" horiz-adv-x="716" 
d="M165 616l-86 -23l10 84l114 35h73l-43 -356h-100zM565 712h93l-542 -712h-93zM466 121q-2 -34 8 -44t36 -10q23 0 35.5 8.5t12.5 34.5q0 14 -8.5 20.5t-33.5 6.5h-26l9 76h29q21 0 34.5 9t13.5 32q0 27 -40 27q-22 0 -34.5 -9.5t-17.5 -39.5h-94q10 66 44 99t109 33
q70 0 100.5 -27.5t30.5 -70.5q0 -29 -12.5 -48t-36.5 -36q34 -19 34 -68q0 -66 -43 -94t-112 -28q-38 0 -63.5 6.5t-41 21.5t-21.5 39.5t-4 61.5h92z" />
    <glyph glyph-name="twothirds" unicode="&#x2154;" horiz-adv-x="716" 
d="M44 403q3 26 13 45.5t24.5 34.5t32.5 26.5t38 21.5l38 19q24 12 39 22.5t15 33.5q0 31 -35 31q-24 0 -34.5 -8.5t-18.5 -40.5h-93q6 33 16 57.5t27.5 41t44 25t64.5 8.5q70 0 100 -29t30 -77q0 -49 -25.5 -77t-70.5 -50l-47 -23q-20 -10 -31.5 -17t-18.5 -16h163l-9 -75
h-268zM607 712h93l-542 -712h-93zM484 121q-2 -34 8 -44t36 -10q23 0 35.5 8.5t12.5 34.5q0 14 -8.5 20.5t-33.5 6.5h-26l9 76h29q21 0 34.5 9t13.5 32q0 27 -40 27q-22 0 -34.5 -9.5t-17.5 -39.5h-94q10 66 44 99t109 33q70 0 100.5 -27.5t30.5 -70.5q0 -29 -12.5 -48
t-36.5 -36q34 -19 34 -68q0 -66 -43 -94t-112 -28q-38 0 -63.5 6.5t-41 21.5t-21.5 39.5t-4 61.5h92z" />
    <glyph glyph-name="uni2155" unicode="&#x2155;" horiz-adv-x="716" 
d="M166 616l-86 -23l10 84l114 35h73l-43 -356h-100zM558 712h93l-542 -712h-93zM471 107v-9q0 -19 9 -25t32 -6q32 0 41 19t9 49q0 17 -8.5 24.5t-29.5 7.5q-24 0 -34 -9t-16 -27h-88l4 28l39 197h242l-10 -83h-165l-11 -51q14 7 28 11t32 4q54 0 86 -23.5t32 -77.5
q0 -69 -38 -106.5t-116 -37.5q-75 0 -104 27.5t-27 87.5h93z" />
    <glyph glyph-name="uni2156" unicode="&#x2156;" horiz-adv-x="716" 
d="M45 403q3 26 13 45.5t24.5 34.5t32.5 26.5t38 21.5l38 19q24 12 39 22.5t15 33.5q0 31 -35 31q-24 0 -34.5 -8.5t-18.5 -40.5h-93q6 33 16 57.5t27.5 41t44 25t64.5 8.5q70 0 100 -29t30 -77q0 -49 -25.5 -77t-70.5 -50l-47 -23q-20 -10 -31.5 -17t-18.5 -16h163l-9 -75
h-268zM602 712h93l-542 -712h-93zM489 107v-9q0 -19 9 -25t32 -6q32 0 41 19t9 49q0 17 -8.5 24.5t-29.5 7.5q-24 0 -34 -9t-16 -27h-88l4 28l39 197h242l-10 -83h-165l-11 -51q14 7 28 11t32 4q54 0 86 -23.5t32 -77.5q0 -69 -38 -106.5t-116 -37.5q-75 0 -104 27.5
t-27 87.5h93z" />
    <glyph glyph-name="uni2157" unicode="&#x2157;" horiz-adv-x="716" 
d="M139 477q-2 -34 8 -44t36 -10q23 0 35.5 8.5t12.5 34.5q0 14 -8.5 20.5t-33.5 6.5h-26l9 76h29q21 0 34.5 9t13.5 32q0 27 -40 27q-22 0 -34.5 -9.5t-17.5 -39.5h-94q10 66 44 99t109 33q70 0 100.5 -27.5t30.5 -70.5q0 -29 -12.5 -48t-36.5 -36q34 -19 34 -68
q0 -66 -43 -94t-112 -28q-38 0 -63.5 6.5t-41 21.5t-21.5 39.5t-4 61.5h92zM590 712h93l-542 -712h-93zM491 107v-9q0 -19 9 -25t32 -6q32 0 41 19t9 49q0 17 -8.5 24.5t-29.5 7.5q-24 0 -34 -9t-16 -27h-88l4 28l39 197h242l-10 -83h-165l-11 -51q14 7 28 11t32 4
q54 0 86 -23.5t32 -77.5q0 -69 -38 -106.5t-116 -37.5q-75 0 -104 27.5t-27 87.5h93z" />
    <glyph glyph-name="uni2158" unicode="&#x2158;" horiz-adv-x="716" 
d="M43 483l153 229h124l-26 -217h40l-9 -76h-40l-8 -63h-96l8 63h-153zM198 495l15 119l-80 -119h65zM587 712h93l-542 -712h-93zM490 107v-9q0 -19 9 -25t32 -6q32 0 41 19t9 49q0 17 -8.5 24.5t-29.5 7.5q-24 0 -34 -9t-16 -27h-88l4 28l39 197h242l-10 -83h-165l-11 -51
q14 7 28 11t32 4q54 0 86 -23.5t32 -77.5q0 -69 -38 -106.5t-116 -37.5q-75 0 -104 27.5t-27 87.5h93z" />
    <glyph glyph-name="uni2159" unicode="&#x2159;" horiz-adv-x="716" 
d="M164 616l-86 -23l10 84l114 35h73l-43 -356h-100zM584 712h93l-542 -712h-93zM378 122q5 36 19 63t38 56l96 115h114l-110 -123q5 2 9.5 2h8.5q52 0 81.5 -24t29.5 -75v-12t-1 -12q-9 -69 -47 -94.5t-107 -25.5q-62 0 -97.5 22.5t-35.5 81.5q0 6 0.5 12.5t1.5 13.5z
M478 116q-1 -5 -1 -9.5v-8.5q0 -17 7.5 -24t29.5 -7q27 0 36.5 11t12.5 38q1 5 1 9.5v8.5q0 17 -8 24t-30 7q-27 0 -36 -11t-12 -38z" />
    <glyph glyph-name="uni215A" unicode="&#x215a;" horiz-adv-x="716" 
d="M139 463v-9q0 -19 9 -25t32 -6q32 0 41 19t9 49q0 17 -8.5 24.5t-29.5 7.5q-24 0 -34 -9t-16 -27h-88l4 28l39 197h242l-10 -83h-165l-11 -51q14 7 28 11t32 4q54 0 86 -23.5t32 -77.5q0 -69 -38 -106.5t-116 -37.5q-75 0 -104 27.5t-27 87.5h93zM610 712h93l-542 -712
h-93zM396 122q5 36 19 63t38 56l96 115h114l-110 -123q5 2 9.5 2h8.5q52 0 81.5 -24t29.5 -75v-12t-1 -12q-9 -69 -47 -94.5t-107 -25.5q-62 0 -97.5 22.5t-35.5 81.5q0 6 0.5 12.5t1.5 13.5zM496 116q-1 -5 -1 -9.5v-8.5q0 -17 7.5 -24t29.5 -7q27 0 36.5 11t12.5 38
q1 5 1 9.5v8.5q0 17 -8 24t-30 7q-27 0 -36 -11t-12 -38z" />
    <glyph glyph-name="oneeighth" unicode="&#x215b;" horiz-adv-x="716" 
d="M165 616l-86 -23l10 84l114 35h73l-43 -356h-100zM565 712h93l-542 -712h-93zM374 86q0 31 11 54.5t43 38.5q-31 22 -31 67q0 60 39 89t108 29q70 0 100 -28t30 -68q0 -27 -12 -50t-38 -39q36 -18 36 -66q0 -68 -40 -94.5t-113 -26.5q-133 0 -133 94zM530 213q29 0 37 13
t8 35q0 13 -7.5 18.5t-28.5 5.5q-29 0 -37 -13t-8 -35q0 -13 7.5 -18.5t28.5 -5.5zM512 67q29 0 39 13.5t10 36.5q0 15 -8.5 21.5t-30.5 6.5q-29 0 -39 -13.5t-10 -36.5q0 -15 8.5 -21.5t30.5 -6.5z" />
    <glyph glyph-name="threeeighths" unicode="&#x215c;" horiz-adv-x="716" 
d="M138 477q-2 -34 8 -44t36 -10q23 0 35.5 8.5t12.5 34.5q0 14 -8.5 20.5t-33.5 6.5h-26l9 76h29q21 0 34.5 9t13.5 32q0 27 -40 27q-22 0 -34.5 -9.5t-17.5 -39.5h-94q10 66 44 99t109 33q70 0 100.5 -27.5t30.5 -70.5q0 -29 -12.5 -48t-36.5 -36q34 -19 34 -68
q0 -66 -43 -94t-112 -28q-38 0 -63.5 6.5t-41 21.5t-21.5 39.5t-4 61.5h92zM597 712h93l-542 -712h-93zM394 86q0 31 11 54.5t43 38.5q-31 22 -31 67q0 60 39 89t108 29q70 0 100 -28t30 -68q0 -27 -12 -50t-38 -39q36 -18 36 -66q0 -68 -40 -94.5t-113 -26.5
q-133 0 -133 94zM550 213q29 0 37 13t8 35q0 13 -7.5 18.5t-28.5 5.5q-29 0 -37 -13t-8 -35q0 -13 7.5 -18.5t28.5 -5.5zM532 67q29 0 39 13.5t10 36.5q0 15 -8.5 21.5t-30.5 6.5q-29 0 -39 -13.5t-10 -36.5q0 -15 8.5 -21.5t30.5 -6.5z" />
    <glyph glyph-name="fiveeighths" unicode="&#x215d;" horiz-adv-x="716" 
d="M139 463v-9q0 -19 9 -25t32 -6q32 0 41 19t9 49q0 17 -8.5 24.5t-29.5 7.5q-24 0 -34 -9t-16 -27h-88l4 28l39 197h242l-10 -83h-165l-11 -51q14 7 28 11t32 4q54 0 86 -23.5t32 -77.5q0 -69 -38 -106.5t-116 -37.5q-75 0 -104 27.5t-27 87.5h93zM594 712h93l-542 -712
h-93zM391 86q0 31 11 54.5t43 38.5q-31 22 -31 67q0 60 39 89t108 29q70 0 100 -28t30 -68q0 -27 -12 -50t-38 -39q36 -18 36 -66q0 -68 -40 -94.5t-113 -26.5q-133 0 -133 94zM547 213q29 0 37 13t8 35q0 13 -7.5 18.5t-28.5 5.5q-29 0 -37 -13t-8 -35q0 -13 7.5 -18.5
t28.5 -5.5zM529 67q29 0 39 13.5t10 36.5q0 15 -8.5 21.5t-30.5 6.5q-29 0 -39 -13.5t-10 -36.5q0 -15 8.5 -21.5t30.5 -6.5z" />
    <glyph glyph-name="seveneighths" unicode="&#x215e;" horiz-adv-x="716" 
d="M239 629h-171l9 83h278l-7 -63l-174 -293h-102zM573 712h93l-542 -712h-93zM390 86q0 31 11 54.5t43 38.5q-31 22 -31 67q0 60 39 89t108 29q70 0 100 -28t30 -68q0 -27 -12 -50t-38 -39q36 -18 36 -66q0 -68 -40 -94.5t-113 -26.5q-133 0 -133 94zM546 213q29 0 37 13
t8 35q0 13 -7.5 18.5t-28.5 5.5q-29 0 -37 -13t-8 -35q0 -13 7.5 -18.5t28.5 -5.5zM528 67q29 0 39 13.5t10 36.5q0 15 -8.5 21.5t-30.5 6.5q-29 0 -39 -13.5t-10 -36.5q0 -15 8.5 -21.5t30.5 -6.5z" />
    <glyph glyph-name="arrowleft" unicode="&#x2190;" horiz-adv-x="660" 
d="M289 96l-259 260l259 260l80 -74l-139 -135q48 2 93 3t70 1h241v-109h-241q-25 0 -70 0.5t-93 3.5l139 -135z" />
    <glyph glyph-name="arrowup" unicode="&#x2191;" horiz-adv-x="581" 
d="M39 398l259 260l260 -260l-72 -74l-137 144q2 -48 3 -94.5t1 -70.5v-249h-109v249q0 24 1 70.5t3 94.5l-137 -144z" />
    <glyph glyph-name="arrowright" unicode="&#x2192;" horiz-adv-x="660" 
d="M298 171l139 135q-48 -3 -93 -3.5t-70 -0.5h-241v109h241q25 0 70 -1t93 -3l-139 135l80 74l259 -260l-259 -260z" />
    <glyph glyph-name="arrowdown" unicode="&#x2193;" horiz-adv-x="581" 
d="M558 314l-260 -260l-259 260l72 74l137 -143q-2 48 -3 94t-1 71v248h108v-248q0 -25 -0.5 -71t-3.5 -94l138 143z" />
    <glyph glyph-name="uni2196" unicode="&#x2196;" horiz-adv-x="563" 
d="M448 583v-104h-197q36 -32 67 -62.5t48 -48.5l179 -180l-75 -77l-178 179q-17 18 -50 50.5t-65 69.5v-202h-104v375h375z" />
    <glyph glyph-name="uni2197" unicode="&#x2197;" horiz-adv-x="563" 
d="M507 583v-375h-105v202q-32 -37 -64 -69.5t-50 -50.5l-179 -179l-75 77l179 180q17 18 48 48.5t68 62.5h-198v104h376z" />
    <glyph glyph-name="uni2198" unicode="&#x2198;" horiz-adv-x="563" 
d="M131 111v104h198q-37 32 -67.5 63.5t-48.5 48.5l-179 179l75 77l179 -179q18 -17 50 -50t64 -70v203h105v-376h-376z" />
    <glyph glyph-name="uni2199" unicode="&#x2199;" horiz-adv-x="563" 
d="M73 111v376h104v-203q32 37 65 69.5t50 50.5l178 179l75 -77l-179 -179q-18 -18 -48.5 -49t-66.5 -63h197v-104h-375z" />
    <glyph glyph-name="partialdiff" unicode="&#x2202;" horiz-adv-x="516" 
d="M28 231q9 68 26.5 115t44.5 75.5t64 41t86 12.5q86 0 112 -63q2 17 3.5 32t1.5 29q0 35 -8.5 58.5t-24.5 37t-39.5 19t-53.5 5.5h-126l14 119h128q120 0 180 -52.5t60 -167.5q0 -15 -1 -31.5t-3 -33.5l-23 -193q-8 -66 -25.5 -112t-46.5 -75.5t-71 -43t-99 -13.5
q-48 0 -85.5 9.5t-64 31t-40 56.5t-13.5 87q0 13 1 27.5t3 29.5zM161 223q-2 -17 -3 -32t-1 -26q0 -44 17 -58t55 -14q26 0 44 5t29.5 19t18.5 39.5t12 66.5q2 19 3 33.5t1 27.5q0 46 -18 60t-57 14q-25 0 -42 -5t-28.5 -19.5t-18.5 -41t-12 -69.5z" />
    <glyph glyph-name="Delta" unicode="&#x2206;" horiz-adv-x="619" 
d="M281 712h169l118 -712h-579zM164 110h253l-71 457z" />
    <glyph glyph-name="product" unicode="&#x220f;" horiz-adv-x="646" 
d="M120 712h518l-87 -712h-137l73 596h-245l-73 -596h-136z" />
    <glyph glyph-name="summation" unicode="&#x2211;" horiz-adv-x="531" 
d="M7 89l268 264l-203 271l11 88h473l-17 -124h-285l160 -213l-9 -60l-209 -205h285l-13 -110h-472z" />
    <glyph glyph-name="minus" unicode="&#x2212;" horiz-adv-x="560" 
d="M66 340h448l-12 -100h-448z" />
    <glyph glyph-name="uni2215" unicode="&#x2215;" horiz-adv-x="67" 
d="M271 712h93l-542 -712h-93z" />
    <glyph glyph-name="uni2219" unicode="&#x2219;" horiz-adv-x="216" 
d="M60 355h121l-16 -134h-121z" />
    <glyph glyph-name="radical" unicode="&#x221a;" horiz-adv-x="624" 
d="M116 379l-93 -31l12 98l172 58l84 -354h4l266 562h116l-341 -712h-122z" />
    <glyph glyph-name="infinity" unicode="&#x221e;" horiz-adv-x="699" 
d="M172 160q-64 0 -100.5 29t-36.5 86q0 69 43.5 111t118.5 42q50 0 90.5 -25t74.5 -57q41 32 84 57t91 25q63 0 99.5 -33.5t36.5 -85.5q0 -75 -44.5 -112t-116.5 -37q-50 0 -89 25t-74 57q-41 -32 -85 -57t-92 -25zM178 240q29 0 58 15t59 38q-26 23 -51 39t-53 16
q-33 0 -54.5 -18t-21.5 -44q0 -23 16.5 -34.5t46.5 -11.5zM531 348q-28 0 -56.5 -15.5t-58.5 -38.5q25 -23 50 -38.5t52 -15.5q34 0 54 15.5t20 44.5q0 21 -16 34.5t-45 13.5z" />
    <glyph glyph-name="integral" unicode="&#x222b;" horiz-adv-x="353" 
d="M67 -97q45 0 63.5 21t18.5 67q0 52 -11 122.5t-24 144.5t-24 144t-11 123q0 99 50 143t147 44h66v-116h-50q-45 0 -64 -20.5t-19 -66.5q0 -47 11 -114.5t24.5 -140.5t24.5 -143t11 -122q0 -100 -50 -148.5t-147 -48.5h-73v111h57z" />
    <glyph glyph-name="approxequal" unicode="&#x2248;" horiz-adv-x="560" 
d="M82 452q7 7 18 16.5t26 18.5t34 15t43 6q37 0 63 -12.5t47.5 -27.5t44 -27.5t53.5 -12.5q24 0 44 6t35 15t26 18.5t18 16.5l-13 -101q-8 -7 -18.5 -16.5t-25.5 -18.5t-34 -15t-43 -6q-35 0 -59 12.5t-46 27.5t-45.5 27.5t-57.5 12.5q-24 0 -43 -6t-34 -15t-26.5 -18.5
t-19.5 -16.5zM55 229q7 7 18 16.5t26 18.5t34 15t43 6q37 0 63 -12.5t47.5 -27.5t44 -27.5t53.5 -12.5q24 0 44 6t35 15t26 18.5t18 16.5l-13 -101q-8 -7 -18.5 -16.5t-25.5 -18.5t-34 -15t-43 -6q-35 0 -59 12.5t-46 27.5t-45.5 27.5t-57.5 12.5q-24 0 -43 -6t-34 -15
t-26.5 -18.5t-19.5 -16.5z" />
    <glyph glyph-name="notequal" unicode="&#x2260;" horiz-adv-x="560" 
d="M81 452h258l81 128h98l-81 -128h92l-13 -101h-143l-77 -122h206l-13 -101h-257l-81 -128h-98l81 128h-93l13 101h144l77 122h-207z" />
    <glyph glyph-name="lessequal" unicode="&#x2264;" horiz-adv-x="560" 
d="M76 456l470 175l-13 -109l-339 -119l309 -119l-13 -103l-426 175zM32 101h448l-11 -101h-448z" />
    <glyph glyph-name="greaterequal" unicode="&#x2265;" horiz-adv-x="560" 
d="M109 631l426 -175l-12 -100l-470 -175l13 109l339 119l-309 119zM43 101h448l-12 -101h-448z" />
    <glyph glyph-name="filledbox" unicode="&#x25a0;" horiz-adv-x="744" 
d="M24 712h712v-712h-712v712z" />
    <glyph glyph-name="H22073" unicode="&#x25a1;" horiz-adv-x="744" 
d="M24 712h712v-712h-712v712zM624 104v504h-488v-504h488z" />
    <glyph glyph-name="uni25B6" unicode="&#x25b6;" horiz-adv-x="482" 
d="M24 512l458 -260l-458 -260v520z" />
    <glyph glyph-name="uni25B7" unicode="&#x25b7;" horiz-adv-x="482" 
d="M24 512l458 -260l-458 -260v520zM314 252l-197 105v-210z" />
    <glyph glyph-name="uni25C0" unicode="&#x25c0;" horiz-adv-x="482" 
d="M474 -8l-458 260l458 260v-520z" />
    <glyph glyph-name="uni25C1" unicode="&#x25c1;" horiz-adv-x="482" 
d="M381 147v210l-197 -105zM474 -8l-458 260l458 260v-520z" />
    <glyph glyph-name="lozenge" unicode="&#x25ca;" horiz-adv-x="662" 
d="M21 354l249 358h131l248 -358l-248 -354h-131zM337 108l169 245l-168 246h-6l-169 -245l170 -246h4z" />
    <glyph glyph-name="circle" unicode="&#x25cb;" horiz-adv-x="560" 
d="M25 250q0 56 20 104t55 83t83 55t105 20t105 -19t83 -53.5t55 -83t20 -106.5q0 -57 -20 -105t-55 -83t-83 -54.5t-105 -19.5t-105 19t-83 53.5t-55 82.5t-20 107zM134 250q0 -37 11.5 -67.5t32.5 -52t49 -33.5t61 -12t61 12.5t49 34t32.5 52t11.5 66.5q0 37 -11.5 67.5
t-32.5 52t-49 33.5t-61 12t-61 -12.5t-49 -34t-32.5 -52t-11.5 -66.5z" />
    <glyph glyph-name="H18533" unicode="&#x25cf;" horiz-adv-x="560" 
d="M25 250q0 56 20 104t55 83t83 55t105 20t105 -19t83 -53.5t55 -83t20 -106.5q0 -57 -20 -105t-55 -83t-83 -54.5t-105 -19.5t-105 19t-83 53.5t-55 82.5t-20 107z" />
    <glyph glyph-name="uni25FB" unicode="&#x25fb;" horiz-adv-x="536" 
d="M24 504h504v-504h-504v504zM424 98v309h-296v-309h296z" />
    <glyph glyph-name="uni25FC" unicode="&#x25fc;" horiz-adv-x="536" 
d="M24 504h504v-504h-504v504z" />
    <glyph glyph-name="uni2605" unicode="&#x2605;" horiz-adv-x="557" 
d="M185 196l-162 108l5 16l195 -9l53 189h16l52 -189l196 9l5 -16l-163 -108l69 -183l-14 -10l-153 121l-153 -121l-14 10z" />
    <glyph glyph-name="uniFB00" unicode="&#xfb00;" horiz-adv-x="604" 
d="M50 504h58l5 43q10 85 53.5 125t128.5 40h70l-13 -113h-43q-28 0 -44 -12.5t-21 -47.5l-5 -35h136l5 43q10 85 53 125t128 40h92l-14 -113h-63q-28 0 -44 -12.5t-21 -47.5l-5 -35h116l-14 -109h-115l-48 -395h-132l48 395h-135l-48 -395h-132l48 395h-58z" />
    <glyph glyph-name="uniFB01" unicode="&#xfb01;" horiz-adv-x="518" 
d="M352 395h-126l-48 -395h-132l48 395h-58l14 109h58l5 43q10 85 53.5 125t128.5 40h49l-14 -113h-21q-28 0 -44 -12.5t-21 -47.5l-5 -35h259l-62 -504h-132zM393 712h130l-15 -120h-130z" />
    <glyph glyph-name="uniFB02" unicode="&#xfb02;" horiz-adv-x="517" 
d="M50 504h57l4 33q11 91 57 133t137 42h218l-87 -712h-132l73 599h-58q-34 0 -52.5 -14t-23.5 -56l-3 -25h72l-13 -109h-73l-48 -395h-132l48 395h-58z" />
    <glyph glyph-name="uniFB03" unicode="&#xfb03;" horiz-adv-x="785" 
d="M94 395h-58l14 109h57l6 43q12 85 54.5 125t127.5 40h70l-13 -113h-43q-28 0 -44 -12.5t-21 -47.5l-5 -35h135l6 43q12 85 54.5 125t126.5 40h50l-14 -113h-21q-28 0 -44 -12.5t-21 -47.5l-5 -35h259l-62 -504h-133l49 395h-126l-48 -395h-132l48 395h-134l-49 -395h-132
zM660 712h130l-15 -120h-130z" />
    <glyph glyph-name="uniFB04" unicode="&#xfb04;" horiz-adv-x="784" 
d="M94 395h-58l14 109h57l6 43q12 85 54.5 125t127.5 40h70l-13 -113h-43q-28 0 -44 -12.5t-21 -47.5l-5 -35h135l4 33q11 91 57 133t137 42h218l-87 -712h-133l74 599h-58q-34 0 -53 -13.5t-24 -55.5l-3 -26h73l-14 -109h-72l-48 -395h-132l48 395h-134l-49 -395h-132z" />
    <glyph glyph-name="uniFEFF" unicode="&#xfeff;" horiz-adv-x="0" 
 />
    <glyph glyph-name="i.locl" horiz-adv-x="233" 
d="M106 712h132l-14 -120h-133zM81 504h132l-62 -504h-132z" />
    <glyph glyph-name="L_periodcentered.locl" horiz-adv-x="488" 
d="M118 712h137l-74 -602h274l-13 -110h-411zM357 418h105l-14 -114h-106z" />
    <glyph glyph-name="l_periodcentered.locl" horiz-adv-x="317" 
d="M107 712h132l-87 -712h-132zM243 418h105l-14 -114h-106z" />
    <glyph glyph-name="dollar.inferior" 
d="M80 -45q-1 -30 10.5 -38.5t35.5 -8.5q15 0 29.5 6.5t14.5 29.5q0 11 -9 17.5t-36 11.5l-29 6q-40 8 -67 29t-27 67q0 57 28 87.5t82 39.5l7 59h84l-7 -59q45 -6 65.5 -28t20.5 -70v-11.5t-1 -12.5h-95q2 28 -8 35t-34 7q-16 0 -28.5 -5.5t-12.5 -25.5q0 -14 9 -20t34 -12
l25 -6q45 -11 72 -30.5t27 -62.5q0 -57 -28.5 -86.5t-85.5 -38.5l-7 -61h-84l8 62q-52 7 -71.5 34.5t-17.5 84.5h96z" />
    <glyph glyph-name="comma.inferior" horiz-adv-x="156" 
d="M84 -68l-8 -67l-49 -115h-52l22 182h87z" />
    <glyph glyph-name="hyphen.inferior" horiz-adv-x="250" 
d="M10 48h183l-7 -58h-184z" />
    <glyph glyph-name="period.inferior" horiz-adv-x="156" 
d="M-4 -68h87l-10 -91h-87z" />
    <glyph glyph-name="b.inferior" horiz-adv-x="372" 
d="M50 347h100l-23 -184q16 24 34.5 33t47.5 9q57 0 86 -27.5t29 -99.5q0 -13 -1 -28t-3 -32q-6 -53 -17 -88.5t-29 -57t-43.5 -30.5t-59.5 -9q-14 0 -28 2.5t-25.5 9t-19.5 18.5t-11 32l-6 -54h-93zM150 -92q17 0 27.5 4t18 16t12 34t9.5 58q2 16 3 29t1 23q0 30 -10.5 39
t-35.5 9q-16 0 -26.5 -3.5t-18 -14t-12 -30.5t-8.5 -52q-2 -20 -3.5 -34.5t-1.5 -25.5q0 -32 10.5 -42t34.5 -10z" />
    <glyph glyph-name="c.inferior" horiz-adv-x="337" 
d="M132 -167q-75 0 -107.5 30t-32.5 101q0 13 1 26.5t3 29.5q6 52 17.5 87t31 57t49 31.5t71.5 9.5q71 0 99.5 -29.5t28.5 -89.5q0 -8 -0.5 -16t-1.5 -16h-90v17q0 29 -7.5 39t-33.5 10q-16 0 -26 -3t-16.5 -14t-11 -31.5t-9.5 -55.5q-6 -39 -6 -61q0 -30 10.5 -38.5
t33.5 -8.5q28 0 38.5 16t18.5 58h92q-6 -38 -17 -66t-28.5 -46.5t-43.5 -27.5t-63 -9z" />
    <glyph glyph-name="d.inferior" horiz-adv-x="370" 
d="M107 -167q-58 0 -86.5 27t-28.5 98q0 14 1 29.5t3 32.5q6 53 17.5 88.5t29.5 57t43 30.5t59 9q24 0 46.5 -8t30.5 -32l23 182h100l-62 -506h-95l5 44q-16 -30 -37 -41t-49 -11zM137 -92q16 0 27 4t18.5 16t12.5 34t10 58q2 16 3.5 29t1.5 23q0 31 -11 39.5t-36 8.5
q-16 0 -26.5 -3.5t-17.5 -14t-12 -30t-9 -52.5q-2 -20 -4 -34.5t-2 -25.5q0 -32 11 -42t34 -10z" />
    <glyph glyph-name="f.inferior" horiz-adv-x="245" 
d="M43 115h-41l9 82h41l5 30q9 63 41.5 91.5t93.5 28.5h63l-11 -85h-45q-18 0 -30 -9t-15 -34l-2 -22h80l-10 -82h-80l-33 -274h-100z" />
    <glyph glyph-name="g.inferior" horiz-adv-x="371" 
d="M79 -187q0 -4 -0.5 -7.5t-0.5 -6.5q0 -21 9 -29t35 -8q28 0 41.5 12.5t18.5 50.5l7 61q-16 -25 -35.5 -34t-45.5 -9q-58 0 -86.5 26.5t-28.5 96.5q0 13 1 27.5t3 30.5q6 52 17.5 86.5t29.5 55.5t43 30t59 9q28 0 51.5 -13t30.5 -50l6 55h93l-45 -365q-10 -78 -46 -111
t-115 -33q-42 0 -69.5 8t-43 24t-21 39.5t-3.5 53.5h95zM139 -83q16 0 27 4t18.5 15.5t12.5 32.5t9 55q2 15 3 27t1 21q0 29 -11 38.5t-35 9.5q-16 0 -27 -3.5t-18 -14t-12 -29t-9 -49.5q-2 -18 -3 -31.5t-1 -24.5q0 -32 10.5 -41.5t34.5 -9.5z" />
    <glyph glyph-name="i.inferior" horiz-adv-x="175" 
d="M50 347h100l-11 -88h-101zM31 197h100l-43 -356h-100z" />
    <glyph glyph-name="j.inferior" horiz-adv-x="175" 
d="M50 347h100l-11 -88h-101zM31 197h100l-45 -371q-8 -69 -43 -101t-104 -32h-40l10 75h25q45 0 51 45z" />
    <glyph glyph-name="q.inferior" horiz-adv-x="370" 
d="M107 -167q-58 0 -86.5 27t-28.5 98q0 14 1 29.5t3 32.5q6 53 17.5 88.5t29.5 57t43 30.5t59 9q26 0 49.5 -10.5t30.5 -42.5l6 45h95l-62 -504h-100l23 184q-16 -26 -35 -35t-45 -9zM137 -92q16 0 27 4t18.5 16t12.5 34t10 58q2 16 3.5 29t1.5 23q0 31 -11 39.5t-36 8.5
q-16 0 -26.5 -3.5t-17.5 -14t-12 -30t-9 -52.5q-2 -20 -4 -34.5t-2 -25.5q0 -32 11 -42t34 -10z" />
    <glyph glyph-name="r.inferior" horiz-adv-x="229" 
d="M13 70q8 68 38 97.5t99 29.5h66l-10 -82h-45q-23 0 -33.5 -9t-13.5 -32l-28 -233h-100z" />
    <glyph glyph-name="u.inferior" horiz-adv-x="364" 
d="M28 197h99l-27 -221q-1 -8 -1.5 -15t-0.5 -13q0 -23 9 -31.5t31 -8.5q15 0 24.5 3.5t15.5 11.5t9.5 21t5.5 33l26 220h100l-43 -356h-94l5 41q-12 -23 -31.5 -36t-54.5 -13q-55 0 -79.5 25.5t-24.5 75.5q0 8 0.5 16t1.5 17z" />
    <glyph glyph-name="v.inferior" horiz-adv-x="340" 
d="M-3 197h98l44 -232l99 232h93l-163 -356h-95z" />
    <glyph glyph-name="w.inferior" horiz-adv-x="520" 
d="M-2 197h100l29 -227l92 227h79l37 -225l83 225h92l-147 -356h-90l-37 192l-80 -192h-99z" />
    <glyph glyph-name="y.inferior" horiz-adv-x="340" 
d="M-1 -232q26 0 43 9t28 38l7 18l-80 364h98l44 -232l99 232h93l-179 -390q-13 -28 -25 -49t-28 -35.5t-37 -22t-52 -7.5h-45l10 75h24z" />
    <glyph glyph-name="z.inferior" horiz-adv-x="300" 
d="M-19 -105l157 220h-132l10 82h257l-7 -54l-162 -227h132l-9 -75h-252z" />
    <glyph glyph-name="cent.inferior" 
d="M96 -109q-45 6 -65.5 28t-20.5 68q0 8 0.5 16t1.5 16q7 63 32 92.5t77 35.5l7 58h70l-7 -59q45 -7 61 -33t13 -71h-76q0 26 -8 35t-30 9q-12 0 -20.5 -1.5t-14.5 -8.5t-10.5 -21.5t-7.5 -39.5q-2 -11 -2 -18v-13q0 -28 10 -34t28 -6q22 0 32 9t16 37h77q-8 -43 -29 -67.5
t-64 -30.5l-7 -59h-70z" />
    <glyph glyph-name="Euro.inferior" 
d="M-20 -4h29q0 6 1.5 20t2.5 19h-28l5 51h33q9 35 22 58t31 36.5t42.5 19t56.5 5.5q37 0 60.5 -8t36.5 -24t17 -41.5t2 -59.5h-75q0 5 0.5 9t0.5 8q0 27 -9.5 35t-35.5 8q-23 0 -36.5 -7t-21.5 -39h64l-6 -51h-68q-1 -5 -2.5 -19t-1.5 -20h67l-6 -49h-64q1 -32 12 -39.5
t34 -7.5q28 0 40 10t18 47h76q-5 -32 -13.5 -55t-24.5 -38.5t-40 -23t-59 -7.5q-62 0 -96 24.5t-36 89.5h-34z" />
    <glyph glyph-name="dollar.superior" 
d="M162 630q-1 -30 10.5 -38.5t35.5 -8.5q15 0 29.5 6.5t14.5 29.5q0 11 -9 17.5t-36 11.5l-29 6q-40 8 -67 29t-27 67q0 57 28 87.5t82 39.5l7 59h84l-7 -59q45 -6 65.5 -28t20.5 -70v-11.5t-1 -12.5h-95q2 28 -8 35t-34 7q-16 0 -28.5 -5.5t-12.5 -25.5q0 -14 9 -20
t34 -12l25 -6q45 -11 72 -30.5t27 -62.5q0 -57 -28.5 -86.5t-85.5 -38.5l-7 -61h-84l8 62q-52 7 -71.5 34.5t-17.5 84.5h96z" />
    <glyph glyph-name="comma.superior" horiz-adv-x="156" 
d="M166 607l-8 -67l-49 -115h-52l22 182h87z" />
    <glyph glyph-name="hyphen.superior" horiz-adv-x="250" 
d="M92 723h183l-7 -58h-184z" />
    <glyph glyph-name="period.superior" horiz-adv-x="156" 
d="M78 607h87l-10 -91h-87z" />
    <glyph glyph-name="a.superior" horiz-adv-x="337" 
d="M158 508q-45 0 -70.5 22t-25.5 64q0 36 12.5 59t33.5 37t49 21.5t60 13.5l45 9q1 8 1.5 15t0.5 13q0 38 -35 38q-25 0 -37 -10t-16 -39h-88q5 30 14.5 53.5t27 40.5t44 26t64.5 9t62.5 -8.5t39 -23t20 -33.5t5.5 -40q0 -7 -0.5 -13.5t-1.5 -13.5l-28 -232h-95l5 39
q-11 -21 -31.5 -34t-55.5 -13zM227 664q-12 -2 -24 -4.5t-21.5 -8t-15.5 -14.5t-6 -24q0 -34 34 -34q23 0 37 12.5t18 41.5l5 35z" />
    <glyph glyph-name="b.superior" horiz-adv-x="372" 
d="M132 1022h100l-23 -184q16 24 34.5 33t47.5 9q57 0 86 -27.5t29 -99.5q0 -13 -1 -28t-3 -32q-6 -53 -17 -88.5t-29 -57t-43.5 -30.5t-59.5 -9q-14 0 -28 2.5t-25.5 9t-19.5 18.5t-11 32l-6 -54h-93zM232 583q17 0 27.5 4t18 16t12 34t9.5 58q2 16 3 29t1 23
q0 30 -10.5 39t-35.5 9q-16 0 -26.5 -3.5t-18 -14t-12 -30.5t-8.5 -52q-2 -20 -3.5 -34.5t-1.5 -25.5q0 -32 10.5 -42t34.5 -10z" />
    <glyph glyph-name="c.superior" horiz-adv-x="337" 
d="M214 508q-75 0 -107.5 30t-32.5 101q0 13 1 26.5t3 29.5q6 52 17.5 87t31 57t49 31.5t71.5 9.5q71 0 99.5 -29.5t28.5 -89.5q0 -8 -0.5 -16t-1.5 -16h-90v17q0 29 -7.5 39t-33.5 10q-16 0 -26 -3t-16.5 -14t-11 -31.5t-9.5 -55.5q-6 -39 -6 -61q0 -30 10.5 -38.5
t33.5 -8.5q28 0 38.5 16t18.5 58h92q-6 -38 -17 -66t-28.5 -46.5t-43.5 -27.5t-63 -9z" />
    <glyph glyph-name="d.superior" horiz-adv-x="370" 
d="M189 508q-58 0 -86.5 27t-28.5 98q0 14 1 29.5t3 32.5q6 53 17.5 88.5t29.5 57t43 30.5t59 9q24 0 46.5 -8t30.5 -32l23 182h100l-62 -506h-95l5 44q-16 -30 -37 -41t-49 -11zM219 583q16 0 27 4t18.5 16t12.5 34t10 58q2 16 3.5 29t1.5 23q0 31 -11 39.5t-36 8.5
q-16 0 -26.5 -3.5t-17.5 -14t-12 -30t-9 -52.5q-2 -20 -4 -34.5t-2 -25.5q0 -32 11 -42t34 -10z" />
    <glyph glyph-name="e.superior" horiz-adv-x="342" 
d="M219 508q-75 0 -109.5 30t-34.5 102q0 23 3 52q6 51 17.5 86.5t31.5 58t49 33t71 10.5q73 0 103 -31.5t30 -97.5q0 -14 -1 -28t-3 -31l-2 -19h-199q-2 -13 -2 -23.5v-18.5q0 -32 11 -41t35 -9q26 0 39 9t19 35h88q-5 -27 -15 -48.5t-27.5 -36.5t-42.5 -23.5t-61 -8.5z
M245 799q-23 0 -37.5 -11t-23.5 -51h104q2 38 -7.5 50t-35.5 12z" />
    <glyph glyph-name="f.superior" horiz-adv-x="245" 
d="M125 790h-41l9 82h41l5 30q9 63 41.5 91.5t93.5 28.5h63l-11 -85h-45q-18 0 -30 -9t-15 -34l-2 -22h80l-10 -82h-80l-33 -274h-100z" />
    <glyph glyph-name="g.superior" horiz-adv-x="371" 
d="M161 488q0 -4 -0.5 -7.5t-0.5 -6.5q0 -21 9 -29t35 -8q28 0 41.5 12.5t18.5 50.5l7 61q-16 -25 -35.5 -34t-45.5 -9q-58 0 -86.5 26.5t-28.5 96.5q0 13 1 27.5t3 30.5q6 52 17.5 86.5t29.5 55.5t43 30t59 9q28 0 51.5 -13t30.5 -50l6 55h93l-45 -365q-10 -78 -46 -111
t-115 -33q-42 0 -69.5 8t-43 24t-21 39.5t-3.5 53.5h95zM221 592q16 0 27 4t18.5 15.5t12.5 32.5t9 55q2 15 3 27t1 21q0 29 -11 38.5t-35 9.5q-16 0 -27 -3.5t-18 -14t-12 -29t-9 -49.5q-2 -18 -3 -31.5t-1 -24.5q0 -32 10.5 -41.5t34.5 -9.5z" />
    <glyph glyph-name="h.superior" horiz-adv-x="364" 
d="M132 1022h100l-23 -180q14 18 31.5 28t47.5 10q56 0 80 -25t24 -71q0 -6 -0.5 -13t-1.5 -14l-29 -241h-99l25 209q1 8 1.5 15.5t0.5 13.5q0 23 -9 30.5t-30 7.5q-14 0 -23.5 -2.5t-15.5 -10t-9.5 -20.5t-6.5 -34l-25 -209h-100z" />
    <glyph glyph-name="j.superior" horiz-adv-x="175" 
d="M132 1022h100l-11 -88h-101zM113 872h100l-45 -371q-8 -69 -43 -101t-104 -32h-40l10 75h25q45 0 51 45z" />
    <glyph glyph-name="k.superior" horiz-adv-x="361" 
d="M132 1022h100l-36 -288l130 138h112l-141 -145l97 -211h-105l-65 140l-43 -45l-11 -95h-100z" />
    <glyph glyph-name="l.superior" horiz-adv-x="175" 
d="M132 1022h100l-62 -506h-100z" />
    <glyph glyph-name="m.superior" horiz-adv-x="556" 
d="M113 872h95l-5 -40q11 22 30.5 35t54.5 13q82 0 99 -53q13 24 34.5 38.5t58.5 14.5q56 0 80 -25t24 -71q0 -6 -0.5 -13t-1.5 -14l-29 -241h-100l26 209q1 8 1.5 15.5t0.5 13.5q0 23 -9 30.5t-31 7.5q-14 0 -23 -2.5t-15 -10t-9.5 -20.5t-6.5 -34l-26 -209h-99l25 209
q1 8 1.5 15.5t0.5 13.5q0 23 -9 30.5t-30 7.5q-14 0 -23.5 -2.5t-15.5 -10t-9.5 -20.5t-6.5 -34l-25 -209h-100z" />
    <glyph glyph-name="o.superior" horiz-adv-x="359" 
d="M217 508q-76 0 -109 29.5t-33 101.5q0 24 3 56q6 54 17.5 89.5t31 56.5t49.5 30t74 9q76 0 110 -29t34 -102q0 -12 -1 -25.5t-3 -28.5q-7 -53 -18 -88.5t-31 -57.5t-50 -31.5t-74 -9.5zM220 583q17 0 28 4t18.5 16t12.5 34t10 58q2 16 3 28t1 22q0 32 -11 41t-36 9
q-16 0 -26.5 -3.5t-18 -14t-12.5 -30.5t-9 -52q-6 -39 -6 -60q0 -32 11 -42t35 -10z" />
    <glyph glyph-name="p.superior" horiz-adv-x="371" 
d="M151 368h-99l61 504h95l-6 -48q16 32 36.5 44t52.5 12q57 0 85.5 -27t28.5 -99q0 -26 -3 -59q-6 -53 -17 -89t-29 -58t-43.5 -31t-59.5 -9q-25 0 -47 8.5t-32 32.5zM232 583q17 0 27.5 4t18 16t12 34t9.5 58q2 17 3 30t1 23q0 30 -10.5 38.5t-35.5 8.5q-16 0 -26.5 -3.5
t-17.5 -14t-12 -30t-9 -52.5q-2 -20 -3.5 -34.5t-1.5 -25.5q0 -32 10.5 -42t34.5 -10z" />
    <glyph glyph-name="q.superior" horiz-adv-x="370" 
d="M189 508q-58 0 -86.5 27t-28.5 98q0 14 1 29.5t3 32.5q6 53 17.5 88.5t29.5 57t43 30.5t59 9q26 0 49.5 -10.5t30.5 -42.5l6 45h95l-62 -504h-100l23 184q-16 -26 -35 -35t-45 -9zM219 583q16 0 27 4t18.5 16t12.5 34t10 58q2 16 3.5 29t1.5 23q0 31 -11 39.5t-36 8.5
q-16 0 -26.5 -3.5t-17.5 -14t-12 -30t-9 -52.5q-2 -20 -4 -34.5t-2 -25.5q0 -32 11 -42t34 -10z" />
    <glyph glyph-name="r.superior" horiz-adv-x="229" 
d="M95 745q8 68 38 97.5t99 29.5h66l-10 -82h-45q-23 0 -33.5 -9t-13.5 -32l-28 -233h-100z" />
    <glyph glyph-name="s.superior" horiz-adv-x="318" 
d="M155 627q-1 -4 -1 -7.5v-6.5q0 -21 10 -28t33 -7t36.5 9t13.5 32q0 13 -8.5 18.5t-29.5 9.5l-43 8q-37 7 -59.5 29.5t-22.5 64.5q0 68 40 99.5t105 31.5q67 0 96.5 -24.5t29.5 -72.5q0 -7 -0.5 -13t-1.5 -14h-86q0 3 0.5 6t0.5 6q0 20 -9 27t-32 7q-20 0 -33.5 -7.5
t-13.5 -31.5q0 -14 9 -20t35 -11l42 -9q78 -17 78 -90q0 -69 -39.5 -97t-112.5 -28q-38 0 -62.5 7.5t-38.5 20.5t-19 31.5t-5 39.5v10t1 10h87z" />
    <glyph glyph-name="t.superior" horiz-adv-x="247" 
d="M117 790h-41l10 82h44l11 87h96l-11 -87h82l-9 -82h-83l-19 -155q-1 -5 -1 -12q0 -19 9.5 -25.5t30.5 -6.5h37l-9 -75h-50q-60 0 -88.5 21t-28.5 74q0 8 0.5 15.5t1.5 16.5z" />
    <glyph glyph-name="u.superior" horiz-adv-x="364" 
d="M110 872h99l-27 -221q-1 -8 -1.5 -15t-0.5 -13q0 -23 9 -31.5t31 -8.5q15 0 24.5 3.5t15.5 11.5t9.5 21t5.5 33l26 220h100l-43 -356h-94l5 41q-12 -23 -31.5 -36t-54.5 -13q-55 0 -79.5 25.5t-24.5 75.5q0 8 0.5 16t1.5 17z" />
    <glyph glyph-name="v.superior" horiz-adv-x="340" 
d="M79 872h98l44 -232l99 232h93l-163 -356h-95z" />
    <glyph glyph-name="w.superior" horiz-adv-x="520" 
d="M80 872h100l29 -227l92 227h79l37 -225l83 225h92l-147 -356h-90l-37 192l-80 -192h-99z" />
    <glyph glyph-name="x.superior" horiz-adv-x="336" 
d="M169 694l-89 178h104l49 -102l74 102h103l-135 -176l92 -180h-107l-49 104l-76 -104h-102z" />
    <glyph glyph-name="y.superior" horiz-adv-x="340" 
d="M81 443q26 0 43 9t28 38l7 18l-80 364h98l44 -232l99 232h93l-179 -390q-13 -28 -25 -49t-28 -35.5t-37 -22t-52 -7.5h-45l10 75h24z" />
    <glyph glyph-name="z.superior" horiz-adv-x="300" 
d="M63 570l157 220h-132l10 82h257l-7 -54l-162 -227h132l-9 -75h-252z" />
    <glyph glyph-name="cent.superior" 
d="M178 566q-45 6 -65.5 28t-20.5 68q0 8 0.5 16t1.5 16q7 63 32 92.5t77 35.5l7 58h70l-7 -59q45 -7 61 -33t13 -71h-76q0 26 -8 35t-30 9q-12 0 -20.5 -1.5t-14.5 -8.5t-10.5 -21.5t-7.5 -39.5q-2 -11 -2 -18v-13q0 -28 10 -34t28 -6q22 0 32 9t16 37h77q-8 -43 -29 -67.5
t-64 -30.5l-7 -59h-70z" />
    <glyph glyph-name="Euro.superior" 
d="M62 671h29q0 6 1.5 20t2.5 19h-28l5 51h33q9 35 22 58t31 36.5t42.5 19t56.5 5.5q37 0 60.5 -8t36.5 -24t17 -41.5t2 -59.5h-75q0 5 0.5 9t0.5 8q0 27 -9.5 35t-35.5 8q-23 0 -36.5 -7t-21.5 -39h64l-6 -51h-68q-1 -5 -2.5 -19t-1.5 -20h67l-6 -49h-64q1 -32 12 -39.5
t34 -7.5q28 0 40 10t18 47h76q-5 -32 -13.5 -55t-24.5 -38.5t-40 -23t-59 -7.5q-62 0 -96 24.5t-36 89.5h-34z" />
    <glyph glyph-name="dollar.numr" 
d="M142 470q-1 -30 10.5 -38.5t35.5 -8.5q15 0 29.5 6.5t14.5 29.5q0 11 -9 17.5t-36 11.5l-29 6q-40 8 -67 29t-27 67q0 57 28 87.5t82 39.5l7 59h84l-7 -59q45 -6 65.5 -28t20.5 -70v-11.5t-1 -12.5h-95q2 28 -8 35t-34 7q-16 0 -28.5 -5.5t-12.5 -25.5q0 -14 9 -20
t34 -12l25 -6q45 -11 72 -30.5t27 -62.5q0 -57 -28.5 -86.5t-85.5 -38.5l-7 -61h-84l8 62q-52 7 -71.5 34.5t-17.5 84.5h96z" />
    <glyph glyph-name="parenleft.numr" horiz-adv-x="167" 
d="M50 542q9 74 19.5 119t27 70t40.5 33t60 8h22l-8 -68h-4q-16 0 -26.5 -3t-18 -19t-13.5 -50.5t-14 -97.5q-5 -45 -8 -74.5t-3 -48.5q0 -33 10 -40t31 -7h4l-8 -68h-22q-26 0 -44.5 6t-30.5 20t-17.5 38t-5.5 60q0 48 9 122z" />
    <glyph glyph-name="parenright.numr" horiz-adv-x="167" 
d="M185 526q-9 -74 -20 -119t-27 -70t-40.5 -33t-60.5 -8h-21l8 68h4q16 0 26 3t17.5 19t14 50.5t14.5 97.5q5 45 8 74.5t3 48.5q0 33 -10 40t-31 7h-4l8 68h21q53 0 76 -26t23 -98q0 -49 -9 -122z" />
    <glyph glyph-name="plus.numr" 
d="M162 505h-93l7 58h94l11 86h63l-11 -86h93l-7 -58h-93l-11 -86h-63z" />
    <glyph glyph-name="comma.numr" horiz-adv-x="156" 
d="M146 447l-8 -67l-49 -115h-52l22 182h87z" />
    <glyph glyph-name="hyphen.numr" horiz-adv-x="250" 
d="M72 563h183l-7 -58h-184z" />
    <glyph glyph-name="period.numr" horiz-adv-x="156" 
d="M58 447h87l-10 -91h-87z" />
    <glyph glyph-name="zero.numr" 
d="M179 348q-72 0 -102 30.5t-30 99.5q0 13 1 27.5t3 31.5q6 48 15.5 82.5t27.5 57t47 33t73 10.5q73 0 103 -30.5t30 -96.5q0 -13 -1 -27.5t-3 -30.5q-6 -50 -17 -85.5t-29.5 -58t-47 -33t-70.5 -10.5zM183 423q15 0 24.5 4t16 16.5t10.5 34.5t9 58q2 20 3.5 34t1.5 25
q0 26 -9.5 34t-29.5 8q-15 0 -24 -3.5t-15.5 -14t-10.5 -30.5t-8 -53q-6 -47 -6 -70q0 -26 9 -34.5t29 -8.5z" />
    <glyph glyph-name="one.numr" 
d="M184 616l-86 -23l10 84l114 35h73l-43 -356h-100z" />
    <glyph glyph-name="two.numr" 
d="M45 403q3 26 13 45.5t24.5 34.5t32.5 26.5t38 21.5l38 19q24 12 39 22.5t15 33.5q0 31 -35 31q-24 0 -34.5 -8.5t-18.5 -40.5h-93q6 33 16 57.5t27.5 41t44 25t64.5 8.5q70 0 100 -29t30 -77q0 -49 -25.5 -77t-70.5 -50l-47 -23q-20 -10 -31.5 -17t-18.5 -16h163l-9 -75
h-268z" />
    <glyph glyph-name="three.numr" 
d="M137 477q-2 -34 8 -44t36 -10q23 0 35.5 8.5t12.5 34.5q0 14 -8.5 20.5t-33.5 6.5h-26l9 76h29q21 0 34.5 9t13.5 32q0 27 -40 27q-22 0 -34.5 -9.5t-17.5 -39.5h-94q10 66 44 99t109 33q70 0 100.5 -27.5t30.5 -70.5q0 -29 -12.5 -48t-36.5 -36q34 -19 34 -68
q0 -66 -43 -94t-112 -28q-38 0 -63.5 6.5t-41 21.5t-21.5 39.5t-4 61.5h92z" />
    <glyph glyph-name="four.numr" 
d="M42 483l153 229h124l-26 -217h40l-9 -76h-40l-8 -63h-96l8 63h-153zM197 495l15 119l-80 -119h65z" />
    <glyph glyph-name="five.numr" 
d="M141 463v-9q0 -19 9 -25t32 -6q32 0 41 19t9 49q0 17 -8.5 24.5t-29.5 7.5q-24 0 -34 -9t-16 -27h-88l4 28l39 197h242l-10 -83h-165l-11 -51q14 7 28 11t32 4q54 0 86 -23.5t32 -77.5q0 -69 -38 -106.5t-116 -37.5q-75 0 -104 27.5t-27 87.5h93z" />
    <glyph glyph-name="six.numr" 
d="M50 478q5 36 19 63t38 56l96 115h114l-110 -123q5 2 9.5 2h8.5q52 0 81.5 -24t29.5 -75v-12t-1 -12q-9 -69 -47 -94.5t-107 -25.5q-62 0 -97.5 22.5t-35.5 81.5q0 6 0.5 12.5t1.5 13.5zM150 472q-1 -5 -1 -9.5v-8.5q0 -17 7.5 -24t29.5 -7q27 0 36.5 11t12.5 38
q1 5 1 9.5v8.5q0 17 -8 24t-30 7q-27 0 -36 -11t-12 -38z" />
    <glyph glyph-name="seven.numr" 
d="M242 629h-171l9 83h278l-7 -63l-174 -293h-102z" />
    <glyph glyph-name="eight.numr" 
d="M45 442q0 31 11 54.5t43 38.5q-31 22 -31 67q0 60 39 89t108 29q70 0 100 -28t30 -68q0 -27 -12 -50t-38 -39q36 -18 36 -66q0 -68 -40 -94.5t-113 -26.5q-133 0 -133 94zM201 569q29 0 37 13t8 35q0 13 -7.5 18.5t-28.5 5.5q-29 0 -37 -13t-8 -35q0 -13 7.5 -18.5
t28.5 -5.5zM183 423q29 0 39 13.5t10 36.5q0 15 -8.5 21.5t-30.5 6.5q-29 0 -39 -13.5t-10 -36.5q0 -15 8.5 -21.5t30.5 -6.5z" />
    <glyph glyph-name="nine.numr" 
d="M187 479q-5 -1 -9 -1.5t-8 -0.5q-54 0 -83 24t-29 75q0 5 0.5 11.5t1.5 12.5q8 69 47 94.5t106 25.5q62 0 97.5 -22.5t35.5 -81.5q0 -5 -0.5 -11t-1.5 -13q-3 -33 -18.5 -63.5t-38.5 -57.5l-96 -115h-113zM195 542q27 0 36.5 11t13.5 37q1 6 1 11v9q0 16 -7.5 23.5
t-30.5 7.5q-26 0 -36.5 -12t-13.5 -39q-1 -5 -1 -9.5v-8.5q0 -16 8 -23t30 -7z" />
    <glyph glyph-name="equal.numr" 
d="M83 629h250l-6 -59h-250zM67 498h250l-7 -59h-250z" />
    <glyph glyph-name="a.numr" horiz-adv-x="337" 
d="M138 348q-45 0 -70.5 22t-25.5 64q0 36 12.5 59t33.5 37t49 21.5t60 13.5l45 9q1 8 1.5 15t0.5 13q0 38 -35 38q-25 0 -37 -10t-16 -39h-88q5 30 14.5 53.5t27 40.5t44 26t64.5 9t62.5 -8.5t39 -23t20 -33.5t5.5 -40q0 -7 -0.5 -13.5t-1.5 -13.5l-28 -232h-95l5 39
q-11 -21 -31.5 -34t-55.5 -13zM207 504q-12 -2 -24 -4.5t-21.5 -8t-15.5 -14.5t-6 -24q0 -34 34 -34q23 0 37 12.5t18 41.5l5 35z" />
    <glyph glyph-name="b.numr" horiz-adv-x="372" 
d="M112 862h100l-23 -184q16 24 34.5 33t47.5 9q57 0 86 -27.5t29 -99.5q0 -13 -1 -28t-3 -32q-6 -53 -17 -88.5t-29 -57t-43.5 -30.5t-59.5 -9q-14 0 -28 2.5t-25.5 9t-19.5 18.5t-11 32l-6 -54h-93zM212 423q17 0 27.5 4t18 16t12 34t9.5 58q2 16 3 29t1 23q0 30 -10.5 39
t-35.5 9q-16 0 -26.5 -3.5t-18 -14t-12 -30.5t-8.5 -52q-2 -20 -3.5 -34.5t-1.5 -25.5q0 -32 10.5 -42t34.5 -10z" />
    <glyph glyph-name="c.numr" horiz-adv-x="337" 
d="M194 348q-75 0 -107.5 30t-32.5 101q0 13 1 26.5t3 29.5q6 52 17.5 87t31 57t49 31.5t71.5 9.5q71 0 99.5 -29.5t28.5 -89.5q0 -8 -0.5 -16t-1.5 -16h-90v17q0 29 -7.5 39t-33.5 10q-16 0 -26 -3t-16.5 -14t-11 -31.5t-9.5 -55.5q-6 -39 -6 -61q0 -30 10.5 -38.5
t33.5 -8.5q28 0 38.5 16t18.5 58h92q-6 -38 -17 -66t-28.5 -46.5t-43.5 -27.5t-63 -9z" />
    <glyph glyph-name="d.numr" horiz-adv-x="370" 
d="M169 348q-58 0 -86.5 27t-28.5 98q0 14 1 29.5t3 32.5q6 53 17.5 88.5t29.5 57t43 30.5t59 9q24 0 46.5 -8t30.5 -32l23 182h100l-62 -506h-95l5 44q-16 -30 -37 -41t-49 -11zM199 423q16 0 27 4t18.5 16t12.5 34t10 58q2 16 3.5 29t1.5 23q0 31 -11 39.5t-36 8.5
q-16 0 -26.5 -3.5t-17.5 -14t-12 -30t-9 -52.5q-2 -20 -4 -34.5t-2 -25.5q0 -32 11 -42t34 -10z" />
    <glyph glyph-name="e.numr" horiz-adv-x="342" 
d="M199 348q-75 0 -109.5 30t-34.5 102q0 23 3 52q6 51 17.5 86.5t31.5 58t49 33t71 10.5q73 0 103 -31.5t30 -97.5q0 -14 -1 -28t-3 -31l-2 -19h-199q-2 -13 -2 -23.5v-18.5q0 -32 11 -41t35 -9q26 0 39 9t19 35h88q-5 -27 -15 -48.5t-27.5 -36.5t-42.5 -23.5t-61 -8.5z
M225 639q-23 0 -37.5 -11t-23.5 -51h104q2 38 -7.5 50t-35.5 12z" />
    <glyph glyph-name="f.numr" horiz-adv-x="245" 
d="M105 630h-41l9 82h41l5 30q9 63 41.5 91.5t93.5 28.5h63l-11 -85h-45q-18 0 -30 -9t-15 -34l-2 -22h80l-10 -82h-80l-33 -274h-100z" />
    <glyph glyph-name="g.numr" horiz-adv-x="371" 
d="M141 328q0 -4 -0.5 -7.5t-0.5 -6.5q0 -21 9 -29t35 -8q28 0 41.5 12.5t18.5 50.5l7 61q-16 -25 -35.5 -34t-45.5 -9q-58 0 -86.5 26.5t-28.5 96.5q0 13 1 27.5t3 30.5q6 52 17.5 86.5t29.5 55.5t43 30t59 9q28 0 51.5 -13t30.5 -50l6 55h93l-45 -365q-10 -78 -46 -111
t-115 -33q-42 0 -69.5 8t-43 24t-21 39.5t-3.5 53.5h95zM201 432q16 0 27 4t18.5 15.5t12.5 32.5t9 55q2 15 3 27t1 21q0 29 -11 38.5t-35 9.5q-16 0 -27 -3.5t-18 -14t-12 -29t-9 -49.5q-2 -18 -3 -31.5t-1 -24.5q0 -32 10.5 -41.5t34.5 -9.5z" />
    <glyph glyph-name="h.numr" horiz-adv-x="364" 
d="M113 862h100l-23 -180q14 18 31.5 28t47.5 10q56 0 80 -25t24 -71q0 -6 -0.5 -13t-1.5 -14l-29 -241h-99l25 209q1 8 1.5 15.5t0.5 13.5q0 23 -9 30.5t-30 7.5q-14 0 -23.5 -2.5t-15.5 -10t-9.5 -20.5t-6.5 -34l-25 -209h-100z" />
    <glyph glyph-name="i.numr" horiz-adv-x="175" 
d="M113 862h100l-11 -88h-101zM94 712h100l-43 -356h-100z" />
    <glyph glyph-name="j.numr" horiz-adv-x="175" 
d="M113 862h100l-11 -88h-101zM94 712h100l-45 -371q-8 -69 -43 -101t-104 -32h-40l10 75h25q45 0 51 45z" />
    <glyph glyph-name="k.numr" horiz-adv-x="361" 
d="M112 862h100l-36 -288l130 138h112l-141 -145l97 -211h-105l-65 140l-43 -45l-11 -95h-100z" />
    <glyph glyph-name="l.numr" horiz-adv-x="175" 
d="M112 862h100l-62 -506h-100z" />
    <glyph glyph-name="m.numr" horiz-adv-x="556" 
d="M94 712h95l-5 -40q11 22 30.5 35t54.5 13q82 0 99 -53q13 24 34.5 38.5t58.5 14.5q56 0 80 -25t24 -71q0 -6 -0.5 -13t-1.5 -14l-29 -241h-100l26 209q1 8 1.5 15.5t0.5 13.5q0 23 -9 30.5t-31 7.5q-14 0 -23 -2.5t-15 -10t-9.5 -20.5t-6.5 -34l-26 -209h-99l25 209
q1 8 1.5 15.5t0.5 13.5q0 23 -9 30.5t-30 7.5q-14 0 -23.5 -2.5t-15.5 -10t-9.5 -20.5t-6.5 -34l-25 -209h-100z" />
    <glyph glyph-name="n.numr" horiz-adv-x="363" 
d="M93 712h95l-5 -40q11 22 30.5 35t54.5 13q54 0 78.5 -25t24.5 -75v-16.5t-2 -17.5l-28 -230h-100l26 209q1 8 1.5 15.5t0.5 13.5q0 23 -9 30.5t-30 7.5q-29 0 -39.5 -13.5t-15.5 -53.5l-25 -209h-100z" />
    <glyph glyph-name="o.numr" horiz-adv-x="359" 
d="M197 348q-76 0 -109 29.5t-33 101.5q0 24 3 56q6 54 17.5 89.5t31 56.5t49.5 30t74 9q76 0 110 -29t34 -102q0 -12 -1 -25.5t-3 -28.5q-7 -53 -18 -88.5t-31 -57.5t-50 -31.5t-74 -9.5zM200 423q17 0 28 4t18.5 16t12.5 34t10 58q2 16 3 28t1 22q0 32 -11 41t-36 9
q-16 0 -26.5 -3.5t-18 -14t-12.5 -30.5t-9 -52q-6 -39 -6 -60q0 -32 11 -42t35 -10z" />
    <glyph glyph-name="p.numr" horiz-adv-x="371" 
d="M131 208h-99l61 504h95l-6 -48q16 32 36.5 44t52.5 12q57 0 85.5 -27t28.5 -99q0 -26 -3 -59q-6 -53 -17 -89t-29 -58t-43.5 -31t-59.5 -9q-25 0 -47 8.5t-32 32.5zM212 423q17 0 27.5 4t18 16t12 34t9.5 58q2 17 3 30t1 23q0 30 -10.5 38.5t-35.5 8.5q-16 0 -26.5 -3.5
t-17.5 -14t-12 -30t-9 -52.5q-2 -20 -3.5 -34.5t-1.5 -25.5q0 -32 10.5 -42t34.5 -10z" />
    <glyph glyph-name="q.numr" horiz-adv-x="370" 
d="M170 348q-58 0 -86.5 27t-28.5 98q0 14 1 29.5t3 32.5q6 53 17.5 88.5t29.5 57t43 30.5t59 9q26 0 49.5 -10.5t30.5 -42.5l6 45h95l-62 -504h-100l23 184q-16 -26 -35 -35t-45 -9zM200 423q16 0 27 4t18.5 16t12.5 34t10 58q2 16 3.5 29t1.5 23q0 31 -11 39.5t-36 8.5
q-16 0 -26.5 -3.5t-17.5 -14t-12 -30t-9 -52.5q-2 -20 -4 -34.5t-2 -25.5q0 -32 11 -42t34 -10z" />
    <glyph glyph-name="r.numr" horiz-adv-x="229" 
d="M76 585q8 68 38 97.5t99 29.5h66l-10 -82h-45q-23 0 -33.5 -9t-13.5 -32l-28 -233h-100z" />
    <glyph glyph-name="s.numr" horiz-adv-x="318" 
d="M135 467q-1 -4 -1 -7.5v-6.5q0 -21 10 -28t33 -7t36.5 9t13.5 32q0 13 -8.5 18.5t-29.5 9.5l-43 8q-37 7 -59.5 29.5t-22.5 64.5q0 68 40 99.5t105 31.5q67 0 96.5 -24.5t29.5 -72.5q0 -7 -0.5 -13t-1.5 -14h-86q0 3 0.5 6t0.5 6q0 20 -9 27t-32 7q-20 0 -33.5 -7.5
t-13.5 -31.5q0 -14 9 -20t35 -11l42 -9q78 -17 78 -90q0 -69 -39.5 -97t-112.5 -28q-38 0 -62.5 7.5t-38.5 20.5t-19 31.5t-5 39.5v10t1 10h87z" />
    <glyph glyph-name="t.numr" horiz-adv-x="247" 
d="M97 630h-41l10 82h44l11 87h96l-11 -87h82l-9 -82h-83l-19 -155q-1 -5 -1 -12q0 -19 9.5 -25.5t30.5 -6.5h37l-9 -75h-50q-60 0 -88.5 21t-28.5 74q0 8 0.5 15.5t1.5 16.5z" />
    <glyph glyph-name="u.numr" horiz-adv-x="364" 
d="M91 712h99l-27 -221q-1 -8 -1.5 -15t-0.5 -13q0 -23 9 -31.5t31 -8.5q15 0 24.5 3.5t15.5 11.5t9.5 21t5.5 33l26 220h100l-43 -356h-94l5 41q-12 -23 -31.5 -36t-54.5 -13q-55 0 -79.5 25.5t-24.5 75.5q0 8 0.5 16t1.5 17z" />
    <glyph glyph-name="v.numr" horiz-adv-x="340" 
d="M59 712h98l44 -232l99 232h93l-163 -356h-95z" />
    <glyph glyph-name="w.numr" horiz-adv-x="520" 
d="M61 712h100l29 -227l92 227h79l37 -225l83 225h92l-147 -356h-90l-37 192l-80 -192h-99z" />
    <glyph glyph-name="x.numr" horiz-adv-x="336" 
d="M149 534l-89 178h104l49 -102l74 102h103l-135 -176l92 -180h-107l-49 104l-76 -104h-102z" />
    <glyph glyph-name="y.numr" horiz-adv-x="340" 
d="M61 283q26 0 43 9t28 38l7 18l-80 364h98l44 -232l99 232h93l-179 -390q-13 -28 -25 -49t-28 -35.5t-37 -22t-52 -7.5h-45l10 75h24z" />
    <glyph glyph-name="z.numr" horiz-adv-x="300" 
d="M43 410l157 220h-132l10 82h257l-7 -54l-162 -227h132l-9 -75h-252z" />
    <glyph glyph-name="cent.numr" 
d="M158 406q-45 6 -65.5 28t-20.5 68q0 8 0.5 16t1.5 16q7 63 32 92.5t77 35.5l7 58h70l-7 -59q45 -7 61 -33t13 -71h-76q0 26 -8 35t-30 9q-12 0 -20.5 -1.5t-14.5 -8.5t-10.5 -21.5t-7.5 -39.5q-2 -11 -2 -18v-13q0 -28 10 -34t28 -6q22 0 32 9t16 37h77q-8 -43 -29 -67.5
t-64 -30.5l-7 -59h-70z" />
    <glyph glyph-name="Euro.numr" 
d="M43 511h29q0 6 1.5 20t2.5 19h-28l5 51h33q9 35 22 58t31 36.5t42.5 19t56.5 5.5q37 0 60.5 -8t36.5 -24t17 -41.5t2 -59.5h-75q0 5 0.5 9t0.5 8q0 27 -9.5 35t-35.5 8q-23 0 -36.5 -7t-21.5 -39h64l-6 -51h-68q-1 -5 -2.5 -19t-1.5 -20h67l-6 -49h-64q1 -32 12 -39.5
t34 -7.5q28 0 40 10t18 47h76q-5 -32 -13.5 -55t-24.5 -38.5t-40 -23t-59 -7.5q-62 0 -96 24.5t-36 89.5h-34z" />
    <glyph glyph-name="minus.numr" 
d="M76 563h250l-7 -58h-250z" />
    <glyph glyph-name="dollar.dnom" 
d="M98 114q-1 -30 10.5 -38.5t35.5 -8.5q15 0 29.5 6.5t14.5 29.5q0 11 -9 17.5t-36 11.5l-29 6q-40 8 -67 29t-27 67q0 57 28 87.5t82 39.5l7 59h84l-7 -59q45 -6 65.5 -28t20.5 -70v-11.5t-1 -12.5h-95q2 28 -8 35t-34 7q-16 0 -28.5 -5.5t-12.5 -25.5q0 -14 9 -20t34 -12
l25 -6q45 -11 72 -30.5t27 -62.5q0 -57 -28.5 -86.5t-85.5 -38.5l-7 -61h-84l8 62q-52 7 -71.5 34.5t-17.5 84.5h96z" />
    <glyph glyph-name="parenleft.dnom" horiz-adv-x="167" 
d="M6 186q9 74 19.5 119t27 70t40.5 33t60 8h22l-8 -68h-4q-16 0 -26.5 -3t-18 -19t-13.5 -50.5t-14 -97.5q-5 -45 -8 -74.5t-3 -48.5q0 -33 10 -40t31 -7h4l-8 -68h-22q-26 0 -44.5 6t-30.5 20t-17.5 38t-5.5 60q0 48 9 122z" />
    <glyph glyph-name="parenright.dnom" horiz-adv-x="167" 
d="M141 170q-9 -74 -20 -119t-27 -70t-40.5 -33t-60.5 -8h-21l8 68h4q16 0 26 3t17.5 19t14 50.5t14.5 97.5q5 45 8 74.5t3 48.5q0 33 -10 40t-31 7h-4l8 68h21q53 0 76 -26t23 -98q0 -49 -9 -122z" />
    <glyph glyph-name="plus.dnom" 
d="M118 149h-93l7 58h94l11 86h63l-11 -86h93l-7 -58h-93l-11 -86h-63z" />
    <glyph glyph-name="comma.dnom" horiz-adv-x="156" 
d="M102 91l-8 -67l-49 -115h-52l22 182h87z" />
    <glyph glyph-name="hyphen.dnom" horiz-adv-x="250" 
d="M28 207h183l-7 -58h-184z" />
    <glyph glyph-name="period.dnom" horiz-adv-x="156" 
d="M14 91h87l-10 -91h-87z" />
    <glyph glyph-name="zero.dnom" 
d="M136 -8q-72 0 -102 30.5t-30 99.5q0 13 1 27.5t3 31.5q6 48 15.5 82.5t27.5 57t47 33t73 10.5q73 0 103 -30.5t30 -96.5q0 -13 -1 -27.5t-3 -30.5q-6 -50 -17 -85.5t-29.5 -58t-47 -33t-70.5 -10.5zM140 67q15 0 24.5 4t16 16.5t10.5 34.5t9 58q2 20 3.5 34t1.5 25
q0 26 -9.5 34t-29.5 8q-15 0 -24 -3.5t-15.5 -14t-10.5 -30.5t-8 -53q-6 -47 -6 -70q0 -26 9 -34.5t29 -8.5z" />
    <glyph glyph-name="one.dnom" 
d="M140 260l-86 -23l10 84l114 35h73l-43 -356h-100z" />
    <glyph glyph-name="two.dnom" 
d="M1 47q3 26 13 45.5t24.5 34.5t32.5 26.5t38 21.5l38 19q24 12 39 22.5t15 33.5q0 31 -35 31q-24 0 -34.5 -8.5t-18.5 -40.5h-93q6 33 16 57.5t27.5 41t44 25t64.5 8.5q70 0 100 -29t30 -77q0 -49 -25.5 -77t-70.5 -50l-47 -23q-20 -10 -31.5 -17t-18.5 -16h163l-9 -75
h-268z" />
    <glyph glyph-name="three.dnom" 
d="M93 121q-2 -34 8 -44t36 -10q23 0 35.5 8.5t12.5 34.5q0 14 -8.5 20.5t-33.5 6.5h-26l9 76h29q21 0 34.5 9t13.5 32q0 27 -40 27q-22 0 -34.5 -9.5t-17.5 -39.5h-94q10 66 44 99t109 33q70 0 100.5 -27.5t30.5 -70.5q0 -29 -12.5 -48t-36.5 -36q34 -19 34 -68
q0 -66 -43 -94t-112 -28q-38 0 -63.5 6.5t-41 21.5t-21.5 39.5t-4 61.5h92z" />
    <glyph glyph-name="four.dnom" 
d="M-2 127l153 229h124l-26 -217h40l-9 -76h-40l-8 -63h-96l8 63h-153zM153 139l15 119l-80 -119h65z" />
    <glyph glyph-name="five.dnom" 
d="M97 107v-9q0 -19 9 -25t32 -6q32 0 41 19t9 49q0 17 -8.5 24.5t-29.5 7.5q-24 0 -34 -9t-16 -27h-88l4 28l39 197h242l-10 -83h-165l-11 -51q14 7 28 11t32 4q54 0 86 -23.5t32 -77.5q0 -69 -38 -106.5t-116 -37.5q-75 0 -104 27.5t-27 87.5h93z" />
    <glyph glyph-name="six.dnom" 
d="M6 122q5 36 19 63t38 56l96 115h114l-110 -123q5 2 9.5 2h8.5q52 0 81.5 -24t29.5 -75v-12t-1 -12q-9 -69 -47 -94.5t-107 -25.5q-62 0 -97.5 22.5t-35.5 81.5q0 6 0.5 12.5t1.5 13.5zM106 116q-1 -5 -1 -9.5v-8.5q0 -17 7.5 -24t29.5 -7q27 0 36.5 11t12.5 38q1 5 1 9.5
v8.5q0 17 -8 24t-30 7q-27 0 -36 -11t-12 -38z" />
    <glyph glyph-name="seven.dnom" 
d="M198 273h-171l9 83h278l-7 -63l-174 -293h-102z" />
    <glyph glyph-name="eight.dnom" 
d="M1 86q0 31 11 54.5t43 38.5q-31 22 -31 67q0 60 39 89t108 29q70 0 100 -28t30 -68q0 -27 -12 -50t-38 -39q36 -18 36 -66q0 -68 -40 -94.5t-113 -26.5q-133 0 -133 94zM157 213q29 0 37 13t8 35q0 13 -7.5 18.5t-28.5 5.5q-29 0 -37 -13t-8 -35q0 -13 7.5 -18.5
t28.5 -5.5zM139 67q29 0 39 13.5t10 36.5q0 15 -8.5 21.5t-30.5 6.5q-29 0 -39 -13.5t-10 -36.5q0 -15 8.5 -21.5t30.5 -6.5z" />
    <glyph glyph-name="nine.dnom" 
d="M143 123q-5 -1 -9 -1.5t-8 -0.5q-54 0 -83 24t-29 75q0 5 0.5 11.5t1.5 12.5q8 69 47 94.5t106 25.5q62 0 97.5 -22.5t35.5 -81.5q0 -5 -0.5 -11t-1.5 -13q-3 -33 -18.5 -63.5t-38.5 -57.5l-96 -115h-113zM151 186q27 0 36.5 11t13.5 37q1 6 1 11v9q0 16 -7.5 23.5
t-30.5 7.5q-26 0 -36.5 -12t-13.5 -39q-1 -5 -1 -9.5v-8.5q0 -16 8 -23t30 -7z" />
    <glyph glyph-name="equal.dnom" 
d="M40 273h250l-6 -59h-250zM24 142h250l-7 -59h-250z" />
    <glyph glyph-name="a.dnom" horiz-adv-x="337" 
d="M95 -8q-45 0 -70.5 22t-25.5 64q0 36 12.5 59t33.5 37t49 21.5t60 13.5l45 9q1 8 1.5 15t0.5 13q0 38 -35 38q-25 0 -37 -10t-16 -39h-88q5 30 14.5 53.5t27 40.5t44 26t64.5 9t62.5 -8.5t39 -23t20 -33.5t5.5 -40q0 -7 -0.5 -13.5t-1.5 -13.5l-28 -232h-95l5 39
q-11 -21 -31.5 -34t-55.5 -13zM164 148q-12 -2 -24 -4.5t-21.5 -8t-15.5 -14.5t-6 -24q0 -34 34 -34q23 0 37 12.5t18 41.5l5 35z" />
    <glyph glyph-name="b.dnom" horiz-adv-x="372" 
d="M69 506h100l-23 -184q16 24 34.5 33t47.5 9q57 0 86 -27.5t29 -99.5q0 -13 -1 -28t-3 -32q-6 -53 -17 -88.5t-29 -57t-43.5 -30.5t-59.5 -9q-14 0 -28 2.5t-25.5 9t-19.5 18.5t-11 32l-6 -54h-93zM169 67q17 0 27.5 4t18 16t12 34t9.5 58q2 16 3 29t1 23q0 30 -10.5 39
t-35.5 9q-16 0 -26.5 -3.5t-18 -14t-12 -30.5t-8.5 -52q-2 -20 -3.5 -34.5t-1.5 -25.5q0 -32 10.5 -42t34.5 -10z" />
    <glyph glyph-name="c.dnom" horiz-adv-x="337" 
d="M151 -8q-75 0 -107.5 30t-32.5 101q0 13 1 26.5t3 29.5q6 52 17.5 87t31 57t49 31.5t71.5 9.5q71 0 99.5 -29.5t28.5 -89.5q0 -8 -0.5 -16t-1.5 -16h-90v17q0 29 -7.5 39t-33.5 10q-16 0 -26 -3t-16.5 -14t-11 -31.5t-9.5 -55.5q-6 -39 -6 -61q0 -30 10.5 -38.5
t33.5 -8.5q28 0 38.5 16t18.5 58h92q-6 -38 -17 -66t-28.5 -46.5t-43.5 -27.5t-63 -9z" />
    <glyph glyph-name="d.dnom" horiz-adv-x="370" 
d="M126 -8q-58 0 -86.5 27t-28.5 98q0 14 1 29.5t3 32.5q6 53 17.5 88.5t29.5 57t43 30.5t59 9q24 0 46.5 -8t30.5 -32l23 182h100l-62 -506h-95l5 44q-16 -30 -37 -41t-49 -11zM156 67q16 0 27 4t18.5 16t12.5 34t10 58q2 16 3.5 29t1.5 23q0 31 -11 39.5t-36 8.5
q-16 0 -26.5 -3.5t-17.5 -14t-12 -30t-9 -52.5q-2 -20 -4 -34.5t-2 -25.5q0 -32 11 -42t34 -10z" />
    <glyph glyph-name="e.dnom" horiz-adv-x="342" 
d="M156 -8q-75 0 -109.5 30t-34.5 102q0 23 3 52q6 51 17.5 86.5t31.5 58t49 33t71 10.5q73 0 103 -31.5t30 -97.5q0 -14 -1 -28t-3 -31l-2 -19h-199q-2 -13 -2 -23.5v-18.5q0 -32 11 -41t35 -9q26 0 39 9t19 35h88q-5 -27 -15 -48.5t-27.5 -36.5t-42.5 -23.5t-61 -8.5z
M182 283q-23 0 -37.5 -11t-23.5 -51h104q2 38 -7.5 50t-35.5 12z" />
    <glyph glyph-name="f.dnom" horiz-adv-x="245" 
d="M61 274h-41l9 82h41l5 30q9 63 41.5 91.5t93.5 28.5h63l-11 -85h-45q-18 0 -30 -9t-15 -34l-2 -22h80l-10 -82h-80l-33 -274h-100z" />
    <glyph glyph-name="g.dnom" horiz-adv-x="371" 
d="M98 -28q0 -4 -0.5 -7.5t-0.5 -6.5q0 -21 9 -29t35 -8q28 0 41.5 12.5t18.5 50.5l7 61q-16 -25 -35.5 -34t-45.5 -9q-58 0 -86.5 26.5t-28.5 96.5q0 13 1 27.5t3 30.5q6 52 17.5 86.5t29.5 55.5t43 30t59 9q28 0 51.5 -13t30.5 -50l6 55h93l-45 -365q-10 -78 -46 -111
t-115 -33q-42 0 -69.5 8t-43 24t-21 39.5t-3.5 53.5h95zM158 76q16 0 27 4t18.5 15.5t12.5 32.5t9 55q2 15 3 27t1 21q0 29 -11 38.5t-35 9.5q-16 0 -27 -3.5t-18 -14t-12 -29t-9 -49.5q-2 -18 -3 -31.5t-1 -24.5q0 -32 10.5 -41.5t34.5 -9.5z" />
    <glyph glyph-name="h.dnom" horiz-adv-x="364" 
d="M69 506h100l-23 -180q14 18 31.5 28t47.5 10q56 0 80 -25t24 -71q0 -6 -0.5 -13t-1.5 -14l-29 -241h-99l25 209q1 8 1.5 15.5t0.5 13.5q0 23 -9 30.5t-30 7.5q-14 0 -23.5 -2.5t-15.5 -10t-9.5 -20.5t-6.5 -34l-25 -209h-100z" />
    <glyph glyph-name="i.dnom" horiz-adv-x="175" 
d="M69 506h100l-11 -88h-101zM50 356h100l-43 -356h-100z" />
    <glyph glyph-name="j.dnom" horiz-adv-x="175" 
d="M69 506h100l-11 -88h-101zM50 356h100l-45 -371q-8 -69 -43 -101t-104 -32h-40l10 75h25q45 0 51 45z" />
    <glyph glyph-name="k.dnom" horiz-adv-x="361" 
d="M68 506h100l-36 -288l130 138h112l-141 -145l97 -211h-105l-65 140l-43 -45l-11 -95h-100z" />
    <glyph glyph-name="l.dnom" horiz-adv-x="175" 
d="M69 506h100l-62 -506h-100z" />
    <glyph glyph-name="m.dnom" horiz-adv-x="556" 
d="M50 356h95l-5 -40q11 22 30.5 35t54.5 13q82 0 99 -53q13 24 34.5 38.5t58.5 14.5q56 0 80 -25t24 -71q0 -6 -0.5 -13t-1.5 -14l-29 -241h-100l26 209q1 8 1.5 15.5t0.5 13.5q0 23 -9 30.5t-31 7.5q-14 0 -23 -2.5t-15 -10t-9.5 -20.5t-6.5 -34l-26 -209h-99l25 209
q1 8 1.5 15.5t0.5 13.5q0 23 -9 30.5t-30 7.5q-14 0 -23.5 -2.5t-15.5 -10t-9.5 -20.5t-6.5 -34l-25 -209h-100z" />
    <glyph glyph-name="n.dnom" horiz-adv-x="363" 
d="M50 356h95l-5 -40q11 22 30.5 35t54.5 13q54 0 78.5 -25t24.5 -75v-16.5t-2 -17.5l-28 -230h-100l26 209q1 8 1.5 15.5t0.5 13.5q0 23 -9 30.5t-30 7.5q-29 0 -39.5 -13.5t-15.5 -53.5l-25 -209h-100z" />
    <glyph glyph-name="o.dnom" horiz-adv-x="359" 
d="M153 -8q-76 0 -109 29.5t-33 101.5q0 24 3 56q6 54 17.5 89.5t31 56.5t49.5 30t74 9q76 0 110 -29t34 -102q0 -12 -1 -25.5t-3 -28.5q-7 -53 -18 -88.5t-31 -57.5t-50 -31.5t-74 -9.5zM156 67q17 0 28 4t18.5 16t12.5 34t10 58q2 16 3 28t1 22q0 32 -11 41t-36 9
q-16 0 -26.5 -3.5t-18 -14t-12.5 -30.5t-9 -52q-6 -39 -6 -60q0 -32 11 -42t35 -10z" />
    <glyph glyph-name="p.dnom" horiz-adv-x="371" 
d="M88 -148h-99l61 504h95l-6 -48q16 32 36.5 44t52.5 12q57 0 85.5 -27t28.5 -99q0 -26 -3 -59q-6 -53 -17 -89t-29 -58t-43.5 -31t-59.5 -9q-25 0 -47 8.5t-32 32.5zM169 67q17 0 27.5 4t18 16t12 34t9.5 58q2 17 3 30t1 23q0 30 -10.5 38.5t-35.5 8.5q-16 0 -26.5 -3.5
t-17.5 -14t-12 -30t-9 -52.5q-2 -20 -3.5 -34.5t-1.5 -25.5q0 -32 10.5 -42t34.5 -10z" />
    <glyph glyph-name="q.dnom" horiz-adv-x="370" 
d="M126 -8q-58 0 -86.5 27t-28.5 98q0 14 1 29.5t3 32.5q6 53 17.5 88.5t29.5 57t43 30.5t59 9q26 0 49.5 -10.5t30.5 -42.5l6 45h95l-62 -504h-100l23 184q-16 -26 -35 -35t-45 -9zM156 67q16 0 27 4t18.5 16t12.5 34t10 58q2 16 3.5 29t1.5 23q0 31 -11 39.5t-36 8.5
q-16 0 -26.5 -3.5t-17.5 -14t-12 -30t-9 -52.5q-2 -20 -4 -34.5t-2 -25.5q0 -32 11 -42t34 -10z" />
    <glyph glyph-name="r.dnom" horiz-adv-x="229" 
d="M32 229q8 68 38 97.5t99 29.5h66l-10 -82h-45q-23 0 -33.5 -9t-13.5 -32l-28 -233h-100z" />
    <glyph glyph-name="s.dnom" horiz-adv-x="318" 
d="M92 111q-1 -4 -1 -7.5v-6.5q0 -21 10 -28t33 -7t36.5 9t13.5 32q0 13 -8.5 18.5t-29.5 9.5l-43 8q-37 7 -59.5 29.5t-22.5 64.5q0 68 40 99.5t105 31.5q67 0 96.5 -24.5t29.5 -72.5q0 -7 -0.5 -13t-1.5 -14h-86q0 3 0.5 6t0.5 6q0 20 -9 27t-32 7q-20 0 -33.5 -7.5
t-13.5 -31.5q0 -14 9 -20t35 -11l42 -9q78 -17 78 -90q0 -69 -39.5 -97t-112.5 -28q-38 0 -62.5 7.5t-38.5 20.5t-19 31.5t-5 39.5v10t1 10h87z" />
    <glyph glyph-name="t.dnom" horiz-adv-x="247" 
d="M54 274h-41l10 82h44l11 87h96l-11 -87h82l-9 -82h-83l-19 -155q-1 -5 -1 -12q0 -19 9.5 -25.5t30.5 -6.5h37l-9 -75h-50q-60 0 -88.5 21t-28.5 74q0 8 0.5 15.5t1.5 16.5z" />
    <glyph glyph-name="u.dnom" horiz-adv-x="364" 
d="M47 356h99l-27 -221q-1 -8 -1.5 -15t-0.5 -13q0 -23 9 -31.5t31 -8.5q15 0 24.5 3.5t15.5 11.5t9.5 21t5.5 33l26 220h100l-43 -356h-94l5 41q-12 -23 -31.5 -36t-54.5 -13q-55 0 -79.5 25.5t-24.5 75.5q0 8 0.5 16t1.5 17z" />
    <glyph glyph-name="v.dnom" horiz-adv-x="340" 
d="M16 356h98l44 -232l99 232h93l-163 -356h-95z" />
    <glyph glyph-name="w.dnom" horiz-adv-x="520" 
d="M17 356h100l29 -227l92 227h79l37 -225l83 225h92l-147 -356h-90l-37 192l-80 -192h-99z" />
    <glyph glyph-name="x.dnom" horiz-adv-x="336" 
d="M106 178l-89 178h104l49 -102l74 102h103l-135 -176l92 -180h-107l-49 104l-76 -104h-102z" />
    <glyph glyph-name="y.dnom" horiz-adv-x="340" 
d="M18 -73q26 0 43 9t28 38l7 18l-80 364h98l44 -232l99 232h93l-179 -390q-13 -28 -25 -49t-28 -35.5t-37 -22t-52 -7.5h-45l10 75h24z" />
    <glyph glyph-name="z.dnom" horiz-adv-x="300" 
d="M0 54l157 220h-132l10 82h257l-7 -54l-162 -227h132l-9 -75h-252z" />
    <glyph glyph-name="cent.dnom" 
d="M114 50q-45 6 -65.5 28t-20.5 68q0 8 0.5 16t1.5 16q7 63 32 92.5t77 35.5l7 58h70l-7 -59q45 -7 61 -33t13 -71h-76q0 26 -8 35t-30 9q-12 0 -20.5 -1.5t-14.5 -8.5t-10.5 -21.5t-7.5 -39.5q-2 -11 -2 -18v-13q0 -28 10 -34t28 -6q22 0 32 9t16 37h77q-8 -43 -29 -67.5
t-64 -30.5l-7 -59h-70z" />
    <glyph glyph-name="Euro.dnom" 
d="M-1 155h29q0 6 1.5 20t2.5 19h-28l5 51h33q9 35 22 58t31 36.5t42.5 19t56.5 5.5q37 0 60.5 -8t36.5 -24t17 -41.5t2 -59.5h-75q0 5 0.5 9t0.5 8q0 27 -9.5 35t-35.5 8q-23 0 -36.5 -7t-21.5 -39h64l-6 -51h-68q-1 -5 -2.5 -19t-1.5 -20h67l-6 -49h-64q1 -32 12 -39.5
t34 -7.5q28 0 40 10t18 47h76q-5 -32 -13.5 -55t-24.5 -38.5t-40 -23t-59 -7.5q-62 0 -96 24.5t-36 89.5h-34z" />
    <glyph glyph-name="minus.dnom" 
d="M32 207h250l-7 -58h-250z" />
    <glyph glyph-name="space.aalt" horiz-adv-x="36" 
 />
    <glyph glyph-name="dollar.pnum" horiz-adv-x="544" 
d="M157 219q-2 -35 1.5 -58t14.5 -37t31 -20t52 -6q54 0 84 24t30 84q0 32 -20.5 49t-68.5 29l-54 14q-79 20 -120.5 59t-41.5 119q0 109 49.5 171.5t157.5 73.5l1 3l11 92h117l-12 -97q85 -13 118.5 -57.5t33.5 -126.5q0 -11 -0.5 -22.5t-1.5 -24.5h-133q2 35 -2 57t-15 34
t-30 16.5t-48 4.5q-51 0 -78.5 -23.5t-27.5 -80.5q0 -35 22.5 -50.5t70.5 -27.5l54 -14q79 -20 119 -62.5t40 -115.5q0 -111 -54 -168t-160 -67l-11 -95h-117l11 92v4q-94 12 -130 65.5t-28 161.5h135z" />
    </font>
</defs>
</svg>
