<?xml version="1.0" standalone="no"?>
<!DOCTYPE svg PUBLIC "-//W3C//DTD SVG 1.1//EN" "http://www.w3.org/Graphics/SVG/1.1/DTD/svg11.dtd" >
<svg xmlns="http://www.w3.org/2000/svg" xmlns:xlink="http://www.w3.org/1999/xlink" version="1.1">
<metadata>
Created by Christoph Koeberlin (http://christoph.koe.berlin)
PORSCHE NEXT: Copyright (c) 2017-2023 Dr. Ing. h.c. F. Porsche AG. All rights reserved. PORSCHE NEXT is a design by TYPE TAILORS BVBA for Dr. Ing. h.c. F. Porsche AG. Type Directors: Hendrik Weber, Fred Smeijers, Corina Cotorobai. Lead font development: Thomas Thiemich. Produced by TYPE TAILORS BVBA.
</metadata>
<defs>
<font id="Font" horiz-adv-x="318" >
  <font-face 
    font-family="Font"
    font-weight="400"
    font-style="italic"
    font-stretch="normal"
    units-per-em="1000"
    panose-1="2 11 5 4 2 1 1 1 1 2"
    ascent="800"
    descent="-200"
    x-height="504"
    cap-height="712"
    bbox="-335 -312 1020 1033"
    underline-thickness="50"
    underline-position="-125"
    slope="-8"
    unicode-range="U+000D-FEFF"
  />
<missing-glyph horiz-adv-x="728" 
d="M12 712h704v-712h-704v712zM242 182l124 128l124 -128l52 52l-124 128l124 129l-52 51l-124 -127l-124 127l-52 -51l124 -129l-124 -128z" />
    <glyph glyph-name="f_b.liga" unicode="fb" horiz-adv-x="783" 
d="M389 639h-79q-54 0 -78 -22.5t-31 -76.5l-5 -36h96l-9 -70h-95l-52 -434h-80l52 434h-63l9 70h63l4 33q11 86 55.5 130.5t133.5 44.5h168l-34 -268q44 68 133 68q85 0 125 -46.5t40 -146.5q0 -17 -1 -34t-3 -37q-12 -136 -65 -196t-153 -60q-48 0 -79.5 18t-45.5 57
l-7 -67h-77zM515 58q32 0 56 10t41 32.5t28 59.5t18 92q2 20 3.5 38t1.5 34q0 65 -24 90t-76 25q-32 0 -55.5 -9t-40.5 -31t-27.5 -57.5t-17.5 -89.5q-6 -44 -6 -76q0 -66 23.5 -92t75.5 -26z" />
    <glyph glyph-name="f_f.liga" unicode="ff" horiz-adv-x="583" 
d="M54 504h63l6 50q10 76 50.5 117t119.5 41h70l-9 -73h-60q-43 0 -64.5 -20t-26.5 -63l-6 -52h191l6 50q10 76 50.5 117t118.5 41h71l-9 -73h-60q-43 0 -64.5 -20t-26.5 -63l-6 -52h130l-10 -70h-129l-52 -434h-80l52 434h-191l-52 -434h-80l52 434h-63z" />
    <glyph glyph-name="f_f_b.liga" unicode="ffb" horiz-adv-x="1054" 
d="M715 444q44 68 133 68q85 0 125 -46.5t40 -146.5q0 -17 -1 -34t-3 -37q-14 -136 -66 -196t-152 -60q-48 0 -79.5 18t-45.5 57l-7 -67h-77l78 639h-79q-54 0 -78 -22.5t-31 -76.5l-4 -36h95l-9 -70h-95l-52 -434h-80l53 434h-192l-52 -434h-80l53 434h-64l9 70h63l6 50
q10 76 52.5 117t123.5 41h64l-9 -73h-60q-43 0 -64.5 -20t-26.5 -63l-6 -52h191l4 33q11 88 57 131.5t137 43.5h163zM786 58q32 0 56 10t41 32.5t28 59.5t18 92q2 20 3.5 38t1.5 34q0 65 -24 90t-76 25q-32 0 -55.5 -9t-40.5 -31t-27.5 -57.5t-17.5 -89.5q-6 -44 -6 -76
q0 -66 23.5 -92t75.5 -26z" />
    <glyph glyph-name="f_f_h.liga" unicode="ffh" horiz-adv-x="1040" 
d="M716 449q37 63 126 63q72 0 109 -36.5t37 -105.5v-17.5t-2 -18.5l-40 -334h-80l38 317q3 21 3 37q0 46 -21 65.5t-66 19.5q-54 0 -83 -26.5t-37 -95.5l-38 -317h-80l78 639h-79q-54 0 -78 -22.5t-31 -76.5l-4 -36h95l-9 -70h-95l-52 -434h-80l53 434h-192l-52 -434h-80
l53 434h-64l9 70h63l6 50q10 76 52.5 117t123.5 41h64l-9 -73h-60q-43 0 -64.5 -20t-26.5 -63l-6 -52h191l4 33q11 88 57 131.5t137 43.5h163z" />
    <glyph glyph-name="f_f_i.liga" unicode="ffi" horiz-adv-x="761" 
d="M109 434h-64l9 70h63l6 50q10 76 50.5 117t119.5 41h70l-9 -73h-60q-43 0 -64.5 -20t-26.5 -63l-6 -52h191l6 50q10 78 50.5 118t119.5 40h45l-9 -73h-35q-43 0 -64.5 -20t-26.5 -63l-6 -52h256l-62 -504h-80l53 434h-176l-52 -434h-80l53 434h-192l-52 -434h-80z
M669 712h80l-12 -94h-80z" />
    <glyph glyph-name="f_f_j.liga" unicode="ffj" horiz-adv-x="761" 
d="M109 434h-64l9 70h63l6 50q10 76 50.5 117t119.5 41h70l-9 -73h-60q-43 0 -64.5 -20t-26.5 -63l-6 -52h191l6 50q10 78 50.5 118t119.5 40h45l-9 -73h-35q-43 0 -64.5 -20t-26.5 -63l-6 -52h256l-71 -576q-8 -66 -41.5 -101t-102.5 -35h-43l8 66h27q33 0 49.5 14.5
t21.5 50.5l63 511h-176l-52 -434h-80l53 434h-192l-52 -434h-80zM669 712h80l-12 -94h-80z" />
    <glyph glyph-name="f_f_k.liga" unicode="ffk" horiz-adv-x="999" 
d="M693 259l233 245h94l-203 -212l141 -292h-86l-112 236l-79 -80l-19 -156h-80l78 639h-79q-54 0 -78 -22.5t-31 -76.5l-4 -36h95l-9 -70h-95l-52 -434h-80l53 434h-192l-52 -434h-80l53 434h-64l9 70h63l6 50q10 76 52.5 117t123.5 41h64l-9 -73h-60q-43 0 -64.5 -20
t-26.5 -63l-6 -52h191l4 33q11 88 57 131.5t137 43.5h163z" />
    <glyph glyph-name="f_f_l.liga" unicode="ffl" horiz-adv-x="761" 
d="M109 434h-64l9 70h63l6 50q10 76 50.5 117t119.5 41h70l-9 -73h-60q-43 0 -64.5 -20t-26.5 -63l-6 -52h191l4 33q11 86 55.5 130.5t133.5 44.5h168l-87 -712h-80l78 639h-79q-54 0 -78 -22.5t-31 -76.5l-4 -36h95l-9 -70h-95l-52 -434h-80l53 434h-192l-52 -434h-80z" />
    <glyph glyph-name="f_f_t.liga" unicode="fft" horiz-adv-x="858" 
d="M109 434h-64l9 70h63l6 50q10 76 50.5 117t119.5 41h70l-9 -73h-60q-43 0 -64.5 -20t-26.5 -63l-6 -52h191l6 50q10 78 50.5 118t119.5 40h45l-9 -73h-35q-43 0 -64.5 -20t-26.5 -63l-6 -52h178l14 120h78l-15 -120h148l-9 -70h-148l-34 -276q-1 -8 -1.5 -14t-0.5 -12
q0 -36 17.5 -51t58.5 -15h63l-8 -66h-69q-78 0 -113.5 38.5t-26.5 116.5l34 279h-175l-52 -434h-80l53 434h-192l-52 -434h-80z" />
    <glyph glyph-name="f_h.liga" unicode="fh" horiz-adv-x="769" 
d="M389 639h-79q-54 0 -78 -22.5t-31 -76.5l-5 -36h96l-9 -70h-95l-52 -434h-80l52 434h-63l9 70h63l4 33q11 86 55.5 130.5t133.5 44.5h168l-33 -263q37 63 126 63q72 0 109 -36.5t37 -105.5v-17.5t-2 -18.5l-40 -334h-80l38 317q3 21 3 37q0 46 -21 65.5t-66 19.5
q-54 0 -83 -26.5t-37 -95.5l-38 -317h-80z" />
    <glyph glyph-name="f_i.liga" unicode="fi" horiz-adv-x="490" 
d="M364 434h-176l-52 -434h-80l52 434h-63l9 70h63l6 50q10 78 50.5 118t119.5 40h45l-9 -73h-35q-43 0 -64.5 -20t-26.5 -63l-6 -52h256l-62 -504h-80zM398 712h80l-12 -94h-80z" />
    <glyph glyph-name="f_j.liga" unicode="fj" horiz-adv-x="490" 
d="M364 434h-176l-52 -434h-80l52 434h-63l9 70h63l6 50q10 78 50.5 118t119.5 40h45l-9 -73h-35q-43 0 -64.5 -20t-26.5 -63l-6 -52h256l-72 -576q-8 -66 -42 -101t-103 -35h-41l8 66h27q33 0 49.5 14.5t21.5 50.5zM398 712h80l-12 -94h-80z" />
    <glyph glyph-name="f_k.liga" unicode="fk" horiz-adv-x="728" 
d="M389 639h-79q-54 0 -78 -22.5t-31 -76.5l-5 -36h96l-9 -70h-95l-52 -434h-80l52 434h-63l9 70h63l4 33q11 86 55.5 130.5t133.5 44.5h168l-56 -453l233 245h94l-203 -212l141 -292h-86l-112 236l-79 -80l-19 -156h-80z" />
    <glyph glyph-name="f_l.liga" unicode="fl" horiz-adv-x="490" 
d="M54 504h63l4 33q11 86 55.5 130.5t133.5 44.5h168l-87 -712h-80l78 639h-79q-54 0 -78 -22.5t-31 -76.5l-5 -36h96l-9 -70h-95l-52 -434h-80l52 434h-63z" />
    <glyph glyph-name="f_t.liga" unicode="ft" horiz-adv-x="587" 
d="M363 434h-175l-52 -434h-80l52 434h-63l9 70h63l6 50q10 78 50.5 118t119.5 40h45l-9 -73h-35q-43 0 -64.5 -20t-26.5 -63l-6 -52h177l15 120h78l-15 -120h148l-9 -70h-148l-34 -276q-1 -8 -1.5 -14t-0.5 -12q0 -36 17.5 -51t58.5 -15h63l-8 -66h-69q-78 0 -113.5 38.5
t-26.5 116.5z" />
    <glyph glyph-name=".notdef" horiz-adv-x="728" 
d="M12 712h704v-712h-704v712zM242 182l124 128l124 -128l52 52l-124 128l124 129l-52 51l-124 -127l-124 127l-52 -51l124 -129l-124 -128z" />
    <glyph glyph-name="glyph1" horiz-adv-x="0" 
 />
    <glyph glyph-name="glyph1" horiz-adv-x="0" 
 />
    <glyph glyph-name="uni000D" unicode="&#xd;" horiz-adv-x="214" 
 />
    <glyph glyph-name="space" unicode=" " horiz-adv-x="214" 
 />
    <glyph glyph-name="exclam" unicode="!" horiz-adv-x="225" 
d="M129 712h80l-79 -498h-44zM52 102h84l-12 -102h-84z" />
    <glyph glyph-name="quotedbl" unicode="&#x22;" horiz-adv-x="325" 
d="M240 626l11 86h82l-11 -86l-41 -139h-33zM93 626l11 86h81l-10 -86l-41 -139h-33z" />
    <glyph glyph-name="numbersign" unicode="#" horiz-adv-x="676" 
d="M140 541h112l67 171h70l-67 -171h202l67 171h70l-67 -171h90l-8 -67h-108l-93 -236h94l-8 -67h-112l-67 -171h-70l67 171h-202l-67 -171h-70l67 171h-90l8 67h108l93 236h-94zM203 238h202l93 236h-202z" />
    <glyph glyph-name="dollar" unicode="$" horiz-adv-x="560" 
d="M118 216q-5 -87 27.5 -124.5t110.5 -37.5q36 0 66 8.5t52.5 26t35 45.5t12.5 67q0 50 -31 73.5t-83 37.5l-55 15q-35 9 -64 22t-51 33t-34 48.5t-12 68.5q0 97 55.5 156t154.5 67l11 94h80l-12 -95q49 -6 81 -24t50 -47.5t24 -70t3 -91.5h-79q4 90 -27.5 125t-104.5 35
q-30 0 -57.5 -8t-48.5 -24.5t-33.5 -42.5t-12.5 -62q0 -26 8.5 -43.5t24 -30.5t36.5 -21.5t46 -15.5l54 -15q77 -21 118.5 -60t41.5 -114q0 -100 -57 -156t-157 -65l-11 -94h-80l11 94q-97 10 -138.5 65t-33.5 161h79z" />
    <glyph glyph-name="percent" unicode="%" horiz-adv-x="723" 
d="M187 348q-66 0 -94.5 29t-28.5 101q0 14 1 28.5t3 31.5q5 46 15 80.5t28.5 57t46.5 33.5t68 11q69 0 97 -31.5t28 -97.5q0 -13 -1 -27t-3 -30q-6 -51 -17.5 -86.5t-30.5 -57.5t-46.5 -32t-65.5 -10zM190 400q21 0 35 5.5t24 20.5t16.5 41.5t11.5 68.5q2 17 3 31t1 25
q0 42 -14 55.5t-45 13.5q-20 0 -33.5 -5.5t-23.5 -19.5t-16.5 -38.5t-10.5 -61.5q-6 -44 -6 -70q0 -39 13.5 -52.5t44.5 -13.5zM618 712h60l-542 -712h-60zM521 -8q-66 0 -94.5 29t-28.5 101q0 14 1 28.5t3 31.5q5 46 15 80.5t28.5 57t46.5 33.5t68 11q69 0 97 -31.5
t28 -97.5q0 -13 -1 -27t-3 -30q-6 -51 -17.5 -86.5t-30.5 -57.5t-46.5 -32t-65.5 -10zM524 44q21 0 35 5.5t24 20.5t16.5 41.5t11.5 68.5q2 17 3 31t1 25q0 42 -14 55.5t-45 13.5q-20 0 -33.5 -5.5t-23.5 -19.5t-16.5 -38.5t-10.5 -61.5q-6 -44 -6 -70q0 -39 13.5 -52.5
t44.5 -13.5z" />
    <glyph glyph-name="ampersand" unicode="&#x26;" horiz-adv-x="608" 
d="M33 186q4 34 16 61.5t31 51t45.5 45t59.5 44.5q-30 40 -48 73t-18 75q0 88 50 138t147 50q100 0 141.5 -42t41.5 -134q0 -27 -3 -60h-78q2 14 2 26v23q0 64 -24 87.5t-83 23.5q-49 0 -80 -23t-31 -78q0 -37 20.5 -68t46.5 -66l160 -214l21 167h72l-15 -122
q-5 -36 -11.5 -63.5t-15.5 -49.5l99 -131h-98l-47 60q-32 -33 -78.5 -52.5t-112.5 -19.5q-112 0 -162.5 41t-50.5 119q0 18 3 38zM242 54q108 0 153 58l-172 226q-28 -21 -47 -38t-31.5 -34t-19 -36.5t-9.5 -44.5q-1 -8 -1.5 -16t-0.5 -15q0 -51 29 -75.5t99 -24.5z" />
    <glyph glyph-name="quotesingle" unicode="'" horiz-adv-x="178" 
d="M93 626l11 86h81l-10 -86l-41 -139h-33z" />
    <glyph glyph-name="parenleft" unicode="(" horiz-adv-x="313" 
d="M335 772l-8 -66h-20q-32 0 -56 -12t-43 -53t-35.5 -119t-32.5 -210q-10 -83 -15 -143t-5 -104q0 -48 6 -76.5t17.5 -44.5t28 -21t38.5 -5h20l-8 -66h-21q-37 0 -65.5 7.5t-48.5 30.5t-30.5 66.5t-10.5 115.5q0 48 4.5 108.5t14.5 138.5q13 104 27.5 178.5t31.5 125
t36.5 80t43 45t51 20t59.5 4.5h21z" />
    <glyph glyph-name="parenright" unicode=")" horiz-adv-x="313" 
d="M-12 -148l8 66h20q32 0 56 12t43 53t35 119t33 210q10 83 15 143t5 104q0 48 -6 76.5t-17.5 44.5t-28.5 21t-39 5h-20l9 66h21q37 0 65.5 -7.5t48 -30.5t30 -66.5t10.5 -115.5q0 -48 -4.5 -108.5t-14.5 -138.5q-13 -105 -27.5 -179t-31.5 -124.5t-36.5 -80t-43 -45
t-50.5 -20t-59 -4.5h-21z" />
    <glyph glyph-name="asterisk" unicode="*" horiz-adv-x="407" 
d="M93 620l64 -21l62 -27l4 71l8 69h55l-8 -69l-15 -71l69 28l68 21l11 -53l-68 -21l-72 -17l39 -55l34 -56l-47 -30l-34 56l-31 60l-43 -62l-48 -56l-41 35l47 55l53 53l-67 17l-63 22z" />
    <glyph glyph-name="plus" unicode="+" horiz-adv-x="560" 
d="M64 323h191l24 197h66l-24 -197h191l-8 -66h-191l-24 -197h-66l24 197h-191z" />
    <glyph glyph-name="comma" unicode="," horiz-adv-x="207" 
d="M128 102l-9 -75l-63 -155h-39l27 230h84z" />
    <glyph glyph-name="hyphen" unicode="-" horiz-adv-x="414" 
d="M69 325h292l-7 -67h-292z" />
    <glyph glyph-name="period" unicode="." horiz-adv-x="207" 
d="M44 102h84l-12 -102h-84z" />
    <glyph glyph-name="slash" unicode="/" horiz-adv-x="454" 
d="M399 712h74l-394 -712h-73z" />
    <glyph glyph-name="zero" unicode="0" horiz-adv-x="560" 
d="M256 -12q-53 0 -92 12t-65 39.5t-38.5 73.5t-12.5 114q0 30 2.5 65t7.5 75q12 96 30.5 163.5t49 110.5t77.5 63t116 20q111 0 160 -54.5t49 -178.5q0 -29 -2.5 -61t-7.5 -69q-14 -107 -34.5 -178.5t-52 -114.5t-77 -61.5t-110.5 -18.5zM256 54q46 0 77 14.5t52 50
t34.5 95t25.5 150.5q5 39 7.5 71.5t2.5 59.5q0 43 -7 72.5t-22.5 47.5t-39.5 25.5t-57 7.5q-44 0 -75 -13.5t-52 -46t-35 -87.5t-24 -137q-6 -48 -9.5 -87t-3.5 -70q0 -44 7 -73t22 -47t39 -25.5t58 -7.5z" />
    <glyph glyph-name="one" unicode="1" horiz-adv-x="560" 
d="M353 626l-207 -74l10 76l221 84h69l-87 -712h-83z" />
    <glyph glyph-name="two" unicode="2" horiz-adv-x="560" 
d="M53 66q5 40 19 73t36 60t49.5 49.5t59.5 42.5l83 51q28 17 55 36.5t48.5 43.5t35 54t13.5 68q0 54 -32 79t-92 25q-35 0 -61.5 -8t-46.5 -26.5t-33.5 -49.5t-21.5 -76h-78q9 55 26 99t45.5 74.5t70.5 46.5t102 16q103 0 153.5 -46t50.5 -127q0 -43 -12.5 -79.5t-35.5 -68
t-55 -58.5t-72 -52l-82 -51q-37 -23 -63 -42t-43 -37.5t-26 -38.5t-12 -45l-1 -13h338l-8 -66h-418z" />
    <glyph glyph-name="three" unicode="3" horiz-adv-x="560" 
d="M121 216q-5 -87 26.5 -124.5t109.5 -37.5q81 0 123 40.5t42 123.5q0 52 -31 79.5t-101 27.5h-72l10 73h66q72 0 112 39t40 109q0 54 -32.5 78t-92.5 24q-68 0 -107.5 -35t-57.5 -125h-79q10 54 28 98t47 74.5t71 47t101 16.5q103 0 153.5 -45.5t50.5 -126.5q0 -29 -7 -57
t-21.5 -52.5t-36.5 -44t-52 -31.5q45 -16 69.5 -50t24.5 -94q0 -109 -62.5 -172t-186.5 -63q-121 0 -171.5 55t-41.5 173h78z" />
    <glyph glyph-name="four" unicode="4" horiz-adv-x="560" 
d="M23 226l347 486h116l-59 -478h101l-8 -70h-101l-20 -164h-80l20 164h-323zM347 234l50 403l-285 -403h235z" />
    <glyph glyph-name="five" unicode="5" horiz-adv-x="560" 
d="M71 320l82 392h383l-9 -76h-317l-49 -236q24 24 60 38t84 14q102 0 154 -47t52 -141q0 -21 -3 -45q-8 -62 -27.5 -106t-51.5 -72t-76 -40.5t-100 -12.5q-112 0 -164.5 50.5t-44.5 153.5h78q-5 -69 25 -103.5t108 -34.5q84 0 122 41.5t48 125.5q3 22 3 41q0 61 -30 91
t-102 30q-66 0 -100.5 -24.5t-54.5 -70.5h-74z" />
    <glyph glyph-name="six" unicode="6" horiz-adv-x="560" 
d="M46 225q8 67 31 114.5t61 96.5l214 276h89l-215 -275q17 7 36.5 11t41.5 4q100 0 154.5 -47.5t54.5 -141.5q0 -20 -3 -44q-15 -124 -76.5 -177.5t-174.5 -53.5q-102 0 -159 45t-57 146q0 22 3 46zM128 220q-3 -26 -3 -46q0 -60 30 -90t102 -30q42 0 72 10.5t50 31.5
t32 52t17 72q2 12 2 22.5v18.5q0 63 -30 92.5t-102 29.5q-83 0 -121.5 -40t-48.5 -123z" />
    <glyph glyph-name="seven" unicode="7" horiz-adv-x="560" 
d="M108 712h452l-7 -60l-370 -652h-89l365 636h-360z" />
    <glyph glyph-name="eight" unicode="8" horiz-adv-x="560" 
d="M37 159q0 34 7.5 66t24 59t41 47.5t59.5 30.5q-33 18 -54 51t-21 84q0 52 14 94t43.5 71.5t74 45.5t105.5 16q103 0 151.5 -46t48.5 -125q0 -62 -26 -115.5t-89 -79.5q90 -40 90 -140q0 -114 -61.5 -172t-190.5 -58q-105 0 -161 41.5t-56 129.5zM288 322
q-81 0 -124.5 -38t-43.5 -121q0 -57 33 -83t102 -26q85 0 126.5 39.5t41.5 123.5q0 54 -33 79.5t-102 25.5zM296 391q79 0 115.5 41.5t36.5 116.5q0 54 -30 76.5t-90 22.5q-78 0 -114.5 -39.5t-36.5 -114.5q0 -48 27.5 -75.5t91.5 -27.5z" />
    <glyph glyph-name="nine" unicode="9" horiz-adv-x="560" 
d="M279 257q-100 0 -151.5 49t-51.5 143q0 22 3 46q16 124 79 176.5t173 52.5q99 0 154.5 -43.5t55.5 -141.5q0 -23 -3 -48q-4 -35 -12 -63t-19.5 -53t-26.5 -48t-34 -48l-211 -279h-90l208 270q-17 -6 -35.5 -9.5t-38.5 -3.5zM288 326q81 0 119 41t48 125q3 21 3 39
q0 57 -29 87t-101 30q-82 0 -120 -40.5t-46 -115.5q-3 -23 -3 -44q0 -61 30 -91.5t99 -30.5z" />
    <glyph glyph-name="colon" unicode=":" horiz-adv-x="207" 
d="M89 472h84l-13 -102h-83zM43 102h84l-12 -102h-84z" />
    <glyph glyph-name="semicolon" unicode=";" horiz-adv-x="207" 
d="M89 472h84l-13 -102h-83zM127 102l-9 -75l-63 -155h-40l28 230h84z" />
    <glyph glyph-name="less" unicode="&#x3c;" horiz-adv-x="560" 
d="M54 323l471 181l-9 -70l-382 -147l346 -147l-8 -64l-426 181z" />
    <glyph glyph-name="equal" unicode="=" horiz-adv-x="560" 
d="M77 427h448l-8 -66h-448zM51 219h448l-8 -66h-448z" />
    <glyph glyph-name="greater" unicode="&#x3e;" horiz-adv-x="560" 
d="M98 504l425 -181l-8 -66l-470 -181l8 70l382 147l-345 147z" />
    <glyph glyph-name="question" unicode="?" horiz-adv-x="388" 
d="M127 259q4 31 19.5 56t36 46.5t43.5 41t42.5 41.5t32 47.5t12.5 58.5q0 45 -29 65.5t-89 20.5h-121l9 76h117q101 0 148 -42t47 -108q0 -44 -14 -76.5t-35.5 -57.5t-46.5 -45.5t-47.5 -40.5t-38.5 -41.5t-19 -49.5l-4 -37h-69zM101 102h83l-11 -102h-84z" />
    <glyph glyph-name="at" unicode="@" horiz-adv-x="850" 
d="M238 287q15 123 61.5 178.5t137.5 55.5q42 0 71.5 -16.5t43.5 -53.5l7 62h73l-39 -319q-1 -8 -1.5 -14t-0.5 -12q0 -58 43 -58q19 0 33.5 7t26.5 30t21.5 65t17.5 113q4 29 5.5 54.5t1.5 48.5q0 67 -16 110.5t-48.5 68.5t-82.5 34.5t-117 9.5q-79 0 -138 -14t-101 -53.5
t-68 -109.5t-40 -182q-4 -32 -6 -61t-2 -55q0 -74 17.5 -122.5t54.5 -77.5t94.5 -40.5t137.5 -11.5h53l-9 -67h-43q-104 0 -176.5 19t-118 58.5t-66 100t-20.5 143.5q0 27 1.5 56t5.5 61q16 127 48 210t83 132t123.5 68t168.5 19q84 0 147.5 -14.5t106.5 -49t64.5 -91
t21.5 -140.5q0 -25 -2 -51.5t-5 -55.5q-9 -83 -24 -136t-36 -83.5t-49 -42t-62 -11.5q-46 0 -77.5 18.5t-39.5 63.5q-19 -42 -49 -62t-78 -20q-78 0 -118.5 40.5t-40.5 131.5q0 15 1 31.5t3 34.5zM315 285q-2 -20 -3.5 -37.5t-1.5 -31.5q0 -60 21.5 -83t67.5 -23
q29 0 50.5 8.5t37 28.5t25.5 54t16 84q2 19 3 35.5t1 30.5q0 59 -22 81t-68 22q-29 0 -50 -8t-36 -27t-25 -52t-16 -82z" />
    <glyph glyph-name="A" unicode="A" horiz-adv-x="562" 
d="M292 712h90l136 -712h-82l-32 172h-270l-73 -172h-78zM164 242h228l-68 372z" />
    <glyph glyph-name="B" unicode="B" horiz-adv-x="577" 
d="M138 712h228q89 0 134 -42t45 -118q0 -8 -0.5 -16t-1.5 -15q-7 -64 -33.5 -100t-62.5 -49q42 -21 61.5 -58.5t19.5 -87.5q0 -8 -0.5 -15t-1.5 -15q-11 -100 -61.5 -148t-147.5 -48h-266zM174 330l-32 -264h166q57 0 92 30t44 103q1 6 1.5 15.5t0.5 16.5q0 55 -27 77
t-76 22h-169zM211 636l-28 -235h154q32 0 53.5 7.5t36 22.5t22 37.5t11.5 52.5q1 8 1.5 16t0.5 15q0 43 -22.5 63.5t-76.5 20.5h-152z" />
    <glyph glyph-name="C" unicode="C" horiz-adv-x="590" 
d="M288 -12q-64 0 -108.5 13t-72.5 42.5t-40.5 76t-12.5 113.5q0 56 9 128q12 99 32 168t54 112.5t85.5 63t125.5 19.5q61 0 102.5 -13t66 -39.5t35 -67t10.5 -95.5q0 -14 -0.5 -28.5t-1.5 -29.5h-78q1 13 1 24.5v22.5q0 42 -6.5 70.5t-22 46t-41.5 25.5t-65 8
q-52 0 -88 -13.5t-60 -46.5t-39 -88t-25 -139q-5 -43 -8 -78t-3 -64q0 -48 8 -80t26 -50.5t46.5 -26.5t69.5 -8q45 0 75 11t50.5 35.5t34 63.5t24.5 95h79q-12 -73 -32 -124.5t-51 -84t-75 -47.5t-104 -15z" />
    <glyph glyph-name="D" unicode="D" horiz-adv-x="615" 
d="M138 712h213q62 0 106.5 -13.5t73 -42t42 -74.5t13.5 -110q0 -26 -1.5 -54t-5.5 -60q-12 -98 -31.5 -166.5t-53.5 -111t-85 -61.5t-126 -19h-232zM211 636l-69 -570h139q52 0 88 13.5t60 47t39 90.5t26 144q9 69 9 117q0 45 -8 75t-26 48.5t-47 26.5t-71 8h-140z" />
    <glyph glyph-name="E" unicode="E" horiz-adv-x="510" 
d="M138 712h381l-9 -76h-299l-28 -235h274l-9 -70h-274l-32 -265h298l-8 -66h-381z" />
    <glyph glyph-name="F" unicode="F" horiz-adv-x="485" 
d="M138 712h370l-9 -76h-288l-28 -235h263l-9 -70h-263l-40 -331h-83z" />
    <glyph glyph-name="G" unicode="G" horiz-adv-x="598" 
d="M326 370h240l-12 -102q-17 -143 -79.5 -211.5t-185.5 -68.5q-62 0 -106.5 13t-73 42.5t-42 76t-13.5 113.5q0 56 9 128q12 99 32 168t54 112.5t85 63t126 19.5q64 0 106.5 -15t67.5 -44.5t35 -74t8 -102.5h-79q3 85 -27.5 122.5t-110.5 37.5q-52 0 -88 -13.5t-60 -46.5
t-39 -88t-25 -139q-5 -43 -8 -78t-3 -64q0 -48 8 -80t26 -50.5t46.5 -26.5t69.5 -8q45 0 77.5 12t54.5 37.5t35.5 66.5t20.5 98l4 32h-162z" />
    <glyph glyph-name="H" unicode="H" horiz-adv-x="638" 
d="M138 712h83l-38 -311h309l38 311h83l-87 -712h-83l40 330h-309l-40 -330h-83z" />
    <glyph glyph-name="I" unicode="I" horiz-adv-x="246" 
d="M138 712h83l-87 -712h-83z" />
    <glyph glyph-name="J" unicode="J" horiz-adv-x="385" 
d="M74 66q69 0 102.5 29t41.5 95l64 522h83l-64 -520q-12 -98 -63 -145t-162 -47h-88l7 66h79z" />
    <glyph glyph-name="K" unicode="K" horiz-adv-x="567" 
d="M138 712h83l-47 -385l348 385h95l-282 -311l193 -401h-89l-164 340l-115 -128l-26 -212h-83z" />
    <glyph glyph-name="L" unicode="L" horiz-adv-x="477" 
d="M138 712h83l-79 -646h298l-8 -66h-381z" />
    <glyph glyph-name="M" unicode="M" horiz-adv-x="778" 
d="M37 0l115 712h85l138 -576l277 576h85l-57 -712h-80l42 526l-256 -526h-54l-130 535l-85 -535h-80z" />
    <glyph glyph-name="N" unicode="N" horiz-adv-x="638" 
d="M138 712h73l251 -550l68 550h83l-87 -712h-73l-252 549l-67 -549h-83z" />
    <glyph glyph-name="O" unicode="O" horiz-adv-x="623" 
d="M288 -12q-62 0 -106 13.5t-72.5 43.5t-42 77t-13.5 114q0 56 9 128q12 99 32 167.5t54 111.5t85.5 62t125.5 19q62 0 106.5 -13.5t73 -43t42 -76t13.5 -112.5q0 -27 -2 -57t-6 -64q-12 -103 -32 -173.5t-54.5 -114t-86 -63t-126.5 -19.5zM287 54q53 0 88.5 13.5t59.5 48
t39 94t27 151.5q5 37 7.5 68t2.5 57q0 46 -8 77t-26 50t-47 27t-70 8q-52 0 -88 -13.5t-60 -46.5t-39 -88t-25 -139q-5 -43 -8 -78t-3 -64q0 -48 8 -80t26 -50.5t46.5 -26.5t69.5 -8z" />
    <glyph glyph-name="P" unicode="P" horiz-adv-x="542" 
d="M138 712h214q97 0 143 -39t46 -131q0 -24 -3 -51q-7 -61 -24 -101t-44.5 -64t-65.5 -33.5t-87 -9.5h-149l-34 -283h-83zM211 636l-34 -284h139q33 0 57.5 6t41 22t26.5 43.5t15 70.5q3 28 3 48q0 55 -25.5 74.5t-81.5 19.5h-141z" />
    <glyph glyph-name="Q" unicode="Q" horiz-adv-x="623" 
d="M288 -12q-62 0 -106 13.5t-72.5 43.5t-42 77t-13.5 114q0 56 9 128q12 99 32 167.5t54 111.5t85.5 62t125.5 19q62 0 106.5 -13.5t73 -43t42 -75.5t13.5 -112q0 -27 -1.5 -57t-6.5 -65q-11 -85 -27 -145t-45 -105l85 -108h-90l-40 50q-34 -29 -76.5 -45.5t-105.5 -16.5z
M333 341l131 -167q12 34 20.5 80t16.5 107q5 37 7.5 68t2.5 57q0 46 -8.5 77t-26.5 50t-47 27t-69 8q-52 0 -88 -13.5t-60 -46.5t-39 -88t-25 -139q-5 -43 -8 -78t-3 -64q0 -48 8 -80t26 -50.5t46.5 -26.5t69.5 -8q48 0 82 11t58 39l-106 135z" />
    <glyph glyph-name="R" unicode="R" horiz-adv-x="558" 
d="M138 712h214q96 0 142.5 -38.5t46.5 -130.5q0 -24 -3 -52q-6 -53 -19 -88.5t-33.5 -58.5t-49 -35t-65.5 -16l128 -293h-89l-121 283h-121l-34 -283h-83zM211 636l-34 -284h139q33 0 57 6t40.5 22t26.5 43.5t15 70.5q2 14 3 25.5t1 22.5q0 55 -25.5 74.5t-81.5 19.5h-141z
" />
    <glyph glyph-name="S" unicode="S" horiz-adv-x="543" 
d="M115 216q-6 -87 25.5 -124.5t110.5 -37.5q34 0 63 8.5t50 26.5t33 46t12 68q0 49 -30.5 71.5t-83.5 37.5l-54 15q-35 10 -64 23t-50 33t-33 48t-12 67q0 104 61.5 165t173.5 61q63 0 104.5 -16t65.5 -46t32 -74t5 -100h-79q2 45 -4.5 75.5t-22.5 49.5t-42 27t-62 8
q-64 0 -106 -34.5t-42 -105.5q0 -25 8 -42.5t23 -29.5t35.5 -20.5t45.5 -15.5l55 -15q38 -11 67.5 -25.5t50 -35t31 -48t10.5 -64.5q0 -108 -63 -166t-180 -58q-121 0 -171.5 55t-41.5 173h79z" />
    <glyph glyph-name="T" unicode="T" horiz-adv-x="522" 
d="M73 712h487l-9 -76h-203l-77 -636h-82l77 636h-202z" />
    <glyph glyph-name="U" unicode="U" horiz-adv-x="624" 
d="M132 712h83l-59 -477q-3 -29 -3 -52q0 -71 32.5 -100t102.5 -29q41 0 71.5 9.5t51.5 31t34 56t19 84.5l58 477h83l-59 -477q-8 -63 -25.5 -109t-48 -77t-76 -46t-109.5 -15q-114 0 -166 47t-52 144q0 14 1 27.5t3 28.5z" />
    <glyph glyph-name="V" unicode="V" horiz-adv-x="562" 
d="M69 712h82l112 -614l263 614h79l-310 -712h-90z" />
    <glyph glyph-name="W" unicode="W" horiz-adv-x="886" 
d="M72 712h82l75 -605l243 605h61l91 -602l224 602h79l-271 -712h-88l-84 555l-225 -555h-91z" />
    <glyph glyph-name="X" unicode="X" horiz-adv-x="518" 
d="M224 366l-151 346h87l122 -282l188 282h88l-238 -350l159 -362h-87l-128 297l-198 -297h-87z" />
    <glyph glyph-name="Y" unicode="Y" horiz-adv-x="543" 
d="M235 298l-167 414h89l131 -334l214 334h86l-272 -418l-34 -294h-83z" />
    <glyph glyph-name="Z" unicode="Z" horiz-adv-x="488" 
d="M85 712h431l-5 -50l-400 -596h318l-8 -66h-414l5 50l392 586h-328z" />
    <glyph glyph-name="bracketleft" unicode="[" horiz-adv-x="309" 
d="M144 772h193l-8 -66h-122l-96 -788h121l-8 -66h-193z" />
    <glyph glyph-name="backslash" unicode="\" horiz-adv-x="452" 
d="M384 0h-68l-224 712h68z" />
    <glyph glyph-name="bracketright" unicode="]" horiz-adv-x="309" 
d="M178 -148h-192l8 66h120l97 788h-121l8 66h193z" />
    <glyph glyph-name="asciicircum" unicode="^" horiz-adv-x="560" 
d="M308 712h60l97 -243h-65l-69 173l-110 -173h-69z" />
    <glyph glyph-name="underscore" unicode="_" horiz-adv-x="578" 
d="M509 -12l-8 -72h-505l8 72h505z" />
    <glyph glyph-name="grave" unicode="`" horiz-adv-x="468" 
d="M162 724h85l60 -156h-62z" />
    <glyph glyph-name="a" unicode="a" horiz-adv-x="454" 
d="M161 -8q-66 0 -102.5 33t-36.5 91q0 46 17.5 76.5t47.5 50t69.5 30t83.5 17.5l76 12l4 32q1 9 1.5 17.5t0.5 16.5q0 37 -16.5 55.5t-61.5 18.5q-53 0 -77 -21t-32 -76h-73q6 40 18 71.5t34 52.5t55.5 32t82.5 11q82 0 116.5 -37t34.5 -98q0 -8 -0.5 -16.5t-1.5 -16.5
l-41 -344h-77l7 60q-17 -28 -48.5 -48t-80.5 -20zM179 57q51 0 82.5 29t38.5 80l9 73l-70 -10q-23 -3 -47 -8t-44 -16t-32.5 -29.5t-12.5 -47.5q0 -71 76 -71z" />
    <glyph glyph-name="b" unicode="b" horiz-adv-x="509" 
d="M124 712h80l-33 -267q43 67 133 67q85 0 124.5 -46.5t39.5 -146.5q0 -17 -1 -34t-3 -37q-14 -136 -65.5 -196t-151.5 -60q-48 0 -79.5 18t-45.5 58l-8 -68h-77zM242 58q32 0 56 10t41 32.5t28 59.5t18 92q2 20 3.5 38t1.5 34q0 65 -24.5 90t-76.5 25q-32 0 -56 -9
t-40.5 -31t-27.5 -57.5t-17 -89.5q-2 -22 -3.5 -40.5t-1.5 -35.5q0 -66 22.5 -92t76.5 -26z" />
    <glyph glyph-name="c" unicode="c" horiz-adv-x="459" 
d="M215 -8q-91 0 -134 42.5t-43 140.5q0 17 1.5 37t3.5 41q9 68 25 117t42 80.5t64 46.5t90 15q94 0 132 -49t33 -146h-76q0 35 -4.5 58.5t-15 37.5t-28.5 20t-45 6q-31 0 -54 -9t-39 -30.5t-26.5 -57t-17.5 -89.5q-6 -47 -6 -79q0 -67 23 -91.5t73 -24.5q53 0 82 29t43 104
h76q-20 -108 -68 -153.5t-131 -45.5z" />
    <glyph glyph-name="d" unicode="d" horiz-adv-x="508" 
d="M204 -8q-85 0 -125.5 44t-40.5 140q0 36 6 80q8 68 24.5 116.5t43 79.5t64 45.5t87.5 14.5q45 0 75 -16.5t45 -52.5l33 269h80l-87 -712h-77l7 65q-43 -73 -135 -73zM217 58q32 0 56 10t41 32.5t28 59.5t18 92q2 20 3.5 38t1.5 34q0 65 -24 90t-76 25q-32 0 -55.5 -9
t-40.5 -31t-27.5 -57.5t-17.5 -89.5q-6 -44 -6 -76q0 -66 23.5 -92t75.5 -26z" />
    <glyph glyph-name="e" unicode="e" horiz-adv-x="467" 
d="M213 -8q-90 0 -132.5 43.5t-42.5 141.5q0 34 6 76q8 68 24.5 117t43.5 80.5t65 46.5t89 15q88 0 126.5 -44.5t38.5 -133.5q0 -16 -1.5 -33.5t-3.5 -36.5l-2 -19h-301q-3 -21 -4 -38.5t-1 -32.5q0 -35 6 -57.5t19 -35.5t31.5 -18t44.5 -5q52 0 78.5 20t39.5 71h72
q-17 -75 -62 -116t-134 -41zM262 439q-26 0 -46.5 -6t-36.5 -21t-27.5 -40.5t-19.5 -64.5h224q3 38 -1.5 63.5t-16 40.5t-30.5 21.5t-46 6.5z" />
    <glyph glyph-name="f" unicode="f" horiz-adv-x="312" 
d="M54 504h63l6 50q10 76 54 117t123 41h63l-9 -73h-60q-43 0 -64.5 -20t-26.5 -63l-6 -52h129l-9 -70h-129l-52 -434h-80l52 434h-63z" />
    <glyph glyph-name="g" unicode="g" horiz-adv-x="508" 
d="M204 -8q-85 0 -125.5 43t-40.5 139q0 35 6 79q16 136 67.5 197.5t151.5 61.5q46 0 77 -18t45 -57l9 67h77l-67 -543q-11 -90 -59 -133.5t-145 -43.5q-53 0 -87 11.5t-54 33t-27.5 52.5t-5.5 69h76q-4 -54 17 -77t80 -23q57 0 87 23.5t38 87.5l12 99q-44 -68 -132 -68z
M217 58q32 0 56 10t41 32.5t28 59.5t18 92q2 20 3.5 38t1.5 34q0 65 -24 90t-76 25q-32 0 -55.5 -9t-40.5 -31t-27.5 -57.5t-17.5 -89.5q-6 -44 -6 -76q0 -66 23.5 -92t75.5 -26z" />
    <glyph glyph-name="h" unicode="h" horiz-adv-x="496" 
d="M124 712h80l-32 -263q37 63 126 63q72 0 109 -36.5t37 -105.5v-17.5t-2 -18.5l-41 -334h-80l39 317q3 21 3 37q0 46 -21 65.5t-66 19.5q-54 0 -83.5 -26.5t-37.5 -95.5l-38 -317h-80z" />
    <glyph glyph-name="i" unicode="i" horiz-adv-x="216" 
d="M124 712h80l-12 -94h-79zM99 504h80l-62 -504h-80z" />
    <glyph glyph-name="j" unicode="j" horiz-adv-x="216" 
d="M124 712h80l-12 -94h-79zM99 504h80l-71 -576q-8 -66 -42 -101t-101 -35h-43l9 66h25q33 0 49.5 14.5t21.5 50.5z" />
    <glyph glyph-name="k" unicode="k" horiz-adv-x="454" 
d="M124 712h80l-56 -453l233 245h94l-203 -213l141 -291h-86l-112 235l-79 -80l-19 -155h-80z" />
    <glyph glyph-name="l" unicode="l" horiz-adv-x="216" 
d="M124 712h80l-87 -712h-80z" />
    <glyph glyph-name="m" unicode="m" horiz-adv-x="780" 
d="M99 504h77l-8 -60q36 68 130 68q54 0 88.5 -22t48.5 -62q20 42 57.5 63t89.5 21q72 0 109 -36.5t37 -105.5v-17.5t-2 -18.5l-41 -334h-80l39 317q3 21 3 37q0 46 -21 65.5t-66 19.5q-54 0 -83 -27t-37 -95l-39 -317h-80l39 317q3 21 3 37q0 46 -21 65.5t-66 19.5
q-54 0 -83 -27t-37 -95l-39 -317h-80z" />
    <glyph glyph-name="n" unicode="n" horiz-adv-x="496" 
d="M99 504h77l-8 -61q37 69 130 69q72 0 109 -36.5t37 -105.5v-17.5t-2 -18.5l-41 -334h-80l39 317q3 21 3 37q0 46 -21 65.5t-66 19.5q-54 0 -83.5 -27t-37.5 -95l-38 -317h-80z" />
    <glyph glyph-name="o" unicode="o" horiz-adv-x="484" 
d="M214 -8q-93 0 -134.5 43.5t-41.5 140.5q0 38 6 79q9 68 25 116.5t42.5 80t65 46t92.5 14.5q93 0 134.5 -43.5t41.5 -142.5q0 -17 -1.5 -37t-3.5 -40q-9 -68 -25.5 -116.5t-43 -80t-65 -46t-92.5 -14.5zM217 58q32 0 56 10t41 32.5t28 59.5t18 92q2 20 3.5 38t1.5 34
q0 65 -24 90t-76 25q-32 0 -55.5 -9t-40.5 -31t-27.5 -57.5t-17.5 -89.5q-6 -44 -6 -76q0 -66 23.5 -92t75.5 -26z" />
    <glyph glyph-name="p" unicode="p" horiz-adv-x="509" 
d="M99 504h77l-8 -64q43 72 136 72q84 0 125 -45.5t41 -142.5q0 -36 -6 -76q-9 -68 -25 -116.5t-42 -79.5t-63 -45.5t-87 -14.5q-45 0 -76.5 16.5t-46.5 52.5l-33 -269h-79zM242 58q32 0 56 10t41 32.5t28 59.5t18 92q2 20 3.5 38t1.5 34q0 65 -24.5 90t-76.5 25
q-32 0 -56 -9t-40.5 -31t-27.5 -57.5t-17 -89.5q-2 -22 -3.5 -40.5t-1.5 -35.5q0 -66 22.5 -92t76.5 -26z" />
    <glyph glyph-name="q" unicode="q" horiz-adv-x="508" 
d="M204 -8q-85 0 -125.5 43t-40.5 139q0 35 6 79q16 136 67.5 197.5t151.5 61.5q46 0 77 -18t45 -57l9 67h77l-88 -712h-80l33 269q-44 -69 -132 -69zM217 58q32 0 56 10t41 32.5t28 59.5t18 92q2 20 3.5 38t1.5 34q0 65 -24 90t-76 25q-32 0 -55.5 -9t-40.5 -31
t-27.5 -57.5t-17.5 -89.5q-6 -44 -6 -76q0 -66 23.5 -92t75.5 -26z" />
    <glyph glyph-name="r" unicode="r" horiz-adv-x="310" 
d="M76 354q8 72 48 111t115 39h86l-9 -70h-76q-75 0 -84 -74l-43 -360h-80z" />
    <glyph glyph-name="s" unicode="s" horiz-adv-x="428" 
d="M99 143q-2 -50 20.5 -68.5t70.5 -18.5q49 0 77.5 19.5t28.5 70.5q0 29 -18 42t-66 25l-51 13q-49 12 -76 40t-27 82q0 164 180 164q40 0 71.5 -8t52 -26.5t29 -49t3.5 -74.5h-73q4 53 -16.5 70.5t-68.5 17.5t-74.5 -18.5t-26.5 -66.5q0 -26 15.5 -41t57.5 -26l52 -13
q60 -15 87 -45.5t27 -78.5q0 -82 -48 -121.5t-139 -39.5q-48 0 -79.5 11t-50 31.5t-25.5 48t-6 60.5h73z" />
    <glyph glyph-name="t" unicode="t" horiz-adv-x="330" 
d="M51 504h66l15 120h77l-15 -120h149l-10 -70h-147l-34 -276q-1 -8 -1.5 -15t-0.5 -13q0 -35 17.5 -49.5t58.5 -14.5h62l-7 -66h-70q-69 0 -105 31t-36 94q0 8 0.5 15t1.5 15l34 279h-64z" />
    <glyph glyph-name="u" unicode="u" horiz-adv-x="496" 
d="M175 504l-39 -318q-3 -21 -3 -39q0 -47 20.5 -68t65.5 -21q51 0 81 28.5t39 99.5l40 318h80l-62 -504h-77l7 60q-38 -68 -130 -68q-72 0 -109 36.5t-37 105.5v17.5t2 18.5l42 334h80z" />
    <glyph glyph-name="v" unicode="v" horiz-adv-x="440" 
d="M44 504h81l79 -394l176 394h78l-232 -504h-74z" />
    <glyph glyph-name="w" unicode="w" horiz-adv-x="694" 
d="M44 504h82l62 -387l163 387h57l69 -387l157 387h78l-214 -504h-73l-65 358l-152 -358h-74z" />
    <glyph glyph-name="x" unicode="x" horiz-adv-x="435" 
d="M172 252l-124 252h85l91 -192l140 192h84l-187 -253l126 -251h-84l-94 192l-138 -192h-84z" />
    <glyph glyph-name="y" unicode="y" horiz-adv-x="440" 
d="M29 -142q32 0 54.5 17.5t42.5 62.5l28 62l-108 504h81l80 -388l175 388h78l-263 -571q-16 -34 -31 -60.5t-33.5 -44.5t-43.5 -27t-61 -9h-45l8 66h38z" />
    <glyph glyph-name="z" unicode="z" horiz-adv-x="399" 
d="M64 504h334l-6 -46l-280 -392h226l-7 -66h-324l5 46l275 388h-232z" />
    <glyph glyph-name="braceleft" unicode="{" horiz-adv-x="369" 
d="M173 625q10 81 55 114t112 33h56l-8 -66h-56q-44 0 -63.5 -18.5t-25.5 -67.5l-22 -182q-4 -30 -10.5 -52t-17 -36.5t-26 -23.5t-36.5 -13v-2q32 -8 47.5 -27t15.5 -59q0 -17 -3 -39l-23 -182q-1 -8 -1.5 -14.5t-0.5 -12.5q0 -33 16 -46t54 -13h56l-9 -66h-56
q-33 0 -59.5 8t-44 25t-25 45t-2.5 69l25 203q1 6 1.5 12t0.5 11q0 34 -16 45.5t-44 11.5h-33l8 60h32q33 0 52.5 16.5t25.5 63.5z" />
    <glyph glyph-name="bar" unicode="|" horiz-adv-x="306" 
d="M185 784h67l-121 -992h-67z" />
    <glyph glyph-name="braceright" unicode="}" horiz-adv-x="369" 
d="M263 422q-1 -7 -1.5 -12.5t-0.5 -10.5q0 -33 15.5 -45t44.5 -12h32l-7 -60h-33q-32 0 -51.5 -16.5t-25.5 -63.5l-25 -203q-10 -81 -55 -114t-112 -33h-55l8 66h55q44 0 63.5 18.5t25.5 67.5l22 182q7 61 27 88.5t62 36.5v2q-32 8 -47 27t-15 59q0 16 3 39l23 182
q1 8 1.5 14.5t0.5 12.5q0 33 -16 46t-54 13h-56l9 66h56q33 0 59.5 -8t44 -25t25 -45.5t2.5 -68.5z" />
    <glyph glyph-name="asciitilde" unicode="~" horiz-adv-x="560" 
d="M65 323q8 7 18.5 16.5t25 18.5t33.5 15t43 6q37 0 63 -12.5t48 -27.5t44.5 -27.5t53.5 -12.5q24 0 43.5 6.5t34.5 15.5t26 18.5t19 15.5l-8 -66q-8 -7 -18.5 -16.5t-25 -18.5t-33.5 -15t-43 -6q-35 0 -59 12.5t-46 27.5t-46 27.5t-58 12.5q-24 0 -43 -6t-34 -15
t-26.5 -18.5t-19.5 -16.5z" />
    <glyph glyph-name="uni00A0" unicode="&#xa0;" horiz-adv-x="214" 
 />
    <glyph glyph-name="exclamdown" unicode="&#xa1;" horiz-adv-x="225" 
d="M127 712h84l-13 -102h-83zM121 498h44l-43 -498h-80z" />
    <glyph glyph-name="cent" unicode="&#xa2;" horiz-adv-x="560" 
d="M232 98q-75 10 -111 54t-36 134q0 17 1 34t3 37q15 125 63 187t143 70l12 98h80l-12 -99q75 -11 108 -59t30 -133h-78q0 70 -25.5 96t-85.5 26q-35 0 -61 -9t-44.5 -30.5t-30.5 -57t-19 -89.5q-2 -20 -3.5 -37.5t-1.5 -32.5q0 -72 28 -98.5t86 -26.5q60 0 94 29t48 104
h76q-19 -99 -63.5 -144.5t-120.5 -53.5l-12 -97h-80z" />
    <glyph glyph-name="sterling" unicode="&#xa3;" horiz-adv-x="560" 
d="M50 369h61l19 151q12 96 67.5 150t162.5 54q59 0 97.5 -16.5t60 -47t28.5 -74.5t4 -98h-78q2 45 -3 75.5t-18.5 49.5t-36.5 27t-57 8q-66 0 -101 -29.5t-43 -98.5l-19 -151h195l-9 -70h-194l-28 -233h337l-7 -66h-421l36 299h-62z" />
    <glyph glyph-name="currency" unicode="&#xa4;" horiz-adv-x="560" 
d="M102 227l56 50q-18 28 -18 68q0 29 10 56.5t27 50.5l-42 49l39 35l42 -48q20 13 43 20.5t49 7.5q52 0 87 -28l56 51l34 -38l-56 -50q17 -29 17 -66q0 -61 -38 -108l44 -50l-40 -35l-42 48q-40 -28 -92 -28q-26 0 -48 7t-39 20l-56 -50zM282 268q21 0 40 8.5t33.5 23.5
t23.5 35t9 43q0 36 -23 58.5t-60 22.5q-21 0 -40.5 -8.5t-34.5 -23t-23.5 -34.5t-8.5 -42q0 -36 23 -59.5t61 -23.5z" />
    <glyph glyph-name="yen" unicode="&#xa5;" horiz-adv-x="560" 
d="M70 352h146l-138 360h89l127 -341l215 341h85l-229 -360h148l-9 -69h-181l-9 -74h182l-9 -70h-181l-17 -139h-83l17 139h-179l9 70h178l9 74h-179z" />
    <glyph glyph-name="brokenbar" unicode="&#xa6;" horiz-adv-x="306" 
d="M184 784h68l-46 -380h-68zM179 187l-48 -395h-68l48 395h68z" />
    <glyph glyph-name="section" unicode="&#xa7;" horiz-adv-x="550" 
d="M225 362q-27 10 -50.5 23t-41 31.5t-27 43t-9.5 57.5q0 97 59.5 152t162.5 55q63 0 105.5 -16t68 -46t34.5 -74t5 -100h-79q4 90 -29 125t-106 35q-26 0 -50.5 -6.5t-44 -21t-31 -37t-11.5 -54.5q0 -23 7.5 -38t21 -26.5t32 -19.5t40.5 -16l103 -38q30 -11 54 -23
t40 -26.5t24.5 -32.5t8.5 -42q0 -32 -13.5 -59.5t-34.5 -52.5l-58 27q10 12 17 28t7 33q0 29 -24 45.5t-70 33.5zM97 20q-5 -90 29 -128.5t106 -38.5q27 0 51.5 7.5t43 22.5t30 38.5t11.5 55.5q0 22 -7.5 37t-21 25.5t-32 18.5t-39.5 16l-103 37q-60 22 -93 49.5t-33 74.5
q0 32 13 59.5t34 52.5l57 -26q-9 -13 -15.5 -29t-6.5 -33q0 -28 24 -44.5t69 -33.5l112 -41q27 -10 50 -22.5t40 -30.5t26.5 -42t9.5 -56q0 -47 -15.5 -85t-44.5 -64.5t-69.5 -41t-89.5 -14.5q-62 0 -104.5 16t-68 46t-35.5 74t-7 100h79z" />
    <glyph glyph-name="dieresis" unicode="&#xa8;" horiz-adv-x="468" 
d="M328 691h80l-11 -94h-80zM161 691h79l-11 -94h-80z" />
    <glyph glyph-name="copyright" unicode="&#xa9;" horiz-adv-x="700" 
d="M354 -12q-87 0 -146 20t-95 64t-51.5 114t-15.5 170t15 170t51 114t95 64t147 20t147 -20t95 -64t51 -114t15 -170t-15.5 -170t-51.5 -114t-95 -64t-146 -20zM354 32q76 0 126.5 18t80.5 57t42 100.5t12 148.5t-12 148t-42 99.5t-80.5 55.5t-126.5 17q-77 0 -127 -17
t-80 -55.5t-42 -99.5t-12 -148t12 -148.5t42 -100.5t80 -57t127 -18zM358 152q-47 0 -77 11.5t-47.5 37t-24 65.5t-6.5 98q0 62 7.5 102.5t25 64t47.5 32.5t75 9q44 0 70 -10t40 -30.5t19 -51t7 -71.5h-69q-1 28 -4 46t-10.5 29t-20 15.5t-32.5 4.5q-24 0 -40 -5t-25 -20
t-13 -42.5t-4 -72.5q0 -50 4 -80t13 -45.5t25 -20.5t40 -5q20 0 32.5 4.5t20 15.5t10.5 29.5t4 47.5h69q-2 -38 -8 -67.5t-21 -49.5t-40.5 -30.5t-66.5 -10.5z" />
    <glyph glyph-name="ordfeminine" unicode="&#xaa;" horiz-adv-x="383" 
d="M65 296h259l-6 -51h-258zM178 348q-45 0 -70.5 23.5t-25.5 62.5q0 34 13 56.5t34.5 36.5t49 21.5t57.5 12.5l52 9l3 25.5t1 15.5q0 26 -11 38.5t-39 12.5q-35 0 -50.5 -15t-20.5 -52h-62q8 58 38 91.5t101 33.5q31 0 52.5 -8t35 -22t19 -33t5.5 -40v-11.5t-1 -11.5
l-28 -238h-66l6 43q-13 -21 -35.5 -36t-57.5 -15zM238 513q-15 -2 -31 -6t-28.5 -11.5t-20.5 -20t-8 -31.5q0 -43 48 -43q29 0 51.5 16.5t26.5 51.5l6 51z" />
    <glyph glyph-name="guillemotleft" unicode="&#xab;" horiz-adv-x="397" 
d="M188 256l119 192h67l-108 -192l60 -192h-67zM38 256l119 192h66l-108 -192l60 -192h-66z" />
    <glyph glyph-name="logicalnot" unicode="&#xac;" horiz-adv-x="560" 
d="M59 323h448l-32 -263h-66l23 197h-381z" />
    <glyph glyph-name="uni00AD" unicode="&#xad;" horiz-adv-x="414" 
d="M69 325h292l-7 -67h-292z" />
    <glyph glyph-name="registered" unicode="&#xae;" horiz-adv-x="430" 
d="M255 364q-53 0 -88.5 12t-57.5 38t-31 68.5t-9 102.5t9 102t31 68t57.5 38t88.5 12t89 -12t57.5 -38t31 -68t9.5 -102t-9.5 -102.5t-31 -68.5t-57.5 -38t-89 -12zM255 395q45 0 75 10t48 32.5t25 58.5t7 89q0 52 -7 88t-25 58t-48 31.5t-75 9.5t-74.5 -9.5t-47.5 -31.5
t-25 -58t-7 -88q0 -53 7 -89t25 -58.5t47.5 -32.5t74.5 -10zM171 712h91q39 0 60 -19.5t21 -61.5q0 -61 -41 -74l50 -92h-58l-41 79h-31v-79h-51v247zM222 667v-76h37q33 0 33 38t-35 38h-35z" />
    <glyph glyph-name="macron" unicode="&#xaf;" horiz-adv-x="468" 
d="M152 675h262l-7 -58h-262z" />
    <glyph glyph-name="degree" unicode="&#xb0;" horiz-adv-x="330" 
d="M200 487q-51 0 -80 30.5t-29 75.5q0 26 9 49t26 40.5t40.5 27.5t52.5 10q51 0 80 -30t29 -76q0 -26 -9.5 -49t-26 -40t-40.5 -27.5t-52 -10.5zM203 540q29 0 49 20t20 52q0 24 -15 40t-41 16q-29 0 -49 -20.5t-20 -52.5q0 -23 15 -39t41 -16z" />
    <glyph glyph-name="plusminus" unicode="&#xb1;" horiz-adv-x="560" 
d="M78 439h191l23 181h66l-23 -181h191l-7 -66h-192l-22 -181h-66l22 181h-190zM32 66h448l-7 -66h-448z" />
    <glyph glyph-name="uni00B2" unicode="&#xb2;" 
d="M70 555q5 45 32.5 72.5t66.5 46.5l46 23q13 6 25.5 13t22.5 16t16 21.5t6 29.5q0 24 -14 34t-40 10q-35 0 -52 -15t-26 -56h-66q12 63 45.5 96.5t101.5 33.5q63 0 92.5 -26t29.5 -74q0 -45 -28.5 -76.5t-71.5 -51.5l-50 -25q-34 -17 -48 -28t-18 -31h185l-6 -52h-253z
" />
    <glyph glyph-name="uni00B3" unicode="&#xb3;" 
d="M133 632q-2 -42 12.5 -57t50.5 -15q30 0 51 13.5t21 49.5q0 21 -12.5 31.5t-44.5 10.5h-37l7 54h37q28 0 47 14.5t19 45.5q0 42 -58 42q-30 0 -49.5 -14t-26.5 -56h-66q11 63 45 96t101 33q63 0 93 -26.5t30 -68.5q0 -32 -13.5 -52.5t-41.5 -35.5q19 -8 30 -26t11 -45
q0 -60 -40 -89t-106 -29q-69 0 -99.5 28.5t-26.5 95.5h66z" />
    <glyph glyph-name="acute" unicode="&#xb4;" horiz-adv-x="468" 
d="M325 724h91l-123 -156h-68z" />
    <glyph glyph-name="mu" unicode="&#xb5;" horiz-adv-x="513" 
d="M85 -208h-74l87 712h80l-38 -319q-3 -23 -3 -40q0 -47 20.5 -67t65.5 -20q52 0 81.5 28.5t38.5 99.5l39 318h80l-46 -373q-1 -7 -1.5 -13t-0.5 -11q0 -23 10.5 -32t38.5 -9h14l-7 -66h-30q-88 0 -101 61q-21 -35 -54.5 -52t-75.5 -17q-36 0 -59 9.5t-36 27.5z" />
    <glyph glyph-name="paragraph" unicode="&#xb6;" horiz-adv-x="522" 
d="M247 228q-101 0 -146 40.5t-45 137.5q0 36 6 81q7 63 25.5 106.5t48 69.5t71 37.5t95.5 11.5h111l-87 -712h-83l28 228h-24zM455 712h42l-87 -712h-42z" />
    <glyph glyph-name="periodcentered" unicode="&#xb7;" horiz-adv-x="206" 
d="M71 339h85l-13 -102h-85z" />
    <glyph glyph-name="cedilla" unicode="&#xb8;" horiz-adv-x="468" 
d="M186 0h30l-5 -37q52 -3 75 -25t23 -55q0 -26 -10 -44.5t-27 -30.5t-40 -18t-49 -6h-76l6 46h57q28 0 50.5 10.5t22.5 43.5q0 38 -61 38h-28z" />
    <glyph glyph-name="uni00B9" unicode="&#xb9;" 
d="M220 805l-94 -30l7 59l113 38h52l-43 -356h-70z" />
    <glyph glyph-name="ordmasculine" unicode="&#xba;" horiz-adv-x="404" 
d="M72 296h270l-5 -51h-271zM218 348q-69 0 -99 31.5t-30 101.5q0 25 3 55q6 49 17 84t30 57t47 32.5t68 10.5q69 0 99.5 -31.5t30.5 -100.5q0 -26 -3 -54q-6 -49 -17 -84t-30 -57.5t-47.5 -33.5t-68.5 -11zM220 403q22 0 37 6.5t25.5 21.5t17.5 40.5t12 63.5q2 14 3 26.5
t1 23.5q0 43 -15 58.5t-50 15.5q-21 0 -36 -5.5t-25.5 -19.5t-17.5 -38t-11 -61q-2 -17 -3 -30.5t-1 -24.5q0 -45 15 -61t48 -16z" />
    <glyph glyph-name="guillemotright" unicode="&#xbb;" horiz-adv-x="396" 
d="M282 256l-60 192h66l71 -192l-119 -192h-66zM131 256l-60 192h67l70 -192l-118 -192h-67z" />
    <glyph glyph-name="onequarter" unicode="&#xbc;" horiz-adv-x="692" 
d="M178 645l-94 -30l7 59l113 38h52l-43 -356h-70zM586 712h60l-542 -712h-60zM347 121l179 235h87l-28 -225h50l-6 -54h-50l-9 -77h-67l9 77h-170zM518 131l19 156l-121 -156h102z" />
    <glyph glyph-name="onehalf" unicode="&#xbd;" horiz-adv-x="692" 
d="M180 645l-94 -30l7 59l113 38h52l-43 -356h-70zM568 712h60l-542 -712h-60zM360 39q5 45 32.5 72.5t66.5 46.5l46 23q13 6 25.5 13t22.5 16t16 21.5t6 29.5q0 24 -14 34t-40 10q-35 0 -52 -15t-26 -56h-66q12 63 45.5 96.5t101.5 33.5q63 0 92.5 -26t29.5 -74
q0 -45 -28.5 -76.5t-71.5 -51.5l-50 -25q-34 -17 -48 -28t-18 -31h185l-6 -52h-253z" />
    <glyph glyph-name="threequarters" unicode="&#xbe;" horiz-adv-x="692" 
d="M116 472q-2 -42 12.5 -57t50.5 -15q30 0 51 13.5t21 49.5q0 21 -12.5 31.5t-44.5 10.5h-37l7 54h37q28 0 47 14.5t19 45.5q0 42 -58 42q-30 0 -49.5 -14t-26.5 -56h-66q11 63 45 96t101 33q63 0 93 -26.5t30 -68.5q0 -32 -13.5 -52.5t-41.5 -35.5q19 -8 30 -26t11 -45
q0 -60 -40 -89t-106 -29q-69 0 -99.5 28.5t-26.5 95.5h66zM615 712h60l-542 -712h-60zM372 121l179 235h87l-28 -225h50l-6 -54h-50l-9 -77h-67l9 77h-170zM543 131l19 156l-121 -156h102z" />
    <glyph glyph-name="questiondown" unicode="&#xbf;" horiz-adv-x="386" 
d="M241 712h83l-13 -102h-83zM18 151q0 44 14 76t35.5 57.5t46.5 45.5t47.5 40t38.5 41.5t19 49.5l4 37h69l-5 -45q-4 -31 -19.5 -56t-36.5 -46.5t-44 -41.5t-42.5 -42t-32.5 -47.5t-13 -57.5q0 -48 28.5 -72t89.5 -24h121l-8 -66h-116q-102 0 -149 42.5t-47 108.5z" />
    <glyph glyph-name="Agrave" unicode="&#xc0;" horiz-adv-x="562" 
d="M292 712h90l136 -712h-82l-32 172h-270l-73 -172h-78zM164 242h228l-68 372zM232 932h85l60 -156h-62z" />
    <glyph glyph-name="Aacute" unicode="&#xc1;" horiz-adv-x="562" 
d="M292 712h90l136 -712h-82l-32 172h-270l-73 -172h-78zM164 242h228l-68 372zM395 932h91l-123 -156h-68z" />
    <glyph glyph-name="Acircumflex" unicode="&#xc2;" horiz-adv-x="562" 
d="M292 712h90l136 -712h-82l-32 172h-270l-73 -172h-78zM164 242h228l-68 372zM324 932h71l85 -156h-67l-56 110l-84 -110h-73z" />
    <glyph glyph-name="Atilde" unicode="&#xc3;" horiz-adv-x="562" 
d="M292 712h90l136 -712h-82l-32 172h-270l-73 -172h-78zM164 242h228l-68 372zM224 843q5 38 23.5 54t48.5 16q19 0 33 -10t26 -22t23 -22t23 -10q17 0 20 25l4 39h56l-7 -51q-5 -38 -23.5 -54t-47.5 -16q-19 0 -33.5 10t-26.5 21.5t-22.5 21.5t-21.5 10q-18 0 -21 -25
l-5 -38h-55z" />
    <glyph glyph-name="Adieresis" unicode="&#xc4;" horiz-adv-x="562" 
d="M292 712h90l136 -712h-82l-32 172h-270l-73 -172h-78zM164 242h228l-68 372zM398 899h80l-11 -94h-80zM231 899h79l-11 -94h-80z" />
    <glyph glyph-name="Aring" unicode="&#xc5;" horiz-adv-x="562" 
d="M292 712h90l136 -712h-82l-32 172h-270l-73 -172h-78zM164 242h228l-68 372zM344 808q33 0 46 19.5t13 51.5q0 18 -9.5 29.5t-35.5 11.5q-33 0 -46 -20t-13 -52q0 -18 9.5 -29t35.5 -11zM343 769q-88 0 -88 79q0 22 6.5 42t19 35t32 24t46.5 9q88 0 88 -79
q0 -22 -6.5 -42t-19 -35t-32 -24t-46.5 -9z" />
    <glyph glyph-name="AE" unicode="&#xc6;" horiz-adv-x="815" 
d="M331 712h492l-9 -79h-296l-29 -237h273l-8 -70h-273l-31 -254h295l-9 -72h-378l21 172h-232l-84 -172h-84zM182 242h205l48 391h-61z" />
    <glyph glyph-name="Ccedilla" unicode="&#xc7;" horiz-adv-x="590" 
d="M262 -11q-57 2 -96.5 16.5t-64.5 44t-36 74.5t-11 109q0 56 9 128q12 99 32 168t54 112.5t85.5 63t125.5 19.5q61 0 102.5 -13t66 -39.5t35 -67t10.5 -95.5q0 -14 -0.5 -28.5t-1.5 -29.5h-78q1 13 1 24.5v22.5q0 42 -6.5 70.5t-22 46t-41.5 25.5t-65 8q-52 0 -88 -13.5
t-60 -46.5t-39 -88t-25 -139q-5 -43 -8 -78t-3 -64q0 -48 8 -80t26 -50.5t46.5 -26.5t69.5 -8q45 0 75 11t50.5 35.5t34 63.5t24.5 95h79q-12 -72 -31.5 -123t-50 -83.5t-73 -48t-100.5 -16.5l-3 -25q52 -3 75 -25t23 -55q0 -26 -10 -44.5t-27 -30.5t-40 -18t-49 -6h-76
l6 46h57q28 0 50.5 10.5t22.5 43.5q0 38 -61 38h-28z" />
    <glyph glyph-name="Egrave" unicode="&#xc8;" horiz-adv-x="510" 
d="M138 712h381l-9 -76h-299l-28 -235h274l-9 -70h-274l-32 -265h298l-8 -66h-381zM233 932h85l60 -156h-62z" />
    <glyph glyph-name="Eacute" unicode="&#xc9;" horiz-adv-x="510" 
d="M138 712h381l-9 -76h-299l-28 -235h274l-9 -70h-274l-32 -265h298l-8 -66h-381zM396 932h91l-123 -156h-68z" />
    <glyph glyph-name="Ecircumflex" unicode="&#xca;" horiz-adv-x="510" 
d="M138 712h381l-9 -76h-299l-28 -235h274l-9 -70h-274l-32 -265h298l-8 -66h-381zM325 932h71l85 -156h-67l-56 110l-84 -110h-73z" />
    <glyph glyph-name="Edieresis" unicode="&#xcb;" horiz-adv-x="510" 
d="M138 712h381l-9 -76h-299l-28 -235h274l-9 -70h-274l-32 -265h298l-8 -66h-381zM399 899h80l-11 -94h-80zM232 899h79l-11 -94h-80z" />
    <glyph glyph-name="Igrave" unicode="&#xcc;" horiz-adv-x="246" 
d="M138 712h83l-87 -712h-83zM76 932h85l60 -156h-62z" />
    <glyph glyph-name="Iacute" unicode="&#xcd;" horiz-adv-x="246" 
d="M138 712h83l-87 -712h-83zM239 932h91l-123 -156h-68z" />
    <glyph glyph-name="Icircumflex" unicode="&#xce;" horiz-adv-x="246" 
d="M138 712h83l-87 -712h-83zM168 932h71l85 -156h-67l-56 110l-84 -110h-73z" />
    <glyph glyph-name="Idieresis" unicode="&#xcf;" horiz-adv-x="246" 
d="M138 712h83l-87 -712h-83zM242 899h80l-11 -94h-80zM75 899h79l-11 -94h-80z" />
    <glyph glyph-name="Eth" unicode="&#xd0;" horiz-adv-x="633" 
d="M49 397h59l39 315h221q62 0 107 -13.5t73.5 -42.5t42 -75t13.5 -110q0 -26 -2 -53.5t-6 -59.5q-12 -98 -31.5 -166.5t-53.5 -111t-85 -61.5t-126 -19h-240l41 334h-60zM220 636l-29 -239h147l-8 -63h-146l-33 -268h147q52 0 88 13.5t60 47t39 90.5t26 144q9 69 9 117
q0 45 -8 75t-26 48.5t-47 26.5t-71 8h-148z" />
    <glyph glyph-name="Ntilde" unicode="&#xd1;" horiz-adv-x="638" 
d="M138 712h73l251 -550l68 550h83l-87 -712h-73l-252 549l-67 -549h-83zM272 843q5 38 23.5 54t48.5 16q19 0 33 -10t26 -22t23 -22t23 -10q17 0 20 25l4 39h56l-7 -51q-5 -38 -23.5 -54t-47.5 -16q-19 0 -33.5 10t-26.5 21.5t-22.5 21.5t-21.5 10q-18 0 -21 -25l-5 -38
h-55z" />
    <glyph glyph-name="Ograve" unicode="&#xd2;" horiz-adv-x="623" 
d="M288 -12q-62 0 -106 13.5t-72.5 43.5t-42 77t-13.5 114q0 56 9 128q12 99 32 167.5t54 111.5t85.5 62t125.5 19q62 0 106.5 -13.5t73 -43t42 -76t13.5 -112.5q0 -27 -2 -57t-6 -64q-12 -103 -32 -173.5t-54.5 -114t-86 -63t-126.5 -19.5zM287 54q53 0 88.5 13.5t59.5 48
t39 94t27 151.5q5 37 7.5 68t2.5 57q0 46 -8 77t-26 50t-47 27t-70 8q-52 0 -88 -13.5t-60 -46.5t-39 -88t-25 -139q-5 -43 -8 -78t-3 -64q0 -48 8 -80t26 -50.5t46.5 -26.5t69.5 -8zM269 932h85l60 -156h-62z" />
    <glyph glyph-name="Oacute" unicode="&#xd3;" horiz-adv-x="623" 
d="M288 -12q-62 0 -106 13.5t-72.5 43.5t-42 77t-13.5 114q0 56 9 128q12 99 32 167.5t54 111.5t85.5 62t125.5 19q62 0 106.5 -13.5t73 -43t42 -76t13.5 -112.5q0 -27 -2 -57t-6 -64q-12 -103 -32 -173.5t-54.5 -114t-86 -63t-126.5 -19.5zM287 54q53 0 88.5 13.5t59.5 48
t39 94t27 151.5q5 37 7.5 68t2.5 57q0 46 -8 77t-26 50t-47 27t-70 8q-52 0 -88 -13.5t-60 -46.5t-39 -88t-25 -139q-5 -43 -8 -78t-3 -64q0 -48 8 -80t26 -50.5t46.5 -26.5t69.5 -8zM432 932h91l-123 -156h-68z" />
    <glyph glyph-name="Ocircumflex" unicode="&#xd4;" horiz-adv-x="623" 
d="M288 -12q-62 0 -106 13.5t-72.5 43.5t-42 77t-13.5 114q0 56 9 128q12 99 32 167.5t54 111.5t85.5 62t125.5 19q62 0 106.5 -13.5t73 -43t42 -76t13.5 -112.5q0 -27 -2 -57t-6 -64q-12 -103 -32 -173.5t-54.5 -114t-86 -63t-126.5 -19.5zM287 54q53 0 88.5 13.5t59.5 48
t39 94t27 151.5q5 37 7.5 68t2.5 57q0 46 -8 77t-26 50t-47 27t-70 8q-52 0 -88 -13.5t-60 -46.5t-39 -88t-25 -139q-5 -43 -8 -78t-3 -64q0 -48 8 -80t26 -50.5t46.5 -26.5t69.5 -8zM361 932h71l85 -156h-67l-56 110l-84 -110h-73z" />
    <glyph glyph-name="Otilde" unicode="&#xd5;" horiz-adv-x="623" 
d="M288 -12q-62 0 -106 13.5t-72.5 43.5t-42 77t-13.5 114q0 56 9 128q12 99 32 167.5t54 111.5t85.5 62t125.5 19q62 0 106.5 -13.5t73 -43t42 -76t13.5 -112.5q0 -27 -2 -57t-6 -64q-12 -103 -32 -173.5t-54.5 -114t-86 -63t-126.5 -19.5zM287 54q53 0 88.5 13.5t59.5 48
t39 94t27 151.5q5 37 7.5 68t2.5 57q0 46 -8 77t-26 50t-47 27t-70 8q-52 0 -88 -13.5t-60 -46.5t-39 -88t-25 -139q-5 -43 -8 -78t-3 -64q0 -48 8 -80t26 -50.5t46.5 -26.5t69.5 -8zM261 843q5 38 23.5 54t48.5 16q19 0 33 -10t26 -22t23 -22t23 -10q17 0 20 25l4 39h56
l-7 -51q-5 -38 -23.5 -54t-47.5 -16q-19 0 -33.5 10t-26.5 21.5t-22.5 21.5t-21.5 10q-18 0 -21 -25l-5 -38h-55z" />
    <glyph glyph-name="Odieresis" unicode="&#xd6;" horiz-adv-x="623" 
d="M288 -12q-62 0 -106 13.5t-72.5 43.5t-42 77t-13.5 114q0 56 9 128q12 99 32 167.5t54 111.5t85.5 62t125.5 19q62 0 106.5 -13.5t73 -43t42 -76t13.5 -112.5q0 -27 -2 -57t-6 -64q-12 -103 -32 -173.5t-54.5 -114t-86 -63t-126.5 -19.5zM287 54q53 0 88.5 13.5t59.5 48
t39 94t27 151.5q5 37 7.5 68t2.5 57q0 46 -8 77t-26 50t-47 27t-70 8q-52 0 -88 -13.5t-60 -46.5t-39 -88t-25 -139q-5 -43 -8 -78t-3 -64q0 -48 8 -80t26 -50.5t46.5 -26.5t69.5 -8zM435 899h80l-11 -94h-80zM268 899h79l-11 -94h-80z" />
    <glyph glyph-name="multiply" unicode="&#xd7;" horiz-adv-x="560" 
d="M81 152l156 139l-118 135l51 46l118 -135l155 138l43 -49l-155 -138l120 -136l-52 -45l-119 135l-156 -138z" />
    <glyph glyph-name="Oslash" unicode="&#xd8;" horiz-adv-x="633" 
d="M21 85l48 48q-10 39 -10 103q0 56 9 128q12 99 32 167.5t54 111.5t85 62t126 19q78 0 128 -21.5t76 -69.5l79 79l-10 -85l-49 -49q10 -41 10 -99q0 -27 -2 -57t-6 -64q-12 -103 -32 -173.5t-54 -114t-85.5 -63t-126.5 -19.5q-78 0 -128 21t-76 69l-78 -78zM292 54
q53 0 89 13.5t60 48t39 94t26 151.5q9 73 9 125q0 5 -0.5 9t-0.5 8l-364 -364q13 -48 47 -66.5t95 -18.5zM142 206l363 363q-14 45 -47 62t-93 17q-53 0 -89 -13.5t-60 -46.5t-38.5 -88t-24.5 -139q-5 -43 -8 -78t-3 -64v-13z" />
    <glyph glyph-name="Ugrave" unicode="&#xd9;" horiz-adv-x="624" 
d="M132 712h83l-59 -477q-3 -29 -3 -52q0 -71 32.5 -100t102.5 -29q41 0 71.5 9.5t51.5 31t34 56t19 84.5l58 477h83l-59 -477q-8 -63 -25.5 -109t-48 -77t-76 -46t-109.5 -15q-114 0 -166 47t-52 144q0 14 1 27.5t3 28.5zM271 932h85l60 -156h-62z" />
    <glyph glyph-name="Uacute" unicode="&#xda;" horiz-adv-x="624" 
d="M132 712h83l-59 -477q-3 -29 -3 -52q0 -71 32.5 -100t102.5 -29q41 0 71.5 9.5t51.5 31t34 56t19 84.5l58 477h83l-59 -477q-8 -63 -25.5 -109t-48 -77t-76 -46t-109.5 -15q-114 0 -166 47t-52 144q0 14 1 27.5t3 28.5zM434 932h91l-123 -156h-68z" />
    <glyph glyph-name="Ucircumflex" unicode="&#xdb;" horiz-adv-x="624" 
d="M132 712h83l-59 -477q-3 -29 -3 -52q0 -71 32.5 -100t102.5 -29q41 0 71.5 9.5t51.5 31t34 56t19 84.5l58 477h83l-59 -477q-8 -63 -25.5 -109t-48 -77t-76 -46t-109.5 -15q-114 0 -166 47t-52 144q0 14 1 27.5t3 28.5zM363 932h71l85 -156h-67l-56 110l-84 -110h-73z
" />
    <glyph glyph-name="Udieresis" unicode="&#xdc;" horiz-adv-x="624" 
d="M132 712h83l-59 -477q-3 -29 -3 -52q0 -71 32.5 -100t102.5 -29q41 0 71.5 9.5t51.5 31t34 56t19 84.5l58 477h83l-59 -477q-8 -63 -25.5 -109t-48 -77t-76 -46t-109.5 -15q-114 0 -166 47t-52 144q0 14 1 27.5t3 28.5zM437 899h80l-11 -94h-80zM270 899h79l-11 -94h-80z
" />
    <glyph glyph-name="Yacute" unicode="&#xdd;" horiz-adv-x="543" 
d="M235 298l-167 414h89l131 -334l214 334h86l-272 -418l-34 -294h-83zM395 932h91l-123 -156h-68z" />
    <glyph glyph-name="Thorn" unicode="&#xde;" horiz-adv-x="540" 
d="M138 712h83l-18 -142h134q91 0 137.5 -38t46.5 -127q0 -25 -3 -49q-7 -59 -24.5 -98t-44.5 -62t-64 -32.5t-82 -9.5h-150l-19 -154h-83zM194 494l-33 -270h142q30 0 52.5 5.5t38.5 20.5t26 41t15 67q3 25 3 43q0 54 -25 73.5t-76 19.5h-143z" />
    <glyph glyph-name="germandbls" unicode="&#xdf;" horiz-adv-x="541" 
d="M225 66h42q32 0 57 6t43 21.5t29.5 42t16.5 67.5q3 24 3 42q0 56 -27.5 76t-84.5 20h-37l9 69h25q30 0 51 7t35 21.5t22 37.5t12 56q3 19 3 36q0 46 -23 64.5t-77 18.5q-63 0 -89 -24.5t-33 -80.5l-66 -546h-80l52 434h-63l9 70h63l5 42q5 41 17.5 74t36 56t60.5 35.5
t91 12.5q95 0 135.5 -38.5t40.5 -113.5q0 -22 -3 -44q-7 -58 -27.5 -93.5t-62.5 -52.5q48 -19 67 -55t19 -87q0 -21 -3 -43q-12 -104 -65.5 -150.5t-161.5 -46.5h-48z" />
    <glyph glyph-name="agrave" unicode="&#xe0;" horiz-adv-x="454" 
d="M161 -8q-66 0 -102.5 33t-36.5 91q0 46 17.5 76.5t47.5 50t69.5 30t83.5 17.5l76 12l4 32q1 9 1.5 17.5t0.5 16.5q0 37 -16.5 55.5t-61.5 18.5q-53 0 -77 -21t-32 -76h-73q6 40 18 71.5t34 52.5t55.5 32t82.5 11q82 0 116.5 -37t34.5 -98q0 -8 -0.5 -16.5t-1.5 -16.5
l-41 -344h-77l7 60q-17 -28 -48.5 -48t-80.5 -20zM179 57q51 0 82.5 29t38.5 80l9 73l-70 -10q-23 -3 -47 -8t-44 -16t-32.5 -29.5t-12.5 -47.5q0 -71 76 -71zM155 724h85l60 -156h-62z" />
    <glyph glyph-name="aacute" unicode="&#xe1;" horiz-adv-x="454" 
d="M161 -8q-66 0 -102.5 33t-36.5 91q0 46 17.5 76.5t47.5 50t69.5 30t83.5 17.5l76 12l4 32q1 9 1.5 17.5t0.5 16.5q0 37 -16.5 55.5t-61.5 18.5q-53 0 -77 -21t-32 -76h-73q6 40 18 71.5t34 52.5t55.5 32t82.5 11q82 0 116.5 -37t34.5 -98q0 -8 -0.5 -16.5t-1.5 -16.5
l-41 -344h-77l7 60q-17 -28 -48.5 -48t-80.5 -20zM179 57q51 0 82.5 29t38.5 80l9 73l-70 -10q-23 -3 -47 -8t-44 -16t-32.5 -29.5t-12.5 -47.5q0 -71 76 -71zM318 724h91l-123 -156h-68z" />
    <glyph glyph-name="acircumflex" unicode="&#xe2;" horiz-adv-x="454" 
d="M161 -8q-66 0 -102.5 33t-36.5 91q0 46 17.5 76.5t47.5 50t69.5 30t83.5 17.5l76 12l4 32q1 9 1.5 17.5t0.5 16.5q0 37 -16.5 55.5t-61.5 18.5q-53 0 -77 -21t-32 -76h-73q6 40 18 71.5t34 52.5t55.5 32t82.5 11q82 0 116.5 -37t34.5 -98q0 -8 -0.5 -16.5t-1.5 -16.5
l-41 -344h-77l7 60q-17 -28 -48.5 -48t-80.5 -20zM179 57q51 0 82.5 29t38.5 80l9 73l-70 -10q-23 -3 -47 -8t-44 -16t-32.5 -29.5t-12.5 -47.5q0 -71 76 -71zM247 724h71l85 -156h-67l-56 110l-84 -110h-73z" />
    <glyph glyph-name="atilde" unicode="&#xe3;" horiz-adv-x="454" 
d="M161 -8q-66 0 -102.5 33t-36.5 91q0 46 17.5 76.5t47.5 50t69.5 30t83.5 17.5l76 12l4 32q1 9 1.5 17.5t0.5 16.5q0 37 -16.5 55.5t-61.5 18.5q-53 0 -77 -21t-32 -76h-73q6 40 18 71.5t34 52.5t55.5 32t82.5 11q82 0 116.5 -37t34.5 -98q0 -8 -0.5 -16.5t-1.5 -16.5
l-41 -344h-77l7 60q-17 -28 -48.5 -48t-80.5 -20zM179 57q51 0 82.5 29t38.5 80l9 73l-70 -10q-23 -3 -47 -8t-44 -16t-32.5 -29.5t-12.5 -47.5q0 -71 76 -71zM147 635q5 38 23.5 54t48.5 16q19 0 33 -10t26 -22t23 -22t23 -10q17 0 20 25l4 39h56l-7 -51q-5 -38 -23.5 -54
t-47.5 -16q-19 0 -33.5 10t-26.5 21.5t-22.5 21.5t-21.5 10q-18 0 -21 -25l-5 -38h-55z" />
    <glyph glyph-name="adieresis" unicode="&#xe4;" horiz-adv-x="454" 
d="M161 -8q-66 0 -102.5 33t-36.5 91q0 46 17.5 76.5t47.5 50t69.5 30t83.5 17.5l76 12l4 32q1 9 1.5 17.5t0.5 16.5q0 37 -16.5 55.5t-61.5 18.5q-53 0 -77 -21t-32 -76h-73q6 40 18 71.5t34 52.5t55.5 32t82.5 11q82 0 116.5 -37t34.5 -98q0 -8 -0.5 -16.5t-1.5 -16.5
l-41 -344h-77l7 60q-17 -28 -48.5 -48t-80.5 -20zM179 57q51 0 82.5 29t38.5 80l9 73l-70 -10q-23 -3 -47 -8t-44 -16t-32.5 -29.5t-12.5 -47.5q0 -71 76 -71zM321 691h80l-11 -94h-80zM154 691h79l-11 -94h-80z" />
    <glyph glyph-name="aring" unicode="&#xe5;" horiz-adv-x="454" 
d="M161 -8q-66 0 -102.5 33t-36.5 91q0 46 17.5 76.5t47.5 50t69.5 30t83.5 17.5l76 12l4 32q1 9 1.5 17.5t0.5 16.5q0 37 -16.5 55.5t-61.5 18.5q-53 0 -77 -21t-32 -76h-73q6 40 18 71.5t34 52.5t55.5 32t82.5 11q82 0 116.5 -37t34.5 -98q0 -8 -0.5 -16.5t-1.5 -16.5
l-41 -344h-77l7 60q-17 -28 -48.5 -48t-80.5 -20zM179 57q51 0 82.5 29t38.5 80l9 73l-70 -10q-23 -3 -47 -8t-44 -16t-32.5 -29.5t-12.5 -47.5q0 -71 76 -71zM267 600q33 0 46 19.5t13 51.5q0 18 -9.5 29.5t-35.5 11.5q-33 0 -46 -20t-13 -52q0 -18 9.5 -29t35.5 -11z
M266 561q-88 0 -88 79q0 22 6.5 42t19 35t32 24t46.5 9q88 0 88 -79q0 -22 -6.5 -42t-19 -35t-32 -24t-46.5 -9z" />
    <glyph glyph-name="ae" unicode="&#xe6;" horiz-adv-x="734" 
d="M159 -8q-65 0 -101 33t-36 88q0 46 18.5 76.5t49 50t69.5 30t81 17.5l76 12l4 35q3 19 3 36q0 36 -17 54t-62 18q-53 0 -77 -21t-32 -76h-73q6 40 18 71.5t34 52.5t55.5 32t82.5 11q51 0 82.5 -15.5t46.5 -42.5q27 30 64 44t88 14q88 0 126.5 -44.5t38.5 -133.5
q0 -16 -1.5 -33.5t-3.5 -36.5l-2 -19h-301q-3 -21 -4 -38.5t-1 -32.5q0 -35 6 -57.5t19 -35.5t31.5 -18t44.5 -5q52 0 78.5 20t39.5 71h72q-17 -75 -61.5 -116t-133.5 -41q-65 0 -104.5 21.5t-57.5 68.5q-17 -40 -58.5 -65t-101.5 -25zM178 57q48 0 81 27t41 87l8 65
l-70 -10q-20 -3 -44 -8t-44 -16t-33.5 -29t-13.5 -47q0 -33 18.5 -51t56.5 -18zM529 439q-26 0 -46.5 -6t-36.5 -21t-27.5 -40.5t-19.5 -64.5h224q3 38 -1.5 63.5t-16 40.5t-30.5 21.5t-46 6.5z" />
    <glyph glyph-name="ccedilla" unicode="&#xe7;" horiz-adv-x="459" 
d="M190 -7q-78 5 -115 47.5t-37 134.5q0 17 1.5 37t3.5 41q9 68 25 117t42 80.5t64 46.5t90 15q94 0 132 -49t33 -146h-76q0 35 -4.5 58.5t-15 37.5t-28.5 20t-45 6q-31 0 -54 -9t-39 -30.5t-26.5 -57t-17.5 -89.5q-6 -47 -6 -79q0 -67 23 -91.5t73 -24.5q53 0 82 29t43 104
h76q-20 -106 -66 -151.5t-126 -47.5l-4 -29q52 -3 75 -25t23 -55q0 -26 -10 -44.5t-27 -30.5t-40 -18t-49 -6h-76l6 46h57q28 0 50.5 10.5t22.5 43.5q0 38 -61 38h-28z" />
    <glyph glyph-name="egrave" unicode="&#xe8;" horiz-adv-x="467" 
d="M213 -8q-90 0 -132.5 43.5t-42.5 141.5q0 34 6 76q8 68 24.5 117t43.5 80.5t65 46.5t89 15q88 0 126.5 -44.5t38.5 -133.5q0 -16 -1.5 -33.5t-3.5 -36.5l-2 -19h-301q-3 -21 -4 -38.5t-1 -32.5q0 -35 6 -57.5t19 -35.5t31.5 -18t44.5 -5q52 0 78.5 20t39.5 71h72
q-17 -75 -62 -116t-134 -41zM262 439q-26 0 -46.5 -6t-36.5 -21t-27.5 -40.5t-19.5 -64.5h224q3 38 -1.5 63.5t-16 40.5t-30.5 21.5t-46 6.5zM164 724h85l60 -156h-62z" />
    <glyph glyph-name="eacute" unicode="&#xe9;" horiz-adv-x="467" 
d="M213 -8q-90 0 -132.5 43.5t-42.5 141.5q0 34 6 76q8 68 24.5 117t43.5 80.5t65 46.5t89 15q88 0 126.5 -44.5t38.5 -133.5q0 -16 -1.5 -33.5t-3.5 -36.5l-2 -19h-301q-3 -21 -4 -38.5t-1 -32.5q0 -35 6 -57.5t19 -35.5t31.5 -18t44.5 -5q52 0 78.5 20t39.5 71h72
q-17 -75 -62 -116t-134 -41zM262 439q-26 0 -46.5 -6t-36.5 -21t-27.5 -40.5t-19.5 -64.5h224q3 38 -1.5 63.5t-16 40.5t-30.5 21.5t-46 6.5zM327 724h91l-123 -156h-68z" />
    <glyph glyph-name="ecircumflex" unicode="&#xea;" horiz-adv-x="467" 
d="M213 -8q-90 0 -132.5 43.5t-42.5 141.5q0 34 6 76q8 68 24.5 117t43.5 80.5t65 46.5t89 15q88 0 126.5 -44.5t38.5 -133.5q0 -16 -1.5 -33.5t-3.5 -36.5l-2 -19h-301q-3 -21 -4 -38.5t-1 -32.5q0 -35 6 -57.5t19 -35.5t31.5 -18t44.5 -5q52 0 78.5 20t39.5 71h72
q-17 -75 -62 -116t-134 -41zM262 439q-26 0 -46.5 -6t-36.5 -21t-27.5 -40.5t-19.5 -64.5h224q3 38 -1.5 63.5t-16 40.5t-30.5 21.5t-46 6.5zM256 724h71l85 -156h-67l-56 110l-84 -110h-73z" />
    <glyph glyph-name="edieresis" unicode="&#xeb;" horiz-adv-x="467" 
d="M213 -8q-90 0 -132.5 43.5t-42.5 141.5q0 34 6 76q8 68 24.5 117t43.5 80.5t65 46.5t89 15q88 0 126.5 -44.5t38.5 -133.5q0 -16 -1.5 -33.5t-3.5 -36.5l-2 -19h-301q-3 -21 -4 -38.5t-1 -32.5q0 -35 6 -57.5t19 -35.5t31.5 -18t44.5 -5q52 0 78.5 20t39.5 71h72
q-17 -75 -62 -116t-134 -41zM262 439q-26 0 -46.5 -6t-36.5 -21t-27.5 -40.5t-19.5 -64.5h224q3 38 -1.5 63.5t-16 40.5t-30.5 21.5t-46 6.5zM330 691h80l-11 -94h-80zM163 691h79l-11 -94h-80z" />
    <glyph glyph-name="igrave" unicode="&#xec;" horiz-adv-x="216" 
d="M99 504h80l-62 -504h-80zM41 724h85l60 -156h-62z" />
    <glyph glyph-name="iacute" unicode="&#xed;" horiz-adv-x="216" 
d="M99 504h80l-62 -504h-80zM204 724h91l-123 -156h-68z" />
    <glyph glyph-name="icircumflex" unicode="&#xee;" horiz-adv-x="216" 
d="M99 504h80l-62 -504h-80zM133 724h71l85 -156h-67l-56 110l-84 -110h-73z" />
    <glyph glyph-name="idieresis" unicode="&#xef;" horiz-adv-x="216" 
d="M99 504h80l-62 -504h-80zM207 691h80l-11 -94h-80zM40 691h79l-11 -94h-80z" />
    <glyph glyph-name="eth" unicode="&#xf0;" horiz-adv-x="486" 
d="M154 572l128 50l-47 90h84l33 -62l158 62l-6 -53l-130 -51q32 -63 51 -133t19 -149q0 -20 -1 -39.5t-3 -39.5q-17 -133 -69.5 -194t-152.5 -61q-91 0 -135.5 41.5t-44.5 138.5q0 17 1.5 34t3.5 37q9 67 25 115t42.5 78.5t64 45t88.5 14.5q26 0 48.5 -6.5t40.5 -22.5
q-8 26 -20 54t-28 60l-156 -61zM122 236q-2 -20 -3.5 -38t-1.5 -33q0 -63 24 -85t76 -22q32 0 55.5 8.5t40.5 29t27.5 55t17.5 85.5q3 20 4 38t1 34q0 65 -24 90t-76 25q-32 0 -56 -8.5t-41 -30t-27.5 -57.5t-16.5 -91z" />
    <glyph glyph-name="ntilde" unicode="&#xf1;" horiz-adv-x="496" 
d="M99 504h77l-8 -61q37 69 130 69q72 0 109 -36.5t37 -105.5v-17.5t-2 -18.5l-41 -334h-80l39 317q3 21 3 37q0 46 -21 65.5t-66 19.5q-54 0 -83.5 -27t-37.5 -95l-38 -317h-80zM166 635q5 38 23.5 54t48.5 16q19 0 33 -10t26 -22t23 -22t23 -10q17 0 20 25l4 39h56l-7 -51
q-5 -38 -23.5 -54t-47.5 -16q-19 0 -33.5 10t-26.5 21.5t-22.5 21.5t-21.5 10q-18 0 -21 -25l-5 -38h-55z" />
    <glyph glyph-name="ograve" unicode="&#xf2;" horiz-adv-x="484" 
d="M214 -8q-93 0 -134.5 43.5t-41.5 140.5q0 38 6 79q9 68 25 116.5t42.5 80t65 46t92.5 14.5q93 0 134.5 -43.5t41.5 -142.5q0 -17 -1.5 -37t-3.5 -40q-9 -68 -25.5 -116.5t-43 -80t-65 -46t-92.5 -14.5zM217 58q32 0 56 10t41 32.5t28 59.5t18 92q2 20 3.5 38t1.5 34
q0 65 -24 90t-76 25q-32 0 -55.5 -9t-40.5 -31t-27.5 -57.5t-17.5 -89.5q-6 -44 -6 -76q0 -66 23.5 -92t75.5 -26zM168 724h85l60 -156h-62z" />
    <glyph glyph-name="oacute" unicode="&#xf3;" horiz-adv-x="484" 
d="M214 -8q-93 0 -134.5 43.5t-41.5 140.5q0 38 6 79q9 68 25 116.5t42.5 80t65 46t92.5 14.5q93 0 134.5 -43.5t41.5 -142.5q0 -17 -1.5 -37t-3.5 -40q-9 -68 -25.5 -116.5t-43 -80t-65 -46t-92.5 -14.5zM217 58q32 0 56 10t41 32.5t28 59.5t18 92q2 20 3.5 38t1.5 34
q0 65 -24 90t-76 25q-32 0 -55.5 -9t-40.5 -31t-27.5 -57.5t-17.5 -89.5q-6 -44 -6 -76q0 -66 23.5 -92t75.5 -26zM331 724h91l-123 -156h-68z" />
    <glyph glyph-name="ocircumflex" unicode="&#xf4;" horiz-adv-x="484" 
d="M214 -8q-93 0 -134.5 43.5t-41.5 140.5q0 38 6 79q9 68 25 116.5t42.5 80t65 46t92.5 14.5q93 0 134.5 -43.5t41.5 -142.5q0 -17 -1.5 -37t-3.5 -40q-9 -68 -25.5 -116.5t-43 -80t-65 -46t-92.5 -14.5zM217 58q32 0 56 10t41 32.5t28 59.5t18 92q2 20 3.5 38t1.5 34
q0 65 -24 90t-76 25q-32 0 -55.5 -9t-40.5 -31t-27.5 -57.5t-17.5 -89.5q-6 -44 -6 -76q0 -66 23.5 -92t75.5 -26zM260 724h71l85 -156h-67l-56 110l-84 -110h-73z" />
    <glyph glyph-name="otilde" unicode="&#xf5;" horiz-adv-x="484" 
d="M214 -8q-93 0 -134.5 43.5t-41.5 140.5q0 38 6 79q9 68 25 116.5t42.5 80t65 46t92.5 14.5q93 0 134.5 -43.5t41.5 -142.5q0 -17 -1.5 -37t-3.5 -40q-9 -68 -25.5 -116.5t-43 -80t-65 -46t-92.5 -14.5zM217 58q32 0 56 10t41 32.5t28 59.5t18 92q2 20 3.5 38t1.5 34
q0 65 -24 90t-76 25q-32 0 -55.5 -9t-40.5 -31t-27.5 -57.5t-17.5 -89.5q-6 -44 -6 -76q0 -66 23.5 -92t75.5 -26zM160 635q5 38 23.5 54t48.5 16q19 0 33 -10t26 -22t23 -22t23 -10q17 0 20 25l4 39h56l-7 -51q-5 -38 -23.5 -54t-47.5 -16q-19 0 -33.5 10t-26.5 21.5
t-22.5 21.5t-21.5 10q-18 0 -21 -25l-5 -38h-55z" />
    <glyph glyph-name="odieresis" unicode="&#xf6;" horiz-adv-x="484" 
d="M214 -8q-93 0 -134.5 43.5t-41.5 140.5q0 38 6 79q9 68 25 116.5t42.5 80t65 46t92.5 14.5q93 0 134.5 -43.5t41.5 -142.5q0 -17 -1.5 -37t-3.5 -40q-9 -68 -25.5 -116.5t-43 -80t-65 -46t-92.5 -14.5zM217 58q32 0 56 10t41 32.5t28 59.5t18 92q2 20 3.5 38t1.5 34
q0 65 -24 90t-76 25q-32 0 -55.5 -9t-40.5 -31t-27.5 -57.5t-17.5 -89.5q-6 -44 -6 -76q0 -66 23.5 -92t75.5 -26zM334 691h80l-11 -94h-80zM167 691h79l-11 -94h-80z" />
    <glyph glyph-name="divide" unicode="&#xf7;" horiz-adv-x="560" 
d="M288 580h66l-13 -107h-66zM65 323h448l-8 -66h-448zM230 107h66l-13 -107h-66z" />
    <glyph glyph-name="oslash" unicode="&#xf8;" horiz-adv-x="494" 
d="M16 71l35 33q-7 27 -7 73q0 17 1.5 37.5t3.5 41.5q8 68 24 116.5t43 79.5t65.5 45.5t92.5 14.5q109 0 150 -66l63 58l-9 -71l-35 -33q8 -37 8 -75q0 -37 -6 -77q-9 -68 -25 -116.5t-43 -79.5t-65.5 -45.5t-92.5 -14.5q-108 0 -149 65l-62 -57zM223 58q32 0 55.5 10
t40.5 32.5t28 59.5t18 92q6 40 6 72v10l-240 -221q10 -30 32 -42.5t60 -12.5zM124 170l238 219q-11 27 -33.5 38.5t-58.5 11.5q-32 0 -56 -9t-40.5 -31t-27.5 -57.5t-17 -89.5q-2 -22 -3.5 -40.5t-1.5 -35.5v-6z" />
    <glyph glyph-name="ugrave" unicode="&#xf9;" horiz-adv-x="496" 
d="M175 504l-39 -318q-3 -21 -3 -39q0 -47 20.5 -68t65.5 -21q51 0 81 28.5t39 99.5l40 318h80l-62 -504h-77l7 60q-38 -68 -130 -68q-72 0 -109 36.5t-37 105.5v17.5t2 18.5l42 334h80zM173 724h85l60 -156h-62z" />
    <glyph glyph-name="uacute" unicode="&#xfa;" horiz-adv-x="496" 
d="M175 504l-39 -318q-3 -21 -3 -39q0 -47 20.5 -68t65.5 -21q51 0 81 28.5t39 99.5l40 318h80l-62 -504h-77l7 60q-38 -68 -130 -68q-72 0 -109 36.5t-37 105.5v17.5t2 18.5l42 334h80zM336 724h91l-123 -156h-68z" />
    <glyph glyph-name="ucircumflex" unicode="&#xfb;" horiz-adv-x="496" 
d="M175 504l-39 -318q-3 -21 -3 -39q0 -47 20.5 -68t65.5 -21q51 0 81 28.5t39 99.5l40 318h80l-62 -504h-77l7 60q-38 -68 -130 -68q-72 0 -109 36.5t-37 105.5v17.5t2 18.5l42 334h80zM265 724h71l85 -156h-67l-56 110l-84 -110h-73z" />
    <glyph glyph-name="udieresis" unicode="&#xfc;" horiz-adv-x="496" 
d="M175 504l-39 -318q-3 -21 -3 -39q0 -47 20.5 -68t65.5 -21q51 0 81 28.5t39 99.5l40 318h80l-62 -504h-77l7 60q-38 -68 -130 -68q-72 0 -109 36.5t-37 105.5v17.5t2 18.5l42 334h80zM339 691h80l-11 -94h-80zM172 691h79l-11 -94h-80z" />
    <glyph glyph-name="yacute" unicode="&#xfd;" horiz-adv-x="440" 
d="M29 -142q32 0 54.5 17.5t42.5 62.5l28 62l-108 504h81l80 -388l175 388h78l-263 -571q-16 -34 -31 -60.5t-33.5 -44.5t-43.5 -27t-61 -9h-45l8 66h38zM323 724h91l-123 -156h-68z" />
    <glyph glyph-name="thorn" unicode="&#xfe;" horiz-adv-x="509" 
d="M124 712h80l-34 -268q44 68 134 68q84 0 125 -45.5t41 -142.5q0 -36 -6 -76q-9 -68 -25 -116.5t-42 -79.5t-63 -45.5t-87 -14.5q-46 0 -77.5 17t-45.5 54l-33 -271h-79zM242 58q32 0 56 10t41 32.5t28 59.5t18 92q2 20 3.5 38t1.5 34q0 65 -24.5 90t-76.5 25
q-32 0 -56 -9t-40.5 -31t-27.5 -57.5t-17 -89.5q-2 -22 -3.5 -40.5t-1.5 -35.5q0 -66 22.5 -92t76.5 -26z" />
    <glyph glyph-name="ydieresis" unicode="&#xff;" horiz-adv-x="440" 
d="M29 -142q32 0 54.5 17.5t42.5 62.5l28 62l-108 504h81l80 -388l175 388h78l-263 -571q-16 -34 -31 -60.5t-33.5 -44.5t-43.5 -27t-61 -9h-45l8 66h38zM326 691h80l-11 -94h-80zM159 691h79l-11 -94h-80z" />
    <glyph glyph-name="Amacron" unicode="&#x100;" horiz-adv-x="562" 
d="M292 712h90l136 -712h-82l-32 172h-270l-73 -172h-78zM164 242h228l-68 372zM222 883h262l-7 -58h-262z" />
    <glyph glyph-name="amacron" unicode="&#x101;" horiz-adv-x="454" 
d="M161 -8q-66 0 -102.5 33t-36.5 91q0 46 17.5 76.5t47.5 50t69.5 30t83.5 17.5l76 12l4 32q1 9 1.5 17.5t0.5 16.5q0 37 -16.5 55.5t-61.5 18.5q-53 0 -77 -21t-32 -76h-73q6 40 18 71.5t34 52.5t55.5 32t82.5 11q82 0 116.5 -37t34.5 -98q0 -8 -0.5 -16.5t-1.5 -16.5
l-41 -344h-77l7 60q-17 -28 -48.5 -48t-80.5 -20zM179 57q51 0 82.5 29t38.5 80l9 73l-70 -10q-23 -3 -47 -8t-44 -16t-32.5 -29.5t-12.5 -47.5q0 -71 76 -71zM145 675h262l-7 -58h-262z" />
    <glyph glyph-name="Abreve" unicode="&#x102;" horiz-adv-x="562" 
d="M292 712h90l136 -712h-82l-32 172h-270l-73 -172h-78zM164 242h228l-68 372zM343 769q-57 0 -88.5 35t-24.5 110h49q-1 -6 -1 -11.5v-10.5q0 -38 17 -54.5t51 -16.5q38 0 60 21t30 72h49q-11 -75 -46 -110t-96 -35z" />
    <glyph glyph-name="abreve" unicode="&#x103;" horiz-adv-x="454" 
d="M161 -8q-66 0 -102.5 33t-36.5 91q0 46 17.5 76.5t47.5 50t69.5 30t83.5 17.5l76 12l4 32q1 9 1.5 17.5t0.5 16.5q0 37 -16.5 55.5t-61.5 18.5q-53 0 -77 -21t-32 -76h-73q6 40 18 71.5t34 52.5t55.5 32t82.5 11q82 0 116.5 -37t34.5 -98q0 -8 -0.5 -16.5t-1.5 -16.5
l-41 -344h-77l7 60q-17 -28 -48.5 -48t-80.5 -20zM179 57q51 0 82.5 29t38.5 80l9 73l-70 -10q-23 -3 -47 -8t-44 -16t-32.5 -29.5t-12.5 -47.5q0 -71 76 -71zM266 561q-57 0 -88.5 35t-24.5 110h49q-1 -6 -1 -11.5v-10.5q0 -38 17 -54.5t51 -16.5q38 0 60 21t30 72h49
q-11 -75 -46 -110t-96 -35z" />
    <glyph glyph-name="Aogonek" unicode="&#x104;" horiz-adv-x="562" 
d="M475 -216q-51 0 -77 20.5t-26 56.5q0 23 10 42t25 35.5t33.5 31.5t35.5 30h-40l-32 172h-270l-73 -172h-78l309 712h90l136 -712q-34 -31 -60.5 -60.5t-26.5 -61.5q0 -43 49 -43h38l-6 -51h-37zM164 242h228l-68 372z" />
    <glyph glyph-name="aogonek" unicode="&#x105;" horiz-adv-x="454" 
d="M161 -8q-66 0 -102.5 33t-36.5 91q0 46 17.5 76.5t47.5 50t69.5 30t83.5 17.5l76 12l4 32q1 9 1.5 17.5t0.5 16.5q0 37 -16.5 55.5t-61.5 18.5q-53 0 -77 -21t-32 -76h-73q6 40 18 71.5t34 52.5t55.5 32t82.5 11q82 0 116.5 -37t34.5 -98q0 -8 -0.5 -16.5t-1.5 -16.5
l-41 -344q-35 -31 -61.5 -60t-26.5 -62q0 -43 50 -43h38l-6 -51h-38q-51 0 -76.5 20.5t-25.5 56.5q0 23 9.5 42t24.5 35.5t33.5 31.5t35.5 30h-34l7 60q-17 -28 -48.5 -48t-80.5 -20zM309 239l-70 -10q-23 -3 -47 -8.5t-44 -16.5t-32.5 -29.5t-12.5 -46.5q0 -71 76 -71
q51 0 83 29t38 80z" />
    <glyph glyph-name="Cacute" unicode="&#x106;" horiz-adv-x="590" 
d="M288 -12q-64 0 -108.5 13t-72.5 42.5t-40.5 76t-12.5 113.5q0 56 9 128q12 99 32 168t54 112.5t85.5 63t125.5 19.5q61 0 102.5 -13t66 -39.5t35 -67t10.5 -95.5q0 -14 -0.5 -28.5t-1.5 -29.5h-78q1 13 1 24.5v22.5q0 42 -6.5 70.5t-22 46t-41.5 25.5t-65 8
q-52 0 -88 -13.5t-60 -46.5t-39 -88t-25 -139q-5 -43 -8 -78t-3 -64q0 -48 8 -80t26 -50.5t46.5 -26.5t69.5 -8q45 0 75 11t50.5 35.5t34 63.5t24.5 95h79q-12 -73 -32 -124.5t-51 -84t-75 -47.5t-104 -15zM426 932h91l-123 -156h-68z" />
    <glyph glyph-name="cacute" unicode="&#x107;" horiz-adv-x="459" 
d="M215 -8q-91 0 -134 42.5t-43 140.5q0 17 1.5 37t3.5 41q9 68 25 117t42 80.5t64 46.5t90 15q94 0 132 -49t33 -146h-76q0 35 -4.5 58.5t-15 37.5t-28.5 20t-45 6q-31 0 -54 -9t-39 -30.5t-26.5 -57t-17.5 -89.5q-6 -47 -6 -79q0 -67 23 -91.5t73 -24.5q53 0 82 29t43 104
h76q-20 -108 -68 -153.5t-131 -45.5zM332 724h91l-123 -156h-68z" />
    <glyph glyph-name="Ccircumflex" unicode="&#x108;" horiz-adv-x="590" 
d="M288 -12q-64 0 -108.5 13t-72.5 42.5t-40.5 76t-12.5 113.5q0 56 9 128q12 99 32 168t54 112.5t85.5 63t125.5 19.5q61 0 102.5 -13t66 -39.5t35 -67t10.5 -95.5q0 -14 -0.5 -28.5t-1.5 -29.5h-78q1 13 1 24.5v22.5q0 42 -6.5 70.5t-22 46t-41.5 25.5t-65 8
q-52 0 -88 -13.5t-60 -46.5t-39 -88t-25 -139q-5 -43 -8 -78t-3 -64q0 -48 8 -80t26 -50.5t46.5 -26.5t69.5 -8q45 0 75 11t50.5 35.5t34 63.5t24.5 95h79q-12 -73 -32 -124.5t-51 -84t-75 -47.5t-104 -15zM355 932h71l85 -156h-67l-56 110l-84 -110h-73z" />
    <glyph glyph-name="ccircumflex" unicode="&#x109;" horiz-adv-x="459" 
d="M215 -8q-91 0 -134 42.5t-43 140.5q0 17 1.5 37t3.5 41q9 68 25 117t42 80.5t64 46.5t90 15q94 0 132 -49t33 -146h-76q0 35 -4.5 58.5t-15 37.5t-28.5 20t-45 6q-31 0 -54 -9t-39 -30.5t-26.5 -57t-17.5 -89.5q-6 -47 -6 -79q0 -67 23 -91.5t73 -24.5q53 0 82 29t43 104
h76q-20 -108 -68 -153.5t-131 -45.5zM261 724h71l85 -156h-67l-56 110l-84 -110h-73z" />
    <glyph glyph-name="Cdotaccent" unicode="&#x10a;" horiz-adv-x="590" 
d="M288 -12q-64 0 -108.5 13t-72.5 42.5t-40.5 76t-12.5 113.5q0 56 9 128q12 99 32 168t54 112.5t85.5 63t125.5 19.5q61 0 102.5 -13t66 -39.5t35 -67t10.5 -95.5q0 -14 -0.5 -28.5t-1.5 -29.5h-78q1 13 1 24.5v22.5q0 42 -6.5 70.5t-22 46t-41.5 25.5t-65 8
q-52 0 -88 -13.5t-60 -46.5t-39 -88t-25 -139q-5 -43 -8 -78t-3 -64q0 -48 8 -80t26 -50.5t46.5 -26.5t69.5 -8q45 0 75 11t50.5 35.5t34 63.5t24.5 95h79q-12 -73 -32 -124.5t-51 -84t-75 -47.5t-104 -15zM345 899h80l-11 -94h-80z" />
    <glyph glyph-name="cdotaccent" unicode="&#x10b;" horiz-adv-x="459" 
d="M215 -8q-91 0 -134 42.5t-43 140.5q0 17 1.5 37t3.5 41q9 68 25 117t42 80.5t64 46.5t90 15q94 0 132 -49t33 -146h-76q0 35 -4.5 58.5t-15 37.5t-28.5 20t-45 6q-31 0 -54 -9t-39 -30.5t-26.5 -57t-17.5 -89.5q-6 -47 -6 -79q0 -67 23 -91.5t73 -24.5q53 0 82 29t43 104
h76q-20 -108 -68 -153.5t-131 -45.5zM251 691h80l-11 -94h-80z" />
    <glyph glyph-name="Ccaron" unicode="&#x10c;" horiz-adv-x="590" 
d="M288 -12q-64 0 -108.5 13t-72.5 42.5t-40.5 76t-12.5 113.5q0 56 9 128q12 99 32 168t54 112.5t85.5 63t125.5 19.5q61 0 102.5 -13t66 -39.5t35 -67t10.5 -95.5q0 -14 -0.5 -28.5t-1.5 -29.5h-78q1 13 1 24.5v22.5q0 42 -6.5 70.5t-22 46t-41.5 25.5t-65 8
q-52 0 -88 -13.5t-60 -46.5t-39 -88t-25 -139q-5 -43 -8 -78t-3 -64q0 -48 8 -80t26 -50.5t46.5 -26.5t69.5 -8q45 0 75 11t50.5 35.5t34 63.5t24.5 95h79q-12 -73 -32 -124.5t-51 -84t-75 -47.5t-104 -15zM251 932h67l56 -110l84 110h74l-125 -156h-71z" />
    <glyph glyph-name="ccaron" unicode="&#x10d;" horiz-adv-x="459" 
d="M215 -8q-91 0 -134 42.5t-43 140.5q0 17 1.5 37t3.5 41q9 68 25 117t42 80.5t64 46.5t90 15q94 0 132 -49t33 -146h-76q0 35 -4.5 58.5t-15 37.5t-28.5 20t-45 6q-31 0 -54 -9t-39 -30.5t-26.5 -57t-17.5 -89.5q-6 -47 -6 -79q0 -67 23 -91.5t73 -24.5q53 0 82 29t43 104
h76q-20 -108 -68 -153.5t-131 -45.5zM157 724h67l56 -110l84 110h74l-125 -156h-71z" />
    <glyph glyph-name="Dcaron" unicode="&#x10e;" horiz-adv-x="615" 
d="M138 712h213q62 0 106.5 -13.5t73 -42t42 -74.5t13.5 -110q0 -26 -1.5 -54t-5.5 -60q-12 -98 -31.5 -166.5t-53.5 -111t-85 -61.5t-126 -19h-232zM211 636l-69 -570h139q52 0 88 13.5t60 47t39 90.5t26 144q9 69 9 117q0 45 -8 75t-26 48.5t-47 26.5t-71 8h-140zM238 932
h67l56 -110l84 110h74l-125 -156h-71z" />
    <glyph glyph-name="dcaron" unicode="&#x10f;" horiz-adv-x="512" 
d="M204 -8q-85 0 -125.5 44t-40.5 140q0 36 6 80q8 68 24.5 116.5t43 79.5t64 45.5t87.5 14.5q45 0 75 -16.5t45 -52.5l33 269h80l-87 -712h-77l7 65q-43 -73 -135 -73zM217 58q32 0 56 10t41 32.5t28 59.5t18 92q2 20 3.5 38t1.5 34q0 65 -24 90t-76 25q-32 0 -55.5 -9
t-40.5 -31t-27.5 -57.5t-17.5 -89.5q-6 -44 -6 -76q0 -66 23.5 -92t75.5 -26zM617 712l-7 -52l-57 -100h-35l19 152h80z" />
    <glyph glyph-name="Dcroat" unicode="&#x110;" horiz-adv-x="633" 
d="M49 397h59l39 315h221q62 0 107 -13.5t73.5 -42.5t42 -75t13.5 -110q0 -26 -2 -53.5t-6 -59.5q-12 -98 -31.5 -166.5t-53.5 -111t-85 -61.5t-126 -19h-240l41 334h-60zM220 636l-29 -239h147l-8 -63h-146l-33 -268h147q52 0 88 13.5t60 47t39 90.5t26 144q9 69 9 117
q0 45 -8 75t-26 48.5t-47 26.5t-71 8h-148z" />
    <glyph glyph-name="dcroat" unicode="&#x111;" horiz-adv-x="508" 
d="M286 639h121l9 73h80l-9 -73h61l-7 -58h-61l-71 -581h-77l7 65q-43 -73 -135 -73q-85 0 -125.5 44t-40.5 140q0 36 6 80q8 68 24.5 116.5t43 79.5t64 45.5t87.5 14.5q45 0 75 -16.5t45 -52.5l17 138h-121zM217 58q32 0 56 10t41 32.5t28 59.5t18 92q2 20 3.5 38t1.5 34
q0 65 -24 90t-76 25q-32 0 -55.5 -9t-40.5 -31t-27.5 -57.5t-17.5 -89.5q-6 -44 -6 -76q0 -66 23.5 -92t75.5 -26z" />
    <glyph glyph-name="Emacron" unicode="&#x112;" horiz-adv-x="510" 
d="M138 712h381l-9 -76h-299l-28 -235h274l-9 -70h-274l-32 -265h298l-8 -66h-381zM223 883h262l-7 -58h-262z" />
    <glyph glyph-name="emacron" unicode="&#x113;" horiz-adv-x="467" 
d="M213 -8q-90 0 -132.5 43.5t-42.5 141.5q0 34 6 76q8 68 24.5 117t43.5 80.5t65 46.5t89 15q88 0 126.5 -44.5t38.5 -133.5q0 -16 -1.5 -33.5t-3.5 -36.5l-2 -19h-301q-3 -21 -4 -38.5t-1 -32.5q0 -35 6 -57.5t19 -35.5t31.5 -18t44.5 -5q52 0 78.5 20t39.5 71h72
q-17 -75 -62 -116t-134 -41zM262 439q-26 0 -46.5 -6t-36.5 -21t-27.5 -40.5t-19.5 -64.5h224q3 38 -1.5 63.5t-16 40.5t-30.5 21.5t-46 6.5zM154 675h262l-7 -58h-262z" />
    <glyph glyph-name="Ebreve" unicode="&#x114;" horiz-adv-x="510" 
d="M138 712h381l-9 -76h-299l-28 -235h274l-9 -70h-274l-32 -265h298l-8 -66h-381zM344 769q-57 0 -88.5 35t-24.5 110h49q-1 -6 -1 -11.5v-10.5q0 -38 17 -54.5t51 -16.5q38 0 60 21t30 72h49q-11 -75 -46 -110t-96 -35z" />
    <glyph glyph-name="ebreve" unicode="&#x115;" horiz-adv-x="467" 
d="M213 -8q-90 0 -132.5 43.5t-42.5 141.5q0 34 6 76q8 68 24.5 117t43.5 80.5t65 46.5t89 15q88 0 126.5 -44.5t38.5 -133.5q0 -16 -1.5 -33.5t-3.5 -36.5l-2 -19h-301q-3 -21 -4 -38.5t-1 -32.5q0 -35 6 -57.5t19 -35.5t31.5 -18t44.5 -5q52 0 78.5 20t39.5 71h72
q-17 -75 -62 -116t-134 -41zM262 439q-26 0 -46.5 -6t-36.5 -21t-27.5 -40.5t-19.5 -64.5h224q3 38 -1.5 63.5t-16 40.5t-30.5 21.5t-46 6.5zM275 561q-57 0 -88.5 35t-24.5 110h49q-1 -6 -1 -11.5v-10.5q0 -38 17 -54.5t51 -16.5q38 0 60 21t30 72h49q-11 -75 -46 -110
t-96 -35z" />
    <glyph glyph-name="Edotaccent" unicode="&#x116;" horiz-adv-x="510" 
d="M138 712h381l-9 -76h-299l-28 -235h274l-9 -70h-274l-32 -265h298l-8 -66h-381zM315 899h80l-11 -94h-80z" />
    <glyph glyph-name="edotaccent" unicode="&#x117;" horiz-adv-x="467" 
d="M213 -8q-90 0 -132.5 43.5t-42.5 141.5q0 34 6 76q8 68 24.5 117t43.5 80.5t65 46.5t89 15q88 0 126.5 -44.5t38.5 -133.5q0 -16 -1.5 -33.5t-3.5 -36.5l-2 -19h-301q-3 -21 -4 -38.5t-1 -32.5q0 -35 6 -57.5t19 -35.5t31.5 -18t44.5 -5q52 0 78.5 20t39.5 71h72
q-17 -75 -62 -116t-134 -41zM262 439q-26 0 -46.5 -6t-36.5 -21t-27.5 -40.5t-19.5 -64.5h224q3 38 -1.5 63.5t-16 40.5t-30.5 21.5t-46 6.5zM246 691h80l-11 -94h-80z" />
    <glyph glyph-name="Eogonek" unicode="&#x118;" horiz-adv-x="510" 
d="M138 712h381l-9 -76h-299l-28 -235h274l-9 -70h-274l-32 -265h298l-8 -66h-21q-34 -31 -60.5 -60t-26.5 -62q0 -43 50 -43h37l-6 -51h-37q-51 0 -76.5 20.5t-25.5 56.5q0 23 9.5 42t24.5 35.5t33.5 31.5t35.5 30h-318z" />
    <glyph glyph-name="eogonek" unicode="&#x119;" horiz-adv-x="467" 
d="M271 -216q-51 0 -77 20.5t-26 56.5q0 22 9 40.5t23 35t31.5 31t34.5 29.5q-12 -2 -25.5 -3.5t-27.5 -1.5q-90 0 -132.5 43.5t-42.5 141.5q0 34 6 76q8 68 24.5 117t43.5 80.5t65 46.5t89 15q88 0 126.5 -44.5t38.5 -133.5q0 -16 -1.5 -33.5t-3.5 -36.5l-2 -19h-301
q-3 -21 -4 -38.5t-1 -32.5q0 -35 6 -57.5t19 -35.5t31.5 -18t44.5 -5q52 0 78.5 20t39.5 71h72q-8 -35 -21 -62.5t-33 -46.5l-42 -40q-34 -32 -59 -59t-28 -63q0 -43 50 -43h38l-6 -51h-37zM262 439q-26 0 -46.5 -6t-36.5 -21t-27.5 -40.5t-19.5 -64.5h224q3 38 -1.5 63.5
t-16 40.5t-30.5 21.5t-46 6.5z" />
    <glyph glyph-name="Ecaron" unicode="&#x11a;" horiz-adv-x="510" 
d="M138 712h381l-9 -76h-299l-28 -235h274l-9 -70h-274l-32 -265h298l-8 -66h-381zM221 932h67l56 -110l84 110h74l-125 -156h-71z" />
    <glyph glyph-name="ecaron" unicode="&#x11b;" horiz-adv-x="467" 
d="M213 -8q-90 0 -132.5 43.5t-42.5 141.5q0 34 6 76q8 68 24.5 117t43.5 80.5t65 46.5t89 15q88 0 126.5 -44.5t38.5 -133.5q0 -16 -1.5 -33.5t-3.5 -36.5l-2 -19h-301q-3 -21 -4 -38.5t-1 -32.5q0 -35 6 -57.5t19 -35.5t31.5 -18t44.5 -5q52 0 78.5 20t39.5 71h72
q-17 -75 -62 -116t-134 -41zM262 439q-26 0 -46.5 -6t-36.5 -21t-27.5 -40.5t-19.5 -64.5h224q3 38 -1.5 63.5t-16 40.5t-30.5 21.5t-46 6.5zM152 724h67l56 -110l84 110h74l-125 -156h-71z" />
    <glyph glyph-name="Gcircumflex" unicode="&#x11c;" horiz-adv-x="598" 
d="M326 370h240l-12 -102q-17 -143 -79.5 -211.5t-185.5 -68.5q-62 0 -106.5 13t-73 42.5t-42 76t-13.5 113.5q0 56 9 128q12 99 32 168t54 112.5t85 63t126 19.5q64 0 106.5 -15t67.5 -44.5t35 -74t8 -102.5h-79q3 85 -27.5 122.5t-110.5 37.5q-52 0 -88 -13.5t-60 -46.5
t-39 -88t-25 -139q-5 -43 -8 -78t-3 -64q0 -48 8 -80t26 -50.5t46.5 -26.5t69.5 -8q45 0 77.5 12t54.5 37.5t35.5 66.5t20.5 98l4 32h-162zM355 932h71l85 -156h-67l-56 110l-84 -110h-73z" />
    <glyph glyph-name="gcircumflex" unicode="&#x11d;" horiz-adv-x="508" 
d="M204 -8q-85 0 -125.5 43t-40.5 139q0 35 6 79q16 136 67.5 197.5t151.5 61.5q46 0 77 -18t45 -57l9 67h77l-67 -543q-11 -90 -59 -133.5t-145 -43.5q-53 0 -87 11.5t-54 33t-27.5 52.5t-5.5 69h76q-4 -54 17 -77t80 -23q57 0 87 23.5t38 87.5l12 99q-44 -68 -132 -68z
M217 58q32 0 56 10t41 32.5t28 59.5t18 92q2 20 3.5 38t1.5 34q0 65 -24 90t-76 25q-32 0 -55.5 -9t-40.5 -31t-27.5 -57.5t-17.5 -89.5q-6 -44 -6 -76q0 -66 23.5 -92t75.5 -26zM260 724h71l85 -156h-67l-56 110l-84 -110h-73z" />
    <glyph glyph-name="Gbreve" unicode="&#x11e;" horiz-adv-x="598" 
d="M326 370h240l-12 -102q-17 -143 -79.5 -211.5t-185.5 -68.5q-62 0 -106.5 13t-73 42.5t-42 76t-13.5 113.5q0 56 9 128q12 99 32 168t54 112.5t85 63t126 19.5q64 0 106.5 -15t67.5 -44.5t35 -74t8 -102.5h-79q3 85 -27.5 122.5t-110.5 37.5q-52 0 -88 -13.5t-60 -46.5
t-39 -88t-25 -139q-5 -43 -8 -78t-3 -64q0 -48 8 -80t26 -50.5t46.5 -26.5t69.5 -8q45 0 77.5 12t54.5 37.5t35.5 66.5t20.5 98l4 32h-162zM374 769q-57 0 -88.5 35t-24.5 110h49q-1 -6 -1 -11.5v-10.5q0 -38 17 -54.5t51 -16.5q38 0 60 21t30 72h49q-11 -75 -46 -110
t-96 -35z" />
    <glyph glyph-name="gbreve" unicode="&#x11f;" horiz-adv-x="508" 
d="M204 -8q-85 0 -125.5 43t-40.5 139q0 35 6 79q16 136 67.5 197.5t151.5 61.5q46 0 77 -18t45 -57l9 67h77l-67 -543q-11 -90 -59 -133.5t-145 -43.5q-53 0 -87 11.5t-54 33t-27.5 52.5t-5.5 69h76q-4 -54 17 -77t80 -23q57 0 87 23.5t38 87.5l12 99q-44 -68 -132 -68z
M217 58q32 0 56 10t41 32.5t28 59.5t18 92q2 20 3.5 38t1.5 34q0 65 -24 90t-76 25q-32 0 -55.5 -9t-40.5 -31t-27.5 -57.5t-17.5 -89.5q-6 -44 -6 -76q0 -66 23.5 -92t75.5 -26zM279 561q-57 0 -88.5 35t-24.5 110h49q-1 -6 -1 -11.5v-10.5q0 -38 17 -54.5t51 -16.5
q38 0 60 21t30 72h49q-11 -75 -46 -110t-96 -35z" />
    <glyph glyph-name="Gdotaccent" unicode="&#x120;" horiz-adv-x="598" 
d="M326 370h240l-12 -102q-17 -143 -79.5 -211.5t-185.5 -68.5q-62 0 -106.5 13t-73 42.5t-42 76t-13.5 113.5q0 56 9 128q12 99 32 168t54 112.5t85 63t126 19.5q64 0 106.5 -15t67.5 -44.5t35 -74t8 -102.5h-79q3 85 -27.5 122.5t-110.5 37.5q-52 0 -88 -13.5t-60 -46.5
t-39 -88t-25 -139q-5 -43 -8 -78t-3 -64q0 -48 8 -80t26 -50.5t46.5 -26.5t69.5 -8q45 0 77.5 12t54.5 37.5t35.5 66.5t20.5 98l4 32h-162zM345 899h80l-11 -94h-80z" />
    <glyph glyph-name="gdotaccent" unicode="&#x121;" horiz-adv-x="508" 
d="M204 -8q-85 0 -125.5 43t-40.5 139q0 35 6 79q16 136 67.5 197.5t151.5 61.5q46 0 77 -18t45 -57l9 67h77l-67 -543q-11 -90 -59 -133.5t-145 -43.5q-53 0 -87 11.5t-54 33t-27.5 52.5t-5.5 69h76q-4 -54 17 -77t80 -23q57 0 87 23.5t38 87.5l12 99q-44 -68 -132 -68z
M217 58q32 0 56 10t41 32.5t28 59.5t18 92q2 20 3.5 38t1.5 34q0 65 -24 90t-76 25q-32 0 -55.5 -9t-40.5 -31t-27.5 -57.5t-17.5 -89.5q-6 -44 -6 -76q0 -66 23.5 -92t75.5 -26zM250 691h80l-11 -94h-80z" />
    <glyph glyph-name="uni0122" unicode="&#x122;" horiz-adv-x="598" 
d="M326 370h240l-12 -102q-17 -143 -79.5 -211.5t-185.5 -68.5q-62 0 -106.5 13t-73 42.5t-42 76t-13.5 113.5q0 56 9 128q12 99 32 168t54 112.5t85 63t126 19.5q64 0 106.5 -15t67.5 -44.5t35 -74t8 -102.5h-79q3 85 -27.5 122.5t-110.5 37.5q-52 0 -88 -13.5t-60 -46.5
t-39 -88t-25 -139q-5 -43 -8 -78t-3 -64q0 -48 8 -80t26 -50.5t46.5 -26.5t69.5 -8q45 0 77.5 12t54.5 37.5t35.5 66.5t20.5 98l4 32h-162zM313 -56l-7 -52l-57 -100h-35l19 152h80z" />
    <glyph glyph-name="uni0123" unicode="&#x123;" horiz-adv-x="508" 
d="M204 -8q-85 0 -125.5 43t-40.5 139q0 35 6 79q16 136 67.5 197.5t151.5 61.5q46 0 77 -18t45 -57l9 67h77l-67 -543q-11 -90 -59 -133.5t-145 -43.5q-53 0 -87 11.5t-54 33t-27.5 52.5t-5.5 69h76q-4 -54 17 -77t80 -23q57 0 87 23.5t38 87.5l12 99q-44 -68 -132 -68z
M217 58q32 0 56 10t41 32.5t28 59.5t18 92q2 20 3.5 38t1.5 34q0 65 -24 90t-76 25q-32 0 -55.5 -9t-40.5 -31t-27.5 -57.5t-17.5 -89.5q-6 -44 -6 -76q0 -66 23.5 -92t75.5 -26zM244 612l56 100h36l-19 -152h-79z" />
    <glyph glyph-name="Hcircumflex" unicode="&#x124;" horiz-adv-x="638" 
d="M138 712h83l-38 -311h309l38 311h83l-87 -712h-83l40 330h-309l-40 -330h-83zM367 932h71l85 -156h-67l-56 110l-84 -110h-73z" />
    <glyph glyph-name="hcircumflex" unicode="&#x125;" horiz-adv-x="496" 
d="M124 712h80l-32 -263q37 63 126 63q72 0 109 -36.5t37 -105.5v-17.5t-2 -18.5l-41 -334h-80l39 317q3 21 3 37q0 46 -21 65.5t-66 19.5q-54 0 -83.5 -26.5t-37.5 -95.5l-38 -317h-80zM157 932h71l85 -156h-67l-56 110l-84 -110h-73z" />
    <glyph glyph-name="Hbar" unicode="&#x126;" horiz-adv-x="639" 
d="M72 588h50l16 124h83l-16 -124h309l16 124h83l-16 -124h52l-8 -63h-51l-64 -525h-83l40 330h-309l-40 -330h-83l64 525h-52zM183 401h309l15 124h-309z" />
    <glyph glyph-name="hbar" unicode="&#x127;" horiz-adv-x="496" 
d="M54 639h61l9 73h80l-9 -73h121l-7 -58h-121l-16 -132q37 63 126 63q72 0 109 -36.5t37 -105.5v-17.5t-2 -18.5l-41 -334h-80l39 317q3 21 3 37q0 46 -21 65.5t-66 19.5q-54 0 -83.5 -26.5t-37.5 -95.5l-38 -317h-80l71 581h-61z" />
    <glyph glyph-name="Itilde" unicode="&#x128;" horiz-adv-x="246" 
d="M138 712h83l-87 -712h-83zM68 843q5 38 23.5 54t48.5 16q19 0 33 -10t26 -22t23 -22t23 -10q17 0 20 25l4 39h56l-7 -51q-5 -38 -23.5 -54t-47.5 -16q-19 0 -33.5 10t-26.5 21.5t-22.5 21.5t-21.5 10q-18 0 -21 -25l-5 -38h-55z" />
    <glyph glyph-name="itilde" unicode="&#x129;" horiz-adv-x="216" 
d="M99 504h80l-62 -504h-80zM33 635q5 38 23.5 54t48.5 16q19 0 33 -10t26 -22t23 -22t23 -10q17 0 20 25l4 39h56l-7 -51q-5 -38 -23.5 -54t-47.5 -16q-19 0 -33.5 10t-26.5 21.5t-22.5 21.5t-21.5 10q-18 0 -21 -25l-5 -38h-55z" />
    <glyph glyph-name="Imacron" unicode="&#x12a;" horiz-adv-x="246" 
d="M138 712h83l-87 -712h-83zM66 883h262l-7 -58h-262z" />
    <glyph glyph-name="imacron" unicode="&#x12b;" horiz-adv-x="216" 
d="M99 504h80l-62 -504h-80zM31 675h262l-7 -58h-262z" />
    <glyph glyph-name="Ibreve" unicode="&#x12c;" horiz-adv-x="246" 
d="M138 712h83l-87 -712h-83zM187 769q-57 0 -88.5 35t-24.5 110h49q-1 -6 -1 -11.5v-10.5q0 -38 17 -54.5t51 -16.5q38 0 60 21t30 72h49q-11 -75 -46 -110t-96 -35z" />
    <glyph glyph-name="ibreve" unicode="&#x12d;" horiz-adv-x="216" 
d="M99 504h80l-62 -504h-80zM152 561q-57 0 -88.5 35t-24.5 110h49q-1 -6 -1 -11.5v-10.5q0 -38 17 -54.5t51 -16.5q38 0 60 21t30 72h49q-11 -75 -46 -110t-96 -35z" />
    <glyph glyph-name="Iogonek" unicode="&#x12e;" horiz-adv-x="246" 
d="M138 712h83l-87 -712q-34 -31 -61 -60.5t-27 -61.5q0 -43 50 -43h38l-6 -51h-37q-51 0 -77 20.5t-26 56.5q0 23 9.5 42t24.5 35.5t33.5 31.5t35.5 30h-40z" />
    <glyph glyph-name="iogonek" unicode="&#x12f;" horiz-adv-x="216" 
d="M99 504h80l-62 -504q-34 -31 -60.5 -60t-26.5 -62q0 -43 49 -43h38l-6 -51h-37q-51 0 -77 20.5t-26 56.5q0 23 9.5 42t24.5 35.5t33.5 31.5t36.5 30h-38zM124 712h80l-12 -94h-79z" />
    <glyph glyph-name="Idotaccent" unicode="&#x130;" horiz-adv-x="246" 
d="M138 712h83l-87 -712h-83zM158 899h80l-11 -94h-80z" />
    <glyph glyph-name="dotlessi" unicode="&#x131;" horiz-adv-x="216" 
d="M99 504h80l-62 -504h-80z" />
    <glyph glyph-name="IJ" unicode="&#x132;" horiz-adv-x="616" 
d="M138 712h83l-87 -712h-83zM305 66q69 0 102.5 29t41.5 95l64 522h83l-64 -520q-12 -98 -63 -145t-162 -47h-88l7 66h79z" />
    <glyph glyph-name="ij" unicode="&#x133;" horiz-adv-x="418" 
d="M124 712h80l-12 -94h-79zM99 504h80l-62 -504h-80zM326 712h80l-12 -94h-79zM301 504h80l-71 -576q-8 -66 -42 -101t-101 -35h-43l9 66h25q33 0 49.5 14.5t21.5 50.5z" />
    <glyph glyph-name="Jcircumflex" unicode="&#x134;" horiz-adv-x="385" 
d="M74 66q69 0 102.5 29t41.5 95l64 522h83l-64 -520q-12 -98 -63 -145t-162 -47h-88l7 66h79zM315 932h71l85 -156h-67l-56 110l-84 -110h-73z" />
    <glyph glyph-name="jcircumflex" unicode="&#x135;" horiz-adv-x="216" 
d="M99 504h80l-71 -576q-8 -66 -42.5 -101t-101.5 -35h-42l9 66h26q33 0 49 14.5t21 50.5zM133 724h71l85 -156h-67l-56 110l-84 -110h-73z" />
    <glyph glyph-name="uni0136" unicode="&#x136;" horiz-adv-x="567" 
d="M138 712h83l-47 -385l348 385h95l-282 -311l193 -401h-89l-164 340l-115 -128l-26 -212h-83zM311 -56l-7 -52l-57 -100h-35l19 152h80z" />
    <glyph glyph-name="uni0137" unicode="&#x137;" horiz-adv-x="454" 
d="M124 712h80l-56 -453l233 245h94l-203 -213l141 -291h-86l-112 235l-79 -80l-19 -155h-80zM253 -56l-7 -52l-57 -100h-35l19 152h80z" />
    <glyph glyph-name="Lacute" unicode="&#x139;" horiz-adv-x="477" 
d="M138 712h83l-79 -646h298l-8 -66h-381zM244 932h91l-123 -156h-68z" />
    <glyph glyph-name="lacute" unicode="&#x13a;" horiz-adv-x="216" 
d="M124 712h80l-87 -712h-80zM225 932h91l-123 -156h-68z" />
    <glyph glyph-name="uni013B" unicode="&#x13b;" horiz-adv-x="477" 
d="M138 712h83l-79 -646h298l-8 -66h-381zM273 -56l-7 -52l-57 -100h-35l19 152h80z" />
    <glyph glyph-name="uni013C" unicode="&#x13c;" horiz-adv-x="216" 
d="M124 712h80l-87 -712h-80zM112 -56l-7 -52l-57 -100h-35l19 152h80z" />
    <glyph glyph-name="Lcaron" unicode="&#x13d;" horiz-adv-x="478" 
d="M138 712h83l-79 -646h298l-8 -66h-381zM449 712l-7 -52l-57 -100h-35l19 152h80z" />
    <glyph glyph-name="lcaron" unicode="&#x13e;" horiz-adv-x="220" 
d="M124 712h80l-87 -712h-80zM327 712l-7 -52l-57 -100h-35l19 152h80z" />
    <glyph glyph-name="Ldot" unicode="&#x13f;" horiz-adv-x="480" 
d="M138 712h83l-79 -646h298l-8 -66h-381zM351 422h80l-11 -94h-80z" />
    <glyph glyph-name="ldot" unicode="&#x140;" horiz-adv-x="251" 
d="M124 712h80l-87 -712h-80zM214 422h80l-11 -94h-80z" />
    <glyph glyph-name="Lslash" unicode="&#x141;" horiz-adv-x="487" 
d="M22 273l79 56l47 383h82l-39 -319l201 142l-10 -75l-200 -142l-31 -252h298l-7 -66h-381l31 254l-80 -56z" />
    <glyph glyph-name="lslash" unicode="&#x142;" horiz-adv-x="269" 
d="M30 322l81 57l41 333h80l-33 -272l82 58l-9 -66l-81 -58l-46 -374h-80l38 312l-80 -56z" />
    <glyph glyph-name="Nacute" unicode="&#x143;" horiz-adv-x="638" 
d="M138 712h73l251 -550l68 550h83l-87 -712h-73l-252 549l-67 -549h-83zM443 932h91l-123 -156h-68z" />
    <glyph glyph-name="nacute" unicode="&#x144;" horiz-adv-x="496" 
d="M99 504h77l-8 -61q37 69 130 69q72 0 109 -36.5t37 -105.5v-17.5t-2 -18.5l-41 -334h-80l39 317q3 21 3 37q0 46 -21 65.5t-66 19.5q-54 0 -83.5 -27t-37.5 -95l-38 -317h-80zM337 724h91l-123 -156h-68z" />
    <glyph glyph-name="uni0145" unicode="&#x145;" horiz-adv-x="638" 
d="M138 712h73l251 -550l68 550h83l-87 -712h-73l-252 549l-67 -549h-83zM330 -56l-7 -52l-57 -100h-35l19 152h80z" />
    <glyph glyph-name="uni0146" unicode="&#x146;" horiz-adv-x="496" 
d="M99 504h77l-8 -61q37 69 130 69q72 0 109 -36.5t37 -105.5v-17.5t-2 -18.5l-41 -334h-80l39 317q3 21 3 37q0 46 -21 65.5t-66 19.5q-54 0 -83.5 -27t-37.5 -95l-38 -317h-80zM252 -56l-7 -52l-57 -100h-35l19 152h80z" />
    <glyph glyph-name="Ncaron" unicode="&#x147;" horiz-adv-x="638" 
d="M138 712h73l251 -550l68 550h83l-87 -712h-73l-252 549l-67 -549h-83zM268 932h67l56 -110l84 110h74l-125 -156h-71z" />
    <glyph glyph-name="ncaron" unicode="&#x148;" horiz-adv-x="496" 
d="M99 504h77l-8 -61q37 69 130 69q72 0 109 -36.5t37 -105.5v-17.5t-2 -18.5l-41 -334h-80l39 317q3 21 3 37q0 46 -21 65.5t-66 19.5q-54 0 -83.5 -27t-37.5 -95l-38 -317h-80zM162 724h67l56 -110l84 110h74l-125 -156h-71z" />
    <glyph glyph-name="napostrophe" unicode="&#x149;" horiz-adv-x="496" 
d="M99 504h77l-8 -61q37 69 130 69q72 0 109 -36.5t37 -105.5v-17.5t-2 -18.5l-41 -334h-80l39 317q3 21 3 37q0 46 -21 65.5t-66 19.5q-54 0 -83.5 -27t-37.5 -95l-38 -317h-80zM131 712h80l-7 -52l-57 -100h-35z" />
    <glyph glyph-name="Eng" unicode="&#x14a;" horiz-adv-x="638" 
d="M138 712h73l251 -550l68 550h83l-90 -729q-12 -98 -63 -144.5t-158 -46.5h-51l9 66h50q63 0 92.5 28t37.5 94l4 38l-243 531l-67 -549h-83z" />
    <glyph glyph-name="eng" unicode="&#x14b;" horiz-adv-x="496" 
d="M239 -142q33 0 50 14.5t22 50.5l49 394q3 21 3 37q0 46 -21 65.5t-66 19.5q-51 0 -82 -27t-39 -95l-38 -317h-80l62 504h77l-8 -61q37 69 130 69q72 0 109 -36.5t37 -105.5v-17.5t-2 -18.5l-50 -406q-8 -66 -42 -101t-103 -35h-42l9 66h25z" />
    <glyph glyph-name="Omacron" unicode="&#x14c;" horiz-adv-x="623" 
d="M288 -12q-62 0 -106 13.5t-72.5 43.5t-42 77t-13.5 114q0 56 9 128q12 99 32 167.5t54 111.5t85.5 62t125.5 19q62 0 106.5 -13.5t73 -43t42 -76t13.5 -112.5q0 -27 -2 -57t-6 -64q-12 -103 -32 -173.5t-54.5 -114t-86 -63t-126.5 -19.5zM287 54q53 0 88.5 13.5t59.5 48
t39 94t27 151.5q5 37 7.5 68t2.5 57q0 46 -8 77t-26 50t-47 27t-70 8q-52 0 -88 -13.5t-60 -46.5t-39 -88t-25 -139q-5 -43 -8 -78t-3 -64q0 -48 8 -80t26 -50.5t46.5 -26.5t69.5 -8zM259 883h262l-7 -58h-262z" />
    <glyph glyph-name="omacron" unicode="&#x14d;" horiz-adv-x="484" 
d="M214 -8q-93 0 -134.5 43.5t-41.5 140.5q0 38 6 79q9 68 25 116.5t42.5 80t65 46t92.5 14.5q93 0 134.5 -43.5t41.5 -142.5q0 -17 -1.5 -37t-3.5 -40q-9 -68 -25.5 -116.5t-43 -80t-65 -46t-92.5 -14.5zM217 58q32 0 56 10t41 32.5t28 59.5t18 92q2 20 3.5 38t1.5 34
q0 65 -24 90t-76 25q-32 0 -55.5 -9t-40.5 -31t-27.5 -57.5t-17.5 -89.5q-6 -44 -6 -76q0 -66 23.5 -92t75.5 -26zM158 675h262l-7 -58h-262z" />
    <glyph glyph-name="Obreve" unicode="&#x14e;" horiz-adv-x="623" 
d="M288 -12q-62 0 -106 13.5t-72.5 43.5t-42 77t-13.5 114q0 56 9 128q12 99 32 167.5t54 111.5t85.5 62t125.5 19q62 0 106.5 -13.5t73 -43t42 -76t13.5 -112.5q0 -27 -2 -57t-6 -64q-12 -103 -32 -173.5t-54.5 -114t-86 -63t-126.5 -19.5zM287 54q53 0 88.5 13.5t59.5 48
t39 94t27 151.5q5 37 7.5 68t2.5 57q0 46 -8 77t-26 50t-47 27t-70 8q-52 0 -88 -13.5t-60 -46.5t-39 -88t-25 -139q-5 -43 -8 -78t-3 -64q0 -48 8 -80t26 -50.5t46.5 -26.5t69.5 -8zM380 769q-57 0 -88.5 35t-24.5 110h49q-1 -6 -1 -11.5v-10.5q0 -38 17 -54.5t51 -16.5
q38 0 60 21t30 72h49q-11 -75 -46 -110t-96 -35z" />
    <glyph glyph-name="obreve" unicode="&#x14f;" horiz-adv-x="484" 
d="M214 -8q-93 0 -134.5 43.5t-41.5 140.5q0 38 6 79q9 68 25 116.5t42.5 80t65 46t92.5 14.5q93 0 134.5 -43.5t41.5 -142.5q0 -17 -1.5 -37t-3.5 -40q-9 -68 -25.5 -116.5t-43 -80t-65 -46t-92.5 -14.5zM217 58q32 0 56 10t41 32.5t28 59.5t18 92q2 20 3.5 38t1.5 34
q0 65 -24 90t-76 25q-32 0 -55.5 -9t-40.5 -31t-27.5 -57.5t-17.5 -89.5q-6 -44 -6 -76q0 -66 23.5 -92t75.5 -26zM279 561q-57 0 -88.5 35t-24.5 110h49q-1 -6 -1 -11.5v-10.5q0 -38 17 -54.5t51 -16.5q38 0 60 21t30 72h49q-11 -75 -46 -110t-96 -35z" />
    <glyph glyph-name="Ohungarumlaut" unicode="&#x150;" horiz-adv-x="623" 
d="M288 -12q-62 0 -106 13.5t-72.5 43.5t-42 77t-13.5 114q0 56 9 128q12 99 32 167.5t54 111.5t85.5 62t125.5 19q62 0 106.5 -13.5t73 -43t42 -76t13.5 -112.5q0 -27 -2 -57t-6 -64q-12 -103 -32 -173.5t-54.5 -114t-86 -63t-126.5 -19.5zM287 54q53 0 88.5 13.5t59.5 48
t39 94t27 151.5q5 37 7.5 68t2.5 57q0 46 -8 77t-26 50t-47 27t-70 8q-52 0 -88 -13.5t-60 -46.5t-39 -88t-25 -139q-5 -43 -8 -78t-3 -64q0 -48 8 -80t26 -50.5t46.5 -26.5t69.5 -8zM505 932h91l-123 -156h-68zM355 932h91l-123 -156h-68z" />
    <glyph glyph-name="ohungarumlaut" unicode="&#x151;" horiz-adv-x="484" 
d="M214 -8q-93 0 -134.5 43.5t-41.5 140.5q0 38 6 79q9 68 25 116.5t42.5 80t65 46t92.5 14.5q93 0 134.5 -43.5t41.5 -142.5q0 -17 -1.5 -37t-3.5 -40q-9 -68 -25.5 -116.5t-43 -80t-65 -46t-92.5 -14.5zM217 58q32 0 56 10t41 32.5t28 59.5t18 92q2 20 3.5 38t1.5 34
q0 65 -24 90t-76 25q-32 0 -55.5 -9t-40.5 -31t-27.5 -57.5t-17.5 -89.5q-6 -44 -6 -76q0 -66 23.5 -92t75.5 -26zM404 724h91l-123 -156h-68zM254 724h91l-123 -156h-68z" />
    <glyph glyph-name="OE" unicode="&#x152;" horiz-adv-x="887" 
d="M290 0q-62 0 -107 13t-73.5 41.5t-42 74t-13.5 110.5q0 53 9 119q12 96 31.5 163.5t53.5 109.5t85 61.5t125 19.5h538l-9 -76h-299l-28 -235h274l-9 -70h-274l-32 -265h298l-8 -66h-519zM138 228q0 -47 8 -78t26 -50t46.5 -26.5t69.5 -7.5h148l69 570h-146
q-53 0 -88.5 -13.5t-59.5 -45t-38 -84.5t-24 -132q-5 -40 -8 -73t-3 -60z" />
    <glyph glyph-name="oe" unicode="&#x153;" horiz-adv-x="783" 
d="M528 -8q-57 0 -93.5 20t-53.5 65q-26 -45 -66 -65t-99 -20q-91 0 -134.5 45t-43.5 142q0 35 6 77q8 68 23.5 116.5t42 79.5t64.5 45.5t92 14.5q115 0 151 -86q50 86 162 86q88 0 127 -45.5t39 -134.5q0 -17 -1.5 -34t-3.5 -37l-2 -16h-299q-2 -21 -3 -38.5t-1 -32.5
q0 -35 5.5 -57.5t17.5 -35.5t30.5 -18t44.5 -5q52 0 78 20.5t39 70.5h73q-17 -75 -61.5 -116t-133.5 -41zM217 58q32 0 56 10t41 32.5t28 59.5t18 92q2 20 3.5 38t1.5 34q0 65 -24 90t-76 25q-33 0 -56.5 -9t-40 -31t-27.5 -57.5t-17 -89.5q-6 -44 -6 -76q0 -66 23.5 -92
t75.5 -26zM575 439q-26 0 -46 -6t-35.5 -21t-26.5 -40.5t-19 -64.5h221q1 8 1 15.5v14.5q0 59 -23 80.5t-72 21.5z" />
    <glyph glyph-name="Racute" unicode="&#x154;" horiz-adv-x="558" 
d="M138 712h214q96 0 142.5 -38.5t46.5 -130.5q0 -24 -3 -52q-6 -53 -19 -88.5t-33.5 -58.5t-49 -35t-65.5 -16l128 -293h-89l-121 283h-121l-34 -283h-83zM211 636l-34 -284h139q33 0 57 6t40.5 22t26.5 43.5t15 70.5q2 14 3 25.5t1 22.5q0 55 -25.5 74.5t-81.5 19.5h-141z
M404 932h91l-123 -156h-68z" />
    <glyph glyph-name="racute" unicode="&#x155;" horiz-adv-x="310" 
d="M76 354q8 72 48 111t115 39h86l-9 -70h-76q-75 0 -84 -74l-43 -360h-80zM289 724h91l-123 -156h-68z" />
    <glyph glyph-name="uni0156" unicode="&#x156;" horiz-adv-x="558" 
d="M138 712h214q96 0 142.5 -38.5t46.5 -130.5q0 -24 -3 -52q-6 -53 -19 -88.5t-33.5 -58.5t-49 -35t-65.5 -16l128 -293h-89l-121 283h-121l-34 -283h-83zM211 636l-34 -284h139q33 0 57 6t40.5 22t26.5 43.5t15 70.5q2 14 3 25.5t1 22.5q0 55 -25.5 74.5t-81.5 19.5h-141z
M305 -56l-7 -52l-57 -100h-35l19 152h80z" />
    <glyph glyph-name="uni0157" unicode="&#x157;" horiz-adv-x="310" 
d="M76 354q8 72 48 111t115 39h86l-9 -70h-76q-75 0 -84 -74l-43 -360h-80zM107 -56l-7 -52l-57 -100h-35l19 152h80z" />
    <glyph glyph-name="Rcaron" unicode="&#x158;" horiz-adv-x="558" 
d="M138 712h214q96 0 142.5 -38.5t46.5 -130.5q0 -24 -3 -52q-6 -53 -19 -88.5t-33.5 -58.5t-49 -35t-65.5 -16l128 -293h-89l-121 283h-121l-34 -283h-83zM211 636l-34 -284h139q33 0 57 6t40.5 22t26.5 43.5t15 70.5q2 14 3 25.5t1 22.5q0 55 -25.5 74.5t-81.5 19.5h-141z
M229 932h67l56 -110l84 110h74l-125 -156h-71z" />
    <glyph glyph-name="rcaron" unicode="&#x159;" horiz-adv-x="310" 
d="M76 354q8 72 48 111t115 39h86l-9 -70h-76q-75 0 -84 -74l-43 -360h-80zM114 724h67l56 -110l84 110h74l-125 -156h-71z" />
    <glyph glyph-name="Sacute" unicode="&#x15a;" horiz-adv-x="543" 
d="M115 216q-6 -87 25.5 -124.5t110.5 -37.5q34 0 63 8.5t50 26.5t33 46t12 68q0 49 -30.5 71.5t-83.5 37.5l-54 15q-35 10 -64 23t-50 33t-33 48t-12 67q0 104 61.5 165t173.5 61q63 0 104.5 -16t65.5 -46t32 -74t5 -100h-79q2 45 -4.5 75.5t-22.5 49.5t-42 27t-62 8
q-64 0 -106 -34.5t-42 -105.5q0 -25 8 -42.5t23 -29.5t35.5 -20.5t45.5 -15.5l55 -15q38 -11 67.5 -25.5t50 -35t31 -48t10.5 -64.5q0 -108 -63 -166t-180 -58q-121 0 -171.5 55t-41.5 173h79zM388 932h91l-123 -156h-68z" />
    <glyph glyph-name="sacute" unicode="&#x15b;" horiz-adv-x="428" 
d="M99 143q-2 -50 20.5 -68.5t70.5 -18.5q49 0 77.5 19.5t28.5 70.5q0 29 -18 42t-66 25l-51 13q-49 12 -76 40t-27 82q0 164 180 164q40 0 71.5 -8t52 -26.5t29 -49t3.5 -74.5h-73q4 53 -16.5 70.5t-68.5 17.5t-74.5 -18.5t-26.5 -66.5q0 -26 15.5 -41t57.5 -26l52 -13
q60 -15 87 -45.5t27 -78.5q0 -82 -48 -121.5t-139 -39.5q-48 0 -79.5 11t-50 31.5t-25.5 48t-6 60.5h73zM307 724h91l-123 -156h-68z" />
    <glyph glyph-name="Scircumflex" unicode="&#x15c;" horiz-adv-x="543" 
d="M115 216q-6 -87 25.5 -124.5t110.5 -37.5q34 0 63 8.5t50 26.5t33 46t12 68q0 49 -30.5 71.5t-83.5 37.5l-54 15q-35 10 -64 23t-50 33t-33 48t-12 67q0 104 61.5 165t173.5 61q63 0 104.5 -16t65.5 -46t32 -74t5 -100h-79q2 45 -4.5 75.5t-22.5 49.5t-42 27t-62 8
q-64 0 -106 -34.5t-42 -105.5q0 -25 8 -42.5t23 -29.5t35.5 -20.5t45.5 -15.5l55 -15q38 -11 67.5 -25.5t50 -35t31 -48t10.5 -64.5q0 -108 -63 -166t-180 -58q-121 0 -171.5 55t-41.5 173h79zM317 932h71l85 -156h-67l-56 110l-84 -110h-73z" />
    <glyph glyph-name="scircumflex" unicode="&#x15d;" horiz-adv-x="428" 
d="M99 143q-2 -50 20.5 -68.5t70.5 -18.5q49 0 77.5 19.5t28.5 70.5q0 29 -18 42t-66 25l-51 13q-49 12 -76 40t-27 82q0 164 180 164q40 0 71.5 -8t52 -26.5t29 -49t3.5 -74.5h-73q4 53 -16.5 70.5t-68.5 17.5t-74.5 -18.5t-26.5 -66.5q0 -26 15.5 -41t57.5 -26l52 -13
q60 -15 87 -45.5t27 -78.5q0 -82 -48 -121.5t-139 -39.5q-48 0 -79.5 11t-50 31.5t-25.5 48t-6 60.5h73zM236 724h71l85 -156h-67l-56 110l-84 -110h-73z" />
    <glyph glyph-name="Scedilla" unicode="&#x15e;" horiz-adv-x="543" 
d="M219 -11q-104 7 -147.5 62t-35.5 165h79q-6 -87 25.5 -124.5t110.5 -37.5q34 0 63 8.5t50 26.5t33 46t12 68q0 49 -30.5 71.5t-83.5 37.5l-54 15q-35 10 -64 23t-50 33t-33 48t-12 67q0 104 61.5 165t173.5 61q63 0 104.5 -16t65.5 -46t32 -74t5 -100h-79q2 45 -4.5 75.5
t-22.5 49.5t-42 27t-62 8q-64 0 -106 -34.5t-42 -105.5q0 -25 8 -42.5t23 -29.5t35.5 -20.5t45.5 -15.5l55 -15q38 -11 67.5 -25.5t50 -35t31 -48t10.5 -64.5q0 -107 -62.5 -165t-177.5 -59l-3 -25q52 -3 75 -25t23 -55q0 -26 -10 -44.5t-27 -30.5t-40 -18t-49 -6h-76l6 46
h57q28 0 50.5 10.5t22.5 43.5q0 38 -61 38h-28z" />
    <glyph glyph-name="scedilla" unicode="&#x15f;" horiz-adv-x="428" 
d="M163 -7q-41 3 -68 15t-42.5 31.5t-21.5 46t-5 57.5h73q-2 -50 20.5 -68.5t70.5 -18.5q49 0 77.5 19.5t28.5 70.5q0 29 -18 42t-66 25l-51 13q-49 12 -76 40t-27 82q0 164 180 164q40 0 71.5 -8t52 -26.5t29 -49t3.5 -74.5h-73q4 53 -16.5 70.5t-68.5 17.5t-74.5 -18.5
t-26.5 -66.5q0 -26 15.5 -41t57.5 -26l52 -13q60 -15 87 -45.5t27 -78.5q0 -81 -45.5 -120t-133.5 -41l-4 -29q52 -3 75 -25t23 -55q0 -26 -10 -44.5t-27 -30.5t-40 -18t-49 -6h-76l6 46h57q28 0 50.5 10.5t22.5 43.5q0 38 -61 38h-28z" />
    <glyph glyph-name="Scaron" unicode="&#x160;" horiz-adv-x="543" 
d="M115 216q-6 -87 25.5 -124.5t110.5 -37.5q34 0 63 8.5t50 26.5t33 46t12 68q0 49 -30.5 71.5t-83.5 37.5l-54 15q-35 10 -64 23t-50 33t-33 48t-12 67q0 104 61.5 165t173.5 61q63 0 104.5 -16t65.5 -46t32 -74t5 -100h-79q2 45 -4.5 75.5t-22.5 49.5t-42 27t-62 8
q-64 0 -106 -34.5t-42 -105.5q0 -25 8 -42.5t23 -29.5t35.5 -20.5t45.5 -15.5l55 -15q38 -11 67.5 -25.5t50 -35t31 -48t10.5 -64.5q0 -108 -63 -166t-180 -58q-121 0 -171.5 55t-41.5 173h79zM213 932h67l56 -110l84 110h74l-125 -156h-71z" />
    <glyph glyph-name="scaron" unicode="&#x161;" horiz-adv-x="428" 
d="M99 143q-2 -50 20.5 -68.5t70.5 -18.5q49 0 77.5 19.5t28.5 70.5q0 29 -18 42t-66 25l-51 13q-49 12 -76 40t-27 82q0 164 180 164q40 0 71.5 -8t52 -26.5t29 -49t3.5 -74.5h-73q4 53 -16.5 70.5t-68.5 17.5t-74.5 -18.5t-26.5 -66.5q0 -26 15.5 -41t57.5 -26l52 -13
q60 -15 87 -45.5t27 -78.5q0 -82 -48 -121.5t-139 -39.5q-48 0 -79.5 11t-50 31.5t-25.5 48t-6 60.5h73zM132 724h67l56 -110l84 110h74l-125 -156h-71z" />
    <glyph glyph-name="uni0162" unicode="&#x162;" horiz-adv-x="522" 
d="M215 0h-26l77 636h-202l9 76h487l-9 -76h-203l-77 -636h-26l-5 -37q52 -3 75 -25t23 -55q0 -26 -10 -44.5t-27 -30.5t-40 -18t-49 -6h-76l6 46h57q28 0 50.5 10.5t22.5 43.5q0 38 -61 38h-28z" />
    <glyph glyph-name="uni0163" unicode="&#x163;" horiz-adv-x="330" 
d="M153 7q-83 24 -83 118q0 8 0.5 15t1.5 15l34 279h-64l9 70h66l15 120h77l-15 -120h149l-10 -70h-147l-34 -276q-1 -8 -1.5 -15t-0.5 -13q0 -35 17.5 -49.5t58.5 -14.5h62l-7 -66h-70h-14.5t-12.5 1l-4 -38q52 -3 75 -25t23 -55q0 -26 -10 -44.5t-27 -30.5t-40 -18t-49 -6
h-76l6 46h57q28 0 50.5 10.5t22.5 43.5q0 38 -61 38h-28z" />
    <glyph glyph-name="Tcaron" unicode="&#x164;" horiz-adv-x="522" 
d="M73 712h487l-9 -76h-203l-77 -636h-82l77 636h-202zM208 932h67l56 -110l84 110h74l-125 -156h-71z" />
    <glyph glyph-name="tcaron" unicode="&#x165;" horiz-adv-x="330" 
d="M51 504h66l15 120h77l-15 -120h149l-10 -70h-147l-34 -276q-1 -8 -1.5 -15t-0.5 -13q0 -35 17.5 -49.5t58.5 -14.5h62l-7 -66h-70q-69 0 -105 31t-36 94q0 8 0.5 15t1.5 15l34 279h-64zM360 712l-7 -52l-57 -100h-35l19 152h80z" />
    <glyph glyph-name="Tbar" unicode="&#x166;" horiz-adv-x="549" 
d="M87 712h487l-10 -76h-203l-29 -239h155l-8 -63h-154l-41 -334h-82l41 334h-155l8 63h154l29 239h-202z" />
    <glyph glyph-name="tbar" unicode="&#x167;" horiz-adv-x="338" 
d="M56 504h66l15 120h77l-15 -120h148l-9 -70h-147l-18 -142h147l-6 -58h-148l-9 -76q-1 -8 -1.5 -15t-0.5 -13q0 -35 17.5 -49.5t57.5 -14.5h63l-8 -66h-69q-69 0 -105 31t-36 94q0 8 0.5 15t1.5 15l9 79h-64l7 58h64l17 142h-63z" />
    <glyph glyph-name="Utilde" unicode="&#x168;" horiz-adv-x="624" 
d="M132 712h83l-59 -477q-3 -29 -3 -52q0 -71 32.5 -100t102.5 -29q41 0 71.5 9.5t51.5 31t34 56t19 84.5l58 477h83l-59 -477q-8 -63 -25.5 -109t-48 -77t-76 -46t-109.5 -15q-114 0 -166 47t-52 144q0 14 1 27.5t3 28.5zM263 843q5 38 23.5 54t48.5 16q19 0 33 -10t26 -22
t23 -22t23 -10q17 0 20 25l4 39h56l-7 -51q-5 -38 -23.5 -54t-47.5 -16q-19 0 -33.5 10t-26.5 21.5t-22.5 21.5t-21.5 10q-18 0 -21 -25l-5 -38h-55z" />
    <glyph glyph-name="utilde" unicode="&#x169;" horiz-adv-x="496" 
d="M175 504l-39 -318q-3 -21 -3 -39q0 -47 20.5 -68t65.5 -21q51 0 81 28.5t39 99.5l40 318h80l-62 -504h-77l7 60q-38 -68 -130 -68q-72 0 -109 36.5t-37 105.5v17.5t2 18.5l42 334h80zM165 635q5 38 23.5 54t48.5 16q19 0 33 -10t26 -22t23 -22t23 -10q17 0 20 25l4 39h56
l-7 -51q-5 -38 -23.5 -54t-47.5 -16q-19 0 -33.5 10t-26.5 21.5t-22.5 21.5t-21.5 10q-18 0 -21 -25l-5 -38h-55z" />
    <glyph glyph-name="Umacron" unicode="&#x16a;" horiz-adv-x="624" 
d="M132 712h83l-59 -477q-3 -29 -3 -52q0 -71 32.5 -100t102.5 -29q41 0 71.5 9.5t51.5 31t34 56t19 84.5l58 477h83l-59 -477q-8 -63 -25.5 -109t-48 -77t-76 -46t-109.5 -15q-114 0 -166 47t-52 144q0 14 1 27.5t3 28.5zM261 883h262l-7 -58h-262z" />
    <glyph glyph-name="umacron" unicode="&#x16b;" horiz-adv-x="496" 
d="M175 504l-39 -318q-3 -21 -3 -39q0 -47 20.5 -68t65.5 -21q51 0 81 28.5t39 99.5l40 318h80l-62 -504h-77l7 60q-38 -68 -130 -68q-72 0 -109 36.5t-37 105.5v17.5t2 18.5l42 334h80zM163 675h262l-7 -58h-262z" />
    <glyph glyph-name="Ubreve" unicode="&#x16c;" horiz-adv-x="624" 
d="M132 712h83l-59 -477q-3 -29 -3 -52q0 -71 32.5 -100t102.5 -29q41 0 71.5 9.5t51.5 31t34 56t19 84.5l58 477h83l-59 -477q-8 -63 -25.5 -109t-48 -77t-76 -46t-109.5 -15q-114 0 -166 47t-52 144q0 14 1 27.5t3 28.5zM382 769q-57 0 -88.5 35t-24.5 110h49
q-1 -6 -1 -11.5v-10.5q0 -38 17 -54.5t51 -16.5q38 0 60 21t30 72h49q-11 -75 -46 -110t-96 -35z" />
    <glyph glyph-name="ubreve" unicode="&#x16d;" horiz-adv-x="496" 
d="M175 504l-39 -318q-3 -21 -3 -39q0 -47 20.5 -68t65.5 -21q51 0 81 28.5t39 99.5l40 318h80l-62 -504h-77l7 60q-38 -68 -130 -68q-72 0 -109 36.5t-37 105.5v17.5t2 18.5l42 334h80zM284 561q-57 0 -88.5 35t-24.5 110h49q-1 -6 -1 -11.5v-10.5q0 -38 17 -54.5t51 -16.5
q38 0 60 21t30 72h49q-11 -75 -46 -110t-96 -35z" />
    <glyph glyph-name="Uring" unicode="&#x16e;" horiz-adv-x="624" 
d="M132 712h83l-59 -477q-3 -29 -3 -52q0 -71 32.5 -100t102.5 -29q41 0 71.5 9.5t51.5 31t34 56t19 84.5l58 477h83l-59 -477q-8 -63 -25.5 -109t-48 -77t-76 -46t-109.5 -15q-114 0 -166 47t-52 144q0 14 1 27.5t3 28.5zM383 808q33 0 46 19.5t13 51.5q0 18 -9.5 29.5
t-35.5 11.5q-33 0 -46 -20t-13 -52q0 -18 9.5 -29t35.5 -11zM382 769q-88 0 -88 79q0 22 6.5 42t19 35t32 24t46.5 9q88 0 88 -79q0 -22 -6.5 -42t-19 -35t-32 -24t-46.5 -9z" />
    <glyph glyph-name="uring" unicode="&#x16f;" horiz-adv-x="496" 
d="M175 504l-39 -318q-3 -21 -3 -39q0 -47 20.5 -68t65.5 -21q51 0 81 28.5t39 99.5l40 318h80l-62 -504h-77l7 60q-38 -68 -130 -68q-72 0 -109 36.5t-37 105.5v17.5t2 18.5l42 334h80zM285 600q33 0 46 19.5t13 51.5q0 18 -9.5 29.5t-35.5 11.5q-33 0 -46 -20t-13 -52
q0 -18 9.5 -29t35.5 -11zM284 561q-88 0 -88 79q0 22 6.5 42t19 35t32 24t46.5 9q88 0 88 -79q0 -22 -6.5 -42t-19 -35t-32 -24t-46.5 -9z" />
    <glyph glyph-name="Uhungarumlaut" unicode="&#x170;" horiz-adv-x="624" 
d="M132 712h83l-59 -477q-3 -29 -3 -52q0 -71 32.5 -100t102.5 -29q41 0 71.5 9.5t51.5 31t34 56t19 84.5l58 477h83l-59 -477q-8 -63 -25.5 -109t-48 -77t-76 -46t-109.5 -15q-114 0 -166 47t-52 144q0 14 1 27.5t3 28.5zM507 932h91l-123 -156h-68zM357 932h91l-123 -156
h-68z" />
    <glyph glyph-name="uhungarumlaut" unicode="&#x171;" horiz-adv-x="496" 
d="M175 504l-39 -318q-3 -21 -3 -39q0 -47 20.5 -68t65.5 -21q51 0 81 28.5t39 99.5l40 318h80l-62 -504h-77l7 60q-38 -68 -130 -68q-72 0 -109 36.5t-37 105.5v17.5t2 18.5l42 334h80zM409 724h91l-123 -156h-68zM259 724h91l-123 -156h-68z" />
    <glyph glyph-name="Uogonek" unicode="&#x172;" horiz-adv-x="624" 
d="M332 -216q-51 0 -77 20.5t-26 56.5q0 21 8 38.5t20.5 32.5t28.5 29t33 28q-8 0 -16 -0.5t-16 -0.5q-114 0 -166 46t-52 143q0 14 1 28t3 30l59 477h83l-59 -477q-3 -29 -3 -52q0 -71 32.5 -100t102.5 -29q41 0 71.5 9.5t51.5 31t34 56t19 84.5l58 477h83l-59 -477
q-13 -103 -53 -162t-123 -77q-32 -29 -57.5 -57.5t-25.5 -60.5q0 -43 50 -43h38l-6 -51h-37z" />
    <glyph glyph-name="uogonek" unicode="&#x173;" horiz-adv-x="496" 
d="M354 -216q-51 0 -77 20.5t-26 56.5q0 23 9.5 42t24.5 35.5t33.5 31.5t35.5 30h-34l7 60q-38 -68 -130 -68q-72 0 -109 36.5t-37 105.5v17.5t2 18.5l42 334h80l-39 -318q-3 -21 -3 -39q0 -47 20.5 -68t65.5 -21q51 0 81 28.5t39 99.5l40 318h80l-62 -504
q-35 -31 -61.5 -60t-26.5 -62q0 -43 50 -43h38l-6 -51h-37z" />
    <glyph glyph-name="Wcircumflex" unicode="&#x174;" horiz-adv-x="886" 
d="M72 712h82l75 -605l243 605h61l91 -602l224 602h79l-271 -712h-88l-84 555l-225 -555h-91zM491 932h71l85 -156h-67l-56 110l-84 -110h-73z" />
    <glyph glyph-name="wcircumflex" unicode="&#x175;" horiz-adv-x="694" 
d="M44 504h82l62 -387l163 387h57l69 -387l157 387h78l-214 -504h-73l-65 358l-152 -358h-74zM368 724h71l85 -156h-67l-56 110l-84 -110h-73z" />
    <glyph glyph-name="Ycircumflex" unicode="&#x176;" horiz-adv-x="543" 
d="M235 298l-167 414h89l131 -334l214 334h86l-272 -418l-34 -294h-83zM324 932h71l85 -156h-67l-56 110l-84 -110h-73z" />
    <glyph glyph-name="ycircumflex" unicode="&#x177;" horiz-adv-x="440" 
d="M29 -142q32 0 54.5 17.5t42.5 62.5l28 62l-108 504h81l80 -388l175 388h78l-263 -571q-16 -34 -31 -60.5t-33.5 -44.5t-43.5 -27t-61 -9h-45l8 66h38zM252 724h71l85 -156h-67l-56 110l-84 -110h-73z" />
    <glyph glyph-name="Ydieresis" unicode="&#x178;" horiz-adv-x="543" 
d="M235 298l-167 414h89l131 -334l214 334h86l-272 -418l-34 -294h-83zM398 899h80l-11 -94h-80zM231 899h79l-11 -94h-80z" />
    <glyph glyph-name="Zacute" unicode="&#x179;" horiz-adv-x="488" 
d="M85 712h431l-5 -50l-400 -596h318l-8 -66h-414l5 50l392 586h-328zM365 932h91l-123 -156h-68z" />
    <glyph glyph-name="zacute" unicode="&#x17a;" horiz-adv-x="399" 
d="M64 504h334l-6 -46l-280 -392h226l-7 -66h-324l5 46l275 388h-232zM298 724h91l-123 -156h-68z" />
    <glyph glyph-name="Zdotaccent" unicode="&#x17b;" horiz-adv-x="488" 
d="M85 712h431l-5 -50l-400 -596h318l-8 -66h-414l5 50l392 586h-328zM284 899h80l-11 -94h-80z" />
    <glyph glyph-name="zdotaccent" unicode="&#x17c;" horiz-adv-x="399" 
d="M64 504h334l-6 -46l-280 -392h226l-7 -66h-324l5 46l275 388h-232zM217 691h80l-11 -94h-80z" />
    <glyph glyph-name="Zcaron" unicode="&#x17d;" horiz-adv-x="488" 
d="M85 712h431l-5 -50l-400 -596h318l-8 -66h-414l5 50l392 586h-328zM190 932h67l56 -110l84 110h74l-125 -156h-71z" />
    <glyph glyph-name="zcaron" unicode="&#x17e;" horiz-adv-x="399" 
d="M64 504h334l-6 -46l-280 -392h226l-7 -66h-324l5 46l275 388h-232zM123 724h67l56 -110l84 110h74l-125 -156h-71z" />
    <glyph glyph-name="longs" unicode="&#x17f;" horiz-adv-x="254" 
d="M54 504h63l6 50q10 76 50.5 117t119.5 41h70l-9 -73h-60q-43 0 -64.5 -20t-26.5 -63l-67 -556h-80l52 434h-63z" />
    <glyph glyph-name="uni018F" unicode="&#x18f;" horiz-adv-x="607" 
d="M47 222q0 26 2 55t6 61l4 33h428q4 32 5.5 58.5t1.5 49.5q0 48 -8.5 80.5t-26.5 52t-47 28t-70 8.5t-71.5 -8.5t-52.5 -28t-37 -51t-25 -77.5h-80q12 61 32 106t51.5 75t77 45t108.5 15q124 0 178.5 -59.5t54.5 -190.5q0 -28 -2 -58.5t-6 -64.5q-12 -103 -33 -172.5
t-55.5 -112t-85.5 -60.5t-125 -18q-59 0 -101 12.5t-69.5 40t-40.5 72t-13 109.5zM273 54q48 0 81.5 10.5t56.5 38.5t38.5 76t27.5 123h-342q-6 -53 -6 -91q0 -47 8.5 -77t26 -48t44.5 -25t65 -7z" />
    <glyph glyph-name="florin" unicode="&#x192;" horiz-adv-x="560" 
d="M98 401h143l16 127q11 93 57 138.5t137 45.5h91l-9 -73h-74q-29 0 -50 -5.5t-35 -18.5t-22.5 -35t-12.5 -55l-15 -124h170l-9 -70h-170l-43 -355q-11 -93 -57 -138.5t-136 -45.5h-91l9 66h73q58 0 85 27t35 94l43 352h-144z" />
    <glyph glyph-name="AEacute" unicode="&#x1fc;" horiz-adv-x="815" 
d="M331 712h492l-9 -79h-296l-29 -237h273l-8 -70h-273l-31 -254h295l-9 -72h-378l21 172h-232l-84 -172h-84zM182 242h205l48 391h-61zM550 932h91l-123 -156h-68z" />
    <glyph glyph-name="aeacute" unicode="&#x1fd;" horiz-adv-x="734" 
d="M159 -8q-65 0 -101 33t-36 88q0 46 18.5 76.5t49 50t69.5 30t81 17.5l76 12l4 35q3 19 3 36q0 36 -17 54t-62 18q-53 0 -77 -21t-32 -76h-73q6 40 18 71.5t34 52.5t55.5 32t82.5 11q51 0 82.5 -15.5t46.5 -42.5q27 30 64 44t88 14q88 0 126.5 -44.5t38.5 -133.5
q0 -16 -1.5 -33.5t-3.5 -36.5l-2 -19h-301q-3 -21 -4 -38.5t-1 -32.5q0 -35 6 -57.5t19 -35.5t31.5 -18t44.5 -5q52 0 78.5 20t39.5 71h72q-17 -75 -61.5 -116t-133.5 -41q-65 0 -104.5 21.5t-57.5 68.5q-17 -40 -58.5 -65t-101.5 -25zM178 57q48 0 81 27t41 87l8 65
l-70 -10q-20 -3 -44 -8t-44 -16t-33.5 -29t-13.5 -47q0 -33 18.5 -51t56.5 -18zM529 439q-26 0 -46.5 -6t-36.5 -21t-27.5 -40.5t-19.5 -64.5h224q3 38 -1.5 63.5t-16 40.5t-30.5 21.5t-46 6.5zM450 724h91l-123 -156h-68z" />
    <glyph glyph-name="Oslashacute" unicode="&#x1fe;" horiz-adv-x="633" 
d="M21 85l48 48q-10 39 -10 103q0 56 9 128q12 99 32 167.5t54 111.5t85 62t126 19q78 0 128 -21.5t76 -69.5l79 79l-10 -85l-49 -49q10 -41 10 -99q0 -27 -2 -57t-6 -64q-12 -103 -32 -173.5t-54 -114t-85.5 -63t-126.5 -19.5q-78 0 -128 21t-76 69l-78 -78zM292 54
q53 0 89 13.5t60 48t39 94t26 151.5q9 73 9 125q0 5 -0.5 9t-0.5 8l-364 -364q13 -48 47 -66.5t95 -18.5zM142 206l363 363q-14 45 -47 62t-93 17q-53 0 -89 -13.5t-60 -46.5t-38.5 -88t-24.5 -139q-5 -43 -8 -78t-3 -64v-13zM437 932h91l-123 -156h-68z" />
    <glyph glyph-name="oslashacute" unicode="&#x1ff;" horiz-adv-x="494" 
d="M16 71l35 33q-7 27 -7 73q0 17 1.5 37.5t3.5 41.5q8 68 24 116.5t43 79.5t65.5 45.5t92.5 14.5q109 0 150 -66l63 58l-9 -71l-35 -33q8 -37 8 -75q0 -37 -6 -77q-9 -68 -25 -116.5t-43 -79.5t-65.5 -45.5t-92.5 -14.5q-108 0 -149 65l-62 -57zM223 58q32 0 55.5 10
t40.5 32.5t28 59.5t18 92q6 40 6 72v10l-240 -221q10 -30 32 -42.5t60 -12.5zM124 170l238 219q-11 27 -33.5 38.5t-58.5 11.5q-32 0 -56 -9t-40.5 -31t-27.5 -57.5t-17 -89.5q-2 -22 -3.5 -40.5t-1.5 -35.5v-6zM339 724h91l-123 -156h-68z" />
    <glyph glyph-name="uni0218" unicode="&#x218;" horiz-adv-x="543" 
d="M115 216q-6 -87 25.5 -124.5t110.5 -37.5q34 0 63 8.5t50 26.5t33 46t12 68q0 49 -30.5 71.5t-83.5 37.5l-54 15q-35 10 -64 23t-50 33t-33 48t-12 67q0 104 61.5 165t173.5 61q63 0 104.5 -16t65.5 -46t32 -74t5 -100h-79q2 45 -4.5 75.5t-22.5 49.5t-42 27t-62 8
q-64 0 -106 -34.5t-42 -105.5q0 -25 8 -42.5t23 -29.5t35.5 -20.5t45.5 -15.5l55 -15q38 -11 67.5 -25.5t50 -35t31 -48t10.5 -64.5q0 -108 -63 -166t-180 -58q-121 0 -171.5 55t-41.5 173h79zM272 -56l-7 -52l-57 -100h-35l19 152h80z" />
    <glyph glyph-name="uni0219" unicode="&#x219;" horiz-adv-x="428" 
d="M99 143q-2 -50 20.5 -68.5t70.5 -18.5q49 0 77.5 19.5t28.5 70.5q0 29 -18 42t-66 25l-51 13q-49 12 -76 40t-27 82q0 164 180 164q40 0 71.5 -8t52 -26.5t29 -49t3.5 -74.5h-73q4 53 -16.5 70.5t-68.5 17.5t-74.5 -18.5t-26.5 -66.5q0 -26 15.5 -41t57.5 -26l52 -13
q60 -15 87 -45.5t27 -78.5q0 -82 -48 -121.5t-139 -39.5q-48 0 -79.5 11t-50 31.5t-25.5 48t-6 60.5h73zM214 -56l-7 -52l-57 -100h-35l19 152h80z" />
    <glyph glyph-name="uni021A" unicode="&#x21a;" horiz-adv-x="522" 
d="M73 712h487l-9 -76h-203l-77 -636h-82l77 636h-202zM265 -56l-7 -52l-57 -100h-35l19 152h80z" />
    <glyph glyph-name="uni021B" unicode="&#x21b;" horiz-adv-x="330" 
d="M51 504h66l15 120h77l-15 -120h149l-10 -70h-147l-34 -276q-1 -8 -1.5 -15t-0.5 -13q0 -35 17.5 -49.5t58.5 -14.5h62l-7 -66h-70q-69 0 -105 31t-36 94q0 8 0.5 15t1.5 15l34 279h-64zM203 -56l-7 -52l-57 -100h-35l19 152h80z" />
    <glyph glyph-name="uni0237" unicode="&#x237;" horiz-adv-x="216" 
d="M99 504h80l-71 -576q-8 -66 -42.5 -101t-101.5 -35h-42l9 66h26q33 0 49 14.5t21 50.5z" />
    <glyph glyph-name="uni0259" unicode="&#x259;" horiz-adv-x="467" 
d="M200 -8q-87 0 -125.5 44t-38.5 132q0 17 1.5 34.5t3.5 37.5l2 19h302q2 18 3 35.5t1 31.5q0 34 -6.5 55.5t-19 34.5t-32 18t-44.5 5q-50 0 -75.5 -21t-37.5 -69h-73q17 78 60.5 120.5t130.5 42.5q91 0 133 -44.5t42 -146.5q0 -16 -1 -33t-3 -37q-14 -137 -67 -198
t-156 -61zM206 58q26 0 46.5 6t36 22t27 42.5t19.5 68.5h-223q-1 -9 -1 -17v-16q0 -61 23 -83.5t72 -22.5z" />
    <glyph glyph-name="circumflex" unicode="&#x2c6;" horiz-adv-x="468" 
d="M254 724h71l85 -156h-67l-56 110l-84 -110h-73z" />
    <glyph glyph-name="caron" unicode="&#x2c7;" horiz-adv-x="468" 
d="M150 724h67l56 -110l84 110h74l-125 -156h-71z" />
    <glyph glyph-name="uni02C9" unicode="&#x2c9;" horiz-adv-x="468" 
d="M152 675h262l-7 -58h-262z" />
    <glyph glyph-name="breve" unicode="&#x2d8;" horiz-adv-x="468" 
d="M273 561q-57 0 -88.5 35t-24.5 110h49q-1 -6 -1 -11.5v-10.5q0 -38 17 -54.5t51 -16.5q38 0 60 21t30 72h49q-11 -75 -46 -110t-96 -35z" />
    <glyph glyph-name="dotaccent" unicode="&#x2d9;" horiz-adv-x="468" 
d="M244 691h80l-11 -94h-80z" />
    <glyph glyph-name="ring" unicode="&#x2da;" horiz-adv-x="468" 
d="M274 600q33 0 46 19.5t13 51.5q0 18 -9.5 29.5t-35.5 11.5q-33 0 -46 -20t-13 -52q0 -18 9.5 -29t35.5 -11zM273 561q-88 0 -88 79q0 22 6.5 42t19 35t32 24t46.5 9q88 0 88 -79q0 -22 -6.5 -42t-19 -35t-32 -24t-46.5 -9z" />
    <glyph glyph-name="ogonek" unicode="&#x2db;" horiz-adv-x="468" 
d="M195 -216q-51 0 -76.5 20.5t-25.5 56.5q0 23 9.5 42t24 35.5t33 31.5t36.5 30h43q-36 -31 -62 -58.5t-26 -63.5q0 -43 50 -43h38l-6 -51h-38z" />
    <glyph glyph-name="tilde" unicode="&#x2dc;" horiz-adv-x="468" 
d="M154 635q5 38 23.5 54t48.5 16q19 0 33 -10t26 -22t23 -22t23 -10q17 0 20 25l4 39h56l-7 -51q-5 -38 -23.5 -54t-47.5 -16q-19 0 -33.5 10t-26.5 21.5t-22.5 21.5t-21.5 10q-18 0 -21 -25l-5 -38h-55z" />
    <glyph glyph-name="hungarumlaut" unicode="&#x2dd;" horiz-adv-x="468" 
d="M398 724h91l-123 -156h-68zM248 724h91l-123 -156h-68z" />
    <glyph glyph-name="uni0326" unicode="&#x326;" horiz-adv-x="0" 
d="M-236 -56l-7 -52l-57 -100h-35l19 152h80z" />
    <glyph glyph-name="uni037E" unicode="&#x37e;" horiz-adv-x="207" 
d="M89 472h84l-13 -102h-83zM127 102l-9 -75l-63 -155h-40l28 230h84z" />
    <glyph glyph-name="tonos" unicode="&#x384;" horiz-adv-x="470" 
d="M287 724h84l-77 -156h-61z" />
    <glyph glyph-name="dieresistonos" unicode="&#x385;" horiz-adv-x="473" 
d="M267 724h81l-74 -156h-59zM356 691h74l-11 -94h-75zM138 691h75l-12 -94h-74z" />
    <glyph glyph-name="Alphatonos" unicode="&#x386;" horiz-adv-x="562" 
d="M292 712h90l136 -712h-82l-32 172h-270l-73 -172h-78zM164 242h228l-68 372zM140 713h84l-77 -156h-61z" />
    <glyph glyph-name="anoteleia" unicode="&#x387;" horiz-adv-x="192" 
d="M78 472h84l-13 -102h-83z" />
    <glyph glyph-name="Epsilontonos" unicode="&#x388;" horiz-adv-x="510" 
d="M138 712h381l-9 -76h-299l-28 -235h274l-9 -70h-274l-32 -265h298l-8 -66h-381zM17 713h84l-77 -156h-61z" />
    <glyph glyph-name="Etatonos" unicode="&#x389;" horiz-adv-x="638" 
d="M138 712h83l-38 -311h309l38 311h83l-87 -712h-83l40 330h-309l-40 -330h-83zM17 713h84l-77 -156h-61z" />
    <glyph glyph-name="Iotatonos" unicode="&#x38a;" horiz-adv-x="246" 
d="M138 712h83l-87 -712h-83zM17 713h84l-77 -156h-61z" />
    <glyph glyph-name="Omicrontonos" unicode="&#x38c;" horiz-adv-x="623" 
d="M288 -12q-62 0 -106 13.5t-72.5 43.5t-42 77t-13.5 114q0 56 9 128q12 99 32 167.5t54 111.5t85.5 62t125.5 19q62 0 106.5 -13.5t73 -43t42 -76t13.5 -112.5q0 -27 -2 -57t-6 -64q-12 -103 -32 -173.5t-54.5 -114t-86 -63t-126.5 -19.5zM287 54q53 0 88.5 13.5t59.5 48
t39 94t27 151.5q5 37 7.5 68t2.5 57q0 46 -8 77t-26 50t-47 27t-70 8q-52 0 -88 -13.5t-60 -46.5t-39 -88t-25 -139q-5 -43 -8 -78t-3 -64q0 -48 8 -80t26 -50.5t46.5 -26.5t69.5 -8zM40 713h84l-77 -156h-61z" />
    <glyph glyph-name="Upsilontonos" unicode="&#x38e;" horiz-adv-x="543" 
d="M235 298l-167 414h89l131 -334l214 334h86l-272 -418l-34 -294h-83zM-35 713h84l-77 -156h-61z" />
    <glyph glyph-name="Omegatonos" unicode="&#x38f;" horiz-adv-x="632" 
d="M36 66h149l5 33q-29 10 -52 26.5t-40 42t-26 62t-9 86.5q0 19 1 40t4 44q10 79 31 140t56.5 101.5t88.5 61.5t127 21q126 0 180.5 -61t54.5 -179q0 -41 -6 -89q-9 -73 -25.5 -124.5t-40.5 -86t-56.5 -54.5t-72.5 -31l-5 -33h149l-7 -66h-219l18 146q34 6 62 19t49.5 40.5
t37 73.5t24.5 118q3 26 5 49t2 43q0 87 -36 123t-121 36q-52 0 -88.5 -13.5t-61 -43.5t-39 -77.5t-22.5 -116.5q-6 -50 -6 -87q0 -45 8.5 -74t23.5 -47.5t37 -28t49 -14.5l-18 -146h-218zM44 713h84l-77 -156h-61z" />
    <glyph glyph-name="iotadieresistonos" unicode="&#x390;" horiz-adv-x="227" 
d="M96 504h80l-47 -373q-1 -7 -1.5 -12.5t-0.5 -10.5q0 -23 11 -32.5t38 -9.5h15l-8 -66h-29q-60 0 -83.5 24.5t-23.5 69.5q0 7 0.5 13.5t1.5 14.5zM148 724h81l-74 -156h-59zM237 691h74l-11 -94h-75zM19 691h75l-12 -94h-74z" />
    <glyph glyph-name="Alpha" unicode="&#x391;" horiz-adv-x="562" 
d="M292 712h90l136 -712h-82l-32 172h-270l-73 -172h-78zM164 242h228l-68 372z" />
    <glyph glyph-name="Beta" unicode="&#x392;" horiz-adv-x="577" 
d="M138 712h228q89 0 134 -42t45 -118q0 -8 -0.5 -16t-1.5 -15q-7 -64 -33.5 -100t-62.5 -49q42 -21 61.5 -58.5t19.5 -87.5q0 -8 -0.5 -15t-1.5 -15q-11 -100 -61.5 -148t-147.5 -48h-266zM174 330l-32 -264h166q57 0 92 30t44 103q1 6 1.5 15.5t0.5 16.5q0 55 -27 77
t-76 22h-169zM211 636l-28 -235h154q32 0 53.5 7.5t36 22.5t22 37.5t11.5 52.5q1 8 1.5 16t0.5 15q0 43 -22.5 63.5t-76.5 20.5h-152z" />
    <glyph glyph-name="Gamma" unicode="&#x393;" horiz-adv-x="470" 
d="M138 712h370l-10 -76h-287l-78 -636h-83z" />
    <glyph glyph-name="uni0394" unicode="&#x394;" horiz-adv-x="563" 
d="M292 712h91l136 -712h-535zM90 66h335l-100 549z" />
    <glyph glyph-name="Epsilon" unicode="&#x395;" horiz-adv-x="510" 
d="M138 712h381l-9 -76h-299l-28 -235h274l-9 -70h-274l-32 -265h298l-8 -66h-381z" />
    <glyph glyph-name="Zeta" unicode="&#x396;" horiz-adv-x="488" 
d="M85 712h431l-5 -50l-400 -596h318l-8 -66h-414l5 50l392 586h-328z" />
    <glyph glyph-name="Eta" unicode="&#x397;" horiz-adv-x="638" 
d="M138 712h83l-38 -311h309l38 311h83l-87 -712h-83l40 330h-309l-40 -330h-83z" />
    <glyph glyph-name="Theta" unicode="&#x398;" horiz-adv-x="623" 
d="M54 236q0 56 9 128q12 99 32 167.5t54 111.5t85.5 62t125.5 19q62 0 106.5 -13.5t73 -43t42 -76t13.5 -112.5q0 -27 -2 -57t-6 -64q-12 -103 -32 -173.5t-54.5 -114t-86 -63t-126.5 -19.5q-62 0 -106 13.5t-72.5 43.5t-42 77t-13.5 114zM137 219q0 -48 8 -80t26 -50.5
t46.5 -26.5t69.5 -8q53 0 88.5 13.5t59.5 48t39 94t27 151.5q5 37 7.5 68t2.5 57q0 46 -8 77t-26 50t-47 27t-70 8q-52 0 -88 -13.5t-60 -46.5t-39 -88t-25 -139q-5 -43 -8 -78t-3 -64zM216 399h224l-9 -69h-224z" />
    <glyph glyph-name="Iota" unicode="&#x399;" horiz-adv-x="246" 
d="M138 712h83l-87 -712h-83z" />
    <glyph glyph-name="Kappa" unicode="&#x39a;" horiz-adv-x="564" 
d="M523 712h91l-316 -350l230 -362h-90l-232 362zM138 712h83l-88 -712h-82z" />
    <glyph glyph-name="Lambda" unicode="&#x39b;" horiz-adv-x="563" 
d="M292 712h91l136 -712h-82l-112 615l-263 -615h-78z" />
    <glyph glyph-name="Mu" unicode="&#x39c;" horiz-adv-x="778" 
d="M37 0l115 712h85l138 -576l277 576h85l-57 -712h-80l42 526l-256 -526h-54l-130 535l-85 -535h-80z" />
    <glyph glyph-name="Nu" unicode="&#x39d;" horiz-adv-x="638" 
d="M138 712h73l251 -550l68 550h83l-87 -712h-73l-252 549l-67 -549h-83z" />
    <glyph glyph-name="Xi" unicode="&#x39e;" horiz-adv-x="503" 
d="M97 712h422l-9 -76h-422zM91 401h358l-9 -70h-358zM17 66h422l-7 -66h-422z" />
    <glyph glyph-name="Omicron" unicode="&#x39f;" horiz-adv-x="623" 
d="M288 -12q-62 0 -106 13.5t-72.5 43.5t-42 77t-13.5 114q0 56 9 128q12 99 32 167.5t54 111.5t85.5 62t125.5 19q62 0 106.5 -13.5t73 -43t42 -76t13.5 -112.5q0 -27 -2 -57t-6 -64q-12 -103 -32 -173.5t-54.5 -114t-86 -63t-126.5 -19.5zM287 54q53 0 88.5 13.5t59.5 48
t39 94t27 151.5q5 37 7.5 68t2.5 57q0 46 -8 77t-26 50t-47 27t-70 8q-52 0 -88 -13.5t-60 -46.5t-39 -88t-25 -139q-5 -43 -8 -78t-3 -64q0 -48 8 -80t26 -50.5t46.5 -26.5t69.5 -8z" />
    <glyph glyph-name="Pi" unicode="&#x3a0;" horiz-adv-x="635" 
d="M138 712h472l-87 -712h-83l77 636h-306l-77 -636h-83z" />
    <glyph glyph-name="Rho" unicode="&#x3a1;" horiz-adv-x="542" 
d="M138 712h214q97 0 143 -39t46 -131q0 -24 -3 -51q-7 -61 -24 -101t-44.5 -64t-65.5 -33.5t-87 -9.5h-149l-34 -283h-83zM211 636l-34 -284h139q33 0 57.5 6t41 22t26.5 43.5t15 70.5q3 28 3 48q0 55 -25.5 74.5t-81.5 19.5h-141z" />
    <glyph glyph-name="Sigma" unicode="&#x3a3;" horiz-adv-x="502" 
d="M7 56l293 307l-222 295l7 54h440l-10 -76h-325l195 -260l-4 -36l-267 -274h331l-7 -66h-438z" />
    <glyph glyph-name="Tau" unicode="&#x3a4;" horiz-adv-x="522" 
d="M73 712h487l-9 -76h-203l-77 -636h-82l77 636h-202z" />
    <glyph glyph-name="Upsilon" unicode="&#x3a5;" horiz-adv-x="543" 
d="M235 298l-167 414h89l131 -334l214 334h86l-272 -418l-34 -294h-83z" />
    <glyph glyph-name="Phi" unicode="&#x3a6;" horiz-adv-x="725" 
d="M44 293q0 14 1 29.5t3 32.5q10 82 34.5 137.5t64 90t95.5 50t128 17.5l11 86h81l-11 -87q62 -2 109.5 -15.5t79.5 -41.5t48.5 -71.5t16.5 -104.5q0 -17 -1.5 -34t-3.5 -36q-9 -77 -32.5 -129.5t-62.5 -85t-95 -47.5t-130 -16l-11 -92h-81l11 92q-126 4 -190.5 56.5
t-64.5 168.5zM127 291q0 -47 12 -77t35 -47.5t56.5 -24.5t76.5 -8l54 439q-51 -1 -90 -10.5t-67.5 -33.5t-46.5 -67t-26 -110q-2 -17 -3 -32t-1 -29zM622 416q0 47 -12 77t-34.5 47.5t-56.5 24.5t-77 8l-54 -439q49 1 88 10t67.5 32.5t47 65.5t26.5 110q2 18 3.5 34t1.5 30z
" />
    <glyph glyph-name="Chi" unicode="&#x3a7;" horiz-adv-x="518" 
d="M224 366l-151 346h87l122 -282l188 282h88l-238 -350l159 -362h-87l-128 297l-198 -297h-87z" />
    <glyph glyph-name="Psi" unicode="&#x3a8;" horiz-adv-x="706" 
d="M307 206q-60 1 -106.5 15.5t-77 43.5t-43.5 74.5t-5 109.5l32 263h83l-32 -263q-3 -23 -3 -42q0 -37 10 -61.5t30 -40t50 -22.5t70 -8l54 437h82l-54 -437q45 1 80 10t59.5 29.5t39.5 53.5t21 81l32 263h82l-32 -263q-16 -131 -89.5 -187t-200.5 -56l-25 -206h-82z" />
    <glyph glyph-name="uni03A9" unicode="&#x3a9;" horiz-adv-x="632" 
d="M36 66h149l5 33q-29 10 -52 26.5t-40 42t-26 62t-9 86.5q0 19 1 40t4 44q10 79 31 140t56.5 101.5t88.5 61.5t127 21q126 0 180.5 -61t54.5 -179q0 -41 -6 -89q-9 -73 -25.5 -124.5t-40.5 -86t-56.5 -54.5t-72.5 -31l-5 -33h149l-7 -66h-219l18 146q34 6 62 19t49.5 40.5
t37 73.5t24.5 118q3 26 5 49t2 43q0 87 -36 123t-121 36q-52 0 -88.5 -13.5t-61 -43.5t-39 -77.5t-22.5 -116.5q-6 -50 -6 -87q0 -45 8.5 -74t23.5 -47.5t37 -28t49 -14.5l-18 -146h-218z" />
    <glyph glyph-name="Iotadieresis" unicode="&#x3aa;" horiz-adv-x="246" 
d="M138 712h83l-87 -712h-83zM242 899h80l-11 -94h-80zM75 899h79l-11 -94h-80z" />
    <glyph glyph-name="Upsilondieresis" unicode="&#x3ab;" horiz-adv-x="543" 
d="M235 298l-167 414h89l131 -334l214 334h86l-272 -418l-34 -294h-83zM398 899h80l-11 -94h-80zM231 899h79l-11 -94h-80z" />
    <glyph glyph-name="alphatonos" unicode="&#x3ac;" horiz-adv-x="521" 
d="M38 174q0 18 1.5 37.5t3.5 41.5q16 136 68 197.5t152 61.5q48 0 78.5 -19t44.5 -64l10 75h74l-46 -373q-1 -7 -1.5 -13t-0.5 -11q0 -23 10.5 -32t38.5 -9h14l-7 -66h-30q-54 0 -76.5 19.5t-26.5 54.5q-21 -42 -55 -62t-86 -20q-85 0 -125.5 43t-40.5 139zM118 175
q0 -65 23.5 -91t75.5 -26q32 0 56 10t41 32.5t28 59.5t18 92q2 20 3.5 38t1.5 34q0 65 -24.5 90t-76.5 25q-32 0 -55.5 -9t-40.5 -31t-28 -57.5t-17 -89.5q-3 -23 -4 -41.5t-1 -35.5zM294 724h84l-77 -156h-61z" />
    <glyph glyph-name="epsilontonos" unicode="&#x3ad;" horiz-adv-x="451" 
d="M28 119q0 46 22 83.5t67 55.5q-54 26 -54 89q0 79 51.5 122t142.5 43q92 0 129.5 -40t36.5 -125h-77q0 50 -19.5 71t-72.5 21q-50 0 -80.5 -20.5t-30.5 -71.5q0 -28 19.5 -44t57.5 -16h70l-8 -67h-70q-46 0 -75 -22t-29 -69q0 -32 22.5 -51.5t73.5 -19.5q59 0 86 24
t37 76h77q-9 -41 -23.5 -72t-38 -52t-58.5 -31.5t-84 -10.5q-90 0 -131 34.5t-41 92.5zM281 724h84l-77 -156h-61z" />
    <glyph glyph-name="etatonos" unicode="&#x3ae;" horiz-adv-x="511" 
d="M98 370q1 6 1.5 11.5t0.5 10.5q0 23 -11.5 32.5t-38.5 9.5h-14l9 70h29q48 0 72 -17t29 -51q20 38 53 57t85 19q72 0 109 -36.5t37 -105.5v-17.5t-2 -18.5l-67 -542h-80l65 525q3 21 3 37q0 46 -21 65.5t-66 19.5q-54 0 -83.5 -27.5t-37.5 -94.5l-38 -317h-80zM314 724
h84l-77 -156h-61z" />
    <glyph glyph-name="iotatonos" unicode="&#x3af;" horiz-adv-x="227" 
d="M96 504h80l-47 -373q-1 -7 -1.5 -12.5t-0.5 -10.5q0 -23 11 -32.5t38 -9.5h15l-8 -66h-29q-60 0 -83.5 24.5t-23.5 69.5q0 7 0.5 13.5t1.5 14.5zM159 724h84l-77 -156h-61z" />
    <glyph glyph-name="upsilondieresistonos" unicode="&#x3b0;" horiz-adv-x="499" 
d="M103 370q1 6 1.5 11t0.5 10q0 23 -11.5 33t-39.5 10h-14l10 70h26q60 0 84.5 -23t24.5 -71v-16.5t-2 -17.5l-25 -202q-2 -10 -2 -19v-17q0 -40 17 -60t60 -20q30 0 52 11t37.5 36t26 66t17.5 100q9 76 9 143q0 24 -1 45.5t-2 44.5h78q2 -18 2.5 -36.5t0.5 -47.5
q0 -26 -2 -68.5t-7 -88.5q-8 -66 -21 -116.5t-37 -85t-61.5 -52t-95.5 -17.5q-86 0 -120 36.5t-34 100.5q0 19 3 42zM273 724h81l-74 -156h-59zM362 691h74l-11 -94h-75zM144 691h75l-12 -94h-74z" />
    <glyph glyph-name="alpha" unicode="&#x3b1;" horiz-adv-x="521" 
d="M38 174q0 18 1.5 37.5t3.5 41.5q16 136 68 197.5t152 61.5q48 0 78.5 -19t44.5 -64l10 75h74l-46 -373q-1 -7 -1.5 -13t-0.5 -11q0 -23 10.5 -32t38.5 -9h14l-7 -66h-30q-54 0 -76.5 19.5t-26.5 54.5q-21 -42 -55 -62t-86 -20q-85 0 -125.5 43t-40.5 139zM118 175
q0 -65 23.5 -91t75.5 -26q32 0 56 10t41 32.5t28 59.5t18 92q2 20 3.5 38t1.5 34q0 65 -24.5 90t-76.5 25q-32 0 -55.5 -9t-40.5 -31t-28 -57.5t-17 -89.5q-3 -23 -4 -41.5t-1 -35.5z" />
    <glyph glyph-name="beta" unicode="&#x3b2;" horiz-adv-x="520" 
d="M101 528q11 92 61 144t152 52q94 0 136 -39t42 -117q0 -9 -0.5 -18.5t-1.5 -18.5q-7 -63 -30.5 -97t-68.5 -52q46 -17 64 -53t18 -87q0 -7 -0.5 -21.5t-2.5 -27.5q-8 -54 -23.5 -92t-41 -62t-62 -35.5t-86.5 -11.5q-48 0 -82.5 18.5t-51.5 57.5l-33 -276h-79zM147 252
q-2 -19 -3 -35.5t-1 -30.5q0 -71 27 -99.5t83 -28.5q31 0 54.5 6.5t39.5 22t26.5 42t16.5 65.5q4 23 4 46q0 57 -26.5 79t-83.5 22h-39l9 69h32q63 0 89.5 28.5t34.5 92.5q1 8 1.5 15t0.5 15q0 49 -26 69.5t-77 20.5q-60 0 -90.5 -29.5t-38.5 -92.5z" />
    <glyph glyph-name="gamma" unicode="&#x3b3;" horiz-adv-x="477" 
d="M105 388q-5 25 -15 35.5t-36 10.5h-11l9 70h23q27 0 45 -5.5t29.5 -16.5t17.5 -28.5t11 -41.5l59 -320l181 412h77l-240 -529l-22 -183h-80l15 126q2 20 3.5 36.5t1.5 32.5q0 24 -3 48t-9 56z" />
    <glyph glyph-name="delta" unicode="&#x3b4;" horiz-adv-x="481" 
d="M35 167q0 16 1.5 32.5t3.5 34.5q6 51 19.5 87t33.5 63t46 47t58 39q-45 26 -63 50t-18 60q0 40 15.5 66.5t42 42.5t62.5 22.5t77 6.5q54 0 84 -5t54 -11l-9 -73q-12 3 -24.5 6t-28.5 5.5t-36.5 4t-47.5 1.5q-54 0 -82 -11t-28 -46q0 -17 12.5 -29.5t35.5 -26.5l74 -44
q28 -17 50.5 -34t38.5 -39t24.5 -52.5t8.5 -73.5q0 -26 -3 -56q-12 -119 -64.5 -180.5t-159.5 -61.5q-94 0 -135.5 44t-41.5 131zM360 288q0 29 -6 49.5t-18.5 37t-31.5 30t-45 29.5l-15 -9q-27 -16 -48 -32.5t-36.5 -39t-25.5 -53t-15 -74.5q-2 -16 -3 -29.5t-1 -26.5
q0 -60 23.5 -86t77.5 -26q66 0 98 39.5t42 130.5q2 17 3 32t1 28z" />
    <glyph glyph-name="epsilon" unicode="&#x3b5;" horiz-adv-x="451" 
d="M28 119q0 46 22 83.5t67 55.5q-54 26 -54 89q0 79 51.5 122t142.5 43q92 0 129.5 -40t36.5 -125h-77q0 50 -19.5 71t-72.5 21q-50 0 -80.5 -20.5t-30.5 -71.5q0 -28 19.5 -44t57.5 -16h70l-8 -67h-70q-46 0 -75 -22t-29 -69q0 -32 22.5 -51.5t73.5 -19.5q59 0 86 24
t37 76h77q-9 -41 -23.5 -72t-38 -52t-58.5 -31.5t-84 -10.5q-90 0 -131 34.5t-41 92.5z" />
    <glyph glyph-name="zeta" unicode="&#x3b6;" horiz-adv-x="406" 
d="M174 10q-69 16 -105 54.5t-36 104.5q0 8 0.5 19t3.5 34q8 60 38 118.5t72 112.5t89.5 101.5t91.5 85.5h-219l9 72h334l-6 -53q-51 -41 -105.5 -93t-101.5 -110t-80.5 -119t-41.5 -119q-2 -16 -2.5 -24t-0.5 -13q0 -48 27 -70t75 -34l36 -9q52 -13 79.5 -35t27.5 -69
q0 -35 -7.5 -62t-20.5 -62h-76q9 22 17.5 48t8.5 53q0 24 -16 38.5t-54 22.5z" />
    <glyph glyph-name="eta" unicode="&#x3b7;" horiz-adv-x="511" 
d="M98 370q1 6 1.5 11.5t0.5 10.5q0 23 -11.5 32.5t-38.5 9.5h-14l9 70h29q48 0 72 -17t29 -51q20 38 53 57t85 19q72 0 109 -36.5t37 -105.5v-17.5t-2 -18.5l-67 -542h-80l65 525q3 21 3 37q0 46 -21 65.5t-66 19.5q-54 0 -83.5 -27.5t-37.5 -94.5l-38 -317h-80z" />
    <glyph glyph-name="theta" unicode="&#x3b8;" horiz-adv-x="536" 
d="M56 215q0 32 2.5 69.5t7.5 82.5q13 107 34 176t52 109t73 55.5t97 15.5q45 0 79 -10.5t57 -36.5t34.5 -69t11.5 -107q0 -58 -9 -139q-14 -113 -34.5 -185t-51 -113.5t-72.5 -57.5t-99 -16q-46 0 -80 10.5t-56.5 36.5t-34 69.5t-11.5 109.5zM243 56q35 0 61 10.5t45.5 40
t34 82.5t26.5 138h-269q-4 -38 -5.5 -68t-1.5 -56q0 -45 7 -74t20.5 -45t34 -22t47.5 -6zM316 650q-35 0 -61 -9.5t-46 -37.5t-34 -77.5t-25 -128.5h269q6 64 6 108q0 45 -7 73t-20.5 44t-34 22t-47.5 6z" />
    <glyph glyph-name="iota" unicode="&#x3b9;" horiz-adv-x="227" 
d="M96 504h80l-47 -373q-1 -7 -1.5 -12.5t-0.5 -10.5q0 -23 11 -32.5t38 -9.5h15l-8 -66h-29q-60 0 -83.5 24.5t-23.5 69.5q0 7 0.5 13.5t1.5 14.5z" />
    <glyph glyph-name="kappa" unicode="&#x3ba;" horiz-adv-x="464" 
d="M99 504h80l-32 -248l166 175q19 20 34 34t30.5 22.5t34 12.5t45.5 4h15l-10 -70h-10q-24 0 -43 -9.5t-44 -35.5l-93 -96l139 -293h-86l-112 237l-78 -79l-20 -158h-79z" />
    <glyph glyph-name="lambda" unicode="&#x3bb;" horiz-adv-x="442" 
d="M215 515l-11 48q-10 45 -28 61t-56 16h-36l10 72h44q36 0 60.5 -9.5t41 -27.5t26.5 -43.5t16 -57.5l115 -574h-81l-77 404l-179 -404h-78z" />
    <glyph glyph-name="uni03BC" unicode="&#x3bc;" horiz-adv-x="513" 
d="M85 -208h-74l87 712h80l-38 -319q-3 -23 -3 -40q0 -47 20.5 -67t65.5 -20q52 0 81.5 28.5t38.5 99.5l39 318h80l-46 -373q-1 -7 -1.5 -13t-0.5 -11q0 -23 10.5 -32t38.5 -9h14l-7 -66h-30q-88 0 -101 61q-21 -35 -54.5 -52t-75.5 -17q-36 0 -59 9.5t-36 27.5z" />
    <glyph glyph-name="nu" unicode="&#x3bd;" horiz-adv-x="472" 
d="M104 387q-5 24 -13 35.5t-34 11.5h-14l9 70h26q27 0 44.5 -5.5t28.5 -16.5t17 -28t11 -41l58 -309l175 400h77l-228 -504h-81z" />
    <glyph glyph-name="xi" unicode="&#x3be;" horiz-adv-x="446" 
d="M33 171q0 18 3 39q8 66 41.5 107.5t87.5 59.5q-35 17 -55 48t-20 76q0 7 0.5 15t1.5 16q12 94 62.5 143t153.5 49q94 0 132.5 -45.5t33.5 -132.5h-80q1 57 -19.5 81t-72.5 24q-57 0 -89 -28t-40 -91q-1 -8 -1.5 -14t-0.5 -12q0 -96 109 -96h69l-9 -69h-57
q-151 0 -166 -131q-1 -8 -1.5 -14.5t-0.5 -11.5q0 -30 10 -49t26.5 -30.5t37.5 -17.5t44 -11l37 -8q53 -11 81 -34.5t28 -70.5q0 -31 -8.5 -62.5t-19.5 -60.5h-76q9 23 17.5 48.5t8.5 51.5q0 24 -17.5 39t-55.5 23l-37 7q-34 6 -63 17t-50 29.5t-33 46.5t-12 69z" />
    <glyph glyph-name="omicron" unicode="&#x3bf;" horiz-adv-x="484" 
d="M38 176q0 38 6 79q9 68 25 116.5t42.5 80t65 46t92.5 14.5q93 0 134.5 -43.5t41.5 -142.5q0 -17 -1.5 -37t-3.5 -40q-9 -68 -25.5 -116.5t-43 -80t-65 -46t-92.5 -14.5q-93 0 -134.5 43.5t-41.5 140.5zM118 176q0 -66 23.5 -92t75.5 -26q32 0 56 10t41 32.5t28 59.5
t18 92q2 20 3.5 38t1.5 34q0 65 -24 90t-76 25q-32 0 -55.5 -9t-40.5 -31t-27.5 -57.5t-17.5 -89.5q-6 -44 -6 -76z" />
    <glyph glyph-name="pi" unicode="&#x3c0;" horiz-adv-x="543" 
d="M53 504h493l-10 -70h-92l-37 -303q-1 -8 -1.5 -14t-0.5 -11q0 -21 10 -30.5t37 -9.5h17l-6 -66h-33q-60 0 -84 22.5t-24 64.5q0 6 0.5 12.5t1.5 13.5l39 321h-149l-88 -434h-79l91 434h-95z" />
    <glyph glyph-name="rho" unicode="&#x3c1;" horiz-adv-x="501" 
d="M83 -208h-79l57 463q9 69 26 117.5t44 79.5t64.5 45.5t87.5 14.5q94 0 136.5 -45.5t42.5 -144.5q0 -17 -1.5 -35.5t-3.5 -38.5q-9 -68 -25 -116.5t-42 -79.5t-63 -45.5t-88 -14.5q-43 0 -76 15t-47 49zM135 176q0 -66 23.5 -92t75.5 -26q32 0 56 10t41 32.5t28 59.5
t18 92q2 20 3 38t1 34q0 65 -24 90t-76 25q-32 0 -56 -9t-40.5 -31t-27.5 -57.5t-17 -89.5q-2 -22 -3.5 -40.5t-1.5 -35.5z" />
    <glyph glyph-name="sigma1" unicode="&#x3c2;" horiz-adv-x="446" 
d="M179 10q-34 8 -60 20.5t-44 33t-27.5 50.5t-9.5 73q0 15 2 32l4 34q9 68 25.5 117t42.5 80.5t63.5 46.5t88.5 15q95 0 132.5 -49.5t32.5 -145.5h-77q0 35 -4.5 58.5t-15 37.5t-28.5 20t-45 6q-30 0 -52 -9t-38 -30.5t-27 -57t-18 -89.5q-2 -11 -3.5 -26.5t-1.5 -26.5
q0 -34 7.5 -55t21 -34t32 -20.5t41.5 -13.5l37 -9q54 -13 81.5 -35t27.5 -70q0 -31 -8.5 -62t-19.5 -61h-76q8 20 16.5 45.5t8.5 54.5q0 24 -17 39t-55 23z" />
    <glyph glyph-name="sigma" unicode="&#x3c3;" horiz-adv-x="517" 
d="M38 175q0 37 6 79q9 68 25 115.5t42.5 77.5t65 43.5t92.5 13.5h256l-9 -70h-105q18 -20 26 -49.5t8 -65.5q0 -17 -1.5 -35.5t-3.5 -38.5q-9 -68 -25.5 -116t-43 -78.5t-65 -44.5t-92.5 -14q-93 0 -134.5 43t-41.5 140zM264 434q-33 0 -56 -8.5t-39.5 -29.5t-27 -56.5
t-17.5 -88.5q-6 -44 -6 -76q0 -66 23.5 -91.5t75.5 -25.5q32 0 56 9t41 31t28 58.5t18 91.5q2 20 3.5 38t1.5 34q0 63 -23 88.5t-78 25.5z" />
    <glyph glyph-name="tau" unicode="&#x3c4;" horiz-adv-x="411" 
d="M46 504h375l-10 -70h-154l-36 -293q-1 -5 -1 -10v-10q0 -30 15.5 -42.5t48.5 -12.5h31l-7 -66h-46q-65 0 -94.5 26t-29.5 79q0 7 0.5 14t1.5 15l38 300h-142z" />
    <glyph glyph-name="upsilon" unicode="&#x3c5;" horiz-adv-x="499" 
d="M103 370q1 6 1.5 11t0.5 10q0 23 -11.5 33t-39.5 10h-14l10 70h26q60 0 84.5 -23t24.5 -71v-16.5t-2 -17.5l-25 -202q-2 -10 -2 -19v-17q0 -40 17 -60t60 -20q30 0 52 11t37.5 36t26 66t17.5 100q9 76 9 143q0 24 -1 45.5t-2 44.5h78q2 -18 2.5 -36.5t0.5 -47.5
q0 -26 -2 -68.5t-7 -88.5q-8 -66 -21 -116.5t-37 -85t-61.5 -52t-95.5 -17.5q-86 0 -120 36.5t-34 100.5q0 19 3 42z" />
    <glyph glyph-name="phi" unicode="&#x3c6;" horiz-adv-x="660" 
d="M38 190q0 8 1 25t3 34q9 71 28.5 120t47.5 79t62.5 43t72.5 13h20l-9 -70h-12q-24 0 -45 -9.5t-38 -31t-29 -57t-18 -87.5q-2 -17 -3 -31.5t-1 -28.5q0 -68 33 -98.5t114 -33.5l32 261q5 42 17 78t33 61.5t53.5 40t78.5 14.5q39 0 66.5 -13t45 -37t25 -57.5t7.5 -73.5
q0 -16 -1 -33t-3 -34q-9 -72 -29 -123.5t-53.5 -84.5t-83 -49t-117.5 -17l-24 -198h-79l24 199q-115 4 -167 52t-52 147zM345 57q48 2 82 14t56.5 37t36 64.5t20.5 97.5q2 19 3 36t1 32q0 48 -15 74.5t-55 26.5q-45 0 -67 -29t-30 -92z" />
    <glyph glyph-name="chi" unicode="&#x3c7;" horiz-adv-x="458" 
d="M39 -208h-82l218 357l-70 243q-7 25 -19.5 33.5t-36.5 8.5h-10l9 70h29q27 0 43.5 -6t27.5 -18t18 -29.5t13 -40.5l52 -188l171 282h80l-222 -362l71 -238q8 -25 20 -35t36 -10h10l-7 -67h-24q-27 0 -45 6t-30.5 18t-20.5 29.5t-14 40.5l-51 183z" />
    <glyph glyph-name="psi" unicode="&#x3c8;" horiz-adv-x="655" 
d="M93 504h80l-35 -280q-3 -23 -3 -42q0 -67 34 -94.5t97 -30.5l78 627h79l-77 -627q37 3 66.5 14t51.5 35t36.5 64t22.5 102q9 78 9 153q0 18 -0.5 40.5t-1.5 38.5h78q1 -14 2 -35t1 -45q0 -29 -1.5 -68t-6.5 -84q-10 -76 -30 -128.5t-52.5 -85.5t-78 -49t-105.5 -19
l-24 -198h-79l24 199q-102 6 -152.5 49t-50.5 134q0 23 3 50z" />
    <glyph glyph-name="omega" unicode="&#x3c9;" horiz-adv-x="670" 
d="M38 153q0 21 2 45t5 50q9 75 25.5 124t40.5 78.5t55.5 41.5t70.5 12h29l-9 -70h-18q-25 0 -43.5 -8t-32 -29.5t-23 -58t-16.5 -93.5q-3 -27 -5 -49.5t-2 -42.5q0 -48 15 -71.5t57 -23.5q48 0 69.5 34.5t27.5 85.5l15 124h78l-14 -124q-3 -20 -3 -36q0 -37 15 -60.5
t54 -23.5q28 0 47 11.5t31.5 34.5t20 58.5t13.5 82.5q6 52 6 87q0 60 -18.5 81t-56.5 21h-17l9 70h28q33 0 58 -9t42 -29t26 -53.5t9 -81.5q0 -38 -6 -89q-8 -66 -21 -113.5t-35.5 -78t-56.5 -44.5t-83 -14q-48 0 -75 20t-40 52q-21 -32 -53 -52t-78 -20q-78 0 -110.5 38.5
t-32.5 122.5z" />
    <glyph glyph-name="iotadieresis" unicode="&#x3ca;" horiz-adv-x="227" 
d="M96 504h80l-47 -373q-1 -7 -1.5 -12.5t-0.5 -10.5q0 -23 11 -32.5t38 -9.5h15l-8 -66h-29q-60 0 -83.5 24.5t-23.5 69.5q0 7 0.5 13.5t1.5 14.5zM200 691h80l-11 -94h-80zM33 691h79l-11 -94h-80z" />
    <glyph glyph-name="upsilondieresis" unicode="&#x3cb;" horiz-adv-x="499" 
d="M103 370q1 6 1.5 11t0.5 10q0 23 -11.5 33t-39.5 10h-14l10 70h26q60 0 84.5 -23t24.5 -71v-16.5t-2 -17.5l-25 -202q-2 -10 -2 -19v-17q0 -40 17 -60t60 -20q30 0 52 11t37.5 36t26 66t17.5 100q9 76 9 143q0 24 -1 45.5t-2 44.5h78q2 -18 2.5 -36.5t0.5 -47.5
q0 -26 -2 -68.5t-7 -88.5q-8 -66 -21 -116.5t-37 -85t-61.5 -52t-95.5 -17.5q-86 0 -120 36.5t-34 100.5q0 19 3 42zM342 691h80l-11 -94h-80zM175 691h79l-11 -94h-80z" />
    <glyph glyph-name="omicrontonos" unicode="&#x3cc;" horiz-adv-x="484" 
d="M214 -8q-93 0 -134.5 43.5t-41.5 140.5q0 38 6 79q9 68 25 116.5t42.5 80t65 46t92.5 14.5q93 0 134.5 -43.5t41.5 -142.5q0 -17 -1.5 -37t-3.5 -40q-9 -68 -25.5 -116.5t-43 -80t-65 -46t-92.5 -14.5zM217 58q32 0 56 10t41 32.5t28 59.5t18 92q2 20 3.5 38t1.5 34
q0 65 -24 90t-76 25q-32 0 -55.5 -9t-40.5 -31t-27.5 -57.5t-17.5 -89.5q-6 -44 -6 -76q0 -66 23.5 -92t75.5 -26zM296 724h84l-77 -156h-61z" />
    <glyph glyph-name="upsilontonos" unicode="&#x3cd;" horiz-adv-x="499" 
d="M103 370q1 6 1.5 11t0.5 10q0 23 -11.5 33t-39.5 10h-14l10 70h26q60 0 84.5 -23t24.5 -71v-16.5t-2 -17.5l-25 -202q-2 -10 -2 -19v-17q0 -40 17 -60t60 -20q30 0 52 11t37.5 36t26 66t17.5 100q9 76 9 143q0 24 -1 45.5t-2 44.5h78q2 -18 2.5 -36.5t0.5 -47.5
q0 -26 -2 -68.5t-7 -88.5q-8 -66 -21 -116.5t-37 -85t-61.5 -52t-95.5 -17.5q-86 0 -120 36.5t-34 100.5q0 19 3 42zM301 724h84l-77 -156h-61z" />
    <glyph glyph-name="omegatonos" unicode="&#x3ce;" horiz-adv-x="670" 
d="M38 153q0 21 2 45t5 50q9 75 25.5 124t40.5 78.5t55.5 41.5t70.5 12h29l-9 -70h-18q-25 0 -43.5 -8t-32 -29.5t-23 -58t-16.5 -93.5q-3 -27 -5 -49.5t-2 -42.5q0 -48 15 -71.5t57 -23.5q48 0 69.5 34.5t27.5 85.5l15 124h78l-14 -124q-3 -20 -3 -36q0 -37 15 -60.5
t54 -23.5q28 0 47 11.5t31.5 34.5t20 58.5t13.5 82.5q6 52 6 87q0 60 -18.5 81t-56.5 21h-17l9 70h28q33 0 58 -9t42 -29t26 -53.5t9 -81.5q0 -38 -6 -89q-8 -66 -21 -113.5t-35.5 -78t-56.5 -44.5t-83 -14q-48 0 -75 20t-40 52q-21 -32 -53 -52t-78 -20q-78 0 -110.5 38.5
t-32.5 122.5zM390 724h84l-77 -156h-61z" />
    <glyph glyph-name="glyph416" horiz-adv-x="607" 
d="M47 222q0 26 2 55t6 61l4 33h428q4 32 5.5 58.5t1.5 49.5q0 48 -8.5 80.5t-26.5 52t-47 28t-70 8.5t-71.5 -8.5t-52.5 -28t-37 -51t-25 -77.5h-80q12 61 32 106t51.5 75t77 45t108.5 15q124 0 178.5 -59.5t54.5 -190.5q0 -28 -2 -58.5t-6 -64.5q-12 -103 -33 -172.5
t-55.5 -112t-85.5 -60.5t-125 -18q-59 0 -101 12.5t-69.5 40t-40.5 72t-13 109.5zM273 54q48 0 81.5 10.5t56.5 38.5t38.5 76t27.5 123h-342q-6 -53 -6 -91q0 -47 8.5 -77t26 -48t44.5 -25t65 -7z" />
    <glyph glyph-name="glyph417" horiz-adv-x="467" 
d="M200 -8q-87 0 -125.5 44t-38.5 132q0 17 1.5 34.5t3.5 37.5l2 19h302q2 18 3 35.5t1 31.5q0 34 -6.5 55.5t-19 34.5t-32 18t-44.5 5q-50 0 -75.5 -21t-37.5 -69h-73q17 78 60.5 120.5t130.5 42.5q91 0 133 -44.5t42 -146.5q0 -16 -1 -33t-3 -37q-14 -137 -67 -198
t-156 -61zM206 58q26 0 46.5 6t36 22t27 42.5t19.5 68.5h-223q-1 -9 -1 -17v-16q0 -61 23 -83.5t72 -22.5z" />
    <glyph glyph-name="uni0E3F" unicode="&#xe3f;" horiz-adv-x="547" 
d="M112 712h162l13 104h80l-13 -105q81 -4 123 -45.5t42 -113.5q0 -8 -0.5 -16t-1.5 -16q-6 -64 -33 -99.5t-64 -48.5q42 -21 62 -58.5t20 -87.5q0 -8 -0.5 -15t-1.5 -15q-11 -100 -61.5 -148t-147.5 -48h-23l-12 -104h-80l12 104h-163zM148 330l-32 -264h166q57 0 91.5 30
t43.5 103q2 9 2 17v15q0 55 -26.5 77t-75.5 22h-169zM185 636l-28 -235h154q32 0 53.5 7.5t36 22.5t22 37.5t11.5 52.5q1 8 1.5 16t0.5 15q0 43 -22.5 63.5t-76.5 20.5h-152z" />
    <glyph glyph-name="Wgrave" unicode="&#x1e80;" horiz-adv-x="886" 
d="M72 712h82l75 -605l243 605h61l91 -602l224 602h79l-271 -712h-88l-84 555l-225 -555h-91zM399 932h85l60 -156h-62z" />
    <glyph glyph-name="wgrave" unicode="&#x1e81;" horiz-adv-x="694" 
d="M44 504h82l62 -387l163 387h57l69 -387l157 387h78l-214 -504h-73l-65 358l-152 -358h-74zM276 724h85l60 -156h-62z" />
    <glyph glyph-name="Wacute" unicode="&#x1e82;" horiz-adv-x="886" 
d="M72 712h82l75 -605l243 605h61l91 -602l224 602h79l-271 -712h-88l-84 555l-225 -555h-91zM562 932h91l-123 -156h-68z" />
    <glyph glyph-name="wacute" unicode="&#x1e83;" horiz-adv-x="694" 
d="M44 504h82l62 -387l163 387h57l69 -387l157 387h78l-214 -504h-73l-65 358l-152 -358h-74zM439 724h91l-123 -156h-68z" />
    <glyph glyph-name="Wdieresis" unicode="&#x1e84;" horiz-adv-x="886" 
d="M72 712h82l75 -605l243 605h61l91 -602l224 602h79l-271 -712h-88l-84 555l-225 -555h-91zM565 899h80l-11 -94h-80zM398 899h79l-11 -94h-80z" />
    <glyph glyph-name="wdieresis" unicode="&#x1e85;" horiz-adv-x="694" 
d="M44 504h82l62 -387l163 387h57l69 -387l157 387h78l-214 -504h-73l-65 358l-152 -358h-74zM442 691h80l-11 -94h-80zM275 691h79l-11 -94h-80z" />
    <glyph glyph-name="uni1E8A" unicode="&#x1e8a;" horiz-adv-x="518" 
d="M224 366l-151 346h87l122 -282l188 282h88l-238 -350l159 -362h-87l-128 297l-198 -297h-87zM293 879h80l-11 -94h-80z" />
    <glyph glyph-name="uni1E8B" unicode="&#x1e8b;" horiz-adv-x="435" 
d="M172 252l-124 252h85l91 -192l140 192h84l-187 -253l126 -251h-84l-94 192l-138 -192h-84zM232 691h80l-11 -94h-80z" />
    <glyph glyph-name="Ygrave" unicode="&#x1ef2;" horiz-adv-x="543" 
d="M235 298l-167 414h89l131 -334l214 334h86l-272 -418l-34 -294h-83zM232 932h85l60 -156h-62z" />
    <glyph glyph-name="ygrave" unicode="&#x1ef3;" horiz-adv-x="440" 
d="M29 -142q32 0 54.5 17.5t42.5 62.5l28 62l-108 504h81l80 -388l175 388h78l-263 -571q-16 -34 -31 -60.5t-33.5 -44.5t-43.5 -27t-61 -9h-45l8 66h38zM160 724h85l60 -156h-62z" />
    <glyph glyph-name="uni2007" unicode="&#x2007;" horiz-adv-x="560" 
 />
    <glyph glyph-name="uni2008" unicode="&#x2008;" horiz-adv-x="207" 
 />
    <glyph glyph-name="uni200B" unicode="&#x200b;" horiz-adv-x="0" 
 />
    <glyph glyph-name="endash" unicode="&#x2013;" horiz-adv-x="619" 
d="M69 325h498l-8 -67h-497z" />
    <glyph glyph-name="emdash" unicode="&#x2014;" horiz-adv-x="886" 
d="M69 325h764l-7 -67h-764z" />
    <glyph glyph-name="uni2015" unicode="&#x2015;" horiz-adv-x="619" 
d="M69 325h498l-8 -67h-497z" />
    <glyph glyph-name="quoteleft" unicode="&#x2018;" horiz-adv-x="180" 
d="M84 563l60 149h36l-26 -219h-78z" />
    <glyph glyph-name="quoteright" unicode="&#x2019;" horiz-adv-x="174" 
d="M110 712h78l-8 -70l-59 -149h-37z" />
    <glyph glyph-name="quotesinglbase" unicode="&#x201a;" horiz-adv-x="186" 
d="M113 91l-8 -70l-60 -149h-36l26 219h78z" />
    <glyph glyph-name="quotedblleft" unicode="&#x201c;" horiz-adv-x="329" 
d="M233 563l59 149h37l-26 -219h-78zM84 563l60 149h36l-26 -219h-78z" />
    <glyph glyph-name="quotedblright" unicode="&#x201d;" horiz-adv-x="323" 
d="M259 712h78l-8 -70l-60 -149h-36zM110 712h78l-8 -70l-59 -149h-37z" />
    <glyph glyph-name="quotedblbase" unicode="&#x201e;" horiz-adv-x="334" 
d="M261 91l-8 -70l-60 -149h-36l26 219h78zM113 91l-8 -70l-60 -149h-36l26 219h78z" />
    <glyph glyph-name="dagger" unicode="&#x2020;" horiz-adv-x="490" 
d="M81 535h159l22 177h77l-22 -177h160l-8 -67h-160l-57 -468h-77l57 468h-159z" />
    <glyph glyph-name="daggerdbl" unicode="&#x2021;" horiz-adv-x="490" 
d="M82 534h159l22 178h77l-22 -178h160l-8 -67h-160l-28 -227h160l-9 -67h-159l-21 -173h-77l21 173h-160l9 67h159l28 227h-159z" />
    <glyph glyph-name="bullet" unicode="&#x2022;" horiz-adv-x="430" 
d="M118 404h230l-29 -232h-230z" />
    <glyph glyph-name="ellipsis" unicode="&#x2026;" horiz-adv-x="632" 
d="M491 102h84l-12 -102h-83zM262 102h84l-12 -102h-84zM22 102h84l-12 -102h-84z" />
    <glyph glyph-name="perthousand" unicode="&#x2030;" horiz-adv-x="1036" 
d="M187 348q-66 0 -94.5 29t-28.5 101q0 14 1 28.5t3 31.5q5 46 15 80.5t28.5 57t46.5 33.5t68 11q69 0 97 -31.5t28 -97.5q0 -13 -1 -27t-3 -30q-6 -51 -17.5 -86.5t-30.5 -57.5t-46.5 -32t-65.5 -10zM190 400q21 0 35 5.5t24 20.5t16.5 41.5t11.5 68.5q2 17 3 31t1 25
q0 42 -14 55.5t-45 13.5q-20 0 -33.5 -5.5t-23.5 -19.5t-16.5 -38.5t-10.5 -61.5q-6 -44 -6 -70q0 -39 13.5 -52.5t44.5 -13.5zM618 712h60l-542 -712h-60zM521 -8q-66 0 -94.5 29t-28.5 101q0 14 1 28.5t3 31.5q5 46 15 80.5t28.5 57t46.5 33.5t68 11q69 0 97 -31.5
t28 -97.5q0 -13 -1 -27t-3 -30q-6 -51 -17.5 -86.5t-30.5 -57.5t-46.5 -32t-65.5 -10zM524 44q21 0 35 5.5t24 20.5t16.5 41.5t11.5 68.5q2 17 3 31t1 25q0 42 -14 55.5t-45 13.5q-20 0 -33.5 -5.5t-23.5 -19.5t-16.5 -38.5t-10.5 -61.5q-6 -44 -6 -70q0 -39 13.5 -52.5
t44.5 -13.5zM839 -8q-66 0 -94.5 29t-28.5 101q0 14 1 28.5t3 31.5q5 46 15 80.5t28.5 57t46.5 33.5t68 11q69 0 97 -31.5t28 -97.5q0 -13 -1 -27t-3 -30q-6 -51 -17.5 -86.5t-30.5 -57.5t-46.5 -32t-65.5 -10zM842 44q21 0 35 5.5t24 20.5t16.5 41.5t11.5 68.5q2 17 3 31
t1 25q0 42 -14 55.5t-45 13.5q-20 0 -33.5 -5.5t-23.5 -19.5t-16.5 -38.5t-10.5 -61.5q-6 -44 -6 -70q0 -39 13.5 -52.5t44.5 -13.5z" />
    <glyph glyph-name="guilsinglleft" unicode="&#x2039;" horiz-adv-x="246" 
d="M38 256l119 192h66l-108 -192l60 -192h-66z" />
    <glyph glyph-name="guilsinglright" unicode="&#x203a;" horiz-adv-x="245" 
d="M131 256l-60 192h68l69 -192l-118 -192h-67z" />
    <glyph glyph-name="fraction" unicode="&#x2044;" horiz-adv-x="56" 
d="M282 712h60l-542 -712h-60z" />
    <glyph glyph-name="uni2070" unicode="&#x2070;" 
d="M193 508q-66 0 -94.5 29t-28.5 101q0 14 1 28.5t3 31.5q5 46 15 80.5t28.5 57t46.5 33.5t68 11q69 0 97 -31.5t28 -97.5q0 -13 -1 -27t-3 -30q-6 -51 -17.5 -86.5t-30.5 -57.5t-46.5 -32t-65.5 -10zM196 560q21 0 35 5.5t24 20.5t16.5 41.5t11.5 68.5q2 17 3 31t1 25
q0 42 -14 55.5t-45 13.5q-20 0 -33.5 -5.5t-23.5 -19.5t-16.5 -38.5t-10.5 -61.5q-6 -44 -6 -70q0 -39 13.5 -52.5t44.5 -13.5z" />
    <glyph glyph-name="uni2071" unicode="&#x2071;" horiz-adv-x="160" 
d="M140 1022h69l-9 -73h-69zM121 872h69l-43 -356h-69z" />
    <glyph glyph-name="uni2074" unicode="&#x2074;" 
d="M60 637l179 235h87l-28 -225h50l-6 -54h-50l-9 -77h-67l9 77h-170zM231 647l19 156l-121 -156h102z" />
    <glyph glyph-name="uni2075" unicode="&#x2075;" 
d="M135 624q-2 -36 12.5 -49.5t50.5 -13.5q37 0 53.5 17t21.5 54q1 5 1 9v8q0 26 -13.5 38.5t-45.5 12.5q-33 0 -49.5 -11.5t-26.5 -34.5h-60l4 24l43 194h227l-6 -59h-175l-19 -81q15 10 32.5 15.5t40.5 5.5q57 0 87.5 -25t30.5 -77v-10t-1 -10q-7 -63 -44.5 -92.5
t-103.5 -29.5q-69 0 -98.5 27t-27.5 88h66z" />
    <glyph glyph-name="uni2076" unicode="&#x2076;" 
d="M71 634q5 37 19.5 61.5t37.5 50.5l108 126h80l-117 -129q12 4 31 4q57 0 87.5 -23t30.5 -74q0 -5 -0.5 -11t-1.5 -12q-8 -66 -47 -92.5t-102 -26.5q-57 0 -92.5 23t-35.5 78q0 6 0.5 12.5t1.5 12.5zM141 628q-1 -5 -1 -9v-9q0 -26 13.5 -38t46.5 -12q37 0 54 16.5
t22 51.5q1 5 1 9v9q0 25 -14 36.5t-46 11.5q-38 0 -54.5 -15.5t-21.5 -50.5z" />
    <glyph glyph-name="uni2077" unicode="&#x2077;" 
d="M287 813h-193l7 59h269l-5 -44l-195 -312h-71z" />
    <glyph glyph-name="uni2078" unicode="&#x2078;" 
d="M65 599q0 33 15 56.5t50 37.5q-18 10 -28.5 27.5t-10.5 42.5q0 57 37 87t104 30q61 0 92.5 -26t31.5 -74q0 -28 -16.5 -51.5t-43.5 -35.5q46 -19 46 -75q0 -57 -39.5 -83.5t-108.5 -26.5q-61 0 -95 21.5t-34 69.5zM216 720q33 0 51 15.5t18 47.5q0 40 -56 40
q-33 0 -51 -15.5t-18 -47.5q0 -40 56 -40zM197 560q35 0 55 15.5t20 48.5q0 44 -62 44q-34 0 -54.5 -15t-20.5 -49q0 -44 62 -44z" />
    <glyph glyph-name="uni2079" unicode="&#x2079;" 
d="M227 645q-17 -5 -30 -5q-57 0 -87.5 23t-30.5 74v11t1 12q8 66 47.5 93t102.5 27q60 0 93.5 -23t33.5 -80v-10t-1 -11q-4 -34 -19.5 -61.5t-37.5 -52.5l-108 -126h-79zM209 687q38 0 54.5 16t21.5 50q1 5 1 9.5v8.5q0 26 -14 39t-46 13q-38 0 -55 -17.5t-21 -52.5
q-1 -5 -1 -9v-8q0 -25 14 -37t46 -12z" />
    <glyph glyph-name="uni207A" unicode="&#x207a;" 
d="M188 673h-102l4 42h103l12 94h45l-12 -94h102l-4 -42h-102l-13 -94h-45z" />
    <glyph glyph-name="uni207B" unicode="&#x207b;" 
d="M90 715h250l-4 -42h-250z" />
    <glyph glyph-name="uni207C" unicode="&#x207c;" 
d="M98 780h250l-4 -42h-250zM82 650h250l-4 -42h-250z" />
    <glyph glyph-name="uni207D" unicode="&#x207d;" horiz-adv-x="157" 
d="M72 701q9 77 20.5 123t27.5 70t38 31t53 7h16l-6 -53h-6q-17 0 -28 -4t-19.5 -22.5t-16 -55.5t-15.5 -103q-5 -44 -8 -74.5t-3 -51.5q0 -20 3 -32t8.5 -18t13.5 -7.5t19 -1.5h6l-6 -53h-16q-23 0 -40 5t-28 18.5t-16.5 37t-5.5 60.5q0 47 9 124z" />
    <glyph glyph-name="uni207E" unicode="&#x207e;" horiz-adv-x="157" 
d="M190 687q-9 -77 -20.5 -123t-27 -70t-37.5 -31t-53 -7h-17l6 53h7q16 0 27.5 4t20 22.5t16 55.5t15.5 103q5 44 7.5 74.5t2.5 51.5q0 20 -2.5 32t-8 18t-13.5 7.5t-19 1.5h-7l6 53h17q23 0 39.5 -5t27.5 -18.5t16.5 -37t5.5 -60.5q0 -48 -9 -124z" />
    <glyph glyph-name="uni207F" unicode="&#x207f;" horiz-adv-x="355" 
d="M121 872h66l-6 -43q14 25 35.5 38t56.5 13q53 0 78 -26t25 -74q0 -7 -0.5 -13.5t-1.5 -13.5l-29 -237h-69l27 220q1 8 1.5 14.5t0.5 12.5q0 30 -13 42.5t-42 12.5q-35 0 -53 -18t-23 -64l-27 -220h-69z" />
    <glyph glyph-name="uni2080" unicode="&#x2080;" 
d="M111 -167q-66 0 -94.5 29t-28.5 101q0 14 1 28.5t3 31.5q5 46 15 80.5t28.5 57t46.5 33.5t68 11q69 0 97 -31.5t28 -97.5q0 -13 -1 -27t-3 -30q-6 -51 -17.5 -86.5t-30.5 -57.5t-46.5 -32t-65.5 -10zM114 -115q21 0 35 5.5t24 20.5t16.5 41.5t11.5 68.5q2 17 3 31t1 25
q0 42 -14 55.5t-45 13.5q-20 0 -33.5 -5.5t-23.5 -19.5t-16.5 -38.5t-10.5 -61.5q-6 -44 -6 -70q0 -39 13.5 -52.5t44.5 -13.5z" />
    <glyph glyph-name="uni2081" unicode="&#x2081;" 
d="M138 130l-94 -30l7 59l113 38h52l-43 -356h-70z" />
    <glyph glyph-name="uni2082" unicode="&#x2082;" 
d="M-12 -120q5 45 32.5 72.5t66.5 46.5l46 23q13 6 25.5 13t22.5 16t16 21.5t6 29.5q0 24 -14 34t-40 10q-35 0 -52 -15t-26 -56h-66q12 63 45.5 96.5t101.5 33.5q63 0 92.5 -26t29.5 -74q0 -45 -28.5 -76.5t-71.5 -51.5l-50 -25q-34 -17 -48 -28t-18 -31h185l-6 -52h-253z
" />
    <glyph glyph-name="uni2083" unicode="&#x2083;" 
d="M51 -43q-2 -42 12.5 -57t50.5 -15q30 0 51 13.5t21 49.5q0 21 -12.5 31.5t-44.5 10.5h-37l7 54h37q28 0 47 14.5t19 45.5q0 42 -58 42q-30 0 -49.5 -14t-26.5 -56h-66q11 63 45 96t101 33q63 0 93 -26.5t30 -68.5q0 -32 -13.5 -52.5t-41.5 -35.5q19 -8 30 -26t11 -45
q0 -60 -40 -89t-106 -29q-69 0 -99.5 28.5t-26.5 95.5h66z" />
    <glyph glyph-name="uni2084" unicode="&#x2084;" 
d="M-22 -38l179 235h87l-28 -225h50l-6 -54h-50l-9 -77h-67l9 77h-170zM149 -28l19 156l-121 -156h102z" />
    <glyph glyph-name="uni2085" unicode="&#x2085;" 
d="M53 -51q-2 -36 12.5 -49.5t50.5 -13.5q37 0 53.5 17t21.5 54q1 5 1 9v8q0 26 -13.5 38.5t-45.5 12.5q-33 0 -49.5 -11.5t-26.5 -34.5h-60l4 24l43 194h227l-6 -59h-175l-19 -81q15 10 32.5 15.5t40.5 5.5q57 0 87.5 -25t30.5 -77v-10t-1 -10q-7 -63 -44.5 -92.5
t-103.5 -29.5q-69 0 -98.5 27t-27.5 88h66z" />
    <glyph glyph-name="uni2086" unicode="&#x2086;" 
d="M-11 -41q5 37 19.5 61.5t37.5 50.5l108 126h80l-117 -129q12 4 31 4q57 0 87.5 -23t30.5 -74q0 -5 -0.5 -11t-1.5 -12q-8 -66 -47 -92.5t-102 -26.5q-57 0 -92.5 23t-35.5 78q0 6 0.5 12.5t1.5 12.5zM59 -47q-1 -5 -1 -9v-9q0 -26 13.5 -38t46.5 -12q37 0 54 16.5
t22 51.5q1 5 1 9v9q0 25 -14 36.5t-46 11.5q-38 0 -54.5 -15.5t-21.5 -50.5z" />
    <glyph glyph-name="uni2087" unicode="&#x2087;" 
d="M205 138h-193l7 59h269l-5 -44l-195 -312h-71z" />
    <glyph glyph-name="uni2088" unicode="&#x2088;" 
d="M-17 -76q0 33 15 56.5t50 37.5q-18 10 -28.5 27.5t-10.5 42.5q0 57 37 87t104 30q61 0 92.5 -26t31.5 -74q0 -28 -16.5 -51.5t-43.5 -35.5q46 -19 46 -75q0 -57 -39.5 -83.5t-108.5 -26.5q-61 0 -95 21.5t-34 69.5zM134 45q33 0 51 15.5t18 47.5q0 40 -56 40
q-33 0 -51 -15.5t-18 -47.5q0 -40 56 -40zM115 -115q35 0 55 15.5t20 48.5q0 44 -62 44q-34 0 -54.5 -15t-20.5 -49q0 -44 62 -44z" />
    <glyph glyph-name="uni2089" unicode="&#x2089;" 
d="M145 -30q-17 -5 -30 -5q-57 0 -87.5 23t-30.5 74v11t1 12q8 66 47.5 93t102.5 27q60 0 93.5 -23t33.5 -80v-10t-1 -11q-4 -34 -19.5 -61.5t-37.5 -52.5l-108 -126h-79zM127 12q38 0 54.5 16t21.5 50q1 5 1 9.5v8.5q0 26 -14 39t-46 13q-38 0 -55 -17.5t-21 -52.5
q-1 -5 -1 -9v-8q0 -25 14 -37t46 -12z" />
    <glyph glyph-name="uni208A" unicode="&#x208a;" 
d="M106 -2h-102l4 42h103l12 94h45l-12 -94h102l-4 -42h-102l-13 -94h-45z" />
    <glyph glyph-name="uni208B" unicode="&#x208b;" 
d="M8 40h250l-4 -42h-250z" />
    <glyph glyph-name="uni208C" unicode="&#x208c;" 
d="M16 105h250l-4 -42h-250zM0 -25h250l-4 -42h-250z" />
    <glyph glyph-name="uni208D" unicode="&#x208d;" horiz-adv-x="157" 
d="M-10 26q9 77 20.5 123t27.5 70t38 31t53 7h16l-6 -53h-6q-17 0 -28 -4t-19.5 -22.5t-16 -55.5t-15.5 -103q-5 -44 -8 -74.5t-3 -51.5q0 -20 3 -32t8.5 -18t13.5 -7.5t19 -1.5h6l-6 -53h-16q-23 0 -40 5t-28 18.5t-16.5 37t-5.5 60.5q0 47 9 124z" />
    <glyph glyph-name="uni208E" unicode="&#x208e;" horiz-adv-x="157" 
d="M108 12q-9 -77 -20.5 -123t-27 -70t-37.5 -31t-53 -7h-17l6 53h7q16 0 27.5 4t20 22.5t16 55.5t15.5 103q5 44 7.5 74.5t2.5 51.5q0 20 -2.5 32t-8 18t-13.5 7.5t-19 1.5h-7l6 53h17q23 0 39.5 -5t27.5 -18.5t16.5 -37t5.5 -60.5q0 -48 -9 -124z" />
    <glyph glyph-name="uni2090" unicode="&#x2090;" horiz-adv-x="328" 
d="M83 -167q-45 0 -70.5 23.5t-25.5 62.5q0 34 13 56.5t34.5 36.5t49 21.5t57.5 12.5l52 9l3 25.5t1 15.5q0 26 -11 38.5t-39 12.5q-35 0 -50.5 -15t-20.5 -52h-62q8 58 38 91.5t101 33.5q31 0 52.5 -8t35 -22t19 -33t5.5 -40v-11.5t-1 -11.5l-28 -238h-66l6 43
q-13 -21 -35.5 -36t-57.5 -15zM143 -2q-15 -2 -31 -6t-28.5 -11.5t-20.5 -20t-8 -31.5q0 -43 48 -43q29 0 51.5 16.5t26.5 51.5l6 51z" />
    <glyph glyph-name="uni2091" unicode="&#x2091;" horiz-adv-x="337" 
d="M130 -167q-67 0 -99 31t-32 103q0 12 1 25t3 27q13 100 49.5 143t111.5 43q66 0 94 -31t28 -96q0 -12 -1 -25.5t-3 -27.5l-2 -14h-211q-3 -30 -3 -50q0 -46 16 -60t50 -14q35 0 52 13t26 47h60q-12 -54 -43 -84t-97 -30zM160 145q-33 0 -53 -17t-31 -69h145q1 5 1 10v10
q0 39 -15 52.5t-47 13.5z" />
    <glyph glyph-name="uni2092" unicode="&#x2092;" horiz-adv-x="350" 
d="M129 -167q-69 0 -99 31.5t-30 101.5q0 25 3 55q6 49 17 84t30 57t47 32.5t68 10.5q69 0 99.5 -31.5t30.5 -100.5q0 -26 -3 -54q-6 -49 -17 -84t-30 -57.5t-47.5 -33.5t-68.5 -11zM131 -112q21 0 36.5 6.5t26 21.5t17.5 40.5t12 63.5q2 14 3 26.5t1 23.5q0 43 -15 58.5
t-50 15.5q-21 0 -36 -5.5t-25.5 -19.5t-17.5 -38t-11 -61q-2 -17 -3 -30.5t-1 -24.5q0 -45 15 -61t48 -16z" />
    <glyph glyph-name="uni2093" unicode="&#x2093;" horiz-adv-x="319" 
d="M94 19l-90 177h72l64 -128l92 128h71l-134 -177l91 -178h-72l-64 129l-93 -129h-71z" />
    <glyph glyph-name="uni2095" unicode="&#x2095;" horiz-adv-x="355" 
d="M58 347h69l-23 -187q14 23 34.5 34t52.5 11q53 0 78 -26t25 -73q0 -6 -0.5 -12t-1.5 -12l-29 -241h-68l27 221q1 8 1.5 14t0.5 12q0 31 -13 43t-43 12q-35 0 -53 -17t-23 -64l-27 -221h-69z" />
    <glyph glyph-name="uni2096" unicode="&#x2096;" horiz-adv-x="335" 
d="M58 347h69l-39 -312l155 162h79l-143 -147l100 -209h-73l-76 160l-53 -54l-12 -106h-69z" />
    <glyph glyph-name="uni2097" unicode="&#x2097;" horiz-adv-x="160" 
d="M58 347h69l-62 -506h-69z" />
    <glyph glyph-name="uni2098" unicode="&#x2098;" horiz-adv-x="554" 
d="M39 197h66l-5 -43q14 26 35 38.5t56 12.5q39 0 64.5 -15t33.5 -44q14 28 38 43.5t62 15.5q54 0 79 -26t25 -73q0 -6 -0.5 -12t-1.5 -12l-29 -241h-68l27 221q1 8 1.5 14t0.5 12q0 31 -13 43t-43 12q-35 0 -53 -17t-24 -64l-27 -221h-68l27 221q1 8 1.5 14t0.5 12
q0 31 -13 43t-43 12q-35 0 -53 -17t-23 -64l-27 -221h-69z" />
    <glyph glyph-name="uni2099" unicode="&#x2099;" horiz-adv-x="355" 
d="M39 197h66l-6 -43q14 25 35.5 38t56.5 13q53 0 78 -26t25 -74q0 -7 -0.5 -13.5t-1.5 -13.5l-29 -237h-69l27 220q1 8 1.5 14.5t0.5 12.5q0 30 -13 42.5t-42 12.5q-35 0 -53 -18t-23 -64l-27 -220h-69z" />
    <glyph glyph-name="uni209A" unicode="&#x209a;" horiz-adv-x="365" 
d="M46 -307h-68l61 503h66l-6 -48q16 30 38.5 43.5t57.5 13.5q60 0 87.5 -30.5t27.5 -100.5q0 -24 -3 -55q-12 -99 -47.5 -142.5t-107.5 -43.5q-29 0 -51 11t-32 35zM146 -112q21 0 36 6.5t25.5 21.5t17.5 40.5t12 63.5q2 14 3 26.5t1 23.5q0 43 -15 58.5t-49 15.5
q-21 0 -36.5 -5.5t-26 -19.5t-17 -38t-10.5 -61q-2 -17 -3 -30.5t-1 -25.5q0 -43 14.5 -59.5t48.5 -16.5z" />
    <glyph glyph-name="uni209B" unicode="&#x209b;" horiz-adv-x="310" 
d="M52 -55q-2 -33 12 -46.5t46 -13.5q30 0 49 13t19 45q0 18 -11.5 26.5t-41.5 15.5l-38 9q-35 8 -55.5 29.5t-20.5 59.5q0 61 36.5 91.5t96.5 30.5q57 0 86 -21.5t29 -70.5q0 -6 -0.5 -12t-1.5 -13h-61q3 34 -10.5 46.5t-45.5 12.5q-25 0 -44 -11.5t-19 -43.5
q0 -18 10.5 -27.5t39.5 -16.5l38 -9q42 -10 61 -32.5t19 -56.5q0 -62 -38.5 -89.5t-100.5 -27.5q-36 0 -59 8.5t-35.5 23.5t-17 35.5t-3.5 44.5h61z" />
    <glyph glyph-name="uni209C" unicode="&#x209c;" horiz-adv-x="242" 
d="M46 139h-44l7 58h47l11 87h65l-11 -87h99l-7 -58h-99l-22 -185q-1 -5 -1 -8.5v-7.5q0 -23 11.5 -32.5t38.5 -9.5h43l-7 -55h-50q-51 0 -78 21t-27 68q0 6 0.5 12.5t1.5 13.5z" />
    <glyph glyph-name="colonmonetary" unicode="&#x20a1;" horiz-adv-x="512" 
d="M113 40q-35 30 -53 81t-18 129q0 26 2 55t6 61q12 95 35 161t59 107.5t85 62t113 25.5l32 94h47l-31 -92q14 0 29.5 -1.5t31.5 -3.5l33 97h47l-36 -106q23 -7 45 -17l-9 -78q-14 6 -29 11.5t-31 9.5l-195 -581q8 -1 16.5 -1h17.5q42 0 80.5 9t75.5 25l-8 -69
q-33 -15 -72.5 -23t-80.5 -8q-14 0 -26.5 0.5t-24.5 1.5l-31 -94h-47l33 101q-31 6 -56 18l-40 -119h-48zM127 246q0 -71 17 -114l171 510q-37 -8 -66 -26t-51 -51t-37.5 -83t-24.5 -122q-4 -33 -6.5 -61t-2.5 -53zM177 87q11 -9 24 -15.5t30 -10.5l195 584q-21 3 -43 3
q-5 0 -9.5 -0.5t-9.5 -0.5z" />
    <glyph glyph-name="uni20A2" unicode="&#x20a2;" horiz-adv-x="531" 
d="M305 -12q-65 0 -114.5 13t-82.5 43.5t-49.5 80.5t-16.5 125q0 26 2 55t6 61q13 103 39 172t67.5 110.5t99.5 58.5t133 17q38 0 80 -8t71 -23l-9 -78q-33 15 -69.5 24t-78.5 9q-53 0 -94 -12.5t-71.5 -45t-50.5 -88t-31 -142.5q-4 -33 -6.5 -61t-2.5 -53q0 -48 7.5 -82
t22 -55.5t37 -33.5t52.5 -17l26 216q9 72 48.5 109.5t117.5 37.5h61l-10 -70h-56q-74 0 -83 -74l-28 -223q38 1 73.5 10t70.5 24l-8 -69q-33 -15 -72.5 -23t-80.5 -8z" />
    <glyph glyph-name="uni20A5" unicode="&#x20a5;" horiz-adv-x="767" 
d="M357 397l4 32q2 10 2 19v17q0 47 -20.5 66.5t-65.5 19.5q-54 0 -83 -27t-37 -95l-39 -317h-79l62 504h77l-9 -60q37 68 130 68q54 0 88.5 -22t48.5 -62l94 172h44l-54 -98q14 5 30 7.5t33 2.5q72 0 109 -37t37 -106v-17t-2 -18l-41 -334h-79l38 317q2 10 2 19v17
q0 47 -20.5 66.5t-65.5 19.5q-54 0 -83 -27t-37 -95l-39 -317h-79l22 183l-162 -295h-44z" />
    <glyph glyph-name="uni20A6" unicode="&#x20a6;" horiz-adv-x="661" 
d="M35 436h74l34 276h73l125 -276h159l34 276h83l-34 -276h73l-6 -47h-73l-8 -66h73l-6 -47h-73l-33 -276h-73l-127 276h-159l-33 -276h-82l33 276h-74l6 47h74l8 66h-74zM177 323h132l-31 66h-93zM393 323h93l8 66h-131zM466 162l14 114h-66zM205 549l-14 -113h66z" />
    <glyph glyph-name="uni20A9" unicode="&#x20a9;" horiz-adv-x="800" 
d="M37 436h68l-25 276h83l22 -276h135l97 276h61l31 -276h138l91 276h83l-94 -276h69l-6 -47h-79l-22 -66h93l-6 -47h-103l-94 -276h-90l-31 276h-125l-97 -276h-91l-25 276h-103l5 47h93l-6 66h-79zM522 323h88l22 66h-117zM195 323h85l23 66h-114zM349 323h103l-7 66h-73z
M528 276l17 -153l50 153h-67zM199 276l12 -151l53 151h-65zM389 436h50l-12 108z" />
    <glyph glyph-name="uni20AA" unicode="&#x20aa;" horiz-adv-x="698" 
d="M258 548h82l-43 -353q-1 -8 -1.5 -15t-0.5 -14q0 -47 26.5 -68t86.5 -21h120l78 635h83l-88 -712h-201q-99 0 -143.5 41t-44.5 116v18t2 19zM113 712h201q99 0 143.5 -41t44.5 -115v-18.5t-2 -19.5l-44 -354h-82l44 353q1 8 1.5 14.5t0.5 13.5q0 48 -27 69t-87 21h-120
l-78 -635h-83z" />
    <glyph glyph-name="dong" unicode="&#x20ab;" horiz-adv-x="496" 
d="M277 641h120l10 76h80l-10 -76h62l-7 -52h-61l-57 -457h-77l6 45q-47 -54 -134 -54q-86 0 -125.5 37.5t-39.5 116.5q0 12 1 25t3 27q13 106 62.5 152.5t147.5 46.5q43 0 73 -12.5t46 -40.5l14 114h-121zM226 190q32 0 55 7t38.5 22.5t24.5 41.5t14 64q3 22 3 40
q0 51 -24 70.5t-78 19.5q-32 0 -54.5 -6.5t-38 -21.5t-25 -40t-13.5 -62q-3 -23 -3 -41q0 -53 23.5 -73.5t77.5 -20.5zM36 57h371l-7 -57h-371z" />
    <glyph glyph-name="Euro" unicode="&#x20ac;" horiz-adv-x="560" 
d="M45 459h76q14 74 34.5 125t50.5 82t71 44.5t96 13.5t91.5 -14t58.5 -40.5t31 -65t9 -87.5q0 -11 -0.5 -22.5t-1.5 -23.5h-81q1 12 1.5 22.5t0.5 20.5q0 74 -25 104t-85 30q-35 0 -61 -8.5t-46 -29.5t-35 -57.5t-26 -93.5h167l-9 -66h-169l-9 -76h168l-8 -66h-165v-35
q0 -47 7 -77.5t22 -48.5t37.5 -25.5t53.5 -7.5q67 0 101.5 42t51.5 143h82q-11 -59 -27.5 -106t-44 -80t-68 -50.5t-98.5 -17.5q-51 0 -89 12t-62.5 40t-36.5 72t-12 109v30h-78l8 66h75l9 76h-74z" />
    <glyph glyph-name="uni20AD" unicode="&#x20ad;" horiz-adv-x="582" 
d="M34 387h82l40 325h83l-41 -325h51l292 325h92l-293 -325h207l-8 -62h-201l208 -325h-90l-210 325h-55l-40 -325h-82l39 325h-81z" />
    <glyph glyph-name="uni20AE" unicode="&#x20ae;" horiz-adv-x="560" 
d="M105 712h469l-10 -76h-192l-22 -174l152 50l-9 -66l-151 -50l-10 -80l152 50l-9 -66l-151 -51l-31 -249h-83l27 221l-151 -50l8 67l151 50l10 79l-151 -50l8 67l152 50l25 202h-193z" />
    <glyph glyph-name="uni20B2" unicode="&#x20b2;" horiz-adv-x="583" 
d="M311 370h241l-13 -102q-17 -136 -73.5 -204.5t-167.5 -74.5l-11 -93h-80l11 95q-94 11 -136.5 67.5t-42.5 174.5q0 56 9 128q12 93 30 159.5t48 110t74.5 65.5t108.5 27l11 93h80l-12 -94q101 -10 139.5 -69t34.5 -165h-79q3 85 -27 122.5t-111 37.5q-53 0 -88 -13.5
t-59 -46.5t-38.5 -88t-25.5 -139q-5 -43 -8.5 -78t-3.5 -64q0 -48 8.5 -80t26.5 -50.5t46.5 -26.5t69.5 -8q45 0 77.5 12t55 37.5t35.5 66.5t20 98l4 32h-163z" />
    <glyph glyph-name="uni20B3" unicode="&#x20b3;" horiz-adv-x="594" 
d="M33 376h126l146 336h91l64 -336h128l-8 -64h-108l14 -74h85l-8 -64h-65l34 -174h-82l-32 174h-269l-74 -174h-78l75 174h-63l7 64h84l32 74h-107zM236 376h145l-43 239zM177 238h229l-13 74h-185z" />
    <glyph glyph-name="uni20B4" unicode="&#x20b4;" horiz-adv-x="560" 
d="M56 459h340q15 21 24 48.5t9 57.5q0 83 -95 83q-53 0 -84.5 -26.5t-51.5 -93.5h-79q12 47 29 83.5t43.5 61.5t63.5 38t89 13q87 0 128.5 -41t41.5 -109q0 -34 -8.5 -63t-21.5 -52h69l-8 -66h-497zM39 317h497l-9 -66h-350q-15 -20 -23.5 -47.5t-8.5 -58.5
q0 -48 27.5 -69.5t83.5 -21.5q59 0 91 29.5t49 98.5h79q-23 -99 -76 -146.5t-153 -47.5q-95 0 -139.5 41t-44.5 110q0 30 8.5 59t21.5 53h-61z" />
    <glyph glyph-name="uni20B5" unicode="&#x20b5;" horiz-adv-x="574" 
d="M219 -9q-49 5 -83 21t-55.5 45.5t-31.5 73t-10 102.5q0 56 9 128q12 93 30 159.5t48.5 110t75 65.5t108.5 27l11 93h80l-12 -94q48 -5 81 -20t53 -42t28.5 -65t8.5 -87q0 -14 -0.5 -28t-1.5 -29h-79q1 14 1.5 26t0.5 23q0 41 -6.5 69.5t-22.5 46t-42 25t-65 7.5
q-53 0 -88.5 -13.5t-59.5 -46.5t-38.5 -88t-24.5 -139q-12 -86 -12 -142q0 -48 8.5 -80t26.5 -50.5t46.5 -26.5t69.5 -8q44 0 74.5 11t51.5 35.5t34 63.5t24 95h78q-12 -69 -30 -118.5t-46 -82.5t-67.5 -49.5t-92.5 -19.5l-11 -93h-80z" />
    <glyph glyph-name="uni20B8" unicode="&#x20b8;" horiz-adv-x="560" 
d="M86 571h468l-9 -76h-193l-60 -495h-83l61 495h-193zM104 712h468l-8 -66h-468z" />
    <glyph glyph-name="uni20B9" unicode="&#x20b9;" horiz-adv-x="548" 
d="M42 320l4 32h156q30 0 52 5t38 17t26.5 32.5t16.5 52.5h-278l8 70h279v11q0 56 -25.5 76t-80.5 20h-160l10 76h480l-9 -70h-159q14 -17 21 -39.5t7 -54.5v-19h117l-8 -70h-118q-10 -51 -28.5 -84t-46 -52t-64 -26.5t-82.5 -7.5h-34l219 -289h-93z" />
    <glyph glyph-name="uni20BA" unicode="&#x20ba;" horiz-adv-x="574" 
d="M45 499l107 35l22 178h82l-19 -150l212 69l-7 -64l-213 -70l-9 -76l212 69l-7 -64l-213 -70l-36 -290h6q71 0 120 11t82 42.5t52 88.5t30 149h78q-13 -107 -38 -176t-68.5 -109t-108.5 -56t-159 -16h-84l40 328l-105 -34l7 64l106 35l10 76l-106 -34z" />
    <glyph glyph-name="uni20BC" unicode="&#x20bc;" horiz-adv-x="714" 
d="M51 254q11 90 33.5 152t58.5 100t88 56t121 21l16 129h80l-16 -130q57 -3 99.5 -17.5t71 -42.5t42.5 -71.5t14 -106.5q0 -41 -6 -90l-31 -254h-83l32 254q6 48 6 84q0 47 -10 78.5t-29.5 50.5t-48.5 28t-67 12l-50 -411h-80l50 411q-46 -3 -80.5 -15.5t-60 -41t-42 -76
t-25.5 -120.5l-32 -254h-82z" />
    <glyph glyph-name="uni20BD" unicode="&#x20bd;" horiz-adv-x="560" 
d="M59 352h86l45 360h179q94 0 139 -37.5t45 -126.5q0 -25 -3 -55q-7 -61 -25 -101.5t-46.5 -64.5t-67.5 -34t-87 -10h-105l-9 -74h181l-9 -69h-180l-17 -140h-83l17 140h-85l8 69h86l9 74h-86zM262 636l-34 -284h99q33 0 57 6t40.5 22t26.5 43.5t15 70.5q2 14 3 25.5
t1 22.5q0 55 -25.5 74.5t-80.5 19.5h-102z" />
    <glyph glyph-name="uni20BE" unicode="&#x20be;" horiz-adv-x="658" 
d="M52 361q11 90 30 153.5t47.5 105t66.5 64.5t87 32l13 100h66l-12 -93q7 1 13.5 1h14.5h21t20 -1l12 93h63l-13 -102q37 -8 64.5 -24.5t45.5 -44t27 -66.5t9 -92q0 -30 -3 -63h-79q2 16 2 30v27q0 73 -19 108t-56 48l-26 -214h-64l28 224q-8 0 -17 0.5t-18 0.5h-17.5
t-16.5 -1l-27 -224h-67l26 212q-27 -9 -48.5 -28t-38.5 -52t-29.5 -82.5t-21.5 -119.5q-2 -21 -3.5 -40.5t-1.5 -36.5q0 -71 19 -112.5t51 -63.5t73.5 -28t86.5 -6h243l-9 -66h-603l8 66h132q-42 28 -63.5 77t-21.5 128q0 42 6 90z" />
    <glyph glyph-name="uni2113" unicode="&#x2113;" horiz-adv-x="331" 
d="M107 586q8 63 44.5 98.5t94.5 35.5q54 0 81 -26t27 -75q0 -44 -16 -87t-44 -85t-66 -81.5t-81 -75.5l-19 -158q-1 -3 -1 -6.5v-6.5q0 -25 13.5 -40.5t42.5 -15.5q23 0 47.5 9t44.5 26l-9 -75q-20 -14 -46.5 -22.5t-52.5 -8.5q-64 0 -94.5 37t-22.5 97zM158 376
q51 51 85 109t34 118q0 25 -11 36t-29 11q-20 0 -34 -13.5t-19 -48.5z" />
    <glyph glyph-name="uni2116" unicode="&#x2116;" horiz-adv-x="942" 
d="M138 712h73l251 -550l68 550h83l-87 -712h-73l-252 549l-67 -549h-83zM803 348q-69 0 -99 31.5t-30 101.5q0 25 3 55q6 49 17 84t30 57t47 32.5t68 10.5q69 0 99.5 -31.5t30.5 -100.5q0 -26 -3 -54q-6 -49 -17 -84t-30 -57.5t-47.5 -33.5t-68.5 -11zM805 403
q21 0 36.5 6.5t26 21.5t17.5 40.5t12 63.5q2 14 3 26.5t1 23.5q0 43 -15 58.5t-50 15.5q-21 0 -36 -5.5t-25.5 -19.5t-17.5 -38t-11 -61q-2 -17 -3 -30.5t-1 -24.5q0 -45 15 -61t48 -16z" />
    <glyph glyph-name="trademark" unicode="&#x2122;" horiz-adv-x="572" 
d="M302 712h66l62 -190l61 190h67v-273h-52v183l-60 -183h-36l-61 186v-186h-47v273zM62 712h191v-46h-69v-227h-53v227h-69v46z" />
    <glyph glyph-name="Omega" unicode="&#x2126;" horiz-adv-x="634" 
d="M37 66h149l5 33q-29 10 -52 26.5t-40 42t-26 62t-9 86.5q0 19 1 40t4 44q10 79 31 140t56.5 101.5t88.5 61.5t127 21q126 0 180.5 -61t54.5 -179q0 -41 -6 -89q-9 -73 -25.5 -124.5t-40.5 -86t-56.5 -54.5t-72.5 -31l-5 -33h149l-7 -66h-219l18 146q34 6 62 19t49.5 40.5
t37 73.5t24.5 118q3 26 5 49t2 43q0 87 -36 123t-121 36q-52 0 -88.5 -13.5t-61 -43.5t-39 -77.5t-22.5 -116.5q-6 -50 -6 -87q0 -45 8.5 -74t23.5 -47.5t37 -28t49 -14.5l-18 -146h-218z" />
    <glyph glyph-name="estimated" unicode="&#x212e;" horiz-adv-x="904" 
d="M202 238q0 -45 25.5 -77t63.5 -52t82.5 -29t82.5 -9q101 0 181.5 36t122.5 110h103q-30 -63 -74 -106.5t-97 -70.5t-113.5 -39.5t-122.5 -12.5q-87 0 -163 29t-132.5 79t-88.5 116.5t-32 141.5t32 141.5t88.5 116.5t132.5 79t163 29q90 0 166.5 -29t132 -78.5t86.5 -116
t31 -142.5v-29h-670v-87zM701 396v83q0 46 -23 77.5t-59 51t-79.5 28.5t-83.5 9q-37 0 -81.5 -7.5t-82.5 -26.5t-64 -51t-26 -81v-83h499z" />
    <glyph glyph-name="onethird" unicode="&#x2153;" horiz-adv-x="692" 
d="M180 645l-94 -30l7 59l113 38h52l-43 -356h-70zM568 712h60l-542 -712h-60zM423 116q-2 -42 12.5 -57t50.5 -15q30 0 51 13.5t21 49.5q0 21 -12.5 31.5t-44.5 10.5h-37l7 54h37q28 0 47 14.5t19 45.5q0 42 -58 42q-30 0 -49.5 -14t-26.5 -56h-66q11 63 45 96t101 33
q63 0 93 -26.5t30 -68.5q0 -32 -13.5 -52.5t-41.5 -35.5q19 -8 30 -26t11 -45q0 -60 -40 -89t-106 -29q-69 0 -99.5 28.5t-26.5 95.5h66z" />
    <glyph glyph-name="twothirds" unicode="&#x2154;" horiz-adv-x="692" 
d="M50 395q5 45 32.5 72.5t66.5 46.5l46 23q13 6 25.5 13t22.5 16t16 21.5t6 29.5q0 24 -14 34t-40 10q-35 0 -52 -15t-26 -56h-66q12 63 45.5 96.5t101.5 33.5q63 0 92.5 -26t29.5 -74q0 -45 -28.5 -76.5t-71.5 -51.5l-50 -25q-34 -17 -48 -28t-18 -31h185l-6 -52h-253z
M612 712h60l-542 -712h-60zM443 116q-2 -42 12.5 -57t50.5 -15q30 0 51 13.5t21 49.5q0 21 -12.5 31.5t-44.5 10.5h-37l7 54h37q28 0 47 14.5t19 45.5q0 42 -58 42q-30 0 -49.5 -14t-26.5 -56h-66q11 63 45 96t101 33q63 0 93 -26.5t30 -68.5q0 -32 -13.5 -52.5t-41.5 -35.5
q19 -8 30 -26t11 -45q0 -60 -40 -89t-106 -29q-69 0 -99.5 28.5t-26.5 95.5h66z" />
    <glyph glyph-name="uni2155" unicode="&#x2155;" horiz-adv-x="692" 
d="M179 645l-94 -30l7 59l113 38h52l-43 -356h-70zM563 712h60l-542 -712h-60zM424 108q-2 -36 12.5 -49.5t50.5 -13.5q37 0 53.5 17t21.5 54q1 5 1 9v8q0 26 -13.5 38.5t-45.5 12.5q-33 0 -49.5 -11.5t-26.5 -34.5h-60l4 24l43 194h227l-6 -59h-175l-19 -81
q15 10 32.5 15.5t40.5 5.5q57 0 87.5 -25t30.5 -77v-10t-1 -10q-7 -63 -44.5 -92.5t-103.5 -29.5q-69 0 -98.5 27t-27.5 88h66z" />
    <glyph glyph-name="uni2156" unicode="&#x2156;" horiz-adv-x="692" 
d="M49 395q5 45 32.5 72.5t66.5 46.5l46 23q13 6 25.5 13t22.5 16t16 21.5t6 29.5q0 24 -14 34t-40 10q-35 0 -52 -15t-26 -56h-66q12 63 45.5 96.5t101.5 33.5q63 0 92.5 -26t29.5 -74q0 -45 -28.5 -76.5t-71.5 -51.5l-50 -25q-34 -17 -48 -28t-18 -31h185l-6 -52h-253z
M607 712h60l-542 -712h-60zM444 108q-2 -36 12.5 -49.5t50.5 -13.5q37 0 53.5 17t21.5 54q1 5 1 9v8q0 26 -13.5 38.5t-45.5 12.5q-33 0 -49.5 -11.5t-26.5 -34.5h-60l4 24l43 194h227l-6 -59h-175l-19 -81q15 10 32.5 15.5t40.5 5.5q57 0 87.5 -25t30.5 -77v-10t-1 -10
q-7 -63 -44.5 -92.5t-103.5 -29.5q-69 0 -98.5 27t-27.5 88h66z" />
    <glyph glyph-name="uni2157" unicode="&#x2157;" horiz-adv-x="692" 
d="M114 472q-2 -42 12.5 -57t50.5 -15q30 0 51 13.5t21 49.5q0 21 -12.5 31.5t-44.5 10.5h-37l7 54h37q28 0 47 14.5t19 45.5q0 42 -58 42q-30 0 -49.5 -14t-26.5 -56h-66q11 63 45 96t101 33q63 0 93 -26.5t30 -68.5q0 -32 -13.5 -52.5t-41.5 -35.5q19 -8 30 -26t11 -45
q0 -60 -40 -89t-106 -29q-69 0 -99.5 28.5t-26.5 95.5h66zM597 712h60l-542 -712h-60zM446 108q-2 -36 12.5 -49.5t50.5 -13.5q37 0 53.5 17t21.5 54q1 5 1 9v8q0 26 -13.5 38.5t-45.5 12.5q-33 0 -49.5 -11.5t-26.5 -34.5h-60l4 24l43 194h227l-6 -59h-175l-19 -81
q15 10 32.5 15.5t40.5 5.5q57 0 87.5 -25t30.5 -77v-10t-1 -10q-7 -63 -44.5 -92.5t-103.5 -29.5q-69 0 -98.5 27t-27.5 88h66z" />
    <glyph glyph-name="uni2158" unicode="&#x2158;" horiz-adv-x="692" 
d="M40 477l179 235h87l-28 -225h50l-6 -54h-50l-9 -77h-67l9 77h-170zM211 487l19 156l-121 -156h102zM593 712h60l-542 -712h-60zM446 108q-2 -36 12.5 -49.5t50.5 -13.5q37 0 53.5 17t21.5 54q1 5 1 9v8q0 26 -13.5 38.5t-45.5 12.5q-33 0 -49.5 -11.5t-26.5 -34.5h-60
l4 24l43 194h227l-6 -59h-175l-19 -81q15 10 32.5 15.5t40.5 5.5q57 0 87.5 -25t30.5 -77v-10t-1 -10q-7 -63 -44.5 -92.5t-103.5 -29.5q-69 0 -98.5 27t-27.5 88h66z" />
    <glyph glyph-name="uni2159" unicode="&#x2159;" horiz-adv-x="692" 
d="M178 645l-94 -30l7 59l113 38h52l-43 -356h-70zM586 712h60l-542 -712h-60zM359 118q5 37 19.5 61.5t37.5 50.5l108 126h80l-117 -129q12 4 31 4q57 0 87.5 -23t30.5 -74q0 -5 -0.5 -11t-1.5 -12q-8 -66 -47 -92.5t-102 -26.5q-57 0 -92.5 23t-35.5 78q0 6 0.5 12.5
t1.5 12.5zM429 112q-1 -5 -1 -9v-9q0 -26 13.5 -38t46.5 -12q37 0 54 16.5t22 51.5q1 5 1 9v9q0 25 -14 36.5t-46 11.5q-38 0 -54.5 -15.5t-21.5 -50.5z" />
    <glyph glyph-name="uni215A" unicode="&#x215a;" horiz-adv-x="692" 
d="M114 464q-2 -36 12.5 -49.5t50.5 -13.5q37 0 53.5 17t21.5 54q1 5 1 9v8q0 26 -13.5 38.5t-45.5 12.5q-33 0 -49.5 -11.5t-26.5 -34.5h-60l4 24l43 194h227l-6 -59h-175l-19 -81q15 10 32.5 15.5t40.5 5.5q57 0 87.5 -25t30.5 -77v-10t-1 -10q-7 -63 -44.5 -92.5
t-103.5 -29.5q-69 0 -98.5 27t-27.5 88h66zM615 712h60l-542 -712h-60zM380 118q5 37 19.5 61.5t37.5 50.5l108 126h80l-117 -129q12 4 31 4q57 0 87.5 -23t30.5 -74q0 -5 -0.5 -11t-1.5 -12q-8 -66 -47 -92.5t-102 -26.5q-57 0 -92.5 23t-35.5 78q0 6 0.5 12.5t1.5 12.5z
M450 112q-1 -5 -1 -9v-9q0 -26 13.5 -38t46.5 -12q37 0 54 16.5t22 51.5q1 5 1 9v9q0 25 -14 36.5t-46 11.5q-38 0 -54.5 -15.5t-21.5 -50.5z" />
    <glyph glyph-name="oneeighth" unicode="&#x215b;" horiz-adv-x="692" 
d="M178 645l-94 -30l7 59l113 38h52l-43 -356h-70zM566 712h60l-542 -712h-60zM353 83q0 33 15 56.5t50 37.5q-18 10 -28.5 27.5t-10.5 42.5q0 57 37 87t104 30q61 0 92.5 -26t31.5 -74q0 -28 -16.5 -51.5t-43.5 -35.5q46 -19 46 -75q0 -57 -39.5 -83.5t-108.5 -26.5
q-61 0 -95 21.5t-34 69.5zM504 204q33 0 51 15.5t18 47.5q0 40 -56 40q-33 0 -51 -15.5t-18 -47.5q0 -40 56 -40zM485 44q35 0 55 15.5t20 48.5q0 44 -62 44q-34 0 -54.5 -15t-20.5 -49q0 -44 62 -44z" />
    <glyph glyph-name="threeeighths" unicode="&#x215c;" horiz-adv-x="692" 
d="M113 472q-2 -42 12.5 -57t50.5 -15q30 0 51 13.5t21 49.5q0 21 -12.5 31.5t-44.5 10.5h-37l7 54h37q28 0 47 14.5t19 45.5q0 42 -58 42q-30 0 -49.5 -14t-26.5 -56h-66q11 63 45 96t101 33q63 0 93 -26.5t30 -68.5q0 -32 -13.5 -52.5t-41.5 -35.5q19 -8 30 -26t11 -45
q0 -60 -40 -89t-106 -29q-69 0 -99.5 28.5t-26.5 95.5h66zM604 712h60l-542 -712h-60zM375 83q0 33 15 56.5t50 37.5q-18 10 -28.5 27.5t-10.5 42.5q0 57 37 87t104 30q61 0 92.5 -26t31.5 -74q0 -28 -16.5 -51.5t-43.5 -35.5q46 -19 46 -75q0 -57 -39.5 -83.5t-108.5 -26.5
q-61 0 -95 21.5t-34 69.5zM526 204q33 0 51 15.5t18 47.5q0 40 -56 40q-33 0 -51 -15.5t-18 -47.5q0 -40 56 -40zM507 44q35 0 55 15.5t20 48.5q0 44 -62 44q-34 0 -54.5 -15t-20.5 -49q0 -44 62 -44z" />
    <glyph glyph-name="fiveeighths" unicode="&#x215d;" horiz-adv-x="692" 
d="M113 464q-2 -36 12.5 -49.5t50.5 -13.5q37 0 53.5 17t21.5 54q1 5 1 9v8q0 26 -13.5 38.5t-45.5 12.5q-33 0 -49.5 -11.5t-26.5 -34.5h-60l4 24l43 194h227l-6 -59h-175l-19 -81q15 10 32.5 15.5t40.5 5.5q57 0 87.5 -25t30.5 -77v-10t-1 -10q-7 -63 -44.5 -92.5
t-103.5 -29.5q-69 0 -98.5 27t-27.5 88h66zM602 712h60l-542 -712h-60zM373 83q0 33 15 56.5t50 37.5q-18 10 -28.5 27.5t-10.5 42.5q0 57 37 87t104 30q61 0 92.5 -26t31.5 -74q0 -28 -16.5 -51.5t-43.5 -35.5q46 -19 46 -75q0 -57 -39.5 -83.5t-108.5 -26.5
q-61 0 -95 21.5t-34 69.5zM524 204q33 0 51 15.5t18 47.5q0 40 -56 40q-33 0 -51 -15.5t-18 -47.5q0 -40 56 -40zM505 44q35 0 55 15.5t20 48.5q0 44 -62 44q-34 0 -54.5 -15t-20.5 -49q0 -44 62 -44z" />
    <glyph glyph-name="seveneighths" unicode="&#x215e;" horiz-adv-x="692" 
d="M262 653h-193l7 59h269l-5 -44l-195 -312h-71zM575 712h60l-542 -712h-60zM370 83q0 33 15 56.5t50 37.5q-18 10 -28.5 27.5t-10.5 42.5q0 57 37 87t104 30q61 0 92.5 -26t31.5 -74q0 -28 -16.5 -51.5t-43.5 -35.5q46 -19 46 -75q0 -57 -39.5 -83.5t-108.5 -26.5
q-61 0 -95 21.5t-34 69.5zM521 204q33 0 51 15.5t18 47.5q0 40 -56 40q-33 0 -51 -15.5t-18 -47.5q0 -40 56 -40zM502 44q35 0 55 15.5t20 48.5q0 44 -62 44q-34 0 -54.5 -15t-20.5 -49q0 -44 62 -44z" />
    <glyph glyph-name="arrowleft" unicode="&#x2190;" horiz-adv-x="661" 
d="M281 110l-247 246l247 246l52 -48l-167 -167q20 1 44 2t46.5 1.5t41.5 0.5h30h310v-69h-310h-30t-41.5 0.5t-46.5 1t-44 1.5l167 -167z" />
    <glyph glyph-name="arrowup" unicode="&#x2191;" horiz-adv-x="544" 
d="M33 411l246 246l248 -246l-46 -48l-170 172q1 -20 2 -44t1.5 -47t0.5 -42v-29v-319h-70v319v29t0.5 42t1 47t2.5 44l-170 -172z" />
    <glyph glyph-name="arrowright" unicode="&#x2192;" horiz-adv-x="661" 
d="M343 158l168 167q-20 -1 -44 -1.5t-46.5 -1t-42 -0.5h-29.5h-310v69h310h29.5t42 -0.5t46.5 -1.5t44 -2l-168 167l53 48l246 -246l-246 -246z" />
    <glyph glyph-name="arrowdown" unicode="&#x2193;" horiz-adv-x="543" 
d="M526 301l-247 -246l-246 246l45 48l171 -172q-2 21 -2.5 45t-1 46.5t-0.5 41.5v29v319h69v-319v-29t-0.5 -41.5t-1 -46.5t-1.5 -45l170 172z" />
    <glyph glyph-name="uni2196" unicode="&#x2196;" horiz-adv-x="540" 
d="M420 588v-68h-239q16 -14 35.5 -32.5t38 -37t33.5 -34t23 -22.5l211 -212l-47 -51l-212 214l-23 23l-34.5 34.5t-37.5 38.5t-32 35v-241h-68v353h352z" />
    <glyph glyph-name="uni2197" unicode="&#x2197;" horiz-adv-x="540" 
d="M488 588v-353h-69v241q-13 -15 -31.5 -34.5t-37 -38.5t-34.5 -35l-23 -23l-212 -214l-48 51l212 212l22.5 22.5l34 34t38 37t34.5 32.5h-238v68h352z" />
    <glyph glyph-name="uni2198" unicode="&#x2198;" horiz-adv-x="540" 
d="M136 131v68h238q-15 13 -34.5 31.5t-38 37l-34 34l-22.5 22.5l-212 213l48 51l212 -214q7 -8 23 -23.5t34.5 -34t37 -38.5t31.5 -35v241h69v-353h-352z" />
    <glyph glyph-name="uni2199" unicode="&#x2199;" horiz-adv-x="540" 
d="M68 131v353h68v-241q13 16 32 35.5t37.5 38l34 34l23.5 23.5l212 214l47 -51l-211 -213q-7 -8 -22 -23.5t-33.5 -33.5t-38.5 -36.5t-36 -31.5h239v-68h-352z" />
    <glyph glyph-name="partialdiff" unicode="&#x2202;" horiz-adv-x="501" 
d="M42 236q8 63 23.5 109t41.5 76t63.5 44.5t89.5 14.5q48 0 79.5 -16.5t45.5 -58.5l6 50q3 22 3 43q0 73 -36.5 109.5t-114.5 36.5h-109l8 68h104q118 0 169.5 -54.5t51.5 -150.5q0 -27 -3 -55l-25 -210q-16 -130 -68 -190t-152 -60q-91 0 -136.5 42.5t-45.5 136.5
q0 15 1.5 31.5t3.5 33.5zM121 230q-2 -18 -3 -34t-1 -30q0 -62 23.5 -85t76.5 -23q32 0 56 8.5t40.5 28t27 52.5t16.5 83q2 20 3.5 37.5t1.5 31.5q0 32 -6 53t-18 33t-31 17t-46 5q-33 0 -56.5 -7.5t-40 -27.5t-27 -54.5t-16.5 -87.5z" />
    <glyph glyph-name="Delta" unicode="&#x2206;" horiz-adv-x="582" 
d="M301 712h91l136 -712h-535zM99 66h335l-100 549z" />
    <glyph glyph-name="product" unicode="&#x220f;" horiz-adv-x="637" 
d="M138 712h474l-87 -712h-82l78 642h-309l-78 -642h-83z" />
    <glyph glyph-name="summation" unicode="&#x2211;" horiz-adv-x="512" 
d="M11 56l293 307l-222 295l7 54h440l-10 -76h-325l195 -260l-4 -36l-267 -274h331l-7 -66h-438z" />
    <glyph glyph-name="minus" unicode="&#x2212;" horiz-adv-x="560" 
d="M64 323h448l-8 -66h-448z" />
    <glyph glyph-name="uni2215" unicode="&#x2215;" horiz-adv-x="56" 
d="M282 712h60l-542 -712h-60z" />
    <glyph glyph-name="uni2219" unicode="&#x2219;" horiz-adv-x="206" 
d="M71 339h85l-13 -102h-85z" />
    <glyph glyph-name="radical" unicode="&#x221a;" horiz-adv-x="631" 
d="M124 415l-89 -38l8 69l137 58l110 -394h4l311 602h71l-371 -712h-59z" />
    <glyph glyph-name="infinity" unicode="&#x221e;" horiz-adv-x="708" 
d="M177 174q-58 0 -92 26t-34 77q0 61 41 99t108 38q50 0 89 -26.5t74 -59.5q42 33 85.5 59.5t91.5 26.5q58 0 91.5 -29.5t33.5 -77.5q0 -67 -41 -100t-107 -33q-50 0 -88.5 26t-72.5 60q-42 -33 -86.5 -59.5t-92.5 -26.5zM180 226q35 0 70.5 20t70.5 48q-29 28 -59 48
t-65 20q-40 0 -66 -22.5t-26 -56.5q0 -28 20 -42.5t55 -14.5zM537 362q-35 0 -69.5 -20t-69.5 -48q29 -28 58.5 -48t63.5 -20q42 0 66 19.5t24 56.5q0 26 -19 43t-54 17z" />
    <glyph glyph-name="integral" unicode="&#x222b;" horiz-adv-x="355" 
d="M80 -138q54 0 82.5 23t28.5 83q0 40 -7.5 88t-19.5 99.5t-25 104t-25 102.5t-19.5 94.5t-7.5 79.5q0 49 14.5 83t40 54.5t60 29.5t73.5 9h64v-70h-64q-55 0 -83 -23t-28 -83q0 -56 16 -131t35.5 -154.5t36 -154t16.5 -128.5q0 -50 -15 -83.5t-40.5 -54t-59.5 -29.5
t-73 -9h-64v70h64z" />
    <glyph glyph-name="approxequal" unicode="&#x2248;" horiz-adv-x="560" 
d="M78 425q8 7 18.5 16.5t25 18.5t33.5 15t43 6q37 0 63 -12.5t48 -27.5t44.5 -27.5t53.5 -12.5q24 0 43 6t34 15t26.5 18.5t19.5 16.5l-9 -67q-8 -7 -18.5 -16.5t-25 -18.5t-33.5 -15t-43 -6q-35 0 -59 12.5t-46 27.5t-46 27.5t-58 12.5q-24 0 -43 -6t-34 -15t-26.5 -18.5
t-19.5 -16.5zM53 222q8 7 18.5 16.5t25 18.5t33.5 15t43 6q37 0 63 -12.5t48 -27.5t44.5 -27.5t53.5 -12.5q24 0 43.5 6.5t34.5 15.5t26 18.5t19 15.5l-8 -67q-8 -8 -19 -17.5t-25.5 -18t-33.5 -14.5t-43 -6q-35 0 -59 12.5t-46 27.5t-45.5 27.5t-57.5 12.5
q-24 0 -43.5 -6.5t-34.5 -15.5t-26 -18.5t-19 -15.5z" />
    <glyph glyph-name="notequal" unicode="&#x2260;" horiz-adv-x="560" 
d="M77 427h260l97 153h68l-97 -153h120l-8 -66h-154l-90 -142h226l-8 -66h-259l-97 -153h-68l97 153h-121l8 66h154l90 142h-226z" />
    <glyph glyph-name="lessequal" unicode="&#x2264;" horiz-adv-x="560" 
d="M73 439l471 181l-9 -70l-382 -147l346 -147l-8 -64l-426 181zM27 66h448l-7 -66h-448z" />
    <glyph glyph-name="greaterequal" unicode="&#x2265;" horiz-adv-x="560" 
d="M109 620l426 -181l-8 -66l-471 -181l9 70l381 147l-345 147zM41 66h448l-8 -66h-448z" />
    <glyph glyph-name="filledbox" unicode="&#x25a0;" horiz-adv-x="743" 
d="M24 712h711v-712h-711v712z" />
    <glyph glyph-name="H22073" unicode="&#x25a1;" horiz-adv-x="743" 
d="M24 712h711v-712h-711v712zM664 67v578h-570v-578h570z" />
    <glyph glyph-name="uni25B6" unicode="&#x25b6;" horiz-adv-x="478" 
d="M24 512l454 -260l-454 -260v520z" />
    <glyph glyph-name="uni25B7" unicode="&#x25b7;" horiz-adv-x="478" 
d="M24 512l454 -260l-454 -260v520zM353 252l-259 143v-285z" />
    <glyph glyph-name="uni25C0" unicode="&#x25c0;" horiz-adv-x="478" 
d="M470 -8l-454 260l454 260v-520z" />
    <glyph glyph-name="uni25C1" unicode="&#x25c1;" horiz-adv-x="478" 
d="M400 110v285l-259 -143zM470 -8l-454 260l454 260v-520z" />
    <glyph glyph-name="lozenge" unicode="&#x25ca;" horiz-adv-x="612" 
d="M24 352l255 360h63l254 -360l-252 -352h-66zM312 72l202 280l-202 280h-4l-201 -280l201 -280h4z" />
    <glyph glyph-name="circle" unicode="&#x25cb;" horiz-adv-x="552" 
d="M25 251q0 57 20 104.5t55 82.5t82 54.5t102 19.5q54 0 101.5 -19t82.5 -53t55 -82.5t20 -106.5q0 -57 -20 -105t-55 -83.5t-82.5 -55t-101.5 -19.5q-55 0 -102 19t-82 54t-55 83t-20 107zM95 251q0 -45 14.5 -82t40 -63.5t60 -41t74.5 -14.5t74.5 15t60 41.5t40 63.5
t14.5 81q0 45 -14.5 81.5t-40 62.5t-60 40.5t-74.5 14.5t-74.5 -15t-60 -41t-40 -63t-14.5 -80z" />
    <glyph glyph-name="H18533" unicode="&#x25cf;" horiz-adv-x="552" 
d="M25 251q0 57 20 104.5t55 82.5t82 54.5t102 19.5q54 0 101.5 -19t82.5 -53t55 -82.5t20 -106.5q0 -57 -20 -105t-55 -83.5t-82.5 -55t-101.5 -19.5q-55 0 -102 19t-82 54t-55 83t-20 107z" />
    <glyph glyph-name="uni25FB" unicode="&#x25fb;" horiz-adv-x="535" 
d="M24 504h503v-504h-503v504zM458 64v377h-365v-377h365z" />
    <glyph glyph-name="uni25FC" unicode="&#x25fc;" horiz-adv-x="535" 
d="M24 504h503v-504h-503v504z" />
    <glyph glyph-name="uni2605" unicode="&#x2605;" horiz-adv-x="565" 
d="M189 196l-162 108l5 16l195 -9l53 189h16l52 -189l196 9l5 -16l-163 -108l69 -183l-14 -10l-153 121l-153 -121l-14 10z" />
    <glyph glyph-name="uniFB00" unicode="&#xfb00;" horiz-adv-x="583" 
d="M54 504h63l6 50q10 76 50.5 117t119.5 41h70l-9 -73h-60q-43 0 -64.5 -20t-26.5 -63l-6 -52h191l6 50q10 76 50.5 117t118.5 41h71l-9 -73h-60q-43 0 -64.5 -20t-26.5 -63l-6 -52h130l-10 -70h-129l-52 -434h-80l52 434h-191l-52 -434h-80l52 434h-63z" />
    <glyph glyph-name="uniFB01" unicode="&#xfb01;" horiz-adv-x="490" 
d="M364 434h-176l-52 -434h-80l52 434h-63l9 70h63l6 50q10 78 50.5 118t119.5 40h45l-9 -73h-35q-43 0 -64.5 -20t-26.5 -63l-6 -52h256l-62 -504h-80zM398 712h80l-12 -94h-80z" />
    <glyph glyph-name="uniFB02" unicode="&#xfb02;" horiz-adv-x="490" 
d="M54 504h63l4 33q11 86 55.5 130.5t133.5 44.5h168l-87 -712h-80l78 639h-79q-54 0 -78 -22.5t-31 -76.5l-5 -36h96l-9 -70h-95l-52 -434h-80l52 434h-63z" />
    <glyph glyph-name="uniFB03" unicode="&#xfb03;" horiz-adv-x="761" 
d="M109 434h-64l9 70h63l6 50q10 76 50.5 117t119.5 41h70l-9 -73h-60q-43 0 -64.5 -20t-26.5 -63l-6 -52h191l6 50q10 78 50.5 118t119.5 40h45l-9 -73h-35q-43 0 -64.5 -20t-26.5 -63l-6 -52h256l-62 -504h-80l53 434h-176l-52 -434h-80l53 434h-192l-52 -434h-80z
M669 712h80l-12 -94h-80z" />
    <glyph glyph-name="uniFB04" unicode="&#xfb04;" horiz-adv-x="761" 
d="M109 434h-64l9 70h63l6 50q10 76 50.5 117t119.5 41h70l-9 -73h-60q-43 0 -64.5 -20t-26.5 -63l-6 -52h191l4 33q11 86 55.5 130.5t133.5 44.5h168l-87 -712h-80l78 639h-79q-54 0 -78 -22.5t-31 -76.5l-4 -36h95l-9 -70h-95l-52 -434h-80l53 434h-192l-52 -434h-80z" />
    <glyph glyph-name="uniFEFF" unicode="&#xfeff;" horiz-adv-x="0" 
 />
    <glyph glyph-name="i.locl" horiz-adv-x="216" 
d="M124 712h80l-12 -94h-79zM99 504h80l-62 -504h-80z" />
    <glyph glyph-name="L_periodcentered.locl" horiz-adv-x="480" 
d="M138 712h83l-79 -646h298l-8 -66h-381zM351 422h80l-11 -94h-80z" />
    <glyph glyph-name="l_periodcentered.locl" horiz-adv-x="251" 
d="M124 712h80l-87 -712h-80zM214 422h80l-11 -94h-80z" />
    <glyph glyph-name="dollar.inferior" 
d="M54 -55q-1 -34 16 -46.5t49 -12.5q12 0 24 2.5t21.5 8.5t16 16.5t6.5 27.5t-13.5 25.5t-45.5 16.5l-34 9q-36 10 -60 30.5t-24 62.5q0 51 29.5 81t80.5 37l7 58h62l-7 -58q42 -5 64.5 -26.5t22.5 -66.5v-10.5t-1 -11.5h-64q3 35 -12.5 46.5t-47.5 11.5q-12 0 -23.5 -2.5
t-20.5 -8.5t-15 -16t-6 -26q0 -17 11.5 -27.5t40.5 -17.5l34 -8q45 -11 67.5 -31.5t22.5 -57.5q0 -51 -30.5 -80t-82.5 -36l-8 -63h-62l8 63q-51 6 -71.5 35t-18.5 75h64z" />
    <glyph glyph-name="comma.inferior" horiz-adv-x="156" 
d="M72 -81l-7 -57l-46 -112h-35l21 169h67z" />
    <glyph glyph-name="hyphen.inferior" horiz-adv-x="276" 
d="M16 40h193l-4 -42h-193z" />
    <glyph glyph-name="period.inferior" horiz-adv-x="156" 
d="M5 -81h67l-9 -78h-67z" />
    <glyph glyph-name="b.inferior" horiz-adv-x="366" 
d="M58 347h69l-24 -192q17 26 37.5 38t54.5 12q60 0 88 -31t28 -101q0 -13 -1 -27t-3 -29q-13 -98 -48.5 -141t-106.5 -43q-30 0 -53.5 12t-32.5 43l-5 -47h-65zM146 -112q21 0 36 6.5t25.5 21.5t17.5 40.5t12 63.5q2 14 3 26.5t1 23.5q0 43 -15 58.5t-49 15.5
q-21 0 -36.5 -5.5t-26 -19.5t-17 -38t-10.5 -61q-2 -17 -3 -30.5t-1 -25.5q0 -43 14.5 -59.5t48.5 -16.5z" />
    <glyph glyph-name="c.inferior" horiz-adv-x="332" 
d="M128 -167q-67 0 -98 30.5t-31 100.5q0 25 3 57q12 97 48 140.5t113 43.5q71 0 97 -36.5t22 -106.5h-63q1 48 -12 65t-48 17q-21 0 -35.5 -5.5t-24.5 -19.5t-17 -38.5t-11 -61.5q-2 -17 -3 -31t-1 -26q0 -44 14.5 -59t46.5 -15q35 0 52.5 20t27.5 70h64
q-14 -77 -47.5 -111t-96.5 -34z" />
    <glyph glyph-name="d.inferior" horiz-adv-x="365" 
d="M116 -167q-60 0 -88 30t-28 99q0 13 1 28t3 30q12 98 47.5 141.5t106.5 43.5q29 0 51 -10.5t31 -35.5l24 188h68l-62 -506h-65l5 48q-32 -56 -94 -56zM132 -112q21 0 36 6.5t26 21.5t18 40.5t12 63.5q3 28 3 50q0 43 -15 58.5t-49 15.5q-21 0 -36 -5.5t-25.5 -19.5
t-17.5 -38t-11 -61q-2 -17 -3 -30.5t-1 -24.5q0 -45 15 -61t48 -16z" />
    <glyph glyph-name="f.inferior" horiz-adv-x="231" 
d="M51 139h-44l7 58h44l5 35q8 57 38.5 86t87.5 29h52l-8 -61h-43q-53 0 -60 -55l-4 -34h88l-6 -58h-89l-36 -298h-68z" />
    <glyph glyph-name="g.inferior" horiz-adv-x="365" 
d="M56 -193q-2 -35 10.5 -50t51.5 -15q37 0 56 15t24 60l9 70q-17 -27 -38.5 -39t-52.5 -12q-60 0 -88 29.5t-28 98.5q0 14 1 28.5t3 28.5q13 98 48 141t106 43q31 0 54 -12.5t32 -41.5l5 45h64l-46 -377q-8 -69 -42.5 -100t-106.5 -31q-39 0 -64 8t-39 23.5t-19 37.5t-4 50
h64zM132 -109q21 0 36 6t26 21t18 40t12 63q3 30 3 50q0 42 -15 57.5t-49 15.5q-21 0 -36 -5.5t-25.5 -19.5t-17.5 -38t-11 -60q-2 -16 -3 -29.5t-1 -24.5q0 -43 15 -59.5t48 -16.5z" />
    <glyph glyph-name="i.inferior" horiz-adv-x="160" 
d="M58 347h69l-9 -73h-69zM39 197h69l-43 -356h-69z" />
    <glyph glyph-name="j.inferior" horiz-adv-x="159" 
d="M58 347h69l-9 -73h-69zM39 197h69l-49 -398q-6 -52 -32.5 -79t-80.5 -27h-33l7 55h19q23 0 35.5 10t15.5 35z" />
    <glyph glyph-name="q.inferior" horiz-adv-x="364" 
d="M116 -167q-60 0 -88 30t-28 99q0 14 1 28.5t3 30.5q12 98 47.5 141t106.5 43q30 0 53 -12t32 -40l5 43h65l-62 -503h-68l23 191q-16 -27 -37.5 -39t-52.5 -12zM132 -112q21 0 36 6.5t26 21.5t18 40.5t12 63.5q3 28 3 50q0 43 -15 58.5t-49 15.5q-21 0 -36 -5.5
t-25.5 -19.5t-17.5 -38t-11 -61q-2 -17 -3 -30.5t-1 -24.5q0 -45 15 -61t48 -16z" />
    <glyph glyph-name="r.inferior" horiz-adv-x="223" 
d="M24 85q7 57 35.5 84.5t85.5 27.5h62l-6 -58h-52q-51 0 -57 -51l-29 -247h-69z" />
    <glyph glyph-name="u.inferior" horiz-adv-x="356" 
d="M36 197h68l-27 -225q-1 -8 -1.5 -14t-0.5 -12q0 -31 13 -44.5t43 -13.5q35 0 53 20t24 66l27 223h68l-43 -356h-65l5 44q-14 -25 -35 -38.5t-56 -13.5q-52 0 -78 25.5t-26 73.5q0 7 0.5 13.5t1.5 14.5z" />
    <glyph glyph-name="v.inferior" horiz-adv-x="328" 
d="M5 197h68l54 -265l118 265h66l-165 -356h-63z" />
    <glyph glyph-name="w.inferior" horiz-adv-x="505" 
d="M5 197h69l41 -262l110 262h52l45 -258l102 258h64l-149 -356h-60l-44 240l-101 -240h-66z" />
    <glyph glyph-name="y.inferior" horiz-adv-x="328" 
d="M-5 -252q24 0 41 11t31 42l17 37l-79 359h68l54 -265l118 265h66l-185 -401q-12 -25 -23 -44.5t-25.5 -32.5t-33 -19.5t-45.5 -6.5h-34l7 55h23z" />
    <glyph glyph-name="z.inferior" horiz-adv-x="290" 
d="M-17 -120l183 259h-154l7 58h240l-4 -39l-186 -262h150l-6 -55h-234z" />
    <glyph glyph-name="cent.inferior" 
d="M100 -113q-46 5 -68 28t-22 71q0 7 0.5 14.5t1.5 16.5q8 63 33.5 94t79.5 36l7 58h53l-7 -57q48 -6 65.5 -33t15.5 -69h-62q0 29 -10.5 40.5t-37.5 11.5q-15 0 -26.5 -2.5t-20 -11t-14.5 -25t-10 -44.5q-1 -8 -1.5 -16t-0.5 -14q0 -35 14 -44.5t39 -9.5q27 0 40 11.5
t20 40.5h62q-8 -42 -31.5 -66t-66.5 -29l-7 -58h-53z" />
    <glyph glyph-name="Euro.inferior" 
d="M-25 -15h34q0 27 6 54h-33l4 40h36q16 71 51.5 98.5t97.5 27.5q70 0 94 -30.5t20 -97.5h-60q2 42 -9.5 58t-46.5 16q-32 0 -50 -14t-29 -58h83l-5 -40h-85q-5 -24 -6 -54h84l-4 -38h-81q2 -38 16 -50.5t44 -12.5q35 0 50.5 16t23.5 58h60q-6 -31 -15.5 -54.5t-25 -39
t-39 -23.5t-56.5 -8q-60 0 -92 25t-34 89h-37z" />
    <glyph glyph-name="dollar.superior" 
d="M136 620q-1 -34 16 -46.5t49 -12.5q12 0 24 2.5t21.5 8.5t16 16.5t6.5 27.5t-13.5 25.5t-45.5 16.5l-34 9q-36 10 -60 30.5t-24 62.5q0 51 29.5 81t80.5 37l7 58h62l-7 -58q42 -5 64.5 -26.5t22.5 -66.5v-10.5t-1 -11.5h-64q3 35 -12.5 46.5t-47.5 11.5q-12 0 -23.5 -2.5
t-20.5 -8.5t-15 -16t-6 -26q0 -17 11.5 -27.5t40.5 -17.5l34 -8q45 -11 67.5 -31.5t22.5 -57.5q0 -51 -30.5 -80t-82.5 -36l-8 -63h-62l8 63q-51 6 -71.5 35t-18.5 75h64z" />
    <glyph glyph-name="comma.superior" horiz-adv-x="156" 
d="M154 594l-7 -57l-46 -112h-35l21 169h67z" />
    <glyph glyph-name="hyphen.superior" horiz-adv-x="276" 
d="M98 715h193l-4 -42h-193z" />
    <glyph glyph-name="period.superior" horiz-adv-x="156" 
d="M87 594h67l-9 -78h-67z" />
    <glyph glyph-name="a.superior" horiz-adv-x="328" 
d="M165 508q-45 0 -70.5 23.5t-25.5 62.5q0 34 13 56.5t34.5 36.5t49 21.5t57.5 12.5l52 9l3 25.5t1 15.5q0 26 -11 38.5t-39 12.5q-35 0 -50.5 -15t-20.5 -52h-62q8 58 38 91.5t101 33.5q31 0 52.5 -8t35 -22t19 -33t5.5 -40v-11.5t-1 -11.5l-28 -238h-66l6 43
q-13 -21 -35.5 -36t-57.5 -15zM225 673q-15 -2 -31 -6t-28.5 -11.5t-20.5 -20t-8 -31.5q0 -43 48 -43q29 0 51.5 16.5t26.5 51.5l6 51z" />
    <glyph glyph-name="b.superior" horiz-adv-x="366" 
d="M140 1022h69l-24 -192q17 26 37.5 38t54.5 12q60 0 88 -31t28 -101q0 -13 -1 -27t-3 -29q-13 -98 -48.5 -141t-106.5 -43q-30 0 -53.5 12t-32.5 43l-5 -47h-65zM228 563q21 0 36 6.5t25.5 21.5t17.5 40.5t12 63.5q2 14 3 26.5t1 23.5q0 43 -15 58.5t-49 15.5
q-21 0 -36.5 -5.5t-26 -19.5t-17 -38t-10.5 -61q-2 -17 -3 -30.5t-1 -25.5q0 -43 14.5 -59.5t48.5 -16.5z" />
    <glyph glyph-name="c.superior" horiz-adv-x="332" 
d="M210 508q-67 0 -98 30.5t-31 100.5q0 25 3 57q12 97 48 140.5t113 43.5q71 0 97 -36.5t22 -106.5h-63q1 48 -12 65t-48 17q-21 0 -35.5 -5.5t-24.5 -19.5t-17 -38.5t-11 -61.5q-2 -17 -3 -31t-1 -26q0 -44 14.5 -59t46.5 -15q35 0 52.5 20t27.5 70h64q-14 -77 -47.5 -111
t-96.5 -34z" />
    <glyph glyph-name="d.superior" horiz-adv-x="365" 
d="M198 508q-60 0 -88 30t-28 99q0 13 1 28t3 30q12 98 47.5 141.5t106.5 43.5q29 0 51 -10.5t31 -35.5l24 188h68l-62 -506h-65l5 48q-32 -56 -94 -56zM214 563q21 0 36 6.5t26 21.5t18 40.5t12 63.5q3 28 3 50q0 43 -15 58.5t-49 15.5q-21 0 -36 -5.5t-25.5 -19.5
t-17.5 -38t-11 -61q-2 -17 -3 -30.5t-1 -24.5q0 -45 15 -61t48 -16z" />
    <glyph glyph-name="e.superior" horiz-adv-x="337" 
d="M212 508q-67 0 -99 31t-32 103q0 12 1 25t3 27q13 100 49.5 143t111.5 43q66 0 94 -31t28 -96q0 -12 -1 -25.5t-3 -27.5l-2 -14h-211q-3 -30 -3 -50q0 -46 16 -60t50 -14q35 0 52 13t26 47h60q-12 -54 -43 -84t-97 -30zM242 820q-33 0 -53 -17t-31 -69h145q1 5 1 10v10
q0 39 -15 52.5t-47 13.5z" />
    <glyph glyph-name="f.superior" horiz-adv-x="231" 
d="M133 814h-44l7 58h44l5 35q8 57 38.5 86t87.5 29h52l-8 -61h-43q-53 0 -60 -55l-4 -34h88l-6 -58h-89l-36 -298h-68z" />
    <glyph glyph-name="g.superior" horiz-adv-x="365" 
d="M138 482q-2 -35 10.5 -50t51.5 -15q37 0 56 15t24 60l9 70q-17 -27 -38.5 -39t-52.5 -12q-60 0 -88 29.5t-28 98.5q0 14 1 28.5t3 28.5q13 98 48 141t106 43q31 0 54 -12.5t32 -41.5l5 45h64l-46 -377q-8 -69 -42.5 -100t-106.5 -31q-39 0 -64 8t-39 23.5t-19 37.5t-4 50
h64zM214 566q21 0 36 6t26 21t18 40t12 63q3 30 3 50q0 42 -15 57.5t-49 15.5q-21 0 -36 -5.5t-25.5 -19.5t-17.5 -38t-11 -60q-2 -16 -3 -29.5t-1 -24.5q0 -43 15 -59.5t48 -16.5z" />
    <glyph glyph-name="h.superior" horiz-adv-x="355" 
d="M140 1022h69l-23 -187q14 23 34.5 34t52.5 11q53 0 78 -26t25 -73q0 -6 -0.5 -12t-1.5 -12l-29 -241h-68l27 221q1 8 1.5 14t0.5 12q0 31 -13 43t-43 12q-35 0 -53 -17t-23 -64l-27 -221h-69z" />
    <glyph glyph-name="j.superior" horiz-adv-x="159" 
d="M140 1022h69l-9 -73h-69zM121 872h69l-49 -398q-6 -52 -32.5 -79t-80.5 -27h-33l7 55h19q23 0 35.5 10t15.5 35z" />
    <glyph glyph-name="k.superior" horiz-adv-x="335" 
d="M140 1022h69l-39 -312l155 162h79l-143 -147l100 -209h-73l-76 160l-53 -54l-12 -106h-69z" />
    <glyph glyph-name="l.superior" horiz-adv-x="160" 
d="M140 1022h69l-62 -506h-69z" />
    <glyph glyph-name="m.superior" horiz-adv-x="554" 
d="M121 872h66l-5 -43q14 26 35 38.5t56 12.5q39 0 64.5 -15t33.5 -44q14 28 38 43.5t62 15.5q54 0 79 -26t25 -73q0 -6 -0.5 -12t-1.5 -12l-29 -241h-68l27 221q1 8 1.5 14t0.5 12q0 31 -13 43t-43 12q-35 0 -53 -17t-24 -64l-27 -221h-68l27 221q1 8 1.5 14t0.5 12
q0 31 -13 43t-43 12q-35 0 -53 -17t-23 -64l-27 -221h-69z" />
    <glyph glyph-name="o.superior" horiz-adv-x="350" 
d="M211 508q-69 0 -99 31.5t-30 101.5q0 25 3 55q6 49 17 84t30 57t47 32.5t68 10.5q69 0 99.5 -31.5t30.5 -100.5q0 -26 -3 -54q-6 -49 -17 -84t-30 -57.5t-47.5 -33.5t-68.5 -11zM213 563q21 0 36.5 6.5t26 21.5t17.5 40.5t12 63.5q2 14 3 26.5t1 23.5q0 43 -15 58.5
t-50 15.5q-21 0 -36 -5.5t-25.5 -19.5t-17.5 -38t-11 -61q-2 -17 -3 -30.5t-1 -24.5q0 -45 15 -61t48 -16z" />
    <glyph glyph-name="p.superior" horiz-adv-x="365" 
d="M128 368h-68l61 503h66l-6 -48q16 30 38.5 43.5t57.5 13.5q60 0 87.5 -30.5t27.5 -100.5q0 -24 -3 -55q-12 -99 -47.5 -142.5t-107.5 -43.5q-29 0 -51 11t-32 35zM228 563q21 0 36 6.5t25.5 21.5t17.5 40.5t12 63.5q2 14 3 26.5t1 23.5q0 43 -15 58.5t-49 15.5
q-21 0 -36.5 -5.5t-26 -19.5t-17 -38t-10.5 -61q-2 -17 -3 -30.5t-1 -25.5q0 -43 14.5 -59.5t48.5 -16.5z" />
    <glyph glyph-name="q.superior" horiz-adv-x="364" 
d="M198 508q-60 0 -88 30t-28 99q0 14 1 28.5t3 30.5q12 98 47.5 141t106.5 43q30 0 53 -12t32 -40l5 43h65l-62 -503h-68l23 191q-16 -27 -37.5 -39t-52.5 -12zM214 563q21 0 36 6.5t26 21.5t18 40.5t12 63.5q3 28 3 50q0 43 -15 58.5t-49 15.5q-21 0 -36 -5.5t-25.5 -19.5
t-17.5 -38t-11 -61q-2 -17 -3 -30.5t-1 -24.5q0 -45 15 -61t48 -16z" />
    <glyph glyph-name="r.superior" horiz-adv-x="223" 
d="M106 760q7 57 35.5 84.5t85.5 27.5h62l-6 -58h-52q-51 0 -57 -51l-29 -247h-69z" />
    <glyph glyph-name="s.superior" horiz-adv-x="310" 
d="M134 620q-2 -33 12 -46.5t46 -13.5q30 0 49 13t19 45q0 18 -11.5 26.5t-41.5 15.5l-38 9q-35 8 -55.5 29.5t-20.5 59.5q0 61 36.5 91.5t96.5 30.5q57 0 86 -21.5t29 -70.5q0 -6 -0.5 -12t-1.5 -13h-61q3 34 -10.5 46.5t-45.5 12.5q-25 0 -44 -11.5t-19 -43.5
q0 -18 10.5 -27.5t39.5 -16.5l38 -9q42 -10 61 -32.5t19 -56.5q0 -62 -38.5 -89.5t-100.5 -27.5q-36 0 -59 8.5t-35.5 23.5t-17 35.5t-3.5 44.5h61z" />
    <glyph glyph-name="t.superior" horiz-adv-x="242" 
d="M128 814h-44l7 58h47l11 87h65l-11 -87h99l-7 -58h-99l-22 -185q-1 -5 -1 -8.5v-7.5q0 -23 11.5 -32.5t38.5 -9.5h43l-7 -55h-50q-51 0 -78 21t-27 68q0 6 0.5 12.5t1.5 13.5z" />
    <glyph glyph-name="u.superior" horiz-adv-x="356" 
d="M118 872h68l-27 -225q-1 -8 -1.5 -14t-0.5 -12q0 -31 13 -44.5t43 -13.5q35 0 53 20t24 66l27 223h68l-43 -356h-65l5 44q-14 -25 -35 -38.5t-56 -13.5q-52 0 -78 25.5t-26 73.5q0 7 0.5 13.5t1.5 14.5z" />
    <glyph glyph-name="v.superior" horiz-adv-x="328" 
d="M87 872h68l54 -265l118 265h66l-165 -356h-63z" />
    <glyph glyph-name="w.superior" horiz-adv-x="505" 
d="M87 872h69l41 -262l110 262h52l45 -258l102 258h64l-149 -356h-60l-44 240l-101 -240h-66z" />
    <glyph glyph-name="x.superior" horiz-adv-x="319" 
d="M176 694l-90 177h72l64 -128l92 128h71l-134 -177l91 -178h-72l-64 129l-93 -129h-71z" />
    <glyph glyph-name="y.superior" horiz-adv-x="328" 
d="M77 423q24 0 41 11t31 42l17 37l-79 359h68l54 -265l118 265h66l-185 -401q-12 -25 -23 -44.5t-25.5 -32.5t-33 -19.5t-45.5 -6.5h-34l7 55h23z" />
    <glyph glyph-name="z.superior" horiz-adv-x="290" 
d="M65 555l183 259h-154l7 58h240l-4 -39l-186 -262h150l-6 -55h-234z" />
    <glyph glyph-name="cent.superior" 
d="M182 562q-46 5 -68 28t-22 71q0 7 0.5 14.5t1.5 16.5q8 63 33.5 94t79.5 36l7 58h53l-7 -57q48 -6 65.5 -33t15.5 -69h-62q0 29 -10.5 40.5t-37.5 11.5q-15 0 -26.5 -2.5t-20 -11t-14.5 -25t-10 -44.5q-1 -8 -1.5 -16t-0.5 -14q0 -35 14 -44.5t39 -9.5q27 0 40 11.5
t20 40.5h62q-8 -42 -31.5 -66t-66.5 -29l-7 -58h-53z" />
    <glyph glyph-name="Euro.superior" 
d="M57 660h34q0 27 6 54h-33l4 40h36q16 71 51.5 98.5t97.5 27.5q70 0 94 -30.5t20 -97.5h-60q2 42 -9.5 58t-46.5 16q-32 0 -50 -14t-29 -58h83l-5 -40h-85q-5 -24 -6 -54h84l-4 -38h-81q2 -38 16 -50.5t44 -12.5q35 0 50.5 16t23.5 58h60q-6 -31 -15.5 -54.5t-25 -39
t-39 -23.5t-56.5 -8q-60 0 -92 25t-34 89h-37z" />
    <glyph glyph-name="dollar.numr" 
d="M116 460q-1 -34 16 -46.5t49 -12.5q12 0 24 2.5t21.5 8.5t16 16.5t6.5 27.5t-13.5 25.5t-45.5 16.5l-34 9q-36 10 -60 30.5t-24 62.5q0 51 29.5 81t80.5 37l7 58h62l-7 -58q42 -5 64.5 -26.5t22.5 -66.5v-10.5t-1 -11.5h-64q3 35 -12.5 46.5t-47.5 11.5q-12 0 -23.5 -2.5
t-20.5 -8.5t-15 -16t-6 -26q0 -17 11.5 -27.5t40.5 -17.5l34 -8q45 -11 67.5 -31.5t22.5 -57.5q0 -51 -30.5 -80t-82.5 -36l-8 -63h-62l8 63q-51 6 -71.5 35t-18.5 75h64z" />
    <glyph glyph-name="parenleft.numr" horiz-adv-x="157" 
d="M52 541q9 77 20.5 123t27.5 70t38 31t53 7h16l-6 -53h-6q-17 0 -28 -4t-19.5 -22.5t-16 -55.5t-15.5 -103q-5 -44 -8 -74.5t-3 -51.5q0 -20 3 -32t8.5 -18t13.5 -7.5t19 -1.5h6l-6 -53h-16q-23 0 -40 5t-28 18.5t-16.5 37t-5.5 60.5q0 47 9 124z" />
    <glyph glyph-name="parenright.numr" horiz-adv-x="157" 
d="M170 527q-9 -77 -20.5 -123t-27 -70t-37.5 -31t-53 -7h-17l6 53h7q16 0 27.5 4t20 22.5t16 55.5t15.5 103q5 44 7.5 74.5t2.5 51.5q0 20 -2.5 32t-8 18t-13.5 7.5t-19 1.5h-7l6 53h17q23 0 39.5 -5t27.5 -18.5t16.5 -37t5.5 -60.5q0 -48 -9 -124z" />
    <glyph glyph-name="plus.numr" 
d="M169 513h-102l4 42h103l12 94h45l-12 -94h102l-4 -42h-102l-13 -94h-45z" />
    <glyph glyph-name="comma.numr" horiz-adv-x="156" 
d="M135 434l-7 -57l-46 -112h-35l21 169h67z" />
    <glyph glyph-name="hyphen.numr" horiz-adv-x="276" 
d="M78 555h193l-4 -42h-193z" />
    <glyph glyph-name="period.numr" horiz-adv-x="156" 
d="M67 434h67l-9 -78h-67z" />
    <glyph glyph-name="zero.numr" 
d="M173 348q-66 0 -94.5 29t-28.5 101q0 14 1 28.5t3 31.5q5 46 15 80.5t28.5 57t46.5 33.5t68 11q69 0 97 -31.5t28 -97.5q0 -13 -1 -27t-3 -30q-6 -51 -17.5 -86.5t-30.5 -57.5t-46.5 -32t-65.5 -10zM176 400q21 0 35 5.5t24 20.5t16.5 41.5t11.5 68.5q2 17 3 31t1 25
q0 42 -14 55.5t-45 13.5q-20 0 -33.5 -5.5t-23.5 -19.5t-16.5 -38.5t-10.5 -61.5q-6 -44 -6 -70q0 -39 13.5 -52.5t44.5 -13.5z" />
    <glyph glyph-name="one.numr" 
d="M200 645l-94 -30l7 59l113 38h52l-43 -356h-70z" />
    <glyph glyph-name="two.numr" 
d="M50 395q5 45 32.5 72.5t66.5 46.5l46 23q13 6 25.5 13t22.5 16t16 21.5t6 29.5q0 24 -14 34t-40 10q-35 0 -52 -15t-26 -56h-66q12 63 45.5 96.5t101.5 33.5q63 0 92.5 -26t29.5 -74q0 -45 -28.5 -76.5t-71.5 -51.5l-50 -25q-34 -17 -48 -28t-18 -31h185l-6 -52h-253z
" />
    <glyph glyph-name="three.numr" 
d="M113 472q-2 -42 12.5 -57t50.5 -15q30 0 51 13.5t21 49.5q0 21 -12.5 31.5t-44.5 10.5h-37l7 54h37q28 0 47 14.5t19 45.5q0 42 -58 42q-30 0 -49.5 -14t-26.5 -56h-66q11 63 45 96t101 33q63 0 93 -26.5t30 -68.5q0 -32 -13.5 -52.5t-41.5 -35.5q19 -8 30 -26t11 -45
q0 -60 -40 -89t-106 -29q-69 0 -99.5 28.5t-26.5 95.5h66z" />
    <glyph glyph-name="four.numr" 
d="M40 477l179 235h87l-28 -225h50l-6 -54h-50l-9 -77h-67l9 77h-170zM211 487l19 156l-121 -156h102z" />
    <glyph glyph-name="five.numr" 
d="M116 464q-2 -36 12.5 -49.5t50.5 -13.5q37 0 53.5 17t21.5 54q1 5 1 9v8q0 26 -13.5 38.5t-45.5 12.5q-33 0 -49.5 -11.5t-26.5 -34.5h-60l4 24l43 194h227l-6 -59h-175l-19 -81q15 10 32.5 15.5t40.5 5.5q57 0 87.5 -25t30.5 -77v-10t-1 -10q-7 -63 -44.5 -92.5
t-103.5 -29.5q-69 0 -98.5 27t-27.5 88h66z" />
    <glyph glyph-name="six.numr" 
d="M51 474q5 37 19.5 61.5t37.5 50.5l108 126h80l-117 -129q12 4 31 4q57 0 87.5 -23t30.5 -74q0 -5 -0.5 -11t-1.5 -12q-8 -66 -47 -92.5t-102 -26.5q-57 0 -92.5 23t-35.5 78q0 6 0.5 12.5t1.5 12.5zM121 468q-1 -5 -1 -9v-9q0 -26 13.5 -38t46.5 -12q37 0 54 16.5
t22 51.5q1 5 1 9v9q0 25 -14 36.5t-46 11.5q-38 0 -54.5 -15.5t-21.5 -50.5z" />
    <glyph glyph-name="seven.numr" 
d="M267 653h-193l7 59h269l-5 -44l-195 -312h-71z" />
    <glyph glyph-name="eight.numr" 
d="M45 439q0 33 15 56.5t50 37.5q-18 10 -28.5 27.5t-10.5 42.5q0 57 37 87t104 30q61 0 92.5 -26t31.5 -74q0 -28 -16.5 -51.5t-43.5 -35.5q46 -19 46 -75q0 -57 -39.5 -83.5t-108.5 -26.5q-61 0 -95 21.5t-34 69.5zM196 560q33 0 51 15.5t18 47.5q0 40 -56 40
q-33 0 -51 -15.5t-18 -47.5q0 -40 56 -40zM177 400q35 0 55 15.5t20 48.5q0 44 -62 44q-34 0 -54.5 -15t-20.5 -49q0 -44 62 -44z" />
    <glyph glyph-name="nine.numr" 
d="M207 485q-17 -5 -30 -5q-57 0 -87.5 23t-30.5 74v11t1 12q8 66 47.5 93t102.5 27q60 0 93.5 -23t33.5 -80v-10t-1 -11q-4 -34 -19.5 -61.5t-37.5 -52.5l-108 -126h-79zM189 527q38 0 54.5 16t21.5 50q1 5 1 9.5v8.5q0 26 -14 39t-46 13q-38 0 -55 -17.5t-21 -52.5
q-1 -5 -1 -9v-8q0 -25 14 -37t46 -12z" />
    <glyph glyph-name="equal.numr" 
d="M79 620h250l-4 -42h-250zM63 490h250l-4 -42h-250z" />
    <glyph glyph-name="a.numr" horiz-adv-x="328" 
d="M146 348q-45 0 -70.5 23.5t-25.5 62.5q0 34 13 56.5t34.5 36.5t49 21.5t57.5 12.5l52 9l3 25.5t1 15.5q0 26 -11 38.5t-39 12.5q-35 0 -50.5 -15t-20.5 -52h-62q8 58 38 91.5t101 33.5q31 0 52.5 -8t35 -22t19 -33t5.5 -40v-11.5t-1 -11.5l-28 -238h-66l6 43
q-13 -21 -35.5 -36t-57.5 -15zM206 513q-15 -2 -31 -6t-28.5 -11.5t-20.5 -20t-8 -31.5q0 -43 48 -43q29 0 51.5 16.5t26.5 51.5l6 51z" />
    <glyph glyph-name="b.numr" horiz-adv-x="366" 
d="M120 862h69l-24 -192q17 26 37.5 38t54.5 12q60 0 88 -31t28 -101q0 -13 -1 -27t-3 -29q-13 -98 -48.5 -141t-106.5 -43q-30 0 -53.5 12t-32.5 43l-5 -47h-65zM208 403q21 0 36 6.5t25.5 21.5t17.5 40.5t12 63.5q2 14 3 26.5t1 23.5q0 43 -15 58.5t-49 15.5
q-21 0 -36.5 -5.5t-26 -19.5t-17 -38t-10.5 -61q-2 -17 -3 -30.5t-1 -25.5q0 -43 14.5 -59.5t48.5 -16.5z" />
    <glyph glyph-name="c.numr" horiz-adv-x="332" 
d="M190 348q-67 0 -98 30.5t-31 100.5q0 25 3 57q12 97 48 140.5t113 43.5q71 0 97 -36.5t22 -106.5h-63q1 48 -12 65t-48 17q-21 0 -35.5 -5.5t-24.5 -19.5t-17 -38.5t-11 -61.5q-2 -17 -3 -31t-1 -26q0 -44 14.5 -59t46.5 -15q35 0 52.5 20t27.5 70h64q-14 -77 -47.5 -111
t-96.5 -34z" />
    <glyph glyph-name="d.numr" horiz-adv-x="365" 
d="M178 348q-60 0 -88 30t-28 99q0 13 1 28t3 30q12 98 47.5 141.5t106.5 43.5q29 0 51 -10.5t31 -35.5l24 188h68l-62 -506h-65l5 48q-32 -56 -94 -56zM194 403q21 0 36 6.5t26 21.5t18 40.5t12 63.5q3 28 3 50q0 43 -15 58.5t-49 15.5q-21 0 -36 -5.5t-25.5 -19.5
t-17.5 -38t-11 -61q-2 -17 -3 -30.5t-1 -24.5q0 -45 15 -61t48 -16z" />
    <glyph glyph-name="e.numr" horiz-adv-x="337" 
d="M192 348q-67 0 -99 31t-32 103q0 12 1 25t3 27q13 100 49.5 143t111.5 43q66 0 94 -31t28 -96q0 -12 -1 -25.5t-3 -27.5l-2 -14h-211q-3 -30 -3 -50q0 -46 16 -60t50 -14q35 0 52 13t26 47h60q-12 -54 -43 -84t-97 -30zM222 660q-33 0 -53 -17t-31 -69h145q1 5 1 10v10
q0 39 -15 52.5t-47 13.5z" />
    <glyph glyph-name="f.numr" horiz-adv-x="231" 
d="M113 654h-44l7 58h44l5 35q8 57 38.5 86t87.5 29h52l-8 -61h-43q-53 0 -60 -55l-4 -34h88l-6 -58h-89l-36 -298h-68z" />
    <glyph glyph-name="g.numr" horiz-adv-x="365" 
d="M118 322q-2 -35 10.5 -50t51.5 -15q37 0 56 15t24 60l9 70q-17 -27 -38.5 -39t-52.5 -12q-60 0 -88 29.5t-28 98.5q0 14 1 28.5t3 28.5q13 98 48 141t106 43q31 0 54 -12.5t32 -41.5l5 45h64l-46 -377q-8 -69 -42.5 -100t-106.5 -31q-39 0 -64 8t-39 23.5t-19 37.5t-4 50
h64zM194 406q21 0 36 6t26 21t18 40t12 63q3 30 3 50q0 42 -15 57.5t-49 15.5q-21 0 -36 -5.5t-25.5 -19.5t-17.5 -38t-11 -60q-2 -16 -3 -29.5t-1 -24.5q0 -43 15 -59.5t48 -16.5z" />
    <glyph glyph-name="h.numr" horiz-adv-x="355" 
d="M120 862h69l-23 -187q14 23 34.5 34t52.5 11q53 0 78 -26t25 -73q0 -6 -0.5 -12t-1.5 -12l-29 -241h-68l27 221q1 8 1.5 14t0.5 12q0 31 -13 43t-43 12q-35 0 -53 -17t-23 -64l-27 -221h-69z" />
    <glyph glyph-name="i.numr" horiz-adv-x="160" 
d="M121 862h69l-9 -73h-69zM102 712h69l-43 -356h-69z" />
    <glyph glyph-name="j.numr" horiz-adv-x="159" 
d="M120 862h69l-9 -73h-69zM101 712h69l-49 -398q-6 -52 -32.5 -79t-80.5 -27h-33l7 55h19q23 0 35.5 10t15.5 35z" />
    <glyph glyph-name="k.numr" horiz-adv-x="335" 
d="M120 862h69l-39 -312l155 162h79l-143 -147l100 -209h-73l-76 160l-53 -54l-12 -106h-69z" />
    <glyph glyph-name="l.numr" horiz-adv-x="160" 
d="M120 862h69l-62 -506h-69z" />
    <glyph glyph-name="m.numr" horiz-adv-x="554" 
d="M101 712h66l-5 -43q14 26 35 38.5t56 12.5q39 0 64.5 -15t33.5 -44q14 28 38 43.5t62 15.5q54 0 79 -26t25 -73q0 -6 -0.5 -12t-1.5 -12l-29 -241h-68l27 221q1 8 1.5 14t0.5 12q0 31 -13 43t-43 12q-35 0 -53 -17t-24 -64l-27 -221h-68l27 221q1 8 1.5 14t0.5 12
q0 31 -13 43t-43 12q-35 0 -53 -17t-23 -64l-27 -221h-69z" />
    <glyph glyph-name="n.numr" horiz-adv-x="355" 
d="M101 712h66l-6 -43q14 25 35.5 38t56.5 13q53 0 78 -26t25 -74q0 -7 -0.5 -13.5t-1.5 -13.5l-29 -237h-69l27 220q1 8 1.5 14.5t0.5 12.5q0 30 -13 42.5t-42 12.5q-35 0 -53 -18t-23 -64l-27 -220h-69z" />
    <glyph glyph-name="o.numr" horiz-adv-x="350" 
d="M191 348q-69 0 -99 31.5t-30 101.5q0 25 3 55q6 49 17 84t30 57t47 32.5t68 10.5q69 0 99.5 -31.5t30.5 -100.5q0 -26 -3 -54q-6 -49 -17 -84t-30 -57.5t-47.5 -33.5t-68.5 -11zM193 403q21 0 36.5 6.5t26 21.5t17.5 40.5t12 63.5q2 14 3 26.5t1 23.5q0 43 -15 58.5
t-50 15.5q-21 0 -36 -5.5t-25.5 -19.5t-17.5 -38t-11 -61q-2 -17 -3 -30.5t-1 -24.5q0 -45 15 -61t48 -16z" />
    </font>
</defs>
</svg>
