<?xml version="1.0" standalone="no"?>
<!DOCTYPE svg PUBLIC "-//W3C//DTD SVG 1.1//EN" "http://www.w3.org/Graphics/SVG/1.1/DTD/svg11.dtd" >
<svg xmlns="http://www.w3.org/2000/svg" xmlns:xlink="http://www.w3.org/1999/xlink" version="1.1">
<metadata>
Created by Christoph Koeberlin (http://christoph.koe.berlin)
PORSCHE NEXT: Copyright (c) 2017-2023 Dr. Ing. h.c. F. Porsche AG. All rights reserved. PORSCHE NEXT is a design by TYPE TAILORS BVBA for Dr. Ing. h.c. F. Porsche AG. Type Directors: Hendrik Weber, Fred Smeijers, Corina Cotorobai. Lead font development: Thomas Thiemich. Produced by TYPE TAILORS BVBA.
</metadata>
<defs>
<font id="Font" horiz-adv-x="323" >
  <font-face 
    font-family="Font"
    font-weight="600"
    font-style="italic"
    font-stretch="normal"
    units-per-em="1000"
    panose-1="2 11 7 4 2 1 1 1 1 2"
    ascent="800"
    descent="-200"
    x-height="504"
    cap-height="712"
    bbox="-343 -312 1052 1051"
    underline-thickness="56"
    underline-position="-140"
    slope="-8"
    unicode-range="U+000D-FEFF"
  />
<missing-glyph horiz-adv-x="728" 
d="M716 0h-704v712h704v-712zM314 362l-124 -128l52 -52l124 128l124 -128l52 52l-124 128l124 129l-52 51l-124 -127l-124 127l-52 -51z" />
    <glyph glyph-name="f_b.liga" unicode="fb" horiz-adv-x="793" 
d="M306 0l75 613h-65q-42 0 -62 -17.5t-26 -62.5l-3 -29h80l-12 -95h-80l-50 -409h-113l49 409h-60l12 95h59l4 33q12 90 57.5 132.5t135.5 42.5h200l-32 -260q39 60 121 60q84 0 124.5 -44t40.5 -143q0 -37 -4 -77q-9 -95 -34.5 -151t-69 -80.5t-110.5 -24.5q-47 0 -78 18
t-43 60l-8 -70h-108zM641 252q6 60 6 73q0 51 -18.5 69.5t-62.5 18.5q-38 0 -59.5 -13t-34 -47t-21.5 -101q-6 -49 -6 -81q0 -52 18 -71t61 -19q38 0 60 14t35 50.5t22 106.5z" />
    <glyph glyph-name="f_f.liga" unicode="ff" horiz-adv-x="597" 
d="M39 409l12 95h60l5 45q11 83 53.5 123t124.5 40h70l-11 -99h-49q-34 0 -51.5 -15.5t-22.5 -52.5l-6 -41h156l5 45q10 83 52.5 123t124.5 40h84l-12 -99h-62q-34 0 -51.5 -15.5t-22.5 -52.5l-5 -41h121l-13 -95h-120l-49 -409h-114l49 409h-154l-50 -409h-113l49 409h-60z
" />
    <glyph glyph-name="f_f_b.liga" unicode="ffb" horiz-adv-x="1061" 
d="M743 452q39 60 122 60q84 0 124 -44t40 -143q0 -37 -4 -77q-12 -96 -37 -151.5t-67.5 -80t-108.5 -24.5q-101 0 -123 78l-7 -70h-108l76 613h-66q-42 0 -62 -17t-26 -62l-3 -30h80l-12 -95h-80l-49 -409h-114l50 409h-155l-50 -409h-113l49 409h-60l12 95h59l6 45
q11 82 55.5 122.5t126.5 40.5h66l-11 -99h-49q-34 0 -51.5 -15.5t-22.5 -52.5l-6 -41h155l4 33q11 90 58.5 132.5t137.5 42.5h197zM910 252q2 22 2 31q3 24 3 42q0 51 -18.5 69.5t-62.5 18.5q-38 0 -59 -13t-34 -47t-21 -101q-7 -58 -7 -81q0 -52 18 -71t61 -19q38 0 60 14
t35.5 50.5t22.5 106.5z" />
    <glyph glyph-name="f_f_h.liga" unicode="ffh" horiz-adv-x="1048" 
d="M744 457q18 28 46.5 41.5t71.5 13.5q146 0 146 -142q0 -19 -3 -42l-39 -328h-115l37 305q2 14 2 37q0 39 -15.5 54.5t-53.5 15.5q-46 0 -67 -23t-29 -84l-36 -305h-115l76 613h-66q-42 0 -62.5 -17.5t-25.5 -61.5l-3 -30h80l-12 -95h-80l-49 -409h-114l50 409h-155
l-50 -409h-113l49 409h-60l12 95h59l6 45q11 82 55.5 122.5t126.5 40.5h66l-11 -99h-49q-34 0 -51.5 -15.5t-22.5 -52.5l-6 -41h155l4 33q11 90 58.5 132.5t137.5 42.5h197z" />
    <glyph glyph-name="f_f_i.liga" unicode="ffi" horiz-adv-x="777" 
d="M50 0l49 409h-60l12 95h59l6 45q11 83 54 123t124 40h70l-11 -99h-49q-34 0 -51.5 -15.5t-22.5 -52.5l-6 -41h155l6 45q11 84 53.5 123.5t123.5 39.5h48l-12 -99h-26q-34 0 -51.5 -15.5t-22.5 -52.5l-5 -41h258l-62 -504h-115l51 409h-144l-49 -409h-114l50 409h-155
l-50 -409h-113zM762 601h-113l14 111h113z" />
    <glyph glyph-name="f_f_j.liga" unicode="ffj" horiz-adv-x="777" 
d="M50 0l49 409h-60l12 95h59l6 45q11 83 54 123t124 40h70l-11 -99h-49q-34 0 -51.5 -15.5t-22.5 -52.5l-6 -41h155l6 45q11 84 53.5 123.5t123.5 39.5h48l-12 -99h-26q-34 0 -51.5 -15.5t-22.5 -52.5l-5 -41h258l-67 -545q-11 -86 -52.5 -126.5t-125.5 -40.5h-53l11 89h31
q34 0 50.5 15t21.5 50l58 463h-144l-49 -409h-114l50 409h-155l-50 -409h-113zM762 601h-113l14 111h113z" />
    <glyph glyph-name="f_f_k.liga" unicode="ffk" horiz-adv-x="1022" 
d="M776 712l-53 -427l203 219h126l-196 -209l134 -295h-123l-95 212l-66 -71l-17 -141h-115l76 613h-66q-42 0 -62.5 -17.5t-25.5 -61.5l-3 -30h80l-12 -95h-80l-49 -409h-114l50 409h-155l-50 -409h-113l49 409h-60l12 95h59l6 45q11 82 55.5 122.5t126.5 40.5h66l-11 -99
h-49q-34 0 -51.5 -15.5t-22.5 -52.5l-6 -41h155l4 33q11 90 58.5 132.5t137.5 42.5h197z" />
    <glyph glyph-name="f_f_l.liga" unicode="ffl" horiz-adv-x="776" 
d="M50 0l49 409h-60l12 95h59l6 45q11 83 54 123t124 40h70l-11 -99h-49q-34 0 -51.5 -15.5t-22.5 -52.5l-6 -41h155l4 33q11 90 57 132.5t135 42.5h201l-87 -712h-115l76 613h-66q-42 0 -62.5 -17.5t-25.5 -61.5l-3 -30h80l-12 -95h-80l-49 -409h-114l50 409h-155l-50 -409
h-113z" />
    <glyph glyph-name="f_f_t.liga" unicode="fft" horiz-adv-x="866" 
d="M50 0l49 409h-60l12 95h59l6 45q11 83 54 123t124 40h70l-11 -99h-49q-34 0 -51.5 -15.5t-22.5 -52.5l-6 -41h155l6 45q11 84 53.5 123.5t123.5 39.5h48l-12 -99h-26q-34 0 -51.5 -15.5t-22.5 -52.5l-5 -41h146l15 120h111l-15 -120h131l-13 -95h-130l-30 -245
q-1 -8 -1 -22q0 -30 15 -41.5t50 -11.5h56l-11 -89h-69q-79 0 -117.5 31t-38.5 99q0 17 3 38l29 241h-143l-49 -409h-114l50 409h-155l-50 -409h-113z" />
    <glyph glyph-name="f_h.liga" unicode="fh" horiz-adv-x="781" 
d="M306 0l75 613h-65q-42 0 -62 -17.5t-26 -62.5l-3 -29h80l-12 -95h-80l-50 -409h-113l49 409h-60l12 95h59l4 33q12 90 57.5 132.5t135.5 42.5h201l-32 -255q37 55 118 55q146 0 146 -142q0 -19 -3 -42l-40 -328h-114l37 305q3 21 3 38q0 38 -16 53.5t-53 15.5
q-46 0 -67.5 -23t-28.5 -84l-37 -305h-115z" />
    <glyph glyph-name="f_i.liga" unicode="fi" horiz-adv-x="508" 
d="M306 0l50 409h-143l-50 -409h-113l49 409h-60l12 95h60l5 45q11 83 53.5 123t124.5 40h48l-12 -99h-26q-34 0 -51.5 -15.5t-22.5 -52.5l-6 -41h258l-62 -504h-114zM493 601h-112l14 111h112z" />
    <glyph glyph-name="f_j.liga" unicode="fj" horiz-adv-x="508" 
d="M356 409h-143l-50 -409h-113l49 409h-60l12 95h60l5 45q11 83 53.5 123t124.5 40h48l-12 -99h-26q-34 0 -51.5 -15.5t-22.5 -52.5l-6 -41h258l-67 -545q-11 -86 -52.5 -126.5t-125.5 -40.5h-52l11 89h31q33 0 50 15t22 50zM493 601h-112l14 111h112z" />
    <glyph glyph-name="f_k.liga" unicode="fk" horiz-adv-x="754" 
d="M306 0l75 613h-65q-42 0 -62 -17.5t-26 -62.5l-3 -29h80l-12 -95h-80l-50 -409h-113l49 409h-60l12 95h59l4 33q12 90 57.5 132.5t135.5 42.5h200l-53 -427l204 219h126l-196 -209l134 -295h-124l-93 212l-68 -72l-17 -140h-114z" />
    <glyph glyph-name="f_l.liga" unicode="fl" horiz-adv-x="508" 
d="M39 409l12 95h59l4 33q12 90 57.5 132.5t135.5 42.5h200l-87 -712h-114l75 613h-65q-42 0 -62 -17.5t-26 -62.5l-3 -29h80l-12 -95h-80l-50 -409h-113l49 409h-60z" />
    <glyph glyph-name="f_t.liga" unicode="ft" horiz-adv-x="597" 
d="M356 409h-143l-50 -409h-113l49 409h-60l12 95h60l5 45q11 83 53.5 123t124.5 40h48l-12 -99h-26q-34 0 -51.5 -15.5t-22.5 -52.5l-6 -41h147l15 120h110l-15 -120h131l-12 -95h-130l-30 -245q-2 -18 -2 -24q0 -29 14.5 -40t50.5 -11h57l-11 -89h-70q-79 0 -117 31.5
t-38 100.5q0 23 2 36z" />
    <glyph glyph-name=".notdef" horiz-adv-x="728" 
d="M716 0h-704v712h704v-712zM314 362l-124 -128l52 -52l124 128l124 -128l52 52l-124 128l124 129l-52 51l-124 -127l-124 127l-52 -51z" />
    <glyph glyph-name="glyph1" horiz-adv-x="0" 
 />
    <glyph glyph-name="glyph1" horiz-adv-x="0" 
 />
    <glyph glyph-name="uni000D" unicode="&#xd;" horiz-adv-x="194" 
 />
    <glyph glyph-name="space" unicode=" " horiz-adv-x="194" 
 />
    <glyph glyph-name="exclam" unicode="!" horiz-adv-x="234" 
d="M148 226h-68l36 486h115zM141 0h-109l15 123h108z" />
    <glyph glyph-name="quotedbl" unicode="&#x22;" horiz-adv-x="341" 
d="M139 479h-46l-10 146l11 87h99l-10 -87zM303 479h-47l-9 146l11 87h100l-11 -87z" />
    <glyph glyph-name="numbersign" unicode="#" horiz-adv-x="672" 
d="M215 464h-86l10 89h110l63 159h91l-63 -159h172l62 159h91l-63 -159h81l-10 -89h-105l-85 -216h85l-10 -89h-110l-62 -159h-91l63 159h-172l-62 -159h-91l62 159h-81l10 89h106zM477 464h-171l-85 -216h171z" />
    <glyph glyph-name="dollar" unicode="$" horiz-adv-x="560" 
d="M148 218q-3 -51 6.5 -80t35 -42t71.5 -13q132 0 132 121q0 38 -22.5 57.5t-75.5 32.5l-54 14q-81 21 -121.5 60.5t-40.5 115.5q0 105 53 166t155 71l12 95h104l-12 -96q85 -12 120 -57.5t35 -131.5q0 -13 -2 -43h-114q3 51 -7 79t-33.5 39t-67.5 11q-57 0 -89.5 -28
t-32.5 -88q0 -38 23.5 -56.5t77.5 -32.5l54 -15q80 -21 119.5 -62.5t39.5 -113.5q0 -105 -54.5 -163t-159.5 -67l-11 -95h-104l11 95q-86 10 -125.5 55.5t-39.5 133.5q0 12 2 38h115z" />
    <glyph glyph-name="percent" unicode="%" horiz-adv-x="728" 
d="M57 478q0 28 4 59q8 67 24 106t48.5 58t88.5 19q70 0 100 -30.5t30 -97.5q0 -36 -4 -57q-8 -69 -25.5 -109.5t-50 -59t-86.5 -18.5q-69 0 -99 30t-30 100zM259 536q5 43 5 58q0 30 -10.5 40.5t-35.5 10.5q-23 0 -35 -8t-19 -31t-13 -70q-6 -45 -6 -70q0 -30 10 -40.5
t35 -10.5q23 0 35.5 9t20 34t13.5 78zM148 0h-81l542 712h81zM401 122q0 28 4 59q8 67 24 106t48.5 58t88.5 19q70 0 100 -30.5t30 -97.5q0 -36 -4 -57q-8 -69 -25.5 -109.5t-50 -59t-86.5 -18.5q-69 0 -99 30t-30 100zM603 180q5 43 5 58q0 30 -10.5 40.5t-35.5 10.5
q-23 0 -35 -8t-19 -31t-13 -70q-6 -45 -6 -70q0 -30 10 -40.5t35 -10.5q23 0 35.5 9t20 34t13.5 78z" />
    <glyph glyph-name="ampersand" unicode="&#x26;" horiz-adv-x="626" 
d="M173 385q-32 45 -46 75t-14 67q0 97 55.5 147t159.5 50q103 0 147 -41.5t44 -131.5q0 -32 -4 -63h-107q2 32 2 43q0 51 -19 70t-67 19q-93 0 -93 -83q0 -27 13 -49t46 -68l140 -188l17 137h100l-13 -109q-9 -74 -33 -125l100 -135h-136l-35 46q-71 -58 -182 -58
q-223 0 -223 164q0 13 2 35q8 64 41 107t105 91zM376 117l-149 198q-44 -34 -61 -58.5t-22 -64.5q-2 -20 -2 -26q0 -44 26.5 -64.5t85.5 -20.5q83 0 122 36z" />
    <glyph glyph-name="quotesingle" unicode="'" horiz-adv-x="177" 
d="M139 479h-46l-10 146l11 87h99l-10 -87z" />
    <glyph glyph-name="parenleft" unicode="(" horiz-adv-x="320" 
d="M353 772l-11 -87h-17q-48 0 -73 -24t-44.5 -101.5t-40.5 -247.5q-20 -171 -20 -243q0 -56 9 -83.5t27 -37t50 -9.5h18l-11 -87h-25q-61 0 -96 16.5t-53.5 64.5t-18.5 140q0 96 19 245q24 201 56.5 298t78.5 126.5t127 29.5h25z" />
    <glyph glyph-name="parenright" unicode=")" horiz-adv-x="320" 
d="M-20 -148l11 87h17q47 0 72.5 24t45 101.5t40.5 247.5q20 171 20 243q0 55 -9.5 83t-27.5 37.5t-50 9.5h-17l11 87h25q61 0 96 -16.5t53.5 -64.5t18.5 -140q0 -96 -19 -245q-25 -202 -57 -298.5t-78 -126t-127 -29.5h-25z" />
    <glyph glyph-name="asterisk" unicode="*" horiz-adv-x="400" 
d="M119 539l-57 20l33 71l58 -19l58 -30v69l6 62h77l-8 -62l-18 -69l65 30l63 19l15 -72l-63 -19l-69 -13l41 -50l31 -51l-66 -44l-31 51l-26 61l-40 -61l-42 -52l-56 47l43 50l53 49z" />
    <glyph glyph-name="plus" unicode="+" horiz-adv-x="560" 
d="M235 246h-180l11 88h180l23 186h88l-23 -186h180l-11 -88h-180l-22 -186h-88z" />
    <glyph glyph-name="comma" unicode="," horiz-adv-x="213" 
d="M8 -128l30 251h108l-11 -88l-71 -163h-56z" />
    <glyph glyph-name="hyphen" unicode="-" horiz-adv-x="396" 
d="M344 247h-292l10 88h292z" />
    <glyph glyph-name="period" unicode="." horiz-adv-x="213" 
d="M130 0h-107l14 123h108z" />
    <glyph glyph-name="slash" unicode="/" horiz-adv-x="477" 
d="M103 0h-94l392 712h95z" />
    <glyph glyph-name="zero" unicode="0" horiz-adv-x="560" 
d="M41 226q0 64 10 138q17 138 46 214t83.5 111t149.5 35q116 0 166 -54t50 -179q0 -71 -10 -134q-19 -146 -49.5 -224.5t-83.5 -111.5t-146 -33q-77 0 -124 22.5t-69.5 74.5t-22.5 141zM414 361q11 90 11 135q0 69 -23 95t-77 26q-49 0 -77 -21t-45 -75t-30 -160
q-13 -112 -13 -159t10 -73t31 -36t58 -10q53 0 80.5 22t43.5 79.5t31 176.5z" />
    <glyph glyph-name="one" unicode="1" horiz-adv-x="560" 
d="M375 0h-117l72 592l-198 -70l14 107l224 83h92z" />
    <glyph glyph-name="two" unicode="2" horiz-adv-x="560" 
d="M39 74q9 75 50 129.5t117 99.5l86 51q64 38 98.5 77t34.5 101q0 45 -25.5 65t-76.5 20q-41 0 -66.5 -11.5t-41 -39.5t-24.5 -78h-114q13 79 40 130.5t78.5 78.5t135.5 27q108 0 160.5 -47t52.5 -133q0 -84 -43 -147.5t-127 -113.5l-86 -51q-65 -40 -93 -66.5t-36 -64.5
l-1 -6h324l-11 -95h-440z" />
    <glyph glyph-name="three" unicode="3" horiz-adv-x="560" 
d="M147 218q-1 -9 -1 -25q0 -61 25 -85.5t88 -24.5q70 0 103 32.5t33 102.5q0 45 -26.5 66.5t-85.5 21.5h-65l13 102h62q128 0 128 125q0 45 -25.5 64.5t-77.5 19.5q-61 0 -91 -27.5t-44 -101.5h-113q20 119 77 177.5t178 58.5q109 0 162 -46t53 -130q0 -63 -28 -111
t-86 -72q43 -17 65 -51t22 -89q0 -237 -260 -237q-116 0 -168.5 45.5t-52.5 148.5q0 23 1 36h114z" />
    <glyph glyph-name="four" unicode="4" horiz-adv-x="560" 
d="M318 150h-305l10 89l314 473h162l-57 -465h88l-12 -97h-88l-18 -150h-112zM374 610l-236 -363h192z" />
    <glyph glyph-name="five" unicode="5" horiz-adv-x="560" 
d="M60 281l5 38l78 393h398l-13 -107h-306l-39 -192q48 46 129 46q205 0 205 -189q0 -21 -3 -48q-16 -124 -76.5 -179t-181.5 -55q-118 0 -172 52.5t-47 151.5h114q-4 -59 20.5 -84t85.5 -25q47 0 75 13.5t42.5 44t21.5 83.5q3 21 3 39q0 52 -25 74.5t-83 22.5
q-54 0 -81.5 -19t-43.5 -60h-106z" />
    <glyph glyph-name="six" unicode="6" horiz-adv-x="560" 
d="M140 458l192 254h130l-202 -261q27 8 51 8q100 0 154.5 -47t54.5 -144q0 -21 -3 -47q-15 -127 -75.5 -180t-180.5 -53q-110 0 -167 45.5t-57 146.5q0 28 2 45q9 71 31.5 120.5t69.5 112.5zM153 177q0 -51 24.5 -72.5t83.5 -21.5q69 0 99.5 31t39.5 109q2 16 2 39
q0 53 -24.5 75.5t-82.5 22.5q-67 0 -97.5 -31t-40.5 -106q-4 -24 -4 -46z" />
    <glyph glyph-name="seven" unicode="7" horiz-adv-x="560" 
d="M425 605h-335l13 107h464l-12 -92l-348 -620h-129z" />
    <glyph glyph-name="eight" unicode="8" horiz-adv-x="560" 
d="M148 364q-65 39 -65 128q0 111 61.5 171.5t184.5 60.5q108 0 159.5 -46t51.5 -126q0 -63 -25 -113.5t-81 -77.5q40 -19 59.5 -51t19.5 -81q0 -121 -62.5 -181t-196.5 -60q-113 0 -168.5 42.5t-55.5 130.5q0 71 28 126.5t90 76.5zM422 537q0 42 -23.5 61t-75.5 19
q-66 0 -95 -33t-29 -100q0 -41 22.5 -61t75.5 -20q66 0 95.5 33.5t29.5 100.5zM148 169q0 -45 25 -65.5t84 -20.5q72 0 105 34t33 106q0 43 -25.5 62.5t-84.5 19.5q-71 0 -104 -32.5t-33 -103.5z" />
    <glyph glyph-name="nine" unicode="9" horiz-adv-x="560" 
d="M67 442q0 25 3 50q15 127 77.5 179.5t181.5 52.5q107 0 162.5 -43t55.5 -141q0 -23 -3 -52q-10 -72 -32 -120t-69 -112l-189 -256h-126l191 254q-24 -7 -48 -7q-99 0 -151.5 48.5t-52.5 146.5zM425 483q4 30 4 41q0 49 -24.5 71t-81.5 22q-68 0 -98 -30.5t-38 -103.5
q-3 -22 -3 -41q0 -51 24.5 -74.5t80.5 -23.5q66 0 95.5 31.5t40.5 107.5z" />
    <glyph glyph-name="colon" unicode=":" horiz-adv-x="213" 
d="M172 349h-107l15 123h108zM130 0h-108l14 123h109z" />
    <glyph glyph-name="semicolon" unicode=";" horiz-adv-x="213" 
d="M172 349h-107l15 123h108zM7 -128l29 251h109l-11 -88l-71 -163h-56z" />
    <glyph glyph-name="less" unicode="&#x3c;" horiz-adv-x="560" 
d="M471 69l-426 177l10 88l471 177l-12 -95l-354 -129l323 -129z" />
    <glyph glyph-name="equal" unicode="=" horiz-adv-x="560" 
d="M516 354h-448l12 89h448zM490 137h-448l11 89h448z" />
    <glyph glyph-name="greater" unicode="&#x3e;" horiz-adv-x="560" 
d="M408 293l-321 129l11 89l426 -177l-11 -88l-469 -177l11 95z" />
    <glyph glyph-name="question" unicode="?" horiz-adv-x="401" 
d="M119 266q5 41 28 70.5t65 66.5q41 36 62 64.5t21 67.5q0 38 -24.5 54.5t-77.5 16.5h-125l13 106h121q106 0 158 -42.5t52 -115.5q0 -49 -16.5 -85.5t-40 -60.5t-60.5 -53q-36 -29 -55 -50t-23 -49l-4 -30h-100zM191 0h-109l15 123h108z" />
    <glyph glyph-name="at" unicode="@" horiz-adv-x="863" 
d="M430 520q86 0 111 -66l7 58h101l-38 -312q-2 -18 -2 -24q0 -24 8 -36t27 -12q23 0 37.5 13t26 54t20.5 124q7 55 7 101q0 83 -26.5 127.5t-81 61t-148.5 16.5q-113 0 -176.5 -25.5t-101 -96.5t-54.5 -212q-9 -64 -9 -116q0 -91 29 -140.5t90 -70t167 -20.5h53l-11 -89
h-42q-141 0 -226 33t-123.5 103t-38.5 185q0 59 8 120q22 170 70.5 262t135 129t230.5 37q124 0 202 -28.5t116.5 -94t38.5 -177.5q0 -46 -8 -110q-12 -107 -37 -165.5t-60.5 -79.5t-86.5 -21q-112 0 -133 80q-17 -43 -47.5 -61.5t-75.5 -18.5q-78 0 -117 39.5t-39 128.5
q0 37 5 71q11 88 33.5 138.5t60.5 72.5t98 22zM339 212q0 -48 16.5 -66t54.5 -18q32 0 51.5 13t32 46.5t20.5 96.5q4 33 4 64q0 47 -16.5 64.5t-54.5 17.5q-33 0 -52 -12t-30.5 -43t-18.5 -91q-7 -51 -7 -72z" />
    <glyph glyph-name="A" unicode="A" horiz-adv-x="578" 
d="M90 0h-114l298 712h142l125 -712h-117l-25 148h-249zM384 247l-55 336l-139 -336h194z" />
    <glyph glyph-name="B" unicode="B" horiz-adv-x="580" 
d="M38 0l87 712h242q95 0 143 -42.5t48 -121.5q0 -12 -2 -30q-13 -121 -96 -150q41 -20 61.5 -57t20.5 -86q0 -7 -2 -25q-10 -104 -61 -152t-153 -48h-288zM230 605l-24 -195h129q50 0 72 22.5t29 76.5q1 9 1 27q0 36 -18.5 52.5t-61.5 16.5h-127zM194 311l-27 -216h146
q46 0 72.5 25t33.5 84q2 20 2 29q0 43 -20 60.5t-61 17.5h-146z" />
    <glyph glyph-name="C" unicode="C" horiz-adv-x="587" 
d="M44 230q0 61 10 132q18 146 49 222t90 108t164 32q86 0 135 -22.5t69.5 -68t20.5 -120.5q0 -31 -3 -67h-114q2 36 2 49q0 48 -10 74t-34 37t-68 11q-63 0 -96 -20.5t-50.5 -73t-31.5 -163.5q-13 -92 -13 -149q0 -53 12.5 -80.5t39 -37.5t74.5 -10q51 0 79.5 16t44.5 53
t29 107h113q-17 -101 -45.5 -159t-80.5 -85t-141 -27q-91 0 -144 23.5t-77 75.5t-24 143z" />
    <glyph glyph-name="D" unicode="D" horiz-adv-x="618" 
d="M38 0l87 712h227q89 0 142 -22.5t78.5 -75t25.5 -141.5q0 -56 -7 -116q-17 -140 -47 -215t-89.5 -108.5t-166.5 -33.5h-250zM230 605l-63 -510h121q64 0 96.5 19.5t51 74t33.5 171.5q9 75 9 119q0 50 -12 77t-39 38t-76 11h-121z" />
    <glyph glyph-name="E" unicode="E" horiz-adv-x="516" 
d="M446 0h-408l87 712h408l-13 -107h-290l-24 -195h266l-13 -100h-265l-27 -215h290z" />
    <glyph glyph-name="F" unicode="F" horiz-adv-x="497" 
d="M156 0h-118l87 712h399l-13 -107h-281l-24 -195h257l-12 -100h-257z" />
    <glyph glyph-name="G" unicode="G" horiz-adv-x="601" 
d="M314 284l13 100h253l-14 -113q-12 -101 -41 -162.5t-85.5 -91t-149.5 -29.5q-89 0 -142.5 23.5t-78.5 76t-25 141.5q0 60 10 131q18 146 49.5 222.5t90.5 109t164 32.5q92 0 143.5 -26t70.5 -77t15 -133h-113q4 72 -23 100.5t-96 28.5q-63 0 -96 -20.5t-50.5 -73
t-31.5 -163.5q-13 -92 -13 -149q0 -53 12.5 -80.5t39 -37.5t74.5 -10q54 0 85.5 15.5t48.5 54t26 109.5l2 22h-138z" />
    <glyph glyph-name="H" unicode="H" horiz-adv-x="633" 
d="M156 0h-118l87 712h118l-37 -302h259l38 302h118l-87 -712h-118l37 310h-259z" />
    <glyph glyph-name="I" unicode="I" horiz-adv-x="256" 
d="M156 0h-118l87 712h118z" />
    <glyph glyph-name="J" unicode="J" horiz-adv-x="396" 
d="M84 95q57 0 87 24t37 79l62 514h118l-62 -504q-13 -107 -66 -157.5t-170 -50.5h-104l11 95h87z" />
    <glyph glyph-name="K" unicode="K" horiz-adv-x="582" 
d="M156 0h-118l87 712h118l-42 -347l300 347h135l-270 -307l184 -405h-127l-143 318l-99 -114z" />
    <glyph glyph-name="L" unicode="L" horiz-adv-x="481" 
d="M438 0h-400l87 712h118l-76 -617h283z" />
    <glyph glyph-name="M" unicode="M" horiz-adv-x="778" 
d="M212 491l-79 -491h-110l118 712h134l108 -508l228 508h136l-53 -712h-112l37 488l-221 -488h-80z" />
    <glyph glyph-name="N" unicode="N" horiz-adv-x="633" 
d="M150 0h-112l87 712h117l205 -500l62 500h112l-87 -712h-117l-206 500z" />
    <glyph glyph-name="O" unicode="O" horiz-adv-x="621" 
d="M44 231q0 61 10 132q18 145 49.5 221.5t90.5 108t164 31.5q88 0 141 -23t78.5 -75.5t25.5 -143.5q0 -55 -9 -127q-18 -145 -48.5 -222.5t-89.5 -111t-167 -33.5q-89 0 -142 23.5t-78 76.5t-25 143zM472 360q10 90 10 129q0 51 -12 78.5t-39 38.5t-76 11q-64 0 -97 -20.5
t-50.5 -73.5t-31.5 -163q-12 -96 -12 -149t12.5 -80.5t39 -37.5t74.5 -10q65 0 97.5 20t50.5 77t34 180z" />
    <glyph glyph-name="P" unicode="P" horiz-adv-x="554" 
d="M38 0l87 712h237q101 0 148 -41.5t47 -136.5q0 -32 -2 -51q-9 -87 -35 -135.5t-72 -68t-121 -19.5h-139l-32 -260h-118zM229 605l-29 -246h117q42 0 64 9.5t34 36t19 79.5q3 26 3 43q0 45 -20.5 61.5t-69.5 16.5h-118z" />
    <glyph glyph-name="Q" unicode="Q" horiz-adv-x="621" 
d="M44 231q0 61 10 132q18 145 49.5 221.5t90.5 108t164 31.5q88 0 141 -23t78.5 -75.5t25.5 -142.5q0 -54 -9 -128q-11 -86 -27 -144t-42 -100l87 -111h-120l-32 40q-34 -27 -73.5 -39.5t-97.5 -12.5q-89 0 -142 23.5t-78 76.5t-25 143zM316 222l16 135l114 -145
q10 38 26 148q10 77 10 129q0 51 -12.5 78.5t-39.5 38.5t-75 11q-63 0 -96 -20.5t-50.5 -73t-31.5 -163.5q-13 -92 -13 -149q0 -53 12.5 -80.5t39 -37.5t74.5 -10q41 0 66.5 6.5t44.5 24.5z" />
    <glyph glyph-name="R" unicode="R" horiz-adv-x="568" 
d="M38 0l87 712h234q102 0 150.5 -40.5t48.5 -136.5q0 -23 -3 -52q-10 -102 -46.5 -148.5t-106.5 -57.5l115 -277h-126l-103 260h-100l-32 -260h-118zM229 605l-29 -246h115q41 0 63.5 9t36 35.5t19.5 80.5q3 26 3 43q0 46 -21.5 62t-72.5 16h-114z" />
    <glyph glyph-name="S" unicode="S" horiz-adv-x="545" 
d="M144 218q-1 -9 -1 -25q0 -61 25 -85.5t88 -24.5q128 0 128 121q0 38 -22.5 57t-76.5 33l-54 14q-81 22 -121 61t-40 115q0 115 62 177.5t184 62.5q120 0 169 -47t49 -149q0 -26 -1 -40h-114q3 51 -7 79t-33.5 39t-67.5 11q-57 0 -88.5 -28.5t-31.5 -87.5q0 -39 23 -57
t76 -32l55 -15q81 -21 120.5 -62t39.5 -113q0 -117 -64.5 -175.5t-190.5 -58.5q-118 0 -170.5 44.5t-52.5 146.5q0 11 2 39h115z" />
    <glyph glyph-name="T" unicode="T" horiz-adv-x="525" 
d="M246 605h-188l13 107h495l-13 -107h-188l-74 -605h-119z" />
    <glyph glyph-name="U" unicode="U" horiz-adv-x="625" 
d="M120 712h118l-59 -483q-3 -24 -3 -43q0 -56 27.5 -79.5t88.5 -23.5q71 0 105 32.5t44 113.5l60 483h117l-59 -481q-10 -84 -39 -137t-84.5 -79.5t-145.5 -26.5q-119 0 -175.5 47.5t-56.5 143.5q0 25 3 52z" />
    <glyph glyph-name="V" unicode="V" horiz-adv-x="580" 
d="M329 0h-141l-125 712h117l95 -583l240 583h113z" />
    <glyph glyph-name="W" unicode="W" horiz-adv-x="893" 
d="M291 0h-137l-88 712h117l62 -570l217 570h90l75 -568l201 568h113l-263 -712h-132l-67 485z" />
    <glyph glyph-name="X" unicode="X" horiz-adv-x="537" 
d="M96 0h-124l241 363l-148 349h124l105 -255l167 255h124l-235 -352l154 -360h-124l-110 266z" />
    <glyph glyph-name="Y" unicode="Y" horiz-adv-x="553" 
d="M305 0h-118l34 281l-158 431h123l111 -311l189 311h117l-266 -436z" />
    <glyph glyph-name="Z" unicode="Z" horiz-adv-x="494" 
d="M367 605h-300l13 107h448l-8 -71l-367 -546h293l-11 -95h-435l9 71z" />
    <glyph glyph-name="bracketleft" unicode="[" horiz-adv-x="316" 
d="M236 -148h-216l113 920h216l-10 -87h-120l-90 -746h118z" />
    <glyph glyph-name="backslash" unicode="\" horiz-adv-x="475" 
d="M95 712h89l223 -712h-90z" />
    <glyph glyph-name="bracketright" unicode="]" horiz-adv-x="316" 
d="M93 772h216l-113 -920h-215l10 87h118l92 746h-119z" />
    <glyph glyph-name="asciicircum" unicode="^" horiz-adv-x="560" 
d="M225 456h-93l163 256h85l101 -256h-89l-64 165z" />
    <glyph glyph-name="underscore" unicode="_" horiz-adv-x="607" 
d="M-7 -102l11 90h534l-11 -90h-534z" />
    <glyph glyph-name="grave" unicode="`" horiz-adv-x="482" 
d="M321 568h-74l-90 156h109z" />
    <glyph glyph-name="a" unicode="a" horiz-adv-x="461" 
d="M14 116q0 60 27.5 95t73 52t117.5 30l68 12l4 24q2 24 2 32q0 31 -14 44t-49 13q-44 0 -63 -16t-26 -62h-102q13 87 58 129.5t144 42.5q167 0 167 -141q0 -10 -2 -34l-41 -337h-109l6 54q-36 -62 -123 -62q-66 0 -102 32t-36 92zM284 168l7 57l-51 -8q-53 -8 -82.5 -24
t-29.5 -59q0 -58 59 -58q85 0 97 92z" />
    <glyph glyph-name="b" unicode="b" horiz-adv-x="513" 
d="M26 0l87 712h114l-32 -258q40 58 121 58q85 0 125 -43.5t40 -143.5q0 -27 -5 -77q-10 -96 -35 -151.5t-68 -80t-109 -24.5q-48 0 -79 18t-43 61l-8 -71h-108zM361 252q6 45 6 73q0 51 -19 69.5t-63 18.5q-38 0 -59 -13t-34 -47t-21 -101q-6 -49 -6 -81q0 -52 18 -71
t62 -19q37 0 59 14t35 50.5t22 106.5z" />
    <glyph glyph-name="c" unicode="c" horiz-adv-x="462" 
d="M30 175q0 32 5 79q12 96 37 152t71 81t122 25q93 0 134 -41.5t41 -128.5q0 -23 -1 -35h-107q1 43 -4.5 65.5t-21.5 31.5t-47 9q-36 0 -56.5 -13t-32.5 -47.5t-20 -103.5q-7 -61 -7 -83q0 -49 17 -67t58 -18q46 0 67.5 24.5t33.5 90.5h106q-18 -109 -66 -156.5t-141 -47.5
q-100 0 -144 42.5t-44 140.5z" />
    <glyph glyph-name="d" unicode="d" horiz-adv-x="511" 
d="M30 171q0 38 6 84q11 95 37 151t69 81t109 25q87 0 113 -63l32 263h115l-87 -712h-110l7 61q-37 -69 -126 -69q-85 0 -125 41.5t-40 137.5zM340 252q6 45 6 73q0 51 -18.5 69.5t-62.5 18.5q-38 0 -59 -13t-34 -47t-21 -101q-6 -49 -6 -81q0 -52 18 -71t61 -19
q38 0 59.5 14t34.5 50.5t22 106.5z" />
    <glyph glyph-name="e" unicode="e" horiz-adv-x="471" 
d="M30 177q0 29 5 74q12 95 38 151.5t72.5 83t120.5 26.5q94 0 135.5 -43.5t41.5 -135.5q0 -42 -5 -77l-3 -24h-289q-3 -37 -3 -63q0 -53 18.5 -71.5t62.5 -18.5q43 0 64.5 16t31.5 58h102q-17 -79 -64 -120t-138 -41q-99 0 -144.5 43t-45.5 142zM158 310h179q1 9 1 25
q0 46 -17.5 63.5t-57.5 17.5q-45 0 -68.5 -22t-36.5 -84z" />
    <glyph glyph-name="f" unicode="f" horiz-adv-x="328" 
d="M39 409l12 95h60l5 45q21 163 186 163h76l-12 -99h-62q-34 0 -51.5 -15.5t-22.5 -52.5l-6 -41h121l-12 -95h-120l-50 -409h-113l49 409h-60z" />
    <glyph glyph-name="g" unicode="g" horiz-adv-x="513" 
d="M31 178q0 31 5 79q12 94 37.5 149.5t68.5 80.5t109 25q97 0 118 -80l10 72h108l-65 -529q-13 -100 -64 -145.5t-154 -45.5q-108 0 -148.5 43t-36.5 130h108q-2 -48 13 -66t64 -18t72 20.5t30 76.5l11 87q-40 -59 -119 -59q-86 0 -126.5 42t-40.5 138zM342 255q5 47 5 70
q0 51 -18.5 69.5t-62.5 18.5q-38 0 -59 -12.5t-33.5 -46t-21.5 -99.5q-6 -48 -6 -78q0 -52 18 -71t61 -19q37 0 59.5 14t35.5 50t22 104z" />
    <glyph glyph-name="h" unicode="h" horiz-adv-x="500" 
d="M26 0l87 712h114l-31 -255q37 55 117 55q146 0 146 -142q0 -19 -3 -42l-39 -328h-115l37 305q3 23 3 39q0 38 -16 53t-53 15q-46 0 -67.5 -23t-28.5 -84l-37 -305h-114z" />
    <glyph glyph-name="i" unicode="i" horiz-adv-x="227" 
d="M213 601h-114l13 111h114zM139 0h-114l62 504h114z" />
    <glyph glyph-name="j" unicode="j" horiz-adv-x="227" 
d="M213 601h-114l13 111h114zM87 504h114l-67 -545q-11 -85 -53.5 -126t-125.5 -41h-50l11 89h30q34 0 51.5 15.5t21.5 49.5z" />
    <glyph glyph-name="k" unicode="k" horiz-adv-x="474" 
d="M140 0h-114l87 712h114l-53 -427l203 219h127l-196 -209l134 -295h-123l-95 212l-67 -73z" />
    <glyph glyph-name="l" unicode="l" horiz-adv-x="227" 
d="M140 0h-114l87 712h114z" />
    <glyph glyph-name="m" unicode="m" horiz-adv-x="776" 
d="M25 0l62 504h109l-7 -57q33 65 123 65q108 0 137 -80q17 39 52.5 59.5t87.5 20.5q146 0 146 -142q0 -19 -3 -42l-39 -328h-115l37 305q3 21 3 38q0 38 -16 53.5t-53 15.5q-47 0 -68 -23t-28 -84l-37 -305h-114l37 305q2 14 2 37q0 39 -15.5 54.5t-52.5 15.5
q-48 0 -69 -23t-28 -84l-37 -305h-114z" />
    <glyph glyph-name="n" unicode="n" horiz-adv-x="499" 
d="M25 0l62 504h109l-7 -57q34 65 123 65q147 0 147 -143q0 -20 -3 -41l-40 -328h-114l37 305q2 14 2 37q0 39 -15.5 54.5t-52.5 15.5q-47 0 -68 -23t-29 -84l-37 -305h-114z" />
    <glyph glyph-name="o" unicode="o" horiz-adv-x="492" 
d="M30 177q0 39 6 79q11 98 36.5 153t72.5 79t127 24q100 0 145 -43t45 -143q0 -24 -6 -78q-11 -97 -36.5 -152t-73 -79.5t-126.5 -24.5q-100 0 -145 43t-45 142zM340 246q6 50 6 79q0 51 -18.5 69.5t-62.5 18.5q-38 0 -59 -13t-34 -47t-21 -101q-7 -58 -7 -82
q0 -51 18.5 -70t61.5 -19q37 0 59 13.5t35 48.5t22 103z" />
    <glyph glyph-name="p" unicode="p" horiz-adv-x="512" 
d="M0 -208l87 712h109l-7 -60q19 36 51 52t76 16q84 0 124.5 -43t40.5 -140q0 -31 -5 -81q-11 -95 -36.5 -151t-68.5 -80.5t-110 -24.5q-42 0 -71.5 14t-44.5 48l-32 -262h-113zM360 252q6 45 6 73q0 51 -19 69.5t-63 18.5q-37 0 -58.5 -13t-34.5 -47t-21 -101
q-6 -49 -6 -81q0 -52 18 -71t62 -19q38 0 59.5 14t34.5 50.5t22 106.5z" />
    <glyph glyph-name="q" unicode="q" horiz-adv-x="512" 
d="M30 171q0 37 6 83q11 95 37 151.5t69 81.5t109 25q93 0 116 -73l9 65h110l-88 -712h-114l31 259q-37 -59 -120 -59q-85 0 -125 41.5t-40 137.5zM340 252q6 45 6 73q0 51 -18.5 69.5t-62.5 18.5q-38 0 -59 -13t-34 -47t-21 -101q-6 -49 -6 -81q0 -52 18 -71t61 -19
q38 0 59.5 14t34.5 50.5t22 106.5z" />
    <glyph glyph-name="r" unicode="r" horiz-adv-x="316" 
d="M64 338q10 87 51.5 126.5t127.5 39.5h90l-12 -95h-70q-34 0 -51.5 -15.5t-21.5 -49.5l-42 -344h-113z" />
    <glyph glyph-name="s" unicode="s" horiz-adv-x="436" 
d="M122 150q-3 -42 14 -58t60 -16t64 15t21 55q0 23 -14 33t-54 19l-56 12q-53 13 -81.5 43.5t-28.5 85.5q0 87 49.5 130t144.5 43q86 0 127.5 -30.5t41.5 -99.5q0 -23 -2 -36h-101q1 7 1 18q0 33 -15 44t-54 11q-42 0 -62 -14t-20 -53q0 -22 14 -33.5t52 -20.5l57 -12
q112 -25 112 -126q0 -88 -51.5 -128t-150.5 -40q-102 0 -138 41t-32 117h102z" />
    <glyph glyph-name="t" unicode="t" horiz-adv-x="336" 
d="M34 409l12 95h63l15 120h110l-15 -120h132l-12 -95h-131l-30 -245q-2 -18 -2 -24q0 -29 15 -40t51 -11h56l-10 -89h-70q-79 0 -117.5 31.5t-38.5 99.5q0 18 3 37l29 241h-60z" />
    <glyph glyph-name="u" unicode="u" horiz-adv-x="501" 
d="M85 504h113l-38 -313q-3 -22 -3 -40q0 -39 16 -54.5t53 -15.5q45 0 66.5 23.5t28.5 86.5l40 313h114l-62 -504h-109l7 58q-36 -66 -127 -66q-144 0 -144 141q0 21 3 43z" />
    <glyph glyph-name="v" unicode="v" horiz-adv-x="460" 
d="M252 0h-106l-108 504h114l68 -358l156 358h108z" />
    <glyph glyph-name="w" unicode="w" horiz-adv-x="712" 
d="M233 0h-109l-86 504h115l49 -349l146 349h86l59 -349l136 349h107l-210 -504h-107l-55 311z" />
    <glyph glyph-name="x" unicode="x" horiz-adv-x="449" 
d="M94 0h-115l181 251l-120 253h118l77 -169l119 169h116l-183 -252l121 -252h-118l-78 168z" />
    <glyph glyph-name="y" unicode="y" horiz-adv-x="460" 
d="M36 -119q34 0 56 15.5t39 56.5l18 41l-111 510h115l69 -354l155 354h108l-257 -559q-26 -56 -48.5 -87.5t-55.5 -48.5t-85 -17h-53l10 89h40z" />
    <glyph glyph-name="z" unicode="z" horiz-adv-x="410" 
d="M257 409h-209l12 95h354l-8 -63l-255 -352h207l-10 -89h-346l7 63z" />
    <glyph glyph-name="braceleft" unicode="{" horiz-adv-x="361" 
d="M158 624q18 148 169 148h68l-11 -87h-50q-41 0 -58.5 -16.5t-22.5 -60.5l-21 -169q-8 -62 -27 -89.5t-63 -36.5v-2q34 -7 48 -26t14 -57q0 -19 -3 -43l-20 -169q-2 -18 -2 -24q0 -30 14.5 -41.5t49.5 -11.5h50l-11 -87h-68q-135 0 -135 118q0 8 2 30l24 194q2 16 2 23
q0 30 -14 42t-41 12h-30l10 82h30q31 0 48.5 16.5t23.5 60.5z" />
    <glyph glyph-name="bar" unicode="|" horiz-adv-x="326" 
d="M149 -208h-85l120 992h86z" />
    <glyph glyph-name="braceright" unicode="}" horiz-adv-x="361" 
d="M271 430q-2 -18 -2 -23q0 -31 13.5 -42.5t41.5 -11.5h30l-11 -82h-29q-32 0 -49.5 -16.5t-23.5 -60.5l-23 -194q-19 -148 -169 -148h-67l10 87h50q41 0 58 16.5t23 60.5l20 169q7 60 28 88t64 38v2q-34 8 -49 28t-15 59q0 17 3 39l21 169q2 18 2 24q0 30 -14.5 41.5
t-50.5 11.5h-50l12 87h68q134 0 134 -117q0 -9 -2 -31z" />
    <glyph glyph-name="asciitilde" unicode="~" horiz-adv-x="560" 
d="M66 334q28 26 54 41t67 15q35 0 60 -11t55 -32q28 -19 47.5 -28t45.5 -9q42 0 70 16.5t53 39.5l-10 -88q-28 -26 -54 -41t-67 -15q-31 0 -53 10t-53 30q-30 20 -51 30t-51 10q-42 0 -70 -16.5t-53 -39.5z" />
    <glyph glyph-name="uni00A0" unicode="&#xa0;" horiz-adv-x="194" 
 />
    <glyph glyph-name="exclamdown" unicode="&#xa1;" horiz-adv-x="233" 
d="M212 589h-108l15 123h108zM143 0h-115l84 486h67z" />
    <glyph glyph-name="cent" unicode="&#xa2;" horiz-adv-x="560" 
d="M220 100q-73 11 -106 54.5t-33 128.5q0 39 5 73q12 87 34.5 141t62 82t101.5 34l12 99h104l-12 -101q73 -13 102 -61.5t24 -138.5h-109q2 61 -16 83.5t-67 22.5q-40 0 -62.5 -13t-36 -48t-22.5 -103q-6 -48 -6 -76q0 -54 19.5 -73t67.5 -19q50 0 74.5 25t35.5 90h106
q-17 -97 -57.5 -144.5t-116.5 -57.5l-12 -98h-104z" />
    <glyph glyph-name="sterling" unicode="&#xa3;" horiz-adv-x="560" 
d="M31 284l13 100h62l15 126q12 104 69.5 159t168.5 55q110 0 155.5 -49.5t45.5 -147.5q0 -26 -1 -39h-114l1 25q0 59 -20.5 81.5t-70.5 22.5q-54 0 -81.5 -24.5t-34.5 -82.5l-15 -126h171l-13 -100h-170l-24 -189h321l-11 -95h-439l35 284h-63z" />
    <glyph glyph-name="currency" unicode="&#xa4;" horiz-adv-x="560" 
d="M132 175l-44 50l57 51q-16 32 -16 68q0 61 37 110l-43 50l51 46l43 -50q43 27 93 27q52 0 87 -26l58 52l45 -50l-58 -52q16 -32 16 -65q0 -60 -38 -112l45 -50l-52 -46l-43 50q-40 -27 -93 -27q-49 0 -87 25zM383 377q0 34 -21.5 55t-56.5 21q-42 0 -71.5 -29t-29.5 -72
q0 -34 21.5 -56t57.5 -22q41 0 70.5 30.5t29.5 72.5z" />
    <glyph glyph-name="yen" unicode="&#xa5;" horiz-adv-x="560" 
d="M221 265h-168l11 88h130l-127 359h123l109 -316l188 316h118l-217 -359h133l-11 -88h-172l-7 -59h172l-11 -88h-172l-13 -118h-118l14 118h-168l12 88h167z" />
    <glyph glyph-name="brokenbar" unicode="&#xa6;" horiz-adv-x="326" 
d="M224 404h-86l46 380h86zM64 -208l47 395h86l-48 -395h-85z" />
    <glyph glyph-name="section" unicode="&#xa7;" horiz-adv-x="544" 
d="M208 355q-56 21 -87 58t-31 98q0 102 60.5 157.5t168.5 55.5q115 0 164.5 -49t49.5 -147q0 -24 -1 -37h-109q4 71 -21 100t-85 29q-46 0 -76.5 -22.5t-30.5 -70.5q0 -36 23 -53.5t66 -32.5l100 -38q60 -22 89 -51.5t29 -76.5q0 -67 -53 -123l-85 38q21 27 21 54
q0 23 -17 37.5t-55 28.5zM122 11q-1 -9 -1 -24q0 -59 25 -84t80 -25q48 0 78.5 23t30.5 72q0 25 -12 40.5t-29 24t-48 19.5l-100 38q-59 21 -88 51t-29 77q0 65 52 123l85 -39q-20 -23 -20 -54q0 -22 17 -36.5t54 -27.5l119 -46q58 -22 88.5 -57.5t30.5 -95.5
q0 -99 -62 -152.5t-167 -53.5q-124 0 -171.5 56.5t-41.5 170.5h109z" />
    <glyph glyph-name="dieresis" unicode="&#xa8;" horiz-adv-x="482" 
d="M237 590h-96l13 108h96zM416 590h-97l14 108h96z" />
    <glyph glyph-name="copyright" unicode="&#xa9;" horiz-adv-x="697" 
d="M42 356q0 137 29 216.5t96 115.5t186 36t186 -36t95.5 -115.5t28.5 -216.5t-29 -216.5t-96 -115.5t-185 -36q-119 0 -186 36t-96 115.5t-29 216.5zM610 356q0 119 -23 186t-78.5 97t-155.5 30q-101 0 -156.5 -30t-78.5 -97t-23 -186t23 -187t79 -99t156 -31t155.5 31
t78.5 99t23 187zM195 364q0 86 14.5 130t48.5 61t99 17q60 0 89.5 -18t39.5 -52t13 -98h-84q-1 35 -6 53t-17 25.5t-35 7.5q-32 0 -46 -9t-19 -34.5t-5 -82.5q0 -65 5 -92.5t19 -36.5t46 -9q23 0 35 7.5t17 26t6 54.5h84q-3 -57 -14.5 -91.5t-41.5 -52.5t-86 -18
q-67 0 -101.5 21t-47.5 65.5t-13 125.5z" />
    <glyph glyph-name="ordfeminine" unicode="&#xaa;" horiz-adv-x="380" 
d="M72 434q0 45 20 71t52 38t82 21l48 9l2 32q0 22 -9.5 32.5t-30.5 10.5q-29 0 -42 -12t-17 -44h-79q10 64 43 96t103 32q122 0 122 -104q0 -8 -2 -26l-28 -234h-85l6 40q-27 -48 -89 -48q-45 0 -70.5 22.5t-25.5 63.5zM233 507q-35 -5 -54.5 -16.5t-19.5 -40.5
q0 -37 39 -37q56 0 63 59l5 40zM324 233h-273l7 63h274z" />
    <glyph glyph-name="guillemotleft" unicode="&#xab;" horiz-adv-x="430" 
d="M193 64h-92l-71 192l119 192h92l-108 -192zM368 64h-91l-72 192l120 192h91l-108 -192z" />
    <glyph glyph-name="logicalnot" unicode="&#xac;" horiz-adv-x="560" 
d="M408 246h-359l11 88h448l-34 -274h-88z" />
    <glyph glyph-name="uni00AD" unicode="&#xad;" horiz-adv-x="396" 
d="M344 247h-292l10 88h292z" />
    <glyph glyph-name="registered" unicode="&#xae;" horiz-adv-x="427" 
d="M66 585q0 82 17.5 129.5t58 69t111.5 21.5q72 0 112.5 -21.5t58 -69t17.5 -129.5t-17.5 -130t-58 -69.5t-112.5 -21.5q-71 0 -111.5 21.5t-58 69.5t-17.5 130zM407 585q0 71 -13.5 110.5t-46.5 56.5t-94 17q-60 0 -92.5 -17.5t-46.5 -56.5t-14 -110t14 -111t46.5 -58
t92.5 -18q61 0 94 18t46.5 57.5t13.5 111.5zM165 465v247h96q82 0 82 -82q0 -30 -9.5 -48t-29.5 -25l50 -92h-67l-40 77h-22v-77h-60zM225 660v-65h28q16 0 23 7.5t7 25.5t-7.5 25t-24.5 7h-26z" />
    <glyph glyph-name="macron" unicode="&#xaf;" horiz-adv-x="482" 
d="M417 609h-273l9 74h273z" />
    <glyph glyph-name="degree" unicode="&#xb0;" horiz-adv-x="327" 
d="M84 590q0 54 37.5 91.5t94.5 37.5q50 0 81 -31t31 -79q0 -54 -37.5 -91.5t-93.5 -37.5q-51 0 -82 31t-31 79zM262 606q0 21 -14 35.5t-36 14.5q-26 0 -43.5 -18t-17.5 -46q0 -21 14 -35t36 -14q26 0 43.5 18t17.5 45z" />
    <glyph glyph-name="plusminus" unicode="&#xb1;" horiz-adv-x="560" 
d="M249 362h-180l11 88h180l21 170h88l-21 -170h180l-11 -88h-180l-21 -170h-88zM473 0h-448l10 89h448z" />
    <glyph glyph-name="uni00B2" unicode="&#xb2;" 
d="M67 560q5 45 32 73.5t73 51.5l40 20q33 17 46.5 29t13.5 36q0 18 -10.5 26.5t-31.5 8.5q-28 0 -40.5 -11t-20.5 -45h-84q13 68 46 99.5t104 31.5q127 0 127 -104q0 -45 -25 -74.5t-72 -52.5l-48 -24q-27 -13 -38.5 -21.5t-17.5 -20.5h171l-8 -67h-263z" />
    <glyph glyph-name="uni00B3" unicode="&#xb3;" 
d="M148 635q-2 -36 9 -48t42 -12q28 0 42 11t14 39q0 17 -10.5 24.5t-36.5 7.5h-30l8 69h32q25 0 39.5 11.5t14.5 35.5q0 32 -46 32q-26 0 -40.5 -12t-19.5 -44h-85q11 67 46 99t105 32q65 0 96.5 -26t31.5 -71q0 -29 -12 -48.5t-39 -36.5q36 -19 36 -69q0 -62 -40 -91.5
t-111 -29.5q-74 0 -103.5 28t-25.5 99h83z" />
    <glyph glyph-name="acute" unicode="&#xb4;" horiz-adv-x="482" 
d="M303 568h-81l95 156h116z" />
    <glyph glyph-name="mu" unicode="&#xb5;" horiz-adv-x="521" 
d="M105 -208h-105l87 712h114l-38 -314q-3 -21 -3 -38q0 -39 16 -55t53 -16q45 0 66.5 23.5t29.5 86.5l39 313h114l-44 -359q-2 -16 -2 -21q0 -19 10 -27t34 -8h13l-11 -89h-42q-47 0 -74 14t-37 44q-19 -32 -51 -49t-73 -17q-48 0 -69 23z" />
    <glyph glyph-name="paragraph" unicode="&#xb6;" horiz-adv-x="575" 
d="M241 228q-102 0 -146.5 41.5t-44.5 137.5q0 36 6 81q14 123 71.5 173.5t168.5 50.5h146l-87 -712h-118l28 228h-24zM473 0h-59l87 712h59z" />
    <glyph glyph-name="periodcentered" unicode="&#xb7;" horiz-adv-x="212" 
d="M157 227h-108l15 122h108z" />
    <glyph glyph-name="cedilla" unicode="&#xb8;" horiz-adv-x="482" 
d="M152 -84l35 84h37l-5 -35q50 -2 73 -23.5t23 -55.5q0 -51 -34.5 -76.5t-92.5 -25.5h-77l7 53h57q28 0 44.5 10t16.5 36q0 17 -12.5 25t-38.5 8h-33z" />
    <glyph glyph-name="uni00B9" unicode="&#xb9;" 
d="M265 516h-89l33 270l-89 -25l9 75l114 36h65z" />
    <glyph glyph-name="ordmasculine" unicode="&#xba;" horiz-adv-x="400" 
d="M80 480q0 25 3 55q8 71 26 110.5t51.5 57t90.5 17.5q74 0 106.5 -30t32.5 -101q0 -35 -3 -54q-9 -71 -27 -111t-51.5 -58t-91.5 -18q-73 0 -105 30.5t-32 101.5zM297 535q4 27 4 50q0 35 -11.5 46.5t-41.5 11.5q-25 0 -39 -8.5t-22 -31t-14 -68.5q-5 -42 -5 -58
q0 -35 12 -48t40 -13q26 0 40 9.5t22 34t15 75.5zM340 233h-284l8 63h283z" />
    <glyph glyph-name="guillemotright" unicode="&#xbb;" horiz-adv-x="430" 
d="M106 64h-91l108 192l-60 192h91l72 -192zM282 64h-92l108 192l-60 192h92l71 -192z" />
    <glyph glyph-name="onequarter" unicode="&#xbc;" horiz-adv-x="708" 
d="M226 356h-89l33 270l-89 -25l9 75l114 36h65zM127 0h-81l542 712h81zM515 68h-159l6 57l162 231h111l-26 -220h43l-8 -68h-43l-9 -68h-85zM539 268l-94 -132h78z" />
    <glyph glyph-name="onehalf" unicode="&#xbd;" horiz-adv-x="708" 
d="M227 356h-89l33 270l-89 -25l9 75l114 36h65zM106 0h-81l542 712h81zM370 44q5 45 32 73.5t73 51.5l40 20q33 17 46.5 29t13.5 36q0 18 -10.5 26.5t-31.5 8.5q-28 0 -40.5 -11t-20.5 -45h-84q13 68 46 99.5t104 31.5q127 0 127 -104q0 -45 -25 -74.5t-72 -52.5l-48 -24
q-27 -13 -38.5 -21.5t-17.5 -20.5h171l-8 -67h-263z" />
    <glyph glyph-name="threequarters" unicode="&#xbe;" horiz-adv-x="708" 
d="M131 475q-2 -36 9 -48t42 -12q28 0 42 11t14 39q0 17 -10.5 24.5t-36.5 7.5h-30l8 69h32q25 0 39.5 11.5t14.5 35.5q0 32 -46 32q-26 0 -40.5 -12t-19.5 -44h-85q11 67 46 99t105 32q65 0 96.5 -26t31.5 -71q0 -29 -12 -48.5t-39 -36.5q36 -19 36 -69q0 -62 -40 -91.5
t-111 -29.5q-74 0 -103.5 28t-25.5 99h83zM159 0h-81l542 712h81zM538 68h-159l6 57l162 231h111l-26 -220h43l-8 -68h-43l-9 -68h-85zM562 268l-94 -132h78z" />
    <glyph glyph-name="questiondown" unicode="&#xbf;" horiz-adv-x="400" 
d="M329 589h-108l15 123h108zM132 358q37 29 55.5 50t22.5 48l4 30h99l-5 -40q-5 -41 -28 -70.5t-65 -66.5t-63 -65.5t-21 -67.5q0 -81 100 -81h126l-11 -95h-122q-105 0 -157 42.5t-52 115.5q0 49 16.5 85.5t39.5 60t61 54.5z" />
    <glyph glyph-name="Agrave" unicode="&#xc0;" horiz-adv-x="578" 
d="M90 0h-114l298 712h142l125 -712h-117l-25 148h-249zM384 247l-55 336l-139 -336h194zM394 776h-74l-90 156h109z" />
    <glyph glyph-name="Aacute" unicode="&#xc1;" horiz-adv-x="578" 
d="M90 0h-114l298 712h142l125 -712h-117l-25 148h-249zM384 247l-55 336l-139 -336h194zM376 776h-81l95 156h116z" />
    <glyph glyph-name="Acircumflex" unicode="&#xc2;" horiz-adv-x="578" 
d="M90 0h-114l298 712h142l125 -712h-117l-25 148h-249zM384 247l-55 336l-139 -336h194zM286 776h-91l129 156h88l89 -156h-82l-54 101z" />
    <glyph glyph-name="Atilde" unicode="&#xc3;" horiz-adv-x="578" 
d="M90 0h-114l298 712h142l125 -712h-117l-25 148h-249zM384 247l-55 336l-139 -336h194zM226 846q10 73 76 73q18 0 31 -8t34 -25q14 -13 23 -19t19 -6q14 0 17 23l4 34h64l-7 -55q-10 -72 -75 -72q-19 0 -33.5 8.5t-33.5 25.5q-2 2 -10.5 9t-15 10.5t-13.5 3.5
q-15 0 -18 -23l-4 -33h-64z" />
    <glyph glyph-name="Adieresis" unicode="&#xc4;" horiz-adv-x="578" 
d="M90 0h-114l298 712h142l125 -712h-117l-25 148h-249zM384 247l-55 336l-139 -336h194zM310 798h-96l13 108h96zM489 798h-97l14 108h96z" />
    <glyph glyph-name="Aring" unicode="&#xc5;" horiz-adv-x="578" 
d="M90 0h-114l298 712h142l125 -712h-117l-25 148h-249zM384 247l-55 336l-139 -336h194zM258 851q0 52 27 84.5t84 32.5q93 0 93 -83q0 -52 -27 -84.5t-84 -32.5q-93 0 -93 83zM409 884q0 19 -9.5 28t-33.5 9q-31 0 -43.5 -17.5t-12.5 -51.5q0 -18 9.5 -27.5t33.5 -9.5
q31 0 43.5 17.5t12.5 51.5z" />
    <glyph glyph-name="AE" unicode="&#xc6;" horiz-adv-x="832" 
d="M94 0h-120l333 712h543l-13 -108h-289l-24 -196h261l-12 -98h-261l-26 -211h289l-12 -99h-406l18 151h-212zM430 604h-59l-164 -354h180z" />
    <glyph glyph-name="Ccedilla" unicode="&#xc7;" horiz-adv-x="587" 
d="M256 -11q-78 4 -124 29t-67 76t-21 136q0 61 10 132q18 146 49 222t90 108t164 32q86 0 135 -22.5t69.5 -68t20.5 -120.5q0 -31 -3 -67h-114q2 36 2 49q0 48 -10 74t-34 37t-68 11q-63 0 -96 -20.5t-50.5 -73t-31.5 -163.5q-13 -92 -13 -149q0 -53 12.5 -80.5t39 -37.5
t74.5 -10q51 0 79.5 16t44.5 53t29 107h113q-17 -100 -45 -157.5t-78.5 -85t-136.5 -28.5l-3 -23q50 -2 73 -23.5t23 -55.5q0 -51 -34.5 -76.5t-92.5 -25.5h-77l6 53h58q28 0 44.5 10t16.5 36q0 17 -12.5 25t-38.5 8h-33z" />
    <glyph glyph-name="Egrave" unicode="&#xc8;" horiz-adv-x="516" 
d="M446 0h-408l87 712h408l-13 -107h-290l-24 -195h266l-13 -100h-265l-27 -215h290zM384 776h-74l-90 156h109z" />
    <glyph glyph-name="Eacute" unicode="&#xc9;" horiz-adv-x="516" 
d="M446 0h-408l87 712h408l-13 -107h-290l-24 -195h266l-13 -100h-265l-27 -215h290zM366 776h-81l95 156h116z" />
    <glyph glyph-name="Ecircumflex" unicode="&#xca;" horiz-adv-x="516" 
d="M446 0h-408l87 712h408l-13 -107h-290l-24 -195h266l-13 -100h-265l-27 -215h290zM276 776h-91l129 156h88l89 -156h-82l-54 101z" />
    <glyph glyph-name="Edieresis" unicode="&#xcb;" horiz-adv-x="516" 
d="M446 0h-408l87 712h408l-13 -107h-290l-24 -195h266l-13 -100h-265l-27 -215h290zM300 798h-96l13 108h96zM479 798h-97l14 108h96z" />
    <glyph glyph-name="Igrave" unicode="&#xcc;" horiz-adv-x="256" 
d="M156 0h-118l87 712h118zM235 776h-74l-90 156h109z" />
    <glyph glyph-name="Iacute" unicode="&#xcd;" horiz-adv-x="256" 
d="M156 0h-118l87 712h118zM217 776h-81l95 156h116z" />
    <glyph glyph-name="Icircumflex" unicode="&#xce;" horiz-adv-x="256" 
d="M156 0h-118l87 712h118zM127 776h-91l129 156h88l89 -156h-82l-54 101z" />
    <glyph glyph-name="Idieresis" unicode="&#xcf;" horiz-adv-x="256" 
d="M156 0h-118l87 712h118zM151 798h-96l13 108h96zM330 798h-97l14 108h96z" />
    <glyph glyph-name="Eth" unicode="&#xd0;" horiz-adv-x="634" 
d="M34 315l10 90h54l38 307h233q88 0 141.5 -23t79 -75.5t25.5 -141.5q0 -47 -8 -117q-17 -139 -47.5 -214t-90.5 -108t-168 -33h-252l38 315h-53zM241 605l-25 -200h126l-11 -90h-126l-27 -220h126q64 0 97 19.5t51 74t33 171.5q10 71 10 119q0 50 -12.5 77t-39.5 38
t-76 11h-126z" />
    <glyph glyph-name="Ntilde" unicode="&#xd1;" horiz-adv-x="633" 
d="M150 0h-112l87 712h117l205 -500l62 500h112l-87 -712h-117l-206 500zM262 846q10 73 76 73q18 0 31 -8t34 -25q14 -13 23 -19t19 -6q14 0 17 23l4 34h64l-7 -55q-10 -72 -75 -72q-19 0 -33.5 8.5t-33.5 25.5q-2 2 -10.5 9t-15 10.5t-13.5 3.5q-15 0 -18 -23l-4 -33h-64z
" />
    <glyph glyph-name="Ograve" unicode="&#xd2;" horiz-adv-x="621" 
d="M44 231q0 61 10 132q18 145 49.5 221.5t90.5 108t164 31.5q88 0 141 -23t78.5 -75.5t25.5 -143.5q0 -55 -9 -127q-18 -145 -48.5 -222.5t-89.5 -111t-167 -33.5q-89 0 -142 23.5t-78 76.5t-25 143zM472 360q10 90 10 129q0 51 -12 78.5t-39 38.5t-76 11q-64 0 -97 -20.5
t-50.5 -73.5t-31.5 -163q-12 -96 -12 -149t12.5 -80.5t39 -37.5t74.5 -10q65 0 97.5 20t50.5 77t34 180zM418 776h-74l-90 156h109z" />
    <glyph glyph-name="Oacute" unicode="&#xd3;" horiz-adv-x="621" 
d="M44 231q0 61 10 132q18 145 49.5 221.5t90.5 108t164 31.5q88 0 141 -23t78.5 -75.5t25.5 -143.5q0 -55 -9 -127q-18 -145 -48.5 -222.5t-89.5 -111t-167 -33.5q-89 0 -142 23.5t-78 76.5t-25 143zM472 360q10 90 10 129q0 51 -12 78.5t-39 38.5t-76 11q-64 0 -97 -20.5
t-50.5 -73.5t-31.5 -163q-12 -96 -12 -149t12.5 -80.5t39 -37.5t74.5 -10q65 0 97.5 20t50.5 77t34 180zM400 776h-81l95 156h116z" />
    <glyph glyph-name="Ocircumflex" unicode="&#xd4;" horiz-adv-x="621" 
d="M44 231q0 61 10 132q18 145 49.5 221.5t90.5 108t164 31.5q88 0 141 -23t78.5 -75.5t25.5 -143.5q0 -55 -9 -127q-18 -145 -48.5 -222.5t-89.5 -111t-167 -33.5q-89 0 -142 23.5t-78 76.5t-25 143zM472 360q10 90 10 129q0 51 -12 78.5t-39 38.5t-76 11q-64 0 -97 -20.5
t-50.5 -73.5t-31.5 -163q-12 -96 -12 -149t12.5 -80.5t39 -37.5t74.5 -10q65 0 97.5 20t50.5 77t34 180zM310 776h-91l129 156h88l89 -156h-82l-54 101z" />
    <glyph glyph-name="Otilde" unicode="&#xd5;" horiz-adv-x="621" 
d="M44 231q0 61 10 132q18 145 49.5 221.5t90.5 108t164 31.5q88 0 141 -23t78.5 -75.5t25.5 -143.5q0 -55 -9 -127q-18 -145 -48.5 -222.5t-89.5 -111t-167 -33.5q-89 0 -142 23.5t-78 76.5t-25 143zM472 360q10 90 10 129q0 51 -12 78.5t-39 38.5t-76 11q-64 0 -97 -20.5
t-50.5 -73.5t-31.5 -163q-12 -96 -12 -149t12.5 -80.5t39 -37.5t74.5 -10q65 0 97.5 20t50.5 77t34 180zM250 846q10 73 76 73q18 0 31 -8t34 -25q14 -13 23 -19t19 -6q14 0 17 23l4 34h64l-7 -55q-10 -72 -75 -72q-19 0 -33.5 8.5t-33.5 25.5q-2 2 -10.5 9t-15 10.5
t-13.5 3.5q-15 0 -18 -23l-4 -33h-64z" />
    <glyph glyph-name="Odieresis" unicode="&#xd6;" horiz-adv-x="621" 
d="M44 231q0 61 10 132q18 145 49.5 221.5t90.5 108t164 31.5q88 0 141 -23t78.5 -75.5t25.5 -143.5q0 -55 -9 -127q-18 -145 -48.5 -222.5t-89.5 -111t-167 -33.5q-89 0 -142 23.5t-78 76.5t-25 143zM472 360q10 90 10 129q0 51 -12 78.5t-39 38.5t-76 11q-64 0 -97 -20.5
t-50.5 -73.5t-31.5 -163q-12 -96 -12 -149t12.5 -80.5t39 -37.5t74.5 -10q65 0 97.5 20t50.5 77t34 180zM334 798h-96l13 108h96zM513 798h-97l14 108h96z" />
    <glyph glyph-name="multiply" unicode="&#xd7;" horiz-adv-x="560" 
d="M279 228l-147 -130l-58 64l148 132l-111 127l68 60l111 -127l145 129l57 -65l-145 -129l114 -129l-70 -60z" />
    <glyph glyph-name="Oslash" unicode="&#xd8;" horiz-adv-x="626" 
d="M648 712l-12 -101l-40 -39q8 -42 8 -90q0 -41 -9 -127q-18 -145 -48.5 -222.5t-90 -111t-166.5 -33.5q-82 0 -133.5 20.5t-78.5 64.5l-76 -73l11 101l40 39q-8 42 -8 91q0 57 9 132q18 145 49.5 221t90.5 108t165 32q82 0 134 -20t79 -65zM166 248l311 299
q-9 39 -37 54.5t-83 15.5q-64 0 -97.5 -20.5t-51 -73t-31.5 -163.5q-7 -53 -11 -112zM481 462l-312 -301q8 -45 36 -61.5t86 -16.5q65 0 97.5 20t51 77t33.5 180q7 68 8 102z" />
    <glyph glyph-name="Ugrave" unicode="&#xd9;" horiz-adv-x="625" 
d="M120 712h118l-59 -483q-3 -24 -3 -43q0 -56 27.5 -79.5t88.5 -23.5q71 0 105 32.5t44 113.5l60 483h117l-59 -481q-10 -84 -39 -137t-84.5 -79.5t-145.5 -26.5q-119 0 -175.5 47.5t-56.5 143.5q0 25 3 52zM423 776h-74l-90 156h109z" />
    <glyph glyph-name="Uacute" unicode="&#xda;" horiz-adv-x="625" 
d="M120 712h118l-59 -483q-3 -24 -3 -43q0 -56 27.5 -79.5t88.5 -23.5q71 0 105 32.5t44 113.5l60 483h117l-59 -481q-10 -84 -39 -137t-84.5 -79.5t-145.5 -26.5q-119 0 -175.5 47.5t-56.5 143.5q0 25 3 52zM405 776h-81l95 156h116z" />
    <glyph glyph-name="Ucircumflex" unicode="&#xdb;" horiz-adv-x="625" 
d="M120 712h118l-59 -483q-3 -24 -3 -43q0 -56 27.5 -79.5t88.5 -23.5q71 0 105 32.5t44 113.5l60 483h117l-59 -481q-10 -84 -39 -137t-84.5 -79.5t-145.5 -26.5q-119 0 -175.5 47.5t-56.5 143.5q0 25 3 52zM315 776h-91l129 156h88l89 -156h-82l-54 101z" />
    <glyph glyph-name="Udieresis" unicode="&#xdc;" horiz-adv-x="625" 
d="M120 712h118l-59 -483q-3 -24 -3 -43q0 -56 27.5 -79.5t88.5 -23.5q71 0 105 32.5t44 113.5l60 483h117l-59 -481q-10 -84 -39 -137t-84.5 -79.5t-145.5 -26.5q-119 0 -175.5 47.5t-56.5 143.5q0 25 3 52zM339 798h-96l13 108h96zM518 798h-97l14 108h96z" />
    <glyph glyph-name="Yacute" unicode="&#xdd;" horiz-adv-x="553" 
d="M305 0h-118l34 281l-158 431h123l111 -311l189 311h117l-266 -436zM374 776h-81l95 156h116z" />
    <glyph glyph-name="Thorn" unicode="&#xde;" horiz-adv-x="552" 
d="M38 0l87 712h118l-16 -129h123q97 0 144.5 -41t47.5 -133q0 -14 -4 -50q-10 -84 -36.5 -131.5t-71 -67t-115.5 -19.5h-142l-17 -141h-118zM214 476l-29 -235h121q38 0 59.5 9t33.5 34.5t18 75.5q3 23 3 40q0 44 -19.5 60t-66.5 16h-120z" />
    <glyph glyph-name="germandbls" unicode="&#xdf;" horiz-adv-x="551" 
d="M234 0l10 89h36q56 0 83 25t34 93q3 21 3 38q0 46 -20.5 63t-69.5 17h-35l13 95h22q51 0 72 22.5t28 81.5q2 15 2 34q0 37 -18.5 52t-63.5 15q-53 0 -74.5 -19t-26.5 -68l-66 -538h-113l48 409h-59l12 95h59l4 32q8 65 29.5 105.5t67 61.5t123.5 21q102 0 147.5 -37.5
t45.5 -116.5q0 -21 -3 -45q-7 -58 -27.5 -93t-63.5 -52q81 -32 81 -139q0 -10 -2 -40q-11 -107 -64 -154t-165 -47h-49z" />
    <glyph glyph-name="agrave" unicode="&#xe0;" horiz-adv-x="461" 
d="M14 116q0 60 27.5 95t73 52t117.5 30l68 12l4 24q2 24 2 32q0 31 -14 44t-49 13q-44 0 -63 -16t-26 -62h-102q13 87 58 129.5t144 42.5q167 0 167 -141q0 -10 -2 -34l-41 -337h-109l6 54q-36 -62 -123 -62q-66 0 -102 32t-36 92zM284 168l7 57l-51 -8q-53 -8 -82.5 -24
t-29.5 -59q0 -58 59 -58q85 0 97 92zM312 568h-74l-90 156h109z" />
    <glyph glyph-name="aacute" unicode="&#xe1;" horiz-adv-x="461" 
d="M14 116q0 60 27.5 95t73 52t117.5 30l68 12l4 24q2 24 2 32q0 31 -14 44t-49 13q-44 0 -63 -16t-26 -62h-102q13 87 58 129.5t144 42.5q167 0 167 -141q0 -10 -2 -34l-41 -337h-109l6 54q-36 -62 -123 -62q-66 0 -102 32t-36 92zM284 168l7 57l-51 -8q-53 -8 -82.5 -24
t-29.5 -59q0 -58 59 -58q85 0 97 92zM294 568h-81l95 156h116z" />
    <glyph glyph-name="acircumflex" unicode="&#xe2;" horiz-adv-x="461" 
d="M14 116q0 60 27.5 95t73 52t117.5 30l68 12l4 24q2 24 2 32q0 31 -14 44t-49 13q-44 0 -63 -16t-26 -62h-102q13 87 58 129.5t144 42.5q167 0 167 -141q0 -10 -2 -34l-41 -337h-109l6 54q-36 -62 -123 -62q-66 0 -102 32t-36 92zM284 168l7 57l-51 -8q-53 -8 -82.5 -24
t-29.5 -59q0 -58 59 -58q85 0 97 92zM204 568h-91l129 156h88l89 -156h-82l-54 101z" />
    <glyph glyph-name="atilde" unicode="&#xe3;" horiz-adv-x="461" 
d="M14 116q0 60 27.5 95t73 52t117.5 30l68 12l4 24q2 24 2 32q0 31 -14 44t-49 13q-44 0 -63 -16t-26 -62h-102q13 87 58 129.5t144 42.5q167 0 167 -141q0 -10 -2 -34l-41 -337h-109l6 54q-36 -62 -123 -62q-66 0 -102 32t-36 92zM284 168l7 57l-51 -8q-53 -8 -82.5 -24
t-29.5 -59q0 -58 59 -58q85 0 97 92zM144 638q10 73 76 73q18 0 31 -8t34 -25q14 -13 23 -19t19 -6q14 0 17 23l4 34h64l-7 -55q-10 -72 -75 -72q-19 0 -33.5 8.5t-33.5 25.5q-2 2 -10.5 9t-15 10.5t-13.5 3.5q-15 0 -18 -23l-4 -33h-64z" />
    <glyph glyph-name="adieresis" unicode="&#xe4;" horiz-adv-x="461" 
d="M14 116q0 60 27.5 95t73 52t117.5 30l68 12l4 24q2 24 2 32q0 31 -14 44t-49 13q-44 0 -63 -16t-26 -62h-102q13 87 58 129.5t144 42.5q167 0 167 -141q0 -10 -2 -34l-41 -337h-109l6 54q-36 -62 -123 -62q-66 0 -102 32t-36 92zM284 168l7 57l-51 -8q-53 -8 -82.5 -24
t-29.5 -59q0 -58 59 -58q85 0 97 92zM228 590h-96l13 108h96zM407 590h-97l14 108h96z" />
    <glyph glyph-name="aring" unicode="&#xe5;" horiz-adv-x="461" 
d="M14 116q0 60 27.5 95t73 52t117.5 30l68 12l4 24q2 24 2 32q0 31 -14 44t-49 13q-44 0 -63 -16t-26 -62h-102q13 87 58 129.5t144 42.5q167 0 167 -141q0 -10 -2 -34l-41 -337h-109l6 54q-36 -62 -123 -62q-66 0 -102 32t-36 92zM284 168l7 57l-51 -8q-53 -8 -82.5 -24
t-29.5 -59q0 -58 59 -58q85 0 97 92zM176 643q0 52 27 84.5t84 32.5q93 0 93 -83q0 -52 -27 -84.5t-84 -32.5q-93 0 -93 83zM327 676q0 19 -9.5 28t-33.5 9q-31 0 -43.5 -17.5t-12.5 -51.5q0 -18 9.5 -27.5t33.5 -9.5q31 0 43.5 17.5t12.5 51.5z" />
    <glyph glyph-name="ae" unicode="&#xe6;" horiz-adv-x="730" 
d="M153 -8q-65 0 -102.5 33.5t-37.5 91.5t28.5 93t74.5 52t116 30l67 12l3 25q3 20 3 34q0 30 -14 42.5t-49 12.5q-44 0 -63 -16t-26 -62h-101q13 88 57.5 130t143.5 42q91 0 127 -48q51 48 145 48t135.5 -44.5t41.5 -136.5q0 -30 -5 -75l-3 -24h-289q-4 -33 -4 -63
q0 -53 19 -71.5t63 -18.5q43 0 64.5 16t31.5 58h102q-17 -79 -64 -120t-138 -41q-68 0 -110 19.5t-62 61.5q-18 -39 -57 -60t-97 -21zM417 310h179q1 9 1 25q0 46 -17.5 63.5t-58.5 17.5q-44 0 -67.5 -22t-36.5 -84zM290 224l-51 -8q-51 -7 -81.5 -23.5t-30.5 -58.5
q0 -28 15 -43t44 -15q86 0 97 94z" />
    <glyph glyph-name="ccedilla" unicode="&#xe7;" horiz-adv-x="462" 
d="M189 -7q-83 5 -121 48t-38 134q0 32 5 79q12 96 37 152t71 81t122 25q93 0 134 -41.5t41 -128.5q0 -23 -1 -35h-107q1 43 -4.5 65.5t-21.5 31.5t-47 9q-36 0 -56.5 -13t-32.5 -47.5t-20 -103.5q-7 -61 -7 -83q0 -49 17 -67t58 -18q46 0 67.5 24.5t33.5 90.5h106
q-18 -106 -63.5 -153.5t-133.5 -50.5l-4 -27q50 -2 72.5 -23.5t22.5 -55.5q0 -51 -34 -76.5t-92 -25.5h-78l7 53h58q28 0 44 10t16 36q0 17 -12 25t-38 8h-34z" />
    <glyph glyph-name="egrave" unicode="&#xe8;" horiz-adv-x="471" 
d="M30 177q0 29 5 74q12 95 38 151.5t72.5 83t120.5 26.5q94 0 135.5 -43.5t41.5 -135.5q0 -42 -5 -77l-3 -24h-289q-3 -37 -3 -63q0 -53 18.5 -71.5t62.5 -18.5q43 0 64.5 16t31.5 58h102q-17 -79 -64 -120t-138 -41q-99 0 -144.5 43t-45.5 142zM158 310h179q1 9 1 25
q0 46 -17.5 63.5t-57.5 17.5q-45 0 -68.5 -22t-36.5 -84zM321 568h-74l-90 156h109z" />
    <glyph glyph-name="eacute" unicode="&#xe9;" horiz-adv-x="471" 
d="M30 177q0 29 5 74q12 95 38 151.5t72.5 83t120.5 26.5q94 0 135.5 -43.5t41.5 -135.5q0 -42 -5 -77l-3 -24h-289q-3 -37 -3 -63q0 -53 18.5 -71.5t62.5 -18.5q43 0 64.5 16t31.5 58h102q-17 -79 -64 -120t-138 -41q-99 0 -144.5 43t-45.5 142zM158 310h179q1 9 1 25
q0 46 -17.5 63.5t-57.5 17.5q-45 0 -68.5 -22t-36.5 -84zM303 568h-81l95 156h116z" />
    <glyph glyph-name="ecircumflex" unicode="&#xea;" horiz-adv-x="471" 
d="M30 177q0 29 5 74q12 95 38 151.5t72.5 83t120.5 26.5q94 0 135.5 -43.5t41.5 -135.5q0 -42 -5 -77l-3 -24h-289q-3 -37 -3 -63q0 -53 18.5 -71.5t62.5 -18.5q43 0 64.5 16t31.5 58h102q-17 -79 -64 -120t-138 -41q-99 0 -144.5 43t-45.5 142zM158 310h179q1 9 1 25
q0 46 -17.5 63.5t-57.5 17.5q-45 0 -68.5 -22t-36.5 -84zM213 568h-91l129 156h88l89 -156h-82l-54 101z" />
    <glyph glyph-name="edieresis" unicode="&#xeb;" horiz-adv-x="471" 
d="M30 177q0 29 5 74q12 95 38 151.5t72.5 83t120.5 26.5q94 0 135.5 -43.5t41.5 -135.5q0 -42 -5 -77l-3 -24h-289q-3 -37 -3 -63q0 -53 18.5 -71.5t62.5 -18.5q43 0 64.5 16t31.5 58h102q-17 -79 -64 -120t-138 -41q-99 0 -144.5 43t-45.5 142zM158 310h179q1 9 1 25
q0 46 -17.5 63.5t-57.5 17.5q-45 0 -68.5 -22t-36.5 -84zM237 590h-96l13 108h96zM416 590h-97l14 108h96z" />
    <glyph glyph-name="igrave" unicode="&#xec;" horiz-adv-x="227" 
d="M139 0h-114l62 504h114zM200 568h-74l-90 156h109z" />
    <glyph glyph-name="iacute" unicode="&#xed;" horiz-adv-x="227" 
d="M139 0h-114l62 504h114zM182 568h-81l95 156h116z" />
    <glyph glyph-name="icircumflex" unicode="&#xee;" horiz-adv-x="227" 
d="M139 0h-114l62 504h114zM92 568h-91l129 156h88l89 -156h-82l-54 101z" />
    <glyph glyph-name="idieresis" unicode="&#xef;" horiz-adv-x="227" 
d="M139 0h-114l62 504h114zM116 590h-96l13 108h96zM295 590h-97l14 108h96z" />
    <glyph glyph-name="eth" unicode="&#xf0;" horiz-adv-x="496" 
d="M132 507l8 66l127 47l-48 92h120l29 -55l148 55l-8 -67l-111 -41q67 -136 67 -281q0 -40 -6 -82q-17 -134 -71.5 -192t-163.5 -58q-98 0 -146.5 42.5t-48.5 141.5q0 26 5 64q16 134 69 191t154 57q52 0 81 -23q-14 45 -43 103zM142 167q0 -49 19 -67.5t63 -18.5
q39 0 61.5 12.5t35 44.5t20.5 93q5 43 5 65q0 53 -19 72.5t-65 19.5q-38 0 -60 -13t-35 -46.5t-20 -97.5q-5 -42 -5 -64z" />
    <glyph glyph-name="ntilde" unicode="&#xf1;" horiz-adv-x="499" 
d="M25 0l62 504h109l-7 -57q34 65 123 65q147 0 147 -143q0 -20 -3 -41l-40 -328h-114l37 305q2 14 2 37q0 39 -15.5 54.5t-52.5 15.5q-47 0 -68 -23t-29 -84l-37 -305h-114zM163 638q10 73 76 73q18 0 31 -8t34 -25q14 -13 23 -19t19 -6q14 0 17 23l4 34h64l-7 -55
q-10 -72 -75 -72q-19 0 -33.5 8.5t-33.5 25.5q-2 2 -10.5 9t-15 10.5t-13.5 3.5q-15 0 -18 -23l-4 -33h-64z" />
    <glyph glyph-name="ograve" unicode="&#xf2;" horiz-adv-x="492" 
d="M30 177q0 39 6 79q11 98 36.5 153t72.5 79t127 24q100 0 145 -43t45 -143q0 -24 -6 -78q-11 -97 -36.5 -152t-73 -79.5t-126.5 -24.5q-100 0 -145 43t-45 142zM340 246q6 50 6 79q0 51 -18.5 69.5t-62.5 18.5q-38 0 -59 -13t-34 -47t-21 -101q-7 -58 -7 -82
q0 -51 18.5 -70t61.5 -19q37 0 59 13.5t35 48.5t22 103zM326 568h-74l-90 156h109z" />
    <glyph glyph-name="oacute" unicode="&#xf3;" horiz-adv-x="492" 
d="M30 177q0 39 6 79q11 98 36.5 153t72.5 79t127 24q100 0 145 -43t45 -143q0 -24 -6 -78q-11 -97 -36.5 -152t-73 -79.5t-126.5 -24.5q-100 0 -145 43t-45 142zM340 246q6 50 6 79q0 51 -18.5 69.5t-62.5 18.5q-38 0 -59 -13t-34 -47t-21 -101q-7 -58 -7 -82
q0 -51 18.5 -70t61.5 -19q37 0 59 13.5t35 48.5t22 103zM308 568h-81l95 156h116z" />
    <glyph glyph-name="ocircumflex" unicode="&#xf4;" horiz-adv-x="492" 
d="M30 177q0 39 6 79q11 98 36.5 153t72.5 79t127 24q100 0 145 -43t45 -143q0 -24 -6 -78q-11 -97 -36.5 -152t-73 -79.5t-126.5 -24.5q-100 0 -145 43t-45 142zM340 246q6 50 6 79q0 51 -18.5 69.5t-62.5 18.5q-38 0 -59 -13t-34 -47t-21 -101q-7 -58 -7 -82
q0 -51 18.5 -70t61.5 -19q37 0 59 13.5t35 48.5t22 103zM218 568h-91l129 156h88l89 -156h-82l-54 101z" />
    <glyph glyph-name="otilde" unicode="&#xf5;" horiz-adv-x="492" 
d="M30 177q0 39 6 79q11 98 36.5 153t72.5 79t127 24q100 0 145 -43t45 -143q0 -24 -6 -78q-11 -97 -36.5 -152t-73 -79.5t-126.5 -24.5q-100 0 -145 43t-45 142zM340 246q6 50 6 79q0 51 -18.5 69.5t-62.5 18.5q-38 0 -59 -13t-34 -47t-21 -101q-7 -58 -7 -82
q0 -51 18.5 -70t61.5 -19q37 0 59 13.5t35 48.5t22 103zM158 638q10 73 76 73q18 0 31 -8t34 -25q14 -13 23 -19t19 -6q14 0 17 23l4 34h64l-7 -55q-10 -72 -75 -72q-19 0 -33.5 8.5t-33.5 25.5q-2 2 -10.5 9t-15 10.5t-13.5 3.5q-15 0 -18 -23l-4 -33h-64z" />
    <glyph glyph-name="odieresis" unicode="&#xf6;" horiz-adv-x="492" 
d="M30 177q0 39 6 79q11 98 36.5 153t72.5 79t127 24q100 0 145 -43t45 -143q0 -24 -6 -78q-11 -97 -36.5 -152t-73 -79.5t-126.5 -24.5q-100 0 -145 43t-45 142zM340 246q6 50 6 79q0 51 -18.5 69.5t-62.5 18.5q-38 0 -59 -13t-34 -47t-21 -101q-7 -58 -7 -82
q0 -51 18.5 -70t61.5 -19q37 0 59 13.5t35 48.5t22 103zM242 590h-96l13 108h96zM421 590h-97l14 108h96z" />
    <glyph glyph-name="divide" unicode="&#xf7;" horiz-adv-x="560" 
d="M351 458h-89l15 122h88zM504 246h-448l10 88h448zM294 0h-88l14 122h89z" />
    <glyph glyph-name="oslash" unicode="&#xf8;" horiz-adv-x="499" 
d="M501 504l-10 -81l-31 -27q7 -28 7 -70q0 -36 -6 -78q-12 -97 -38 -152t-73 -79.5t-125 -24.5q-61 0 -100 15t-61 47l-63 -54l9 81l32 27q-7 28 -7 68q0 32 5 80q12 98 38 153t73 79t125 24q60 0 100 -15t62 -47zM151 203l195 168q-7 23 -25 32.5t-51 9.5q-38 0 -59 -13
t-34 -47t-21 -101zM351 302l-198 -171q6 -28 24 -39t52 -11q38 0 60 14t35 50t22 107z" />
    <glyph glyph-name="ugrave" unicode="&#xf9;" horiz-adv-x="501" 
d="M85 504h113l-38 -313q-3 -22 -3 -40q0 -39 16 -54.5t53 -15.5q45 0 66.5 23.5t28.5 86.5l40 313h114l-62 -504h-109l7 58q-36 -66 -127 -66q-144 0 -144 141q0 21 3 43zM329 568h-74l-90 156h109z" />
    <glyph glyph-name="uacute" unicode="&#xfa;" horiz-adv-x="501" 
d="M85 504h113l-38 -313q-3 -22 -3 -40q0 -39 16 -54.5t53 -15.5q45 0 66.5 23.5t28.5 86.5l40 313h114l-62 -504h-109l7 58q-36 -66 -127 -66q-144 0 -144 141q0 21 3 43zM311 568h-81l95 156h116z" />
    <glyph glyph-name="ucircumflex" unicode="&#xfb;" horiz-adv-x="501" 
d="M85 504h113l-38 -313q-3 -22 -3 -40q0 -39 16 -54.5t53 -15.5q45 0 66.5 23.5t28.5 86.5l40 313h114l-62 -504h-109l7 58q-36 -66 -127 -66q-144 0 -144 141q0 21 3 43zM221 568h-91l129 156h88l89 -156h-82l-54 101z" />
    <glyph glyph-name="udieresis" unicode="&#xfc;" horiz-adv-x="501" 
d="M85 504h113l-38 -313q-3 -22 -3 -40q0 -39 16 -54.5t53 -15.5q45 0 66.5 23.5t28.5 86.5l40 313h114l-62 -504h-109l7 58q-36 -66 -127 -66q-144 0 -144 141q0 21 3 43zM245 590h-96l13 108h96zM424 590h-97l14 108h96z" />
    <glyph glyph-name="yacute" unicode="&#xfd;" horiz-adv-x="460" 
d="M37 -119q34 0 56 15.5t39 56.5l18 41l-111 510h115l69 -354l155 354h108l-257 -559q-26 -56 -48.5 -87.5t-55.5 -48.5t-85 -17h-53l10 89h40zM302 568h-81l95 156h116z" />
    <glyph glyph-name="thorn" unicode="&#xfe;" horiz-adv-x="513" 
d="M1 -208l112 920h114l-32 -259q38 59 121 59q84 0 125 -43t41 -140q0 -36 -6 -81q-11 -96 -36 -151.5t-67.5 -80t-108.5 -24.5q-44 0 -74 15t-44 49l-32 -264h-113zM361 252q6 45 6 73q0 51 -19 69.5t-63 18.5q-38 0 -59 -13t-34 -47t-21 -101q-6 -49 -6 -81q0 -52 18 -71
t62 -19q37 0 59 14t35 50.5t22 106.5z" />
    <glyph glyph-name="ydieresis" unicode="&#xff;" horiz-adv-x="460" 
d="M37 -119q34 0 56 15.5t39 56.5l18 41l-111 510h115l69 -354l155 354h108l-257 -559q-26 -56 -48.5 -87.5t-55.5 -48.5t-85 -17h-53l10 89h40zM236 590h-96l13 108h96zM415 590h-97l14 108h96z" />
    <glyph glyph-name="Amacron" unicode="&#x100;" horiz-adv-x="578" 
d="M90 0h-114l298 712h142l125 -712h-117l-25 148h-249zM384 247l-55 336l-139 -336h194zM490 817h-273l9 74h273z" />
    <glyph glyph-name="amacron" unicode="&#x101;" horiz-adv-x="461" 
d="M14 116q0 60 27.5 95t73 52t117.5 30l68 12l4 24q2 24 2 32q0 31 -14 44t-49 13q-44 0 -63 -16t-26 -62h-102q13 87 58 129.5t144 42.5q167 0 167 -141q0 -10 -2 -34l-41 -337h-109l6 54q-36 -62 -123 -62q-66 0 -102 32t-36 92zM284 168l7 57l-51 -8q-53 -8 -82.5 -24
t-29.5 -59q0 -58 59 -58q85 0 97 92zM408 609h-273l9 74h273z" />
    <glyph glyph-name="Abreve" unicode="&#x102;" horiz-adv-x="578" 
d="M90 0h-114l298 712h142l125 -712h-117l-25 148h-249zM384 247l-55 336l-139 -336h194zM229 893q0 17 1 26h64q-1 -7 -1 -20q0 -36 14.5 -51t47.5 -15q38 0 56.5 19t27.5 67h64q-13 -82 -48.5 -116.5t-101.5 -34.5q-124 0 -124 125z" />
    <glyph glyph-name="abreve" unicode="&#x103;" horiz-adv-x="461" 
d="M14 116q0 60 27.5 95t73 52t117.5 30l68 12l4 24q2 24 2 32q0 31 -14 44t-49 13q-44 0 -63 -16t-26 -62h-102q13 87 58 129.5t144 42.5q167 0 167 -141q0 -10 -2 -34l-41 -337h-109l6 54q-36 -62 -123 -62q-66 0 -102 32t-36 92zM284 168l7 57l-51 -8q-53 -8 -82.5 -24
t-29.5 -59q0 -58 59 -58q85 0 97 92zM147 685q0 17 1 26h64q-1 -7 -1 -20q0 -36 14.5 -51t47.5 -15q38 0 56.5 19t27.5 67h64q-13 -82 -48.5 -116.5t-101.5 -34.5q-124 0 -124 125z" />
    <glyph glyph-name="Aogonek" unicode="&#x104;" horiz-adv-x="578" 
d="M489 -216q-51 0 -77 20.5t-26 57.5q0 35 21 61t64 61l19 16h-66l-25 148h-249l-60 -148h-114l298 712h142l125 -712q-46 -41 -65.5 -64t-19.5 -50q0 -38 45 -38h32l-7 -64h-37zM384 247l-55 336l-139 -336h194z" />
    <glyph glyph-name="aogonek" unicode="&#x105;" horiz-adv-x="461" 
d="M14 116q0 60 27.5 95t73 52t117.5 30l68 12l3 24q2 12 2 32q0 31 -13.5 44t-48.5 13q-44 0 -63 -16t-26 -62h-102q14 88 58.5 130t143.5 42q167 0 167 -141q0 -10 -2 -34l-41 -337q-46 -40 -65.5 -63t-19.5 -51q0 -38 45 -38h32l-8 -64h-36q-51 0 -77.5 20.5t-26.5 57.5
q0 35 20.5 60t61.5 58l23 20h-58l6 55q-37 -63 -124 -63q-66 0 -101.5 32t-35.5 92zM291 225l-52 -8q-52 -7 -82 -23.5t-30 -59.5q0 -58 60 -58q84 0 97 92z" />
    <glyph glyph-name="Cacute" unicode="&#x106;" horiz-adv-x="587" 
d="M44 230q0 61 10 132q18 146 49 222t90 108t164 32q86 0 135 -22.5t69.5 -68t20.5 -120.5q0 -31 -3 -67h-114q2 36 2 49q0 48 -10 74t-34 37t-68 11q-63 0 -96 -20.5t-50.5 -73t-31.5 -163.5q-13 -92 -13 -149q0 -53 12.5 -80.5t39 -37.5t74.5 -10q51 0 79.5 16t44.5 53
t29 107h113q-17 -101 -45.5 -159t-80.5 -85t-141 -27q-91 0 -144 23.5t-77 75.5t-24 143zM390 776h-81l95 156h116z" />
    <glyph glyph-name="cacute" unicode="&#x107;" horiz-adv-x="462" 
d="M30 175q0 32 5 79q12 96 37 152t71 81t122 25q93 0 134 -41.5t41 -128.5q0 -23 -1 -35h-107q1 43 -4.5 65.5t-21.5 31.5t-47 9q-36 0 -56.5 -13t-32.5 -47.5t-20 -103.5q-7 -61 -7 -83q0 -49 17 -67t58 -18q46 0 67.5 24.5t33.5 90.5h106q-18 -109 -66 -156.5t-141 -47.5
q-100 0 -144 42.5t-44 140.5zM305 568h-81l95 156h116z" />
    <glyph glyph-name="Ccircumflex" unicode="&#x108;" horiz-adv-x="587" 
d="M44 230q0 61 10 132q18 146 49 222t90 108t164 32q86 0 135 -22.5t69.5 -68t20.5 -120.5q0 -31 -3 -67h-114q2 36 2 49q0 48 -10 74t-34 37t-68 11q-63 0 -96 -20.5t-50.5 -73t-31.5 -163.5q-13 -92 -13 -149q0 -53 12.5 -80.5t39 -37.5t74.5 -10q51 0 79.5 16t44.5 53
t29 107h113q-17 -101 -45.5 -159t-80.5 -85t-141 -27q-91 0 -144 23.5t-77 75.5t-24 143zM300 776h-91l129 156h88l89 -156h-82l-54 101z" />
    <glyph glyph-name="ccircumflex" unicode="&#x109;" horiz-adv-x="462" 
d="M30 175q0 32 5 79q12 96 37 152t71 81t122 25q93 0 134 -41.5t41 -128.5q0 -23 -1 -35h-107q1 43 -4.5 65.5t-21.5 31.5t-47 9q-36 0 -56.5 -13t-32.5 -47.5t-20 -103.5q-7 -61 -7 -83q0 -49 17 -67t58 -18q46 0 67.5 24.5t33.5 90.5h106q-18 -109 -66 -156.5t-141 -47.5
q-100 0 -144 42.5t-44 140.5zM215 568h-91l129 156h88l89 -156h-82l-54 101z" />
    <glyph glyph-name="Cdotaccent" unicode="&#x10a;" horiz-adv-x="587" 
d="M44 230q0 61 10 132q18 146 49 222t90 108t164 32q86 0 135 -22.5t69.5 -68t20.5 -120.5q0 -31 -3 -67h-114q2 36 2 49q0 48 -10 74t-34 37t-68 11q-63 0 -96 -20.5t-50.5 -73t-31.5 -163.5q-13 -92 -13 -149q0 -53 12.5 -80.5t39 -37.5t74.5 -10q51 0 79.5 16t44.5 53
t29 107h113q-17 -101 -45.5 -159t-80.5 -85t-141 -27q-91 0 -144 23.5t-77 75.5t-24 143zM414 798h-97l13 108h97z" />
    <glyph glyph-name="cdotaccent" unicode="&#x10b;" horiz-adv-x="462" 
d="M30 175q0 32 5 79q12 96 37 152t71 81t122 25q93 0 134 -41.5t41 -128.5q0 -23 -1 -35h-107q1 43 -4.5 65.5t-21.5 31.5t-47 9q-36 0 -56.5 -13t-32.5 -47.5t-20 -103.5q-7 -61 -7 -83q0 -49 17 -67t58 -18q46 0 67.5 24.5t33.5 90.5h106q-18 -109 -66 -156.5t-141 -47.5
q-100 0 -144 42.5t-44 140.5zM329 590h-97l13 108h97z" />
    <glyph glyph-name="Ccaron" unicode="&#x10c;" horiz-adv-x="587" 
d="M44 230q0 61 10 132q18 146 49 222t90 108t164 32q86 0 135 -22.5t69.5 -68t20.5 -120.5q0 -31 -3 -67h-114q2 36 2 49q0 48 -10 74t-34 37t-68 11q-63 0 -96 -20.5t-50.5 -73t-31.5 -163.5q-13 -92 -13 -149q0 -53 12.5 -80.5t39 -37.5t74.5 -10q51 0 79.5 16t44.5 53
t29 107h113q-17 -101 -45.5 -159t-80.5 -85t-141 -27q-91 0 -144 23.5t-77 75.5t-24 143zM407 776h-88l-89 156h84l54 -102l79 102h89z" />
    <glyph glyph-name="ccaron" unicode="&#x10d;" horiz-adv-x="462" 
d="M30 175q0 32 5 79q12 96 37 152t71 81t122 25q93 0 134 -41.5t41 -128.5q0 -23 -1 -35h-107q1 43 -4.5 65.5t-21.5 31.5t-47 9q-36 0 -56.5 -13t-32.5 -47.5t-20 -103.5q-7 -61 -7 -83q0 -49 17 -67t58 -18q46 0 67.5 24.5t33.5 90.5h106q-18 -109 -66 -156.5t-141 -47.5
q-100 0 -144 42.5t-44 140.5zM322 568h-88l-89 156h84l54 -102l79 102h89z" />
    <glyph glyph-name="Dcaron" unicode="&#x10e;" horiz-adv-x="618" 
d="M38 0l87 712h227q89 0 142 -22.5t78.5 -75t25.5 -141.5q0 -56 -7 -116q-17 -140 -47 -215t-89.5 -108.5t-166.5 -33.5h-250zM230 605l-63 -510h121q64 0 96.5 19.5t51 74t33.5 171.5q9 75 9 119q0 50 -12 77t-39 38t-76 11h-121zM405 776h-88l-89 156h84l54 -102l79 102
h89z" />
    <glyph glyph-name="dcaron" unicode="&#x10f;" horiz-adv-x="519" 
d="M30 171q0 38 6 84q11 95 37 151t69 81t109 25q87 0 113 -63l32 263h115l-87 -712h-110l7 61q-37 -69 -126 -69q-85 0 -125 41.5t-40 137.5zM340 252q6 45 6 73q0 51 -18.5 69.5t-62.5 18.5q-38 0 -59 -13t-34 -47t-21 -101q-6 -49 -6 -81q0 -52 18 -71t61 -19
q38 0 59.5 14t34.5 50.5t22 106.5zM533 560l19 152h95l-7 -56l-56 -96h-51z" />
    <glyph glyph-name="Dcroat" unicode="&#x110;" horiz-adv-x="634" 
d="M34 315l10 90h54l38 307h233q88 0 141.5 -23t79 -75.5t25.5 -141.5q0 -47 -8 -117q-17 -139 -47.5 -214t-90.5 -108t-168 -33h-252l38 315h-53zM241 605l-25 -200h126l-11 -90h-126l-27 -220h126q64 0 97 19.5t51 74t33 171.5q10 71 10 119q0 50 -12.5 77t-39.5 38
t-76 11h-126z" />
    <glyph glyph-name="dcroat" unicode="&#x111;" horiz-adv-x="511" 
d="M266 572l9 70h113l8 70h115l-8 -70h52l-9 -70h-52l-70 -572h-110l7 61q-37 -69 -126 -69q-85 0 -125 41.5t-40 137.5q0 38 6 84q11 95 37 151t69 81t109 25q87 0 113 -63l15 123h-113zM340 252q6 45 6 73q0 51 -18.5 69.5t-62.5 18.5q-38 0 -59 -13t-34 -47t-21 -101
q-6 -49 -6 -81q0 -52 18 -71t61 -19q38 0 59.5 14t34.5 50.5t22 106.5z" />
    <glyph glyph-name="Emacron" unicode="&#x112;" horiz-adv-x="516" 
d="M446 0h-408l87 712h408l-13 -107h-290l-24 -195h266l-13 -100h-265l-27 -215h290zM480 817h-273l9 74h273z" />
    <glyph glyph-name="emacron" unicode="&#x113;" horiz-adv-x="471" 
d="M30 177q0 29 5 74q12 95 38 151.5t72.5 83t120.5 26.5q94 0 135.5 -43.5t41.5 -135.5q0 -42 -5 -77l-3 -24h-289q-3 -37 -3 -63q0 -53 18.5 -71.5t62.5 -18.5q43 0 64.5 16t31.5 58h102q-17 -79 -64 -120t-138 -41q-99 0 -144.5 43t-45.5 142zM158 310h179q1 9 1 25
q0 46 -17.5 63.5t-57.5 17.5q-45 0 -68.5 -22t-36.5 -84zM417 609h-273l9 74h273z" />
    <glyph glyph-name="Ebreve" unicode="&#x114;" horiz-adv-x="516" 
d="M446 0h-408l87 712h408l-13 -107h-290l-24 -195h266l-13 -100h-265l-27 -215h290zM219 893q0 17 1 26h64q-1 -7 -1 -20q0 -36 14.5 -51t47.5 -15q38 0 56.5 19t27.5 67h64q-13 -82 -48.5 -116.5t-101.5 -34.5q-124 0 -124 125z" />
    <glyph glyph-name="ebreve" unicode="&#x115;" horiz-adv-x="471" 
d="M30 177q0 29 5 74q12 95 38 151.5t72.5 83t120.5 26.5q94 0 135.5 -43.5t41.5 -135.5q0 -42 -5 -77l-3 -24h-289q-3 -37 -3 -63q0 -53 18.5 -71.5t62.5 -18.5q43 0 64.5 16t31.5 58h102q-17 -79 -64 -120t-138 -41q-99 0 -144.5 43t-45.5 142zM158 310h179q1 9 1 25
q0 46 -17.5 63.5t-57.5 17.5q-45 0 -68.5 -22t-36.5 -84zM156 685q0 17 1 26h64q-1 -7 -1 -20q0 -36 14.5 -51t47.5 -15q38 0 56.5 19t27.5 67h64q-13 -82 -48.5 -116.5t-101.5 -34.5q-124 0 -124 125z" />
    <glyph glyph-name="Edotaccent" unicode="&#x116;" horiz-adv-x="516" 
d="M446 0h-408l87 712h408l-13 -107h-290l-24 -195h266l-13 -100h-265l-27 -215h290zM390 798h-97l13 108h97z" />
    <glyph glyph-name="edotaccent" unicode="&#x117;" horiz-adv-x="471" 
d="M30 177q0 29 5 74q12 95 38 151.5t72.5 83t120.5 26.5q94 0 135.5 -43.5t41.5 -135.5q0 -42 -5 -77l-3 -24h-289q-3 -37 -3 -63q0 -53 18.5 -71.5t62.5 -18.5q43 0 64.5 16t31.5 58h102q-17 -79 -64 -120t-138 -41q-99 0 -144.5 43t-45.5 142zM158 310h179q1 9 1 25
q0 46 -17.5 63.5t-57.5 17.5q-45 0 -68.5 -22t-36.5 -84zM327 590h-97l13 108h97z" />
    <glyph glyph-name="Eogonek" unicode="&#x118;" horiz-adv-x="516" 
d="M38 0l87 712h408l-13 -107h-290l-24 -195h266l-13 -100h-265l-27 -215h290l-11 -95h-12q-47 -41 -66 -63.5t-19 -50.5q0 -38 46 -38h32l-8 -64h-37q-50 0 -76.5 20.5t-26.5 57.5q0 34 20.5 59.5t59.5 58.5q8 6 24 20h-345z" />
    <glyph glyph-name="eogonek" unicode="&#x119;" horiz-adv-x="471" 
d="M271 -216q-51 0 -77 20.5t-26 57.5q0 27 13.5 49.5t29.5 37.5t54 47q-19 -4 -45 -4q-99 0 -144.5 43t-45.5 142q0 29 5 74q12 95 38 151.5t72.5 83t120.5 26.5q94 0 135.5 -43.5t41.5 -135.5q0 -42 -5 -77l-3 -24h-289q-3 -37 -3 -63q0 -53 18.5 -71.5t62.5 -18.5
q43 0 64.5 16t31.5 58h102q-15 -75 -61 -118l-39 -35q-46 -41 -64.5 -63.5t-19.5 -50.5q0 -38 46 -38h31l-8 -64h-36zM158 310h179q1 9 1 25q0 46 -17.5 63.5t-57.5 17.5q-45 0 -68.5 -22t-36.5 -84z" />
    <glyph glyph-name="Ecaron" unicode="&#x11a;" horiz-adv-x="516" 
d="M446 0h-408l87 712h408l-13 -107h-290l-24 -195h266l-13 -100h-265l-27 -215h290zM383 776h-88l-89 156h84l54 -102l79 102h89z" />
    <glyph glyph-name="ecaron" unicode="&#x11b;" horiz-adv-x="471" 
d="M30 177q0 29 5 74q12 95 38 151.5t72.5 83t120.5 26.5q94 0 135.5 -43.5t41.5 -135.5q0 -42 -5 -77l-3 -24h-289q-3 -37 -3 -63q0 -53 18.5 -71.5t62.5 -18.5q43 0 64.5 16t31.5 58h102q-17 -79 -64 -120t-138 -41q-99 0 -144.5 43t-45.5 142zM158 310h179q1 9 1 25
q0 46 -17.5 63.5t-57.5 17.5q-45 0 -68.5 -22t-36.5 -84zM320 568h-88l-89 156h84l54 -102l79 102h89z" />
    <glyph glyph-name="Gcircumflex" unicode="&#x11c;" horiz-adv-x="601" 
d="M314 284l13 100h253l-14 -113q-12 -101 -41 -162.5t-85.5 -91t-149.5 -29.5q-89 0 -142.5 23.5t-78.5 76t-25 141.5q0 60 10 131q18 146 49.5 222.5t90.5 109t164 32.5q92 0 143.5 -26t70.5 -77t15 -133h-113q4 72 -23 100.5t-96 28.5q-63 0 -96 -20.5t-50.5 -73
t-31.5 -163.5q-13 -92 -13 -149q0 -53 12.5 -80.5t39 -37.5t74.5 -10q54 0 85.5 15.5t48.5 54t26 109.5l2 22h-138zM305 776h-91l129 156h88l89 -156h-82l-54 101z" />
    <glyph glyph-name="gcircumflex" unicode="&#x11d;" horiz-adv-x="513" 
d="M31 178q0 31 5 79q12 94 37.5 149.5t68.5 80.5t109 25q97 0 118 -80l10 72h108l-65 -529q-13 -100 -64 -145.5t-154 -45.5q-108 0 -148.5 43t-36.5 130h108q-2 -48 13 -66t64 -18t72 20.5t30 76.5l11 87q-40 -59 -119 -59q-86 0 -126.5 42t-40.5 138zM342 255q5 47 5 70
q0 51 -18.5 69.5t-62.5 18.5q-38 0 -59 -12.5t-33.5 -46t-21.5 -99.5q-6 -48 -6 -78q0 -52 18 -71t61 -19q37 0 59.5 14t35.5 50t22 104zM215 568h-91l129 156h88l89 -156h-82l-54 101z" />
    <glyph glyph-name="Gbreve" unicode="&#x11e;" horiz-adv-x="601" 
d="M314 284l13 100h253l-14 -113q-12 -101 -41 -162.5t-85.5 -91t-149.5 -29.5q-89 0 -142.5 23.5t-78.5 76t-25 141.5q0 60 10 131q18 146 49.5 222.5t90.5 109t164 32.5q92 0 143.5 -26t70.5 -77t15 -133h-113q4 72 -23 100.5t-96 28.5q-63 0 -96 -20.5t-50.5 -73
t-31.5 -163.5q-13 -92 -13 -149q0 -53 12.5 -80.5t39 -37.5t74.5 -10q54 0 85.5 15.5t48.5 54t26 109.5l2 22h-138zM248 893q0 17 1 26h64q-1 -7 -1 -20q0 -36 14.5 -51t47.5 -15q38 0 56.5 19t27.5 67h64q-13 -82 -48.5 -116.5t-101.5 -34.5q-124 0 -124 125z" />
    <glyph glyph-name="gbreve" unicode="&#x11f;" horiz-adv-x="513" 
d="M31 178q0 31 5 79q12 94 37.5 149.5t68.5 80.5t109 25q97 0 118 -80l10 72h108l-65 -529q-13 -100 -64 -145.5t-154 -45.5q-108 0 -148.5 43t-36.5 130h108q-2 -48 13 -66t64 -18t72 20.5t30 76.5l11 87q-40 -59 -119 -59q-86 0 -126.5 42t-40.5 138zM342 255q5 47 5 70
q0 51 -18.5 69.5t-62.5 18.5q-38 0 -59 -12.5t-33.5 -46t-21.5 -99.5q-6 -48 -6 -78q0 -52 18 -71t61 -19q37 0 59.5 14t35.5 50t22 104zM158 685q0 17 1 26h64q-1 -7 -1 -20q0 -36 14.5 -51t47.5 -15q38 0 56.5 19t27.5 67h64q-13 -82 -48.5 -116.5t-101.5 -34.5
q-124 0 -124 125z" />
    <glyph glyph-name="Gdotaccent" unicode="&#x120;" horiz-adv-x="601" 
d="M314 284l13 100h253l-14 -113q-12 -101 -41 -162.5t-85.5 -91t-149.5 -29.5q-89 0 -142.5 23.5t-78.5 76t-25 141.5q0 60 10 131q18 146 49.5 222.5t90.5 109t164 32.5q92 0 143.5 -26t70.5 -77t15 -133h-113q4 72 -23 100.5t-96 28.5q-63 0 -96 -20.5t-50.5 -73
t-31.5 -163.5q-13 -92 -13 -149q0 -53 12.5 -80.5t39 -37.5t74.5 -10q54 0 85.5 15.5t48.5 54t26 109.5l2 22h-138zM419 798h-97l13 108h97z" />
    <glyph glyph-name="gdotaccent" unicode="&#x121;" horiz-adv-x="513" 
d="M31 178q0 31 5 79q12 94 37.5 149.5t68.5 80.5t109 25q97 0 118 -80l10 72h108l-65 -529q-13 -100 -64 -145.5t-154 -45.5q-108 0 -148.5 43t-36.5 130h108q-2 -48 13 -66t64 -18t72 20.5t30 76.5l11 87q-40 -59 -119 -59q-86 0 -126.5 42t-40.5 138zM342 255q5 47 5 70
q0 51 -18.5 69.5t-62.5 18.5q-38 0 -59 -12.5t-33.5 -46t-21.5 -99.5q-6 -48 -6 -78q0 -52 18 -71t61 -19q37 0 59.5 14t35.5 50t22 104zM329 590h-97l13 108h97z" />
    <glyph glyph-name="uni0122" unicode="&#x122;" horiz-adv-x="601" 
d="M314 284l13 100h253l-14 -113q-12 -101 -41 -162.5t-85.5 -91t-149.5 -29.5q-89 0 -142.5 23.5t-78.5 76t-25 141.5q0 60 10 131q18 146 49.5 222.5t90.5 109t164 32.5q92 0 143.5 -26t70.5 -77t15 -133h-113q4 72 -23 100.5t-96 28.5q-63 0 -96 -20.5t-50.5 -73
t-31.5 -163.5q-13 -92 -13 -149q0 -53 12.5 -80.5t39 -37.5t74.5 -10q54 0 85.5 15.5t48.5 54t26 109.5l2 22h-138zM205 -208l19 152h95l-7 -56l-56 -96h-51z" />
    <glyph glyph-name="uni0123" unicode="&#x123;" horiz-adv-x="513" 
d="M31 178q0 31 5 79q12 94 37.5 149.5t68.5 80.5t109 25q97 0 118 -80l10 72h108l-65 -529q-13 -100 -64 -145.5t-154 -45.5q-108 0 -148.5 43t-36.5 130h108q-2 -48 13 -66t64 -18t72 20.5t30 76.5l11 87q-40 -59 -119 -59q-86 0 -126.5 42t-40.5 138zM342 255q5 47 5 70
q0 51 -18.5 69.5t-62.5 18.5q-38 0 -59 -12.5t-33.5 -46t-21.5 -99.5q-6 -48 -6 -78q0 -52 18 -71t61 -19q37 0 59.5 14t35.5 50t22 104zM327 560h-96l8 56l55 96h52z" />
    <glyph glyph-name="Hcircumflex" unicode="&#x124;" horiz-adv-x="633" 
d="M156 0h-118l87 712h118l-37 -302h259l38 302h118l-87 -712h-118l37 310h-259zM318 776h-91l129 156h88l89 -156h-82l-54 101z" />
    <glyph glyph-name="hcircumflex" unicode="&#x125;" horiz-adv-x="500" 
d="M26 0l87 712h114l-31 -255q37 55 117 55q146 0 146 -142q0 -19 -3 -42l-39 -328h-115l37 305q3 23 3 39q0 38 -16 53t-53 15q-46 0 -67.5 -23t-28.5 -84l-37 -305h-114zM117 776h-91l129 156h88l89 -156h-82l-54 101z" />
    <glyph glyph-name="Hbar" unicode="&#x126;" horiz-adv-x="636" 
d="M102 516h-47l11 89h47l13 107h118l-13 -107h260l13 107h117l-13 -107h48l-11 -89h-48l-63 -516h-117l37 310h-259l-38 -310h-118zM480 516h-260l-13 -106h260z" />
    <glyph glyph-name="hbar" unicode="&#x127;" horiz-adv-x="500" 
d="M42 572l9 70h54l8 70h114l-9 -70h114l-9 -70h-114l-13 -115q37 55 117 55q146 0 146 -142q0 -19 -3 -42l-39 -328h-115l37 305q3 23 3 39q0 38 -16 53t-53 15q-46 0 -67.5 -23t-28.5 -84l-37 -305h-114l70 572h-54z" />
    <glyph glyph-name="Itilde" unicode="&#x128;" horiz-adv-x="256" 
d="M156 0h-118l87 712h118zM67 846q10 73 76 73q18 0 31 -8t34 -25q14 -13 23 -19t19 -6q14 0 17 23l4 34h64l-7 -55q-10 -72 -75 -72q-19 0 -33.5 8.5t-33.5 25.5q-2 2 -10.5 9t-15 10.5t-13.5 3.5q-15 0 -18 -23l-4 -33h-64z" />
    <glyph glyph-name="itilde" unicode="&#x129;" horiz-adv-x="227" 
d="M139 0h-114l62 504h114zM32 638q10 73 76 73q18 0 31 -8t34 -25q14 -13 23 -19t19 -6q14 0 17 23l4 34h64l-7 -55q-10 -72 -75 -72q-19 0 -33.5 8.5t-33.5 25.5q-2 2 -10.5 9t-15 10.5t-13.5 3.5q-15 0 -18 -23l-4 -33h-64z" />
    <glyph glyph-name="Imacron" unicode="&#x12a;" horiz-adv-x="256" 
d="M156 0h-118l87 712h118zM331 817h-273l9 74h273z" />
    <glyph glyph-name="imacron" unicode="&#x12b;" horiz-adv-x="227" 
d="M139 0h-114l62 504h114zM296 609h-273l9 74h273z" />
    <glyph glyph-name="Ibreve" unicode="&#x12c;" horiz-adv-x="256" 
d="M156 0h-118l87 712h118zM70 893q0 17 1 26h64q-1 -7 -1 -20q0 -36 14.5 -51t47.5 -15q38 0 56.5 19t27.5 67h64q-13 -82 -48.5 -116.5t-101.5 -34.5q-124 0 -124 125z" />
    <glyph glyph-name="ibreve" unicode="&#x12d;" horiz-adv-x="227" 
d="M139 0h-114l62 504h114zM35 685q0 17 1 26h64q-1 -7 -1 -20q0 -36 14.5 -51t47.5 -15q38 0 56.5 19t27.5 67h64q-13 -82 -48.5 -116.5t-101.5 -34.5q-124 0 -124 125z" />
    <glyph glyph-name="Iogonek" unicode="&#x12e;" horiz-adv-x="256" 
d="M38 0l87 712h118l-87 -712q-46 -41 -65.5 -64t-19.5 -50q0 -38 46 -38h31l-7 -64h-36q-51 0 -77.5 20.5t-26.5 57.5q0 35 21 60.5t61 58.5l22 19h-67z" />
    <glyph glyph-name="iogonek" unicode="&#x12f;" horiz-adv-x="227" 
d="M213 601h-114l13 111h114zM25 0l62 504h114l-62 -504q-46 -40 -65 -63t-19 -51q0 -38 45 -38h32l-8 -64h-36q-51 0 -77 20.5t-26 57.5q0 36 22 62.5t65 61.5q18 15 17 14h-64z" />
    <glyph glyph-name="Idotaccent" unicode="&#x130;" horiz-adv-x="256" 
d="M156 0h-118l87 712h118zM241 798h-97l13 108h97z" />
    <glyph glyph-name="dotlessi" unicode="&#x131;" horiz-adv-x="227" 
d="M139 0h-114l62 504h114z" />
    <glyph glyph-name="IJ" unicode="&#x132;" horiz-adv-x="642" 
d="M156 0h-118l87 712h118zM330 95q57 0 87 24t37 79l62 514h118l-62 -504q-13 -107 -66 -157.5t-170 -50.5h-104l11 95h87z" />
    <glyph glyph-name="ij" unicode="&#x133;" horiz-adv-x="445" 
d="M213 601h-114l13 111h114zM139 0h-114l62 504h114zM431 601h-114l13 111h114zM305 504h114l-67 -545q-11 -85 -53.5 -126t-125.5 -41h-50l11 89h30q34 0 51.5 15.5t21.5 49.5z" />
    <glyph glyph-name="Jcircumflex" unicode="&#x134;" horiz-adv-x="396" 
d="M84 95q57 0 87 24t37 79l62 514h118l-62 -504q-13 -107 -66 -157.5t-170 -50.5h-104l11 95h87zM274 776h-91l129 156h88l89 -156h-82l-54 101z" />
    <glyph glyph-name="jcircumflex" unicode="&#x135;" horiz-adv-x="227" 
d="M87 504h114l-67 -545q-11 -85 -53.5 -126t-126.5 -41h-49l11 89h31q33 0 50 15t22 50zM92 568h-91l129 156h88l89 -156h-82l-54 101z" />
    <glyph glyph-name="uni0136" unicode="&#x136;" horiz-adv-x="582" 
d="M156 0h-118l87 712h118l-42 -347l300 347h135l-270 -307l184 -405h-127l-143 318l-99 -114zM206 -208l19 152h95l-7 -56l-56 -96h-51z" />
    <glyph glyph-name="uni0137" unicode="&#x137;" horiz-adv-x="474" 
d="M140 0h-114l87 712h114l-53 -427l203 219h127l-196 -209l134 -295h-123l-95 212l-67 -73zM155 -208l19 152h95l-7 -56l-56 -96h-51z" />
    <glyph glyph-name="Lacute" unicode="&#x139;" horiz-adv-x="481" 
d="M438 0h-400l87 712h118l-76 -617h283zM221 776h-81l95 156h116z" />
    <glyph glyph-name="lacute" unicode="&#x13a;" horiz-adv-x="227" 
d="M140 0h-114l87 712h114zM204 776h-81l95 156h116z" />
    <glyph glyph-name="uni013B" unicode="&#x13b;" horiz-adv-x="481" 
d="M438 0h-400l87 712h118l-76 -617h283zM166 -208l19 152h95l-7 -56l-56 -96h-51z" />
    <glyph glyph-name="uni013C" unicode="&#x13c;" horiz-adv-x="227" 
d="M140 0h-114l87 712h114zM13 -208l19 152h95l-7 -56l-56 -96h-51z" />
    <glyph glyph-name="Lcaron" unicode="&#x13d;" horiz-adv-x="484" 
d="M438 0h-400l87 712h118l-76 -617h283zM368 560l19 152h95l-7 -56l-56 -96h-51z" />
    <glyph glyph-name="lcaron" unicode="&#x13e;" horiz-adv-x="235" 
d="M140 0h-114l87 712h114zM249 560l19 152h95l-7 -56l-56 -96h-51z" />
    <glyph glyph-name="Ldot" unicode="&#x13f;" horiz-adv-x="485" 
d="M438 0h-400l87 712h118l-76 -617h283zM439 312h-97l13 108h97z" />
    <glyph glyph-name="ldot" unicode="&#x140;" horiz-adv-x="294" 
d="M140 0h-114l87 712h114zM317 312h-97l13 108h97z" />
    <glyph glyph-name="Lslash" unicode="&#x141;" horiz-adv-x="495" 
d="M82 241l-72 -49l12 100l72 49l46 371h117l-35 -285l184 124l-13 -99l-183 -125l-28 -232h282l-11 -95h-400z" />
    <glyph glyph-name="lslash" unicode="&#x142;" horiz-adv-x="276" 
d="M86 287l-68 -46l9 81l69 47l42 343h114l-32 -261l69 47l-10 -81l-69 -47l-45 -370h-114z" />
    <glyph glyph-name="Nacute" unicode="&#x143;" horiz-adv-x="633" 
d="M150 0h-112l87 712h117l205 -500l62 500h112l-87 -712h-117l-206 500zM412 776h-81l95 156h116z" />
    <glyph glyph-name="nacute" unicode="&#x144;" horiz-adv-x="499" 
d="M25 0l62 504h109l-7 -57q34 65 123 65q147 0 147 -143q0 -20 -3 -41l-40 -328h-114l37 305q2 14 2 37q0 39 -15.5 54.5t-52.5 15.5q-47 0 -68 -23t-29 -84l-37 -305h-114zM313 568h-81l95 156h116z" />
    <glyph glyph-name="uni0145" unicode="&#x145;" horiz-adv-x="633" 
d="M150 0h-112l87 712h117l205 -500l62 500h112l-87 -712h-117l-206 500zM224 -208l19 152h95l-7 -56l-56 -96h-51z" />
    <glyph glyph-name="uni0146" unicode="&#x146;" horiz-adv-x="499" 
d="M25 0l62 504h109l-7 -57q34 65 123 65q147 0 147 -143q0 -20 -3 -41l-40 -328h-114l37 305q2 14 2 37q0 39 -15.5 54.5t-52.5 15.5q-47 0 -68 -23t-29 -84l-37 -305h-114zM148 -208l19 152h95l-7 -56l-56 -96h-51z" />
    <glyph glyph-name="Ncaron" unicode="&#x147;" horiz-adv-x="633" 
d="M150 0h-112l87 712h117l205 -500l62 500h112l-87 -712h-117l-206 500zM429 776h-88l-89 156h84l54 -102l79 102h89z" />
    <glyph glyph-name="ncaron" unicode="&#x148;" horiz-adv-x="499" 
d="M25 0l62 504h109l-7 -57q34 65 123 65q147 0 147 -143q0 -20 -3 -41l-40 -328h-114l37 305q2 14 2 37q0 39 -15.5 54.5t-52.5 15.5q-47 0 -68 -23t-29 -84l-37 -305h-114zM330 568h-88l-89 156h84l54 -102l79 102h89z" />
    <glyph glyph-name="napostrophe" unicode="&#x149;" horiz-adv-x="499" 
d="M25 0l62 504h109l-7 -57q34 65 123 65q147 0 147 -143q0 -20 -3 -41l-40 -328h-114l37 305q2 14 2 37q0 39 -15.5 54.5t-52.5 15.5q-47 0 -68 -23t-29 -84l-37 -305h-114zM149 560h-51l19 152h95l-7 -56z" />
    <glyph glyph-name="Eng" unicode="&#x14a;" horiz-adv-x="633" 
d="M38 0l87 712h120l205 -478l59 478h112l-88 -712q-13 -106 -66.5 -157t-165.5 -51h-60l11 95h53q56 0 82 23.5t33 79.5l3 27l-211 493l-62 -510h-112z" />
    <glyph glyph-name="eng" unicode="&#x14b;" horiz-adv-x="499" 
d="M222 -119q33 0 51 15.5t22 49.5l44 359q2 14 2 37q0 39 -15.5 54.5t-52.5 15.5q-45 0 -67 -23t-30 -84l-37 -305h-114l62 504h109l-7 -57q34 65 123 65q147 0 147 -143q0 -20 -3 -41l-45 -369q-11 -85 -54 -126t-128 -41h-49l11 89h31z" />
    <glyph glyph-name="Omacron" unicode="&#x14c;" horiz-adv-x="621" 
d="M44 231q0 61 10 132q18 145 49.5 221.5t90.5 108t164 31.5q88 0 141 -23t78.5 -75.5t25.5 -143.5q0 -55 -9 -127q-18 -145 -48.5 -222.5t-89.5 -111t-167 -33.5q-89 0 -142 23.5t-78 76.5t-25 143zM472 360q10 90 10 129q0 51 -12 78.5t-39 38.5t-76 11q-64 0 -97 -20.5
t-50.5 -73.5t-31.5 -163q-12 -96 -12 -149t12.5 -80.5t39 -37.5t74.5 -10q65 0 97.5 20t50.5 77t34 180zM514 817h-273l9 74h273z" />
    <glyph glyph-name="omacron" unicode="&#x14d;" horiz-adv-x="492" 
d="M30 177q0 39 6 79q11 98 36.5 153t72.5 79t127 24q100 0 145 -43t45 -143q0 -24 -6 -78q-11 -97 -36.5 -152t-73 -79.5t-126.5 -24.5q-100 0 -145 43t-45 142zM340 246q6 50 6 79q0 51 -18.5 69.5t-62.5 18.5q-38 0 -59 -13t-34 -47t-21 -101q-7 -58 -7 -82
q0 -51 18.5 -70t61.5 -19q37 0 59 13.5t35 48.5t22 103zM422 609h-273l9 74h273z" />
    <glyph glyph-name="Obreve" unicode="&#x14e;" horiz-adv-x="621" 
d="M44 231q0 61 10 132q18 145 49.5 221.5t90.5 108t164 31.5q88 0 141 -23t78.5 -75.5t25.5 -143.5q0 -55 -9 -127q-18 -145 -48.5 -222.5t-89.5 -111t-167 -33.5q-89 0 -142 23.5t-78 76.5t-25 143zM472 360q10 90 10 129q0 51 -12 78.5t-39 38.5t-76 11q-64 0 -97 -20.5
t-50.5 -73.5t-31.5 -163q-12 -96 -12 -149t12.5 -80.5t39 -37.5t74.5 -10q65 0 97.5 20t50.5 77t34 180zM253 893q0 17 1 26h64q-1 -7 -1 -20q0 -36 14.5 -51t47.5 -15q38 0 56.5 19t27.5 67h64q-13 -82 -48.5 -116.5t-101.5 -34.5q-124 0 -124 125z" />
    <glyph glyph-name="obreve" unicode="&#x14f;" horiz-adv-x="492" 
d="M30 177q0 39 6 79q11 98 36.5 153t72.5 79t127 24q100 0 145 -43t45 -143q0 -24 -6 -78q-11 -97 -36.5 -152t-73 -79.5t-126.5 -24.5q-100 0 -145 43t-45 142zM340 246q6 50 6 79q0 51 -18.5 69.5t-62.5 18.5q-38 0 -59 -13t-34 -47t-21 -101q-7 -58 -7 -82
q0 -51 18.5 -70t61.5 -19q37 0 59 13.5t35 48.5t22 103zM161 685q0 17 1 26h64q-1 -7 -1 -20q0 -36 14.5 -51t47.5 -15q38 0 56.5 19t27.5 67h64q-13 -82 -48.5 -116.5t-101.5 -34.5q-124 0 -124 125z" />
    <glyph glyph-name="Ohungarumlaut" unicode="&#x150;" horiz-adv-x="621" 
d="M44 231q0 61 10 132q18 145 49.5 221.5t90.5 108t164 31.5q88 0 141 -23t78.5 -75.5t25.5 -143.5q0 -55 -9 -127q-18 -145 -48.5 -222.5t-89.5 -111t-167 -33.5q-89 0 -142 23.5t-78 76.5t-25 143zM472 360q10 90 10 129q0 51 -12 78.5t-39 38.5t-76 11q-64 0 -97 -20.5
t-50.5 -73.5t-31.5 -163q-12 -96 -12 -149t12.5 -80.5t39 -37.5t74.5 -10q65 0 97.5 20t50.5 77t34 180zM314 776h-82l96 156h116zM479 776h-81l96 156h115z" />
    <glyph glyph-name="ohungarumlaut" unicode="&#x151;" horiz-adv-x="492" 
d="M30 177q0 39 6 79q11 98 36.5 153t72.5 79t127 24q100 0 145 -43t45 -143q0 -24 -6 -78q-11 -97 -36.5 -152t-73 -79.5t-126.5 -24.5q-100 0 -145 43t-45 142zM340 246q6 50 6 79q0 51 -18.5 69.5t-62.5 18.5q-38 0 -59 -13t-34 -47t-21 -101q-7 -58 -7 -82
q0 -51 18.5 -70t61.5 -19q37 0 59 13.5t35 48.5t22 103zM222 568h-82l96 156h116zM387 568h-81l96 156h115z" />
    <glyph glyph-name="OE" unicode="&#x152;" horiz-adv-x="882" 
d="M294 0q-90 0 -144.5 23t-80 75t-25.5 140q0 53 9 120q18 140 49 215t90 107t163 32h546l-13 -106h-291l-23 -195h261l-13 -98h-261l-26 -218h290l-11 -95h-520zM291 95h126l63 510h-126q-63 0 -96 -20t-51 -70.5t-31 -154.5q-11 -91 -11 -138q0 -52 12 -79.5t38.5 -37.5
t75.5 -10z" />
    <glyph glyph-name="oe" unicode="&#x153;" horiz-adv-x="776" 
d="M379 58q-25 -34 -63.5 -50t-94.5 -16q-100 0 -145.5 43t-45.5 141q0 36 6 79q12 98 37 153t71.5 79.5t124.5 24.5q108 0 148 -67q51 67 153 67q94 0 135.5 -44.5t41.5 -136.5q0 -42 -5 -77l-3 -22h-287q-3 -37 -3 -63q0 -54 17.5 -72t61.5 -18q43 0 64 16t31 58h103
q-17 -79 -64 -120t-138 -41q-106 0 -145 66zM464 310h177q1 9 1 25q0 46 -17.5 63.5t-58.5 17.5q-44 0 -66.5 -21.5t-35.5 -84.5zM340 252q6 45 6 73q0 51 -18.5 69.5t-62.5 18.5q-38 0 -59.5 -13t-34 -47t-20.5 -101q-7 -59 -7 -82q0 -52 18 -70.5t62 -18.5q38 0 60 14
t35 50.5t21 106.5z" />
    <glyph glyph-name="Racute" unicode="&#x154;" horiz-adv-x="568" 
d="M38 0l87 712h234q102 0 150.5 -40.5t48.5 -136.5q0 -23 -3 -52q-10 -102 -46.5 -148.5t-106.5 -57.5l115 -277h-126l-103 260h-100l-32 -260h-118zM229 605l-29 -246h115q41 0 63.5 9t36 35.5t19.5 80.5q3 26 3 43q0 46 -21.5 62t-72.5 16h-114zM370 776h-81l95 156h116z
" />
    <glyph glyph-name="racute" unicode="&#x155;" horiz-adv-x="316" 
d="M64 338q10 87 51.5 126.5t127.5 39.5h90l-12 -95h-70q-34 0 -51.5 -15.5t-21.5 -49.5l-42 -344h-113zM261 569h-81l95 156h116z" />
    <glyph glyph-name="uni0156" unicode="&#x156;" horiz-adv-x="568" 
d="M38 0l87 712h234q102 0 150.5 -40.5t48.5 -136.5q0 -23 -3 -52q-10 -102 -46.5 -148.5t-106.5 -57.5l115 -277h-126l-103 260h-100l-32 -260h-118zM229 605l-29 -246h115q41 0 63.5 9t36 35.5t19.5 80.5q3 26 3 43q0 46 -21.5 62t-72.5 16h-114zM196 -208l19 152h95
l-7 -56l-56 -96h-51z" />
    <glyph glyph-name="uni0157" unicode="&#x157;" horiz-adv-x="316" 
d="M64 338q10 87 51.5 126.5t127.5 39.5h90l-12 -95h-70q-34 0 -51.5 -15.5t-21.5 -49.5l-42 -344h-113zM8 -208l19 152h95l-7 -56l-56 -96h-51z" />
    <glyph glyph-name="Rcaron" unicode="&#x158;" horiz-adv-x="568" 
d="M38 0l87 712h234q102 0 150.5 -40.5t48.5 -136.5q0 -23 -3 -52q-10 -102 -46.5 -148.5t-106.5 -57.5l115 -277h-126l-103 260h-100l-32 -260h-118zM229 605l-29 -246h115q41 0 63.5 9t36 35.5t19.5 80.5q3 26 3 43q0 46 -21.5 62t-72.5 16h-114zM387 776h-88l-89 156h84
l54 -102l79 102h89z" />
    <glyph glyph-name="rcaron" unicode="&#x159;" horiz-adv-x="316" 
d="M64 338q10 87 51.5 126.5t127.5 39.5h90l-12 -95h-70q-34 0 -51.5 -15.5t-21.5 -49.5l-42 -344h-113zM278 569h-88l-89 156h84l54 -102l79 102h89z" />
    <glyph glyph-name="Sacute" unicode="&#x15a;" horiz-adv-x="545" 
d="M144 218q-1 -9 -1 -25q0 -61 25 -85.5t88 -24.5q128 0 128 121q0 38 -22.5 57t-76.5 33l-54 14q-81 22 -121 61t-40 115q0 115 62 177.5t184 62.5q120 0 169 -47t49 -149q0 -26 -1 -40h-114q3 51 -7 79t-33.5 39t-67.5 11q-57 0 -88.5 -28.5t-31.5 -87.5q0 -39 23 -57
t76 -32l55 -15q81 -21 120.5 -62t39.5 -113q0 -117 -64.5 -175.5t-190.5 -58.5q-118 0 -170.5 44.5t-52.5 146.5q0 11 2 39h115zM361 776h-81l95 156h116z" />
    <glyph glyph-name="sacute" unicode="&#x15b;" horiz-adv-x="436" 
d="M122 150q-3 -42 14 -58t60 -16t64 15t21 55q0 23 -14 33t-54 19l-56 12q-53 13 -81.5 43.5t-28.5 85.5q0 87 49.5 130t144.5 43q86 0 127.5 -30.5t41.5 -99.5q0 -23 -2 -36h-101q1 7 1 18q0 33 -15 44t-54 11q-42 0 -62 -14t-20 -53q0 -22 14 -33.5t52 -20.5l57 -12
q112 -25 112 -126q0 -88 -51.5 -128t-150.5 -40q-102 0 -138 41t-32 117h102zM281 568h-81l95 156h116z" />
    <glyph glyph-name="Scircumflex" unicode="&#x15c;" horiz-adv-x="545" 
d="M144 218q-1 -9 -1 -25q0 -61 25 -85.5t88 -24.5q128 0 128 121q0 38 -22.5 57t-76.5 33l-54 14q-81 22 -121 61t-40 115q0 115 62 177.5t184 62.5q120 0 169 -47t49 -149q0 -26 -1 -40h-114q3 51 -7 79t-33.5 39t-67.5 11q-57 0 -88.5 -28.5t-31.5 -87.5q0 -39 23 -57
t76 -32l55 -15q81 -21 120.5 -62t39.5 -113q0 -117 -64.5 -175.5t-190.5 -58.5q-118 0 -170.5 44.5t-52.5 146.5q0 11 2 39h115zM271 776h-91l129 156h88l89 -156h-82l-54 101z" />
    <glyph glyph-name="scircumflex" unicode="&#x15d;" horiz-adv-x="436" 
d="M122 150q-3 -42 14 -58t60 -16t64 15t21 55q0 23 -14 33t-54 19l-56 12q-53 13 -81.5 43.5t-28.5 85.5q0 87 49.5 130t144.5 43q86 0 127.5 -30.5t41.5 -99.5q0 -23 -2 -36h-101q1 7 1 18q0 33 -15 44t-54 11q-42 0 -62 -14t-20 -53q0 -22 14 -33.5t52 -20.5l57 -12
q112 -25 112 -126q0 -88 -51.5 -128t-150.5 -40q-102 0 -138 41t-32 117h102zM191 568h-91l129 156h88l89 -156h-82l-54 101z" />
    <glyph glyph-name="Scedilla" unicode="&#x15e;" horiz-adv-x="545" 
d="M221 -11q-101 5 -147.5 50.5t-46.5 140.5q0 12 2 38h115q-1 -9 -1 -25q0 -61 25 -85.5t88 -24.5q128 0 128 121q0 38 -22.5 57t-76.5 33l-54 14q-81 22 -121 61t-40 115q0 115 62 177.5t184 62.5q120 0 169 -47t49 -149q0 -26 -1 -40h-114q3 51 -7 79t-33.5 39t-67.5 11
q-57 0 -88.5 -28.5t-31.5 -87.5q0 -39 23 -57t76 -32l55 -15q81 -21 120.5 -62t39.5 -113q0 -228 -244 -234l-3 -23q50 -2 73 -23.5t23 -55.5q0 -51 -34.5 -76.5t-92.5 -25.5h-77l6 53h58q28 0 44 10t16 36q0 17 -12 25t-38 8h-33z" />
    <glyph glyph-name="scedilla" unicode="&#x15f;" horiz-adv-x="436" 
d="M166 -7q-88 5 -119 45.5t-27 111.5h102q-3 -42 14 -58t60 -16t64 15t21 55q0 23 -14 33t-54 19l-56 12q-53 13 -81.5 43.5t-28.5 85.5q0 87 49.5 130t144.5 43q86 0 127.5 -30.5t41.5 -99.5q0 -23 -2 -36h-101q1 7 1 18q0 33 -15 44t-54 11q-42 0 -62 -14t-20 -53
q0 -22 14 -33.5t52 -20.5l57 -12q112 -25 112 -126q0 -85 -47.5 -125t-139.5 -42l-4 -28q50 -2 72.5 -23.5t22.5 -55.5q0 -51 -34 -76.5t-92 -25.5h-78l7 53h57q29 0 45 10t16 36q0 17 -12 25t-38 8h-34z" />
    <glyph glyph-name="Scaron" unicode="&#x160;" horiz-adv-x="545" 
d="M144 218q-1 -9 -1 -25q0 -61 25 -85.5t88 -24.5q128 0 128 121q0 38 -22.5 57t-76.5 33l-54 14q-81 22 -121 61t-40 115q0 115 62 177.5t184 62.5q120 0 169 -47t49 -149q0 -26 -1 -40h-114q3 51 -7 79t-33.5 39t-67.5 11q-57 0 -88.5 -28.5t-31.5 -87.5q0 -39 23 -57
t76 -32l55 -15q81 -21 120.5 -62t39.5 -113q0 -117 -64.5 -175.5t-190.5 -58.5q-118 0 -170.5 44.5t-52.5 146.5q0 11 2 39h115zM378 776h-88l-89 156h84l54 -102l79 102h89z" />
    <glyph glyph-name="scaron" unicode="&#x161;" horiz-adv-x="436" 
d="M122 150q-3 -42 14 -58t60 -16t64 15t21 55q0 23 -14 33t-54 19l-56 12q-53 13 -81.5 43.5t-28.5 85.5q0 87 49.5 130t144.5 43q86 0 127.5 -30.5t41.5 -99.5q0 -23 -2 -36h-101q1 7 1 18q0 33 -15 44t-54 11q-42 0 -62 -14t-20 -53q0 -22 14 -33.5t52 -20.5l57 -12
q112 -25 112 -126q0 -88 -51.5 -128t-150.5 -40q-102 0 -138 41t-32 117h102zM298 568h-88l-89 156h84l54 -102l79 102h89z" />
    <glyph glyph-name="uni0162" unicode="&#x162;" horiz-adv-x="525" 
d="M177 -84l35 84h-40l74 605h-188l13 107h495l-13 -107h-188l-74 -605h-41l-5 -35q50 -2 72.5 -23.5t22.5 -55.5q0 -51 -34.5 -76.5t-92.5 -25.5h-77l7 53h57q28 0 44.5 10t16.5 36q0 17 -12 25t-39 8h-33z" />
    <glyph glyph-name="uni0163" unicode="&#x163;" horiz-adv-x="336" 
d="M152 6q-45 11 -67.5 41.5t-22.5 82.5q0 17 3 38l29 241h-60l12 95h63l15 120h110l-15 -120h132l-12 -95h-131l-30 -245q-2 -18 -2 -24q0 -29 15 -40t51 -11h56l-10 -89h-70q-20 0 -29 1l-4 -36q50 -2 73 -23.5t23 -55.5q0 -51 -34.5 -76.5t-92.5 -25.5h-77l6 53h58
q28 0 44.5 10t16.5 36q0 17 -12.5 25t-38.5 8h-33z" />
    <glyph glyph-name="Tcaron" unicode="&#x164;" horiz-adv-x="525" 
d="M246 605h-188l13 107h495l-13 -107h-188l-74 -605h-119zM373 776h-88l-89 156h84l54 -102l79 102h89z" />
    <glyph glyph-name="tcaron" unicode="&#x165;" horiz-adv-x="336" 
d="M34 409l12 95h63l15 120h110l-15 -120h132l-12 -95h-131l-30 -245q-2 -18 -2 -24q0 -29 15 -40t51 -11h56l-10 -89h-70q-79 0 -117.5 31.5t-38.5 99.5q0 18 3 37l29 241h-60zM278 560l19 152h95l-7 -56l-56 -96h-51z" />
    <glyph glyph-name="Tbar" unicode="&#x166;" horiz-adv-x="548" 
d="M257 605h-188l13 107h495l-13 -107h-188l-24 -200h141l-11 -90h-141l-39 -315h-119l39 315h-142l11 90h141z" />
    <glyph glyph-name="tbar" unicode="&#x167;" horiz-adv-x="343" 
d="M39 409l11 95h64l14 120h111l-15 -120h131l-12 -95h-131l-14 -117h130l-8 -70h-131l-7 -58q-1 -8 -1 -22q0 -30 14.5 -41.5t49.5 -11.5h56l-9 -89h-70q-79 0 -117.5 31.5t-38.5 99.5q0 18 3 37l6 54h-60l8 70h60l15 117h-59z" />
    <glyph glyph-name="Utilde" unicode="&#x168;" horiz-adv-x="625" 
d="M120 712h118l-59 -483q-3 -24 -3 -43q0 -56 27.5 -79.5t88.5 -23.5q71 0 105 32.5t44 113.5l60 483h117l-59 -481q-10 -84 -39 -137t-84.5 -79.5t-145.5 -26.5q-119 0 -175.5 47.5t-56.5 143.5q0 25 3 52zM255 846q10 73 76 73q18 0 31 -8t34 -25q14 -13 23 -19t19 -6
q14 0 17 23l4 34h64l-7 -55q-10 -72 -75 -72q-19 0 -33.5 8.5t-33.5 25.5q-2 2 -10.5 9t-15 10.5t-13.5 3.5q-15 0 -18 -23l-4 -33h-64z" />
    <glyph glyph-name="utilde" unicode="&#x169;" horiz-adv-x="501" 
d="M85 504h113l-38 -313q-3 -22 -3 -40q0 -39 16 -54.5t53 -15.5q45 0 66.5 23.5t28.5 86.5l40 313h114l-62 -504h-109l7 58q-36 -66 -127 -66q-144 0 -144 141q0 21 3 43zM161 638q10 73 76 73q18 0 31 -8t34 -25q14 -13 23 -19t19 -6q14 0 17 23l4 34h64l-7 -55
q-10 -72 -75 -72q-19 0 -33.5 8.5t-33.5 25.5q-2 2 -10.5 9t-15 10.5t-13.5 3.5q-15 0 -18 -23l-4 -33h-64z" />
    <glyph glyph-name="Umacron" unicode="&#x16a;" horiz-adv-x="625" 
d="M120 712h118l-59 -483q-3 -24 -3 -43q0 -56 27.5 -79.5t88.5 -23.5q71 0 105 32.5t44 113.5l60 483h117l-59 -481q-10 -84 -39 -137t-84.5 -79.5t-145.5 -26.5q-119 0 -175.5 47.5t-56.5 143.5q0 25 3 52zM519 817h-273l9 74h273z" />
    <glyph glyph-name="umacron" unicode="&#x16b;" horiz-adv-x="501" 
d="M85 504h113l-38 -313q-3 -22 -3 -40q0 -39 16 -54.5t53 -15.5q45 0 66.5 23.5t28.5 86.5l40 313h114l-62 -504h-109l7 58q-36 -66 -127 -66q-144 0 -144 141q0 21 3 43zM425 609h-273l9 74h273z" />
    <glyph glyph-name="Ubreve" unicode="&#x16c;" horiz-adv-x="625" 
d="M120 712h118l-59 -483q-3 -24 -3 -43q0 -56 27.5 -79.5t88.5 -23.5q71 0 105 32.5t44 113.5l60 483h117l-59 -481q-10 -84 -39 -137t-84.5 -79.5t-145.5 -26.5q-119 0 -175.5 47.5t-56.5 143.5q0 25 3 52zM258 893q0 17 1 26h64q-1 -7 -1 -20q0 -36 14.5 -51t47.5 -15
q38 0 56.5 19t27.5 67h64q-13 -82 -48.5 -116.5t-101.5 -34.5q-124 0 -124 125z" />
    <glyph glyph-name="ubreve" unicode="&#x16d;" horiz-adv-x="501" 
d="M85 504h113l-38 -313q-3 -22 -3 -40q0 -39 16 -54.5t53 -15.5q45 0 66.5 23.5t28.5 86.5l40 313h114l-62 -504h-109l7 58q-36 -66 -127 -66q-144 0 -144 141q0 21 3 43zM164 685q0 17 1 26h64q-1 -7 -1 -20q0 -36 14.5 -51t47.5 -15q38 0 56.5 19t27.5 67h64
q-13 -82 -48.5 -116.5t-101.5 -34.5q-124 0 -124 125z" />
    <glyph glyph-name="Uring" unicode="&#x16e;" horiz-adv-x="625" 
d="M120 712h118l-59 -483q-3 -24 -3 -43q0 -56 27.5 -79.5t88.5 -23.5q71 0 105 32.5t44 113.5l60 483h117l-59 -481q-10 -84 -39 -137t-84.5 -79.5t-145.5 -26.5q-119 0 -175.5 47.5t-56.5 143.5q0 25 3 52zM287 851q0 52 27 84.5t84 32.5q93 0 93 -83q0 -52 -27 -84.5
t-84 -32.5q-93 0 -93 83zM438 884q0 19 -9.5 28t-33.5 9q-31 0 -43.5 -17.5t-12.5 -51.5q0 -18 9.5 -27.5t33.5 -9.5q31 0 43.5 17.5t12.5 51.5z" />
    <glyph glyph-name="uring" unicode="&#x16f;" horiz-adv-x="501" 
d="M85 504h113l-38 -313q-3 -22 -3 -40q0 -39 16 -54.5t53 -15.5q45 0 66.5 23.5t28.5 86.5l40 313h114l-62 -504h-109l7 58q-36 -66 -127 -66q-144 0 -144 141q0 21 3 43zM193 643q0 52 27 84.5t84 32.5q93 0 93 -83q0 -52 -27 -84.5t-84 -32.5q-93 0 -93 83zM344 676
q0 19 -9.5 28t-33.5 9q-31 0 -43.5 -17.5t-12.5 -51.5q0 -18 9.5 -27.5t33.5 -9.5q31 0 43.5 17.5t12.5 51.5z" />
    <glyph glyph-name="Uhungarumlaut" unicode="&#x170;" horiz-adv-x="625" 
d="M120 712h118l-59 -483q-3 -24 -3 -43q0 -56 27.5 -79.5t88.5 -23.5q71 0 105 32.5t44 113.5l60 483h117l-59 -481q-10 -84 -39 -137t-84.5 -79.5t-145.5 -26.5q-119 0 -175.5 47.5t-56.5 143.5q0 25 3 52zM319 776h-82l96 156h116zM484 776h-81l96 156h115z" />
    <glyph glyph-name="uhungarumlaut" unicode="&#x171;" horiz-adv-x="501" 
d="M85 504h113l-38 -313q-3 -22 -3 -40q0 -39 16 -54.5t53 -15.5q45 0 66.5 23.5t28.5 86.5l40 313h114l-62 -504h-109l7 58q-36 -66 -127 -66q-144 0 -144 141q0 21 3 43zM225 568h-82l96 156h116zM390 568h-81l96 156h115z" />
    <glyph glyph-name="Uogonek" unicode="&#x172;" horiz-adv-x="625" 
d="M327 -216q-51 0 -77 20.5t-26 57.5t23 64.5t67 62.5l-24 -1q-119 0 -175.5 47.5t-56.5 143.5q0 25 3 52l59 481h118l-59 -483q-3 -24 -3 -43q0 -56 27.5 -79.5t88.5 -23.5q71 0 105 32.5t44 113.5l60 483h117l-59 -481q-12 -104 -55.5 -162t-130.5 -74
q-42 -38 -60.5 -60.5t-18.5 -48.5q0 -38 46 -38h31l-7 -64h-37z" />
    <glyph glyph-name="uogonek" unicode="&#x173;" horiz-adv-x="501" 
d="M362 -216q-51 0 -77.5 20.5t-26.5 57.5q0 34 20.5 59.5t59.5 58.5q8 6 24 20h-58l7 58q-36 -66 -127 -66q-144 0 -144 141q0 21 3 43l42 328h113l-38 -313q-3 -22 -3 -40q0 -39 16 -54.5t53 -15.5q45 0 66.5 23.5t28.5 86.5l40 313h114l-62 -504q-47 -41 -66 -63.5
t-19 -50.5q0 -38 46 -38h32l-8 -64h-36z" />
    <glyph glyph-name="Wcircumflex" unicode="&#x174;" horiz-adv-x="893" 
d="M291 0h-137l-88 712h117l62 -570l217 570h90l75 -568l201 568h113l-263 -712h-132l-67 485zM447 776h-91l129 156h88l89 -156h-82l-54 101z" />
    <glyph glyph-name="wcircumflex" unicode="&#x175;" horiz-adv-x="712" 
d="M233 0h-109l-86 504h115l49 -349l146 349h86l59 -349l136 349h107l-210 -504h-107l-55 311zM332 568h-91l129 156h88l89 -156h-82l-54 101z" />
    <glyph glyph-name="Ycircumflex" unicode="&#x176;" horiz-adv-x="553" 
d="M305 0h-118l34 281l-158 431h123l111 -311l189 311h117l-266 -436zM284 776h-91l129 156h88l89 -156h-82l-54 101z" />
    <glyph glyph-name="ycircumflex" unicode="&#x177;" horiz-adv-x="460" 
d="M37 -119q34 0 56 15.5t39 56.5l18 41l-111 510h115l69 -354l155 354h108l-257 -559q-26 -56 -48.5 -87.5t-55.5 -48.5t-85 -17h-53l10 89h40zM212 568h-91l129 156h88l89 -156h-82l-54 101z" />
    <glyph glyph-name="Ydieresis" unicode="&#x178;" horiz-adv-x="553" 
d="M305 0h-118l34 281l-158 431h123l111 -311l189 311h117l-266 -436zM308 798h-96l13 108h96zM487 798h-97l14 108h96z" />
    <glyph glyph-name="Zacute" unicode="&#x179;" horiz-adv-x="494" 
d="M367 605h-300l13 107h448l-8 -71l-367 -546h293l-11 -95h-435l9 71zM339 776h-81l95 156h116z" />
    <glyph glyph-name="zacute" unicode="&#x17a;" horiz-adv-x="410" 
d="M257 409h-209l12 95h354l-8 -63l-255 -352h207l-10 -89h-346l7 63zM271 568h-81l95 156h116z" />
    <glyph glyph-name="Zdotaccent" unicode="&#x17b;" horiz-adv-x="494" 
d="M367 605h-300l13 107h448l-8 -71l-367 -546h293l-11 -95h-435l9 71zM363 798h-97l13 108h97z" />
    <glyph glyph-name="zdotaccent" unicode="&#x17c;" horiz-adv-x="410" 
d="M257 409h-209l12 95h354l-8 -63l-255 -352h207l-10 -89h-346l7 63zM295 590h-97l13 108h97z" />
    <glyph glyph-name="Zcaron" unicode="&#x17d;" horiz-adv-x="494" 
d="M367 605h-300l13 107h448l-8 -71l-367 -546h293l-11 -95h-435l9 71zM356 776h-88l-89 156h84l54 -102l79 102h89z" />
    <glyph glyph-name="zcaron" unicode="&#x17e;" horiz-adv-x="410" 
d="M257 409h-209l12 95h354l-8 -63l-255 -352h207l-10 -89h-346l7 63zM288 568h-88l-89 156h84l54 -102l79 102h89z" />
    <glyph glyph-name="longs" unicode="&#x17f;" horiz-adv-x="270" 
d="M39 409l12 95h60l5 45q11 83 53.5 123t124.5 40h84l-12 -99h-62q-34 0 -52 -15.5t-22 -52.5l-67 -545h-113l49 409h-60z" />
    <glyph glyph-name="uni018F" unicode="&#x18f;" horiz-adv-x="605" 
d="M46 344l5 43h408q7 55 7 99q0 51 -13 79.5t-40.5 40t-75.5 11.5q-49 0 -79 -12.5t-47.5 -40.5t-27.5 -78h-116q16 85 44.5 135.5t83 76.5t147.5 26q88 0 141 -23.5t78 -76.5t25 -144q0 -41 -9 -127q-17 -144 -47.5 -221t-90.5 -110.5t-167 -33.5q-84 0 -135 22t-75 73.5
t-24 139.5q0 47 8 121zM446 289h-286q-4 -40 -4 -79q0 -52 12 -79.5t37 -37.5t70 -10q57 0 88.5 15.5t50 58.5t32.5 132z" />
    <glyph glyph-name="florin" unicode="&#x192;" horiz-adv-x="560" 
d="M87 312l12 95h127l16 126q11 92 58 135.5t136 43.5h97l-13 -99h-69q-46 0 -66.5 -18.5t-27.5 -70.5l-15 -117h153l-12 -95h-153l-41 -341q-11 -92 -58 -135.5t-135 -43.5h-97l13 95h68q45 0 66 20t28 73l40 332h-127z" />
    <glyph glyph-name="AEacute" unicode="&#x1fc;" horiz-adv-x="832" 
d="M94 0h-120l333 712h543l-13 -108h-289l-24 -196h261l-12 -98h-261l-26 -211h289l-12 -99h-406l18 151h-212zM430 604h-59l-164 -354h180zM541 776h-81l95 156h116z" />
    <glyph glyph-name="aeacute" unicode="&#x1fd;" horiz-adv-x="730" 
d="M153 -8q-65 0 -102.5 33.5t-37.5 91.5t28.5 93t74.5 52t116 30l67 12l3 25q3 20 3 34q0 30 -14 42.5t-49 12.5q-44 0 -63 -16t-26 -62h-101q13 88 57.5 130t143.5 42q91 0 127 -48q51 48 145 48t135.5 -44.5t41.5 -136.5q0 -30 -5 -75l-3 -24h-289q-4 -33 -4 -63
q0 -53 19 -71.5t63 -18.5q43 0 64.5 16t31.5 58h102q-17 -79 -64 -120t-138 -41q-68 0 -110 19.5t-62 61.5q-18 -39 -57 -60t-97 -21zM417 310h179q1 9 1 25q0 46 -17.5 63.5t-58.5 17.5q-44 0 -67.5 -22t-36.5 -84zM290 224l-51 -8q-51 -7 -81.5 -23.5t-30.5 -58.5
q0 -28 15 -43t44 -15q86 0 97 94zM423 568h-81l95 156h116z" />
    <glyph glyph-name="Oslashacute" unicode="&#x1fe;" horiz-adv-x="626" 
d="M648 712l-12 -101l-40 -39q8 -42 8 -90q0 -41 -9 -127q-18 -145 -48.5 -222.5t-90 -111t-166.5 -33.5q-82 0 -133.5 20.5t-78.5 64.5l-76 -73l11 101l40 39q-8 42 -8 91q0 57 9 132q18 145 49.5 221t90.5 108t165 32q82 0 134 -20t79 -65zM166 248l311 299
q-9 39 -37 54.5t-83 15.5q-64 0 -97.5 -20.5t-51 -73t-31.5 -163.5q-7 -53 -11 -112zM481 462l-312 -301q8 -45 36 -61.5t86 -16.5q65 0 97.5 20t51 77t33.5 180q7 68 8 102zM402 776h-81l95 156h116z" />
    <glyph glyph-name="oslashacute" unicode="&#x1ff;" horiz-adv-x="499" 
d="M501 504l-10 -81l-31 -27q7 -28 7 -70q0 -36 -6 -78q-12 -97 -38 -152t-73 -79.5t-125 -24.5q-61 0 -100 15t-61 47l-63 -54l9 81l32 27q-7 28 -7 68q0 32 5 80q12 98 38 153t73 79t125 24q60 0 100 -15t62 -47zM151 203l195 168q-7 23 -25 32.5t-51 9.5q-38 0 -59 -13
t-34 -47t-21 -101zM351 302l-198 -171q6 -28 24 -39t52 -11q38 0 60 14t35 50t22 107zM316 568h-81l95 156h116z" />
    <glyph glyph-name="uni0218" unicode="&#x218;" horiz-adv-x="545" 
d="M144 218q-1 -9 -1 -25q0 -61 25 -85.5t88 -24.5q128 0 128 121q0 38 -22.5 57t-76.5 33l-54 14q-81 22 -121 61t-40 115q0 115 62 177.5t184 62.5q120 0 169 -47t49 -149q0 -26 -1 -40h-114q3 51 -7 79t-33.5 39t-67.5 11q-57 0 -88.5 -28.5t-31.5 -87.5q0 -39 23 -57
t76 -32l55 -15q81 -21 120.5 -62t39.5 -113q0 -117 -64.5 -175.5t-190.5 -58.5q-118 0 -170.5 44.5t-52.5 146.5q0 11 2 39h115zM172 -208l19 152h95l-7 -56l-56 -96h-51z" />
    <glyph glyph-name="uni0219" unicode="&#x219;" horiz-adv-x="436" 
d="M122 150q-3 -42 14 -58t60 -16t64 15t21 55q0 23 -14 33t-54 19l-56 12q-53 13 -81.5 43.5t-28.5 85.5q0 87 49.5 130t144.5 43q86 0 127.5 -30.5t41.5 -99.5q0 -23 -2 -36h-101q1 7 1 18q0 33 -15 44t-54 11q-42 0 -62 -14t-20 -53q0 -22 14 -33.5t52 -20.5l57 -12
q112 -25 112 -126q0 -88 -51.5 -128t-150.5 -40q-102 0 -138 41t-32 117h102zM115 -208l19 152h95l-7 -56l-56 -96h-51z" />
    <glyph glyph-name="uni021A" unicode="&#x21a;" horiz-adv-x="525" 
d="M246 605h-188l13 107h495l-13 -107h-188l-74 -605h-119zM159 -208l19 152h95l-7 -56l-56 -96h-51z" />
    <glyph glyph-name="uni021B" unicode="&#x21b;" horiz-adv-x="336" 
d="M34 409l12 95h63l15 120h110l-15 -120h132l-12 -95h-131l-30 -245q-2 -18 -2 -24q0 -29 15 -40t51 -11h56l-10 -89h-70q-79 0 -117.5 31.5t-38.5 99.5q0 18 3 37l29 241h-60zM99 -208l19 152h95l-7 -56l-56 -96h-51z" />
    <glyph glyph-name="uni0237" unicode="&#x237;" horiz-adv-x="227" 
d="M87 504h114l-67 -545q-11 -85 -53.5 -126t-126.5 -41h-49l11 89h31q33 0 50 15t22 50z" />
    <glyph glyph-name="uni0259" unicode="&#x259;" horiz-adv-x="470" 
d="M27 173q0 28 5 75l3 23h288q4 42 4 56q0 52 -19 70.5t-63 18.5q-40 0 -61 -16t-30 -53h-104q17 81 64 123t135 42q101 0 145.5 -44t44.5 -146q0 -36 -4 -69q-10 -94 -36 -151t-73.5 -83.5t-122.5 -26.5q-93 0 -134.5 44.5t-41.5 136.5zM312 193h-177q-1 -10 -1 -28
q0 -48 17 -67t56 -19q29 0 48.5 9t33 33.5t23.5 71.5z" />
    <glyph glyph-name="circumflex" unicode="&#x2c6;" horiz-adv-x="482" 
d="M213 568h-91l129 156h88l89 -156h-82l-54 101z" />
    <glyph glyph-name="caron" unicode="&#x2c7;" horiz-adv-x="482" 
d="M320 568h-88l-89 156h84l54 -102l79 102h89z" />
    <glyph glyph-name="uni02C9" unicode="&#x2c9;" horiz-adv-x="482" 
d="M417 609h-273l9 74h273z" />
    <glyph glyph-name="breve" unicode="&#x2d8;" horiz-adv-x="482" 
d="M156 685q0 17 1 26h64q-1 -7 -1 -20q0 -36 14.5 -51t47.5 -15q38 0 56.5 19t27.5 67h64q-13 -82 -48.5 -116.5t-101.5 -34.5q-124 0 -124 125z" />
    <glyph glyph-name="dotaccent" unicode="&#x2d9;" horiz-adv-x="482" 
d="M327 590h-97l13 108h97z" />
    <glyph glyph-name="ring" unicode="&#x2da;" horiz-adv-x="482" 
d="M185 643q0 52 27 84.5t84 32.5q93 0 93 -83q0 -52 -27 -84.5t-84 -32.5q-93 0 -93 83zM336 676q0 19 -9.5 28t-33.5 9q-31 0 -43.5 -17.5t-12.5 -51.5q0 -18 9.5 -27.5t33.5 -9.5q31 0 43.5 17.5t12.5 51.5z" />
    <glyph glyph-name="ogonek" unicode="&#x2db;" horiz-adv-x="482" 
d="M211 -216q-51 0 -77 20.5t-26 57.5q0 35 20.5 60.5t62.5 60.5l21 17h51q-47 -40 -66 -63t-19 -51q0 -38 46 -38h31l-7 -64h-37z" />
    <glyph glyph-name="tilde" unicode="&#x2dc;" horiz-adv-x="482" 
d="M153 638q10 73 76 73q18 0 31 -8t34 -25q14 -13 23 -19t19 -6q14 0 17 23l4 34h64l-7 -55q-10 -72 -75 -72q-19 0 -33.5 8.5t-33.5 25.5q-2 2 -10.5 9t-15 10.5t-13.5 3.5q-15 0 -18 -23l-4 -33h-64z" />
    <glyph glyph-name="hungarumlaut" unicode="&#x2dd;" horiz-adv-x="482" 
d="M217 568h-82l96 156h116zM382 568h-81l96 156h115z" />
    <glyph glyph-name="uni0326" unicode="&#x326;" horiz-adv-x="0" 
d="M-343 -208l19 152h95l-7 -56l-56 -96h-51z" />
    <glyph glyph-name="uni037E" unicode="&#x37e;" horiz-adv-x="213" 
d="M172 349h-107l15 123h108zM7 -128l29 251h109l-11 -88l-71 -163h-56z" />
    <glyph glyph-name="dieresistonos" unicode="&#x385;" horiz-adv-x="485" 
d="M286 568h-73l54 156h98zM200 590h-89l14 108h89zM446 590h-89l14 108h89z" />
    <glyph glyph-name="anoteleia" unicode="&#x387;" horiz-adv-x="202" 
d="M163 349h-107l15 123h108z" />
    <glyph glyph-name="uni0394" unicode="&#x394;" horiz-adv-x="579" 
d="M540 0h-563l297 712h142zM409 95l-81 489l-200 -489h281z" />
    <glyph glyph-name="uni03A9" unicode="&#x3a9;" horiz-adv-x="634" 
d="M20 0l11 95h140l3 26q-60 20 -89.5 66.5t-29.5 133.5q0 47 5 88q13 111 46.5 179.5t97 102t166.5 33.5q131 0 189.5 -55.5t58.5 -174.5q0 -39 -6 -87q-11 -93 -33 -150.5t-58.5 -89.5t-93.5 -46l-4 -26h140l-11 -95h-232l24 193q44 6 71.5 24.5t45.5 63t28 126.5
q6 64 6 83q0 70 -30.5 98.5t-103.5 28.5q-62 0 -97.5 -19.5t-54 -64.5t-27.5 -126q-6 -49 -6 -83q0 -69 24 -97t75 -34l-23 -193h-232z" />
    <glyph glyph-name="uni03BC" unicode="&#x3bc;" horiz-adv-x="521" 
d="M105 -208h-105l87 712h114l-38 -314q-3 -21 -3 -38q0 -39 16 -55t53 -16q45 0 66.5 23.5t29.5 86.5l39 313h114l-44 -359q-2 -16 -2 -21q0 -19 10 -27t34 -8h13l-11 -89h-42q-47 0 -74 14t-37 44q-19 -32 -51 -49t-73 -17q-48 0 -69 23z" />
    <glyph glyph-name="pi" unicode="&#x3c0;" horiz-adv-x="558" 
d="M36 409l12 95h517l-13 -95h-86l-32 -264q-1 -8 -1 -20q0 -20 9 -28t33 -8h18l-9 -89h-40q-70 0 -100 22.5t-30 75.5q0 9 2 31l35 280h-119l-79 -409h-114l83 409h-86z" />
    <glyph glyph-name="uni0400" unicode="&#x400;" horiz-adv-x="516" 
d="M446 0h-408l87 712h408l-13 -107h-290l-24 -195h266l-13 -100h-265l-27 -215h290zM384 776h-74l-90 156h109z" />
    <glyph glyph-name="uni0401" unicode="&#x401;" horiz-adv-x="516" 
d="M446 0h-408l87 712h408l-13 -107h-290l-24 -195h266l-13 -100h-265l-27 -215h290zM300 798h-96l13 108h96zM479 798h-97l14 108h96z" />
    <glyph glyph-name="uni0402" unicode="&#x402;" horiz-adv-x="678" 
d="M58 605l13 107h516l-12 -107h-236l-25 -201q73 10 129 10q103 0 153 -35.5t50 -128.5q0 -28 -2 -47q-10 -78 -34.5 -122t-67.5 -62.5t-112 -18.5h-62l11 95h38q37 0 57.5 8t31.5 31t17 68q3 24 3 34q0 47 -25.5 62.5t-85.5 15.5q-53 0 -112 -9l-37 -305h-118l73 605h-163
z" />
    <glyph glyph-name="uni0403" unicode="&#x403;" horiz-adv-x="481" 
d="M155 0h-117l87 712h397l-14 -107h-279zM358 776h-81l95 156h116z" />
    <glyph glyph-name="uni0404" unicode="&#x404;" horiz-adv-x="575" 
d="M54 358q19 146 50 223t89.5 110t163.5 33q83 0 131 -22t68 -65.5t20 -114.5q0 -24 -1 -37h-114q2 51 -6.5 79t-32.5 40.5t-71 12.5q-58 0 -89.5 -17t-49 -60.5t-29.5 -129.5h206l-13 -100h-205q-7 -72 -7 -103q0 -51 12 -77.5t37.5 -36.5t72.5 -10q46 0 73 13t42.5 41.5
t27.5 80.5h113q-16 -82 -44.5 -132t-79.5 -74t-135 -24q-88 0 -140 22.5t-76 73.5t-24 139q0 55 11 135z" />
    <glyph glyph-name="uni0405" unicode="&#x405;" horiz-adv-x="545" 
d="M144 218q-1 -9 -1 -25q0 -61 25 -85.5t88 -24.5q128 0 128 121q0 38 -22.5 57t-76.5 33l-54 14q-81 22 -121 61t-40 115q0 115 62 177.5t184 62.5q120 0 169 -47t49 -149q0 -26 -1 -40h-114q3 51 -7 79t-33.5 39t-67.5 11q-57 0 -88.5 -28.5t-31.5 -87.5q0 -39 23 -57
t76 -32l55 -15q81 -21 120.5 -62t39.5 -113q0 -117 -64.5 -175.5t-190.5 -58.5q-118 0 -170.5 44.5t-52.5 146.5q0 11 2 39h115z" />
    <glyph glyph-name="uni0406" unicode="&#x406;" horiz-adv-x="255" 
d="M156 0h-118l87 712h118z" />
    <glyph glyph-name="uni0407" unicode="&#x407;" horiz-adv-x="255" 
d="M156 0h-118l87 712h118zM172 797h-84l14 111h83zM295 797h-84l14 111h83z" />
    <glyph glyph-name="uni0408" unicode="&#x408;" horiz-adv-x="396" 
d="M84 95q57 0 87 24t37 79l62 514h118l-62 -504q-13 -107 -66 -157.5t-170 -50.5h-104l11 95h87z" />
    <glyph glyph-name="uni0409" unicode="&#x409;" horiz-adv-x="935" 
d="M-20 -7l12 102h31q30 0 46.5 9.5t24 29.5t13.5 59l79 519h433l-35 -284h138q96 0 139.5 -38t43.5 -126q0 -22 -3 -51q-9 -82 -35.5 -128t-72.5 -65.5t-119 -19.5h-261l74 605h-207l-64 -426q-9 -63 -26 -102.5t-51.5 -61.5t-95.5 -22h-64zM572 327l-29 -232h127
q39 0 60 9t33 34t18 74q2 17 2 40q0 43 -19.5 59t-66.5 16h-125z" />
    <glyph glyph-name="uni040A" unicode="&#x40a;" horiz-adv-x="929" 
d="M38 0l87 712h118l-37 -302h254l37 302h117l-35 -284h139q95 0 138.5 -38t43.5 -126q0 -22 -3 -51q-9 -82 -35.5 -128t-72.5 -65.5t-119 -19.5h-261l39 310h-254l-38 -310h-118zM567 327l-29 -232h127q39 0 60.5 9t33 34t17.5 74q3 26 3 40q0 43 -19.5 59t-67.5 16h-125z
" />
    <glyph glyph-name="uni040B" unicode="&#x40b;" horiz-adv-x="677" 
d="M58 605l14 107h516l-13 -107h-236l-23 -195q64 11 128 11q93 0 141 -34.5t48 -118.5q0 -21 -3 -45l-28 -223h-117l25 206q3 21 3 36q0 47 -23.5 62.5t-80.5 15.5q-40 0 -105 -9l-38 -311h-118l74 605h-164z" />
    <glyph glyph-name="uni040C" unicode="&#x40c;" horiz-adv-x="576" 
d="M155 0h-117l87 712h118l-38 -302h57l238 302h130l-272 -348l186 -364h-127l-159 310h-64zM396 776h-81l95 156h116z" />
    <glyph glyph-name="uni040D" unicode="&#x40d;" horiz-adv-x="638" 
d="M163 0h-125l87 712h111l-64 -523l328 523h126l-87 -712h-111l63 522zM428 776h-74l-90 156h109z" />
    <glyph glyph-name="uni040E" unicode="&#x40e;" horiz-adv-x="554" 
d="M51 -8l11 103h43q34 0 58.5 15.5t45.5 56.5l13 24l-167 521h117l121 -390l200 390h117l-304 -577q-38 -73 -81 -108t-117 -35h-57zM204 888q0 16 1 24l1 9h82l-1 -9q-1 -5 -1 -15q0 -31 17 -44.5t51 -13.5q36 0 57 17t27 56l1 9h82l-1 -9q-8 -74 -50 -106.5t-117 -32.5
q-149 0 -149 115z" />
    <glyph glyph-name="uni040F" unicode="&#x40f;" horiz-adv-x="630" 
d="M232 0h-194l87 712h118l-76 -617h256l76 617h118l-87 -712h-191l-20 -160h-107z" />
    <glyph glyph-name="uni0410" unicode="&#x410;" horiz-adv-x="578" 
d="M90 0h-114l298 712h142l125 -712h-117l-25 148h-249zM384 247l-55 336l-139 -336h194z" />
    <glyph glyph-name="uni0411" unicode="&#x411;" horiz-adv-x="560" 
d="M38 0l87 712h422l-13 -107h-304l-24 -191h138q97 0 140.5 -36.5t43.5 -120.5q0 -25 -3 -52q-10 -80 -36 -124.5t-71 -62.5t-118 -18h-262zM194 316l-28 -221h126q40 0 61.5 9t33 32t17.5 70q2 16 2 37q0 41 -20 57t-68 16h-124z" />
    <glyph glyph-name="uni0412" unicode="&#x412;" horiz-adv-x="580" 
d="M38 0l87 712h242q95 0 143 -42.5t48 -121.5q0 -12 -2 -30q-13 -121 -96 -150q41 -20 61.5 -57t20.5 -86q0 -7 -2 -25q-10 -104 -61 -152t-153 -48h-288zM230 605l-24 -195h129q50 0 72 22.5t29 76.5q1 9 1 27q0 36 -18.5 52.5t-61.5 16.5h-127zM194 311l-27 -216h146
q46 0 72.5 25t33.5 84q2 20 2 29q0 43 -20 60.5t-61 17.5h-146z" />
    <glyph glyph-name="uni0413" unicode="&#x413;" horiz-adv-x="484" 
d="M155 0h-117l87 712h397l-14 -107h-279z" />
    <glyph glyph-name="uni0414" unicode="&#x414;" horiz-adv-x="647" 
d="M90 0l-20 -156h-107l31 251h59q14 13 24.5 39.5t15.5 62.5l81 515h433l-75 -617h79l-32 -251h-107l20 156h-402zM414 95l63 510h-207l-64 -407q-7 -38 -14 -62t-18 -41h240z" />
    <glyph glyph-name="uni0415" unicode="&#x415;" horiz-adv-x="516" 
d="M446 0h-408l87 712h408l-13 -107h-290l-24 -195h266l-13 -100h-265l-27 -215h290z" />
    <glyph glyph-name="uni0416" unicode="&#x416;" horiz-adv-x="865" 
d="M105 0h-135l267 366l-178 346h123l153 -302h59l37 302h115l-38 -302h52l230 302h128l-264 -345l177 -367h-127l-149 310h-59l-38 -310h-115l39 310h-52z" />
    <glyph glyph-name="uni0417" unicode="&#x417;" horiz-adv-x="546" 
d="M137 217q-1 -10 -1 -28q0 -59 24 -82.5t88 -23.5q76 0 106 35.5t30 104.5q0 44 -25.5 64.5t-88.5 20.5h-52l12 102h52q73 0 102.5 32.5t29.5 95.5q0 43 -24 61t-77 18q-42 0 -68.5 -10t-43.5 -36.5t-26 -76.5h-113q13 79 40.5 128.5t79 75.5t136.5 26q215 0 215 -174
q0 -135 -112 -184q83 -35 83 -136q0 -114 -62 -178t-199 -64q-117 0 -169 45t-52 147q0 24 1 37h114z" />
    <glyph glyph-name="uni0418" unicode="&#x418;" horiz-adv-x="638" 
d="M163 0h-125l87 712h111l-64 -523l328 523h126l-87 -712h-111l63 522z" />
    <glyph glyph-name="uni0419" unicode="&#x419;" horiz-adv-x="638" 
d="M163 0h-125l87 712h111l-64 -523l328 523h126l-87 -712h-111l63 522zM240 888q0 16 1 24l1 9h82l-1 -9q-1 -5 -1 -15q0 -31 17 -44.5t51 -13.5q36 0 57 17t27 56l1 9h82l-1 -9q-8 -74 -50 -106.5t-117 -32.5q-149 0 -149 115z" />
    <glyph glyph-name="uni041A" unicode="&#x41a;" horiz-adv-x="576" 
d="M155 0h-117l87 712h118l-38 -302h57l238 302h130l-272 -348l186 -364h-127l-159 310h-64z" />
    <glyph glyph-name="uni041B" unicode="&#x41b;" horiz-adv-x="631" 
d="M-20 -7l12 102h31q30 0 46 9.5t23.5 29.5t13.5 59l80 519h433l-87 -712h-118l74 605h-207l-64 -426q-9 -63 -26 -102.5t-51.5 -61.5t-95.5 -22h-64z" />
    <glyph glyph-name="uni041C" unicode="&#x41c;" horiz-adv-x="778" 
d="M212 491l-79 -491h-110l118 712h134l108 -508l228 508h136l-53 -712h-112l37 488l-221 -488h-80z" />
    <glyph glyph-name="uni041D" unicode="&#x41d;" horiz-adv-x="633" 
d="M156 0h-118l87 712h118l-37 -302h259l38 302h118l-87 -712h-118l37 310h-259z" />
    <glyph glyph-name="uni041E" unicode="&#x41e;" horiz-adv-x="621" 
d="M44 231q0 61 10 132q18 145 49.5 221.5t90.5 108t164 31.5q88 0 141 -23t78.5 -75.5t25.5 -143.5q0 -55 -9 -127q-18 -145 -48.5 -222.5t-89.5 -111t-167 -33.5q-89 0 -142 23.5t-78 76.5t-25 143zM472 360q10 90 10 129q0 51 -12 78.5t-39 38.5t-76 11q-64 0 -97 -20.5
t-50.5 -73.5t-31.5 -163q-12 -96 -12 -149t12.5 -80.5t39 -37.5t74.5 -10q65 0 97.5 20t50.5 77t34 180z" />
    <glyph glyph-name="uni041F" unicode="&#x41f;" horiz-adv-x="630" 
d="M156 0h-118l87 712h493l-87 -712h-118l74 605h-257z" />
    <glyph glyph-name="uni0420" unicode="&#x420;" horiz-adv-x="554" 
d="M38 0l87 712h237q101 0 148 -41.5t47 -136.5q0 -32 -2 -51q-9 -87 -35 -135.5t-72 -68t-121 -19.5h-139l-32 -260h-118zM229 605l-29 -246h117q42 0 64 9.5t34 36t19 79.5q3 26 3 43q0 45 -20.5 61.5t-69.5 16.5h-118z" />
    <glyph glyph-name="uni0421" unicode="&#x421;" horiz-adv-x="587" 
d="M44 230q0 61 10 132q18 146 49 222t90 108t164 32q86 0 135 -22.5t69.5 -68t20.5 -120.5q0 -31 -3 -67h-114q2 36 2 49q0 48 -10 74t-34 37t-68 11q-63 0 -96 -20.5t-50.5 -73t-31.5 -163.5q-13 -92 -13 -149q0 -53 12.5 -80.5t39 -37.5t74.5 -10q51 0 79.5 16t44.5 53
t29 107h113q-17 -101 -45.5 -159t-80.5 -85t-141 -27q-91 0 -144 23.5t-77 75.5t-24 143z" />
    <glyph glyph-name="uni0422" unicode="&#x422;" horiz-adv-x="525" 
d="M246 605h-188l13 107h495l-13 -107h-188l-74 -605h-119z" />
    <glyph glyph-name="uni0423" unicode="&#x423;" horiz-adv-x="554" 
d="M51 -8l11 103h43q34 0 58.5 15.5t45.5 56.5l13 24l-167 521h117l121 -390l200 390h117l-304 -577q-38 -73 -81 -108t-117 -35h-57z" />
    <glyph glyph-name="uni0424" unicode="&#x424;" horiz-adv-x="738" 
d="M40 357q13 108 51 170.5t103 90.5t166 31l11 87h114l-11 -87q128 -5 190 -60.5t62 -174.5q0 -36 -4 -69q-12 -101 -49 -161t-102.5 -87.5t-167.5 -29.5l-11 -91h-114l11 91q-130 5 -191.5 58.5t-61.5 167.5q0 33 4 64zM300 161l47 381q-61 -2 -98 -17.5t-59.5 -56
t-31.5 -116.5q-4 -31 -4 -58q0 -52 16.5 -80.5t47.5 -39.5t82 -13zM461 542l-46 -381q60 2 97 17t59.5 55.5t32.5 118.5q4 29 4 58q0 51 -16 79t-47.5 39.5t-83.5 13.5z" />
    <glyph glyph-name="uni0425" unicode="&#x425;" horiz-adv-x="537" 
d="M96 0h-124l241 363l-148 349h124l105 -255l167 255h124l-235 -352l154 -360h-124l-110 266z" />
    <glyph glyph-name="uni0426" unicode="&#x426;" horiz-adv-x="656" 
d="M499 0h-461l87 712h118l-76 -617h256l76 617h118l-76 -617h78l-32 -251h-107z" />
    <glyph glyph-name="uni0427" unicode="&#x427;" horiz-adv-x="567" 
d="M67 427q0 21 3 46l30 239h117l-27 -222q-3 -21 -3 -36q0 -47 23.5 -62.5t80.5 -15.5q47 0 106 8l41 328h117l-88 -712h-117l35 284q-64 -11 -129 -11q-93 0 -141 35t-48 119z" />
    <glyph glyph-name="uni0428" unicode="&#x428;" horiz-adv-x="892" 
d="M793 0h-755l87 712h117l-76 -617h203l75 617h117l-76 -617h202l76 617h117z" />
    <glyph glyph-name="uni0429" unicode="&#x429;" horiz-adv-x="919" 
d="M851 -156h-107l19 156h-725l87 712h117l-76 -617h203l75 617h117l-76 -617h202l76 617h117l-76 -617h79z" />
    <glyph glyph-name="uni042A" unicode="&#x42a;" horiz-adv-x="663" 
d="M58 605l12 107h280l-33 -267h127q99 0 144.5 -40t45.5 -132q0 -24 -3 -53q-10 -86 -37.5 -133.5t-75 -67t-122.5 -19.5h-251l75 605h-162zM305 343l-30 -248h116q41 0 64 10t36 36.5t19 79.5q2 16 2 42q0 46 -19.5 63t-68.5 17h-119z" />
    <glyph glyph-name="uni042B" unicode="&#x42b;" horiz-adv-x="763" 
d="M38 0l87 712h118l-33 -267h109q99 0 144 -40t45 -132q0 -24 -3 -53q-9 -86 -36.5 -133.5t-75 -67t-122.5 -19.5h-233zM663 0h-117l87 712h118zM197 343l-31 -248h99q42 0 64.5 10t35 36t19.5 80q3 24 3 42q0 46 -20 63t-70 17h-100z" />
    <glyph glyph-name="uni042C" unicode="&#x42c;" horiz-adv-x="556" 
d="M38 0l87 712h118l-33 -267h126q100 0 145 -40t45 -132q0 -24 -3 -53q-9 -86 -37 -133.5t-75.5 -67t-121.5 -19.5h-251zM197 343l-31 -248h117q42 0 65 10t35.5 36.5t18.5 79.5q3 24 3 42q0 46 -20 63t-69 17h-119z" />
    <glyph glyph-name="uni042D" unicode="&#x42d;" horiz-adv-x="575" 
d="M213 310l11 100h206q4 45 4 86q0 48 -11 74t-36 36.5t-70 10.5q-48 0 -75.5 -12.5t-43 -40.5t-27.5 -79h-114q17 88 42.5 138t77.5 75.5t143 25.5q86 0 137 -22t75 -73t24 -140q0 -65 -8 -132q-16 -145 -46 -223t-89 -112t-165 -34q-125 0 -177 55t-45 175h112
q-4 -75 20.5 -105t93.5 -30q58 0 88 16.5t47.5 64t30.5 146.5h-205z" />
    <glyph glyph-name="uni042E" unicode="&#x42e;" horiz-adv-x="856" 
d="M38 0l87 712h118l-37 -302h104q18 124 50 191t88.5 95t152.5 28q85 0 136 -23t75.5 -75.5t24.5 -143.5q0 -50 -8 -127q-18 -145 -48 -222.5t-87.5 -111t-161.5 -33.5q-86 0 -138 23.5t-76 76.5t-24 143q0 40 4 79h-104l-38 -310h-118zM532 83q62 0 93 20t49 77t33 180
q10 90 10 129q0 51 -11.5 78.5t-37 38.5t-70.5 11q-61 0 -92.5 -20.5t-48.5 -73.5t-31 -163q-12 -96 -12 -149t11.5 -80.5t36.5 -37.5t70 -10z" />
    <glyph glyph-name="uni042F" unicode="&#x42f;" horiz-adv-x="567" 
d="M171 278q-53 14 -78.5 50t-25.5 105q0 26 3 56q10 85 38 133.5t75.5 69t123.5 20.5h248l-87 -712h-117l31 260h-97l-164 -260h-130zM279 359h115l29 246h-111q-42 0 -65.5 -9.5t-36.5 -35.5t-19 -76q-3 -27 -3 -48q0 -47 20 -62t71 -15z" />
    <glyph glyph-name="uni0430" unicode="&#x430;" horiz-adv-x="461" 
d="M14 116q0 60 27.5 95t73 52t117.5 30l68 12l4 24q2 24 2 32q0 31 -14 44t-49 13q-44 0 -63 -16t-26 -62h-102q13 87 58 129.5t144 42.5q167 0 167 -141q0 -10 -2 -34l-41 -337h-109l6 54q-36 -62 -123 -62q-66 0 -102 32t-36 92zM284 168l7 57l-51 -8q-53 -8 -82.5 -24
t-29.5 -59q0 -58 59 -58q85 0 97 92z" />
    <glyph glyph-name="uni0431" unicode="&#x431;" horiz-adv-x="506" 
d="M63 361q15 129 43.5 195.5t86.5 98.5t169 48l132 18l-13 -107l-117 -15q-71 -9 -105.5 -25t-52 -50t-28.5 -105q20 40 52.5 57t83.5 17q82 0 120.5 -40.5t38.5 -133.5q0 -39 -4 -76q-11 -93 -36 -147t-72.5 -79t-125.5 -25q-100 0 -145.5 41.5t-45.5 137.5q0 29 5 74z
M238 81q37 0 58.5 13.5t34.5 48t22 101.5q6 41 6 69q0 49 -19 67t-63 18q-38 0 -59 -13t-33.5 -45.5t-21.5 -95.5q-6 -46 -6 -75q0 -50 18.5 -69t62.5 -19z" />
    <glyph glyph-name="uni0432" unicode="&#x432;" horiz-adv-x="479" 
d="M26 0l62 504h212q76 0 111 -28t35 -84q0 -43 -17 -79.5t-54 -53.5q59 -22 59 -92q0 -78 -41 -122.5t-127 -44.5h-240zM189 411l-14 -117h93q35 0 48.5 19.5t13.5 56.5q0 22 -11 31.5t-37 9.5h-93zM164 208l-15 -122h110q60 0 60 79q0 24 -11 33.5t-34 9.5h-110z" />
    <glyph glyph-name="uni0433" unicode="&#x433;" horiz-adv-x="386" 
d="M139 0h-114l63 504h316l-13 -95h-201z" />
    <glyph glyph-name="uni0434" unicode="&#x434;" horiz-adv-x="523" 
d="M85 0l-16 -132h-102l28 221h52q21 21 29 76l56 339h340l-51 -415h67l-28 -221h-103l16 132h-288zM307 89l38 320h-129l-39 -244q-9 -56 -23 -76h153z" />
    <glyph glyph-name="uni0435" unicode="&#x435;" horiz-adv-x="471" 
d="M30 177q0 29 5 74q12 95 38 151.5t72.5 83t120.5 26.5q94 0 135.5 -43.5t41.5 -135.5q0 -42 -5 -77l-3 -24h-289q-3 -37 -3 -63q0 -53 18.5 -71.5t62.5 -18.5q43 0 64.5 16t31.5 58h102q-17 -79 -64 -120t-138 -41q-99 0 -144.5 43t-45.5 142zM158 310h179q1 9 1 25
q0 46 -17.5 63.5t-57.5 17.5q-45 0 -68.5 -22t-36.5 -84z" />
    <glyph glyph-name="uni0436" unicode="&#x436;" horiz-adv-x="706" 
d="M104 0h-126l189 259l-128 245h118l102 -203h43l26 203h110l-26 -203h37l156 203h124l-192 -248l131 -256h-122l-102 207h-44l-26 -207h-110l26 207h-36z" />
    <glyph glyph-name="uni0437" unicode="&#x437;" horiz-adv-x="448" 
d="M121 161q-2 -46 14.5 -65.5t61.5 -19.5q44 0 66.5 19.5t22.5 61.5q0 52 -67 52h-49l10 86h50q75 0 75 75q0 26 -15 37.5t-52 11.5q-39 0 -58.5 -16t-30.5 -60h-108q18 89 64.5 129t142.5 40q86 0 128.5 -33.5t42.5 -94.5q0 -42 -18.5 -74.5t-56.5 -51.5q58 -27 58 -96
q0 -170 -208 -170q-101 0 -142.5 40t-36.5 129h106z" />
    <glyph glyph-name="uni0438" unicode="&#x438;" horiz-adv-x="512" 
d="M138 0h-113l63 504h106l-40 -328l220 328h112l-62 -504h-106l39 328z" />
    <glyph glyph-name="uni0439" unicode="&#x439;" horiz-adv-x="512" 
d="M138 0h-113l63 504h106l-40 -328l220 328h112l-62 -504h-106l39 328zM166 673q0 8 2 26l1 8h78l-1 -8q-1 -7 -1 -18q0 -29 14.5 -41.5t43.5 -12.5q33 0 52 16.5t23 55.5l1 8h78l-1 -8q-8 -73 -45 -103.5t-108 -30.5q-137 0 -137 108z" />
    <glyph glyph-name="uni043A" unicode="&#x43a;" horiz-adv-x="481" 
d="M138 0h-114l64 504h114l-27 -203h38l168 203h124l-206 -249l146 -255h-123l-116 207h-42z" />
    <glyph glyph-name="uni043B" unicode="&#x43b;" horiz-adv-x="502" 
d="M-19 -5l13 94h25q30 0 43 11.5t18 44.5l56 359h341l-63 -504h-115l51 409h-130l-44 -281q-10 -69 -40.5 -101t-99.5 -32h-55z" />
    <glyph glyph-name="uni043C" unicode="&#x43c;" horiz-adv-x="666" 
d="M134 0h-109l63 504h140l92 -344l173 344h148l-63 -504h-110l39 332l-166 -332h-79l-88 330z" />
    <glyph glyph-name="uni043D" unicode="&#x43d;" horiz-adv-x="510" 
d="M140 0h-114l62 504h114l-26 -204h168l26 204h114l-62 -504h-114l25 206h-168z" />
    <glyph glyph-name="uni043E" unicode="&#x43e;" horiz-adv-x="492" 
d="M30 177q0 39 6 79q11 98 36.5 153t72.5 79t127 24q100 0 145 -43t45 -143q0 -24 -6 -78q-11 -97 -36.5 -152t-73 -79.5t-126.5 -24.5q-100 0 -145 43t-45 142zM340 246q6 50 6 79q0 51 -18.5 69.5t-62.5 18.5q-38 0 -59 -13t-34 -47t-21 -101q-7 -58 -7 -82
q0 -51 18.5 -70t61.5 -19q37 0 59 13.5t35 48.5t22 103z" />
    <glyph glyph-name="uni043F" unicode="&#x43f;" horiz-adv-x="507" 
d="M140 0h-114l62 504h394l-62 -504h-115l50 409h-165z" />
    <glyph glyph-name="uni0440" unicode="&#x440;" horiz-adv-x="512" 
d="M0 -208l87 712h109l-7 -60q19 36 51 52t76 16q84 0 124.5 -43t40.5 -140q0 -31 -5 -81q-11 -95 -36.5 -151t-68.5 -80.5t-110 -24.5q-42 0 -71.5 14t-44.5 48l-32 -262h-113zM360 252q6 45 6 73q0 51 -19 69.5t-63 18.5q-37 0 -58.5 -13t-34.5 -47t-21 -101
q-6 -49 -6 -81q0 -52 18 -71t62 -19q38 0 59.5 14t34.5 50.5t22 106.5z" />
    <glyph glyph-name="uni0441" unicode="&#x441;" horiz-adv-x="462" 
d="M30 175q0 32 5 79q12 96 37 152t71 81t122 25q93 0 134 -41.5t41 -128.5q0 -23 -1 -35h-107q1 43 -4.5 65.5t-21.5 31.5t-47 9q-36 0 -56.5 -13t-32.5 -47.5t-20 -103.5q-7 -61 -7 -83q0 -49 17 -67t58 -18q46 0 67.5 24.5t33.5 90.5h106q-18 -109 -66 -156.5t-141 -47.5
q-100 0 -144 42.5t-44 140.5z" />
    <glyph glyph-name="uni0442" unicode="&#x442;" horiz-adv-x="422" 
d="M172 409h-140l13 95h394l-13 -95h-141l-49 -409h-114z" />
    <glyph glyph-name="uni0443" unicode="&#x443;" horiz-adv-x="460" 
d="M37 -119q34 0 56 15.5t39 56.5l18 41l-111 510h115l69 -354l155 354h108l-257 -559q-26 -56 -48.5 -87.5t-55.5 -48.5t-85 -17h-53l10 89h40z" />
    <glyph glyph-name="uni0444" unicode="&#x444;" horiz-adv-x="666" 
d="M34 256q15 137 81 196.5t196 61.5l24 198h108l-24 -198q110 -4 163 -55t53 -157q0 -27 -3 -57q-10 -93 -42 -148.5t-89.5 -81t-146.5 -27.5l-24 -196h-108l24 197q-110 4 -162.5 54t-52.5 154q0 28 3 59zM256 77l43 338q-51 -2 -81 -18t-46.5 -51.5t-24.5 -97.5
q-3 -33 -3 -58q0 -60 25 -85.5t87 -27.5zM407 415l-42 -338q51 2 81 18t46.5 52t25.5 101q4 28 4 55q0 59 -27 84.5t-88 27.5z" />
    <glyph glyph-name="uni0445" unicode="&#x445;" horiz-adv-x="449" 
d="M94 0h-115l181 251l-120 253h118l77 -169l119 169h116l-183 -252l121 -252h-118l-78 168z" />
    <glyph glyph-name="uni0446" unicode="&#x446;" horiz-adv-x="532" 
d="M384 0h-358l62 504h114l-52 -415h166l51 415h115l-52 -415h67l-27 -221h-103z" />
    <glyph glyph-name="uni0447" unicode="&#x447;" horiz-adv-x="475" 
d="M42 300q0 19 3 41l21 163h114l-19 -151q-2 -20 -2 -28q0 -32 16 -46t54 -14q25 0 79 8l29 231h113l-63 -504h-113l22 180q-61 -9 -101 -9q-77 0 -115 30t-38 99z" />
    <glyph glyph-name="uni0448" unicode="&#x448;" horiz-adv-x="719" 
d="M631 0h-605l62 504h114l-52 -415h133l51 415h113l-52 -415h133l51 415h114z" />
    <glyph glyph-name="uni0449" unicode="&#x449;" horiz-adv-x="743" 
d="M594 0h-568l62 504h114l-52 -415h133l51 415h113l-52 -415h133l51 415h114l-51 -415h65l-27 -221h-102z" />
    <glyph glyph-name="uni044A" unicode="&#x44a;" horiz-adv-x="558" 
d="M32 409l13 95h251l-22 -176h104q75 0 111.5 -27.5t36.5 -97.5q0 -12 -2 -34q-10 -93 -51 -131t-128 -38h-225l50 409h-138zM262 235l-18 -146h92q37 0 52 15.5t21 59.5q1 9 1 23q0 27 -12.5 37.5t-42.5 10.5h-93z" />
    <glyph glyph-name="uni044B" unicode="&#x44b;" horiz-adv-x="647" 
d="M26 0l62 504h114l-22 -176h86q75 0 111 -27.5t36 -97.5q0 -12 -2 -34q-9 -93 -50 -131t-129 -38h-206zM559 0h-113l62 504h113zM168 235l-18 -146h74q35 0 51 15.5t21 59.5l2 23q0 27 -12.5 37.5t-43.5 10.5h-74z" />
    <glyph glyph-name="uni044C" unicode="&#x44c;" horiz-adv-x="464" 
d="M26 0l62 504h114l-22 -176h104q75 0 111.5 -27.5t36.5 -97.5q0 -8 -1 -17t-1 -17q-9 -93 -50 -131t-129 -38h-225zM168 235l-18 -146h92q37 0 52 15.5t21 59.5q1 9 1 23q0 27 -12.5 37.5t-42.5 10.5h-93z" />
    <glyph glyph-name="uni044D" unicode="&#x44d;" horiz-adv-x="461" 
d="M170 207l10 86h133q2 24 2 36q0 50 -17.5 69t-58.5 19q-40 0 -61.5 -18.5t-31.5 -57.5h-106q17 87 64 129t143 42q97 0 139.5 -44t42.5 -142q0 -39 -4 -76q-11 -97 -36 -152.5t-71 -80.5t-124 -25q-96 0 -137.5 40.5t-39.5 127.5h106q0 -44 16.5 -63t58.5 -19q32 0 52 11
t33 38.5t21 79.5h-134z" />
    <glyph glyph-name="uni044E" unicode="&#x44e;" horiz-adv-x="692" 
d="M25 0l63 504h114l-25 -202h73q13 79 38.5 124t69.5 65.5t115 20.5q99 0 144 -44t45 -144q0 -34 -6 -76q-12 -98 -36.5 -152.5t-70 -79t-122.5 -24.5q-100 0 -144.5 43.5t-44.5 143.5v29h-73l-26 -208h-114zM428 81q38 0 58.5 13.5t32.5 48t21 103.5q6 50 6 79
q0 51 -17 69.5t-59 18.5q-38 0 -58.5 -13t-32.5 -46.5t-20 -101.5q-7 -59 -7 -82q0 -52 16.5 -70.5t59.5 -18.5z" />
    <glyph glyph-name="uni044F" unicode="&#x44f;" horiz-adv-x="474" 
d="M134 185q-45 11 -66.5 39t-21.5 82q0 24 2 38q10 87 53.5 123.5t134.5 36.5h213l-63 -504h-114l21 174h-45l-132 -174h-126zM218 266h86l18 143h-88q-37 0 -51.5 -15.5t-19.5 -55.5q-1 -8 -1 -23q0 -27 13 -38t43 -11z" />
    <glyph glyph-name="uni0450" unicode="&#x450;" horiz-adv-x="471" 
d="M30 177q0 29 5 74q12 95 38 151.5t72.5 83t120.5 26.5q94 0 135.5 -43.5t41.5 -135.5q0 -42 -5 -77l-3 -24h-289q-3 -37 -3 -63q0 -53 18.5 -71.5t62.5 -18.5q43 0 64.5 16t31.5 58h102q-17 -79 -64 -120t-138 -41q-99 0 -144.5 43t-45.5 142zM158 310h179q1 9 1 25
q0 46 -17.5 63.5t-57.5 17.5q-45 0 -68.5 -22t-36.5 -84zM324 568h-74l-90 156h109z" />
    <glyph glyph-name="uni0451" unicode="&#x451;" horiz-adv-x="471" 
d="M30 177q0 29 5 74q12 95 38 151.5t72.5 83t120.5 26.5q94 0 135.5 -43.5t41.5 -135.5q0 -42 -5 -77l-3 -24h-289q-3 -37 -3 -63q0 -53 18.5 -71.5t62.5 -18.5q43 0 64.5 16t31.5 58h102q-17 -79 -64 -120t-138 -41q-99 0 -144.5 43t-45.5 142zM158 310h179q1 9 1 25
q0 46 -17.5 63.5t-57.5 17.5q-45 0 -68.5 -22t-36.5 -84zM238 590h-96l13 108h96zM417 590h-97l14 108h96z" />
    <glyph glyph-name="uni0452" unicode="&#x452;" horiz-adv-x="500" 
d="M42 572l10 70h53l8 70h114l-9 -70h115l-10 -70h-114l-13 -115q37 55 117 55q146 0 146 -142q0 -19 -3 -42l-44 -369q-11 -85 -54 -126t-128 -41h-49l11 89h31q33 0 51 15.5t22 49.5l43 359q3 23 3 39q0 38 -16 53t-53 15q-46 0 -67 -23t-29 -84l-37 -305h-114l70 572h-54
z" />
    <glyph glyph-name="uni0453" unicode="&#x453;" horiz-adv-x="383" 
d="M139 0h-114l63 504h316l-13 -95h-201zM282 568h-81l95 156h116z" />
    <glyph glyph-name="uni0454" unicode="&#x454;" horiz-adv-x="459" 
d="M36 254q11 94 36 149.5t72 82t124 26.5q94 0 134.5 -43t38.5 -128h-106q0 40 -16 58t-57 18q-47 0 -70 -26t-35 -98h132l-10 -86h-134q-1 -15 -1 -41q0 -50 17.5 -69t57.5 -19q42 0 63 19t31 63h106q-15 -86 -62.5 -127t-141.5 -41q-99 0 -142 41t-43 136q0 39 6 85z" />
    <glyph glyph-name="uni0455" unicode="&#x455;" horiz-adv-x="436" 
d="M122 150q-3 -42 14 -58t60 -16t64 15t21 55q0 23 -14 33t-54 19l-56 12q-53 13 -81.5 43.5t-28.5 85.5q0 87 49.5 130t144.5 43q86 0 127.5 -30.5t41.5 -99.5q0 -23 -2 -36h-101q1 7 1 18q0 33 -15 44t-54 11q-42 0 -62 -14t-20 -53q0 -22 14 -33.5t52 -20.5l57 -12
q112 -25 112 -126q0 -88 -51.5 -128t-150.5 -40q-102 0 -138 41t-32 117h102z" />
    <glyph glyph-name="uni0456" unicode="&#x456;" horiz-adv-x="227" 
d="M213 601h-114l13 111h114zM139 0h-114l62 504h114z" />
    <glyph glyph-name="uni0457" unicode="&#x457;" horiz-adv-x="227" 
d="M139 0h-114l62 504h114zM139 589h-76l14 111h76zM250 589h-77l14 111h76z" />
    <glyph glyph-name="uni0458" unicode="&#x458;" horiz-adv-x="227" 
d="M213 601h-114l13 111h114zM87 504h114l-67 -545q-11 -85 -53.5 -126t-125.5 -41h-50l11 89h30q34 0 51.5 15.5t21.5 49.5z" />
    <glyph glyph-name="uni0459" unicode="&#x459;" horiz-adv-x="736" 
d="M-19 -5l13 94h25q29 0 42.5 12t18.5 44l56 359h341l-23 -184h107q73 0 109 -28.5t36 -96.5l-2 -32q-7 -62 -26.5 -97t-55.5 -50.5t-94 -15.5h-226l50 409h-132l-44 -281q-10 -69 -40.5 -101t-99.5 -32h-55zM442 226l-16 -137h94q34 0 49 14.5t20 55.5q1 8 1 22
q0 26 -12 35.5t-41 9.5h-95z" />
    <glyph glyph-name="uni045A" unicode="&#x45a;" horiz-adv-x="738" 
d="M26 0l62 504h114l-26 -202h164l25 202h113l-23 -187h108q73 0 108.5 -28t35.5 -95l-2 -32q-9 -90 -49.5 -126t-126.5 -36h-226l26 208h-164l-25 -208h-114zM443 223l-16 -134h94q35 0 49.5 14t19.5 55l2 21q0 26 -12 35t-41 9h-96z" />
    <glyph glyph-name="uni045B" unicode="&#x45b;" horiz-adv-x="500" 
d="M42 572l10 70h53l8 70h114l-9 -70h115l-10 -70h-114l-13 -115q37 55 117 55q146 0 146 -142q0 -19 -3 -42l-39 -328h-115l37 305q3 23 3 39q0 38 -16 53t-53 15q-46 0 -67 -23t-29 -84l-37 -305h-114l70 572h-54z" />
    <glyph glyph-name="uni045C" unicode="&#x45c;" horiz-adv-x="481" 
d="M138 0h-114l64 504h114l-27 -203h38l168 203h124l-206 -249l146 -255h-123l-116 207h-42zM327 568h-81l95 156h116z" />
    <glyph glyph-name="uni045D" unicode="&#x45d;" horiz-adv-x="512" 
d="M138 0h-113l63 504h106l-40 -328l220 328h112l-62 -504h-106l39 328zM342 568h-74l-90 156h109z" />
    <glyph glyph-name="uni045E" unicode="&#x45e;" horiz-adv-x="460" 
d="M37 -119q34 0 56 15.5t39 56.5l18 41l-111 510h115l69 -354l155 354h108l-257 -559q-26 -56 -48.5 -87.5t-55.5 -48.5t-85 -17h-53l10 89h40zM141 673q0 8 2 26l1 8h78l-1 -8q-1 -7 -1 -18q0 -29 14.5 -41.5t43.5 -12.5q33 0 52 16.5t23 55.5l1 8h78l-1 -8
q-8 -73 -45 -103.5t-108 -30.5q-137 0 -137 108z" />
    <glyph glyph-name="uni045F" unicode="&#x45f;" horiz-adv-x="507" 
d="M172 0h-146l62 504h114l-52 -415h166l51 415h115l-62 -504h-147l-16 -136h-102z" />
    <glyph glyph-name="uni0472" unicode="&#x472;" horiz-adv-x="627" 
d="M54 363q18 145 50.5 221.5t92 108t165.5 31.5q88 0 141.5 -23t79.5 -75.5t26 -143.5q0 -55 -9 -127q-19 -145 -50 -222.5t-90.5 -111t-166.5 -33.5q-89 0 -143.5 23.5t-80 76.5t-25.5 143q0 61 10 132zM182 404q32 26 74 26q23 0 39 -5t39 -15q22 -10 38.5 -15t39.5 -5
q40 0 72 26q4 37 4 73q0 51 -13 78.5t-40.5 38.5t-75.5 11q-59 0 -92.5 -17.5t-52.5 -62.5t-32 -133zM293 83q61 0 93 17.5t51.5 66t34.5 149.5q-31 -25 -74 -25q-23 0 -39.5 5t-38.5 15q-21 10 -38 15t-40 5q-42 0 -72 -26q-6 -57 -6 -94q0 -52 13 -79.5t40.5 -38
t75.5 -10.5z" />
    <glyph glyph-name="uni0473" unicode="&#x473;" horiz-adv-x="495" 
d="M36 256q12 98 37 153t72 79t126 24q101 0 147 -43t46 -143q0 -22 -4 -78q-12 -97 -37.5 -152t-72.5 -79.5t-126 -24.5q-102 0 -148 43.5t-46 142.5q0 36 6 78zM156 290q20 14 45 14q15 0 26 -3t25 -9q26 -13 51 -13t44 15q2 24 2 31q0 51 -19 69.5t-63 18.5
q-34 0 -55 -10.5t-34 -36.5t-22 -76zM225 81q35 0 56 11t34.5 39t22.5 82q-26 -15 -46 -15q-14 0 -24.5 3t-25.5 10q-14 7 -25 10t-26 3q-25 0 -45 -16q-2 -15 -2 -38q0 -51 19 -70t62 -19z" />
    <glyph glyph-name="uni0474" unicode="&#x474;" horiz-adv-x="636" 
d="M189 0l-126 712h117l96 -585l179 436q25 60 48 91t57 44.5t92 13.5h25l-15 -107h-13q-39 0 -57.5 -15t-36.5 -57l-224 -533h-142z" />
    <glyph glyph-name="uni0475" unicode="&#x475;" horiz-adv-x="488" 
d="M144 0l-107 504h113l68 -358l113 255q25 57 54.5 80t88.5 23h27l-11 -95h-13q-23 0 -35 -9.5t-23 -33.5l-168 -366h-107z" />
    <glyph glyph-name="uni048C" unicode="&#x48c;" horiz-adv-x="669" 
d="M58 605l13 107h163l11 88h118l-11 -88h235l-13 -107h-235l-24 -191h139q97 0 140 -36t43 -121q0 -22 -3 -51q-9 -80 -35.5 -124.5t-72 -63t-118.5 -18.5h-262l75 605h-163zM303 316l-28 -221h126q40 0 61.5 9t33 32t17.5 70q3 23 3 37q0 41 -20 57t-68 16h-125z" />
    <glyph glyph-name="uni048D" unicode="&#x48d;" horiz-adv-x="536" 
d="M33 416l11 88h114l26 208h114l-26 -208h151l-12 -88h-150l-10 -88h104q75 0 111.5 -28.5t36.5 -97.5q0 -10 -2 -34q-7 -63 -26.5 -99.5t-56.5 -52.5t-96 -16h-225l51 416h-115zM239 234l-17 -145h91q37 0 52 15t21 59q1 9 1 24q0 27 -12.5 37t-42.5 10h-93z" />
    <glyph glyph-name="uni0490" unicode="&#x490;" horiz-adv-x="490" 
d="M155 0h-117l87 712h297l15 123h107l-28 -230h-287z" />
    <glyph glyph-name="uni0491" unicode="&#x491;" horiz-adv-x="389" 
d="M139 0h-114l63 504h216l14 119h106l-26 -214h-208z" />
    <glyph glyph-name="uni0492" unicode="&#x492;" horiz-adv-x="486" 
d="M78 311h-53l11 90h52l39 311h397l-14 -107h-278l-26 -204h177l-12 -90h-176l-38 -311h-117z" />
    <glyph glyph-name="uni0493" unicode="&#x493;" horiz-adv-x="395" 
d="M58 195h-53l11 84h52l28 225h316l-13 -95h-201l-16 -130h112l-10 -84h-112l-25 -195h-113z" />
    <glyph glyph-name="uni0496" unicode="&#x496;" horiz-adv-x="889" 
d="M105 0h-135l267 366l-178 346h123l153 -302h59l37 302h115l-38 -302h52l230 302h128l-264 -345l133 -272h73l-32 -251h-107l20 156h-37l-149 310h-59l-38 -310h-115l39 310h-52z" />
    <glyph glyph-name="uni0497" unicode="&#x497;" horiz-adv-x="724" 
d="M104 0h-126l189 259l-128 245h118l102 -203h43l26 203h110l-26 -203h37l156 203h124l-192 -248l87 -167h63l-29 -221h-101l16 132h-27l-102 207h-44l-26 -207h-110l26 207h-36z" />
    <glyph glyph-name="uni0498" unicode="&#x498;" horiz-adv-x="546" 
d="M224 -11q-107 4 -155 49t-48 141q0 12 2 38h114q-1 -10 -1 -28q0 -59 24 -82.5t88 -23.5q75 0 105.5 35.5t30.5 104.5q0 44 -25.5 64.5t-88.5 20.5h-52l12 102h52q73 0 102.5 32.5t29.5 95.5q0 43 -24 61t-77 18q-42 0 -68.5 -10t-43.5 -36.5t-26 -76.5h-113
q13 79 40.5 128.5t79 75.5t136.5 26q215 0 215 -174q0 -134 -112 -184q83 -35 83 -136q0 -109 -57.5 -173t-182.5 -68l-3 -24q50 -2 72.5 -23.5t22.5 -55.5q0 -51 -34 -76.5t-92 -25.5h-78l7 53h58q28 0 44 10t16 36q0 17 -12 25t-38 8h-33z" />
    <glyph glyph-name="uni0499" unicode="&#x499;" horiz-adv-x="448" 
d="M171 -7q-88 4 -124.5 44t-31.5 124h106q-2 -46 14.5 -65.5t61.5 -19.5q44 0 66.5 19.5t22.5 61.5q0 52 -67 52h-49l10 86h50q75 0 75 75q0 26 -15 37.5t-52 11.5q-39 0 -58.5 -16t-30.5 -60h-108q18 89 64.5 129t142.5 40q86 0 128.5 -33.5t42.5 -94.5q0 -42 -18.5 -74.5
t-56.5 -51.5q58 -27 58 -96q0 -83 -49.5 -124.5t-142.5 -44.5l-4 -28q50 -2 73 -23.5t23 -55.5q0 -51 -34.5 -76.5t-92.5 -25.5h-77l7 53h57q28 0 44.5 10t16.5 36q0 17 -12.5 25t-38.5 8h-33z" />
    <glyph glyph-name="uni049A" unicode="&#x49a;" horiz-adv-x="600" 
d="M155 0h-117l87 712h118l-38 -302h57l238 302h130l-272 -347l140 -270h72l-31 -251h-107l19 156h-34l-159 310h-64z" />
    <glyph glyph-name="uni049B" unicode="&#x49b;" horiz-adv-x="498" 
d="M138 0h-114l64 504h114l-27 -203h38l168 203h124l-206 -249l96 -166h66l-28 -221h-102l17 132h-26l-116 207h-42z" />
    <glyph glyph-name="uni049C" unicode="&#x49c;" horiz-adv-x="586" 
d="M154 0h-117l88 712h117l-37 -302h27l14 121h73l-14 -121h13l190 302h128l-223 -352l136 -360h-123l-117 310h-16l-15 -122h-73l15 122h-27z" />
    <glyph glyph-name="uni049D" unicode="&#x49d;" horiz-adv-x="491" 
d="M138 0h-114l64 504h114l-27 -203h18l11 96h65l-11 -96h8l124 203h118l-155 -250l95 -254h-119l-71 207h-12l-10 -94h-65l11 94h-18z" />
    <glyph glyph-name="uni04A0" unicode="&#x4a0;" horiz-adv-x="686" 
d="M221 605h-163l12 107h282l-38 -302h57l239 302h130l-274 -348l187 -364h-126l-161 310h-64l-38 -310h-117z" />
    <glyph glyph-name="uni04A1" unicode="&#x4a1;" horiz-adv-x="573" 
d="M168 409h-138l13 95h251l-26 -203h38l168 203h124l-207 -249l146 -255h-122l-116 207h-42l-27 -207h-113z" />
    <glyph glyph-name="uni04A2" unicode="&#x4a2;" horiz-adv-x="659" 
d="M156 0h-118l87 712h118l-37 -302h260l37 302h118l-76 -617h77l-32 -251h-107l20 156h-87l37 310h-259z" />
    <glyph glyph-name="uni04A3" unicode="&#x4a3;" horiz-adv-x="533" 
d="M140 0h-114l62 504h114l-25 -204h167l26 204h114l-51 -415h64l-27 -221h-103l17 132h-76l24 206h-167z" />
    <glyph glyph-name="uni04A4" unicode="&#x4a4;" horiz-adv-x="859" 
d="M156 0h-118l87 712h118l-37 -302h259l38 302h396l-14 -107h-278l-74 -605h-118l38 310h-259z" />
    <glyph glyph-name="uni04A5" unicode="&#x4a5;" horiz-adv-x="665" 
d="M140 0h-114l62 504h114l-26 -204h168l26 204h316l-13 -95h-201l-51 -409h-114l25 206h-167z" />
    <glyph glyph-name="uni04AA" unicode="&#x4aa;" horiz-adv-x="587" 
d="M256 -11q-78 4 -124 29t-67 76t-21 136q0 61 10 132q18 146 49 222t90 108t164 32q86 0 135 -22.5t69.5 -68t20.5 -120.5q0 -31 -3 -67h-114q2 36 2 49q0 48 -10 74t-34 37t-68 11q-63 0 -96 -20.5t-50.5 -73t-31.5 -163.5q-13 -92 -13 -149q0 -53 12.5 -80.5t39 -37.5
t74.5 -10q51 0 79.5 16t44.5 53t29 107h113q-17 -100 -45 -157.5t-78.5 -85t-136.5 -28.5l-3 -23q50 -2 73 -23.5t23 -55.5q0 -51 -34.5 -76.5t-92.5 -25.5h-77l6 53h58q28 0 44.5 10t16.5 36q0 17 -12.5 25t-38.5 8h-33z" />
    <glyph glyph-name="uni04AB" unicode="&#x4ab;" horiz-adv-x="462" 
d="M189 -7q-83 5 -121 48t-38 134q0 32 5 79q12 96 37 152t71 81t122 25q93 0 134 -41.5t41 -128.5q0 -23 -1 -35h-107q1 43 -4.5 65.5t-21.5 31.5t-47 9q-36 0 -56.5 -13t-32.5 -47.5t-20 -103.5q-7 -61 -7 -83q0 -49 17 -67t58 -18q46 0 67.5 24.5t33.5 90.5h106
q-18 -106 -63.5 -153.5t-133.5 -50.5l-4 -27q50 -2 72.5 -23.5t22.5 -55.5q0 -51 -34 -76.5t-92 -25.5h-78l7 53h58q28 0 44 10t16 36q0 17 -12 25t-38 8h-34z" />
    <glyph glyph-name="uni04AE" unicode="&#x4ae;" horiz-adv-x="553" 
d="M305 0h-118l34 281l-158 431h123l111 -311l189 311h117l-266 -436z" />
    <glyph glyph-name="uni04AF" unicode="&#x4af;" horiz-adv-x="460" 
d="M376 504h108l-227 -492l-26 -220h-115l26 219l-104 493h113l69 -358z" />
    <glyph glyph-name="uni04B0" unicode="&#x4b0;" horiz-adv-x="561" 
d="M216 207h-170l12 98h158l-148 407h123l110 -310l189 310h117l-248 -407h157l-11 -98h-171l-24 -207h-118z" />
    <glyph glyph-name="uni04B1" unicode="&#x4b1;" horiz-adv-x="460" 
d="M138 -35h-125l10 83h112l-97 456h114l68 -358l157 358h108l-210 -456h109l-9 -83h-123l-21 -173h-114z" />
    <glyph glyph-name="uni04B2" unicode="&#x4b2;" horiz-adv-x="565" 
d="M418 0h-38l-110 266l-173 -266h-125l241 363l-148 349h124l105 -255l167 255h124l-235 -352l114 -265h73l-32 -251h-107z" />
    <glyph glyph-name="uni04B3" unicode="&#x4b3;" horiz-adv-x="473" 
d="M410 -132h-103l16 132h-33l-78 168l-118 -168h-115l181 251l-120 253h118l77 -169l119 169h116l-183 -252l79 -163h71z" />
    <glyph glyph-name="uni04B6" unicode="&#x4b6;" horiz-adv-x="593" 
d="M385 284q-64 -11 -129 -11q-93 0 -141 35t-48 119q0 21 3 46l30 239h117l-27 -222q-3 -21 -3 -36q0 -47 23.5 -62.5t80.5 -15.5q47 0 106 8l41 328h117l-76 -617h78l-32 -251h-107l19 156h-87z" />
    <glyph glyph-name="uni04B7" unicode="&#x4b7;" horiz-adv-x="498" 
d="M295 180q-61 -9 -101 -9q-77 0 -115 30t-38 99q0 19 3 41l20 163h115l-19 -151q-2 -20 -2 -28q0 -32 16 -46t54 -14q26 0 78 8l29 231h114l-52 -415h65l-27 -221h-103l17 132h-77z" />
    <glyph glyph-name="uni04B8" unicode="&#x4b8;" horiz-adv-x="567" 
d="M239 273q-84 2 -128 38t-44 116q0 21 3 46l30 239h117l-27 -222q-3 -21 -3 -36q0 -38 15 -55t50 -22l16 128h74l-16 -129l71 8l41 328h117l-88 -712h-117l35 284q-31 -4 -44 -5l-28 -3l-13 -112h-74z" />
    <glyph glyph-name="uni04B9" unicode="&#x4b9;" horiz-adv-x="474" 
d="M183 171q-72 2 -107 31.5t-35 96.5q0 20 3 42l20 163h115l-19 -151q-2 -20 -2 -28q0 -24 8.5 -37.5t28.5 -18.5l13 96h64l-12 -98q21 1 46 6l29 231h114l-63 -504h-114l23 180q-16 -4 -47 -6l-11 -93h-65z" />
    <glyph glyph-name="uni04BA" unicode="&#x4ba;" horiz-adv-x="566" 
d="M37 0l88 712h117l-34 -278q59 10 127 10q93 0 141.5 -35t48.5 -119q0 -21 -3 -45l-30 -245h-118l28 228q2 13 2 35q0 47 -23.5 63t-79.5 16q-51 0 -105 -9l-41 -333h-118z" />
    <glyph glyph-name="uni04BB" unicode="&#x4bb;" horiz-adv-x="500" 
d="M26 0l87 712h114l-31 -255q37 55 117 55q146 0 146 -142q0 -19 -3 -42l-39 -328h-115l37 305q3 23 3 39q0 38 -16 53t-53 15q-46 0 -67.5 -23t-28.5 -84l-37 -305h-114z" />
    <glyph glyph-name="uni04C0" unicode="&#x4c0;" horiz-adv-x="255" 
d="M156 0h-118l87 712h118z" />
    <glyph glyph-name="uni04C9" unicode="&#x4c9;" horiz-adv-x="657" 
d="M156 0h-118l87 712h118l-37 -302h260l37 302h118l-76 -617h74l-98 -251h-107l60 156h-58l37 310h-259z" />
    <glyph glyph-name="uni04CA" unicode="&#x4ca;" horiz-adv-x="531" 
d="M140 0h-114l62 504h114l-25 -204h167l26 204h114l-51 -415h65l-72 -221h-102l43 132h-59l24 206h-167z" />
    <glyph glyph-name="uni04CF" unicode="&#x4cf;" horiz-adv-x="228" 
d="M140 0h-114l87 712h114z" />
    <glyph glyph-name="uni04D2" unicode="&#x4d2;" horiz-adv-x="578" 
d="M90 0h-114l298 712h142l125 -712h-117l-25 148h-249zM384 247l-55 336l-139 -336h194zM310 798h-96l13 108h96zM489 798h-97l14 108h96z" />
    <glyph glyph-name="uni04D3" unicode="&#x4d3;" horiz-adv-x="461" 
d="M14 116q0 60 27.5 95t73 52t117.5 30l68 12l4 24q2 24 2 32q0 31 -14 44t-49 13q-44 0 -63 -16t-26 -62h-102q13 87 58 129.5t144 42.5q167 0 167 -141q0 -10 -2 -34l-41 -337h-109l6 54q-36 -62 -123 -62q-66 0 -102 32t-36 92zM284 168l7 57l-51 -8q-53 -8 -82.5 -24
t-29.5 -59q0 -58 59 -58q85 0 97 92zM228 590h-96l13 108h96zM407 590h-97l14 108h96z" />
    <glyph glyph-name="uni04D8" unicode="&#x4d8;" horiz-adv-x="605" 
d="M46 344l5 43h408q7 55 7 99q0 51 -13 79.5t-40.5 40t-75.5 11.5q-49 0 -79 -12.5t-47.5 -40.5t-27.5 -78h-116q16 85 44.5 135.5t83 76.5t147.5 26q88 0 141 -23.5t78 -76.5t25 -144q0 -41 -9 -127q-17 -144 -47.5 -221t-90.5 -110.5t-167 -33.5q-84 0 -135 22t-75 73.5
t-24 139.5q0 47 8 121zM446 289h-286q-4 -40 -4 -79q0 -52 12 -79.5t37 -37.5t70 -10q57 0 88.5 15.5t50 58.5t32.5 132z" />
    <glyph glyph-name="uni04D9" unicode="&#x4d9;" horiz-adv-x="470" 
d="M27 173q0 28 5 75l3 23h288q4 42 4 56q0 52 -19 70.5t-63 18.5q-40 0 -61 -16t-30 -53h-104q17 81 64 123t135 42q101 0 145.5 -44t44.5 -146q0 -36 -4 -69q-10 -94 -36 -151t-73.5 -83.5t-122.5 -26.5q-93 0 -134.5 44.5t-41.5 136.5zM312 193h-177q-1 -10 -1 -28
q0 -48 17 -67t56 -19q29 0 48.5 9t33 33.5t23.5 71.5z" />
    <glyph glyph-name="uni04E2" unicode="&#x4e2;" horiz-adv-x="638" 
d="M163 0h-125l87 712h111l-64 -523l328 523h126l-87 -712h-111l63 522zM524 817h-273l9 74h273z" />
    <glyph glyph-name="uni04E3" unicode="&#x4e3;" horiz-adv-x="512" 
d="M138 0h-113l63 504h106l-40 -328l220 328h112l-62 -504h-106l39 328zM438 609h-273l9 74h273z" />
    <glyph glyph-name="uni04E6" unicode="&#x4e6;" horiz-adv-x="621" 
d="M44 231q0 61 10 132q18 145 49.5 221.5t90.5 108t164 31.5q88 0 141 -23t78.5 -75.5t25.5 -143.5q0 -55 -9 -127q-18 -145 -48.5 -222.5t-89.5 -111t-167 -33.5q-89 0 -142 23.5t-78 76.5t-25 143zM472 360q10 90 10 129q0 51 -12 78.5t-39 38.5t-76 11q-64 0 -97 -20.5
t-50.5 -73.5t-31.5 -163q-12 -96 -12 -149t12.5 -80.5t39 -37.5t74.5 -10q65 0 97.5 20t50.5 77t34 180zM339 798h-96l13 108h96zM518 798h-97l14 108h96z" />
    <glyph glyph-name="uni04E7" unicode="&#x4e7;" horiz-adv-x="492" 
d="M30 177q0 39 6 79q11 98 36.5 153t72.5 79t127 24q100 0 145 -43t45 -143q0 -24 -6 -78q-11 -97 -36.5 -152t-73 -79.5t-126.5 -24.5q-100 0 -145 43t-45 142zM340 246q6 50 6 79q0 51 -18.5 69.5t-62.5 18.5q-38 0 -59 -13t-34 -47t-21 -101q-7 -58 -7 -82
q0 -51 18.5 -70t61.5 -19q37 0 59 13.5t35 48.5t22 103zM243 590h-96l13 108h96zM422 590h-97l14 108h96z" />
    <glyph glyph-name="uni04E8" unicode="&#x4e8;" horiz-adv-x="627" 
d="M54 363q18 145 50.5 221.5t92 108t165.5 31.5q88 0 141.5 -23t79.5 -75.5t26 -143.5q0 -55 -9 -127q-19 -145 -50 -222.5t-90.5 -111t-166.5 -33.5q-89 0 -143.5 23.5t-80 76.5t-25.5 143q0 61 10 132zM182 410h301q5 52 5 79q0 51 -13 78.5t-40.5 38.5t-75.5 11
q-59 0 -92 -17t-52.5 -60.5t-32.5 -129.5zM293 83q60 0 92.5 17t52 64.5t33.5 145.5h-301q-6 -60 -6 -99q0 -52 13 -79.5t40.5 -38t75.5 -10.5z" />
    <glyph glyph-name="uni04E9" unicode="&#x4e9;" horiz-adv-x="495" 
d="M36 256q12 98 37 153t72 79t126 24q101 0 147 -43t46 -143q0 -22 -4 -78q-12 -97 -37.5 -152t-72.5 -79.5t-126 -24.5q-102 0 -148 43.5t-46 142.5q0 36 6 78zM157 295h190q2 22 2 30q0 51 -19 69.5t-63 18.5q-33 0 -54 -10t-34.5 -35.5t-21.5 -72.5zM225 81
q34 0 55 10.5t34 37t22 76.5h-191q-1 -13 -1 -35q0 -51 19 -70t62 -19z" />
    <glyph glyph-name="uni04EE" unicode="&#x4ee;" horiz-adv-x="554" 
d="M51 -8l11 103h43q34 0 58.5 15.5t45.5 56.5l13 24l-167 521h117l121 -390l200 390h117l-304 -577q-38 -73 -81 -108t-117 -35h-57zM488 817h-273l9 74h273z" />
    <glyph glyph-name="uni04EF" unicode="&#x4ef;" horiz-adv-x="460" 
d="M37 -119q34 0 56 15.5t39 56.5l18 41l-111 510h115l69 -354l155 354h108l-257 -559q-26 -56 -48.5 -87.5t-55.5 -48.5t-85 -17h-53l10 89h40zM410 609h-273l9 74h273z" />
    <glyph glyph-name="uni04F8" unicode="&#x4f8;" horiz-adv-x="763" 
d="M38 0l87 712h118l-33 -267h109q99 0 144 -40t45 -132q0 -24 -3 -53q-9 -86 -36.5 -133.5t-75 -67t-122.5 -19.5h-233zM663 0h-117l87 712h118zM197 343l-31 -248h99q42 0 64.5 10t35 36t19.5 80q3 24 3 42q0 46 -20 63t-70 17h-100zM406 798h-96l13 108h96zM585 798h-97
l14 108h96z" />
    <glyph glyph-name="uni04F9" unicode="&#x4f9;" horiz-adv-x="647" 
d="M26 0l62 504h114l-22 -176h86q75 0 111 -27.5t36 -97.5q0 -12 -2 -34q-9 -93 -50 -131t-129 -38h-206zM559 0h-113l62 504h113zM168 235l-18 -146h74q35 0 51 15.5t21 59.5l2 23q0 27 -12.5 37.5t-43.5 10.5h-74zM324 590h-96l13 108h96zM503 590h-97l14 108h96z" />
    <glyph glyph-name="uni0E3F" unicode="&#xe3f;" horiz-adv-x="557" 
d="M20 0l87 712h164l13 104h104l-13 -106q82 -5 123.5 -46.5t41.5 -115.5q0 -9 -2 -31q-12 -120 -96 -149q41 -20 61 -57t20 -86q0 -17 -1 -27q-10 -104 -61 -151t-152 -47h-20l-12 -104h-104l12 104h-165zM212 605l-23 -195h129q50 0 72 23t28 76q2 18 2 27
q0 36 -18.5 52.5t-61.5 16.5h-128zM177 311l-27 -216h144q47 0 74 25t33 84q2 11 2 29q0 43 -20 60.5t-61 17.5h-145z" />
    <glyph glyph-name="Wgrave" unicode="&#x1e80;" horiz-adv-x="893" 
d="M291 0h-137l-88 712h117l62 -570l217 570h90l75 -568l201 568h113l-263 -712h-132l-67 485zM555 776h-74l-90 156h109z" />
    <glyph glyph-name="wgrave" unicode="&#x1e81;" horiz-adv-x="712" 
d="M233 0h-109l-86 504h115l49 -349l146 349h86l59 -349l136 349h107l-210 -504h-107l-55 311zM440 568h-74l-90 156h109z" />
    <glyph glyph-name="Wacute" unicode="&#x1e82;" horiz-adv-x="893" 
d="M291 0h-137l-88 712h117l62 -570l217 570h90l75 -568l201 568h113l-263 -712h-132l-67 485zM537 776h-81l95 156h116z" />
    <glyph glyph-name="wacute" unicode="&#x1e83;" horiz-adv-x="712" 
d="M233 0h-109l-86 504h115l49 -349l146 349h86l59 -349l136 349h107l-210 -504h-107l-55 311zM422 568h-81l95 156h116z" />
    <glyph glyph-name="Wdieresis" unicode="&#x1e84;" horiz-adv-x="893" 
d="M291 0h-137l-88 712h117l62 -570l217 570h90l75 -568l201 568h113l-263 -712h-132l-67 485zM471 798h-96l13 108h96zM650 798h-97l14 108h96z" />
    <glyph glyph-name="wdieresis" unicode="&#x1e85;" horiz-adv-x="712" 
d="M233 0h-109l-86 504h115l49 -349l146 349h86l59 -349l136 349h107l-210 -504h-107l-55 311zM356 590h-96l13 108h96zM535 590h-97l14 108h96z" />
    <glyph glyph-name="uni1E8A" unicode="&#x1e8a;" horiz-adv-x="537" 
d="M96 0h-124l241 363l-148 349h124l105 -255l167 255h124l-235 -352l154 -360h-124l-110 266zM379 778h-97l13 108h97z" />
    <glyph glyph-name="uni1E8B" unicode="&#x1e8b;" horiz-adv-x="449" 
d="M94 0h-115l181 251l-120 253h118l77 -169l119 169h116l-183 -252l121 -252h-118l-78 168zM316 590h-97l13 108h97z" />
    <glyph glyph-name="Ygrave" unicode="&#x1ef2;" horiz-adv-x="553" 
d="M305 0h-118l34 281l-158 431h123l111 -311l189 311h117l-266 -436zM392 776h-74l-90 156h109z" />
    <glyph glyph-name="ygrave" unicode="&#x1ef3;" horiz-adv-x="460" 
d="M37 -119q34 0 56 15.5t39 56.5l18 41l-111 510h115l69 -354l155 354h108l-257 -559q-26 -56 -48.5 -87.5t-55.5 -48.5t-85 -17h-53l10 89h40zM320 568h-74l-90 156h109z" />
    <glyph glyph-name="uni2007" unicode="&#x2007;" horiz-adv-x="560" 
 />
    <glyph glyph-name="uni2008" unicode="&#x2008;" horiz-adv-x="213" 
 />
    <glyph glyph-name="uni200B" unicode="&#x200b;" horiz-adv-x="0" 
 />
    <glyph glyph-name="endash" unicode="&#x2013;" horiz-adv-x="579" 
d="M526 247h-474l10 88h475z" />
    <glyph glyph-name="emdash" unicode="&#x2014;" horiz-adv-x="868" 
d="M816 247h-764l10 88h764z" />
    <glyph glyph-name="uni2015" unicode="&#x2015;" horiz-adv-x="579" 
d="M526 247h-474l10 88h475z" />
    <glyph glyph-name="quoteleft" unicode="&#x2018;" horiz-adv-x="183" 
d="M163 479h-97l10 81l65 152h50z" />
    <glyph glyph-name="quoteright" unicode="&#x2019;" horiz-adv-x="177" 
d="M126 479h-51l28 233h96l-9 -81z" />
    <glyph glyph-name="quotesinglbase" unicode="&#x201a;" horiz-adv-x="187" 
d="M1 -128l27 233h97l-10 -81l-65 -152h-49z" />
    <glyph glyph-name="quotedblleft" unicode="&#x201c;" horiz-adv-x="345" 
d="M163 479h-97l10 81l65 152h50zM325 479h-96l10 81l64 152h51z" />
    <glyph glyph-name="quotedblright" unicode="&#x201d;" horiz-adv-x="339" 
d="M126 479h-51l28 233h96l-9 -81zM287 479h-49l28 233h96l-10 -81z" />
    <glyph glyph-name="quotedblbase" unicode="&#x201e;" horiz-adv-x="350" 
d="M1 -128l27 233h97l-10 -81l-65 -152h-49zM162 -128l28 233h96l-9 -81l-65 -152h-50z" />
    <glyph glyph-name="dagger" unicode="&#x2020;" horiz-adv-x="474" 
d="M209 457h-145l10 88h146l21 167h105l-21 -167h145l-10 -88h-146l-56 -457h-104z" />
    <glyph glyph-name="daggerdbl" unicode="&#x2021;" horiz-adv-x="474" 
d="M210 457h-146l11 88h145l21 167h105l-21 -167h146l-11 -88h-145l-26 -205h147l-12 -88h-145l-20 -164h-105l20 164h-146l12 88h144z" />
    <glyph glyph-name="bullet" unicode="&#x2022;" horiz-adv-x="420" 
d="M314 172h-230l29 232h230z" />
    <glyph glyph-name="ellipsis" unicode="&#x2026;" horiz-adv-x="644" 
d="M112 0h-107l14 123h108zM352 0h-108l15 123h108zM581 0h-108l14 123h108z" />
    <glyph glyph-name="perthousand" unicode="&#x2030;" horiz-adv-x="1048" 
d="M57 478q0 28 4 59q8 67 24 106t48.5 58t88.5 19q70 0 100 -30.5t30 -97.5q0 -36 -4 -57q-8 -69 -25.5 -109.5t-50 -59t-86.5 -18.5q-69 0 -99 30t-30 100zM259 536q5 43 5 58q0 30 -10.5 40.5t-35.5 10.5q-23 0 -35 -8t-19 -31t-13 -70q-6 -45 -6 -70q0 -30 10 -40.5
t35 -10.5q23 0 35.5 9t20 34t13.5 78zM148 0h-81l542 712h81zM401 122q0 28 4 59q8 67 24 106t48.5 58t88.5 19q70 0 100 -30.5t30 -97.5q0 -36 -4 -57q-8 -69 -25.5 -109.5t-50 -59t-86.5 -18.5q-69 0 -99 30t-30 100zM603 180q5 43 5 58q0 30 -10.5 40.5t-35.5 10.5
q-23 0 -35 -8t-19 -31t-13 -70q-6 -45 -6 -70q0 -30 10 -40.5t35 -10.5q23 0 35.5 9t20 34t13.5 78zM724 122q0 28 4 59q8 67 24 106t48.5 58t88.5 19q70 0 100 -30.5t30 -97.5q0 -36 -4 -57q-8 -69 -25.5 -109.5t-50 -59t-86.5 -18.5q-69 0 -99 30t-30 100zM926 180
q5 43 5 58q0 30 -10.5 40.5t-35.5 10.5q-23 0 -35 -8t-19 -31t-13 -70q-6 -45 -6 -70q0 -30 10 -40.5t35 -10.5q23 0 35.5 9t20 34t13.5 78z" />
    <glyph glyph-name="guilsinglleft" unicode="&#x2039;" horiz-adv-x="254" 
d="M193 64h-92l-71 192l119 192h92l-108 -192z" />
    <glyph glyph-name="guilsinglright" unicode="&#x203a;" horiz-adv-x="255" 
d="M106 64h-91l108 192l-60 192h92l71 -192z" />
    <glyph glyph-name="fraction" unicode="&#x2044;" horiz-adv-x="63" 
d="M-186 0h-81l542 712h81z" />
    <glyph glyph-name="uni2070" unicode="&#x2070;" 
d="M68 638q0 28 4 59q8 67 24 106t48.5 58t88.5 19q70 0 100 -30.5t30 -97.5q0 -36 -4 -57q-8 -69 -25.5 -109.5t-50 -59t-86.5 -18.5q-69 0 -99 30t-30 100zM270 696q5 43 5 58q0 30 -10.5 40.5t-35.5 10.5q-23 0 -35 -8t-19 -31t-13 -70q-6 -45 -6 -70q0 -30 10 -40.5
t35 -10.5q23 0 35.5 9t20 34t13.5 78z" />
    <glyph glyph-name="uni2071" unicode="&#x2071;" horiz-adv-x="170" 
d="M214 939h-90l11 83h89zM162 516h-89l43 356h89z" />
    <glyph glyph-name="uni2074" unicode="&#x2074;" 
d="M213 584h-159l6 57l162 231h111l-26 -220h43l-8 -68h-43l-9 -68h-85zM237 784l-94 -132h78z" />
    <glyph glyph-name="uni2075" unicode="&#x2075;" 
d="M152 623q-2 -28 9 -38t40 -10q35 0 47 20t12 55q0 21 -10 30t-35 9q-27 0 -39.5 -9.5t-19.5 -30.5h-79l4 27l41 196h237l-9 -75h-169l-13 -61q32 17 64 17q118 0 118 -101q0 -70 -38 -107t-114 -37q-71 0 -101 27.5t-28 87.5h83z" />
    <glyph glyph-name="uni2076" unicode="&#x2076;" 
d="M128 753l100 119h102l-112 -125q11 3 22 3q55 0 84.5 -24.5t29.5 -74.5q0 -7 -2 -23q-8 -66 -45.5 -93t-106.5 -27q-64 0 -97.5 24t-33.5 79q0 8 2 26q5 35 18.5 61t38.5 55zM159 613q0 -21 10 -29.5t35 -8.5q30 0 42.5 12.5t16.5 43.5q1 7 1 18q0 20 -10.5 28.5
t-35.5 8.5q-30 0 -42 -12.5t-16 -42.5q-1 -7 -1 -18z" />
    <glyph glyph-name="uni2077" unicode="&#x2077;" 
d="M187 516h-91l174 281h-179l9 75h275l-7 -56z" />
    <glyph glyph-name="uni2078" unicode="&#x2078;" 
d="M122 694q-34 23 -34 68q0 58 38 88t107 30q64 0 96 -26.5t32 -70.5q0 -28 -14 -51t-40 -38q40 -18 40 -69q0 -62 -38.5 -89.5t-112.5 -27.5q-132 0 -132 93q0 34 13 56.5t45 36.5zM272 779q0 16 -10 23t-33 7q-29 0 -41.5 -13.5t-12.5 -40.5q0 -15 10 -22t33 -7
q30 0 42 13t12 40zM258 630q0 17 -11 25t-36 8q-58 0 -58 -54q0 -18 11 -26t36 -8q58 0 58 55z" />
    <glyph glyph-name="uni2079" unicode="&#x2079;" 
d="M213 641q-12 -3 -22 -3q-114 0 -114 98q0 8 2 24q8 65 45.5 92.5t106.5 27.5q65 0 98 -24t33 -80q0 -5 -2 -23q-5 -58 -57 -118l-100 -119h-101zM271 751q1 8 1 19q0 20 -10.5 29.5t-35.5 9.5q-29 0 -42 -13.5t-17 -44.5q-1 -7 -1 -18q0 -19 10.5 -27.5t35.5 -8.5
q30 0 42 12t17 42z" />
    <glyph glyph-name="uni207A" unicode="&#x207a;" 
d="M229 579h-56l10 89h-96l6 52h97l12 89h56l-11 -89h96l-6 -52h-96z" />
    <glyph glyph-name="uni207B" unicode="&#x207b;" 
d="M337 668h-250l6 52h250z" />
    <glyph glyph-name="uni207C" unicode="&#x207c;" 
d="M346 733h-250l5 53h250zM329 602h-250l6 53h250z" />
    <glyph glyph-name="uni207D" unicode="&#x207d;" horiz-adv-x="164" 
d="M215 932h20l-7 -63h-5q-24 0 -35 -9t-19.5 -44.5t-19.5 -121.5q-11 -93 -11 -124q0 -23 4.5 -34t12.5 -14t25 -3h4l-7 -63h-20q-52 0 -73.5 26t-21.5 97q0 48 9 123q12 101 28 149t41.5 64.5t74.5 16.5z" />
    <glyph glyph-name="uni207E" unicode="&#x207e;" horiz-adv-x="164" 
d="M55 456h-20l7 63h5q24 0 35.5 9t20 44.5t19.5 121.5q10 84 10 124q0 23 -4.5 34t-12.5 14t-24 3h-5l7 63h20q52 0 73.5 -26t21.5 -97q0 -48 -9 -123q-13 -102 -28.5 -149.5t-41 -64t-74.5 -16.5z" />
    <glyph glyph-name="uni207F" unicode="&#x207f;" horiz-adv-x="360" 
d="M73 516l43 356h85l-6 -41q14 24 34.5 36.5t53.5 12.5q53 0 78 -25.5t25 -76.5q0 -8 -2 -30l-29 -232h-89l27 213q2 22 2 27q0 26 -10 35.5t-35 9.5q-31 0 -44.5 -15t-17.5 -57l-26 -213h-89z" />
    <glyph glyph-name="uni2080" unicode="&#x2080;" 
d="M-14 -37q0 28 4 59q8 67 24 106t48.5 58t88.5 19q70 0 100 -30.5t30 -97.5q0 -36 -4 -57q-8 -69 -25.5 -109.5t-50 -59t-86.5 -18.5q-69 0 -99 30t-30 100zM188 21q5 43 5 58q0 30 -10.5 40.5t-35.5 10.5q-23 0 -35 -8t-19 -31t-13 -70q-6 -45 -6 -70q0 -30 10 -40.5
t35 -10.5q23 0 35.5 9t20 34t13.5 78z" />
    <glyph glyph-name="uni2081" unicode="&#x2081;" 
d="M183 -159h-89l33 270l-89 -25l9 75l114 36h65z" />
    <glyph glyph-name="uni2082" unicode="&#x2082;" 
d="M-15 -115q5 45 32 73.5t73 51.5l40 20q33 17 46.5 29t13.5 36q0 18 -10.5 26.5t-31.5 8.5q-28 0 -40.5 -11t-20.5 -45h-84q13 68 46 99.5t104 31.5q127 0 127 -104q0 -45 -25 -74.5t-72 -52.5l-48 -24q-27 -13 -38.5 -21.5t-17.5 -20.5h171l-8 -67h-263z" />
    <glyph glyph-name="uni2083" unicode="&#x2083;" 
d="M66 -40q-2 -36 9 -48t42 -12q28 0 42 11t14 39q0 17 -10.5 24.5t-36.5 7.5h-30l8 69h32q25 0 39.5 11.5t14.5 35.5q0 32 -46 32q-26 0 -40.5 -12t-19.5 -44h-85q11 67 46 99t105 32q65 0 96.5 -26t31.5 -71q0 -29 -12 -48.5t-39 -36.5q36 -19 36 -69q0 -62 -40 -91.5
t-111 -29.5q-74 0 -103.5 28t-25.5 99h83z" />
    <glyph glyph-name="uni2084" unicode="&#x2084;" 
d="M131 -91h-159l6 57l162 231h111l-26 -220h43l-8 -68h-43l-9 -68h-85zM155 109l-94 -132h78z" />
    <glyph glyph-name="uni2085" unicode="&#x2085;" 
d="M70 -52q-2 -28 9 -38t40 -10q35 0 47 20t12 55q0 21 -10 30t-35 9q-27 0 -39.5 -9.5t-19.5 -30.5h-79l4 27l41 196h237l-9 -75h-169l-13 -61q32 17 64 17q118 0 118 -101q0 -70 -38 -107t-114 -37q-71 0 -101 27.5t-28 87.5h83z" />
    <glyph glyph-name="uni2086" unicode="&#x2086;" 
d="M46 78l100 119h102l-112 -125q11 3 22 3q55 0 84.5 -24.5t29.5 -74.5q0 -7 -2 -23q-8 -66 -45.5 -93t-106.5 -27q-64 0 -97.5 24t-33.5 79q0 8 2 26q5 35 18.5 61t38.5 55zM77 -62q0 -21 10 -29.5t35 -8.5q30 0 42.5 12.5t16.5 43.5q1 7 1 18q0 20 -10.5 28.5t-35.5 8.5
q-30 0 -42 -12.5t-16 -42.5q-1 -7 -1 -18z" />
    <glyph glyph-name="uni2087" unicode="&#x2087;" 
d="M105 -159h-91l174 281h-179l9 75h275l-7 -56z" />
    <glyph glyph-name="uni2088" unicode="&#x2088;" 
d="M40 19q-34 23 -34 68q0 58 38 88t107 30q64 0 96 -26.5t32 -70.5q0 -28 -14 -51t-40 -38q40 -18 40 -69q0 -62 -38.5 -89.5t-112.5 -27.5q-132 0 -132 93q0 34 13 56.5t45 36.5zM190 104q0 16 -10 23t-33 7q-29 0 -41.5 -13.5t-12.5 -40.5q0 -15 10 -22t33 -7q30 0 42 13
t12 40zM176 -45q0 17 -11 25t-36 8q-58 0 -58 -54q0 -18 11 -26t36 -8q58 0 58 55z" />
    <glyph glyph-name="uni2089" unicode="&#x2089;" 
d="M131 -34q-12 -3 -22 -3q-114 0 -114 98q0 8 2 24q8 65 45.5 92.5t106.5 27.5q65 0 98 -24t33 -80q0 -5 -2 -23q-5 -58 -57 -118l-100 -119h-101zM189 76q1 8 1 19q0 20 -10.5 29.5t-35.5 9.5q-29 0 -42 -13.5t-17 -44.5q-1 -7 -1 -18q0 -19 10.5 -27.5t35.5 -8.5
q30 0 42 12t17 42z" />
    <glyph glyph-name="uni208A" unicode="&#x208a;" 
d="M147 -96h-56l10 89h-96l6 52h97l12 89h56l-11 -89h96l-6 -52h-96z" />
    <glyph glyph-name="uni208B" unicode="&#x208b;" 
d="M255 -7h-250l6 52h250z" />
    <glyph glyph-name="uni208C" unicode="&#x208c;" 
d="M264 58h-250l5 53h250zM247 -73h-250l6 53h250z" />
    <glyph glyph-name="uni208D" unicode="&#x208d;" horiz-adv-x="164" 
d="M133 257h20l-7 -63h-5q-24 0 -35 -9t-19.5 -44.5t-19.5 -121.5q-11 -93 -11 -124q0 -23 4.5 -34t12.5 -14t25 -3h4l-7 -63h-20q-52 0 -73.5 26t-21.5 97q0 48 9 123q12 101 28 149t41.5 64.5t74.5 16.5z" />
    <glyph glyph-name="uni208E" unicode="&#x208e;" horiz-adv-x="164" 
d="M-27 -219h-20l7 63h5q24 0 35.5 9t20 44.5t19.5 121.5q10 84 10 124q0 23 -4.5 34t-12.5 14t-24 3h-5l7 63h20q52 0 73.5 -26t21.5 -97q0 -48 -9 -123q-13 -102 -28.5 -149.5t-41 -64t-74.5 -16.5z" />
    <glyph glyph-name="uni2090" unicode="&#x2090;" horiz-adv-x="334" 
d="M-18 -81q0 45 20.5 70.5t52.5 38t82 21.5l48 9l2 32q0 22 -9.5 32.5t-30.5 10.5q-29 0 -42 -12t-17 -44h-79q10 64 42.5 96t103.5 32q122 0 122 -104q0 -8 -2 -26l-28 -234h-85l6 40q-27 -48 -90 -48q-45 0 -70.5 22.5t-25.5 63.5zM144 -8q-35 -5 -54.5 -16.5
t-19.5 -40.5q0 -37 39 -37q56 0 63 59l5 40z" />
    <glyph glyph-name="uni2091" unicode="&#x2091;" horiz-adv-x="340" 
d="M-5 -34q0 24 3 52q9 69 27.5 109.5t52 59t87.5 18.5q69 0 99 -31t30 -98q0 -16 -4 -56l-2 -17h-203q-3 -27 -3 -45q0 -36 12 -47.5t41 -11.5q30 0 44 11t21 39h78q-11 -57 -44 -86.5t-99 -29.5q-74 0 -107 31t-33 102zM93 61h118l1 17q0 31 -11.5 42t-38.5 11
q-29 0 -44.5 -14t-24.5 -56z" />
    <glyph glyph-name="uni2092" unicode="&#x2092;" horiz-adv-x="356" 
d="M-5 -35q0 25 3 55q8 71 26 110.5t52 57t91 17.5q74 0 106.5 -30t32.5 -101q0 -29 -4 -54q-9 -71 -27 -111t-51.5 -58t-90.5 -18q-74 0 -106 30.5t-32 101.5zM213 20q4 27 4 50q0 35 -12 46.5t-42 11.5q-24 0 -38 -8.5t-22 -31t-14 -68.5q-5 -31 -5 -58q0 -36 11.5 -48.5
t40.5 -12.5q25 0 39 9.5t22.5 34.5t15.5 75z" />
    <glyph glyph-name="uni2093" unicode="&#x2093;" horiz-adv-x="330" 
d="M45 -159h-91l135 178l-89 178h93l54 -111l80 111h92l-134 -177l91 -179h-95l-54 113z" />
    <glyph glyph-name="uni2095" unicode="&#x2095;" horiz-adv-x="361" 
d="M-9 -159l62 506h89l-23 -182q15 21 33.5 30.5t48.5 9.5q103 0 103 -97q0 -8 -2 -26l-29 -241h-88l26 213q2 22 2 27q0 26 -10 35.5t-35 9.5q-31 0 -44 -14.5t-18 -57.5l-26 -213h-89z" />
    <glyph glyph-name="uni2096" unicode="&#x2096;" horiz-adv-x="352" 
d="M80 -159h-89l62 506h89l-37 -296l139 146h100l-142 -146l98 -210h-93l-69 147l-47 -48z" />
    <glyph glyph-name="uni2097" unicode="&#x2097;" horiz-adv-x="170" 
d="M80 -159h-89l62 506h89z" />
    <glyph glyph-name="uni2098" unicode="&#x2098;" horiz-adv-x="555" 
d="M-9 -159l43 356h85l-5 -41q13 25 33 37t54 12q81 0 98 -55q14 27 37 41t59 14q104 0 104 -98q0 -7 -2 -25l-29 -241h-89l26 213q2 22 2 28q0 25 -10 34.5t-35 9.5q-31 0 -44 -14.5t-18 -57.5l-27 -213h-88l26 213q2 22 2 27q0 26 -10 35.5t-35 9.5q-31 0 -44 -14.5
t-18 -57.5l-26 -213h-89z" />
    <glyph glyph-name="uni2099" unicode="&#x2099;" horiz-adv-x="360" 
d="M-9 -159l43 356h85l-6 -41q14 24 34.5 36.5t53.5 12.5q53 0 78 -25.5t25 -76.5q0 -8 -2 -30l-29 -232h-89l27 213q2 22 2 27q0 26 -10 35.5t-35 9.5q-31 0 -44.5 -15t-17.5 -57l-26 -213h-89z" />
    <glyph glyph-name="uni209A" unicode="&#x209a;" horiz-adv-x="369" 
d="M61 -307h-88l61 504h85l-6 -48q15 31 36 43.5t55 12.5q59 0 86.5 -29t27.5 -99q0 -25 -3 -57q-8 -70 -25.5 -110.5t-47.5 -58.5t-78 -18q-63 0 -80 43zM224 20q4 29 4 52q0 33 -11.5 44.5t-40.5 11.5q-25 0 -38.5 -8t-21.5 -31t-14 -69q-5 -43 -5 -59q0 -35 11.5 -47.5
t40.5 -12.5q25 0 38.5 9.5t21.5 34.5t15 75z" />
    <glyph glyph-name="uni209B" unicode="&#x209b;" horiz-adv-x="315" 
d="M66 -50l-1 -13q0 -23 11 -31.5t37 -8.5q27 0 42 10.5t15 36.5q0 14 -9.5 21t-34.5 12l-41 8q-80 17 -80 92q0 64 37.5 96t103.5 32q63 0 92.5 -23.5t29.5 -71.5q0 -9 -2 -27h-77q2 29 -7.5 40t-38.5 11q-24 0 -38 -10t-14 -35q0 -15 9 -22t37 -13l40 -9q79 -18 79 -90
q0 -64 -37.5 -93t-109.5 -29q-74 0 -99.5 30.5t-21.5 86.5h78z" />
    <glyph glyph-name="uni209C" unicode="&#x209c;" horiz-adv-x="245" 
d="M39 123h-43l9 74h45l11 87h86l-11 -87h88l-9 -74h-88l-20 -165q-1 -5 -1 -15q0 -19 10 -26.5t33 -7.5h39l-8 -68h-50q-58 0 -85.5 21.5t-27.5 70.5q0 9 2 31z" />
    <glyph glyph-name="colonmonetary" unicode="&#x20a1;" horiz-adv-x="520" 
d="M129 30q-47 31 -69 85.5t-22 139.5q0 54 7 111q16 124 51.5 199.5t97 113t158.5 43.5l30 94h51l-30 -92q17 -1 55 -5l31 97h50l-34 -107q22 -7 43 -17l-13 -108q-33 14 -63 21l-169 -522h19q38 0 75 7.5t80 25.5l-11 -96q-34 -16 -74.5 -24t-80.5 -8q-26 0 -37 1l-30 -93
h-50l31 99q-29 5 -53 13l-36 -112h-50zM206 111q18 -15 49 -23l169 526q-18 3 -36 3l-19 -1zM171 162l145 446q-63 -17 -98.5 -75t-50.5 -178q-8 -61 -8 -101q0 -56 12 -92z" />
    <glyph glyph-name="uni20A2" unicode="&#x20a2;" horiz-adv-x="539" 
d="M38 255q0 54 7 111q17 132 56.5 210t110 113t182.5 35q40 0 82.5 -8t71.5 -24l-13 -108q-41 17 -75.5 25t-71.5 8q-66 0 -110 -23t-71.5 -80t-39.5 -159q-8 -61 -8 -101q0 -76 22 -114t69 -50l21 174q11 86 52.5 125t128.5 39h57l-12 -94h-43q-34 0 -51 -15.5t-22 -49.5
l-23 -184q51 4 119 31l-11 -96q-34 -16 -74.5 -24t-80.5 -8q-143 0 -208 62.5t-65 204.5z" />
    <glyph glyph-name="uni20A5" unicode="&#x20a5;" horiz-adv-x="768" 
d="M145 0l187 331l10 82q3 23 3 39q0 38 -15.5 53t-53.5 15q-46 0 -67.5 -23t-28.5 -84l-37 -304h-114l62 504h109l-8 -57q34 65 124 65q108 0 136 -80l98 171h46l-56 -98q28 7 53 7q146 0 146 -142q0 -19 -3 -42l-40 -328h-114l37 304q3 23 3 39q0 38 -15.5 53t-53.5 15
q-46 0 -67.5 -23t-28.5 -84l-37 -304h-115l15 118l-129 -227h-46z" />
    <glyph glyph-name="uni20A6" unicode="&#x20a6;" horiz-adv-x="668" 
d="M95 381h-65l6 48h65l34 283h126l105 -283h117l35 283h112l-35 -283h64l-6 -48h-64l-6 -50h64l-6 -48h-64l-34 -283h-126l-107 283h-116l-35 -283h-111l34 283h-64l6 48h64zM212 429h43l-33 84zM273 381h-67l-6 -50h93zM477 381h-93l20 -50h67zM465 283h-43l32 -83z" />
    <glyph glyph-name="uni20A9" unicode="&#x20a9;" horiz-adv-x="829" 
d="M733 712h117l-90 -275h63l-6 -47h-72l-19 -59h84l-6 -48h-94l-92 -283h-134l-27 283h-87l-95 -283h-138l-22 283h-93l5 48h84l-5 59h-71l6 47h62l-22 275h120l17 -275h109l93 275h90l27 -275h111zM442 437l-5 46l-15 -46h20zM311 390h-90l4 -59h66zM406 390l-20 -59h66
l-6 59h-40zM547 331h68l19 59h-93zM228 283l7 -118l40 118h-47zM552 283l11 -120l37 120h-48z" />
    <glyph glyph-name="uni20AA" unicode="&#x20aa;" horiz-adv-x="714" 
d="M16 0l88 712h231q189 0 189 -154q0 -24 -2 -37l-45 -360h-105l45 358q1 8 1 21q0 39 -22 57t-70 18h-129l-75 -615h-106zM252 551h106l-44 -358q-1 -8 -1 -21q0 -39 22 -57t70 -18h128l75 615h106l-88 -712h-231q-190 0 -190 153q0 19 3 38z" />
    <glyph glyph-name="dong" unicode="&#x20ab;" horiz-adv-x="514" 
d="M265 582l7 62h113l10 70h114l-9 -70h53l-8 -62h-53l-55 -447h-109l5 42q-40 -51 -127 -51q-85 0 -124.5 35t-39.5 114q0 29 4 56q13 108 61.5 152.5t145.5 44.5q85 0 112 -48l13 102h-113zM346 326q3 20 3 35q0 40 -18 54t-64 14q-37 0 -57.5 -8.5t-32 -30.5t-16.5 -64
q-3 -22 -3 -38q0 -41 19 -57t63 -16q37 0 57.5 9.5t32 33t16.5 68.5zM421 0h-397l8 65h398z" />
    <glyph glyph-name="Euro" unicode="&#x20ac;" horiz-adv-x="560" 
d="M34 385l11 84h67q19 98 50.5 153t80.5 78.5t125 23.5q110 0 153.5 -51t43.5 -158q0 -15 -2 -51h-113q2 32 2 44q0 61 -20 85t-69 24q-40 0 -64 -11.5t-41 -43t-29 -93.5h145l-11 -84h-147l-8 -60h147l-10 -84h-145v-33q0 -51 10.5 -77.5t31 -36.5t56.5 -10q38 0 61.5 14
t38.5 47t25 94h112q-15 -87 -40 -140.5t-73.5 -82t-129.5 -28.5q-73 0 -118 21.5t-67 72.5t-22 139v20h-68l10 84h64l7 60h-64z" />
    <glyph glyph-name="uni20AD" unicode="&#x20ad;" horiz-adv-x="607" 
d="M99 312h-75l11 88h75l38 312h118l-39 -312h51l251 312h130l-251 -312h175l-11 -88h-169l167 -312h-127l-170 312h-57l-38 -312h-117z" />
    <glyph glyph-name="uni20AE" unicode="&#x20ae;" horiz-adv-x="560" 
d="M265 605h-182l14 107h481l-14 -107h-181l-17 -144l142 44l-10 -86l-143 -44l-7 -62l142 45l-10 -86l-143 -44l-28 -228h-119l23 190l-143 -43l11 86l143 43l8 62l-144 -44l11 86l144 44z" />
    <glyph glyph-name="uni20B2" unicode="&#x20b2;" horiz-adv-x="590" 
d="M303 284l12 100h253l-14 -113q-12 -95 -38 -154t-75 -90.5t-129 -36.5l-11 -94h-104l11 96q-94 12 -135 67.5t-41 169.5q0 49 10 131q17 134 44.5 209t78 111t136.5 42l11 94h104l-12 -95q93 -11 132.5 -60t39.5 -141q0 -21 -1 -32h-113q3 73 -23.5 101t-95.5 28
q-63 0 -96 -20.5t-50.5 -73.5t-31.5 -163t-14 -149q0 -53 12.5 -80.5t39.5 -37.5t75 -10q54 0 85.5 16t48.5 54t26 109l2 22h-137z" />
    <glyph glyph-name="uni20B3" unicode="&#x20b3;" horiz-adv-x="619" 
d="M121 302h-93l10 81h116l138 329h142l57 -329h120l-10 -81h-96l12 -65h77l-10 -81h-54l29 -156h-117l-26 156h-245l-63 -156h-114l66 156h-50l10 81h74zM380 383l-34 200l-81 -200h115zM392 302h-161l-27 -65h199z" />
    <glyph glyph-name="uni20B4" unicode="&#x20b4;" horiz-adv-x="560" 
d="M42 385l11 86h325q23 34 23 82q0 34 -17 49t-54 15q-42 0 -64.5 -20t-38.5 -72h-114q16 70 41.5 113t71 64.5t117.5 21.5q180 0 180 -152q0 -53 -23 -101h60l-10 -86h-508zM24 239l11 86h507l-10 -86h-332q-24 -33 -24 -87q0 -36 20 -52.5t63 -16.5q47 0 70.5 22.5
t37.5 79.5h116q-24 -106 -76 -151.5t-156 -45.5q-194 0 -194 152q0 46 23 99h-56z" />
    <glyph glyph-name="uni20B5" unicode="&#x20b5;" horiz-adv-x="577" 
d="M205 -8q-93 13 -133 68t-40 170q0 49 10 132q17 133 44.5 208t77 110.5t134.5 41.5l11 94h104l-12 -95q94 -10 131.5 -60t37.5 -150q0 -30 -3 -65h-114q2 20 2 54q0 45 -10 70t-34 36t-68 11q-64 0 -97 -20.5t-50.5 -73.5t-30.5 -163q-14 -110 -14 -149q0 -53 12.5 -80.5
t39.5 -37.5t75 -10q51 0 79.5 16t44.5 53t29 107h113q-16 -95 -41.5 -151t-71.5 -85.5t-122 -33.5l-11 -93h-104z" />
    <glyph glyph-name="uni20B8" unicode="&#x20b8;" horiz-adv-x="560" 
d="M566 626h-480l10 86h481zM246 459h-181l13 107h481l-13 -107h-182l-56 -459h-118z" />
    <glyph glyph-name="uni20B9" unicode="&#x20b9;" horiz-adv-x="562" 
d="M572 624h-152q22 -31 22 -86v-12h118l-11 -88h-118q-13 -65 -41.5 -101t-72 -50.5t-108.5 -15.5l195 -271h-136l-229 313l6 46h153q35 0 55.5 6t34 23t21.5 50h-257l11 88h257q0 47 -21 63t-73 16h-153l2 19l12 88h496z" />
    <glyph glyph-name="uni20BA" unicode="&#x20ba;" horiz-adv-x="592" 
d="M40 429l10 80l98 33l21 170h118l-16 -130l177 58l-10 -81l-177 -58l-9 -69l177 58l-9 -80l-177 -59l-33 -256h6q82 0 127.5 20t70.5 75.5t39 166.5h112q-17 -139 -55.5 -215.5t-111 -109t-198.5 -32.5h-119l39 311l-98 -32l9 81l98 32l9 69z" />
    <glyph glyph-name="uni20BC" unicode="&#x20bc;" horiz-adv-x="728" 
d="M45 262q14 117 50 185t96 99t153 36l16 130h112l-16 -131q114 -9 169.5 -63.5t55.5 -175.5q0 -32 -5 -80l-33 -262h-119l33 263q5 43 5 69q0 74 -28.5 105t-91.5 37l-46 -378h-112l46 378q-50 -5 -82.5 -25t-53 -64t-29.5 -122l-33 -263h-119z" />
    <glyph glyph-name="uni20BD" unicode="&#x20bd;" horiz-adv-x="560" 
d="M43 265l10 94h79l44 353h192q99 0 145 -39t46 -130q0 -25 -3 -54q-9 -85 -37 -134t-76 -69.5t-122 -20.5h-83l-7 -59h167l-11 -88h-167l-14 -118h-118l15 118h-79l11 88h79l7 59h-78zM280 605l-30 -246h67q41 0 63.5 10t35 37t18.5 79q4 34 4 44q0 44 -20.5 60t-69.5 16
h-68z" />
    <glyph glyph-name="uni20BE" unicode="&#x20be;" horiz-adv-x="699" 
d="M300 717l12 99h78l-11 -93h52l12 93h74l-13 -101q83 -18 121.5 -73.5t38.5 -164.5q0 -31 -3 -69h-118q3 33 3 59q0 58 -13.5 89.5t-41.5 44.5l-24 -193h-74l25 208h-52l-25 -208h-79l23 192q-43 -20 -68.5 -76t-39.5 -170q-4 -31 -4 -65q0 -82 30 -124.5t78.5 -56
t117.5 -13.5h248l-12 -95h-644l11 95h119q-70 56 -70 186q0 39 6 81q15 119 44.5 192.5t77.5 111.5t121 51z" />
    <glyph glyph-name="uni2113" unicode="&#x2113;" horiz-adv-x="373" 
d="M95 555q9 75 53.5 120t119.5 45q129 0 129 -118q0 -95 -62.5 -172.5t-164.5 -150.5l-14 -119q-1 -5 -1 -13q0 -27 15 -41.5t44 -14.5q51 0 97 34l-11 -98q-22 -16 -52.5 -25.5t-62.5 -9.5q-68 0 -105 34.5t-37 97.5q0 9 2 29zM185 392q53 48 79 91.5t26 92.5q0 43 -36 43
q-21 0 -33 -14t-16 -44z" />
    <glyph glyph-name="uni2116" unicode="&#x2116;" horiz-adv-x="973" 
d="M154 0h-112l87 712h117l205 -500l62 500h112l-87 -712h-117l-206 500zM681 480q0 25 3 55q8 71 26 110.5t52 57t91 17.5q74 0 106.5 -30t32.5 -101q0 -29 -4 -54q-9 -71 -27 -111t-51.5 -58t-90.5 -18q-74 0 -106 30.5t-32 101.5zM899 535q4 27 4 50q0 35 -12 46.5
t-42 11.5q-24 0 -38 -8.5t-22 -31t-14 -68.5q-5 -31 -5 -58q0 -36 11.5 -48.5t40.5 -12.5q25 0 39 9.5t22.5 34.5t15.5 75z" />
    <glyph glyph-name="trademark" unicode="&#x2122;" horiz-adv-x="570" 
d="M124 653h-63v59h194v-59h-63v-214h-68v214zM355 439h-58v273h83l47 -167l45 167h88v-273h-66v164l-46 -164h-46l-47 165v-165z" />
    <glyph glyph-name="Omega" unicode="&#x2126;" horiz-adv-x="638" 
d="M22 0l11 95h140l3 26q-60 20 -89.5 66.5t-29.5 133.5q0 47 5 88q13 111 46.5 179.5t97 102t166.5 33.5q131 0 189.5 -55.5t58.5 -174.5q0 -39 -6 -87q-11 -93 -33 -150.5t-58.5 -89.5t-93.5 -46l-4 -26h140l-11 -95h-232l24 193q44 6 71.5 24.5t45.5 63t28 126.5
q6 64 6 83q0 70 -30.5 98.5t-103.5 28.5q-62 0 -97.5 -19.5t-54 -64.5t-27.5 -126q-6 -49 -6 -83q0 -69 24 -97t75 -34l-23 -193h-232z" />
    <glyph glyph-name="estimated" unicode="&#x212e;" horiz-adv-x="886" 
d="M193 238q0 -56 40 -94t98.5 -55.5t115.5 -17.5q103 0 183.5 37t120.5 109h103q-56 -118 -164 -173.5t-243 -55.5q-114 0 -209.5 49.5t-151 134t-55.5 182.5t55.5 182.5t151 134t209.5 49.5q118 0 213 -49t149 -133t54 -184v-29h-670v-87zM193 396h499v83q0 57 -37 94.5
t-93 54.5t-115 17q-57 0 -115 -15.5t-98.5 -53t-40.5 -97.5v-83z" />
    <glyph glyph-name="onethird" unicode="&#x2153;" horiz-adv-x="708" 
d="M226 356h-89l33 270l-89 -25l9 75l114 36h65zM105 0h-81l542 712h81zM451 119q-2 -36 9 -48t42 -12q28 0 42 11t14 39q0 17 -10.5 24.5t-36.5 7.5h-30l8 69h32q25 0 39.5 11.5t14.5 35.5q0 32 -46 32q-26 0 -40.5 -12t-19.5 -44h-85q11 67 46 99t105 32q65 0 96.5 -26
t31.5 -71q0 -29 -12 -48.5t-39 -36.5q36 -19 36 -69q0 -62 -40 -91.5t-111 -29.5q-74 0 -103.5 28t-25.5 99h83z" />
    <glyph glyph-name="twothirds" unicode="&#x2154;" horiz-adv-x="708" 
d="M46 400q5 45 32 73.5t73 51.5l40 20q33 17 46.5 29t13.5 36q0 18 -10.5 26.5t-31.5 8.5q-28 0 -40.5 -11t-20.5 -45h-84q13 68 46 99.5t104 31.5q127 0 127 -104q0 -45 -25 -74.5t-72 -52.5l-48 -24q-27 -13 -38.5 -21.5t-17.5 -20.5h171l-8 -67h-263zM148 0h-81l542 712
h81zM470 119q-2 -36 9 -48t42 -12q28 0 42 11t14 39q0 17 -10.5 24.5t-36.5 7.5h-30l8 69h32q25 0 39.5 11.5t14.5 35.5q0 32 -46 32q-26 0 -40.5 -12t-19.5 -44h-85q11 67 46 99t105 32q65 0 96.5 -26t31.5 -71q0 -29 -12 -48.5t-39 -36.5q36 -19 36 -69q0 -62 -40 -91.5
t-111 -29.5q-74 0 -103.5 28t-25.5 99h83z" />
    <glyph glyph-name="uni2155" unicode="&#x2155;" horiz-adv-x="708" 
d="M227 356h-89l33 270l-89 -25l9 75l114 36h65zM99 0h-81l542 712h81zM454 107q-2 -28 9 -38t40 -10q35 0 47 20t12 55q0 21 -10 30t-35 9q-27 0 -39.5 -9.5t-19.5 -30.5h-79l4 27l41 196h237l-9 -75h-169l-13 -61q32 17 64 17q118 0 118 -101q0 -70 -38 -107t-114 -37
q-71 0 -101 27.5t-28 87.5h83z" />
    <glyph glyph-name="uni2156" unicode="&#x2156;" horiz-adv-x="708" 
d="M47 400q5 45 32 73.5t73 51.5l40 20q33 17 46.5 29t13.5 36q0 18 -10.5 26.5t-31.5 8.5q-28 0 -40.5 -11t-20.5 -45h-84q13 68 46 99.5t104 31.5q127 0 127 -104q0 -45 -25 -74.5t-72 -52.5l-48 -24q-27 -13 -38.5 -21.5t-17.5 -20.5h171l-8 -67h-263zM143 0h-81l542 712
h81zM473 107q-2 -28 9 -38t40 -10q35 0 47 20t12 55q0 21 -10 30t-35 9q-27 0 -39.5 -9.5t-19.5 -30.5h-79l4 27l41 196h237l-9 -75h-169l-13 -61q32 17 64 17q118 0 118 -101q0 -70 -38 -107t-114 -37q-71 0 -101 27.5t-28 87.5h83z" />
    <glyph glyph-name="uni2157" unicode="&#x2157;" horiz-adv-x="708" 
d="M130 475q-2 -36 9 -48t42 -12q28 0 42 11t14 39q0 17 -10.5 24.5t-36.5 7.5h-30l8 69h32q25 0 39.5 11.5t14.5 35.5q0 32 -46 32q-26 0 -40.5 -12t-19.5 -44h-85q11 67 46 99t105 32q65 0 96.5 -26t31.5 -71q0 -29 -12 -48.5t-39 -36.5q36 -19 36 -69q0 -62 -40 -91.5
t-111 -29.5q-74 0 -103.5 28t-25.5 99h83zM132 0h-81l542 712h81zM475 107q-2 -28 9 -38t40 -10q35 0 47 20t12 55q0 21 -10 30t-35 9q-27 0 -39.5 -9.5t-19.5 -30.5h-79l4 27l41 196h237l-9 -75h-169l-13 -61q32 17 64 17q118 0 118 -101q0 -70 -38 -107t-114 -37
q-71 0 -101 27.5t-28 87.5h83z" />
    <glyph glyph-name="uni2158" unicode="&#x2158;" horiz-adv-x="708" 
d="M195 424h-159l6 57l162 231h111l-26 -220h43l-8 -68h-43l-9 -68h-85zM219 624l-94 -132h78zM128 0h-81l542 712h81zM474 107q-2 -28 9 -38t40 -10q35 0 47 20t12 55q0 21 -10 30t-35 9q-27 0 -39.5 -9.5t-19.5 -30.5h-79l4 27l41 196h237l-9 -75h-169l-13 -61
q32 17 64 17q118 0 118 -101q0 -70 -38 -107t-114 -37q-71 0 -101 27.5t-28 87.5h83z" />
    <glyph glyph-name="uni2159" unicode="&#x2159;" horiz-adv-x="708" 
d="M225 356h-89l33 270l-89 -25l9 75l114 36h65zM124 0h-81l542 712h81zM429 237l100 119h102l-112 -125q11 3 22 3q55 0 84.5 -24.5t29.5 -74.5q0 -7 -2 -23q-8 -66 -45.5 -93t-106.5 -27q-64 0 -97.5 24t-33.5 79q0 8 2 26q5 35 18.5 61t38.5 55zM460 97q0 -21 10 -29.5
t35 -8.5q30 0 42.5 12.5t16.5 43.5q1 7 1 18q0 20 -10.5 28.5t-35.5 8.5q-30 0 -42 -12.5t-16 -42.5q-1 -7 -1 -18z" />
    <glyph glyph-name="uni215A" unicode="&#x215a;" horiz-adv-x="708" 
d="M130 463q-2 -28 9 -38t40 -10q35 0 47 20t12 55q0 21 -10 30t-35 9q-27 0 -39.5 -9.5t-19.5 -30.5h-79l4 27l41 196h237l-9 -75h-169l-13 -61q32 17 64 17q118 0 118 -101q0 -70 -38 -107t-114 -37q-71 0 -101 27.5t-28 87.5h83zM151 0h-81l542 712h81zM448 237l100 119
h102l-112 -125q11 3 22 3q55 0 84.5 -24.5t29.5 -74.5q0 -7 -2 -23q-8 -66 -45.5 -93t-106.5 -27q-64 0 -97.5 24t-33.5 79q0 8 2 26q5 35 18.5 61t38.5 55zM479 97q0 -21 10 -29.5t35 -8.5q30 0 42.5 12.5t16.5 43.5q1 7 1 18q0 20 -10.5 28.5t-35.5 8.5q-30 0 -42 -12.5
t-16 -42.5q-1 -7 -1 -18z" />
    <glyph glyph-name="oneeighth" unicode="&#x215b;" horiz-adv-x="708" 
d="M226 356h-89l33 270l-89 -25l9 75l114 36h65zM104 0h-81l542 712h81zM425 178q-34 23 -34 68q0 58 38 88t107 30q64 0 96 -26.5t32 -70.5q0 -28 -14 -51t-40 -38q40 -18 40 -69q0 -62 -38.5 -89.5t-112.5 -27.5q-132 0 -132 93q0 34 13 56.5t45 36.5zM575 263
q0 16 -10 23t-33 7q-29 0 -41.5 -13.5t-12.5 -40.5q0 -15 10 -22t33 -7q30 0 42 13t12 40zM561 114q0 17 -11 25t-36 8q-58 0 -58 -54q0 -18 11 -26t36 -8q58 0 58 55z" />
    <glyph glyph-name="threeeighths" unicode="&#x215c;" horiz-adv-x="708" 
d="M129 475q-2 -36 9 -48t42 -12q28 0 42 11t14 39q0 17 -10.5 24.5t-36.5 7.5h-30l8 69h32q25 0 39.5 11.5t14.5 35.5q0 32 -46 32q-26 0 -40.5 -12t-19.5 -44h-85q11 67 46 99t105 32q65 0 96.5 -26t31.5 -71q0 -29 -12 -48.5t-39 -36.5q36 -19 36 -69q0 -62 -40 -91.5
t-111 -29.5q-74 0 -103.5 28t-25.5 99h83zM139 0h-81l542 712h81zM445 178q-34 23 -34 68q0 58 38 88t107 30q64 0 96 -26.5t32 -70.5q0 -28 -14 -51t-40 -38q40 -18 40 -69q0 -62 -38.5 -89.5t-112.5 -27.5q-132 0 -132 93q0 34 13 56.5t45 36.5zM595 263q0 16 -10 23
t-33 7q-29 0 -41.5 -13.5t-12.5 -40.5q0 -15 10 -22t33 -7q30 0 42 13t12 40zM581 114q0 17 -11 25t-36 8q-58 0 -58 -54q0 -18 11 -26t36 -8q58 0 58 55z" />
    <glyph glyph-name="fiveeighths" unicode="&#x215d;" horiz-adv-x="708" 
d="M130 463q-2 -28 9 -38t40 -10q35 0 47 20t12 55q0 21 -10 30t-35 9q-27 0 -39.5 -9.5t-19.5 -30.5h-79l4 27l41 196h237l-9 -75h-169l-13 -61q32 17 64 17q118 0 118 -101q0 -70 -38 -107t-114 -37q-71 0 -101 27.5t-28 87.5h83zM136 0h-81l542 712h81zM443 178
q-34 23 -34 68q0 58 38 88t107 30q64 0 96 -26.5t32 -70.5q0 -28 -14 -51t-40 -38q40 -18 40 -69q0 -62 -38.5 -89.5t-112.5 -27.5q-132 0 -132 93q0 34 13 56.5t45 36.5zM593 263q0 16 -10 23t-33 7q-29 0 -41.5 -13.5t-12.5 -40.5q0 -15 10 -22t33 -7q30 0 42 13t12 40z
M579 114q0 17 -11 25t-36 8q-58 0 -58 -54q0 -18 11 -26t36 -8q58 0 58 55z" />
    <glyph glyph-name="seveneighths" unicode="&#x215e;" horiz-adv-x="708" 
d="M164 356h-91l174 281h-179l9 75h275l-7 -56zM113 0h-81l542 712h81zM441 178q-34 23 -34 68q0 58 38 88t107 30q64 0 96 -26.5t32 -70.5q0 -28 -14 -51t-40 -38q40 -18 40 -69q0 -62 -38.5 -89.5t-112.5 -27.5q-132 0 -132 93q0 34 13 56.5t45 36.5zM591 263q0 16 -10 23
t-33 7q-29 0 -41.5 -13.5t-12.5 -40.5q0 -15 10 -22t33 -7q30 0 42 13t12 40zM577 114q0 17 -11 25t-36 8q-58 0 -58 -54q0 -18 11 -26t36 -8q58 0 58 55z" />
    <glyph glyph-name="arrowleft" unicode="&#x2190;" horiz-adv-x="660" 
d="M356 166l-70 -65l-255 255l255 255l70 -65l-148 -146q80 4 162 4h265v-95h-265q-102 0 -162 4z" />
    <glyph glyph-name="arrowup" unicode="&#x2191;" horiz-adv-x="568" 
d="M100 338l-63 65l254 255l256 -255l-63 -65l-148 153q4 -80 4 -163v-274h-96v274q0 83 4 163z" />
    <glyph glyph-name="arrowright" unicode="&#x2192;" horiz-adv-x="660" 
d="M384 101l-70 65l149 147q-60 -4 -163 -4h-265v95h265q82 0 163 -4l-149 146l70 65l255 -255z" />
    <glyph glyph-name="arrowdown" unicode="&#x2193;" horiz-adv-x="568" 
d="M484 374l63 -65l-256 -255l-254 255l62 65l149 -153q-4 81 -4 164v273h95v-273q0 -103 -4 -164z" />
    <glyph glyph-name="uni2196" unicode="&#x2196;" horiz-adv-x="555" 
d="M71 585h367v-92h-212q68 -61 121 -116l190 -191l-65 -68l-190 191l-26 26q-57 57 -93 98v-216h-92v368z" />
    <glyph glyph-name="uni2197" unicode="&#x2197;" horiz-adv-x="555" 
d="M133 585h367v-368h-92v216q-38 -43 -95 -100l-23 -24l-191 -191l-65 68l190 191q75 75 121 116h-212v92z" />
    <glyph glyph-name="uni2198" unicode="&#x2198;" horiz-adv-x="555" 
d="M500 118h-367v91h212q-37 33 -121 117l-190 191l65 68l191 -191q78 -78 118 -124v216h92v-368z" />
    <glyph glyph-name="uni2199" unicode="&#x2199;" horiz-adv-x="555" 
d="M438 118h-367v368h92v-216q36 41 93 98l26 26l190 191l65 -68l-190 -191l-14 -14q-58 -61 -107 -103h212v-91z" />
    <glyph glyph-name="partialdiff" unicode="&#x2202;" horiz-adv-x="511" 
d="M253 477q91 0 116 -67l3 22q3 27 3 48q0 70 -32.5 100.5t-101.5 30.5h-120l12 101h119q119 0 176.5 -53.5t57.5 -161.5q0 -33 -4 -61l-24 -199q-15 -131 -69.5 -188.5t-164.5 -57.5q-97 0 -146 42.5t-49 139.5q0 32 4 60q17 132 68.5 188t151.5 56zM143 165
q0 -49 18.5 -66.5t63.5 -17.5q39 0 61.5 12t35 42.5t19.5 89.5q5 43 5 64q0 50 -19 68t-65 18q-39 0 -61 -12t-34.5 -43.5t-19.5 -94.5q-4 -31 -4 -60z" />
    <glyph glyph-name="Delta" unicode="&#x2206;" horiz-adv-x="606" 
d="M554 0h-563l297 712h142zM423 95l-81 489l-200 -489h281z" />
    <glyph glyph-name="product" unicode="&#x220f;" horiz-adv-x="643" 
d="M157 0h-118l87 712h503l-87 -712h-118l75 612h-267z" />
    <glyph glyph-name="summation" unicode="&#x2211;" horiz-adv-x="524" 
d="M459 0h-460l9 77l277 279l-209 280l9 76h462l-15 -107h-299l172 -230l-7 -51l-229 -229h301z" />
    <glyph glyph-name="minus" unicode="&#x2212;" horiz-adv-x="560" 
d="M503 246h-448l10 88h448z" />
    <glyph glyph-name="uni2215" unicode="&#x2215;" horiz-adv-x="63" 
d="M-186 0h-81l542 712h81z" />
    <glyph glyph-name="uni2219" unicode="&#x2219;" horiz-adv-x="212" 
d="M157 227h-108l15 122h108z" />
    <glyph glyph-name="radical" unicode="&#x221a;" horiz-adv-x="626" 
d="M325 0h-100l-106 392l-92 -34l11 88l160 58l93 -368h4l281 576h101z" />
    <glyph glyph-name="infinity" unicode="&#x221e;" horiz-adv-x="702" 
d="M41 276q0 66 42.5 106.5t114.5 40.5q45 0 84 -22.5t80 -60.5q53 41 93 62t83 21q61 0 96.5 -31.5t35.5 -83.5q0 -70 -42 -106.5t-114 -36.5q-45 0 -82 21.5t-81 61.5q-51 -40 -92.5 -61.5t-84.5 -21.5q-63 0 -98 28.5t-35 82.5zM304 293q-32 30 -57.5 45t-53.5 15
q-35 0 -58 -19.5t-23 -48.5q0 -25 17.5 -37.5t49.5 -12.5q29 0 59.5 15t65.5 43zM410 294q30 -28 56 -43.5t53 -15.5q37 0 58 17t21 49q0 23 -17 37.5t-48 14.5q-28 0 -57.5 -15.5t-65.5 -43.5z" />
    <glyph glyph-name="integral" unicode="&#x222b;" horiz-adv-x="354" 
d="M72 -111q49 0 70.5 21.5t21.5 72.5q0 49 -10.5 113.5t-31.5 165.5q-20 102 -30 161.5t-10 105.5q0 96 50 139.5t144 43.5h65v-100h-55q-49 0 -71 -22t-22 -72q0 -44 10.5 -105.5t30.5 -156.5q21 -100 31.5 -163.5t10.5 -110.5q0 -97 -50.5 -143.5t-143.5 -46.5h-70v97h60
z" />
    <glyph glyph-name="approxequal" unicode="&#x2248;" horiz-adv-x="560" 
d="M81 443q2 2 19.5 18t44.5 27t56 11q35 0 59 -11t56 -32q28 -19 47.5 -28t46.5 -9q42 0 70 16.5t53 39.5l-12 -90q-2 -2 -19.5 -18t-44.5 -27t-57 -11q-31 0 -53.5 10t-52.5 30t-51 30t-51 10q-41 0 -68.5 -16t-54.5 -40zM54 227q3 3 21 19t44.5 26.5t55.5 10.5
q35 0 60 -11t55 -32q28 -19 47.5 -28t45.5 -9q42 0 70 16.5t53 39.5l-11 -90q-26 -24 -52.5 -40t-68.5 -16q-31 0 -53.5 10t-52.5 30t-51 30t-51 10q-41 0 -68.5 -15.5t-54.5 -40.5z" />
    <glyph glyph-name="notequal" unicode="&#x2260;" horiz-adv-x="560" 
d="M282 354h-214l12 89h258l87 137h87l-86 -137h102l-12 -89h-146l-82 -128h213l-11 -89h-258l-87 -137h-87l86 137h-102l11 89h147z" />
    <glyph glyph-name="lessequal" unicode="&#x2264;" horiz-adv-x="560" 
d="M490 185l-426 177l11 88l470 177l-11 -95l-354 -129l322 -129zM469 0h-448l9 89h448z" />
    <glyph glyph-name="greaterequal" unicode="&#x2265;" horiz-adv-x="560" 
d="M419 409l-321 129l11 89l426 -177l-11 -88l-470 -177l12 95zM480 0h-448l10 89h448z" />
    <glyph glyph-name="filledbox" unicode="&#x25a0;" horiz-adv-x="744" 
d="M736 0h-712v712h712v-712z" />
    <glyph glyph-name="H22073" unicode="&#x25a1;" horiz-adv-x="744" 
d="M736 0h-712v712h712v-712zM121 621v-530h517v530h-517z" />
    <glyph glyph-name="uni25B6" unicode="&#x25b6;" horiz-adv-x="481" 
d="M481 252l-457 -260v520z" />
    <glyph glyph-name="uni25B7" unicode="&#x25b7;" horiz-adv-x="481" 
d="M481 252l-457 -260v520zM109 370v-236l219 118z" />
    <glyph glyph-name="uni25C0" unicode="&#x25c0;" horiz-adv-x="481" 
d="M16 252l457 260v-520z" />
    <glyph glyph-name="uni25C1" unicode="&#x25c1;" horiz-adv-x="481" 
d="M16 252l457 260v-520zM388 370l-219 -118l219 -118v236z" />
    <glyph glyph-name="lozenge" unicode="&#x25ca;" horiz-adv-x="644" 
d="M381 0h-108l-251 353l251 359h107l250 -359zM143 353l181 -258h4l181 258l-180 258h-5z" />
    <glyph glyph-name="circle" unicode="&#x25cb;" horiz-adv-x="557" 
d="M287 512q74 0 133.5 -33t93.5 -92.5t34 -136.5q0 -75 -34 -134.5t-93.5 -93.5t-133.5 -34t-134 33t-94 92.5t-34 136.5q0 74 34 134t94 94t134 34zM287 73q47 0 84.5 23t59.5 63t22 91q0 52 -21.5 92.5t-59.5 62.5t-85 22t-85 -23t-60 -63t-22 -91q0 -52 22 -92.5
t60 -62.5t85 -22z" />
    <glyph glyph-name="H18533" unicode="&#x25cf;" horiz-adv-x="557" 
d="M287 512q74 0 133.5 -33t93.5 -92.5t34 -136.5q0 -75 -34 -134.5t-93.5 -93.5t-133.5 -34t-134 33t-94 92.5t-34 136.5q0 74 34 134t94 94t134 34z" />
    <glyph glyph-name="uni25FB" unicode="&#x25fb;" horiz-adv-x="536" 
d="M528 0h-504v504h504v-504zM116 419v-333h320v333h-320z" />
    <glyph glyph-name="uni25FC" unicode="&#x25fc;" horiz-adv-x="536" 
d="M528 0h-504v504h504v-504z" />
    <glyph glyph-name="uni2605" unicode="&#x2605;" horiz-adv-x="560" 
d="M132 3l-14 10l68 183l-162 108l5 16l195 -9l53 189h16l52 -189l196 9l5 -16l-163 -108l69 -183l-14 -10l-153 121z" />
    <glyph glyph-name="uniFB00" unicode="&#xfb00;" horiz-adv-x="597" 
d="M39 409l12 95h60l5 45q11 83 53.5 123t124.5 40h70l-11 -99h-49q-34 0 -51.5 -15.5t-22.5 -52.5l-6 -41h156l5 45q10 83 52.5 123t124.5 40h84l-12 -99h-62q-34 0 -51.5 -15.5t-22.5 -52.5l-5 -41h121l-13 -95h-120l-49 -409h-114l49 409h-154l-50 -409h-113l49 409h-60z
" />
    <glyph glyph-name="uniFB01" unicode="&#xfb01;" horiz-adv-x="508" 
d="M306 0l50 409h-143l-50 -409h-113l49 409h-60l12 95h60l5 45q11 83 53.5 123t124.5 40h48l-12 -99h-26q-34 0 -51.5 -15.5t-22.5 -52.5l-6 -41h258l-62 -504h-114zM493 601h-112l14 111h112z" />
    <glyph glyph-name="uniFB02" unicode="&#xfb02;" horiz-adv-x="508" 
d="M39 409l12 95h59l4 33q12 90 57.5 132.5t135.5 42.5h200l-87 -712h-114l75 613h-65q-42 0 -62 -17.5t-26 -62.5l-3 -29h80l-12 -95h-80l-50 -409h-113l49 409h-60z" />
    <glyph glyph-name="uniFB03" unicode="&#xfb03;" horiz-adv-x="777" 
d="M50 0l49 409h-60l12 95h59l6 45q11 83 54 123t124 40h70l-11 -99h-49q-34 0 -51.5 -15.5t-22.5 -52.5l-6 -41h155l6 45q11 84 53.5 123.5t123.5 39.5h48l-12 -99h-26q-34 0 -51.5 -15.5t-22.5 -52.5l-5 -41h258l-62 -504h-115l51 409h-144l-49 -409h-114l50 409h-155
l-50 -409h-113zM762 601h-113l14 111h113z" />
    <glyph glyph-name="uniFB04" unicode="&#xfb04;" horiz-adv-x="776" 
d="M50 0l49 409h-60l12 95h59l6 45q11 83 54 123t124 40h70l-11 -99h-49q-34 0 -51.5 -15.5t-22.5 -52.5l-6 -41h155l4 33q11 90 57 132.5t135 42.5h201l-87 -712h-115l76 613h-66q-42 0 -62.5 -17.5t-25.5 -61.5l-3 -30h80l-12 -95h-80l-49 -409h-114l50 409h-155l-50 -409
h-113z" />
    <glyph glyph-name="uniFEFF" unicode="&#xfeff;" horiz-adv-x="0" 
 />
    <glyph glyph-name="i.locl" horiz-adv-x="227" 
d="M213 601h-114l13 111h114zM139 0h-114l62 504h114z" />
    <glyph glyph-name="L_periodcentered.locl" horiz-adv-x="485" 
d="M438 0h-400l87 712h118l-76 -617h283zM439 312h-97l13 108h97z" />
    <glyph glyph-name="l_periodcentered.locl" horiz-adv-x="294" 
d="M140 0h-114l87 712h114zM317 312h-97l13 108h97z" />
    <glyph glyph-name="dollar.inferior" 
d="M71 -49q-1 -29 11.5 -40t41.5 -11q52 0 52 43q0 13 -10.5 20t-39.5 14l-31 7q-42 9 -66 31t-24 64q0 106 110 123l7 59h76l-7 -59q45 -5 65.5 -27t20.5 -67q0 -16 -1 -25h-84q3 29 -8 38t-40 9q-49 0 -49 -38q0 -16 9.5 -23.5t36.5 -13.5l28 -7q48 -11 72 -32t24 -59
q0 -105 -114 -122l-7 -62h-77l8 63q-50 6 -70.5 33.5t-18.5 81.5h85z" />
    <glyph glyph-name="comma.inferior" horiz-adv-x="156" 
d="M-22 -250l22 177h80l-8 -63l-47 -114h-47z" />
    <glyph glyph-name="hyphen.inferior" horiz-adv-x="259" 
d="M193 -7h-187l6 52h187z" />
    <glyph glyph-name="period.inferior" horiz-adv-x="156" 
d="M70 -159h-80l9 86h80z" />
    <glyph glyph-name="b.inferior" horiz-adv-x="370" 
d="M-9 -159l62 506h89l-23 -187q16 25 35 35t50 10q59 0 87 -29.5t28 -99.5q0 -29 -4 -58q-8 -69 -25.5 -109.5t-48 -58t-77.5 -17.5q-73 0 -84 60l-6 -52h-83zM224 20q4 27 4 51q0 33 -11.5 45t-40.5 12q-25 0 -38.5 -8t-21.5 -31t-14 -69q-5 -43 -5 -59q0 -35 11.5 -47.5
t40.5 -12.5q25 0 38.5 9.5t21.5 34.5t15 75z" />
    <glyph glyph-name="c.inferior" horiz-adv-x="335" 
d="M-6 -36q0 14 4 56q8 69 26 109t51.5 58t88.5 18q74 0 101.5 -36t22.5 -112h-81q2 42 -7.5 56.5t-39.5 14.5q-25 0 -37.5 -8t-20 -31t-14.5 -72q-5 -31 -5 -60q0 -33 11 -44.5t39 -11.5q30 0 43.5 17t21.5 63h82q-14 -79 -47.5 -113.5t-101.5 -34.5q-72 0 -104.5 30.5
t-32.5 100.5z" />
    <glyph glyph-name="d.inferior" horiz-adv-x="368" 
d="M-6 -41q0 17 4 61q12 102 46.5 143.5t104.5 41.5q65 0 79 -42l23 184h89l-62 -506h-84l5 45q-15 -28 -37 -40.5t-52 -12.5q-60 0 -88 28.5t-28 97.5zM211 20q5 33 5 51q0 34 -12 45.5t-41 11.5q-25 0 -38.5 -8.5t-21.5 -31t-14 -68.5q-5 -43 -5 -58q0 -36 11.5 -48.5
t39.5 -12.5q25 0 39 9.5t22 34.5t15 75z" />
    <glyph glyph-name="f.inferior" horiz-adv-x="240" 
d="M11 -159l35 282h-42l8 74h42l5 32q9 61 41 89.5t91 28.5h59l-10 -77h-44q-22 0 -34.5 -11t-15.5 -36l-3 -26h83l-9 -74h-83l-34 -282h-89z" />
    <glyph glyph-name="g.inferior" horiz-adv-x="369" 
d="M71 -189q-2 -32 8 -44t42 -12t47 14t20 53l7 64q-15 -25 -35 -35t-49 -10q-60 0 -88 28.5t-28 95.5q0 31 4 58q9 68 26.5 107.5t47.5 57t77 17.5q71 0 84 -60l5 52h83l-45 -370q-10 -75 -45.5 -107t-111.5 -32q-78 0 -107 30t-26 93h84zM212 23q4 27 4 49q0 33 -12 44.5
t-40 11.5q-25 0 -39 -8.5t-22 -30.5t-14 -66q-4 -31 -4 -55q0 -35 11.5 -47.5t40.5 -12.5q25 0 39 9t22 33.5t14 72.5z" />
    <glyph glyph-name="i.inferior" horiz-adv-x="170" 
d="M132 264h-90l11 83h89zM80 -159h-89l43 356h89z" />
    <glyph glyph-name="j.inferior" horiz-adv-x="169" 
d="M132 264h-90l11 83h89zM34 197h89l-46 -380q-8 -64 -40.5 -94t-95.5 -30h-37l9 68h23q45 0 51 45z" />
    <glyph glyph-name="q.inferior" horiz-adv-x="368" 
d="M-6 -41q0 32 4 61q12 102 46.5 143.5t104.5 41.5q69 0 82 -53l6 45h84l-62 -504h-89l23 186q-15 -25 -34.5 -35.5t-48.5 -10.5q-60 0 -88 28.5t-28 97.5zM211 20q5 33 5 51q0 34 -12 45.5t-41 11.5q-25 0 -38.5 -8.5t-21.5 -31t-14 -68.5q-5 -43 -5 -58q0 -36 11.5 -48.5
t39.5 -12.5q25 0 39 9.5t22 34.5t15 75z" />
    <glyph glyph-name="r.inferior" horiz-adv-x="227" 
d="M17 75q8 65 37.5 93.5t93.5 28.5h65l-9 -74h-48q-24 0 -35.5 -10t-14.5 -34l-28 -238h-90z" />
    <glyph glyph-name="u.inferior" horiz-adv-x="361" 
d="M31 197h88l-27 -222q-2 -20 -2 -27q0 -26 10.5 -36.5t35.5 -10.5q31 0 44 16.5t18 58.5l27 221h88l-43 -356h-83l5 42q-13 -25 -33.5 -37.5t-54.5 -12.5q-104 0 -104 101q0 9 2 31z" />
    <glyph glyph-name="v.inferior" horiz-adv-x="336" 
d="M160 -159h-83l-77 356h87l48 -244l105 244h84z" />
    <glyph glyph-name="w.inferior" horiz-adv-x="515" 
d="M148 -159h-87l-61 356h89l33 -239l99 239h69l40 -237l90 237h82l-148 -356h-79l-40 209z" />
    <glyph glyph-name="y.inferior" horiz-adv-x="336" 
d="M-2 -239q27 0 43 10.5t28 38.5l10 25l-79 362h87l48 -244l105 244h84l-181 -394q-19 -40 -35 -63t-40 -35t-62 -12h-41l9 68h24z" />
    <glyph glyph-name="z.inferior" horiz-adv-x="296" 
d="M222 -159h-246l6 49l166 233h-140l9 74h251l-6 -49l-170 -239h138z" />
    <glyph glyph-name="cent.inferior" 
d="M97 -110q-45 5 -66 28t-21 69q0 9 2 31q8 63 33 93t77 36l7 58h64l-7 -58q45 -7 62.5 -32.5t14.5 -71.5h-71q0 28 -9 37.5t-33 9.5q-19 0 -29.5 -4.5t-17.5 -20.5t-12 -50q-2 -14 -2 -31q0 -28 10 -36.5t33 -8.5q24 0 35 10.5t17 38.5h72q-9 -44 -31 -68t-64 -29l-7 -59
h-64z" />
    <glyph glyph-name="Euro.inferior" 
d="M-27 -53l5 45h31q0 19 5 44h-30l5 48h34q17 68 51.5 94.5t99.5 26.5q70 0 94.5 -30t20.5 -101h-70q2 40 -7 52.5t-41 12.5q-28 0 -42 -10.5t-23 -44.5h70l-5 -48h-74q-5 -25 -5 -44h73l-5 -45h-70q1 -33 12 -43t39 -10q30 0 43 12.5t20 50.5h71q-11 -65 -41 -94.5
t-96 -29.5q-64 0 -96 26t-34 88h-35z" />
    <glyph glyph-name="dollar.superior" 
d="M153 626q-1 -29 11.5 -40t41.5 -11q52 0 52 43q0 13 -10.5 20t-39.5 14l-31 7q-42 9 -66 31t-24 64q0 106 110 123l7 59h76l-7 -59q45 -5 65.5 -27t20.5 -67q0 -16 -1 -25h-84q3 29 -8 38t-40 9q-49 0 -49 -38q0 -16 9.5 -23.5t36.5 -13.5l28 -7q48 -11 72 -32t24 -59
q0 -105 -114 -122l-7 -62h-77l8 63q-50 6 -70.5 33.5t-18.5 81.5h85z" />
    <glyph glyph-name="comma.superior" horiz-adv-x="156" 
d="M60 425l22 177h80l-8 -63l-47 -114h-47z" />
    <glyph glyph-name="hyphen.superior" horiz-adv-x="259" 
d="M275 668h-187l6 52h187z" />
    <glyph glyph-name="period.superior" horiz-adv-x="156" 
d="M152 516h-80l9 86h80z" />
    <glyph glyph-name="a.superior" horiz-adv-x="334" 
d="M64 594q0 45 20.5 70.5t52.5 38t82 21.5l48 9l2 32q0 22 -9.5 32.5t-30.5 10.5q-29 0 -42 -12t-17 -44h-79q10 64 42.5 96t103.5 32q122 0 122 -104q0 -8 -2 -26l-28 -234h-85l6 40q-27 -48 -90 -48q-45 0 -70.5 22.5t-25.5 63.5zM226 667q-35 -5 -54.5 -16.5
t-19.5 -40.5q0 -37 39 -37q56 0 63 59l5 40z" />
    <glyph glyph-name="b.superior" horiz-adv-x="370" 
d="M73 516l62 506h89l-23 -187q16 25 35 35t50 10q59 0 87 -29.5t28 -99.5q0 -29 -4 -58q-8 -69 -25.5 -109.5t-48 -58t-77.5 -17.5q-73 0 -84 60l-6 -52h-83zM306 695q4 27 4 51q0 33 -11.5 45t-40.5 12q-25 0 -38.5 -8t-21.5 -31t-14 -69q-5 -43 -5 -59q0 -35 11.5 -47.5
t40.5 -12.5q25 0 38.5 9.5t21.5 34.5t15 75z" />
    <glyph glyph-name="c.superior" horiz-adv-x="335" 
d="M76 639q0 14 4 56q8 69 26 109t51.5 58t88.5 18q74 0 101.5 -36t22.5 -112h-81q2 42 -7.5 56.5t-39.5 14.5q-25 0 -37.5 -8t-20 -31t-14.5 -72q-5 -31 -5 -60q0 -33 11 -44.5t39 -11.5q30 0 43.5 17t21.5 63h82q-14 -79 -47.5 -113.5t-101.5 -34.5q-72 0 -104.5 30.5
t-32.5 100.5z" />
    <glyph glyph-name="d.superior" horiz-adv-x="368" 
d="M76 634q0 17 4 61q12 102 46.5 143.5t104.5 41.5q65 0 79 -42l23 184h89l-62 -506h-84l5 45q-15 -28 -37 -40.5t-52 -12.5q-60 0 -88 28.5t-28 97.5zM293 695q5 33 5 51q0 34 -12 45.5t-41 11.5q-25 0 -38.5 -8.5t-21.5 -31t-14 -68.5q-5 -43 -5 -58q0 -36 11.5 -48.5
t39.5 -12.5q25 0 39 9.5t22 34.5t15 75z" />
    <glyph glyph-name="e.superior" horiz-adv-x="340" 
d="M77 641q0 24 3 52q9 69 27.5 109.5t52 59t87.5 18.5q69 0 99 -31t30 -98q0 -16 -4 -56l-2 -17h-203q-3 -27 -3 -45q0 -36 12 -47.5t41 -11.5q30 0 44 11t21 39h78q-11 -57 -44 -86.5t-99 -29.5q-74 0 -107 31t-33 102zM175 736h118l1 17q0 31 -11.5 42t-38.5 11
q-29 0 -44.5 -14t-24.5 -56z" />
    <glyph glyph-name="f.superior" horiz-adv-x="240" 
d="M93 516l35 282h-42l8 74h42l5 32q9 61 41 89.5t91 28.5h59l-10 -77h-44q-22 0 -34.5 -11t-15.5 -36l-3 -26h83l-9 -74h-83l-34 -282h-89z" />
    <glyph glyph-name="g.superior" horiz-adv-x="369" 
d="M153 486q-2 -32 8 -44t42 -12t47 14t20 53l7 64q-15 -25 -35 -35t-49 -10q-60 0 -88 28.5t-28 95.5q0 31 4 58q9 68 26.5 107.5t47.5 57t77 17.5q71 0 84 -60l5 52h83l-45 -370q-10 -75 -45.5 -107t-111.5 -32q-78 0 -107 30t-26 93h84zM294 698q4 27 4 49q0 33 -12 44.5
t-40 11.5q-25 0 -39 -8.5t-22 -30.5t-14 -66q-4 -31 -4 -55q0 -35 11.5 -47.5t40.5 -12.5q25 0 39 9t22 33.5t14 72.5z" />
    <glyph glyph-name="h.superior" horiz-adv-x="361" 
d="M73 516l62 506h89l-23 -182q15 21 33.5 30.5t48.5 9.5q103 0 103 -97q0 -8 -2 -26l-29 -241h-88l26 213q2 22 2 27q0 26 -10 35.5t-35 9.5q-31 0 -44 -14.5t-18 -57.5l-26 -213h-89z" />
    <glyph glyph-name="j.superior" horiz-adv-x="169" 
d="M214 939h-90l11 83h89zM116 872h89l-46 -380q-8 -64 -40.5 -94t-95.5 -30h-37l9 68h23q45 0 51 45z" />
    <glyph glyph-name="k.superior" horiz-adv-x="352" 
d="M162 516h-89l62 506h89l-37 -296l139 146h100l-142 -146l98 -210h-93l-69 147l-47 -48z" />
    <glyph glyph-name="l.superior" horiz-adv-x="170" 
d="M162 516h-89l62 506h89z" />
    <glyph glyph-name="m.superior" horiz-adv-x="555" 
d="M73 516l43 356h85l-5 -41q13 25 33 37t54 12q81 0 98 -55q14 27 37 41t59 14q104 0 104 -98q0 -7 -2 -25l-29 -241h-89l26 213q2 22 2 28q0 25 -10 34.5t-35 9.5q-31 0 -44 -14.5t-18 -57.5l-27 -213h-88l26 213q2 22 2 27q0 26 -10 35.5t-35 9.5q-31 0 -44 -14.5
t-18 -57.5l-26 -213h-89z" />
    <glyph glyph-name="o.superior" horiz-adv-x="356" 
d="M77 640q0 25 3 55q8 71 26 110.5t52 57t91 17.5q74 0 106.5 -30t32.5 -101q0 -29 -4 -54q-9 -71 -27 -111t-51.5 -58t-90.5 -18q-74 0 -106 30.5t-32 101.5zM295 695q4 27 4 50q0 35 -12 46.5t-42 11.5q-24 0 -38 -8.5t-22 -31t-14 -68.5q-5 -31 -5 -58q0 -36 11.5 -48.5
t40.5 -12.5q25 0 39 9.5t22.5 34.5t15.5 75z" />
    <glyph glyph-name="p.superior" horiz-adv-x="369" 
d="M143 368h-88l61 504h85l-6 -48q15 31 36 43.5t55 12.5q59 0 86.5 -29t27.5 -99q0 -25 -3 -57q-8 -70 -25.5 -110.5t-47.5 -58.5t-78 -18q-63 0 -80 43zM306 695q4 29 4 52q0 33 -11.5 44.5t-40.5 11.5q-25 0 -38.5 -8t-21.5 -31t-14 -69q-5 -43 -5 -59q0 -35 11.5 -47.5
t40.5 -12.5q25 0 38.5 9.5t21.5 34.5t15 75z" />
    <glyph glyph-name="q.superior" horiz-adv-x="368" 
d="M76 634q0 32 4 61q12 102 46.5 143.5t104.5 41.5q69 0 82 -53l6 45h84l-62 -504h-89l23 186q-15 -25 -34.5 -35.5t-48.5 -10.5q-60 0 -88 28.5t-28 97.5zM293 695q5 33 5 51q0 34 -12 45.5t-41 11.5q-25 0 -38.5 -8.5t-21.5 -31t-14 -68.5q-5 -43 -5 -58
q0 -36 11.5 -48.5t39.5 -12.5q25 0 39 9.5t22 34.5t15 75z" />
    <glyph glyph-name="r.superior" horiz-adv-x="227" 
d="M99 750q8 65 37.5 93.5t93.5 28.5h65l-9 -74h-48q-24 0 -35.5 -10t-14.5 -34l-28 -238h-90z" />
    <glyph glyph-name="s.superior" horiz-adv-x="315" 
d="M148 625l-1 -13q0 -23 11 -31.5t37 -8.5q27 0 42 10.5t15 36.5q0 14 -9.5 21t-34.5 12l-41 8q-80 17 -80 92q0 64 37.5 96t103.5 32q63 0 92.5 -23.5t29.5 -71.5q0 -9 -2 -27h-77q2 29 -7.5 40t-38.5 11q-24 0 -38 -10t-14 -35q0 -15 9 -22t37 -13l40 -9q79 -18 79 -90
q0 -64 -37.5 -93t-109.5 -29q-74 0 -99.5 30.5t-21.5 86.5h78z" />
    <glyph glyph-name="t.superior" horiz-adv-x="245" 
d="M121 798h-43l9 74h45l11 87h86l-11 -87h88l-9 -74h-88l-20 -165q-1 -5 -1 -15q0 -19 10 -26.5t33 -7.5h39l-8 -68h-50q-58 0 -85.5 21.5t-27.5 70.5q0 9 2 31z" />
    <glyph glyph-name="u.superior" horiz-adv-x="361" 
d="M113 872h88l-27 -222q-2 -20 -2 -27q0 -26 10.5 -36.5t35.5 -10.5q31 0 44 16.5t18 58.5l27 221h88l-43 -356h-83l5 42q-13 -25 -33.5 -37.5t-54.5 -12.5q-104 0 -104 101q0 9 2 31z" />
    <glyph glyph-name="v.superior" horiz-adv-x="336" 
d="M242 516h-83l-77 356h87l48 -244l105 244h84z" />
    <glyph glyph-name="w.superior" horiz-adv-x="515" 
d="M230 516h-87l-61 356h89l33 -239l99 239h69l40 -237l90 237h82l-148 -356h-79l-40 209z" />
    <glyph glyph-name="x.superior" horiz-adv-x="330" 
d="M127 516h-91l135 178l-89 178h93l54 -111l80 111h92l-134 -177l91 -179h-95l-54 113z" />
    <glyph glyph-name="y.superior" horiz-adv-x="336" 
d="M80 436q27 0 43 10.5t28 38.5l10 25l-79 362h87l48 -244l105 244h84l-181 -394q-19 -40 -35 -63t-40 -35t-62 -12h-41l9 68h24z" />
    <glyph glyph-name="z.superior" horiz-adv-x="296" 
d="M304 516h-246l6 49l166 233h-140l9 74h251l-6 -49l-170 -239h138z" />
    <glyph glyph-name="cent.superior" 
d="M179 565q-45 5 -66 28t-21 69q0 9 2 31q8 63 33 93t77 36l7 58h64l-7 -58q45 -7 62.5 -32.5t14.5 -71.5h-71q0 28 -9 37.5t-33 9.5q-19 0 -29.5 -4.5t-17.5 -20.5t-12 -50q-2 -14 -2 -31q0 -28 10 -36.5t33 -8.5q24 0 35 10.5t17 38.5h72q-9 -44 -31 -68t-64 -29l-7 -59
h-64z" />
    <glyph glyph-name="Euro.superior" 
d="M55 622l5 45h31q0 19 5 44h-30l5 48h34q17 68 51.5 94.5t99.5 26.5q70 0 94.5 -30t20.5 -101h-70q2 40 -7 52.5t-41 12.5q-28 0 -42 -10.5t-23 -44.5h70l-5 -48h-74q-5 -25 -5 -44h73l-5 -45h-70q1 -33 12 -43t39 -10q30 0 43 12.5t20 50.5h71q-11 -65 -41 -94.5
t-96 -29.5q-64 0 -96 26t-34 88h-35z" />
    <glyph glyph-name="dollar.numr" 
d="M133 466q-1 -29 11.5 -40t41.5 -11q52 0 52 43q0 13 -10.5 20t-39.5 14l-31 7q-42 9 -66 31t-24 64q0 106 110 123l7 59h76l-7 -59q45 -5 65.5 -27t20.5 -67q0 -16 -1 -25h-84q3 29 -8 38t-40 9q-49 0 -49 -38q0 -16 9.5 -23.5t36.5 -13.5l28 -7q48 -11 72 -32t24 -59
q0 -105 -114 -122l-7 -62h-77l8 63q-50 6 -70.5 33.5t-18.5 81.5h85z" />
    <glyph glyph-name="parenleft.numr" horiz-adv-x="164" 
d="M195 772h20l-7 -63h-5q-24 0 -35 -9t-19.5 -44.5t-19.5 -121.5q-11 -93 -11 -124q0 -23 4.5 -34t12.5 -14t25 -3h4l-7 -63h-20q-52 0 -73.5 26t-21.5 97q0 48 9 123q12 101 28 149t41.5 64.5t74.5 16.5z" />
    <glyph glyph-name="parenright.numr" horiz-adv-x="164" 
d="M36 296h-20l7 63h5q24 0 35.5 9t20 44.5t19.5 121.5q10 84 10 124q0 23 -4.5 34t-12.5 14t-24 3h-5l7 63h20q52 0 73.5 -26t21.5 -97q0 -48 -9 -123q-13 -102 -28.5 -149.5t-41 -64t-74.5 -16.5z" />
    <glyph glyph-name="plus.numr" 
d="M210 419h-56l10 89h-96l6 52h97l12 89h56l-11 -89h96l-6 -52h-96z" />
    <glyph glyph-name="comma.numr" horiz-adv-x="156" 
d="M40 265l22 177h80l-8 -63l-47 -114h-47z" />
    <glyph glyph-name="hyphen.numr" horiz-adv-x="259" 
d="M255 508h-187l6 52h187z" />
    <glyph glyph-name="period.numr" horiz-adv-x="156" 
d="M132 356h-80l9 86h80z" />
    <glyph glyph-name="zero.numr" 
d="M48 478q0 28 4 59q8 67 24 106t48.5 58t88.5 19q70 0 100 -30.5t30 -97.5q0 -36 -4 -57q-8 -69 -25.5 -109.5t-50 -59t-86.5 -18.5q-69 0 -99 30t-30 100zM250 536q5 43 5 58q0 30 -10.5 40.5t-35.5 10.5q-23 0 -35 -8t-19 -31t-13 -70q-6 -45 -6 -70q0 -30 10 -40.5
t35 -10.5q23 0 35.5 9t20 34t13.5 78z" />
    <glyph glyph-name="one.numr" 
d="M246 356h-89l33 270l-89 -25l9 75l114 36h65z" />
    <glyph glyph-name="two.numr" 
d="M47 400q5 45 32 73.5t73 51.5l40 20q33 17 46.5 29t13.5 36q0 18 -10.5 26.5t-31.5 8.5q-28 0 -40.5 -11t-20.5 -45h-84q13 68 46 99.5t104 31.5q127 0 127 -104q0 -45 -25 -74.5t-72 -52.5l-48 -24q-27 -13 -38.5 -21.5t-17.5 -20.5h171l-8 -67h-263z" />
    <glyph glyph-name="three.numr" 
d="M129 475q-2 -36 9 -48t42 -12q28 0 42 11t14 39q0 17 -10.5 24.5t-36.5 7.5h-30l8 69h32q25 0 39.5 11.5t14.5 35.5q0 32 -46 32q-26 0 -40.5 -12t-19.5 -44h-85q11 67 46 99t105 32q65 0 96.5 -26t31.5 -71q0 -29 -12 -48.5t-39 -36.5q36 -19 36 -69q0 -62 -40 -91.5
t-111 -29.5q-74 0 -103.5 28t-25.5 99h83z" />
    <glyph glyph-name="four.numr" 
d="M194 424h-159l6 57l162 231h111l-26 -220h43l-8 -68h-43l-9 -68h-85zM218 624l-94 -132h78z" />
    <glyph glyph-name="five.numr" 
d="M132 463q-2 -28 9 -38t40 -10q35 0 47 20t12 55q0 21 -10 30t-35 9q-27 0 -39.5 -9.5t-19.5 -30.5h-79l4 27l41 196h237l-9 -75h-169l-13 -61q32 17 64 17q118 0 118 -101q0 -70 -38 -107t-114 -37q-71 0 -101 27.5t-28 87.5h83z" />
    <glyph glyph-name="six.numr" 
d="M108 593l100 119h102l-112 -125q11 3 22 3q55 0 84.5 -24.5t29.5 -74.5q0 -7 -2 -23q-8 -66 -45.5 -93t-106.5 -27q-64 0 -97.5 24t-33.5 79q0 8 2 26q5 35 18.5 61t38.5 55zM139 453q0 -21 10 -29.5t35 -8.5q30 0 42.5 12.5t16.5 43.5q1 7 1 18q0 20 -10.5 28.5
t-35.5 8.5q-30 0 -42 -12.5t-16 -42.5q-1 -7 -1 -18z" />
    <glyph glyph-name="seven.numr" 
d="M168 356h-91l174 281h-179l9 75h275l-7 -56z" />
    <glyph glyph-name="eight.numr" 
d="M103 534q-34 23 -34 68q0 58 38 88t107 30q64 0 96 -26.5t32 -70.5q0 -28 -14 -51t-40 -38q40 -18 40 -69q0 -62 -38.5 -89.5t-112.5 -27.5q-132 0 -132 93q0 34 13 56.5t45 36.5zM253 619q0 16 -10 23t-33 7q-29 0 -41.5 -13.5t-12.5 -40.5q0 -15 10 -22t33 -7
q30 0 42 13t12 40zM239 470q0 17 -11 25t-36 8q-58 0 -58 -54q0 -18 11 -26t36 -8q58 0 58 55z" />
    <glyph glyph-name="nine.numr" 
d="M194 481q-12 -3 -22 -3q-114 0 -114 98q0 8 2 24q8 65 45.5 92.5t106.5 27.5q65 0 98 -24t33 -80q0 -5 -2 -23q-5 -58 -57 -118l-100 -119h-101zM252 591q1 8 1 19q0 20 -10.5 29.5t-35.5 9.5q-29 0 -42 -13.5t-17 -44.5q-1 -7 -1 -18q0 -19 10.5 -27.5t35.5 -8.5
q30 0 42 12t17 42z" />
    <glyph glyph-name="equal.numr" 
d="M326 573h-250l5 53h250zM309 442h-250l6 53h250z" />
    <glyph glyph-name="a.numr" horiz-adv-x="334" 
d="M44 434q0 45 20.5 70.5t52.5 38t82 21.5l48 9l2 32q0 22 -9.5 32.5t-30.5 10.5q-29 0 -42 -12t-17 -44h-79q10 64 42.5 96t103.5 32q122 0 122 -104q0 -8 -2 -26l-28 -234h-85l6 40q-27 -48 -90 -48q-45 0 -70.5 22.5t-25.5 63.5zM206 507q-35 -5 -54.5 -16.5
t-19.5 -40.5q0 -37 39 -37q56 0 63 59l5 40z" />
    </font>
</defs>
</svg>
